<svg xmlns="http://www.w3.org/2000/svg" viewBox="0 0 24 24">
    <path d="M7.01183 8.59131L5.00712 10.5905C4.91617 10.6872 4.78919 10.742 4.65629 10.742C4.5234 10.742 4.39642 10.6872 4.30547 10.5905L2.15041 8.49135C2.05351 8.40065 1.99854 8.27402 1.99854 8.14148C1.99854 8.00894 2.05351 7.88231 2.15041 7.79161L5.86914 4.07303C6.11866 3.8235 6.42987 3.64418 6.77126 3.55323L8.82609 3.00344C8.94685 2.97471 9.0705 3.03849 9.11677 3.15338C9.73326 4.19808 10.8138 4.8855 12.0236 5.00268C13.2315 4.88771 14.3116 4.20425 14.9304 3.16338C14.9729 3.04452 15.0976 2.97591 15.2211 3.00344L17.2258 3.54323C17.5672 3.63418 17.8784 3.81351 18.1279 4.06303L21.8467 7.78162C21.9436 7.87232 21.9985 7.99895 21.9985 8.13148C21.9985 8.26402 21.9436 8.39065 21.8467 8.48135L19.7217 10.6005C19.6307 10.6972 19.5037 10.752 19.3708 10.752C19.2379 10.752 19.111 10.6972 19.02 10.6005L17.0153 8.6013V19.997C17.0153 20.549 16.5665 20.9966 16.013 20.9966H8.01418C7.46059 20.9966 7.01183 20.549 7.01183 19.997V8.59131Z" fill="currentColor" />
</svg>
