<svg xmlns="http://www.w3.org/2000/svg" viewBox="0 0 24 24">
    <path d="M3.5 9H4.5C4.77614 9 5 8.77614 5 8.5V5H8.5C8.77614 5 9 4.77614 9 4.5V3.5C9 3.22386 8.77614 3 8.5 3H5C3.89543 3 3 3.89543 3 5V8.5C3 8.77614 3.22386 9 3.5 9ZM5 19H8.5C8.77614 19 9 19.2239 9 19.5V20.5C9 20.7761 8.77614 21 8.5 21H5C3.89543 21 3 20.1046 3 19V15.5C3 15.2239 3.22386 15 3.5 15H4.5C4.77614 15 5 15.2239 5 15.5V19ZM21 19V15.5C21 15.2239 20.7761 15 20.5 15H19.5C19.2239 15 19 15.2239 19 15.5V19H15.5C15.2239 19 15 19.2239 15 19.5V20.5C15 20.7761 15.2239 21 15.5 21H19C20.1046 21 21 20.1046 21 19ZM15.5 3H19C20.1046 3 21 3.89543 21 5V8.5C21 8.77614 20.7761 9 20.5 9H19.5C19.2239 9 19 8.77614 19 8.5V5H15.5C15.2239 5 15 4.77614 15 4.5V3.5C15 3.22386 15.2239 3 15.5 3ZM16.76 13.6V10.4C16.7593 9.6862 16.3782 9.0269 15.76 8.67L13.33 7.27C13.0262 7.09375 12.6813 7.00062 12.33 7H11.67C11.3187 7.00062 10.9738 7.09375 10.67 7.27L8.24 8.67C7.62183 9.0269 7.24073 9.6862 7.24 10.4V13.6C7.24073 14.3138 7.62183 14.9731 8.24 15.33L10.67 16.73C10.9738 16.9063 11.3187 16.9994 11.67 17H12.33C12.6813 16.9994 13.0262 16.9063 13.33 16.73L15.76 15.33C16.3782 14.9731 16.7593 14.3138 16.76 13.6ZM12 15H12.33L14.76 13.6V10.4L12.33 9H11.67L9.24 10.4L11.5 11.71C11.8106 11.8893 12.0014 12.2213 12 12.58V15Z" fill="currentColor" fill-rule="evenodd" clip-rule="evenodd" />
</svg>
