<svg xmlns="http://www.w3.org/2000/svg" viewBox="0 0 24 24">
    <path d="M20.5 3H19.5C19.2239 3 19 3.22386 19 3.5V4.5C19 4.77614 18.7761 5 18.5 5H17.5C17.2239 5 17 4.77614 17 4.5V3.5C17 3.22386 16.7761 3 16.5 3H7.5C7.22386 3 7 3.22386 7 3.5V4.5C7 4.77614 6.77614 5 6.5 5H5.5C5.22386 5 5 4.77614 5 4.5V3.5C5 3.22386 4.77614 3 4.5 3H3.5C3.22386 3 3 3.22386 3 3.5V20.5C3 20.7761 3.22386 21 3.5 21H4.5C4.77614 21 5 20.7761 5 20.5V19.5C5 19.2239 5.22386 19 5.5 19H6.5C6.77614 19 7 19.2239 7 19.5V20.5C7 20.7761 7.22386 21 7.5 21H16.5C16.7761 21 17 20.7761 17 20.5V19.5C17 19.2239 17.2239 19 17.5 19H18.5C18.7761 19 19 19.2239 19 19.5V20.5C19 20.7761 19.2239 21 19.5 21H20.5C20.7761 21 21 20.7761 21 20.5V3.5C21 3.22386 20.7761 3 20.5 3ZM7 16.5C7 16.7761 6.77614 17 6.5 17H5.5C5.22386 17 5 16.7761 5 16.5V13.5C5 13.2239 5.22386 13 5.5 13H6.5C6.77614 13 7 13.2239 7 13.5V16.5ZM6.5 11C6.77614 11 7 10.7761 7 10.5V7.5C7 7.22386 6.77614 7 6.5 7H5.5C5.22386 7 5 7.22386 5 7.5V10.5C5 10.7761 5.22386 11 5.5 11H6.5ZM19 16.5C19 16.7761 18.7761 17 18.5 17H17.5C17.2239 17 17 16.7761 17 16.5V13.5C17 13.2239 17.2239 13 17.5 13H18.5C18.7761 13 19 13.2239 19 13.5V16.5ZM18.5 11C18.7761 11 19 10.7761 19 10.5V7.5C19 7.22386 18.7761 7 18.5 7H17.5C17.2239 7 17 7.22386 17 7.5V10.5C17 10.7761 17.2239 11 17.5 11H18.5Z" fill="currentColor" fill-rule="evenodd" clip-rule="evenodd" />
</svg>
