<svg xmlns="http://www.w3.org/2000/svg" viewBox="0 0 24 24">
    <path d="M11.9908 4.99985V2.70985C11.9888 2.57427 12.0432 2.44393 12.141 2.34985L12.3412 2.14985C12.4352 2.0552 12.5631 2.00195 12.6965 2.00195C12.83 2.00195 12.9579 2.0552 13.0519 2.14985L16.5956 5.67985C16.7876 5.87767 16.7876 6.19204 16.5956 6.38985L13.0519 9.91985C12.9579 10.0145 12.83 10.0678 12.6965 10.0678C12.5631 10.0678 12.4352 10.0145 12.3412 9.91985L12.141 9.71985C12.0432 9.62578 11.9888 9.49544 11.9908 9.35985V6.99985C8.73578 7.00942 6.08076 9.60739 6.00389 12.8581C5.92701 16.1089 8.45626 18.8292 11.7072 18.9923C14.9581 19.1554 17.7475 16.7019 17.9971 13.4599C18.018 13.1994 18.2361 12.999 18.4976 12.9999H19.4987C19.6386 13.0013 19.7721 13.0589 19.869 13.1599C19.9601 13.2609 20.0069 13.3941 19.9992 13.5299C19.7109 17.8674 16.008 21.1812 11.6604 20.9923C7.31285 20.8034 3.91195 17.1809 4.00174 12.8348C4.09153 8.48857 7.63916 5.0094 11.9908 4.99985Z" fill="currentColor" />
</svg>
