<svg xmlns="http://www.w3.org/2000/svg" viewBox="0 0 24 24">
    <path d="M7.9998 6V10C7.9998 12.2091 9.79066 14 11.9998 14C14.2089 14 15.9998 12.2091 15.9998 10V6C15.9998 3.79086 14.2089 2 11.9998 2C9.79066 2 7.9998 3.79086 7.9998 6ZM18.8598 13.2C18.9668 13.2463 19.0475 13.338 19.0798 13.45C19.1065 13.5665 19.0769 13.6887 18.9998 13.78V13.86C17.7646 16.0971 15.535 17.6095 12.9998 17.93V20H14.4998C14.7759 20 14.9998 20.2239 14.9998 20.5V21.5C14.9998 21.7761 14.7759 22 14.4998 22H9.4998C9.22365 22 8.9998 21.7761 8.9998 21.5V20.5C8.9998 20.2239 9.22365 20 9.4998 20H10.9598V17.98C8.42455 17.6595 6.19497 16.1471 4.9598 13.91C4.90533 13.7822 4.90533 13.6378 4.9598 13.51C4.99911 13.3772 5.0939 13.2678 5.2198 13.21L6.1298 12.79C6.36505 12.679 6.64602 12.7712 6.7698 13C7.84783 14.8939 9.86803 16.0544 12.0472 16.0316C14.2263 16.0087 16.2217 14.8061 17.2598 12.89C17.366 12.6931 17.6078 12.614 17.8098 12.71L18.8598 13.2Z" fill="currentColor" fill-rule="evenodd" clip-rule="evenodd" />
</svg>
