<svg xmlns="http://www.w3.org/2000/svg" viewBox="0 0 24 24">
    <path d="M16.0001 10V6C16.0001 3.79086 14.2092 2 12.0001 2C10.3484 2.00647 8.87052 3.02746 8.28005 4.57L15.5501 11.84C15.8475 11.2724 16.0019 10.6408 16.0001 10ZM20.8501 20.32L20.3201 20.85C20.2293 20.9467 20.1026 21.0015 19.9701 21.0015C19.8375 21.0015 19.7108 20.9467 19.6201 20.85L15.7901 17C14.9251 17.4732 13.9785 17.7786 13.0001 17.9V20H14.5001C14.7762 20 15.0001 20.2239 15.0001 20.5V21.5C15.0001 21.7761 14.7762 22 14.5001 22H9.50005C9.22391 22 9.00005 21.7761 9.00005 21.5V20.5C9.00005 20.2239 9.22391 20 9.50005 20H11.0001V17.93C8.46832 17.6002 6.24256 16.0904 5.00005 13.86C4.95081 13.7312 4.95081 13.5888 5.00005 13.46C5.04696 13.3283 5.14401 13.2205 5.27005 13.16L6.17005 12.74C6.40525 12.621 6.69245 12.7094 6.82005 12.94C8.31226 15.5794 11.539 16.6907 14.3401 15.53L12.7401 13.93C12.4962 13.9772 12.2484 14.0007 12.0001 14C9.79091 14 8.00005 12.2091 8.00005 10V9.24L3.15005 4.38C3.05338 4.28927 2.99854 4.16259 2.99854 4.03C2.99854 3.89741 3.05338 3.77073 3.15005 3.68L3.68005 3.15C3.77079 3.05332 3.89747 2.99848 4.03005 2.99848C4.16264 2.99848 4.28932 3.05332 4.38005 3.15L20.8501 19.62C20.9467 19.7107 21.0016 19.8374 21.0016 19.97C21.0016 20.1026 20.9467 20.2293 20.8501 20.32ZM19.0001 13.46C19.0493 13.5888 19.0493 13.7312 19.0001 13.86C18.8183 14.1645 18.6144 14.4553 18.3901 14.73L16.9601 13.3C17.04 13.18 17.11 13.06 17.18 12.94L17.1801 12.94C17.3077 12.7094 17.5949 12.621 17.8301 12.74L18.7301 13.16C18.8561 13.2205 18.9531 13.3283 19.0001 13.46Z" fill="currentColor" fill-rule="evenodd" clip-rule="evenodd" />
</svg>
