<svg xmlns="http://www.w3.org/2000/svg" viewBox="0 0 24 24">
    <path d="M19.9946 12.9999C20.1409 17.4181 16.6789 21.1185 12.2621 21.2649C7.84529 21.4112 4.14615 17.9481 3.99985 13.5299C3.99213 13.3941 4.03892 13.2609 4.1298 13.1599C4.23135 13.0539 4.37296 12.9957 4.51967 12.9999H5.51934C5.7805 12.999 5.99829 13.1994 6.01918 13.4599C6.26859 16.7045 9.05818 19.1588 12.307 18.992C15.5559 18.8251 18.0796 16.098 17.9956 12.8448C17.9115 9.59168 15.2504 6.99858 11.9972 6.99985V9.35985C11.9992 9.49544 11.9449 9.62578 11.8472 9.71985L11.6473 9.91985C11.5535 10.0145 11.4257 10.0678 11.2924 10.0678C11.1592 10.0678 11.0314 10.0145 10.9375 9.91985L7.39872 6.38985C7.207 6.19204 7.207 5.87767 7.39872 5.67985L10.9375 2.14985C11.0314 2.0552 11.1592 2.00195 11.2924 2.00195C11.4257 2.00195 11.5535 2.0552 11.6473 2.14985L11.8472 2.34985C11.9449 2.44393 11.9992 2.57427 11.9972 2.70985V4.99985C16.414 4.99985 19.9946 8.58157 19.9946 12.9999Z" fill="currentColor" />
</svg>
