<svg xmlns="http://www.w3.org/2000/svg" viewBox="0 0 24 24">
    <path d="M17.63 5.92007C17.8573 6.05826 17.9972 6.30403 18 6.57007V17.3801C17.9992 17.6466 17.8588 17.8933 17.63 18.0301L17.51 18.0901C17.2671 18.2492 16.9529 18.2492 16.71 18.0901L9.34 12.9101C9.14074 12.7706 9.02146 12.5433 9.02 12.3001V11.6801C9.02146 11.4369 9.14074 11.2095 9.34 11.0701L16.71 5.86007C16.9529 5.70094 17.2671 5.70094 17.51 5.86007L17.63 5.92007ZM7.5 18.0001C7.77614 18.0001 8 17.7762 8 17.5001V6.50007C8 6.22392 7.77614 6.00007 7.5 6.00007H6.5C6.22386 6.00007 6 6.22392 6 6.50007V17.5001C6 17.7762 6.22386 18.0001 6.5 18.0001H7.5Z" fill="currentColor" fill-rule="evenodd" clip-rule="evenodd" />
</svg>
