<svg xmlns="http://www.w3.org/2000/svg" viewBox="0 0 24 24">
    <path d="M10.4969 5.90011C10.7402 5.74098 11.0548 5.74098 11.2982 5.90011L18.6795 11.1101C18.8791 11.2495 18.9985 11.4769 19 11.7201V12.3401C18.9985 12.5833 18.8791 12.8107 18.6795 12.9501L11.2982 18.1301C11.0534 18.2842 10.7417 18.2842 10.4969 18.1301L10.3767 18.0701C10.149 17.9319 10.0089 17.6861 10.0062 17.4201V6.61011C10.007 6.34355 10.1476 6.09689 10.3767 5.96011L10.4969 5.90011ZM8.00308 17.5001V6.50011C8.00308 6.22396 7.77888 6.00011 7.50231 6.00011H6.50077C6.2242 6.00011 6 6.22396 6 6.50011V17.5001C6 17.7762 6.2242 18.0001 6.50077 18.0001H7.50231C7.77888 18.0001 8.00308 17.7762 8.00308 17.5001Z" fill="currentColor" fill-rule="evenodd" clip-rule="evenodd" />
</svg>
