<svg xmlns="http://www.w3.org/2000/svg" viewBox="0 0 24 24">
    <path d="M5 3H19C20.1046 3 21 3.89543 21 5V19C21 20.1046 20.1046 21 19 21H5C3.89543 21 3 20.1046 3 19V5C3 3.89543 3.89543 3 5 3ZM11.17 15.22L15.06 12.62C15.2696 12.4834 15.396 12.2502 15.396 12C15.396 11.7498 15.2696 11.5166 15.06 11.38L11.17 8.78C10.9403 8.62476 10.6438 8.60887 10.3988 8.73867C10.1539 8.86846 10.0005 9.12279 10 9.4V14.6C10.0005 14.8772 10.1539 15.1315 10.3988 15.2613C10.6438 15.3911 10.9403 15.3752 11.17 15.22Z" fill="currentColor" fill-rule="evenodd" clip-rule="evenodd" />
</svg>
