<svg xmlns="http://www.w3.org/2000/svg" viewBox="0 0 24 24">
    <path d="M22.11 8.87L19 5.76C17.8759 4.63446 16.3508 4.0014 14.76 4H9.24C7.64924 4.0014 6.12414 4.63446 5 5.76L1.89 8.87C1.32111 9.43287 1.00069 10.1997 1 11V17C1 18.6569 2.34315 20 4 20H8.76C9.51894 19.9996 10.2123 19.5697 10.55 18.89L10.72 18.55C10.8911 18.2105 11.2398 17.9974 11.62 18H12.38C12.7602 17.9974 13.1089 18.2105 13.28 18.55L13.45 18.89C13.7877 19.5697 14.4811 19.9996 15.24 20H20C21.6569 20 23 18.6569 23 17V11C22.9993 10.1997 22.6789 9.43287 22.11 8.87ZM6.42 7.17C7.16834 6.42249 8.18228 6.00181 9.24 6H14.76C15.8177 6.00181 16.8317 6.42249 17.58 7.17L18.41 8H5.59L6.42 7.17ZM18.5 14C18.7761 14 19 13.7761 19 13.5V12.5C19 12.2239 18.7761 12 18.5 12H5.5C5.22386 12 5 12.2239 5 12.5V13.5C5 13.7761 5.22386 14 5.5 14H18.5Z" fill="currentColor" fill-rule="evenodd" clip-rule="evenodd" />
</svg>
