<svg xmlns="http://www.w3.org/2000/svg" viewBox="0 0 24 24">
    <path d="M6.55981 3.35228C6.5582 3.48502 6.61267 3.61226 6.70981 3.70262L7.41981 4.41331C7.51009 4.51055 7.63721 4.56508 7.76981 4.56346C7.91601 4.56346 8.11027 4.42446 8.38287 4.22941C9.02397 3.77069 10.0984 3.00194 11.9998 3.00194C13.913 3.00194 14.9989 3.78024 15.6374 4.23789C15.9033 4.42848 16.0916 4.56346 16.2298 4.56346C16.3624 4.56508 16.4895 4.51055 16.5798 4.41331L17.2898 3.70262C17.387 3.61226 17.4414 3.48502 17.4398 3.35228C17.4398 2.64159 14.6898 1 11.9998 1C9.13981 1 6.55981 2.73168 6.55981 3.35228ZM13.7298 7.26608C13.5633 7.43672 13.2997 7.46605 13.0998 7.33615C12.4323 6.89616 11.5673 6.89616 10.8998 7.33615C10.7 7.46605 10.4363 7.43672 10.2698 7.26608L9.54981 6.55539C9.44777 6.45239 9.39651 6.30946 9.40981 6.16502C9.41891 6.02048 9.48776 5.88628 9.59981 5.79466C11.022 4.72695 12.9776 4.72695 14.3998 5.79466C14.5119 5.88628 14.5807 6.02048 14.5898 6.16502C14.6031 6.30946 14.5519 6.45239 14.4498 6.55539L13.7298 7.26608ZM8.99981 16.0146C8.99981 17.673 10.343 19.0175 11.9998 19.0175C13.6567 19.0175 14.9998 17.673 14.9998 16.0146V12.0107C14.9998 10.3522 13.6567 9.00778 11.9998 9.00778C10.343 9.00778 8.99981 10.3522 8.99981 12.0107V16.0146ZM17.8698 18.7072C17.9955 18.7703 18.0896 18.8826 18.1298 19.0175C18.1884 19.1576 18.1772 19.3173 18.0998 19.4479C16.8569 21.6432 14.5307 23 12.0098 23C9.48892 23 7.16274 21.6432 5.91981 19.4479C5.86462 19.3237 5.86462 19.1818 5.91981 19.0575C5.96003 18.9226 6.05411 18.8104 6.17981 18.7472L7.09981 18.3268C7.33286 18.2193 7.60942 18.3058 7.73981 18.527C8.63808 20.056 10.2778 20.9949 12.0498 20.9949C13.8219 20.9949 15.4615 20.056 16.3598 18.527C16.4902 18.3058 16.7668 18.2193 16.9998 18.3268L17.8698 18.7072Z" fill="currentColor" fill-rule="evenodd" clip-rule="evenodd" />
</svg>
