<svg xmlns="http://www.w3.org/2000/svg" viewBox="0 0 24 24">
    <path d="M13 19V5C13 4.44772 12.5523 4 12 4H11.41C11.1477 4.0011 10.8963 4.10526 10.71 4.29L6.88 8.12C6.31793 8.68277 5.55538 8.9993 4.76 9C3.78798 9 3 9.78798 3 10.76V13.24C3 14.212 3.78798 15 4.76 15C5.55538 15.0007 6.31793 15.3172 6.88 15.88L10.71 19.71C10.8963 19.8947 11.1477 19.9989 11.41 20H12C12.5523 20 13 19.5523 13 19ZM20.85 10.38L19.24 12L20.85 13.62C20.9467 13.7107 21.0015 13.8374 21.0015 13.97C21.0015 14.1026 20.9467 14.2293 20.85 14.32L20.32 14.85C20.2293 14.9467 20.1026 15.0015 19.97 15.0015C19.8374 15.0015 19.7107 14.9467 19.62 14.85L18 13.24L16.38 14.85C16.2893 14.9467 16.1626 15.0015 16.03 15.0015C15.8974 15.0015 15.7707 14.9467 15.68 14.85L15.15 14.32C15.0533 14.2293 14.9985 14.1026 14.9985 13.97C14.9985 13.8374 15.0533 13.7107 15.15 13.62L16.76 12L15.15 10.38C15.0533 10.2893 14.9985 10.1626 14.9985 10.03C14.9985 9.89741 15.0533 9.77073 15.15 9.68L15.68 9.15C15.7707 9.05332 15.8974 8.99848 16.03 8.99848C16.1626 8.99848 16.2893 9.05332 16.38 9.15L18 10.76L19.62 9.15C19.7107 9.05332 19.8374 8.99848 19.97 8.99848C20.1026 8.99848 20.2293 9.05332 20.32 9.15L20.85 9.68C20.9467 9.77073 21.0015 9.89741 21.0015 10.03C21.0015 10.1626 20.9467 10.2893 20.85 10.38Z" fill="currentColor" fill-rule="evenodd" clip-rule="evenodd" />
</svg>
