<svg xmlns="http://www.w3.org/2000/svg" viewBox="0 0 24 24">
    <path d="M16.5 3H15.5C15.2239 3 15 3.22386 15 3.5V20.5C15 20.7761 15.2239 21 15.5 21H16.5C16.7761 21 17 20.7761 17 20.5V3.5C17 3.22386 16.7761 3 16.5 3ZM13 8.5V15.5C13 15.7761 12.7761 16 12.5 16H11.5C11.2239 16 11 15.7761 11 15.5V8.5C11 8.22386 11.2239 8 11.5 8H12.5C12.7761 8 13 8.22386 13 8.5ZM19.5 10H20.5C20.7761 10 21 10.2239 21 10.5V13.5C21 13.7761 20.7761 14 20.5 14H19.5C19.2239 14 19 13.7761 19 13.5V10.5C19 10.2239 19.2239 10 19.5 10ZM4.5 11H3.5C3.22386 11 3 11.2239 3 11.5V12.5C3 12.7761 3.22386 13 3.5 13H4.5C4.77614 13 5 12.7761 5 12.5V11.5C5 11.2239 4.77614 11 4.5 11ZM7.5 6H8.5C8.77614 6 9 6.22386 9 6.5V17.5C9 17.7761 8.77614 18 8.5 18H7.5C7.22386 18 7 17.7761 7 17.5V6.5C7 6.22386 7.22386 6 7.5 6Z" fill="currentColor" fill-rule="evenodd" clip-rule="evenodd" />
</svg>
