<svg xmlns="http://www.w3.org/2000/svg" viewBox="0 0 24 24">
    <path d="M22 13.0212C21.9993 15.4855 21.0838 17.8624 19.43 19.6934C19.231 19.8912 18.909 19.8912 18.71 19.6934L18.35 19.3344C18.1768 19.1413 18.1768 18.8493 18.35 18.6562C21.4025 15.2591 21.2125 10.0619 17.9198 6.89562C14.6272 3.72934 9.41278 3.72934 6.12017 6.89562C2.82756 10.0619 2.63746 15.2591 5.69 18.6562C5.86316 18.8493 5.86316 19.1413 5.69 19.3344L5.33 19.6934C5.13098 19.8912 4.80903 19.8912 4.61 19.6934C1.59544 16.3954 1.14463 11.5014 3.5062 7.71071C5.86777 3.92002 10.4668 2.15544 14.7668 3.39017C19.0668 4.62491 22.021 8.55839 22 13.0212ZM12 6.03971C9.2636 6.03619 6.77602 7.62327 5.63204 10.1025C4.48805 12.5817 4.89743 15.4984 6.68 17.5691C6.77513 17.6677 6.90323 17.728 7.04 17.7386C7.18143 17.7403 7.31787 17.6866 7.42 17.589L7.77 17.24C7.94786 17.0487 7.94786 16.753 7.77 16.5618C5.8856 14.3389 6.07025 11.0351 8.19069 9.03485C10.3111 7.03463 13.6289 7.03463 15.7493 9.03485C17.8698 11.0351 18.0544 14.3389 16.17 16.5618C15.9921 16.753 15.9921 17.0487 16.17 17.24L16.52 17.589C16.6221 17.6866 16.7586 17.7403 16.9 17.7386C17.0368 17.728 17.1649 17.6677 17.26 17.5691C19.0356 15.5067 19.4495 12.6038 18.3206 10.1295C17.1918 7.65525 14.7256 6.05944 12 6.03971ZM14.05 15.1056C13.8805 14.933 13.8594 14.6641 14 14.4673C14.7352 13.4322 14.574 12.0115 13.6254 11.1664C12.6768 10.3214 11.2432 10.3214 10.2946 11.1664C9.346 12.0115 9.18477 13.4322 9.92 14.4673C10.0606 14.6641 10.0395 14.933 9.87 15.1056L9.51 15.4647C9.40637 15.5653 9.26413 15.6162 9.12 15.6043C8.97563 15.5966 8.84285 15.523 8.76 15.4048C7.52234 13.759 7.74254 11.4444 9.26847 10.06C10.7944 8.67571 13.1256 8.67571 14.6515 10.06C16.1775 11.4444 16.3977 13.759 15.16 15.4048C15.0772 15.523 14.9444 15.5966 14.8 15.6043C14.6559 15.6162 14.5136 15.5653 14.41 15.4647L14.05 15.1056ZM11 13.0212C11 13.572 11.4477 14.0185 12 14.0185C12.5523 14.0185 13 13.572 13 13.0212C13 12.4703 12.5523 12.0238 12 12.0238C11.4477 12.0238 11 12.4703 11 13.0212ZM12.22 16.0132C12.4188 16.0134 12.6095 16.0923 12.75 16.2326L16.47 19.9428C16.5647 20.0364 16.6179 20.1639 16.6179 20.2968C16.6179 20.4298 16.5647 20.5573 16.47 20.6509L16.26 20.8504C16.1697 20.9472 16.0426 21.0016 15.91 21H8.08C7.9474 21.0016 7.82028 20.9472 7.73 20.8504L7.52 20.6509C7.32822 20.4536 7.32822 20.1401 7.52 19.9428L11.25 16.2326C11.3905 16.0923 11.5812 16.0134 11.78 16.0132H12.22Z" fill="currentColor" fill-rule="evenodd" clip-rule="evenodd" />
</svg>
