<svg xmlns="http://www.w3.org/2000/svg" viewBox="0 0 24 24">
    <path d="M3.5 19C3.77614 19 4 18.7761 4 18.5V5.5C4 5.22386 3.77614 5 3.5 5H2.5C2.22386 5 2 5.22386 2 5.5V18.5C2 18.7761 2.22386 19 2.5 19H3.5ZM20.5 5H21.5C21.7761 5 22 5.22386 22 5.5V18.5C22 18.7761 21.7761 19 21.5 19H20.5C20.2239 19 20 18.7761 20 18.5V5.5C20 5.22386 20.2239 5 20.5 5ZM13.5 5C13.2239 5 13 5.22386 13 5.5V16.5C13 16.7761 13.2239 17 13.5 17C13.7761 17 14 16.7761 14 16.5V5.5C14 5.22386 13.7761 5 13.5 5ZM6 5.5C6 5.22386 6.22386 5 6.5 5C6.77614 5 7 5.22386 7 5.5V16.5C7 16.7761 6.77614 17 6.5 17C6.22386 17 6 16.7761 6 16.5V5.5ZM17.5 5H16.5C16.2239 5 16 5.22386 16 5.5V16.5C16 16.7761 16.2239 17 16.5 17H17.5C17.7761 17 18 16.7761 18 16.5V5.5C18 5.22386 17.7761 5 17.5 5ZM10.5 5C10.7761 5 11 5.22386 11 5.5V16.5C11 16.7761 10.7761 17 10.5 17H9.5C9.22386 17 9 16.7761 9 16.5V5.5C9 5.22386 9.22386 5 9.5 5H10.5Z" fill="currentColor" fill-rule="evenodd" clip-rule="evenodd" />
</svg>
