<svg xmlns="http://www.w3.org/2000/svg" viewBox="0 0 24 24">
    <path d="M10.4101 12L14.6501 7.77002C14.8418 7.5722 14.8418 7.25783 14.6501 7.06002L9.88005 2.29002C9.69134 2.10283 9.43586 1.99848 9.17005 2.00002H8.50005C8.22391 2.00002 8.00005 2.22387 8.00005 2.50002V9.59002L4.56005 6.15002C4.46617 6.05536 4.33837 6.00212 4.20505 6.00212C4.07174 6.00212 3.94394 6.05536 3.85005 6.15002L3.15005 6.86002C3.05338 6.95075 2.99854 7.07743 2.99854 7.21002C2.99854 7.3426 3.05338 7.46928 3.15005 7.56002L7.58005 12L3.15005 16.44C3.05338 16.5308 2.99854 16.6574 2.99854 16.79C2.99854 16.9226 3.05338 17.0493 3.15005 17.14L3.85005 17.85C3.94394 17.9447 4.07174 17.9979 4.20505 17.9979C4.33837 17.9979 4.46617 17.9447 4.56005 17.85L8.00005 14.41V21.5C8.00005 21.7762 8.22391 22 8.50005 22H9.17005C9.43586 22.0016 9.69134 21.8972 9.88005 21.71L14.6501 16.94C14.8418 16.7422 14.8418 16.4278 14.6501 16.23L10.4101 12ZM10.0001 5.24002L12.1701 7.41002L10.0001 9.58002V5.24002ZM10.0001 14.42V18.76L12.1701 16.59L10.0001 14.42ZM19.0001 6.76002C18.9039 6.66265 18.7764 6.60243 18.6401 6.59002C18.5012 6.58647 18.3672 6.64081 18.2701 6.74002L17.5601 7.45002C17.3822 7.64179 17.3822 7.93824 17.5601 8.13002C19.4806 10.3754 19.4806 13.6847 17.5601 15.93C17.3822 16.1218 17.3822 16.4182 17.5601 16.61L18.2701 17.32C18.3672 17.4192 18.5012 17.4736 18.6401 17.47C18.7768 17.4594 18.9049 17.3989 19.0001 17.3C21.6591 14.2784 21.6591 9.75166 19.0001 6.73002V6.76002ZM15.4501 9.55002C15.554 9.44872 15.695 9.3945 15.8401 9.40002C15.9844 9.41708 16.1167 9.48862 16.2101 9.60002C17.2767 11.0222 17.2767 12.9778 16.2101 14.4C16.1185 14.5121 15.9844 14.5809 15.8401 14.59C15.6963 14.5994 15.555 14.5487 15.4501 14.45L14.7401 13.73C14.5696 13.5635 14.5403 13.2999 14.6701 13.1C15.1096 12.4326 15.1096 11.5675 14.6701 10.9C14.5403 10.7002 14.5696 10.4365 14.7401 10.27L15.4501 9.55002Z" fill="currentColor" fill-rule="evenodd" clip-rule="evenodd" />
</svg>
