<svg xmlns="http://www.w3.org/2000/svg" viewBox="0 0 24 24">
    <path d="M4.02931 2.99854C4.1618 2.99854 4.28839 3.05338 4.37905 3.15005L20.8471 19.6101C20.9437 19.7008 20.9985 19.8275 20.9985 19.9601C20.9985 20.0926 20.9437 20.2193 20.8471 20.3101L20.3175 20.8401C20.2268 20.9367 20.1003 20.9916 19.9678 20.9916C19.8353 20.9916 19.7087 20.9367 19.618 20.8401L14.7116 15.9401L10.8244 19.8301C10.0741 20.58 9.05685 21.0009 7.99643 21.0001H7.65668C6.59626 21.0009 5.57897 20.58 4.82873 19.8301L4.16921 19.1701C3.41979 18.4193 2.99922 17.4012 3.00005 16.3401V16.0001C2.99921 14.934 3.42367 13.9116 4.1792 13.1601L8.0464 9.29005L3.14994 4.38005C3.05334 4.28932 2.99854 4.16264 2.99854 4.03005C2.99854 3.89747 3.05334 3.77079 3.14994 3.68005L3.67956 3.15005C3.77023 3.05338 3.89682 2.99854 4.02931 2.99854ZM7.99643 19.0001C8.51521 18.99 9.00973 18.7784 9.37543 18.4101L13.2926 14.5301L12.0835 13.3301L10.0849 15.3301C9.99111 15.4247 9.8634 15.478 9.73018 15.478C9.59696 15.478 9.46925 15.4247 9.37543 15.3301L8.67594 14.6301C8.58135 14.5362 8.52815 14.4084 8.52815 14.2751C8.52815 14.1417 8.58135 14.0139 8.67594 13.9201L10.6745 11.9201L9.46537 10.7001L5.58818 14.5801C5.21041 14.9559 4.99818 15.467 4.99861 16.0001V16.3401C4.99818 16.8731 5.21041 17.3843 5.58818 17.7601L6.23771 18.4101C6.61323 18.7881 7.12402 19.0005 7.65668 19.0001H7.99643ZM19.8179 4.83005L19.1583 4.17005C18.4081 3.4201 17.3908 2.99922 16.3304 3.00005H15.9906C14.9253 2.99921 13.9037 3.42398 13.1527 4.18005L10.5246 6.81005L11.9935 8.23005L14.6216 5.59005C14.9849 5.22408 15.4754 5.01269 15.9906 5.00005H16.3304C16.8631 4.99963 17.3738 5.21201 17.7494 5.59005L18.3989 6.24005C18.7767 6.61585 18.9889 7.12701 18.9885 7.66005V8.00005C18.9889 8.5331 18.7767 9.04426 18.3989 9.42005L15.7708 12.0601L17.1798 13.4701L19.8079 10.8401C20.5634 10.0885 20.9879 9.06614 20.987 8.00005V7.66005C20.9879 6.59887 20.5673 5.58084 19.8179 4.83005ZM14.6416 8.65005L15.3411 9.35005C15.4357 9.44394 15.4889 9.57174 15.4889 9.70505C15.4889 9.83837 15.4357 9.96617 15.3411 10.0601L14.5617 10.8501L13.1527 9.44005L13.9321 8.65005C14.026 8.5554 14.1537 8.50215 14.2869 8.50215C14.4201 8.50215 14.5478 8.5554 14.6416 8.65005Z" fill="currentColor" fill-rule="evenodd" clip-rule="evenodd" />
</svg>
