<svg xmlns="http://www.w3.org/2000/svg" viewBox="0 0 24 24">
    <path d="M22.7798 9.25C22.7823 9.37296 22.7355 9.4918 22.6498 9.58L21.3298 11.08C21.2382 11.1824 21.1072 11.2406 20.9698 11.24C20.8493 11.24 20.6078 11.0659 20.2368 10.7984C19.0076 9.91193 16.3561 8 11.9698 8C7.61224 8 4.98437 9.88697 3.73955 10.7808C3.35321 11.0582 3.10009 11.24 2.96982 11.24C2.83246 11.2406 2.7014 11.1824 2.60982 11.08L1.34982 9.58C1.26412 9.4918 1.2173 9.37296 1.21982 9.25C1.21982 8.55 5.99982 5 11.9998 5C17.8098 5 22.7798 8.48 22.7798 9.25ZM11.9998 11C8.38982 11 5.18982 13.08 5.18982 13.74C5.19331 13.8648 5.23916 13.9847 5.31982 14.08L6.64982 15.58C6.7414 15.6824 6.87246 15.7406 7.00982 15.74C7.16262 15.74 7.37443 15.5954 7.67592 15.3895C8.42019 14.8814 9.71102 14 12.0098 14C14.3278 14 15.6364 14.8961 16.3753 15.4022C16.6661 15.6013 16.8686 15.74 17.0098 15.74C17.1472 15.7406 17.2782 15.6824 17.3698 15.58L18.6998 14.08C18.7805 13.9847 18.8263 13.8648 18.8298 13.74C18.8098 13.09 15.5998 11 11.9998 11ZM9.17982 18.26C9.17982 17.58 10.9098 17 11.9998 17C13.1098 17 14.8198 17.59 14.7598 18.26C14.7593 18.3806 14.7169 18.4972 14.6398 18.59L13.6398 19.75C13.4989 19.9115 13.2941 20.0029 13.0798 20H10.8598C10.6455 20.0029 10.4407 19.9115 10.2998 19.75L9.29982 18.59C9.22277 18.4972 9.18035 18.3806 9.17982 18.26Z" fill="currentColor" fill-rule="evenodd" clip-rule="evenodd" />
</svg>
