<svg xmlns="http://www.w3.org/2000/svg" viewBox="0 0 24 24">
    <path d="M4.49993 2C4.36195 1.99975 4.23001 2.05653 4.13533 2.15689C4.04065 2.25725 3.99165 2.39228 3.99993 2.53C4.08619 3.40263 4.36268 4.24575 4.80993 5C4.28116 5.91152 4.0018 6.94622 3.99993 8V14.16C4.00144 16.5874 5.10502 18.8829 6.99993 20.4L7.35993 20.69C8.42225 21.5376 9.74087 21.9995 11.0999 22H12.8999C14.259 21.9995 15.5776 21.5376 16.6399 20.69L16.9999 20.4C18.8948 18.8829 19.9984 16.5874 19.9999 14.16V8C19.9999 4.68629 17.3136 2 13.9999 2H4.49993ZM17.9999 14.16C17.9988 15.9806 17.1711 17.7021 15.7499 18.84L15.3899 19.13C14.6822 19.6932 13.8044 19.9999 12.8999 20H11.0999C10.1954 19.9999 9.31769 19.6932 8.60993 19.13L8.24993 18.84C6.82875 17.7021 6.00106 15.9806 5.99993 14.16V9.74C7.82609 9.26855 9.42696 8.16706 10.5199 6.63C12.4165 8.77148 15.1393 9.99823 17.9999 10V14.16ZM7.99993 12.7C8.13963 11.9956 8.76188 11.4911 9.47993 11.5C10.2102 11.4797 10.8502 11.985 10.9999 12.7C10.9976 12.7832 10.957 12.8607 10.8899 12.91C10.8448 12.9689 10.7741 13.0024 10.6999 13H8.23993C8.16572 12.9985 8.09601 12.9642 8.04965 12.9062C8.00328 12.8483 7.98507 12.7727 7.99993 12.7ZM14.4799 11.5C13.7646 11.499 13.1468 12 12.9999 12.7C12.9895 12.7753 13.0112 12.8516 13.0599 12.91C13.105 12.9689 13.1758 13.0024 13.2499 13H15.6999C15.7741 13.0024 15.8448 12.9689 15.8899 12.91C15.957 12.8607 15.9976 12.7832 15.9999 12.7C15.8539 12.0036 15.2415 11.5037 14.5299 11.5H14.4799ZM14.4199 16.08C14.4681 16.1347 14.4901 16.2078 14.4799 16.28H14.5199C14.5199 17.6607 13.4006 18.78 12.0199 18.78C10.6392 18.78 9.51993 17.6607 9.51993 16.28C9.50979 16.2078 9.53171 16.1347 9.57993 16.08C9.62489 16.0277 9.69096 15.9983 9.75993 16H14.2399C14.3089 15.9983 14.375 16.0277 14.4199 16.08Z" fill="currentColor" fill-rule="evenodd" clip-rule="evenodd" />
</svg>
