<svg xmlns="http://www.w3.org/2000/svg" viewBox="0 0 24 24">
    <path d="M20.6466 19.43C20.7433 19.3393 20.7981 19.2126 20.7981 19.08C20.7981 18.9474 20.7433 18.8207 20.6466 18.73C20.2328 18.3566 19.9935 17.8274 19.9866 17.27V8C19.9866 4.68629 17.3003 2 13.9866 2H9.9866C6.67289 2 3.9866 4.68629 3.9866 8V17.27C3.9874 17.8228 3.75935 18.3513 3.3566 18.73C3.25992 18.8207 3.20508 18.9474 3.20508 19.08C3.20508 19.2126 3.25992 19.3393 3.3566 19.43C3.72078 19.7863 4.20721 19.9902 4.7166 20H6.5366C6.6866 20.14 6.8266 20.27 6.9866 20.4L7.3466 20.69C8.40892 21.5376 9.72755 21.9995 11.0866 22H12.8866C14.2456 21.9995 15.5643 21.5376 16.6266 20.69L16.9866 20.4C17.1466 20.27 17.2866 20.14 17.4366 20H19.2566C19.7764 19.9979 20.2749 19.7934 20.6466 19.43ZM17.9866 14.16C17.9855 15.9806 17.1578 17.7021 15.7366 18.84L15.3766 19.13C14.6688 19.6932 13.7911 19.9999 12.8866 20H11.0866C10.1821 19.9999 9.30436 19.6932 8.5966 19.13L8.2366 18.84C6.81542 17.7021 5.98773 15.9806 5.9866 14.16V9.74C7.81276 9.26855 9.41363 8.16706 10.5066 6.63C12.4032 8.77148 15.126 9.99823 17.9866 10V14.16ZM14.2266 16C14.2956 15.9983 14.3616 16.0277 14.4066 16.08C14.4695 16.1272 14.5066 16.2013 14.5066 16.28C14.5066 17.6607 13.3873 18.78 12.0066 18.78C10.6259 18.78 9.5066 17.6607 9.5066 16.28C9.49647 16.2078 9.51838 16.1347 9.5666 16.08C9.61156 16.0277 9.67764 15.9983 9.7466 16H14.2266ZM9.4666 11.5C8.74855 11.4911 8.12631 11.9956 7.9866 12.7C7.97174 12.7727 7.98996 12.8483 8.03632 12.9062C8.08268 12.9642 8.1524 12.9985 8.2266 13H10.6866C10.7611 13.0042 10.8326 12.9703 10.8766 12.91C10.9437 12.8607 10.9843 12.7832 10.9866 12.7C10.8369 11.985 10.1968 11.4797 9.4666 11.5ZM12.9866 12.7C13.1334 12 13.7513 11.499 14.4666 11.5H14.5166C15.2309 11.4959 15.8476 11.9994 15.9866 12.7C15.9916 12.785 15.9493 12.8657 15.8766 12.91C15.8326 12.9703 15.7611 13.0042 15.6866 13H13.2366C13.1621 13.0042 13.0906 12.9703 13.0466 12.91C12.9979 12.8516 12.9761 12.7753 12.9866 12.7Z" fill="currentColor" fill-rule="evenodd" clip-rule="evenodd" />
</svg>
