<svg xmlns="http://www.w3.org/2000/svg" viewBox="0 0 24 24">
    <path d="M15.1225 2.5C14.1239 2.17175 13.0708 2 12 2C6.47715 2 2 6.47715 2 12C2 17.5228 6.47715 22 12 22C17.5228 22 22 17.5228 22 12C22 10.9292 21.8282 9.87605 21.5 8.87747V9C21.5 9.55229 21.0523 10 20.5 10H19.748C19.9125 10.6392 20 11.3094 20 12C20 14.1217 19.1571 16.1566 17.6569 17.6569C16.1566 19.1571 14.1217 20 12 20C7.58172 20 4 16.4183 4 12C4 7.58172 7.58172 4 12 4C12.6906 4 13.3608 4.08751 14 4.25203V3.5C14 2.94772 14.4477 2.5 15 2.5H15.1225Z" fill="currentColor" />
    <path d="M16 13.57C16.0217 13.4254 15.9777 13.2788 15.88 13.17C15.7849 13.0597 15.6456 12.9974 15.5 13H8.54C8.39436 12.9974 8.2551 13.0597 8.16 13.17C8.06234 13.2788 8.01834 13.4254 8.04 13.57C8.32089 15.5412 10.0089 17.0057 12 17.0057C13.9911 17.0057 15.6791 15.5412 15.96 13.57H16Z" fill="currentColor" />
    <path d="M13 10C13 8.89543 13.8954 8 15 8C16.1046 8 17 8.89543 17 10V10.5C17 10.7761 16.7761 11 16.5 11H13.5C13.2239 11 13 10.7761 13 10.5V10Z" fill="currentColor" />
    <path d="M11 10.5V10C11 8.89543 10.1046 8 9 8C7.89543 8 7 8.89543 7 10V10.5C7 10.7761 7.22386 11 7.5 11H10.5C10.7761 11 11 10.7761 11 10.5Z" fill="currentColor" />
    <path d="M22 5.38V4.62C22 4.34386 21.7761 4.12 21.5 4.12H19.88V2.5C19.88 2.22386 19.6561 2 19.38 2H18.62C18.3439 2 18.12 2.22386 18.12 2.5V4.12H16.5C16.2239 4.12 16 4.34386 16 4.62V5.38C16 5.65614 16.2239 5.88 16.5 5.88H18.12V7.5C18.12 7.77614 18.3439 8 18.62 8H19.38C19.6561 8 19.88 7.77614 19.88 7.5V5.88H21.5C21.7761 5.88 22 5.65614 22 5.38Z" fill="currentColor" />
</svg>
