<svg xmlns="http://www.w3.org/2000/svg" viewBox="0 0 24 24">
    <path d="M12 2C6.47715 2 2 6.47715 2 12C2 17.5228 6.47715 22 12 22C17.5228 22 22 17.5228 22 12C22 9.34784 20.9464 6.8043 19.0711 4.92893C17.1957 3.05357 14.6522 2 12 2ZM12 20C7.58172 20 4 16.4183 4 12C4 7.58172 7.58172 4 12 4C16.4183 4 20 7.58172 20 12C20 14.1217 19.1571 16.1566 17.6569 17.6569C16.1566 19.1571 14.1217 20 12 20ZM9 14.5C9 14.2239 9.22386 14 9.5 14H14.5C14.7761 14 15 14.2239 15 14.5V15.5C15 15.7761 14.7761 16 14.5 16H9.5C9.22386 16 9 15.7761 9 15.5V14.5ZM11 10.5V9.5C11 9.22386 10.7761 9 10.5 9H7.5C7.22386 9 7 9.22386 7 9.5V10.5C7 10.7761 7.22386 11 7.5 11H10.5C10.7761 11 11 10.7761 11 10.5ZM13.5 9H16.5C16.7761 9 17 9.22386 17 9.5V10.5C17 10.7761 16.7761 11 16.5 11H13.5C13.2239 11 13 10.7761 13 10.5V9.5C13 9.22386 13.2239 9 13.5 9Z" fill="currentColor" fill-rule="evenodd" clip-rule="evenodd" />
</svg>
