<svg xmlns="http://www.w3.org/2000/svg" viewBox="0 0 24 24">
    <path d="M11.88 18.12L16.12 13.88C16.6828 13.3179 16.9993 12.5554 17 11.76V3C17 1.89543 16.1046 1 15 1H4C2.89543 1 2 1.89543 2 3V17C2 18.1046 2.89543 19 4 19H9.76C10.5554 18.9993 11.3179 18.6828 11.88 18.12ZM9 12V17H4V3H15V11H10C9.44772 11 9 11.4477 9 12ZM17 21C18.1046 21 19 20.1046 19 19V5C20.1046 5 21 5.89543 21 7V19C21 21.2091 19.2091 23 17 23H8C6.89543 23 6 22.1046 6 21H17Z" fill="currentColor" fill-rule="evenodd" clip-rule="evenodd" />
</svg>
