<svg xmlns="http://www.w3.org/2000/svg" viewBox="0 0 24 24">
    <path d="M6 2H18C19.1046 2 20 2.89543 20 4V14.76C19.9993 15.5554 19.6828 16.3179 19.12 16.88L14.88 21.12C14.3179 21.6828 13.5554 21.9993 12.76 22H6C4.89543 22 4 21.1046 4 20V4C4 2.89543 4.89543 2 6 2ZM18 14V4H6V20H12V15C12 14.4477 12.4477 14 13 14H18ZM8.5 8H15.5C15.7761 8 16 7.77614 16 7.5V6.5C16 6.22386 15.7761 6 15.5 6H8.5C8.22386 6 8 6.22386 8 6.5V7.5C8 7.77614 8.22386 8 8.5 8ZM12.5 12H8.5C8.22386 12 8 11.7761 8 11.5V10.5C8 10.2239 8.22386 10 8.5 10H12.5C12.7761 10 13 10.2239 13 10.5V11.5C13 11.7761 12.7761 12 12.5 12Z" fill="currentColor" fill-rule="evenodd" clip-rule="evenodd" />
</svg>
