<svg xmlns="http://www.w3.org/2000/svg" viewBox="0 0 24 24">
    <path d="M11.24 2H18C19.1046 2 20 2.89543 20 4V20C20 21.1046 19.1046 22 18 22H6C4.89543 22 4 21.1046 4 20V9.24C4.0007 8.44462 4.31723 7.68207 4.88 7.12L9.12 2.88C9.68207 2.31723 10.4446 2.0007 11.24 2ZM6 10V20H18V4H12V9C12 9.55228 11.5523 10 11 10H6ZM8 12.5V13.5C8 13.7761 8.22386 14 8.5 14H15.5C15.7761 14 16 13.7761 16 13.5V12.5C16 12.2239 15.7761 12 15.5 12H8.5C8.22386 12 8 12.2239 8 12.5ZM8.5 16H12.5C12.7761 16 13 16.2239 13 16.5V17.5C13 17.7761 12.7761 18 12.5 18H8.5C8.22386 18 8 17.7761 8 17.5V16.5C8 16.2239 8.22386 16 8.5 16Z" fill="currentColor" fill-rule="evenodd" clip-rule="evenodd" />
</svg>
