<svg xmlns="http://www.w3.org/2000/svg" viewBox="0 0 24 24">
    <path d="M18 2H11.24C10.4446 2.0007 9.68207 2.31723 9.12 2.88L4.88 7.12C4.31723 7.68207 4.0007 8.44462 4 9.24V20C4 21.1046 4.89543 22 6 22H18C19.1046 22 20 21.1046 20 20V4C20 2.89543 19.1046 2 18 2ZM6 20V10H11C11.5523 10 12 9.55228 12 9V4H18V20H6ZM15 14.62V15.38C15 15.6561 14.7761 15.88 14.5 15.88H12.88V17.5C12.88 17.7761 12.6561 18 12.38 18H11.62C11.3439 18 11.12 17.7761 11.12 17.5V15.88H9.5C9.22386 15.88 9 15.6561 9 15.38V14.62C9 14.3439 9.22386 14.12 9.5 14.12H11.12V12.5C11.12 12.2239 11.3439 12 11.62 12H12.38C12.6561 12 12.88 12.2239 12.88 12.5V14.12H14.5C14.7761 14.12 15 14.3439 15 14.62Z" fill="currentColor" fill-rule="evenodd" clip-rule="evenodd" />
</svg>
