<svg xmlns="http://www.w3.org/2000/svg" viewBox="0 0 24 24">
    <path d="M18 2H11.24C10.4446 2.0007 9.68207 2.31723 9.12 2.88L4.88 7.12C4.31723 7.68207 4.0007 8.44462 4 9.24V20C4 21.1046 4.89543 22 6 22H18C19.1046 22 20 21.1046 20 20V4C20 2.89543 19.1046 2 18 2ZM6 20V10H11C11.5523 10 12 9.55228 12 9V4H18V20H6ZM9.40521 14.1255C9.18429 14.1255 9.00521 14.3046 9.00521 14.5255V15.475C9.00521 15.6959 9.18429 15.875 9.40521 15.875H14.6C14.8209 15.875 15 15.6959 15 15.475V14.5255C15 14.3046 14.8209 14.1255 14.6 14.1255H9.40521Z" fill="currentColor" fill-rule="evenodd" clip-rule="evenodd" />
</svg>
