<svg xmlns="http://www.w3.org/2000/svg" viewBox="0 0 24 24">
    <path d="M9.59 3H3C1.89543 3 1 3.89543 1 5V16C1 17.1046 1.89543 18 3 18H17C18.1046 18 19 17.1046 19 16V7C19 5.89543 18.1046 5 17 5H12.41C12.1477 4.9989 11.8963 4.89474 11.71 4.71L10.29 3.29C10.1037 3.10526 9.85234 3.0011 9.59 3ZM9.17 5L10.29 6.12C10.8521 6.68277 11.6146 6.9993 12.41 7H17V16H3V5H9.17ZM21 18V9C22.1046 9 23 9.89543 23 11V18C23 20.2091 21.2091 22 19 22H7C5.89543 22 5 21.1046 5 20H19C20.1046 20 21 19.1046 21 18Z" fill="currentColor" fill-rule="evenodd" clip-rule="evenodd" />
</svg>
