<svg xmlns="http://www.w3.org/2000/svg" viewBox="0 0 24 24">
    <path d="M14 3C14 4.10457 13.1046 5 12 5C10.8954 5 10 4.10457 10 3C10 1.89543 10.8954 1 12 1C13.1046 1 14 1.89543 14 3ZM21 7.5V6.5C21 6.22386 20.7761 6 20.5 6H3.5C3.22386 6 3 6.22386 3 6.5V7.5C3 7.77614 3.22386 8 3.5 8H9V22.5C9 22.7761 9.22386 23 9.5 23H10.5C10.7761 23 11 22.7761 11 22.5V15H13V22.5C13 22.7761 13.2239 23 13.5 23H14.5C14.7761 23 15 22.7761 15 22.5V8H20.5C20.7761 8 21 7.77614 21 7.5Z" fill="currentColor" fill-rule="evenodd" clip-rule="evenodd" />
</svg>
