<svg xmlns="http://www.w3.org/2000/svg" viewBox="0 0 24 24">
    <path d="M12.3398 2.00423C16.0724 2.18557 19.0043 5.26576 18.9999 9.00127C18.9959 12.4764 16.4409 15.4219 12.9999 15.9184V17.9975H14.4999C14.7761 17.9975 14.9999 18.2213 14.9999 18.4973V19.4969C14.9999 19.7729 14.7761 19.9967 14.4999 19.9967H12.9999V21.4961C12.9999 21.7721 12.7761 21.9958 12.4999 21.9958H11.4999C11.2238 21.9958 10.9999 21.7721 10.9999 21.4961V19.9967H9.49994C9.2238 19.9967 8.99994 19.7729 8.99994 19.4969V18.4973C8.99994 18.2213 9.2238 17.9975 9.49994 17.9975H10.9999V15.9184C7.3012 15.3847 4.6741 12.041 5.03215 8.32268C5.39019 4.60436 8.6071 1.82289 12.3398 2.00423ZM11.9999 4.00335C9.23851 4.00335 6.99994 6.24099 6.99994 9.00127C6.99994 11.7615 9.23851 13.9992 11.9999 13.9992C14.7614 13.9992 16.9999 11.7615 16.9999 9.00127C16.9999 6.24099 14.7614 4.00335 11.9999 4.00335Z" fill="currentColor" fill-rule="evenodd" clip-rule="evenodd" />
</svg>
