<svg xmlns="http://www.w3.org/2000/svg" viewBox="0 0 24 24">
    <path d="M20.4013 3.1492L20.8488 3.59716C20.9567 3.70006 21.0117 3.84676 20.9979 3.99534V8.47491C20.9979 8.74979 20.7753 8.97264 20.5007 8.97264H19.5064C19.2318 8.97264 19.0092 8.74979 19.0092 8.47491V6.3944L15.6184 9.769C17.8257 12.7153 17.3825 16.8685 14.6034 19.2816C11.8242 21.6946 7.65458 21.5464 5.05327 18.9423C2.45196 16.3381 2.30399 12.1638 4.71435 9.3816C7.12471 6.59935 11.2733 6.15568 14.2164 8.36541L17.5972 4.9908H15.5289C15.2544 4.9908 15.0318 4.76796 15.0318 4.49307V3.49761C15.0318 3.22272 15.2544 2.99988 15.5289 2.99988H20.0036C20.152 2.98613 20.2985 3.04114 20.4013 3.1492ZM5.08818 13.9499C5.08818 16.6988 7.31413 18.9272 10.06 18.9272C12.8058 18.9272 15.0318 16.6988 15.0318 13.9499C15.0318 11.201 12.8058 8.97264 10.06 8.97264C7.31413 8.97264 5.08818 11.201 5.08818 13.9499Z" fill="currentColor" fill-rule="evenodd" clip-rule="evenodd" />
</svg>
