<svg xmlns="http://www.w3.org/2000/svg" viewBox="0 0 24 24">
    <path d="M8.9999 12C11.209 12 12.9999 10.2091 12.9999 8C12.9999 5.79086 11.209 4 8.9999 4C6.79077 4 4.9999 5.79086 4.9999 8C4.9999 10.2091 6.79077 12 8.9999 12ZM16.8899 18.55C17.0459 18.8595 17.0304 19.2277 16.8491 19.5231C16.6678 19.8185 16.3465 19.999 15.9999 20H1.9999C1.65331 19.999 1.33198 19.8185 1.15067 19.5231C0.969359 19.2277 0.953935 18.8595 1.1099 18.55L2.5499 15.66C3.0587 14.6408 4.1008 13.9978 5.2399 14H12.7599C13.899 13.9978 14.9411 14.6408 15.4499 15.66L16.8899 18.55ZM19 9.58579L20.7678 7.81802C20.963 7.62276 21.2796 7.62276 21.4749 7.81802L22.182 8.52513C22.3772 8.72039 22.3772 9.03697 22.182 9.23223L20.4142 11L22.182 12.7678C22.3772 12.963 22.3772 13.2796 22.182 13.4749L21.4749 14.182C21.2796 14.3772 20.963 14.3772 20.7678 14.182L19 12.4142L17.2322 14.182C17.037 14.3772 16.7204 14.3772 16.5251 14.182L15.818 13.4749C15.6228 13.2796 15.6228 12.963 15.818 12.7678L17.5858 11L15.818 9.23223C15.6228 9.03697 15.6228 8.72039 15.818 8.52513L16.5251 7.81802C16.7204 7.62276 17.037 7.62276 17.2322 7.81802L19 9.58579Z" fill="currentColor" fill-rule="evenodd" clip-rule="evenodd" />
</svg>
