<svg xmlns="http://www.w3.org/2000/svg" viewBox="0 0 24 24">
    <path d="M9.00006 3.99541C9.00006 2.34109 10.3432 1 12.0001 1C13.6569 1 15.0001 2.34109 15.0001 3.99541C15.0001 5.64973 13.6569 6.99082 12.0001 6.99082C10.3432 6.99082 9.00006 5.64973 9.00006 3.99541ZM7.00006 13.9801H17.0001C17.3467 13.9791 17.668 13.7989 17.8493 13.504C18.0306 13.209 18.046 12.8414 17.8901 12.5323L16.9401 10.6352C16.4301 9.62474 15.3933 8.98742 14.2601 8.98776H9.74006C8.60678 8.98742 7.57003 9.62474 7.06006 10.6352L6.11006 12.5323C5.95409 12.8414 5.96951 13.209 6.15082 13.504C6.33213 13.7989 6.65347 13.9791 7.00006 13.9801ZM14.6101 15.9771H18.5001C18.643 15.9632 18.7853 16.009 18.8933 16.1035C19.0012 16.1981 19.0652 16.333 19.0701 16.4763V20.3603C19.0776 20.565 18.9566 20.7527 18.767 20.8307C18.5773 20.9086 18.3591 20.8604 18.2201 20.7098L17.2201 19.7113C15.4688 21.6353 12.7927 22.4297 10.2731 21.7735C7.7536 21.1173 5.80705 19.1191 5.22006 16.5861C5.19227 16.4385 5.22863 16.286 5.32006 16.1668C5.41341 16.0464 5.55758 15.9763 5.71006 15.9771H6.71006C6.92167 15.9714 7.11393 16.0993 7.19006 16.2966C7.68111 18.0497 9.08889 19.3969 10.8639 19.8125C12.6389 20.228 14.4998 19.646 15.7201 18.2935L14.2601 16.8258C14.12 16.6831 14.0786 16.4709 14.1547 16.2862C14.2309 16.1015 14.41 15.9799 14.6101 15.9771Z" fill="currentColor" fill-rule="evenodd" clip-rule="evenodd" />
</svg>
