<svg xmlns="http://www.w3.org/2000/svg" viewBox="0 0 24 24">
    <path d="M9 5C10.1046 5 11 4.10457 11 3V2C11 0.89543 10.1046 0 9 0C7.89543 0 7 0.89543 7 2V3C7 4.10457 7.89543 5 9 5ZM12 3C12 2.44772 12.4477 2 13 2C13.5523 2 14 2.44772 14 3C14 3.55228 13.5523 4 13 4C12.4477 4 12 3.55228 12 3ZM15 6C15.5523 6 16 5.55228 16 5C16 4.44772 15.5523 4 15 4C14.4477 4 14 4.44772 14 5C14 5.55228 14.4477 6 15 6ZM16 7C16 6.44772 16.4477 6 17 6C17.5523 6 18 6.44772 18 7C18 7.55228 17.5523 8 17 8C16.4477 8 16 7.55228 16 7ZM10.88 6C11.9412 5.99917 12.9592 6.42005 13.71 7.17L16.27 9.73C16.7386 10.1998 17.0012 10.8365 17 11.5C17 12.3189 16.6473 13.4694 16.2381 14.8041C15.6729 16.6475 15 18.8422 15 21C15 22.6569 13.6569 24 12 24C10.3431 24 9 22.6569 9 21C9 19.154 10.1127 17.8116 11.1644 16.5427C12.1067 15.4058 13 14.328 13 13C13 11.8954 12.1046 11 11 11H9.5C8.11929 11 7 9.88071 7 8.5C7 7.11929 8.11929 6 9.5 6H10.88Z" fill="currentColor" fill-rule="evenodd" clip-rule="evenodd" />
</svg>
