<svg xmlns="http://www.w3.org/2000/svg" viewBox="0 0 24 24">
    <path d="M13.02 3C13.02 4.10457 12.1261 5 11.0234 5C9.92066 5 9.02674 4.10457 9.02674 3C9.02674 1.89543 9.92066 1 11.0234 1C12.1261 1 13.02 1.89543 13.02 3ZM9.47598 16.35L7.72893 15.18L7.31962 16.65C7.28714 16.7689 7.23299 16.8808 7.15989 16.98L5.16326 19.6C5.00345 19.8223 5.04753 20.1314 5.2631 20.3L6.05176 20.91C6.27231 21.0757 6.58518 21.0309 6.75058 20.81L8.74721 18.19C8.96996 17.8894 9.13576 17.5505 9.23639 17.19L9.47598 16.35ZM5.86209 5H4.15497C3.69657 4.98172 3.28474 5.27874 3.15665 5.72L2.03854 9.7C1.91284 10.1405 2.10206 10.6102 2.49777 10.84L3.94532 11.68C4.07899 11.7566 4.24048 11.7671 4.38293 11.7085C4.52537 11.6498 4.63282 11.5286 4.67409 11.38L6.34128 5.64C6.38527 5.48892 6.35568 5.3259 6.26141 5.2C6.16714 5.0741 6.0192 5 5.86209 5ZM17.5024 4H18.5007C18.6349 3.99997 18.7634 4.05402 18.8573 4.14996C18.9512 4.24591 19.0026 4.37567 18.9999 4.51L18.7703 22.51C18.7598 22.78 18.5408 22.9949 18.2711 23H17.752C17.4823 22.9949 17.2634 22.78 17.2528 22.51L17.1031 11H16.2246C15.3902 10.9711 14.5807 10.7077 13.8885 10.24L11.6723 8.8L10.5841 12.63L13.1298 14.33C13.6868 14.7022 14.0204 15.3293 14.0183 16V22.5C14.0183 22.7761 13.7948 23 13.5192 23H12.5208C12.2452 23 12.0217 22.7761 12.0217 22.5V16.31C12.0194 16.0592 11.8968 15.8247 11.6922 15.68L7.12994 12.68C6.76616 12.4392 6.60044 11.9898 6.72063 11.57L7.89865 7.45C8.14446 6.58913 8.93152 5.99682 9.82539 6H10.2746C10.8686 6.00065 11.4489 6.17817 11.9418 6.51L15.1464 8.66C15.4728 8.87558 15.8537 8.99352 16.2446 9H17.0831L17.0033 4.51C17.0006 4.37567 17.052 4.24591 17.1459 4.14996C17.2398 4.05402 17.3683 3.99997 17.5024 4Z" fill="currentColor" fill-rule="evenodd" clip-rule="evenodd" />
</svg>
