<svg xmlns="http://www.w3.org/2000/svg" viewBox="0 0 24 24">
    <path d="M20.4012 10.6871C20.3013 9.68598 19.402 8.98518 18.4028 8.98518H14.6057C16.3044 7.58359 16.4043 4.98062 15.0054 3.3788C13.6065 1.77698 11.0085 1.47663 9.40971 2.97834C7.81094 4.48005 7.51118 6.88279 9.01002 8.58473C9.04027 8.61504 9.07053 8.65453 9.10356 8.69764C9.17961 8.79691 9.27037 8.91538 9.40971 8.98518H5.61264C4.61341 8.98518 3.7141 9.68598 3.61418 10.6871L2.01541 20.8987C1.91549 21.3993 2.31518 22 2.8148 22H21.0008C21.6003 22 22 21.5995 22 20.9989V20.7986L20.4012 10.6871ZM12.0077 16.9943C10.9086 16.9943 10.0092 16.0933 10.0092 14.992C10.0092 13.8908 10.9086 12.9897 12.0077 12.9897C13.1069 12.9897 14.0062 13.8908 14.0062 14.992C14.0062 16.0933 13.1069 16.9943 12.0077 16.9943ZM10.0092 5.98176C10.0092 7.08302 10.9086 7.98404 12.0077 7.98404C13.1069 7.98404 14.0062 7.08302 14.0062 5.98176C14.0062 4.88051 13.1069 3.97948 12.0077 3.97948C10.9086 3.97948 10.0092 4.88051 10.0092 5.98176Z" fill="currentColor" fill-rule="evenodd" clip-rule="evenodd" />
</svg>
