<svg xmlns="http://www.w3.org/2000/svg" viewBox="0 0 24 24">
    <path d="M9.25259 2H9.39259C9.52425 2.00294 9.64966 2.05674 9.74259 2.15013L9.83259 2.24021C9.93965 2.35284 9.99414 2.50554 9.98259 2.66058C9.63041 5.5594 10.5366 8.47027 12.4717 10.6558C14.4067 12.8413 17.185 14.0918 20.1026 14.0905C20.5105 14.0888 20.9179 14.062 21.3226 14.0105H21.3826C21.5217 14 21.659 14.047 21.7626 14.1406L21.8526 14.2306C21.9814 14.3667 22.0306 14.5599 21.9826 14.7411C20.571 19.4087 16.0609 22.4276 11.2117 21.9506C6.3626 21.4736 2.52598 17.6336 2.04938 12.7802C1.57278 7.92689 4.58904 3.41279 9.25259 2ZM11.5226 12.4991C9.45084 10.4347 8.19373 7.6908 7.98259 4.77241C5.03076 6.51657 3.47436 9.91439 4.08052 13.2911C4.68667 16.6679 7.32745 19.311 10.7013 19.9177C14.0751 20.5244 17.4699 18.9666 19.2126 16.0122C16.3106 15.8046 13.5806 14.5574 11.5226 12.4991Z" fill="currentColor" fill-rule="evenodd" clip-rule="evenodd" />
</svg>
