<svg xmlns="http://www.w3.org/2000/svg" viewBox="0 0 24 24">
    <path d="M4.64178 8.4891C6.10501 4.58892 9.83392 2.00369 14.0016 2C15.6566 1.99854 17.2862 2.40742 18.7442 3.19C18.9035 3.27953 19.0028 3.44736 19.0044 3.63V3.76C19.0053 3.91531 18.9353 4.06256 18.8143 4.16C16.4174 6.05672 15.0198 8.94453 15.0198 12C15.0198 15.0555 16.4174 17.9433 18.8143 19.84C18.9353 19.9375 19.0053 20.0847 19.0044 20.24V20.37C19.0028 20.5526 18.9035 20.7205 18.7442 20.81C15.0725 22.7807 10.5631 22.2703 7.4253 19.5289C4.2875 16.7875 3.17856 12.3893 4.64178 8.4891ZM15.8626 4.22C15.2536 4.07126 14.6286 3.99738 14.0016 4C9.58084 4 5.99712 7.58173 5.99712 12C5.99712 16.4183 9.58084 20 14.0016 20C14.6286 20.0026 15.2536 19.9287 15.8626 19.78C12.0422 15.2961 12.0422 8.70394 15.8626 4.22Z" fill="currentColor" fill-rule="evenodd" clip-rule="evenodd" />
</svg>
