<svg xmlns="http://www.w3.org/2000/svg" viewBox="0 0 24 24">
    <path d="M16.1872 12.0001L18.7144 16.3201C19.034 16.8601 19.034 17.1401 18.9441 17.3801L18.8043 17.6301C18.6676 17.8588 18.4212 17.9992 18.155 18.0001H13.1606L13.4803 21.4601C13.4944 21.5984 13.4492 21.7363 13.3558 21.8393C13.2625 21.9424 13.1298 22.0008 12.9908 22.0001H10.9931C10.7341 21.9589 10.5535 21.7208 10.5835 21.4601L10.8632 18.0001H5.86885C5.60259 17.9992 5.35621 17.8588 5.21958 17.6301L5.07974 17.3801C4.9399 17.1601 4.9399 16.8601 5.34943 16.1601L7.78668 12.0001H7.16738C6.90112 11.9992 6.65475 11.8588 6.51811 11.6301L6.37827 11.3801C6.23843 11.1601 6.23843 10.8601 6.64797 10.1601L11.2028 2.37006C11.3365 2.13825 11.5848 1.99676 11.8521 2.00006H12.1318C12.3956 2.00036 12.6392 2.14137 12.7711 2.37006L17.4158 10.3201C17.7355 10.8601 17.7355 11.1401 17.5956 11.3801L17.4558 11.6301C17.3191 11.8588 17.0728 11.9992 16.8065 12.0001H16.1872ZM11.053 10.3801L7.76671 16.0001H16.2172L12.9309 10.3801C12.8843 10.3034 12.8822 10.2076 12.9256 10.1291C12.969 10.0506 13.051 10.0013 13.1406 10.0001H14.9186L11.9919 5.00006L9.05525 10.0001H10.8332C10.9221 10.0037 11.0029 10.0525 11.0475 10.1296C11.092 10.2066 11.0941 10.3011 11.053 10.3801Z" fill="currentColor" fill-rule="evenodd" clip-rule="evenodd" />
</svg>
