<svg xmlns="http://www.w3.org/2000/svg" viewBox="0 0 24 24">
    <path d="M12.3915 2.00693C16.6546 2.21575 20.0029 5.73356 20 10.0006C20.0003 13.9545 17.1103 17.3152 13.2 17.9083L13.49 21.4573C13.5042 21.5957 13.4589 21.7335 13.3654 21.8365C13.272 21.9395 13.1391 21.9979 13 21.9972H11C10.868 21.9871 10.7456 21.924 10.6609 21.8223C10.5761 21.7206 10.5361 21.589 10.55 21.4573L10.84 17.9083C6.61693 17.2896 3.62344 13.4655 4.0378 9.21866C4.45217 4.97182 8.12845 1.79811 12.3915 2.00693ZM6.00001 10.0006C6.00001 13.3133 8.6863 15.9989 12 15.9989C13.5913 15.9989 15.1174 15.3669 16.2427 14.242C17.3679 13.1171 18 11.5914 18 10.0006C18 6.68778 15.3137 4.00224 12 4.00224C8.6863 4.00224 6.00001 6.68778 6.00001 10.0006Z" fill="currentColor" fill-rule="evenodd" clip-rule="evenodd" />
</svg>
