<svg xmlns="http://www.w3.org/2000/svg" viewBox="0 0 24 24">
    <path d="M3.38005 2.15005C3.28932 2.05338 3.16264 1.99854 3.03005 1.99854C2.89747 1.99854 2.77079 2.05338 2.68005 2.15005L2.15005 2.68005C2.05338 2.77079 1.99854 2.89747 1.99854 3.03005C1.99854 3.16264 2.05338 3.28932 2.15005 3.38005L4.76005 6.00005H4.00005C2.89548 6.00005 2.00005 6.89548 2.00005 8.00005V18.0001C2.00005 19.1046 2.89548 20.0001 4.00005 20.0001H18.7601L20.6201 21.8501C20.7108 21.9467 20.8375 22.0016 20.9701 22.0016C21.1026 22.0016 21.2293 21.9467 21.3201 21.8501L21.8501 21.3201C21.9467 21.2293 22.0016 21.1026 22.0016 20.9701C22.0016 20.8375 21.9467 20.7108 21.8501 20.6201L3.38005 2.15005ZM11.0001 14.0001C10.4478 14.0001 10.0001 13.5523 10.0001 13.0001V12.5001C10.0001 12.2239 10.2239 12.0001 10.5001 12.0001H10.7601L12.7601 14.0001H11.0001ZM17.0001 6.00005H20.0001C21.1046 6.00005 22.0001 6.89548 22.0001 8.00005V18.2901L9.71005 6.00005H15.0001V4.00005H9.00005V5.29005L7.10005 3.39005C7.36474 2.56357 8.13223 2.0021 9.00005 2.00005H15.0001C16.1046 2.00005 17.0001 2.89548 17.0001 4.00005V6.00005Z" fill="currentColor" fill-rule="evenodd" clip-rule="evenodd" />
</svg>
