<svg xmlns="http://www.w3.org/2000/svg" viewBox="0 0 24 24">
    <path d="M21.0016 19.9701C21.0016 19.8375 20.9467 19.7108 20.8501 19.6201L4.38005 3.15005C4.28932 3.05338 4.16264 2.99854 4.03005 2.99854C3.89747 2.99854 3.77079 3.05338 3.68005 3.15005L3.15005 3.68005C3.05338 3.77079 2.99854 3.89747 2.99854 4.03005C2.99854 4.16264 3.05338 4.28932 3.15005 4.38005L6.43005 7.67005L3.29005 10.8101C2.90233 11.2001 2.90233 11.83 3.29005 12.2201L11.7801 20.7101C12.1701 21.0978 12.8 21.0978 13.1901 20.7101L16.3301 17.5701L19.6201 20.8501C19.7108 20.9467 19.8375 21.0016 19.9701 21.0016C20.1026 21.0016 20.2293 20.9467 20.3201 20.8501L20.8501 20.3201C20.9467 20.2293 21.0016 20.1026 21.0016 19.9701ZM20.5901 3.29005L20.7101 3.41005C20.8928 3.60169 20.9964 3.85529 21.0001 4.12005V12.0701C21.0005 12.6031 20.7881 13.1143 20.4101 13.4901L18.8101 15.0901L8.91005 5.19005L10.5101 3.59005C10.8858 3.21201 11.397 2.99963 11.9301 3.00005H19.8801C20.1448 3.00374 20.3984 3.10732 20.5901 3.29005Z" fill="currentColor" fill-rule="evenodd" clip-rule="evenodd" />
</svg>
