<svg xmlns="http://www.w3.org/2000/svg" viewBox="0 0 24 24">
    <path d="M17.833 3C20.1342 3 22 4.83152 22 7.09082C22 9.35016 20.1342 11.1816 17.833 11.1816C17.5477 11.1816 17.2692 11.1533 17 11.0996V15.9844C16.9976 16.2715 16.9204 16.5534 16.7754 16.8027L16.6504 17.0068C16.5077 17.2572 16.2969 17.4643 16.042 17.6045L10.4502 20.7793C10.197 20.9235 9.90893 20.9995 9.61621 21H9.38379C9.09064 21.0027 8.80172 20.9265 8.5498 20.7793L2.9502 17.6123C2.70068 17.4652 2.49161 17.2606 2.3418 17.0156L2.22461 16.8105C2.07797 16.5622 2.00061 16.2802 2 15.9932V9.65137C2.00059 9.36429 2.07797 9.08235 2.22461 8.83398L2.3418 8.62891C2.48783 8.38107 2.69775 8.17558 2.9502 8.03223L8.54199 4.85742C8.79515 4.71328 9.08235 4.63723 9.375 4.63672H9.61621C9.90893 4.63723 10.197 4.71321 10.4502 4.85742L13.6865 6.68945C13.892 4.61863 15.6699 3.00016 17.833 3ZM3.66699 16.0908L8.66699 18.9541V13.2275L3.66699 10.3633V16.0908ZM10.333 13.293V18.9541L15.208 16.1895L15.333 15.9844V10.4531L10.333 13.293ZM4.5 9.03809L9.5 11.8691L11.1104 10.957L6.20801 8.06934L4.5 9.03809ZM7.8584 7.13281L12.7627 10.0215L14.25 9.17871C14.1713 9.04878 14.1001 8.9141 14.0361 8.77539L9.61621 6.27246H9.375L7.8584 7.13281ZM18.2256 5.7832C18.1904 5.78328 18.1566 5.79728 18.1318 5.82227L15.9961 7.95898C15.9446 8.01011 15.9038 8.07125 15.877 8.13867L15.4219 9.28711C15.3961 9.34675 15.4179 9.41623 15.4727 9.45117C15.5102 9.48863 15.5661 9.50027 15.6152 9.48047L16.7637 9.01465C16.8312 8.98774 16.8922 8.94711 16.9434 8.89551L19.0771 6.75391C19.1271 6.70257 19.127 6.62071 19.0771 6.56934L18.3193 5.82227C18.2945 5.7974 18.2607 5.7832 18.2256 5.7832ZM19.4131 4.71582C19.3061 4.7145 19.2026 4.75635 19.127 4.83203L18.6475 5.31641C18.5971 5.36779 18.5973 5.45048 18.6475 5.50195L19.3916 6.25684C19.4164 6.28172 19.4502 6.29587 19.4854 6.2959C19.5205 6.2959 19.5543 6.28168 19.5791 6.25684L20.0693 5.77441C20.1448 5.69886 20.1867 5.59605 20.1855 5.48926V5.28809C20.1855 5.18285 20.1438 5.08122 20.0693 5.00684L19.8945 4.83203C19.8203 4.75768 19.7193 4.71603 19.6143 4.71582H19.4131Z" fill="currentColor" />
</svg>
