<svg xmlns="http://www.w3.org/2000/svg" viewBox="0 0 24 24">
    <path d="M22 7.09089C22 9.35023 20.1345 11.1818 17.8333 11.1818C17.5479 11.1818 17.2693 11.1536 17 11.1V15.9845C16.9976 16.2716 16.9201 16.5534 16.775 16.8027L16.65 17.0072C16.5073 17.2576 16.2967 17.4643 16.0417 17.6045L10.45 20.779C10.1968 20.9232 9.90938 20.9994 9.61667 20.9999H9.38333C9.09019 21.0026 8.80192 20.9262 8.55 20.779L2.95 17.6127C2.70041 17.4656 2.49149 17.2605 2.34167 17.0154L2.225 16.8109C2.07812 16.5623 2.00052 16.2801 2 15.9927V9.65179C2.00052 9.3644 2.07812 9.08221 2.225 8.83361L2.34167 8.62907C2.48771 8.38114 2.69748 8.17519 2.95 8.0318L8.54167 4.85727C8.79487 4.71306 9.08228 4.63687 9.375 4.63636H9.61667C9.90938 4.63687 10.1968 4.71306 10.45 4.85727L13.6864 6.68993C13.8916 4.61878 15.6699 3 17.8333 3C20.1345 3 22 4.83156 22 7.09089ZM14.0349 8.77476L9.61667 6.27271H9.375L7.85825 7.13312L12.7627 10.0218L14.25 9.1797C14.1709 9.04923 14.099 8.91408 14.0349 8.77476ZM11.1108 10.9571L6.20792 8.0693L4.5 9.03816L9.5 11.8691L11.1108 10.9571ZM15.2083 16.189L10.3333 18.9545V13.2927L15.3333 10.4536V15.9845L15.2083 16.189ZM3.66667 10.3636L8.66667 13.2272V18.9545L3.66667 16.0909V10.3636ZM17.5138 4.59082C17.2929 4.59082 17.1138 4.76991 17.1138 4.99082V5.62832C17.1138 5.84923 17.2929 6.02832 17.5138 6.02832H18.1513C18.3722 6.02832 18.5513 5.84923 18.5513 5.62832V4.99082C18.5513 4.76991 18.3722 4.59082 18.1513 4.59082H17.5138ZM17.5138 6.70283C17.2929 6.70283 17.1138 6.88191 17.1138 7.10283V9.19082C17.1138 9.41173 17.2929 9.59082 17.5138 9.59082H18.1513C18.3722 9.59082 18.5513 9.41173 18.5513 9.19082V7.10283C18.5513 6.88191 18.3722 6.70283 18.1513 6.70283H17.5138Z" fill="currentColor" fill-rule="evenodd" clip-rule="evenodd" />
</svg>
