<svg xmlns="http://www.w3.org/2000/svg" viewBox="0 0 24 24">
    <path d="M9.61621 5.63672C9.90893 5.63723 10.197 5.71321 10.4502 5.85742L16.042 9.02344C16.2959 9.16779 16.5078 9.37379 16.6582 9.62109L16.7754 9.8252C16.9223 10.0738 16.9995 10.3562 17 10.6436V16.9844C16.9976 17.2715 16.9204 17.5535 16.7754 17.8027L16.6504 18.0068C16.5077 18.2571 16.2969 18.4643 16.042 18.6045L10.4502 21.7793C10.197 21.9235 9.90893 21.9995 9.61621 22H9.38379C9.09064 22.0027 8.80172 21.9265 8.5498 21.7793L2.9502 18.6123C2.70068 18.4652 2.49161 18.2606 2.3418 18.0156L2.22461 17.8105C2.07797 17.5622 2.0006 17.2802 2 16.9932V10.6514C2.0006 10.3643 2.07797 10.0823 2.22461 9.83398L2.3418 9.62891C2.48783 9.38108 2.69775 9.17557 2.9502 9.03223L8.54199 5.85742C8.79514 5.71329 9.08236 5.63723 9.375 5.63672H9.61621ZM3.66699 17.0908L8.66699 19.9541V14.2275L3.66699 11.3633V17.0908ZM10.333 14.293V19.9541L15.208 17.1895L15.333 16.9844V11.4541L10.333 14.293ZM4.5 10.0381L9.5 12.8691L11.1104 11.957L6.20801 9.06934L4.5 10.0381ZM9.375 7.27246L7.8584 8.13281L12.7627 11.0215L14.5 10.0381L9.61621 7.27246H9.375Z" fill="currentColor" />
    <path d="M18.8126 3.09791C18.8126 4.20343 17.9164 5.09963 16.8109 5.09963C15.7053 5.09963 14.8091 4.20343 14.8091 3.09791C14.8091 1.99239 15.7053 1.09619 16.8109 1.09619C17.9164 1.09619 18.8126 1.99239 18.8126 3.09791ZM17.8115 3.09794C17.8115 3.6507 17.3634 4.0988 16.8107 4.0988C16.2579 4.0988 15.8098 3.6507 15.8098 3.09794C15.8098 2.54518 16.2579 2.09708 16.8107 2.09708C17.3634 2.09708 17.8115 2.54518 17.8115 3.09794Z" fill="currentColor" fill-rule="evenodd" clip-rule="evenodd" />
    <path d="M21.3706 2.13728C21.541 1.97518 21.8086 1.97519 21.9791 2.13728C22.1621 2.31131 22.1621 2.60312 21.9791 2.77716L16.64 7.85439C16.4695 8.01649 16.2019 8.01649 16.0315 7.85439C15.8485 7.68036 15.8485 7.38855 16.0315 7.21452L21.3706 2.13728Z" fill="currentColor" />
    <path d="M23.1173 7.0371C23.1173 8.14262 22.2211 9.03882 21.1155 9.03882C20.01 9.03882 19.1138 8.14262 19.1138 7.0371C19.1138 5.93158 20.01 5.03538 21.1155 5.03538C22.2211 5.03538 23.1173 5.93158 23.1173 7.0371ZM22.1162 7.03713C22.1162 7.58989 21.6681 8.03799 21.1153 8.03799C20.5626 8.03799 20.1144 7.58989 20.1144 7.03713C20.1144 6.48437 20.5626 6.03627 21.1153 6.03627C21.6681 6.03627 22.1162 6.48437 22.1162 7.03713Z" fill="currentColor" fill-rule="evenodd" clip-rule="evenodd" />
</svg>
