<svg xmlns="http://www.w3.org/2000/svg" viewBox="0 0 24 24">
    <path d="M11.9999 10.5728L8.15539 6.80151L2.85596 11.9999L8.15539 17.1983L11.9999 13.4271L15.8444 17.1983L21.1439 11.9999L15.8444 6.80151L11.9999 10.5728ZM11.9999 16.2287L9.55592 18.6261C8.77811 19.3891 7.53267 19.3891 6.75485 18.6261L1.45542 13.4277C0.656137 12.6436 0.656136 11.3562 1.45542 10.5722L6.75485 5.37376C7.53266 4.61077 8.77811 4.61077 9.55593 5.37376L11.9999 7.77115L14.4439 5.37376C15.2217 4.61077 16.4672 4.61077 17.245 5.37376L22.5444 10.5722C23.3437 11.3562 23.3437 12.6436 22.5444 13.4277L17.245 18.6261C16.4672 19.3891 15.2217 19.3891 14.4439 18.6261L11.9999 16.2287Z" fill="currentColor" fill-rule="evenodd" clip-rule="evenodd" />
    <path d="M16.5955 9.2201C16.302 8.9265 15.826 8.92653 15.5326 9.22016C15.2393 9.51359 15.2393 9.98917 15.5326 10.2826L16.4636 11.2139H13.7513C13.3362 11.2139 12.9997 11.5504 12.9997 11.9655C12.9997 12.3806 13.3362 12.7171 13.7513 12.7171H16.4526L15.535 13.635C15.2417 13.9284 15.2416 14.404 15.5349 14.6974C15.8284 14.9911 16.3043 14.9911 16.5978 14.6975L18.7136 12.581C18.7518 12.5427 18.7851 12.5014 18.8133 12.4578C18.9277 12.3259 18.997 12.1538 18.997 11.9655C18.997 11.7914 18.9378 11.6312 18.8385 11.5038C18.8055 11.4448 18.7639 11.3893 18.7138 11.3391L16.5955 9.2201Z" fill="currentColor" />
    <path d="M7.4019 14.6975C7.69539 14.9911 8.17135 14.991 8.46481 14.6974C8.75808 14.404 8.75805 13.9284 8.46475 13.635L7.53378 12.7037H10.2461C10.6612 12.7037 10.9977 12.3672 10.9977 11.9521C10.9977 11.537 10.6612 11.2005 10.2461 11.2005H7.54479L8.46243 10.2825C8.75573 9.98914 8.75576 9.51356 8.46249 9.22013C8.16903 8.9265 7.69307 8.92647 7.39958 9.22007L5.28381 11.3366C5.24557 11.3748 5.21232 11.4162 5.18405 11.4598C5.06964 11.5917 5.0004 11.7638 5.0004 11.9521C5.0004 12.1261 5.05956 12.2864 5.15886 12.4138C5.19186 12.4728 5.23344 12.5282 5.28358 12.5784L7.4019 14.6975Z" fill="currentColor" />
</svg>
