<svg xmlns="http://www.w3.org/2000/svg" viewBox="0 0 24 24">
    <path d="M20 7C21.6569 7 23 5.65685 23 4C23 2.34315 21.6569 1 20 1C18.3431 1 17 2.34315 17 4C17 5.65685 18.3431 7 20 7Z" fill="currentColor" />
    <path d="M19 11.49L20.4271 8.98202C20.2863 8.99392 20.1439 9 20 9C19.4052 9 18.8346 8.89613 18.3054 8.70553L17.28 10.5C17.1236 10.7763 16.8452 10.9619 16.53 11H10.3C9.94489 10.9979 9.61755 10.8076 9.44 10.5L6.87 6.00002H15.4161C15.1485 5.38755 15 4.71112 15 4.00002H5.72L5.16 3.00002C4.80132 2.37875 4.13737 1.99717 3.42 2.00002H2.5C2.22386 2.00002 2 2.22387 2 2.50002V3.50002C2 3.77616 2.22386 4.00002 2.5 4.00002H3.42L7.7 11.49C7.77797 11.6155 7.86843 11.7328 7.97 11.84L6.11 15.54C5.99438 15.7626 5.99438 16.0275 6.11 16.25L6.33 16.63C6.4704 16.865 6.72633 17.0063 7 17H19.5C19.7761 17 20 16.7762 20 16.5V15.5C20 15.2239 19.7761 15 19.5 15H8.62L9.62 12.91C9.82904 12.9652 10.0439 12.9954 10.26 13H16.49C17.5357 12.979 18.4915 12.404 19 11.49Z" fill="currentColor" />
    <path d="M18 18C16.8954 18 16 18.8954 16 20C16 21.1046 16.8954 22 18 22C19.1046 22 20 21.1046 20 20C20 18.8954 19.1046 18 18 18Z" fill="currentColor" />
    <path d="M6 20C6 18.8954 6.89543 18 8 18C9.10457 18 10 18.8954 10 20C10 21.1046 9.10457 22 8 22C6.89543 22 6 21.1046 6 20Z" fill="currentColor" />
</svg>
