<svg xmlns="http://www.w3.org/2000/svg" viewBox="0 0 24 24">
    <path d="M21.5 4.00002H20.5C20.2239 4.00002 20 4.22387 20 4.50002V5.00002C19.9968 5.47964 19.873 5.95076 19.64 6.37002L17.28 10.5C17.1236 10.7763 16.8452 10.9619 16.53 11H10.3C9.94489 10.9979 9.61755 10.8076 9.44 10.5L5.16 3.00002C4.80132 2.37875 4.13737 1.99717 3.42 2.00002H2.5C2.22386 2.00002 2 2.22387 2 2.50002V3.50002C2 3.77616 2.22386 4.00002 2.5 4.00002H3.42L7.7 11.49C7.77797 11.6155 7.86843 11.7328 7.97 11.84L6.11 15.54C5.99438 15.7626 5.99438 16.0275 6.11 16.25L6.33 16.63C6.4704 16.865 6.72633 17.0063 7 17H19.5C19.7761 17 20 16.7762 20 16.5V15.5C20 15.2239 19.7761 15 19.5 15H8.62L9.62 12.91C9.82904 12.9652 10.0439 12.9954 10.26 13H16.49C17.5357 12.979 18.4915 12.404 19 11.49L21.35 7.36002C21.7687 6.64346 21.9928 5.8299 22 5.00002V4.50002C22 4.22387 21.7761 4.00002 21.5 4.00002ZM6 20C6 18.8954 6.89543 18 8 18C9.10457 18 10 18.8954 10 20C10 21.1046 9.10457 22 8 22C6.89543 22 6 21.1046 6 20ZM18 22C19.1046 22 20 21.1046 20 20C20 18.8954 19.1046 18 18 18C16.8954 18 16 18.8954 16 20C16 21.1046 16.8954 22 18 22ZM16 4.62002V5.38002C16 5.65616 15.7761 5.88002 15.5 5.88002H13.88V7.50002C13.88 7.77616 13.6561 8.00002 13.38 8.00002H12.62C12.3439 8.00002 12.12 7.77616 12.12 7.50002V5.88002H10.5C10.2239 5.88002 10 5.65616 10 5.38002V4.62002C10 4.34387 10.2239 4.12002 10.5 4.12002H12.12V2.50002C12.12 2.22387 12.3439 2.00002 12.62 2.00002H13.38C13.6561 2.00002 13.88 2.22387 13.88 2.50002V4.12002H15.5C15.7761 4.12002 16 4.34387 16 4.62002Z" fill="currentColor" fill-rule="evenodd" clip-rule="evenodd" />
</svg>
