<svg xmlns="http://www.w3.org/2000/svg" viewBox="0 0 24 24">
    <path d="M3.03005 2C3.16264 2 3.28932 2.05475 3.38005 2.15127L21.8501 20.6208C21.9467 20.7113 22.0016 20.8378 22.0016 20.9702C22.0016 21.1026 21.9467 21.229 21.8501 21.3196L21.3201 21.8487C21.2293 21.9452 21.1026 22 20.9701 22C20.8375 22 20.7108 21.9452 20.6201 21.8487L19.7401 20.9702C19.3144 21.6878 18.4868 22.0656 17.6646 21.9178C16.8425 21.7699 16.199 21.1275 16.0509 20.3067C15.9028 19.4859 16.2813 18.6597 17.0001 18.2347L15.7601 16.9768H7.00005C6.73435 16.9916 6.48021 16.8667 6.33005 16.6473L6.11005 16.268C5.99443 16.0458 5.99443 15.7813 6.11005 15.5591L7.97005 11.8652C7.86848 11.7581 7.77802 11.6411 7.70005 11.5158L4.30005 5.52569L2.15005 3.37924C2.05338 3.28866 1.99854 3.16218 1.99854 3.02982C1.99854 2.89745 2.05338 2.77098 2.15005 2.68039L2.68005 2.15127C2.77079 2.05475 2.89747 2 3.03005 2ZM9.62005 12.8935L8.62005 14.9801H13.7201L11.7201 12.9834H10.2601C10.0439 12.9787 9.82909 12.9486 9.62005 12.8935ZM21.5001 3.99822H7.71005L16.7101 12.9834C17.6758 12.889 18.5327 12.3249 19.0001 11.4759L21.3501 7.35268C21.7688 6.63731 21.9928 5.82508 22.0001 4.99657V4.49739C22.0001 4.22171 21.7762 3.99822 21.5001 3.99822ZM6.00005 19.9718C6.00005 18.8691 6.89548 17.9751 8.00005 17.9751C9.10462 17.9751 10.0001 18.8691 10.0001 19.9718C10.0001 21.0746 9.10462 21.9685 8.00005 21.9685C6.89548 21.9685 6.00005 21.0746 6.00005 19.9718Z" fill="currentColor" fill-rule="evenodd" clip-rule="evenodd" />
</svg>
