<svg xmlns="http://www.w3.org/2000/svg" viewBox="0 0 24 24">
    <path d="M23 10.5C23 10.2239 22.7761 10 22.5 10H18.5L12.73 2.3C12.5864 2.11356 12.3653 2.00305 12.13 2H11.87C11.6347 2.00305 11.4136 2.11356 11.27 2.3L5.5 10H1.5C1.22386 10 1 10.2239 1 10.5V11.5C1 11.7761 1.22386 12 1.5 12H2L3.71 19.65C4.01148 21.0089 5.20813 21.982 6.6 22H17.4C18.8031 21.9959 20.016 21.0198 20.32 19.65L22 12H22.47C22.7461 12 22.97 11.7761 22.97 11.5L23 10.5ZM8 10L12 4.67L16 10H8ZM9 16.38C9 16.6561 9.22386 16.88 9.5 16.88H14.5C14.7761 16.88 15 16.6561 15 16.38V15.62C15 15.3439 14.7761 15.12 14.5 15.12H9.5C9.22386 15.12 9 15.3439 9 15.62V16.38Z" fill="currentColor" fill-rule="evenodd" clip-rule="evenodd" />
</svg>
