<svg xmlns="http://www.w3.org/2000/svg" viewBox="0 0 24 24">
    <path d="M7 3H17C18.1046 3 19 3.89543 19 5H5C5 3.89543 5.89543 3 7 3ZM20 7H4C2.89543 7 2 7.89543 2 9V19C2 20.1046 2.89543 21 4 21H20C21.1046 21 22 20.1046 22 19V9C22 7.89543 21.1046 7 20 7ZM15.06 14.62L11.17 17.22C10.9403 17.3752 10.6438 17.3911 10.3988 17.2613C10.1539 17.1315 10.0005 16.8772 10 16.6V11.4C10.0005 11.1228 10.1539 10.8685 10.3988 10.7387C10.6438 10.6089 10.9403 10.6248 11.17 10.78L15.06 13.38C15.2696 13.5166 15.396 13.7498 15.396 14C15.396 14.2502 15.2696 14.4834 15.06 14.62Z" fill="currentColor" fill-rule="evenodd" clip-rule="evenodd" />
</svg>
