<svg xmlns="http://www.w3.org/2000/svg" viewBox="0 0 24 24">
    <path d="M19 2C20.1046 2 21 2.89543 21 4V20C21 21.1046 20.1046 22 19 22H7C5.89543 22 5 21.1046 5 20H3.5C3.22386 20 3 19.7761 3 19.5V18.5C3 18.2239 3.22386 18 3.5 18H5V13H3.5C3.22386 13 3 12.7761 3 12.5V11.5C3 11.2239 3.22386 11 3.5 11H5V6H3.5C3.22386 6 3 5.77614 3 5.5V4.5C3 4.22386 3.22386 4 3.5 4H5C5 2.89543 5.89543 2 7 2H19ZM13.42 15.83L14.2 15.08C14.2791 15.0026 14.366 14.9189 14.4586 14.8297C15.4194 13.9037 17 12.3804 17 11.14C16.9921 10.5645 16.7559 10.0156 16.3433 9.6143C15.9307 9.21296 15.3755 8.99199 14.8 9C14.1181 9.0192 13.4712 9.30668 13 9.8C12.5288 9.30668 11.8819 9.0192 11.2 9C10.6245 8.99199 10.0693 9.21296 9.65673 9.6143C9.24414 10.0156 9.0079 10.5645 9 11.14C9 12.3804 10.5806 13.9037 11.5414 14.8297C11.634 14.9189 11.7209 15.0026 11.8 15.08L12.58 15.83C12.8133 16.0587 13.1867 16.0587 13.42 15.83Z" fill="currentColor" fill-rule="evenodd" clip-rule="evenodd" />
</svg>
