<svg xmlns="http://www.w3.org/2000/svg" viewBox="0 0 24 24">
    <path d="M12 2C6.47715 2 2 6.47715 2 12C2 17.5228 6.47715 22 12 22C17.5228 22 22 17.5228 22 12C22 9.34784 20.9464 6.8043 19.0711 4.92893C17.1957 3.05357 14.6522 2 12 2ZM12 4C7.58172 4 4 7.58172 4 12C4 16.4183 7.58172 20 12 20C16.4183 20 20 16.4183 20 12C20 9.87827 19.1571 7.84344 17.6569 6.34315C16.1566 4.84285 14.1217 4 12 4ZM15.98 16.53L16.51 16C16.6083 15.904 16.6638 15.7724 16.6638 15.635C16.6638 15.4976 16.6083 15.366 16.51 15.27L12.88 11.64V6.5C12.88 6.22386 12.6561 6 12.38 6H11.62C11.3439 6 11.12 6.22386 11.12 6.5V12.17C11.118 12.3056 11.1723 12.4359 11.27 12.53L15.27 16.53C15.4678 16.7218 15.7822 16.7218 15.98 16.53Z" fill="currentColor" fill-rule="evenodd" clip-rule="evenodd" />
</svg>
