<svg xmlns="http://www.w3.org/2000/svg" viewBox="0 0 24 24">
    <path d="M22.5 19C22.7761 19 23 19.2239 23 19.5V20.5C23 20.7761 22.7761 21 22.5 21H1.5C1.22386 21 1 20.7761 1 20.5V19.5C1 19.2239 1.22386 19 1.5 19H4V12C4 11.4477 4.44772 11 5 11H9V4C9 3.44772 9.44771 3 10 3H14C14.5523 3 15 3.44772 15 4V7H19C19.5523 7 20 7.44772 20 8V19H22.5ZM17.5 9H16.5C16.2239 9 16 9.22386 16 9.5V10.5C16 10.7761 16.2239 11 16.5 11H17.5C17.7761 11 18 10.7761 18 10.5V9.5C18 9.22386 17.7761 9 17.5 9ZM16.5 13H17.5C17.7761 13 18 13.2239 18 13.5V14.5C18 14.7761 17.7761 15 17.5 15H16.5C16.2239 15 16 14.7761 16 14.5V13.5C16 13.2239 16.2239 13 16.5 13ZM17.5 17H16.5C16.2239 17 16 17.2239 16 17.5V18.5C16 18.7761 16.2239 19 16.5 19H17.5C17.7761 19 18 18.7761 18 18.5V17.5C18 17.2239 17.7761 17 17.5 17ZM11.5 9H12.5C12.7761 9 13 9.22386 13 9.5V10.5C13 10.7761 12.7761 11 12.5 11H11.5C11.2239 11 11 10.7761 11 10.5V9.5C11 9.22386 11.2239 9 11.5 9ZM12.5 13H11.5C11.2239 13 11 13.2239 11 13.5V14.5C11 14.7761 11.2239 15 11.5 15H12.5C12.7761 15 13 14.7761 13 14.5V13.5C13 13.2239 12.7761 13 12.5 13ZM13 5.5V6.5C13 6.77614 12.7761 7 12.5 7H11.5C11.2239 7 11 6.77614 11 6.5V5.5C11 5.22386 11.2239 5 11.5 5H12.5C12.7761 5 13 5.22386 13 5.5ZM6.5 19H7.5C7.77614 19 8 18.7761 8 18.5V17.5C8 17.2239 7.77614 17 7.5 17H6.5C6.22386 17 6 17.2239 6 17.5V18.5C6 18.7761 6.22386 19 6.5 19ZM7.5 15H6.5C6.22386 15 6 14.7761 6 14.5V13.5C6 13.2239 6.22386 13 6.5 13H7.5C7.77614 13 8 13.2239 8 13.5V14.5C8 14.7761 7.77614 15 7.5 15ZM11 17.5V18.5C11 18.7761 11.2239 19 11.5 19H12.5C12.7761 19 13 18.7761 13 18.5V17.5C13 17.2239 12.7761 17 12.5 17H11.5C11.2239 17 11 17.2239 11 17.5Z" fill="currentColor" fill-rule="evenodd" clip-rule="evenodd" />
</svg>
