<svg xmlns="http://www.w3.org/2000/svg" viewBox="0 0 24 24">
    <path d="M5 3H19C20.1046 3 21 3.89543 21 5V19C21 20.1046 20.1046 21 19 21H5C3.89543 21 3 20.1046 3 19V5C3 3.89543 3.89543 3 5 3ZM17.5 14C17.7761 14 18 13.7761 18 13.5V10.5C18 10.2239 17.7761 10 17.5 10H14V6.5C14 6.22386 13.7761 6 13.5 6H10.5C10.2239 6 10 6.22386 10 6.5V10H6.5C6.22386 10 6 10.2239 6 10.5V13.5C6 13.7761 6.22386 14 6.5 14H10V17.5C10 17.7761 10.2239 18 10.5 18H13.5C13.7761 18 14 17.7761 14 17.5V14H17.5Z" fill="currentColor" fill-rule="evenodd" clip-rule="evenodd" />
</svg>
