<svg xmlns="http://www.w3.org/2000/svg" viewBox="0 0 24 24">
    <path d="M2 12C2 6.47715 6.47715 2 12 2C14.6522 2 17.1957 3.05357 19.0711 4.92893C20.9464 6.8043 22 9.34784 22 12C22 17.5228 17.5228 22 12 22C6.47715 22 2 17.5228 2 12ZM18 17V17.27C20.6629 14.0922 20.4568 9.40658 17.5251 6.47491C14.5934 3.54324 9.90779 3.33711 6.73 6H13.5C13.7761 6 14 6.22386 14 6.5V7.5C14 7.77614 13.7761 8 13.5 8H13C12.4477 8 12 8.44772 12 9V10C12 10.5523 11.5523 11 11 11H10.5C10.2239 11 10 11.2239 10 11.5C10 11.7761 10.2239 12 10.5 12H11.5C11.7761 12 12 12.2239 12 12.5V14H9C8.44772 14 8 13.5523 8 13V12.5C8 12.2239 7.77614 12 7.5 12H7C6.44772 12 6 11.5523 6 11V8.5C6 8.22386 5.77614 8 5.5 8H5.08C3.65167 10.4739 3.65089 13.5218 5.07795 15.9965C6.50501 18.4711 9.14334 19.9971 12 20C12.3344 19.9969 12.6684 19.9736 13 19.93V16.5C13.0055 16.3693 12.9573 16.242 12.8667 16.1476C12.7761 16.0532 12.6508 15.9999 12.52 16C12.3847 16.0027 12.2539 15.9515 12.1564 15.8577C12.0589 15.764 12.0026 15.6353 12 15.5V14H13.5C13.7761 14 14 14.2239 14 14.5C14 14.7761 14.2239 15 14.5 15H15.5C15.7761 15 16 15.2239 16 15.5C16 15.7761 16.2239 16 16.5 16H17C17.5523 16 18 16.4477 18 17Z" fill="currentColor" fill-rule="evenodd" clip-rule="evenodd" />
</svg>
