<svg xmlns="http://www.w3.org/2000/svg" viewBox="0 0 24 24">
    <path d="M20.6924 7.74318C20.8794 7.93243 20.9837 8.18862 20.9821 8.45516V9.62842C20.981 9.89149 20.877 10.1436 20.6924 10.3304L19.0341 11.9749C18.8455 12.1626 18.5903 12.2673 18.3248 12.2657H17.1559C16.8904 12.2673 16.6352 12.1626 16.4466 11.9749L14.9182 10.4407L10.4826 14.893L11.9911 16.4473C12.1781 16.6366 12.2823 16.8928 12.2808 17.1593V18.3326C12.2823 18.5991 12.1781 18.8553 11.9911 19.0446L10.3327 20.7092C10.1466 20.8944 9.89549 20.9989 9.63341 21H8.48456C8.21902 21.0015 7.9638 20.8969 7.77526 20.7092L6.23679 19.1649L4.55847 20.8496C4.46468 20.9445 4.337 20.9979 4.20382 20.9979C4.07063 20.9979 3.94296 20.9445 3.84917 20.8496L3.14987 20.1476C3.05531 20.0535 3.00212 19.9253 3.00212 19.7916C3.00212 19.6579 3.05531 19.5298 3.14987 19.4356L4.8282 17.751L3.28973 16.2067C3.10273 16.0174 2.99848 15.7612 3.00002 15.4947V14.3214C3.00112 14.0584 3.10517 13.8063 3.28973 13.6195L4.99803 11.9749C5.18656 11.7872 5.44178 11.6826 5.70732 11.6841H6.82621C7.09175 11.6826 7.34697 11.7872 7.5355 11.9749L9.06398 13.5092L13.4996 9.05683L11.9911 7.50252C11.8041 7.31327 11.6998 7.05708 11.7014 6.79054V5.61728C11.7126 5.36819 11.8159 5.13223 11.9911 4.95544L13.6494 3.29082C13.8355 3.10557 14.0866 3.00112 14.3487 3.00002H15.5176C15.7831 2.99848 16.0383 3.10312 16.2269 3.29082L17.7653 4.83511L19.4436 3.15043C19.5374 3.05551 19.6651 3.00212 19.7983 3.00212C19.9315 3.00212 20.0592 3.05551 20.1529 3.15043L20.8522 3.85238C20.9468 3.94653 21 4.07468 21 4.20837C21 4.34206 20.9468 4.47021 20.8522 4.56436L19.1539 6.1989L20.6924 7.74318Z" fill="currentColor" />
</svg>
