<svg xmlns="http://www.w3.org/2000/svg" viewBox="0 0 24 24">
    <path d="M4 10C4 5.58172 7.58172 2 12 2C16.4183 2 20 5.58172 20 10C20 13.7564 18.1763 15.226 16.4762 16.596C15.3613 17.4945 14.2994 18.3502 13.84 19.78L13.33 21.32C13.187 21.7454 12.7782 22.0234 12.33 22H11.77C11.3218 22.0234 10.913 21.7454 10.77 21.32L10.26 19.78C9.78216 18.3544 8.70547 17.4996 7.57743 16.604C5.84899 15.2317 4 13.7637 4 10ZM15.5 11C15.7761 11 16 10.7761 16 10.5V9.5C16 9.22386 15.7761 9 15.5 9H13V6.5C13 6.22386 12.7761 6 12.5 6H11.5C11.2239 6 11 6.22386 11 6.5V9H8.5C8.22386 9 8 9.22386 8 9.5V10.5C8 10.7761 8.22386 11 8.5 11H11V13.5C11 13.7761 11.2239 14 11.5 14H12.5C12.7761 14 13 13.7761 13 13.5V11H15.5Z" fill="currentColor" fill-rule="evenodd" clip-rule="evenodd" />
</svg>
