<svg xmlns="http://www.w3.org/2000/svg" viewBox="0 0 24 24">
    <path d="M4 10C4 5.58172 7.58172 2 12 2C16.4183 2 20 5.58172 20 10C20 13.7564 18.1763 15.226 16.4762 16.596C15.3613 17.4945 14.2994 18.3502 13.84 19.78L13.33 21.32C13.187 21.7454 12.7782 22.0234 12.33 22H11.77C11.3218 22.0234 10.913 21.7454 10.77 21.32L10.26 19.78C9.78216 18.3544 8.70547 17.4996 7.57743 16.604C5.84899 15.2317 4 13.7637 4 10ZM15.2415 12.21C15.2415 12.0774 15.1867 11.9507 15.09 11.86L13.24 10L15.09 8.14C15.1867 8.04927 15.2415 7.92259 15.2415 7.79C15.2415 7.65741 15.1867 7.53073 15.09 7.44L14.56 6.91C14.4693 6.81332 14.3426 6.75848 14.21 6.75848C14.0774 6.75848 13.9507 6.81332 13.86 6.91L12 8.76L10.14 6.91C10.0493 6.81332 9.92259 6.75848 9.79 6.75848C9.65741 6.75848 9.53073 6.81332 9.44 6.91L8.91 7.44C8.81332 7.53073 8.75848 7.65741 8.75848 7.79C8.75848 7.92259 8.81332 8.04927 8.91 8.14L10.76 10L8.91 11.86C8.81332 11.9507 8.75848 12.0774 8.75848 12.21C8.75848 12.3426 8.81332 12.4693 8.91 12.56L9.44 13.09C9.53073 13.1867 9.65741 13.2415 9.79 13.2415C9.92259 13.2415 10.0493 13.1867 10.14 13.09L12 11.24L13.86 13.09C13.9507 13.1867 14.0774 13.2415 14.21 13.2415C14.3426 13.2415 14.4693 13.1867 14.56 13.09L15.09 12.56C15.1867 12.4693 15.2415 12.3426 15.2415 12.21Z" fill="currentColor" fill-rule="evenodd" clip-rule="evenodd" />
</svg>
