<svg xmlns="http://www.w3.org/2000/svg" viewBox="0 0 24 24">
    <path d="M4 10C4 5.58172 7.58172 2 12 2C16.4183 2 20 5.58172 20 10C20 13.7564 18.1763 15.226 16.4762 16.596C15.3613 17.4945 14.2994 18.3502 13.84 19.78L13.33 21.32C13.187 21.7454 12.7782 22.0234 12.33 22H11.77C11.3218 22.0234 10.913 21.7454 10.77 21.32L10.26 19.78C9.78216 18.3544 8.70547 17.4996 7.57743 16.604C5.84899 15.2317 4 13.7637 4 10ZM12 4.75C13.2426 4.75 14.25 5.75736 14.25 7C14.25 8.24264 13.2426 9.25 12 9.25C10.7574 9.25 9.75 8.24264 9.75 7C9.74733 6.40245 9.98352 5.8286 10.4061 5.40606C10.8286 4.98352 11.4024 4.74733 12 4.75ZM12 16C10.0707 15.9934 8.26222 15.0594 7.14 13.49L7.83 12.1C8.17052 11.4242 8.86328 10.9985 9.62 11H14.38C15.1367 10.9985 15.8295 11.4242 16.17 12.1L16.86 13.49C15.7378 15.0594 13.9293 15.9934 12 16Z" fill="currentColor" fill-rule="evenodd" clip-rule="evenodd" />
</svg>
