<svg xmlns="http://www.w3.org/2000/svg" viewBox="0 0 24 24">
    <path d="M12 2C16.4183 2 20 5.58172 20 10C20 11.0789 19.8481 11.9692 19.5906 12.7226C21.035 13.5993 22 15.1869 22 17C22 19.7614 19.7614 22 17 22C15.629 22 14.3868 21.4482 13.4835 20.5545L13.23 21.32C13.087 21.7454 12.6782 22.0234 12.23 22H11.67C11.2218 22.0234 10.813 21.7454 10.67 21.32L10.16 19.78C9.71829 18.3434 8.65265 17.4865 7.52961 16.5833C5.83051 15.2169 4 13.7448 4 10C4 5.58172 7.58172 2 12 2ZM12.1859 18.3553C12.0648 17.9243 12 17.4697 12 17C12 14.2386 14.2386 12 17 12C17.241 12 17.478 12.017 17.7099 12.05C17.8971 11.4914 18 10.8268 18 10C18 6.68629 15.3137 4 12 4C8.68629 4 6 6.68629 6 10C6 12.8 7.18 13.74 8.82 15C10.1988 15.9318 11.2981 17.2212 12 18.73C12.0592 18.6035 12.1212 18.4786 12.1859 18.3553ZM14 10C14 11.1046 13.1046 12 12 12C10.8954 12 10 11.1046 10 10C10 8.89543 10.8954 8 12 8C13.1046 8 14 8.89543 14 10ZM17 20C17.4631 20 17.9018 19.8951 18.2934 19.7076L14.2924 15.7066C14.1049 16.0982 14 16.5369 14 17C14 18.6569 15.3431 20 17 20ZM15.7066 14.2924L19.7076 18.2934C19.895 17.9018 20 17.4632 20 17C20 15.3431 18.6569 14 17 14C16.5368 14 16.0982 14.105 15.7066 14.2924Z" fill="currentColor" fill-rule="evenodd" clip-rule="evenodd" />
</svg>
