<svg xmlns="http://www.w3.org/2000/svg" viewBox="0 0 24 24">
    <path d="M20 10C20 5.58172 16.4183 2 12 2C7.58172 2 4 5.58172 4 10C4 13.7448 5.83051 15.2169 7.52961 16.5833C8.65265 17.4865 9.71829 18.3434 10.16 19.78L10.67 21.32C10.813 21.7454 11.2218 22.0234 11.67 22H12.23C12.6782 22.0234 13.087 21.7454 13.23 21.32L13.74 19.78C14.2178 18.3544 15.2945 17.4996 16.4226 16.604C18.151 15.2317 20 13.7637 20 10ZM12 4C8.68629 4 6 6.68629 6 10C6 12.8 7.18 13.74 8.82 15C10.1988 15.9318 11.2981 17.2212 12 18.73C12.7053 17.2233 13.8039 15.9348 15.18 15C16.82 13.74 18 12.8 18 10C18 6.68629 15.3137 4 12 4ZM16 10.5C16 10.7761 15.7761 11 15.5 11H8.5C8.22386 11 8 10.7761 8 10.5V9.5C8 9.22386 8.22386 9 8.5 9H15.5C15.7761 9 16 9.22386 16 9.5V10.5Z" fill="currentColor" fill-rule="evenodd" clip-rule="evenodd" />
</svg>
