<svg xmlns="http://www.w3.org/2000/svg" viewBox="0 0 24 24">
    <path d="M9.99791 8.79501C9.99791 8.66169 9.94467 8.53389 9.85001 8.44001L6.69001 5.27001L8.11001 3.85001C8.25131 3.70586 8.29208 3.49088 8.21336 3.305C8.13463 3.11913 7.95186 2.99882 7.75001 3.00001H3.50001C3.22823 3.01028 3.01028 3.22823 3.00001 3.50001V7.75001C2.99877 7.95447 3.12214 8.13907 3.31152 8.21615C3.5009 8.29322 3.71812 8.24722 3.86001 8.10001L5.28001 6.68001L8.44001 9.85001C8.53389 9.94466 8.66169 9.99791 8.79501 9.99791C8.92833 9.99791 9.05613 9.94466 9.15001 9.85001L9.85001 9.15001C9.94467 9.05613 9.99791 8.92833 9.99791 8.79501ZM8.79501 14.0021C8.92833 14.0021 9.05613 14.0554 9.15001 14.15L9.85001 14.85C9.94467 14.9439 9.99791 15.0717 9.99791 15.205C9.99791 15.3383 9.94467 15.4661 9.85001 15.56L6.68001 18.72L8.10001 20.15C8.24007 20.2929 8.2815 20.5054 8.20533 20.6904C8.12915 20.8754 7.95005 20.9972 7.75001 21H3.50001C3.22823 20.9897 3.01028 20.7718 3.00001 20.5V16.25C2.99882 16.0482 3.11913 15.8654 3.305 15.7867C3.49088 15.7079 3.70586 15.7487 3.85001 15.89L5.27001 17.31L8.44001 14.15C8.53389 14.0554 8.66169 14.0021 8.79501 14.0021ZM20.15 15.9L18.73 17.32L15.57 14.15C15.4761 14.0554 15.3483 14.0021 15.215 14.0021C15.0817 14.0021 14.9539 14.0554 14.86 14.15L14.16 14.85C14.0654 14.9439 14.0121 15.0717 14.0121 15.205C14.0121 15.3383 14.0654 15.4661 14.16 15.56L17.32 18.73L15.9 20.15C15.7587 20.2942 15.7179 20.5091 15.7967 20.695C15.8754 20.8809 16.0582 21.0012 16.26 21H20.5C20.7718 20.9897 20.9897 20.7718 21 20.5V16.25C21.0012 16.0456 20.8779 15.8609 20.6885 15.7839C20.4991 15.7068 20.2819 15.7528 20.14 15.9H20.15ZM16.25 3.00001H20.5C20.7718 3.01028 20.9897 3.22823 21 3.50001V7.75001C21.0012 7.95186 20.8809 8.13463 20.695 8.21335C20.5091 8.29208 20.2942 8.25131 20.15 8.11001L18.73 6.69001L15.56 9.85001C15.4661 9.94466 15.3383 9.99791 15.205 9.99791C15.0717 9.99791 14.9439 9.94466 14.85 9.85001L14.15 9.15001C14.0554 9.05613 14.0021 8.92833 14.0021 8.79501C14.0021 8.66169 14.0554 8.53389 14.15 8.44001L17.32 5.27001L15.9 3.85001C15.7599 3.70716 15.7185 3.49457 15.7947 3.30958C15.8709 3.1246 16.05 3.00282 16.25 3.00001Z" fill="currentColor" fill-rule="evenodd" clip-rule="evenodd" />
</svg>
