<svg xmlns="http://www.w3.org/2000/svg" viewBox="0 0 24 24">
    <path d="M11.8653 3H12.1646C12.3712 3.00134 12.5565 3.12779 12.6335 3.32L18.9683 19.93C19.0377 20.1179 18.9909 20.3292 18.8486 20.47L18.4695 20.85C18.3781 20.9451 18.2522 20.9992 18.1204 21C17.9977 21.0025 17.8791 20.9557 17.7912 20.87C16.2212 19.4038 14.1606 18.5798 12.015 18.56C9.85896 18.5723 7.7864 19.3969 6.20884 20.87C6.12085 20.9557 6.00229 21.0025 5.87963 21C5.74783 20.9992 5.62192 20.9451 5.53047 20.85L5.15137 20.47C5.00909 20.3292 4.96225 20.1179 5.03166 19.93L11.3964 3.32C11.4734 3.12779 11.6587 3.00134 11.8653 3ZM15.8259 17.3L12.015 7.3L8.20407 17.3C10.6467 16.2997 13.3833 16.2997 15.8259 17.3Z" fill="currentColor" fill-rule="evenodd" clip-rule="evenodd" />
</svg>
