<svg xmlns="http://www.w3.org/2000/svg" viewBox="0 0 24 24">
    <path d="M22.5 19H19V4C19 3.44772 18.5523 3 18 3H6C5.44772 3 5 3.44772 5 4V19H1.5C1.22386 19 1 19.2239 1 19.5V20.5C1 20.7761 1.22386 21 1.5 21H22.5C22.7761 21 23 20.7761 23 20.5V19.5C23 19.2239 22.7761 19 22.5 19ZM16.5 11H15.5C15.2239 11 15 10.7761 15 10.5V9.5C15 9.22386 15.2239 9 15.5 9H16.5C16.7761 9 17 9.22386 17 9.5V10.5C17 10.7761 16.7761 11 16.5 11ZM7.5 11H8.5C8.77614 11 9 10.7761 9 10.5V9.5C9 9.22386 8.77614 9 8.5 9H7.5C7.22386 9 7 9.22386 7 9.5V10.5C7 10.7761 7.22386 11 7.5 11ZM9 13.5V14.5C9 14.7761 8.77614 15 8.5 15H7.5C7.22386 15 7 14.7761 7 14.5V13.5C7 13.2239 7.22386 13 7.5 13H8.5C8.77614 13 9 13.2239 9 13.5ZM16.5 13H15.5C15.2239 13 15 13.2239 15 13.5V14.5C15 14.7761 15.2239 15 15.5 15H16.5C16.7761 15 17 14.7761 17 14.5V13.5C17 13.2239 16.7761 13 16.5 13ZM16.5 7H15.5C15.2239 7 15 6.77614 15 6.5V5.5C15 5.22386 15.2239 5 15.5 5H16.5C16.7761 5 17 5.22386 17 5.5V6.5C17 6.77614 16.7761 7 16.5 7ZM9 6.5V5.5C9 5.22386 8.77614 5 8.5 5H7.5C7.22386 5 7 5.22386 7 5.5V6.5C7 6.77614 7.22386 7 7.5 7H8.5C8.77614 7 9 6.77614 9 6.5ZM7.5 17H16.5C16.7761 17 17 17.2239 17 17.5V19H7V17.5C7 17.2239 7.22386 17 7.5 17ZM11.5 11H12.5C12.7761 11 13 10.7761 13 10.5V9.5C13 9.22386 12.7761 9 12.5 9H11.5C11.2239 9 11 9.22386 11 9.5V10.5C11 10.7761 11.2239 11 11.5 11ZM11.5 13H12.5C12.7761 13 13 13.2239 13 13.5V14.5C13 14.7761 12.7761 15 12.5 15H11.5C11.2239 15 11 14.7761 11 14.5V13.5C11 13.2239 11.2239 13 11.5 13ZM11.5 7H12.5C12.7761 7 13 6.77614 13 6.5V5.5C13 5.22386 12.7761 5 12.5 5H11.5C11.2239 5 11 5.22386 11 5.5V6.5C11 6.77614 11.2239 7 11.5 7Z" fill="currentColor" fill-rule="evenodd" clip-rule="evenodd" />
</svg>
