<svg xmlns="http://www.w3.org/2000/svg" viewBox="0 0 24 24">
    <path d="M20.71 9.48001C20.8933 9.17813 20.9933 8.83311 21 8.48001V8.00001C21 7.44773 20.5523 7.00002 20 7.00002H18.14L19 3.89002C19.0702 3.62513 18.9141 3.35308 18.65 3.28002L17.65 3.02002C17.3826 2.94926 17.1076 3.10453 17.03 3.37001L16.06 7.00002H4C3.44772 7.00002 3 7.44773 3 8.00001V8.45002C3.00668 8.80311 3.10674 9.14813 3.29 9.45002L5.38 13C5.76083 13.6339 5.76083 14.4261 5.38 15.06L3.29 18.52C3.10674 18.8219 3.00668 19.1669 3 19.52V20C3 20.5523 3.44772 21 4 21H20C20.5523 21 21 20.5523 21 20V19.55C20.9933 19.1969 20.8933 18.8519 20.71 18.55L18.62 15C18.2392 14.3661 18.2392 13.5739 18.62 12.94L20.71 9.48001ZM16.9 16.06L18.67 19H5.33L7.1 16.06C7.86165 14.7923 7.86165 13.2077 7.1 11.94L5.33 9.00001H18.67L16.9 11.94C16.1383 13.2077 16.1383 14.7923 16.9 16.06ZM12.88 13.12H14.5C14.7761 13.12 15 13.3439 15 13.62V14.38C15 14.6562 14.7761 14.88 14.5 14.88H12.88V16.5C12.88 16.7762 12.6561 17 12.38 17H11.62C11.3439 17 11.12 16.7762 11.12 16.5V14.88H9.5C9.22386 14.88 9 14.6562 9 14.38V13.62C9 13.3439 9.22386 13.12 9.5 13.12H11.12V11.5C11.12 11.2239 11.3439 11 11.62 11H12.38C12.6561 11 12.88 11.2239 12.88 11.5V13.12Z" fill="currentColor" fill-rule="evenodd" clip-rule="evenodd" />
</svg>
