<svg xmlns="http://www.w3.org/2000/svg" viewBox="0 0 24 24">
    <path d="M6.68791 8.61362L1.91816 3.84387C1.64642 3.57214 1.64642 3.13157 1.91816 2.85983L2.57419 2.2038C2.84592 1.93207 3.28649 1.93207 3.55823 2.2038L21.5106 20.1561C21.7823 20.4279 21.7823 20.8684 21.5106 21.1402L20.8545 21.7962C20.5828 22.0679 20.1422 22.0679 19.8705 21.7962L15.4054 17.3311C15.3793 17.5686 15.274 17.7918 15.1046 17.9632L14.6599 18.3991C14.2469 18.8112 13.5799 18.8112 13.1669 18.3991L5.69118 10.8832C5.28063 10.4686 5.28063 9.79893 5.69118 9.3843L6.12533 8.90592C6.27981 8.75209 6.47654 8.65088 6.68791 8.61362ZM11.2563 7.36864L16.6215 12.8336L18.2178 10.4261C18.4718 10.0417 18.8434 9.75066 19.2766 9.59691L20.8014 9.05475C21.161 8.93909 21.432 8.64 21.5127 8.26974C21.5934 7.89948 21.4717 7.51407 21.1932 7.25817L16.7459 2.79331C16.4894 2.53501 16.1189 2.42678 15.7644 2.50659C15.4099 2.5864 15.1208 2.84311 14.9988 3.18664L14.4587 4.71745C14.3056 5.15238 14.0157 5.5255 13.6328 5.78052L11.2563 7.36864ZM3.24541 18.9412C3.40793 18.5424 3.64927 18.1807 3.95486 17.8781L7.04679 14.774L9.18573 17.0064L6.10439 20.0999C5.80298 20.4067 5.44277 20.649 5.04551 20.8122L3.12893 21.5776C2.93221 21.6571 2.70721 21.6111 2.55714 21.4607C2.4073 21.31 2.36146 21.0841 2.44066 20.8866L3.24541 18.9412Z" fill="currentColor" fill-rule="evenodd" clip-rule="evenodd" />
</svg>
