<svg xmlns="http://www.w3.org/2000/svg" viewBox="0 0 24 24">
    <path d="M12 10.76V2.5C12 2.22386 11.7761 2 11.5 2H10.75C10.4739 2 10.25 2.22386 10.25 2.5V9.5C10.25 9.77614 10.0261 10 9.75 10H9.38C9.10386 10 8.88 9.77614 8.88 9.5V2.5C8.88 2.22386 8.65614 2 8.38 2H7.62C7.34386 2 7.12 2.22386 7.12 2.5V9.5C7.12 9.77614 6.89614 10 6.62 10H6.25C5.97386 10 5.75 9.77614 5.75 9.5V2.5C5.75 2.22386 5.52614 2 5.25 2H4.5C4.22386 2 4 2.22386 4 2.5V10.76C4.0007 11.5554 4.31723 12.3179 4.88 12.88L5.71 13.71C5.89626 13.8947 6.14766 13.9989 6.41 14H7V21.5C7 21.7761 7.22386 22 7.5 22H8.5C8.77614 22 9 21.7761 9 21.5V14H9.59C9.85234 13.9989 10.1037 13.8947 10.29 13.71L11.12 12.88C11.6828 12.3179 11.9993 11.5554 12 10.76ZM19.5 2C19.7761 2 20 2.22386 20 2.5V21.5C20 21.7761 19.7761 22 19.5 22H18.5C18.2239 22 18 21.7761 18 21.5V14H16C15.4477 14 15 13.5523 15 13V6C15 3.79086 16.7909 2 19 2H19.5Z" fill="currentColor" fill-rule="evenodd" clip-rule="evenodd" />
</svg>
