<svg xmlns="http://www.w3.org/2000/svg" viewBox="0 0 24 24">
    <path d="M8.82291 4.99998H10.5013C10.7772 4.99998 11.0008 5.22383 11.0008 5.49998V6.49998C11.0008 6.77612 10.7772 6.99998 10.5013 6.99998H8.82291C8.33634 8.37752 6.92904 9.20385 5.49033 8.95677C4.05163 8.7097 3 7.46109 3 5.99998C3 4.53887 4.05163 3.29026 5.49033 3.04318C6.92904 2.7961 8.33634 3.62243 8.82291 4.99998ZM5.00653 5.99998C5.00653 6.55226 5.45382 6.99998 6.00558 6.99998C6.55734 6.99998 7.00463 6.55226 7.00463 5.99998C7.00463 5.44769 6.55734 4.99998 6.00558 4.99998C5.45382 4.99998 5.00653 5.44769 5.00653 5.99998ZM5.67589 11.23C4.5366 11.6326 3.64048 12.5296 3.2382 13.67C3.20423 13.7394 3.20423 13.8206 3.2382 13.89C3.28639 13.9583 3.36447 13.9992 3.448 14H5.00653C5.16141 14.0017 5.30719 13.9269 5.39616 13.8C5.51394 13.6521 5.64799 13.5179 5.79578 13.4C5.92935 13.3112 6.00845 13.1604 6.00558 13V11.47C6.00482 11.3864 5.96392 11.3082 5.89568 11.26C5.83112 11.2162 5.74982 11.2051 5.67589 11.23ZM5.00653 16C5.17075 16.0014 5.32229 16.0886 5.40615 16.23V16.2C5.52335 16.3514 5.65743 16.489 5.80577 16.61C5.93256 16.699 6.00732 16.8449 6.00558 17V18.53C6.02224 18.6184 5.99201 18.7092 5.92566 18.77C5.85633 18.804 5.77519 18.804 5.70586 18.77C4.56657 18.3673 3.67045 17.4703 3.26817 16.33C3.2342 16.2606 3.2342 16.1794 3.26817 16.11C3.31637 16.0417 3.39444 16.0007 3.47797 16H5.00653ZM10.5013 17.03H8.50321C8.22733 17.03 8.00369 17.2538 8.00369 17.53V18.53C8.00369 18.8061 8.22733 19.03 8.50321 19.03H10.5013C10.7772 19.03 11.0008 18.8061 11.0008 18.53V17.53C11.0091 17.3923 10.9602 17.2572 10.8656 17.1569C10.771 17.0565 10.6392 16.9997 10.5013 17V17.03ZM8.50321 11.03H10.5013V11C10.6392 10.9997 10.771 11.0565 10.8656 11.1569C10.9602 11.2572 11.0091 11.3923 11.0008 11.53V12.53C11.0008 12.8061 10.7772 13.03 10.5013 13.03H8.50321C8.22733 13.03 8.00369 12.8061 8.00369 12.53V11.53C8.00369 11.2538 8.22733 11.03 8.50321 11.03ZM13.4985 7.02998H15.4966C15.7725 7.02998 15.9961 6.80612 15.9961 6.52998V5.52998C15.9961 5.25383 15.7725 5.02998 15.4966 5.02998H13.4985C13.2226 5.02998 12.999 5.25383 12.999 5.52998V6.52998C13.0148 6.79434 13.2339 7.00045 13.4985 6.99998V7.02998ZM15.4966 13.03H13.4985V13C13.2339 13.0005 13.0148 12.7943 12.999 12.53V11.53C12.999 11.2538 13.2226 11.03 13.4985 11.03H15.4966C15.7725 11.03 15.9961 11.2538 15.9961 11.53V12.53C15.9961 12.8061 15.7725 13.03 15.4966 13.03ZM18.3239 12.8C19.4632 12.3973 20.3593 11.5003 20.7616 10.36C20.7956 10.2906 20.7956 10.2094 20.7616 10.14C20.7134 10.0717 20.6353 10.0307 20.5518 10.03H18.9933C18.8384 10.0282 18.6926 10.1031 18.6036 10.23C18.4859 10.3779 18.3518 10.5121 18.204 10.63C18.0791 10.7128 18.0012 10.8502 17.9942 11V12.54C17.995 12.6236 18.0359 12.7017 18.1041 12.75C18.1703 12.7904 18.2515 12.7978 18.3239 12.77V12.8ZM18.9933 7.99998C18.8349 8.00508 18.6846 7.92987 18.5937 7.79998C18.4702 7.64742 18.3294 7.50982 18.1741 7.38998C18.0473 7.30092 17.9725 7.15501 17.9742 6.99998V5.43998C17.975 5.35636 18.0159 5.27821 18.0841 5.22998C18.1535 5.19598 18.2346 5.19598 18.3039 5.22998C19.4432 5.63263 20.3393 6.52961 20.7416 7.66998C20.7756 7.73937 20.7756 7.82058 20.7416 7.88998C20.6934 7.95828 20.6154 7.99921 20.5318 7.99998H18.9933ZM17.9942 15C16.7272 15.0035 15.5992 15.8042 15.1769 17H13.4985C13.2226 17 12.999 17.2238 12.999 17.5V18.5C12.999 18.7761 13.2226 19 13.4985 19H15.1769C15.6853 20.4394 17.1926 21.267 18.6786 20.9227C20.1646 20.5783 21.1552 19.1719 20.9799 17.6553C20.8047 16.1387 19.5195 14.9957 17.9942 15ZM16.9952 18C16.9952 18.5523 17.4425 19 17.9942 19C18.546 19 18.9933 18.5523 18.9933 18C18.9933 17.4477 18.546 17 17.9942 17C17.4425 17 16.9952 17.4477 16.9952 18Z" fill="currentColor" fill-rule="evenodd" clip-rule="evenodd" />
</svg>
