<svg xmlns="http://www.w3.org/2000/svg" viewBox="0 0 24 24">
    <path d="M22.9101 11.87C22.8424 11.8953 22.7678 11.8953 22.7001 11.87C21.2797 11.5927 19.9841 10.8713 19.0001 9.81V13H22.5001C22.7763 13 23.0001 13.2239 23.0001 13.5V14.5C23.0001 14.7761 22.7763 15 22.5001 15H19.0001V19H19.5001C19.7763 19 20.0001 19.2239 20.0001 19.5V20.5C20.0001 20.7761 19.7763 21 19.5001 21H16.5001C16.224 21 16.0001 20.7761 16.0001 20.5V19.5C16.0001 19.2239 16.224 19 16.5001 19H17.0001V15H7.00012V19H7.50012C7.77626 19 8.00012 19.2239 8.00012 19.5V20.5C8.00012 20.7761 7.77626 21 7.50012 21H4.50012C4.22398 21 4.00012 20.7761 4.00012 20.5V19.5C4.00012 19.2239 4.22398 19 4.50012 19H5.00012V15H1.50012C1.22398 15 1.00012 14.7761 1.00012 14.5V13.5C1.00012 13.2239 1.22398 13 1.50012 13H5.00012V9.81C4.00925 10.8529 2.71436 11.5564 1.30012 11.82C1.23241 11.8453 1.15784 11.8453 1.09012 11.82C1.03092 11.7708 0.997718 11.697 1.00012 11.62V10.54C1.00012 10.3178 1.14679 10.1222 1.36012 10.06C3.54532 9.41786 5.03412 7.39734 5.00012 5.12V3.5C5.00012 3.22386 5.22398 3 5.50012 3H6.50012C6.63273 3 6.75991 3.05268 6.85368 3.14645C6.94744 3.24021 7.00012 3.36739 7.00012 3.5V5.12C7.00012 7.88142 9.2387 10.12 12.0001 10.12C14.7615 10.12 17.0001 7.88142 17.0001 5.12V3.5C17.0001 3.22386 17.224 3 17.5001 3H18.5001C18.7763 3 19.0001 3.22386 19.0001 3.5V5.12C18.9661 7.39734 20.4549 9.41786 22.6401 10.06C22.8535 10.1222 23.0001 10.3178 23.0001 10.54V11.67C23.0025 11.747 22.9693 11.8208 22.9101 11.87ZM7.00012 9.83V13H17.0001V9.83C15.705 11.213 13.8949 11.9979 12.0001 11.9979C10.1054 11.9979 8.29524 11.213 7.00012 9.83Z" fill="currentColor" fill-rule="evenodd" clip-rule="evenodd" />
</svg>
