<svg xmlns="http://www.w3.org/2000/svg" viewBox="0 0 24 24">
    <path d="M21 8C21 7.44772 20.5523 7 20 7H17C17 4.23858 14.7614 2 12 2C9.23858 2 7 4.23858 7 7H4C3.44772 7 3 7.44772 3 8V20C3 21.1046 3.89543 22 5 22H19C20.1046 22 21 21.1046 21 20V8ZM12 4C13.6569 4 15 5.34315 15 7H9C9 5.34315 10.3431 4 12 4ZM5 9V20H19V9H17V10.5C17 10.7761 16.7761 11 16.5 11H15.5C15.2239 11 15 10.7761 15 10.5V9H9V10.5C9 10.7761 8.77614 11 8.5 11H7.5C7.22386 11 7 10.7761 7 10.5V9H5Z" fill="currentColor" fill-rule="evenodd" clip-rule="evenodd" />
</svg>
