<svg xmlns="http://www.w3.org/2000/svg" viewBox="0 0 24 24">
    <path d="M21.7415 10.45L21.5517 10.25C21.4078 10.0927 21.2052 10.0022 20.9922 9.99999H20.6025C19.2326 10.0008 17.8758 10.2657 16.606 10.78C16.5379 7.53227 15.1572 4.45092 12.7793 2.23999C12.6116 2.0829 12.3896 1.9969 12.1599 1.99999H11.8401C11.6104 1.9969 11.3884 2.0829 11.2207 2.23999C8.84281 4.45092 7.4621 7.53227 7.39402 10.78C6.12422 10.2657 4.76735 10.0008 3.39751 9.99999H3.00785C2.79978 10.0023 2.60154 10.0889 2.45833 10.24L2.26849 10.44C2.10341 10.579 2.0083 10.7841 2.00872 11C1.7761 16.7833 6.22576 21.6822 12 22C17.7742 21.6822 22.2239 16.7833 21.9913 11C21.9913 10.7892 21.9002 10.5886 21.7415 10.45ZM9.38228 11C9.3791 8.51312 10.314 6.11671 12 4.28999C13.686 6.11671 14.6209 8.51312 14.6177 11V11.88C14.0753 12.2393 13.5669 12.6477 13.099 13.1C12.6998 13.5115 12.3324 13.9528 12 14.42C11.6676 13.9528 11.3002 13.5115 10.901 13.1C10.4457 12.6496 9.95081 12.2413 9.42225 11.88C9.40227 11.59 9.38228 11.3 9.38228 11ZM12 20C14.0698 19.856 16.0179 18.9681 17.4852 17.5C18.9587 16.0308 19.8497 14.0767 19.993 12C17.9151 12.1348 15.9576 13.0237 14.4878 14.5C14.1638 14.8327 13.8664 15.1905 13.5986 15.57L12.8892 16.57C12.7027 16.8322 12.4015 16.9885 12.0799 16.99H11.8801C11.5585 16.9885 11.2573 16.8322 11.0708 16.57L10.3614 15.57C10.0936 15.1905 9.79628 14.8327 9.47221 14.5C8.01255 13.0325 6.07087 12.1443 4.00698 12C4.29281 16.2942 7.70954 19.7139 12 20Z" fill="currentColor" fill-rule="evenodd" clip-rule="evenodd" />
</svg>
