<svg xmlns="http://www.w3.org/2000/svg" viewBox="0 0 24 24">
    <path d="M7.60384 8.70999C9.23866 9.28461 10.7359 10.1939 12 11.38C13.2641 10.1939 14.7613 9.28461 16.3962 8.70999C15.8992 6.22672 14.6338 3.96306 12.7793 2.23999C12.6116 2.0829 12.3896 1.9969 12.1599 1.99999H11.8401C11.6104 1.9969 11.3884 2.0829 11.2207 2.23999C9.36622 3.96306 8.10079 6.22672 7.60384 8.70999ZM21.5517 10.25L21.7415 10.45C21.9002 10.5886 21.9913 10.7892 21.9913 11C22.2239 16.7833 17.7742 21.6822 12 22C6.22576 21.6822 1.7761 16.7833 2.00872 11C2.0083 10.7841 2.10341 10.579 2.26849 10.44L2.45833 10.24C2.60154 10.0889 2.79978 10.0023 3.00785 9.99999C5.95624 9.88318 8.81878 11.0074 10.901 13.1C11.3002 13.5115 11.6676 13.9528 12 14.42C12.3324 13.9528 12.6998 13.5115 13.099 13.1C15.1812 11.0074 18.0438 9.88318 20.9922 9.99999C21.2052 10.0022 21.4078 10.0927 21.5517 10.25Z" fill="currentColor" fill-rule="evenodd" clip-rule="evenodd" />
</svg>
