<svg xmlns="http://www.w3.org/2000/svg" viewBox="0 0 24 24">
    <path d="M21.0486 18H22.477C22.7529 18 22.9765 18.2239 22.9765 18.5V19.5C22.9765 19.7761 22.7529 20 22.477 20H1.49947C1.22362 20 1 19.7761 1 19.5V18.5C1 18.2239 1.22362 18 1.49947 18H2.39851L1.06993 12.86C1.02777 12.7073 1.04981 12.5441 1.13094 12.4081C1.21206 12.2721 1.34521 12.1752 1.49947 12.14C1.99384 12.0493 2.49526 12.0024 2.99786 12C3.64224 12.0061 4.28327 12.0935 4.90582 12.26L3.9968 8.86C3.95528 8.69701 3.98648 8.52401 4.08232 8.38585C4.17816 8.24769 4.3292 8.15798 4.49626 8.14C4.99064 8.04929 5.49205 8.00244 5.99466 8C7.02482 8.01466 8.04243 8.22858 8.99146 8.63L7.99253 4.86C7.951 4.69701 7.98221 4.52401 8.07805 4.38585C8.17389 4.24769 8.32493 4.15798 8.49199 4.14C8.98637 4.04929 9.48778 4.00244 9.99039 4C13.6236 3.99916 16.8002 6.45191 17.7221 9.97C17.7874 10.1998 17.8374 10.4336 17.872 10.67C18.8739 10.2315 19.9551 10.0034 21.0486 10C21.5512 10.0024 22.0526 10.0493 22.547 10.14C22.7028 10.1726 22.8378 10.2689 22.9195 10.4057C23.0011 10.5425 23.0218 10.7072 22.9765 10.86L21.0486 18ZM3.39744 14L4.49626 18H11.5287L9.76064 11.36C8.80324 10.5737 7.62863 10.0992 6.39423 10L7.91261 15.65C7.93093 15.7242 7.91437 15.8026 7.86765 15.8631C7.82093 15.9235 7.74918 15.9592 7.67287 15.96H6.31432C6.08582 15.9633 5.88424 15.8109 5.82484 15.59L5.55513 14.59C4.87985 14.258 4.14757 14.0577 3.39744 14ZM10.39 6C12.95 6.19615 15.108 7.98771 15.7742 10.47L15.8341 10.71C15.9715 11.3901 15.8692 12.0969 15.5445 12.71L13.3168 16.88L10.39 6ZM14.9851 18H18.9808L20.5491 12.02C19.8582 12.0699 19.1817 12.2426 18.5512 12.53C17.9783 12.8098 17.5094 13.2652 17.2127 13.83L14.9851 18Z" fill="currentColor" fill-rule="evenodd" clip-rule="evenodd" />
</svg>
