<svg xmlns="http://www.w3.org/2000/svg" viewBox="0 0 24 24">
    <path d="M18.911 17.3801L18.7714 17.6301C18.6351 17.8588 18.3892 17.9992 18.1234 18.0001H13.1389L13.4181 21.4601C13.4485 21.7175 13.2737 21.9542 13.0193 22.0001H11.0255C10.8868 22.0008 10.7544 21.9424 10.6612 21.8393C10.568 21.7363 10.5229 21.5984 10.537 21.4601L10.856 18.0001H5.87152C5.60578 17.9992 5.3599 17.8588 5.22353 17.6301L5.08397 17.3801C4.9444 17.1401 4.9444 16.8601 5.35313 16.1601L7.82545 12.0001H7.20737C6.94163 11.9992 6.69574 11.8588 6.55938 11.6301L6.41981 11.3801C6.28025 11.1401 6.28025 10.8601 6.68898 10.1601L11.2348 2.37006C11.3682 2.13825 11.616 1.99676 11.8828 2.00006H12.162C12.4252 2.00036 12.6684 2.14137 12.8 2.37006L17.4356 10.3701C17.7546 10.9101 17.7546 11.1901 17.615 11.4301L17.4755 11.6801C17.3391 11.9088 17.0932 12.0492 16.8275 12.0501H16.2094L18.7316 16.3701C19.0506 16.8601 19.0506 17.1401 18.911 17.3801Z" fill="currentColor" />
</svg>
