<svg xmlns="http://www.w3.org/2000/svg" viewBox="0 0 24 24">
    <path d="M13.5085 3.0009C13.2327 2.98389 13.008 3.20955 13.008 3.48592V10.4915C13.008 10.7679 13.2321 10.992 13.5085 10.992H20.5141C20.7904 10.992 21.0161 10.7673 20.9991 10.4915C20.751 6.46829 17.5317 3.24904 13.5085 3.0009ZM18.6714 8.99034H15.0097V5.32858C16.7155 5.93162 18.0684 7.28446 18.6714 8.99034Z" fill="currentColor" fill-rule="evenodd" clip-rule="evenodd" />
    <path d="M11.0064 21C15.2602 21 18.7391 17.6827 18.9975 13.4941C19.0145 13.2182 18.7888 12.9936 18.5125 12.9936H11.5068C11.2305 12.9936 11.0064 12.7695 11.0064 12.4932V5.48753C11.0064 5.21116 10.7818 4.9855 10.5059 5.00251C6.31726 5.26086 3 8.73982 3 12.9936C3 17.4154 6.5846 21 11.0064 21ZM9.00483 13.9944C9.00483 14.5471 9.4529 14.9952 10.0056 14.9952H16.6699C15.8457 17.327 13.6208 18.9984 11.0064 18.9984C7.69006 18.9984 5.00161 16.3099 5.00161 12.9936C5.00161 10.3792 6.67305 8.15426 9.00483 7.33011V13.9944Z" fill="currentColor" fill-rule="evenodd" clip-rule="evenodd" />
</svg>
