<svg xmlns="http://www.w3.org/2000/svg" viewBox="0 0 24 24">
    <path d="M6 10C6 6.686 8.687 4 12 4C14.979 4 17.445 6.174 17.913 9.021C20.757 9.233 23 11.602 23 14.5C23 17.538 20.537 20 17.5 20H6C3.238 20 1 17.761 1 15C1 12.239 3.238 10 6 10ZM15.939 9.346C15.621 7.407 13.964 6 12 6C9.794 6 8 7.794 8 10V11.5C8 11.776 7.776 12 7.5 12H6C4.15 12 2.686 13.683 3.059 15.598C3.335 17.022 4.668 18 6.119 18H17.5C19.638 18 21.334 16.074 20.944 13.866C20.664 12.279 19.262 11.127 17.654 11.007L16.588 10.928C16.357 10.911 16.169 10.738 16.132 10.51L15.939 9.346Z" fill="currentColor" fill-rule="evenodd" clip-rule="evenodd" />
</svg>
