<svg xmlns="http://www.w3.org/2000/svg" viewBox="0 0 24 24">
    <path d="M16.7489 15.2898L20.603 17.5398C20.8098 17.65 20.9532 17.8509 20.9905 18.0826C21.0277 18.3143 20.9545 18.5501 20.7927 18.7198L19.1053 20.4098C18.7301 20.7878 18.2197 21.0002 17.6875 20.9998H16.9786C15.3104 20.9927 13.6703 20.57 12.2059 19.7698L11.7566 19.5198C8.65209 17.8481 6.10693 15.299 4.4378 12.1898L4.18818 11.7398C3.40951 10.2815 3.00143 8.65353 3 6.99978V6.32978C2.99958 5.79674 3.21164 5.28558 3.5891 4.90978L5.27651 3.21978C5.44039 3.05438 5.67171 2.97466 5.90251 3.00404C6.13331 3.03342 6.33736 3.16858 6.45471 3.36978L8.70126 7.22978C8.92845 7.62267 8.86284 8.11954 8.54151 8.43978L6.6544 10.3298C6.49768 10.485 6.46116 10.7248 6.56454 10.9198L6.914 11.5798C8.16912 13.9082 10.0784 15.817 12.4056 17.0698L13.0646 17.4298C13.2592 17.5333 13.4987 17.4967 13.6537 17.3398L15.5408 15.4498C15.8605 15.128 16.3566 15.0623 16.7489 15.2898ZM14.742 7.99978L12.8948 9.85978C12.7983 9.95052 12.7435 10.0772 12.7435 10.2098C12.7435 10.3424 12.7983 10.469 12.8948 10.5598L13.424 11.0898C13.5146 11.1865 13.6411 11.2413 13.7735 11.2413C13.9059 11.2413 14.0324 11.1865 14.123 11.0898L15.9801 9.23978L17.8373 11.0898C17.9279 11.1865 18.0543 11.2413 18.1867 11.2413C18.3191 11.2413 18.4456 11.1865 18.5362 11.0898L19.0654 10.5598C19.1619 10.469 19.2167 10.3424 19.2167 10.2098C19.2167 10.0772 19.1619 9.95052 19.0654 9.85978L17.2182 7.99978L19.0654 6.13978C19.1619 6.04905 19.2167 5.92237 19.2167 5.78978C19.2167 5.6572 19.1619 5.53052 19.0654 5.43978L18.5362 4.90978C18.4456 4.8131 18.3191 4.75826 18.1867 4.75826C18.0543 4.75826 17.9279 4.8131 17.8373 4.90978L15.9801 6.75978L14.123 4.90978C14.0324 4.8131 13.9059 4.75826 13.7735 4.75826C13.6411 4.75826 13.5146 4.8131 13.424 4.90978L12.8948 5.43978C12.7983 5.53052 12.7435 5.6572 12.7435 5.78978C12.7435 5.92237 12.7983 6.04905 12.8948 6.13978L14.742 7.99978Z" fill="currentColor" fill-rule="evenodd" clip-rule="evenodd" />
</svg>
