<svg xmlns="http://www.w3.org/2000/svg" viewBox="0 0 24 24">
    <path d="M22.9999 12.3169V15.2298C22.9982 15.4606 22.8897 15.6778 22.706 15.8182C22.5222 15.9586 22.2838 16.0065 22.0599 15.948L17.7399 14.8208C17.2907 14.7004 16.984 14.2869 16.9999 13.8232V10.6709C17.0034 10.4481 16.8553 10.2512 16.6399 10.1921L15.9299 9.99258C13.3651 9.23425 10.6348 9.23425 8.06992 9.99258L7.35992 10.212C7.14453 10.2711 6.99648 10.4681 6.99992 10.6909V13.8631C7.01584 14.3268 6.70913 14.7403 6.25992 14.8607L1.93992 15.9779C1.71086 16.0379 1.46687 15.9864 1.28175 15.8391C1.09664 15.6918 0.992157 15.4659 0.999915 15.2298V12.3269C0.999493 11.7951 1.21188 11.2852 1.58992 10.9103L2.08992 10.4116C3.25918 9.24624 4.69826 8.38627 6.27992 7.90768L6.77992 7.75805C10.19 6.75057 13.8198 6.75057 17.2299 7.75805L17.7199 7.90768C19.3016 8.38627 20.7406 9.24624 21.9099 10.4116L22.4099 10.9103C22.7855 11.2828 22.9977 11.7886 22.9999 12.3169Z" fill="currentColor" />
</svg>
