<svg xmlns="http://www.w3.org/2000/svg" viewBox="0 0 24 24">
    <path d="M16.7489 15.2898L20.603 17.5398C20.8098 17.65 20.9532 17.8509 20.9905 18.0826C21.0277 18.3143 20.9545 18.5501 20.7927 18.7198L19.1053 20.4098C18.7301 20.7878 18.2197 21.0002 17.6875 20.9998H16.9786C15.3104 20.9927 13.6703 20.57 12.2059 19.7698L11.7566 19.5198C8.65209 17.8481 6.10693 15.299 4.4378 12.1898L4.18818 11.7398C3.40951 10.2815 3.00144 8.65353 3 6.99978V6.32978C2.99958 5.79674 3.21164 5.28558 3.5891 4.90978L5.27651 3.21978C5.44039 3.05438 5.67171 2.97466 5.90251 3.00404C6.13331 3.03342 6.33736 3.16858 6.45471 3.36978L8.70126 7.22978C8.92845 7.62267 8.86284 8.11954 8.54151 8.43978L6.6544 10.3298C6.49768 10.485 6.46116 10.7248 6.56454 10.9198L6.914 11.5798C8.16912 13.9082 10.0784 15.817 12.4056 17.0698L13.0646 17.4298C13.2592 17.5333 13.4987 17.4967 13.6537 17.3398L15.5408 15.4498C15.8605 15.128 16.3566 15.0623 16.7489 15.2898ZM16.8166 3.19971C18.0354 3.19971 19.0235 4.17655 19.0235 5.38154L19.0771 5.80579C19.0707 6.74974 18.453 7.58331 17.5446 7.87399L16.8166 8.10884C16.7674 8.11246 16.7283 8.15112 16.7247 8.19975V8.79067C16.7247 8.99987 16.5531 9.16946 16.3415 9.16946H15.7591C15.5475 9.16946 15.376 8.99987 15.376 8.79067V8.19975C15.3777 7.58679 15.7758 7.04362 16.3645 6.85125L17.0925 6.6164C17.4417 6.49676 17.6756 6.17118 17.6749 5.80579V5.38154C17.6749 4.91294 17.2906 4.53305 16.8166 4.53305H15.284C15.0564 4.53305 14.8381 4.62245 14.6772 4.78157C14.5162 4.94069 14.4258 5.15651 14.4258 5.38154V5.76034C14.4258 5.96954 14.2543 6.13913 14.0427 6.13913H13.4603C13.2487 6.13913 13.0771 5.96954 13.0771 5.76034V5.38154C13.0771 4.17655 14.0652 3.19971 15.284 3.19971H16.8166ZM15.6673 10.6845H16.4336C16.6452 10.6845 16.8167 10.8541 16.8167 11.0633V11.8209C16.8167 12.0301 16.6452 12.1997 16.4336 12.1997H15.6673C15.4557 12.1997 15.2842 12.0301 15.2842 11.8209V11.0633C15.2842 10.8541 15.4557 10.6845 15.6673 10.6845Z" fill="currentColor" fill-rule="evenodd" clip-rule="evenodd" />
</svg>
