<svg xmlns="http://www.w3.org/2000/svg" viewBox="0 0 24 24">
    <path d="M12.0967 2.20261L9.09421 5.18262H9.13424C8.95146 5.38043 8.95585 5.6854 9.14425 5.87795L12.1468 8.85796C12.2897 8.99709 12.5025 9.03824 12.6876 8.96258C12.8728 8.88691 12.9947 8.709 12.9975 8.51029V6.52362H15.4996C15.776 6.52362 16 6.30126 16 6.02695V5.03362C16 4.75931 15.776 4.53695 15.4996 4.53695H12.9975V2.55028C13.0219 2.32698 12.8923 2.11522 12.6814 2.03381C12.4704 1.9524 12.2307 2.02161 12.0967 2.20261ZM16 21.9998C14.3463 21.9983 12.7183 21.5896 11.26 20.8098L10.81 20.5598C7.70075 18.8881 5.15169 16.339 3.48 13.2298L3.23 12.7798C2.42982 11.3132 2.00713 9.67048 2 7.99978V7.32978C1.99958 6.79674 2.21196 6.28558 2.59 5.90978L4.28 4.21978C4.44413 4.05438 4.67581 3.97466 4.90696 4.00404C5.13811 4.03342 5.34248 4.16858 5.46 4.36978L7.71 8.22978C7.93753 8.62267 7.87183 9.11954 7.55 9.43978L5.66 11.3298C5.50305 11.485 5.46647 11.7248 5.57 11.9198L5.92 12.5798C7.17704 14.9082 9.08926 16.817 11.42 18.0698L12.08 18.4298C12.275 18.5333 12.5148 18.4967 12.67 18.3398L14.56 16.4498C14.8802 16.128 15.3771 16.0623 15.77 16.2898L19.63 18.5398C19.8312 18.6573 19.9664 18.8617 19.9957 19.0928C20.0251 19.324 19.9454 19.5557 19.78 19.7198L18.09 21.4098C17.7142 21.7878 17.203 22.0002 16.67 21.9998H16ZM21.9058 11.1826L18.9033 8.20261C18.7693 8.02161 18.5296 7.9524 18.3186 8.03381C18.1077 8.11522 17.9781 8.32698 18.0025 8.55028V10.5369H15.5004C15.224 10.5369 15 10.7593 15 11.0336V12.027C15 12.3013 15.224 12.5236 15.5004 12.5236H18.0025V14.5103C18.0053 14.709 18.1272 14.8869 18.3124 14.9626C18.4975 15.0382 18.7103 14.9971 18.8532 14.858L21.8558 11.878C22.0441 11.6854 22.0485 11.3804 21.8658 11.1826H21.9058Z" fill="currentColor" fill-rule="evenodd" clip-rule="evenodd" />
</svg>
