<svg xmlns="http://www.w3.org/2000/svg" viewBox="0 0 24 24">
    <path d="M20 3H4C2.89543 3 2 3.89543 2 5V17C2 18.1046 2.89543 19 4 19H9.09C9.35234 19.0011 9.60374 19.1053 9.79 19.29L11.28 20.78C11.4205 20.9207 11.6112 20.9998 11.81 21H12.19C12.3888 20.9998 12.5795 20.9207 12.72 20.78L14.21 19.29C14.3963 19.1053 14.6477 19.0011 14.91 19H20C21.1046 19 22 18.1046 22 17V5C22 3.89543 21.1046 3 20 3ZM20 15.83C20.0028 15.9634 19.951 16.0922 19.8566 16.1866C19.7622 16.281 19.6334 16.3328 19.5 16.33C19.3419 16.3333 19.1922 16.2585 19.1 16.13L14.65 10.2C14.5533 10.0777 14.4059 10.0064 14.25 10.0064C14.0941 10.0064 13.9467 10.0777 13.85 10.2L11 13.91C10.9046 14.0347 10.757 14.1085 10.6 14.11C10.4527 14.1102 10.3132 14.0441 10.22 13.93L8.74 12.18C8.64371 12.0644 8.50046 11.9983 8.35 12C8.19853 12.0035 8.05611 12.0729 7.96 12.19L4.89 16.13C4.79767 16.2518 4.65284 16.3224 4.5 16.32C4.36657 16.3228 4.23778 16.271 4.14341 16.1766C4.04904 16.0822 3.99725 15.9534 4 15.82V5H20V15.83ZM11 8.5C11 9.32843 10.3284 10 9.5 10C8.67157 10 8 9.32843 8 8.5C8 7.67157 8.67157 7 9.5 7C10.3284 7 11 7.67157 11 8.5Z" fill="currentColor" fill-rule="evenodd" clip-rule="evenodd" />
</svg>
