<svg xmlns="http://www.w3.org/2000/svg" viewBox="0 0 24 24">
    <path d="M18 2H6C3.79086 2 2 3.79086 2 6V21.5C2 21.7761 2.22386 22 2.5 22C2.63212 21.9992 2.75833 21.9451 2.85 21.85L5.85 18.85C6.42433 18.2908 7.19856 17.9847 8 18H18C20.2091 18 22 16.2091 22 14V6C22 3.79086 20.2091 2 18 2ZM14 12.5C14 12.7761 13.7761 13 13.5 13H6.5C6.22386 13 6 12.7761 6 12.5V11.5C6 11.2239 6.22386 11 6.5 11H13.5C13.7761 11 14 11.2239 14 11.5V12.5ZM17.5 9C17.7761 9 18 8.77614 18 8.5V7.5C18 7.22386 17.7761 7 17.5 7H6.5C6.22386 7 6 7.22386 6 7.5V8.5C6 8.77614 6.22386 9 6.5 9H17.5Z" fill="currentColor" fill-rule="evenodd" clip-rule="evenodd" />
</svg>
