<svg xmlns="http://www.w3.org/2000/svg" viewBox="0 0 24 24">
    <path d="M20 3H4C2.89543 3 2 3.89543 2 5V17C2 18.1046 2.89543 19 4 19H9.09C9.35234 19.0011 9.60374 19.1053 9.79 19.29L11.28 20.78C11.4205 20.9207 11.6112 20.9998 11.81 21H12.19C12.3888 20.9998 12.5795 20.9207 12.72 20.78L14.21 19.29C14.3963 19.1053 14.6477 19.0011 14.91 19H20C21.1046 19 22 18.1046 22 17V5C22 3.89543 21.1046 3 20 3ZM9.5 6C10.3284 6 11 6.67157 11 7.5C11 8.32843 10.3284 9 9.5 9C8.67157 9 8 8.32843 8 7.5C8 6.67157 8.67157 6 9.5 6ZM18.5 16C18.7761 16 19 15.7761 19 15.5V15.16C18.9993 15.0519 18.9643 14.9469 18.9 14.86L14.65 9.19C14.5533 9.06771 14.4059 8.99639 14.25 8.99639C14.0941 8.99639 13.9467 9.06771 13.85 9.19L10.97 12.91C10.8746 13.0347 10.727 13.1085 10.57 13.11C10.4227 13.1102 10.2832 13.0441 10.19 12.93L8.74 11.18C8.64371 11.0644 8.50046 10.9983 8.35 11C8.21274 11.0144 8.08683 11.0827 8 11.19L5.11 14.86C5.03866 14.9436 4.99964 15.0501 5 15.16V15.5C5 15.7761 5.22386 16 5.5 16H18.5Z" fill="currentColor" fill-rule="evenodd" clip-rule="evenodd" />
</svg>
