<svg xmlns="http://www.w3.org/2000/svg" viewBox="0 0 24 24">
    <path d="M22 5C22 3.89543 21.1046 3 20 3H4C2.89543 3 2 3.89543 2 5V17C2 18.1046 2.89543 19 4 19H9.09C9.35234 19.0011 9.60374 19.1053 9.79 19.29L11.28 20.78C11.4205 20.9207 11.6112 20.9998 11.81 21H12.19C12.3888 20.9998 12.5795 20.9207 12.72 20.78L14.21 19.29C14.3963 19.1053 14.6477 19.0011 14.91 19H20C21.1046 19 22 18.1046 22 17V5ZM20 17H14.91C14.1146 17.0007 13.3521 17.3172 12.79 17.88L12 18.67L11.21 17.88C10.6479 17.3172 9.88538 17.0007 9.09 17H4V5H20V17ZM10.3988 14.2613C10.1539 14.1315 10.0005 13.8772 10 13.6V8.4C10.0005 8.12279 10.1539 7.86846 10.3988 7.73867C10.6438 7.60887 10.9403 7.62476 11.17 7.78L15.06 10.38C15.2696 10.5166 15.396 10.7498 15.396 11C15.396 11.2502 15.2696 11.4834 15.06 11.62L11.17 14.22C10.9403 14.3752 10.6438 14.3911 10.3988 14.2613Z" fill="currentColor" fill-rule="evenodd" clip-rule="evenodd" />
</svg>
