<svg xmlns="http://www.w3.org/2000/svg" viewBox="0 0 24 24">
    <path d="M5 6V11H3.5C3.22386 11 3 11.2239 3 11.5V12.5C3 12.7761 3.22386 13 3.5 13H5V18H3.5C3.22386 18 3 18.2239 3 18.5V19.5C3 19.7761 3.22386 20 3.5 20H5C5 21.1046 5.89543 22 7 22H19C20.1046 22 21 21.1046 21 20V4C21 2.89543 20.1046 2 19 2H7C5.89543 2 5 2.89543 5 4H3.5C3.22386 4 3 4.22386 3 4.5V5.5C3 5.77614 3.22386 6 3.5 6H5ZM14 13C14 14.1046 13.1046 15 12 15C10.8954 15 10 14.1046 10 13C10 11.8954 10.8954 11 12 11C13.1046 11 14 11.8954 14 13ZM8.78 16.83L8.05 18.28C7.9687 18.4434 7.98287 18.6381 8.08696 18.7879C8.19104 18.9378 8.36852 19.0191 8.55 19H15.55C15.7228 19.0003 15.8834 18.9115 15.975 18.765C16.0666 18.6185 16.076 18.4351 16 18.28L15.22 16.83C14.9664 16.322 14.4477 16.0008 13.88 16H10.12C9.55225 16.0008 9.03359 16.322 8.78 16.83Z" fill="currentColor" fill-rule="evenodd" clip-rule="evenodd" />
</svg>
