<svg xmlns="http://www.w3.org/2000/svg" viewBox="0 0 24 24">
    <path d="M4 2H16C17.1046 2 18 2.89543 18 4V20C18 21.1046 17.1046 22 16 22H4C2.89543 22 2 21.1046 2 20V4C2 2.89543 2.89543 2 4 2ZM12.25 9C12.25 7.75736 11.2426 6.75 10 6.75C9.40245 6.74733 8.8286 6.98352 8.40606 7.40606C7.98352 7.8286 7.74733 8.40245 7.75 9C7.75 10.2426 8.75736 11.25 10 11.25C11.2426 11.25 12.25 10.2426 12.25 9ZM5.75 17C5.48889 17.0005 5.2463 16.8652 5.10956 16.6427C4.97282 16.4203 4.96163 16.1427 5.08 15.91L6 14.1C6.33727 13.4306 7.02049 13.006 7.77 13H12.38C13.0897 13.0152 13.7241 13.446 14 14.1L14.9 15.91C15.0169 16.1396 15.0077 16.4131 14.8758 16.6344C14.7438 16.8556 14.5075 16.9937 14.25 17H5.75ZM20 4H21C21.5523 4 22 4.44772 22 5V19C22 19.5523 21.5523 20 21 20H20V4Z" fill="currentColor" fill-rule="evenodd" clip-rule="evenodd" />
</svg>
