<svg xmlns="http://www.w3.org/2000/svg" viewBox="0 0 24 24">
    <path d="M13.65 2.52L21.15 7.77C21.6839 8.14525 22.0012 8.7574 22 9.41V20C22 21.1046 21.1046 22 20 22H4C2.89543 22 2 21.1046 2 20V9.41C1.9988 8.7574 2.31607 8.14525 2.85 7.77L10.35 2.52C11.341 1.82732 12.6591 1.82732 13.65 2.52ZM12 14.81C12.1777 14.8099 12.3516 14.7578 12.5 14.66L20 9.41L12.5 4.16C12.2009 3.94629 11.7991 3.94629 11.5 4.16L4 9.41L11.5 14.65C11.6456 14.7548 11.8206 14.8108 12 14.81Z" fill="currentColor" fill-rule="evenodd" clip-rule="evenodd" />
</svg>
