<svg xmlns="http://www.w3.org/2000/svg" viewBox="0 0 24 24">
    <path d="M3 4H19C20.1046 4 21 4.89543 21 6V13.416C22.7659 14.1876 24 15.9497 24 18C24 20.7614 21.7614 23 19 23C16.9497 23 15.1876 21.7659 14.416 20H3C1.89543 20 1 19.1046 1 18V6C1 4.89543 1.89543 4 3 4ZM19 11V13C16.2386 13 14 15.2386 14 18H3V11L9.35 15.44C10.341 16.1327 11.659 16.1327 12.65 15.44L19 11ZM19 8.9V6H3V8.9L10.35 14.05C10.7409 14.3213 11.2591 14.3213 11.65 14.05L19 8.9ZM16.7002 17.7359C16.7002 17.6859 16.7185 17.638 16.7509 17.6028L19.0801 15.0568C19.1113 15.0206 19.1547 15 19.2002 15C19.2457 15 19.2891 15.0206 19.3203 15.0568L21.6495 17.6028C21.6819 17.638 21.7002 17.6859 21.7002 17.7359C21.7002 17.7859 21.6819 17.8338 21.6495 17.869L21.5809 17.944C21.5486 17.9807 21.5039 18.001 21.4574 18.0003H20.2293V20.8125C20.2293 20.9161 20.1525 21 20.0578 21H18.3426C18.2479 21 18.1711 20.9161 18.1711 20.8125V18.0003H16.943C16.8965 18.001 16.8518 17.9807 16.8195 17.944L16.7509 17.869C16.7185 17.8338 16.7002 17.7859 16.7002 17.7359Z" fill="currentColor" fill-rule="evenodd" clip-rule="evenodd" />
</svg>
