<svg xmlns="http://www.w3.org/2000/svg" viewBox="0 0 24 24">
    <path d="M21 5C21 3.89543 20.1046 3 19 3H5C3.89543 3 3 3.89543 3 5V11C3 12.1046 3.89543 13 5 13H19C20.1046 13 21 12.1046 21 11V5ZM19 5V7H16.24C15.6059 7.00178 15.0414 7.40214 14.83 8C14.4075 9.20094 13.2731 10.0045 12 10.0045C10.7269 10.0045 9.59247 9.20094 9.17 8C8.95863 7.40214 8.39413 7.00178 7.76 7H5V5H19ZM14.83 16C15.0414 15.4021 15.6059 15.0018 16.24 15H21V19C21 20.1046 20.1046 21 19 21H5C3.89543 21 3 20.1046 3 19V15H7.76C8.39413 15.0018 8.95863 15.4021 9.17 16C9.59247 17.2009 10.7269 18.0045 12 18.0045C13.2731 18.0045 14.4075 17.2009 14.83 16Z" fill="currentColor" fill-rule="evenodd" clip-rule="evenodd" />
</svg>
