<svg xmlns="http://www.w3.org/2000/svg" viewBox="0 0 24 24">
    <path d="M19.9999 5V13.5C19.9999 13.7761 19.776 14 19.4999 14H18.4999C18.2237 14 17.9999 13.7761 17.9999 13.5V7.42L5.55985 19.85C5.46597 19.9447 5.33817 19.9979 5.20485 19.9979C5.07153 19.9979 4.94374 19.9447 4.84985 19.85L4.14985 19.15C4.0552 19.0561 4.00195 18.9283 4.00195 18.795C4.00195 18.6617 4.0552 18.5339 4.14985 18.44L16.5899 6H10.4999C10.2237 6 9.99985 5.77614 9.99985 5.5V4.5C9.99985 4.22386 10.2237 4 10.4999 4H18.9999C19.1987 4.00018 19.3893 4.07931 19.5299 4.22L19.7999 4.49C19.9284 4.6287 19.9999 4.81086 19.9999 5Z" fill="currentColor" />
</svg>
