<svg xmlns="http://www.w3.org/2000/svg" viewBox="0 0 24 24">
    <path d="M6 2H18C20.2091 2 22 3.79086 22 6V14C22 16.2091 20.2091 18 18 18H8C7.19856 17.9847 6.42433 18.2908 5.85 18.85L2.85 21.85C2.75833 21.9451 2.63212 21.9992 2.5 22C2.22386 22 2 21.7761 2 21.5V6C2 3.79086 3.79086 2 6 2ZM20 6C20 4.89543 19.1046 4 18 4H6C4.89543 4 4 4.89543 4 6V17.88L4.46 17.46C5.39951 16.5229 6.67301 15.9976 8 16H18C19.1046 16 20 15.1046 20 14V6Z" fill="currentColor" fill-rule="evenodd" clip-rule="evenodd" />
</svg>
