<svg xmlns="http://www.w3.org/2000/svg" viewBox="0 0 24 24">
    <path d="M15.06 10.62L11.17 13.22C10.9403 13.3752 10.6438 13.3911 10.3988 13.2613C10.1539 13.1315 10.0005 12.8772 10 12.6V7.4C10.0005 7.12279 10.1539 6.86846 10.3988 6.73867C10.6438 6.60887 10.9403 6.62476 11.17 6.78L15.06 9.38C15.2696 9.51658 15.396 9.74982 15.396 10C15.396 10.2502 15.2696 10.4834 15.06 10.62Z" fill="currentColor" />
    <path d="M18 2H6C3.79086 2 2 3.79086 2 6V21.5C2 21.7761 2.22386 22 2.5 22C2.63212 21.9992 2.75833 21.9451 2.85 21.85L5.85 18.85C6.42433 18.2908 7.19856 17.9847 8 18H18C20.2091 18 22 16.2091 22 14V6C22 3.79086 20.2091 2 18 2ZM18 16H8C6.67301 15.9976 5.39951 16.5229 4.46 17.46L4 17.88V6C4 4.89543 4.89543 4 6 4H18C19.1046 4 20 4.89543 20 6V14C20 15.1046 19.1046 16 18 16Z" fill="currentColor" fill-rule="evenodd" clip-rule="evenodd" />
</svg>
