<svg xmlns="http://www.w3.org/2000/svg" viewBox="0 0 24 24">
    <path d="M22 6C22 3.79086 20.2091 2 18 2H6C3.79086 2 2 3.79086 2 6V21.5C2 21.7761 2.22386 22 2.5 22C2.63212 21.9992 2.75833 21.9451 2.85 21.85L5.85 18.85C6.42433 18.2908 7.19856 17.9847 8 18H18C20.2091 18 22 16.2091 22 14V6ZM18 16H8C6.67301 15.9976 5.39951 16.5229 4.46 17.46L4 17.88V6C4 4.89543 4.89543 4 6 4H18C19.1046 4 20 4.89543 20 6V14C20 15.1046 19.1046 16 18 16ZM12.7395 5.61401C13.9583 5.61401 14.9464 6.59086 14.9464 7.79585L15 8.2201C14.9935 9.16404 14.3758 9.99762 13.4674 10.2883L12.7395 10.5231C12.6903 10.5268 12.6512 10.5654 12.6475 10.6141V11.205C12.6475 11.4142 12.476 11.5838 12.2644 11.5838H11.682C11.4704 11.5838 11.2989 11.4142 11.2989 11.205V10.6141C11.3005 10.0011 11.6987 9.45793 12.2874 9.26556L13.0153 9.03071C13.3645 8.91107 13.5985 8.58549 13.5977 8.2201V7.79585C13.5977 7.32724 13.2135 6.94736 12.7395 6.94736H11.2069C10.9793 6.94736 10.761 7.03675 10.6 7.19588C10.4391 7.355 10.3487 7.57082 10.3487 7.79585V8.17464C10.3487 8.38384 10.1771 8.55343 9.96552 8.55343H9.38314C9.17154 8.55343 9 8.38384 9 8.17464V7.79585C9 6.59086 9.98806 5.61401 11.2069 5.61401H12.7395ZM11.5902 13.0988H12.3565C12.5681 13.0988 12.7396 13.2684 12.7396 13.4776V14.2352C12.7396 14.4444 12.5681 14.614 12.3565 14.614H11.5902C11.3786 14.614 11.207 14.4444 11.207 14.2352V13.4776C11.207 13.2684 11.3786 13.0988 11.5902 13.0988Z" fill="currentColor" fill-rule="evenodd" clip-rule="evenodd" />
</svg>
