<svg xmlns="http://www.w3.org/2000/svg" viewBox="0 0 24 24">
    <path d="M18 2C20.2091 2 22 3.79086 22 6V14C22 16.2091 20.2091 18 18 18H8C7.19856 17.9847 6.42433 18.2908 5.85 18.85L2.85 21.85C2.75833 21.9451 2.63212 21.9992 2.5 22C2.22386 22 2 21.7761 2 21.5V6C2 3.79086 3.79086 2 6 2H18ZM18.5 14C18.7761 14 19 13.7761 19 13.5V6.5C19 6.22386 18.7761 6 18.5 6H18.41C18.1477 6.0011 17.8963 6.10526 17.71 6.29L15 9V6.5C15 5.67157 14.3284 5 13.5 5H6.5C5.67157 5 5 5.67157 5 6.5V13.5C5 14.3284 5.67157 15 6.5 15H13.5C14.3284 15 15 14.3284 15 13.5V11L17.71 13.71C17.8963 13.8947 18.1477 13.9989 18.41 14H18.5Z" fill="currentColor" fill-rule="evenodd" clip-rule="evenodd" />
</svg>
