<svg xmlns="http://www.w3.org/2000/svg" viewBox="0 0 24 24">
    <path d="M19 15V5C19 3.89543 18.1046 3 17 3H3C1.89543 3 1 3.89543 1 5V15C1 16.1046 1.89543 17 3 17H17C18.1046 17 19 16.1046 19 15ZM10 13C9.4092 13.0031 8.83224 12.8213 8.35 12.48L3 8.73V6.6L9.35 11.05C9.74087 11.3213 10.2591 11.3213 10.65 11.05L17 6.6V8.73L11.65 12.48C11.1678 12.8213 10.5908 13.0031 10 13ZM21 17V7C22.1046 7 23 7.89543 23 9V17C23 19.2091 21.2091 21 19 21H7C5.89543 21 5 20.1046 5 19H19C20.1046 19 21 18.1046 21 17Z" fill="currentColor" fill-rule="evenodd" clip-rule="evenodd" />
</svg>
