<svg xmlns="http://www.w3.org/2000/svg" viewBox="0 0 24 24">
    <path d="M6 2H18C20.2091 2 22 3.79086 22 6V14C22 16.2091 20.2091 18 18 18H8C7.19856 17.9847 6.42433 18.2908 5.85 18.85L2.85 21.85C2.75833 21.9451 2.63212 21.9992 2.5 22C2.22386 22 2 21.7761 2 21.5V6C2 3.79086 3.79086 2 6 2ZM15.5 11C15.7761 11 16 10.7761 16 10.5V9.5C16 9.22386 15.7761 9 15.5 9H13V6.5C13 6.22386 12.7761 6 12.5 6H11.5C11.2239 6 11 6.22386 11 6.5V9H8.5C8.22386 9 8 9.22386 8 9.5V10.5C8 10.7761 8.22386 11 8.5 11H11V13.5C11 13.7761 11.2239 14 11.5 14H12.5C12.7761 14 13 13.7761 13 13.5V11H15.5Z" fill="currentColor" fill-rule="evenodd" clip-rule="evenodd" />
</svg>
