<svg xmlns="http://www.w3.org/2000/svg" viewBox="0 0 24 24">
    <path d="M20.9999 8V14.5C20.9999 14.7761 20.776 15 20.4999 15H19.4999C19.2237 15 18.9999 14.7761 18.9999 14.5V10.42L12.6299 16.78C12.4893 16.9207 12.2987 16.9998 12.0999 17H11.8999C11.701 16.9998 11.5104 16.9207 11.3699 16.78L3.14985 8.56C3.0552 8.46612 3.00195 8.33832 3.00195 8.205C3.00195 8.07168 3.0552 7.94388 3.14985 7.85L3.84985 7.15C3.94374 7.05534 4.07153 7.0021 4.20485 7.0021C4.33817 7.0021 4.46597 7.05534 4.55985 7.15L11.9999 14.59L17.5899 9H13.4999C13.2237 9 12.9999 8.77614 12.9999 8.5V7.5C12.9999 7.22386 13.2237 7 13.4999 7H19.9999C20.1987 7.00018 20.3893 7.07931 20.5299 7.22L20.7999 7.49C20.9284 7.6287 20.9999 7.81086 20.9999 8Z" fill="currentColor" />
</svg>
