<svg xmlns="http://www.w3.org/2000/svg" viewBox="0 0 24 24">
    <path d="M18 2H6C3.79086 2 2 3.79086 2 6V21.5C2 21.7761 2.22386 22 2.5 22C2.63212 21.9992 2.75833 21.9451 2.85 21.85L5.85 18.85C6.42433 18.2908 7.19856 17.9847 8 18H18C20.2091 18 22 16.2091 22 14V6C22 3.79086 20.2091 2 18 2ZM9.5 5C10.3284 5 11 5.67157 11 6.5C11 7.32843 10.3284 8 9.5 8C8.67157 8 8 7.32843 8 6.5C8 5.67157 8.67157 5 9.5 5ZM18.5 15C18.7761 15 19 14.7761 19 14.5V14.16C18.9993 14.0519 18.9643 13.9469 18.9 13.86L14.65 8.19C14.5533 8.06771 14.4059 7.99639 14.25 7.99639C14.0941 7.99639 13.9467 8.06771 13.85 8.19L10.97 11.91C10.8746 12.0347 10.727 12.1085 10.57 12.11C10.4227 12.1102 10.2832 12.0441 10.19 11.93L8.74 10.18C8.64371 10.0644 8.50046 9.99826 8.35 10C8.21274 10.0144 8.08683 10.0827 8 10.19L5.11 13.86C5.03866 13.9436 4.99964 14.0501 5 14.16V14.5C5 14.7761 5.22386 15 5.5 15H18.5Z" fill="currentColor" fill-rule="evenodd" clip-rule="evenodd" />
</svg>
