<svg xmlns="http://www.w3.org/2000/svg" viewBox="0 0 24 24">
    <path d="M4 18.9999V10.4999C4 10.2237 4.22386 9.99985 4.5 9.99985H5.5C5.77614 9.99985 6 10.2237 6 10.4999V16.5799L18.44 4.14985C18.5339 4.0552 18.6617 4.00195 18.795 4.00195C18.9283 4.00195 19.0561 4.0552 19.15 4.14985L19.85 4.84985C19.9447 4.94374 19.9979 5.07153 19.9979 5.20485C19.9979 5.33817 19.9447 5.46597 19.85 5.55985L7.41 17.9999H13.5C13.7761 17.9999 14 18.2237 14 18.4999V19.4999C14 19.776 13.7761 19.9999 13.5 19.9999H5C4.80115 19.9997 4.61052 19.9205 4.47 19.7799L4.2 19.5099C4.07141 19.3712 3.99998 19.189 4 18.9999Z" fill="currentColor" />
</svg>
