<svg xmlns="http://www.w3.org/2000/svg" viewBox="0 0 24 24">
    <path d="M22 18H23.5C23.8 18 24 18.2 24 18.5V19C24 19.6 23.6 20 23 20H1C0.4 20 0 19.6 0 19V18.5C0 18.2 0.2 18 0.5 18H2V5C2 4.4 2.4 4 3 4H21C21.6 4 22 4.4 22 5V18ZM14.1 15.2L17.9 11.4C18 11.1 18 10.8 17.8 10.6L14 6.8C13.8 6.6 13.5 6.6 13.3 6.8L13.1 7C13.1 7.05 13.075 7.125 13.05 7.2C13.025 7.275 13 7.35 13 7.4V9C9.3 9.1 6.2 12 6 15.7C6 15.8 6 15.9 6.1 15.9C6.1 16 6.2 16 6.3 16H6.5C6.6 16 6.8 15.9 6.8 15.7C7.1 14.1 10.1 12.8 13.1 12.8V14.6C13 14.8 13.1 14.9 13.2 15L13.4 15.2C13.6 15.4 13.9 15.4 14.1 15.2Z" fill="currentColor" fill-rule="evenodd" clip-rule="evenodd" />
</svg>
