<svg xmlns="http://www.w3.org/2000/svg" viewBox="0 0 24 24">
    <path d="M6.99692 19C4.78642 19 2.99445 17.2092 2.99445 15C2.99445 12.7909 4.78642 11 6.99692 11H17.0031C18.1083 11 19.0043 10.1046 19.0043 9.00002C19.0043 7.89545 18.1083 7.00002 17.0031 7.00002H5.9963V9.00002C5.99349 9.20006 5.87164 9.37917 5.68653 9.45534C5.50143 9.53151 5.28871 9.49008 5.14578 9.35002L2.14393 6.35002C1.95202 6.15221 1.95202 5.83783 2.14393 5.64002L5.14578 2.64002C5.29002 2.49872 5.50513 2.45795 5.69112 2.53667C5.87711 2.6154 5.99749 2.79817 5.9963 3.00002V5.00002H17.0031C19.2136 5.00002 21.0056 6.79088 21.0056 9.00002C21.0056 11.2092 19.2136 13 17.0031 13H6.99692C5.89167 13 4.99568 13.8955 4.99568 15C4.99568 16.1046 5.89167 17 6.99692 17H18.0037V15C18.0025 14.7982 18.1229 14.6154 18.3089 14.5367C18.4949 14.458 18.71 14.4987 18.8542 14.64L21.8561 17.64C22.048 17.8378 22.048 18.1522 21.8561 18.35L18.8542 21.35C18.7113 21.4901 18.4986 21.5315 18.3135 21.4553C18.1284 21.3792 18.0065 21.2001 18.0037 21V19H6.99692Z" fill="currentColor" />
</svg>
