<svg xmlns="http://www.w3.org/2000/svg" viewBox="0 0 24 24">
    <path d="M4.99299 6.99692C4.99299 4.78642 6.78385 2.99445 8.99299 2.99445C11.2021 2.99445 12.993 4.78642 12.993 6.99692V17.0031C12.993 18.1083 13.8884 19.0043 14.993 19.0043C16.0976 19.0043 16.993 18.1083 16.993 17.0031V5.9963H14.993C14.793 5.99349 14.6138 5.87164 14.5377 5.68653C14.4615 5.50143 14.5029 5.28871 14.643 5.14578L17.643 2.14393C17.8408 1.95202 18.1552 1.95202 18.353 2.14393L21.353 5.14578C21.4943 5.29002 21.5351 5.50513 21.4563 5.69112C21.3776 5.87711 21.1948 5.99749 20.993 5.9963H18.993V17.0031C18.993 19.2136 17.2021 21.0056 14.993 21.0056C12.7839 21.0056 10.993 19.2136 10.993 17.0031V6.99692C10.993 5.89167 10.0976 4.99568 8.99299 4.99568C7.88842 4.99568 6.99299 5.89167 6.99299 6.99692V18.0037H8.99299C9.19484 18.0025 9.37761 18.1229 9.45634 18.3089C9.53506 18.4949 9.49429 18.71 9.35299 18.8542L6.35299 21.8561C6.15518 22.048 5.8408 22.048 5.64299 21.8561L2.64299 18.8542C2.50293 18.7113 2.4615 18.4986 2.53767 18.3135C2.61385 18.1284 2.79295 18.0065 2.99299 18.0037H4.99299V6.99692Z" fill="currentColor" />
</svg>
