<svg xmlns="http://www.w3.org/2000/svg" viewBox="0 0 24 24">
    <path d="M17.9998 4.49626C18.0132 6.36733 17.2779 8.16567 15.9584 9.48877L9.44572 16.019C9.14606 16.3153 8.88809 16.6512 8.67894 17.0175H15.2812C15.0847 16.6382 14.8404 16.2859 14.5543 15.969L13.2597 14.671L14.6638 13.2631L15.9584 14.5612C17.2656 15.872 18 17.65 17.9998 19.5037V21.5007C17.9998 21.7765 17.7769 22 17.5019 22H16.5061C16.2311 22 16.0082 21.7765 16.0082 21.5007V19.5037C16.002 19.3398 15.9853 19.1763 15.9584 19.0145H8.04161C8.01467 19.1763 7.99804 19.3398 7.99182 19.5037V21.5007C7.99182 21.7765 7.7689 22 7.49391 22H6.49809C6.2231 22 6.00018 21.7765 6.00018 21.5007V19.5037C6.00005 17.65 6.73438 15.872 8.04161 14.5612L10.571 12.025L8.04161 9.52871C6.7221 8.20561 5.98676 6.40727 6.00018 4.5362V2.53919C6.00018 2.26346 6.2231 2.03994 6.49809 2.03994H7.49391C7.62771 2.03991 7.75589 2.09388 7.84956 2.18968C7.94322 2.28548 7.9945 2.41505 7.99182 2.54918V4.54618C7.99804 4.71016 8.01467 4.87358 8.04161 5.03545H15.9584C15.9875 4.85711 16.0042 4.67693 16.0082 4.49626V2.49925C16.0082 2.22352 16.2311 2 16.5061 2H17.5019C17.7769 2 17.9998 2.22352 17.9998 2.49925V4.49626ZM8.66898 7.03245C8.88099 7.41452 9.14214 7.76701 9.44572 8.08088L11.9751 10.6171L14.5045 8.08088C14.8079 7.76919 15.066 7.41626 15.2713 7.03245H8.66898Z" fill="currentColor" fill-rule="evenodd" clip-rule="evenodd" />
</svg>
