<svg xmlns="http://www.w3.org/2000/svg" viewBox="0 0 24 24">
    <path d="M15.3125 12.2L19.7586 19.11C20.0654 19.5809 20.0809 20.184 19.7987 20.67L19.4682 21.25C19.1968 21.7114 18.7023 21.9963 18.1664 22H5.83957C5.30369 21.9963 4.80925 21.7114 4.53779 21.25L4.21736 20.68C3.92755 20.2003 3.92755 19.5997 4.21736 19.12L8.66344 12.21C8.87166 11.8881 8.98288 11.5132 8.98388 11.13V4H8.48319C8.20667 4 7.98251 3.77614 7.98251 3.5V2.5C7.98251 2.22386 8.20667 2 8.48319 2H15.4928C15.7693 2 15.9935 2.22386 15.9935 2.5V3.5C15.9935 3.77614 15.7693 4 15.4928 4H14.9921V11.12C14.9931 11.5032 15.1043 11.8781 15.3125 12.2ZM10.9866 11.13C10.9843 11.895 10.7656 12.6437 10.3558 13.29L8.60336 16H15.3726L13.6302 13.28C13.2101 12.6379 12.9873 11.887 12.9894 11.12V4H10.9866V11.13Z" fill="currentColor" fill-rule="evenodd" clip-rule="evenodd" />
</svg>
