<svg xmlns="http://www.w3.org/2000/svg" viewBox="0 0 24 24">
    <path d="M19.565 5.99645C21.5172 5.99645 22.5284 6.61935 22.8788 7.57378C23.3694 8.92004 22.4283 10.5777 18.9943 12.4766C18.793 15.2573 16.9737 17.6562 14.3565 18.5919C11.7392 19.5276 8.81824 18.8233 6.91024 16.7966C4.23713 17.2688 1.77426 17.1884 1.14353 15.4705C0.592889 14.1041 1.56402 12.4263 5.14819 10.4974C5.66892 8.16158 7.33775 6.25193 9.57749 5.4289C11.8172 4.60587 14.3203 4.98248 16.2211 6.42846C17.3175 6.16682 18.4383 6.02202 19.565 5.99645ZM5.13818 13.5114C5.08609 13.2898 5.0493 13.0649 5.02805 12.8382C2.04458 14.6165 2.82549 15.3399 5.61873 14.9681C6.31272 14.8794 7.00125 14.7519 7.68113 14.5864C9.33743 14.1876 10.9688 13.6911 12.5668 13.0995C14.1887 12.5067 15.6704 11.8738 16.9119 11.271C16.4593 8.73449 14.1675 6.95304 11.607 7.1473C9.04651 7.34157 7.04773 9.44854 6.98032 12.0245C6.99274 12.4109 7.04644 12.7949 7.1405 13.1698C6.4799 13.3209 5.81142 13.4349 5.13818 13.5114ZM11.9861 17.0478C11.0299 17.0468 10.0944 16.7676 9.29301 16.2441C10.8148 15.8321 12.2464 15.3399 13.2476 14.9782C14.5591 14.4959 15.7105 14.0338 16.7217 13.5817C16.0527 15.6406 14.1441 17.0375 11.9861 17.0478ZM18.774 10.2864C18.5768 9.52388 18.2591 8.79801 17.8329 8.1364C21.9978 7.43313 21.5673 8.63873 18.774 10.2864Z" fill="currentColor" fill-rule="evenodd" clip-rule="evenodd" />
</svg>
