<svg xmlns="http://www.w3.org/2000/svg" viewBox="0 0 24 24">
    <path d="M12.0002 9.49992C12.0002 10.8806 10.8808 11.9998 9.50008 11.9998C8.11932 11.9998 7 10.8806 7 9.49992C7 8.11925 8.11932 7 9.50008 7C10.8808 7 12.0002 8.11925 12.0002 9.49992ZM10.7498 9.49996C10.7498 10.1903 10.1902 10.7499 9.49981 10.7499C8.80943 10.7499 8.24977 10.1903 8.24977 9.49996C8.24977 8.80962 8.80943 8.25 9.49981 8.25C10.1902 8.25 10.7498 8.80962 10.7498 9.49996Z" fill="currentColor" fill-rule="evenodd" clip-rule="evenodd" />
    <path d="M17.0001 14.4999C17.0001 15.8806 15.8808 16.9998 14.5001 16.9998C13.1193 16.9998 12 15.8806 12 14.4999C12 13.1192 13.1193 12 14.5001 12C15.8808 12 17.0001 13.1192 17.0001 14.4999ZM15.7501 14.4999C15.7501 15.1903 15.1905 15.7499 14.5001 15.7499C13.8097 15.7499 13.2501 15.1903 13.2501 14.4999C13.2501 13.8096 13.8097 13.25 14.5001 13.25C15.1905 13.25 15.7501 13.8096 15.7501 14.4999Z" fill="currentColor" fill-rule="evenodd" clip-rule="evenodd" />
    <path d="M15.1422 8.07136L15.8998 8.82895L8.82853 15.8998L8.07089 15.1422L15.1422 8.07136Z" fill="currentColor" />
    <path d="M12 2L14.3294 3.30667L17 3.33975L18.364 5.63604L20.6603 7L20.6933 9.67063L22 12L20.6933 14.3294L20.6603 17L18.364 18.364L17 20.6603L14.3294 20.6933L12 22L9.67063 20.6933L7 20.6603L5.63604 18.364L3.33975 17L3.30667 14.3294L2 12L3.30667 9.67063L3.33975 7L5.63604 5.63604L7 3.33975L9.67063 3.30667L12 2ZM12 4.26005L10.1971 5.2714L8.13003 5.29701L7.07433 7.07433L5.29701 8.13003L5.2714 10.1971L4.26005 12L5.2714 13.8029L5.29701 15.87L7.07433 16.9257L8.13002 18.703L10.1971 18.7286L12 19.74L13.8029 18.7286L15.87 18.703L16.9257 16.9257L18.703 15.87L18.7286 13.8029L19.74 12L18.7286 10.1971L18.703 8.13002L16.9257 7.07433L15.87 5.29701L13.8029 5.2714L12 4.26005Z" fill="currentColor" fill-rule="evenodd" clip-rule="evenodd" />
</svg>
