<svg xmlns="http://www.w3.org/2000/svg" viewBox="0 0 24 24">
    <path d="M17.7108 2.12973L17.5908 2.00973C17.3992 1.82699 17.1456 1.72341 16.8808 1.71973H8.93079C8.39775 1.71931 7.88659 1.93169 7.51079 2.30973L0.290793 9.52973C-0.0969309 9.91977 -0.0969309 10.5497 0.290793 10.9397L8.78079 19.4297C9.17083 19.8175 9.80076 19.8175 10.1908 19.4297L11.1109 18.5096C12.053 20.7259 14.2501 22.2798 16.8101 22.2798C20.229 22.2798 23 19.5088 23 16.0898C23 13.0786 20.8499 10.5694 18.0008 10.0143V2.83973C17.9971 2.57496 17.8935 2.32136 17.7108 2.12973ZM16.0008 9.95233V3.71973H8.93079L2.41079 10.2297L9.49079 17.3097L10.6207 16.1781C10.6203 16.1487 10.6201 16.1193 10.6201 16.0898C10.6201 12.9457 12.9647 10.3488 16.0008 9.95233ZM13.6201 16.0004V16.3877C13.6201 16.6729 13.8511 16.9038 14.1362 16.9038H15.8076V18.5752C15.8076 18.8604 16.0386 19.0913 16.3237 19.0913H17.1079C17.2373 19.0913 17.3555 19.0435 17.4463 18.9648C17.5552 18.8706 17.624 18.731 17.624 18.5752V16.9038H19.2954C19.4033 16.9038 19.5034 16.8706 19.5859 16.814C19.7222 16.7212 19.8115 16.5649 19.8115 16.3877V15.6035C19.8115 15.3184 19.5806 15.0874 19.2954 15.0874H17.624V13.416C17.624 13.1309 17.3931 12.8999 17.1079 12.8999H16.7206H16.3237C16.3237 12.8999 16.3237 12.8999 16.3237 12.8999C16.2881 12.8999 16.2533 12.9035 16.2197 12.9104C15.9846 12.9585 15.8077 13.1665 15.8077 13.4159V13.8128L15.8076 13.8129V15.0874H14.5331L14.533 15.0875H14.1361C13.8854 15.0875 13.6765 15.2663 13.6299 15.5032C13.6235 15.5357 13.6201 15.5692 13.6201 15.6035C13.6201 15.6035 13.6201 15.6035 13.6201 15.6035V16.0004ZM14.0008 7.71973C14.0008 8.8243 13.1054 9.71973 12.0008 9.71973C10.8962 9.71973 10.0008 8.8243 10.0008 7.71973C10.0008 6.61516 10.8962 5.71973 12.0008 5.71973C13.1054 5.71973 14.0008 6.61516 14.0008 7.71973Z" fill="currentColor" fill-rule="evenodd" clip-rule="evenodd" />
</svg>
