<svg xmlns="http://www.w3.org/2000/svg" viewBox="0 0 24 24">
    <path d="M17.7108 2.12973L17.5908 2.00973C17.3992 1.82699 17.1456 1.72341 16.8808 1.71973H8.93079C8.39775 1.71931 7.88659 1.93169 7.51079 2.30973L0.290793 9.52973C-0.0969309 9.91976 -0.0969309 10.5497 0.290793 10.9397L8.78079 19.4297C9.17083 19.8174 9.80076 19.8174 10.1908 19.4297L11.1122 18.5084C12.0543 20.7255 14.2521 22.2803 16.813 22.2803C20.2324 22.2803 23.0044 19.5083 23.0044 16.0889C23.0044 13.0757 20.852 10.5653 18.0008 10.0113V2.83973C17.9971 2.57496 17.8935 2.32136 17.7108 2.12973ZM16.0008 9.95026V3.71973H8.93079L2.41079 10.2297L9.49079 17.3097L10.6222 16.1766C10.6218 16.1474 10.6216 16.1182 10.6216 16.0889C10.6216 12.9447 12.9652 10.348 16.0008 9.95026ZM13.2031 16.4174V16.7081C13.2031 16.929 13.3822 17.1081 13.6031 17.1081H20.3966C20.6175 17.1081 20.7966 16.929 20.7966 16.7081V15.2921C20.7966 15.0712 20.6175 14.8921 20.3966 14.8921L14.7284 14.8921H13.6031C13.3822 14.8921 13.2031 15.0712 13.2031 15.2921V16.4174ZM14.0008 7.71973C14.0008 8.8243 13.1054 9.71973 12.0008 9.71973C10.8962 9.71973 10.0008 8.8243 10.0008 7.71973C10.0008 6.61516 10.8962 5.71973 12.0008 5.71973C13.1054 5.71973 14.0008 6.61516 14.0008 7.71973Z" fill="currentColor" fill-rule="evenodd" clip-rule="evenodd" />
</svg>
