<svg xmlns="http://www.w3.org/2000/svg" viewBox="0 0 24 24">
    <path d="M18.5 10H22.5C22.7644 10.0159 22.9705 10.2352 22.97 10.5V11.5C22.97 11.7761 22.7461 12 22.47 12H22L20.32 19.65C20.016 21.0198 18.8031 21.9959 17.4 22H6.6C5.20813 21.982 4.01148 21.0089 3.71 19.65L2 12H1.5C1.22386 12 1 11.7761 1 11.5V10.5C1 10.2239 1.22386 10 1.5 10H5.5L11.27 2.3C11.4136 2.11356 11.6347 2.00305 11.87 2H12.13C12.3653 2.00305 12.5864 2.11356 12.73 2.3L18.5 10ZM16 10L12 4.67L8 10H16ZM18.37 19.22C18.2652 19.6852 17.8467 20.0117 17.37 20H6.6C6.12334 20.0117 5.70475 19.6852 5.6 19.22L4 12H20L18.37 19.22ZM14.39 17.8526L13.8526 18.39C13.6574 18.5853 13.3408 18.5853 13.1455 18.39L12 17.2445L10.8545 18.39C10.6592 18.5853 10.3426 18.5853 10.1474 18.39L9.60998 17.8526C9.41472 17.6574 9.41472 17.3408 9.60998 17.1455L10.7555 16L9.60998 14.8545C9.41472 14.6592 9.41472 14.3426 9.60998 14.1474L10.1474 13.61C10.3426 13.4147 10.6592 13.4147 10.8545 13.61L12 14.7555L13.1455 13.61C13.3408 13.4147 13.6574 13.4147 13.8526 13.61L14.39 14.1474C14.5853 14.3426 14.5853 14.6592 14.39 14.8545L13.2445 16L14.39 17.1455C14.5853 17.3408 14.5853 17.6574 14.39 17.8526Z" fill="currentColor" fill-rule="evenodd" clip-rule="evenodd" />
</svg>
