<svg xmlns="http://www.w3.org/2000/svg" viewBox="0 0 24 24">
    <path d="M18.5 10H22.5C22.7644 10.0159 22.9705 10.2352 22.97 10.5V11.5C22.97 11.7761 22.7461 12 22.47 12H22L20.32 19.65C20.016 21.0198 18.8031 21.9959 17.4 22H6.6C5.20813 21.982 4.01148 21.0089 3.71 19.65L2 12H1.5C1.22386 12 1 11.7761 1 11.5V10.5C1 10.2239 1.22386 10 1.5 10H5.5L11.27 2.3C11.4136 2.11356 11.6347 2.00305 11.87 2H12.13C12.3653 2.00305 12.5864 2.11356 12.73 2.3L18.5 10ZM16 10L12 4.67L8 10H16ZM18.37 19.22C18.2652 19.6852 17.8467 20.0117 17.37 20H6.6C6.12334 20.0117 5.70475 19.6852 5.6 19.22L4 12H20L18.37 19.22ZM15 15.62V16.38C15 16.6561 14.7761 16.88 14.5 16.88H12.88V18.5C12.88 18.7761 12.6561 19 12.38 19H11.62C11.3439 19 11.12 18.7761 11.12 18.5V16.88H9.5C9.22386 16.88 9 16.6561 9 16.38V15.62C9 15.3439 9.22386 15.12 9.5 15.12H11.12V13.5C11.12 13.2239 11.3439 13 11.62 13H12.38C12.6561 13 12.88 13.2239 12.88 13.5V15.12H14.5C14.7761 15.12 15 15.3439 15 15.62Z" fill="currentColor" fill-rule="evenodd" clip-rule="evenodd" />
</svg>
