<svg xmlns="http://www.w3.org/2000/svg" viewBox="0 0 24 24">
    <path d="M4 10.5C4 5.811 7.81 2 12.5 2C17.19 2 21 5.811 21 10.5C21 16.58 17.5 20.28 12.66 21.97C12.604 21.991 12.548 22 12.494 22C12.232 22 12 21.781 12 21.5V18.99C7.54 18.73 4 15.02 4 10.5ZM14 19.194V18.99V17.575C14 17.311 13.793 17.091 13.529 17.076L12.116 16.993C8.687 16.793 6 13.941 6 10.5C6 6.916 8.916 4 12.5 4C16.084 4 19 6.916 19 10.5C19 15.18 16.605 17.763 14 19.194ZM8.5 8H11.25C11.526 8 11.75 8.224 11.75 8.5V11.75C11.75 13.201 10.719 14.412 9.35 14.689C9.203 14.72 9.05 14.683 8.934 14.587C8.817 14.492 8.75 14.35 8.75 14.2V13.687C8.75 13.459 8.904 13.26 9.125 13.203C9.772 13.036 10.25 12.449 10.25 11.75H8.5C8.224 11.75 8 11.526 8 11.25V8.5C8 8.224 8.224 8 8.5 8ZM13.75 8H16.5C16.776 8 17 8.224 17 8.5V11.75C17 13.201 15.969 14.412 14.6 14.689C14.453 14.72 14.3 14.683 14.184 14.587C14.067 14.492 14 14.35 14 14.2V13.687C14 13.459 14.154 13.26 14.375 13.203C15.022 13.036 15.5 12.449 15.5 11.75H13.75C13.474 11.75 13.25 11.526 13.25 11.25V8.5C13.25 8.224 13.474 8 13.75 8Z" fill="currentColor" fill-rule="evenodd" clip-rule="evenodd" />
</svg>
