<svg xmlns="http://www.w3.org/2000/svg" viewBox="0 0 24 24">
    <path d="M12 2C5.37 2 3 4.24 3 10.5C3 14.81 4.13 17.22 7 18.3V21.5C7 21.7761 7.22386 22 7.5 22H7.81C7.93201 21.9975 8.0491 21.9514 8.14 21.87L11.34 19H12C18.63 19 21 16.76 21 10.5C21 4.24 18.63 2 12 2ZM12 17H11.39H10.79C10.6611 16.9975 10.536 17.044 10.44 17.13L10 17.53L9 18.43V17.26C9.00146 17.052 8.87403 16.8649 8.68 16.79L7.68 16.42C6.4 15.93 5 15 5 10.5C5 5.34 6.44 4 12 4C17.56 4 19 5.34 19 10.5C19 15.66 17.56 17 12 17ZM14.22 12.54L15.22 13.31C15.75 13.7 15.75 14.06 15.42 14.56C15.1823 14.935 14.8324 15.2254 14.42 15.39C14.1296 15.5151 13.8004 15.5151 13.51 15.39C11.0423 14.4041 8.99745 12.5856 7.73 10.25C7.47789 9.74284 7.25421 9.22203 7.06 8.69C7.03034 8.5752 7.01027 8.45813 7 8.34C7.02239 7.58255 7.58916 6.95234 8.34 6.85H8.53C8.70848 6.87026 8.87449 6.9515 9 7.08C9.51814 7.56455 9.94197 8.14096 10.25 8.78C10.3836 9.02751 10.3204 9.33523 10.1 9.51L9.95 9.64C9.72083 9.75113 9.5527 9.95814 9.49093 10.2052C9.42916 10.4523 9.48009 10.7141 9.63 10.92C10.0899 11.8825 10.9028 12.631 11.9 13.01C12.1517 13.1258 12.4498 13.0605 12.63 12.85L12.7 12.76C13.1 12.09 13.68 12.16 14.22 12.54ZM12.3 5.53C12.1618 5.51167 12.0226 5.55562 11.92 5.65C11.8108 5.74593 11.7487 5.88464 11.75 6.03V6.53C11.7526 6.78265 11.9397 6.99533 12.19 7.03C13.9112 7.2314 15.2686 8.58881 15.47 10.31C15.5047 10.5603 15.7174 10.7474 15.97 10.75H16.47C16.6154 10.7513 16.7541 10.6892 16.85 10.58C16.9553 10.4828 17.0105 10.3429 17 10.2C16.7338 7.72824 14.7734 5.78038 12.3 5.53ZM12.95 10.37C12.8278 9.96729 12.5127 9.65216 12.11 9.53V9.55C11.8894 9.48585 11.7409 9.27959 11.75 9.05V8.54C11.7476 8.38716 11.8182 8.24233 11.94 8.15C12.0547 8.04896 12.2121 8.01148 12.36 8.05C13.3917 8.28269 14.1973 9.08834 14.43 10.12C14.4685 10.2679 14.431 10.4253 14.33 10.54C14.2377 10.6618 14.0928 10.7324 13.94 10.73H13.43C13.2078 10.73 13.0122 10.5833 12.95 10.37Z" fill="currentColor" fill-rule="evenodd" clip-rule="evenodd" />
</svg>
