<svg xmlns="http://www.w3.org/2000/svg" viewBox="0 0 24 24">
    <path d="M11.9999 2C8.244 2.00117 4.8055 4.10678 3.09721 7.45166C1.38891 10.7965 1.69893 14.8166 3.89986 17.86L2.99986 20.6C2.93799 20.7789 2.9847 20.9775 3.11986 21.11C3.21525 21.2057 3.34473 21.2597 3.47986 21.26H3.62986L6.47986 20.34C10.0479 22.7006 14.7223 22.5299 18.1086 19.9154C21.495 17.301 22.8431 12.8219 21.4624 8.77267C20.0817 4.72341 16.278 2.00101 11.9999 2ZM19.9999 12C19.9999 16.4183 16.4181 20 11.9999 20C7.58158 20 3.99986 16.4183 3.99986 12C3.99986 7.58172 7.58158 4 11.9999 4C14.1216 4 16.1564 4.84285 17.6567 6.34315C19.157 7.84344 19.9999 9.87827 19.9999 12ZM15.2799 16.68C15.9831 16.5571 16.5912 16.1185 16.9299 15.49C17.1018 15.122 17.1576 14.7105 17.0899 14.31C17.0414 14.2293 16.9148 14.1681 16.7416 14.0844C16.7002 14.0644 16.6561 14.0431 16.6099 14.02C16.3699 13.9 15.1599 13.3 14.9299 13.23C14.7127 13.1255 14.4517 13.1982 14.3199 13.4C14.1242 13.7083 13.907 14.0023 13.6699 14.28C13.5082 14.431 13.2718 14.4704 13.0699 14.38C12.3323 14.0983 11.654 13.6811 11.0699 13.15C10.5331 12.6528 10.0716 12.0801 9.69986 11.45C9.59116 11.274 9.63452 11.0442 9.79986 10.92C9.8665 10.8367 9.93623 10.7657 10.0056 10.6951C10.0612 10.6386 10.1165 10.5823 10.1699 10.52C10.2776 10.4033 10.3685 10.272 10.4399 10.13C10.52 9.98714 10.52 9.81286 10.4399 9.67C10.3799 9.55 9.85986 8.27 9.68986 7.85C9.51986 7.43 9.39986 7.43 9.14986 7.43H8.86986C8.55241 7.41673 8.24166 7.52388 7.99986 7.73C7.41161 8.2527 7.07648 9.00308 7.07986 9.79C7.15864 10.716 7.50621 11.5988 8.07986 12.33C9.11303 13.931 10.5658 15.2177 12.2799 16.05C14.2799 16.85 14.8399 16.78 15.2799 16.68Z" fill="currentColor" fill-rule="evenodd" clip-rule="evenodd" />
</svg>
