<svg xmlns="http://www.w3.org/2000/svg" viewBox="0 0 24 24">
    <path d="M19.9999 4.48999L18.5399 4.33999C14.1716 3.88667 9.76818 3.88667 5.39991 4.33999L3.99991 4.48999C2.27143 4.68535 0.973464 6.1607 0.999909 7.89999V16.1C0.973464 17.8393 2.27143 19.3146 3.99991 19.51L5.45991 19.66C7.63252 19.8869 9.81548 20.0004 11.9999 20C14.1943 20.0014 16.3873 19.8879 18.5699 19.66L19.9999 19.51C21.7284 19.3146 23.0264 17.8393 22.9999 16.1V7.89999C23.0264 6.1607 21.7284 4.68535 19.9999 4.48999ZM20.9999 16.1C21.0277 16.8055 20.5186 17.4182 19.8199 17.52L18.3599 17.67C16.2471 17.8901 14.1242 18.0003 11.9999 18C9.87562 18.0003 7.75276 17.8901 5.63991 17.67L4.17991 17.52C3.48123 17.4182 2.97207 16.8055 2.99991 16.1V7.89999C2.97207 7.19449 3.48123 6.58177 4.17991 6.47999L5.63991 6.32999C9.86849 5.88997 14.1313 5.88997 18.3599 6.32999L19.8199 6.47999C20.5186 6.58177 21.0277 7.19449 20.9999 7.89999V16.1ZM10.3987 8.73865C10.6437 8.60885 10.9402 8.62475 11.1699 8.77999L15.0599 11.38C15.2695 11.5166 15.3959 11.7498 15.3959 12C15.3959 12.2502 15.2695 12.4834 15.0599 12.62L11.1699 15.22C10.9402 15.3752 10.6437 15.3911 10.3987 15.2613C10.1538 15.1315 10.0004 14.8772 9.99991 14.6V9.39999C10.0004 9.12278 10.1538 8.86845 10.3987 8.73865Z" fill="currentColor" fill-rule="evenodd" clip-rule="evenodd" />
</svg>
