<svg xmlns="http://www.w3.org/2000/svg" viewBox="0 0 24 24">
    <path d="M19 4H18V2.5C18 2.22386 17.7761 2 17.5 2H16.5C16.2239 2 16 2.22386 16 2.5V4H8V2.5C8 2.22386 7.77614 2 7.5 2H6.5C6.22386 2 6 2.22386 6 2.5V4H5C3.89543 4 3 4.89543 3 6V19C3 20.1046 3.89543 21 5 21H19C20.1046 21 21 20.1046 21 19V6C21 4.89543 20.1046 4 19 4ZM19 19H5V8H19V19ZM10.4871 16.3808C10.3633 16.3808 10.245 16.3296 10.1603 16.2393L7.93791 14.0263C7.84952 13.9386 7.7998 13.8193 7.7998 13.6948C7.7998 13.5703 7.84952 13.451 7.93791 13.3633L8.43281 12.8684C8.51753 12.7781 8.63582 12.7269 8.75963 12.7269C8.88343 12.7269 9.00172 12.7781 9.08644 12.8684L10.4871 14.2597L14.9132 9.83366C15.0947 9.65571 15.3853 9.65571 15.5668 9.83366L16.0617 10.3286C16.1501 10.4162 16.1998 10.5356 16.1998 10.66C16.1998 10.7845 16.1501 10.9039 16.0617 10.9915L10.8139 16.2393C10.7292 16.3296 10.6109 16.3808 10.4871 16.3808Z" fill="currentColor" fill-rule="evenodd" clip-rule="evenodd" />
</svg>
