<svg xmlns="http://www.w3.org/2000/svg" viewBox="0 0 24 24">
    <path d="M19 4C20.1046 4 21 4.89543 21 6V19C21 20.1046 20.1046 21 19 21H5C3.89543 21 3 20.1046 3 19V6C3 4.89543 3.89543 4 5 4H6V2.5C6 2.22386 6.22386 2 6.5 2H7.5C7.77614 2 8 2.22386 8 2.5V4H16V2.5C16 2.22386 16.2239 2 16.5 2H17.5C17.7761 2 18 2.22386 18 2.5V4H19ZM5 19H19V8H5V19ZM11.5 10C11.2239 10 11 10.2239 11 10.5V11.5C11 11.7761 11.2239 12 11.5 12H16.5C16.7761 12 17 11.7761 17 11.5V10.5C17 10.2239 16.7761 10 16.5 10H11.5ZM9 11.5C9 11.7761 8.77614 12 8.5 12H7.5C7.22386 12 7 11.7761 7 11.5V10.5C7 10.2239 7.22386 10 7.5 10H8.5C8.77614 10 9 10.2239 9 10.5V11.5ZM12.5 16C12.7761 16 13 15.7761 13 15.5V14.5C13 14.2239 12.7761 14 12.5 14H7.5C7.22386 14 7 14.2239 7 14.5V15.5C7 15.7761 7.22386 16 7.5 16H12.5ZM15.5 16C15.2239 16 15 15.7761 15 15.5V14.5C15 14.2239 15.2239 14 15.5 14H16.5C16.7761 14 17 14.2239 17 14.5V15.5C17 15.7761 16.7761 16 16.5 16H15.5Z" fill="currentColor" fill-rule="evenodd" clip-rule="evenodd" />
</svg>
