<svg xmlns="http://www.w3.org/2000/svg" viewBox="0 0 24 24">
    <path d="M11.7434 14.438H9.73442L15.3595 4.91872C15.7612 4.32377 15.5604 3.5305 14.9577 3.23302C14.355 2.93555 13.5514 3.03471 13.2501 3.62966L13.1496 3.72882L12.0447 5.61284L10.9398 3.72882C10.6384 3.03471 9.83487 2.83639 9.23219 3.13386C8.62951 3.43134 8.32817 4.12545 8.72995 4.81956C8.72995 4.81956 8.72995 4.91872 8.8304 4.91872L10.6384 8.09181L6.92191 14.438H3.20536C2.50224 14.438 2 15.0329 2 15.6279C2 16.322 2.60268 16.9169 3.20536 16.9169H14.2545L13.3505 15.4296C13.0492 14.8346 12.4465 14.438 11.7434 14.438ZM4.20984 18.9001L4.10939 18.9993C3.7076 19.5942 3.90849 20.3875 4.51118 20.685C5.11386 20.9825 5.91744 20.8833 6.21878 20.2883L6.31922 20.1892L7.52459 18.1069H5.51565C5.01341 18.1069 4.51118 18.4043 4.20984 18.9001ZM17.268 14.438H20.884C21.4867 14.438 22.0894 15.0329 21.989 15.727C21.989 16.322 21.4867 16.9169 20.7836 16.9169H18.6742L19.98 19.0984C20.0805 19.0984 20.0805 19.1976 20.0805 19.1976C20.3818 19.7926 20.0805 20.5858 19.4778 20.8833C18.8751 21.1808 18.0715 20.8833 17.7702 20.2883L13.6519 13.2481C13.1496 12.3556 13.1496 11.1657 13.6519 10.2733L14.2545 9.28171L17.268 14.438Z" fill="currentColor" fill-rule="evenodd" clip-rule="evenodd" />
</svg>
