<svg xmlns="http://www.w3.org/2000/svg" viewBox="0 0 24 24">
    <path d="M9.15009 2.15005L12.0001 5.00005L6.68009 8.44005L12.0001 11.8801L11.9928 11.8889L11.9601 11.9101L11.9676 11.9195L9.00009 15.5301C8.85007 15.7205 8.58667 15.7791 8.37009 15.6701L3.16009 12.2901C3.0601 12.2277 2.99955 12.1179 3.00009 12.0001V11.8101C3.00224 11.73 3.03032 11.6528 3.08009 11.5901L5.61009 8.49005L3.10009 6.00005C3.03065 5.92788 2.99442 5.83004 3.00009 5.73005V5.66005C2.99955 5.54219 3.0601 5.43245 3.16009 5.37005L8.24009 2.08005C8.32057 2.02807 8.41429 2.0003 8.51009 2.00005H8.79009C8.92568 1.99809 9.05602 2.05239 9.15009 2.15005ZM11.9676 11.9195L14.9601 15.6701C15.1234 15.8726 15.4148 15.9161 15.6301 15.7701L20.8401 12.2901C20.9401 12.2277 21.0006 12.1179 21.0001 12.0001V11.8101C20.9979 11.73 20.9699 11.6528 20.9201 11.5901L18.3901 8.49005L20.9001 5.98005C20.9645 5.91279 21.0003 5.82318 21.0001 5.73005V5.66005C21.0006 5.54219 20.9401 5.43245 20.8401 5.37005L15.7601 2.08005C15.6796 2.02807 15.5859 2.0003 15.4901 2.00005H15.2101C15.0745 1.99809 14.9442 2.05239 14.8501 2.15005L12.0001 5.00005L17.2801 8.47005L11.9928 11.8889L11.9676 11.9195ZM15.0001 18.0001C14.8502 17.9991 14.7081 17.9334 14.6101 17.8201L12.0001 14.6501L9.43009 17.8201C9.32319 17.9445 9.1638 18.0113 9.00009 18.0001C8.90428 17.9998 8.81057 17.972 8.73009 17.9201L6.00009 16.1901V18.0801C6.00066 18.42 6.17393 18.7365 6.46009 18.9201L11.0001 21.8401C11.161 21.944 11.3485 21.9996 11.5401 22.0001H12.5401C12.7317 21.9996 12.9191 21.944 13.0801 21.8401L17.6001 18.9201C17.8863 18.7365 18.0595 18.42 18.0601 18.0801V16.1901L15.3701 17.9201C15.262 17.9942 15.1291 18.0229 15.0001 18.0001Z" fill="currentColor" fill-rule="evenodd" clip-rule="evenodd" />
</svg>
