<svg xmlns="http://www.w3.org/2000/svg" viewBox="0 0 24 24">
    <path d="M20 4C21.1046 4 22 4.89543 22 6V18C22 19.1046 21.1046 20 20 20H4C2.89543 20 2 19.1046 2 18V6C2 4.89543 2.89543 4 4 4H20ZM18.5 18H19.5C19.7761 18 20 17.7761 20 17.5V6.5C20 6.22386 19.7761 6 19.5 6H18.12C17.8944 6.00131 17.6759 6.07884 17.5 6.22L11.86 10.72L6.23 6.22C6.05406 6.07884 5.83556 6.00131 5.61 6H4.5C4.22386 6 4 6.22386 4 6.5V17.5C4 17.7761 4.22386 18 4.5 18H5.5C5.77614 18 6 17.7761 6 17.5V8.59L11.35 12.84C11.4861 12.9412 11.6504 12.9972 11.82 13H12C12.1523 12.9874 12.2979 12.9319 12.42 12.84L18 8.37V17.5C18 17.7761 18.2239 18 18.5 18Z" fill="currentColor" fill-rule="evenodd" clip-rule="evenodd" />
</svg>
