<svg xmlns="http://www.w3.org/2000/svg" viewBox="0 0 24 24">
    <path d="M15.48 13C14.7662 12.9992 14.1069 12.6181 13.75 12L9 3.74997C8.90661 3.58945 8.90989 3.3904 9.0085 3.23303C9.10712 3.07567 9.28482 2.98593 9.47 2.99997H14.36C15.0774 2.99712 15.7413 3.3787 16.1 3.99997L20.81 12.25C20.9 12.4058 20.8993 12.5979 20.8083 12.753C20.7172 12.9082 20.5499 13.0025 20.37 13H15.48ZM10.23 10.05L7.77 5.77997C7.68408 5.62273 7.51919 5.52492 7.34 5.52492C7.16081 5.52492 6.99592 5.62273 6.91 5.77997L2.2 14C2.06997 14.2286 2.00109 14.4869 2 14.75V14.97C2.00109 15.233 2.06997 15.4913 2.2 15.72L4.73 20.14C4.82268 20.2914 4.98745 20.3837 5.165 20.3837C5.34255 20.3837 5.50732 20.2914 5.6 20.14L10.23 12C10.5683 11.394 10.5683 10.6559 10.23 10.05ZM21.77 15.75L19.34 20C18.9813 20.6212 18.3174 21.0028 17.6 21H8.4C8.22729 20.9888 8.07267 20.889 7.99123 20.7363C7.90978 20.5836 7.9131 20.3996 8 20.25L10.37 16C10.7287 15.3787 11.3926 14.9971 12.11 15H21.34C21.5181 15.001 21.6822 15.0968 21.7708 15.2513C21.8593 15.4058 21.8591 15.5957 21.77 15.75Z" fill="currentColor" fill-rule="evenodd" clip-rule="evenodd" />
</svg>
