<svg xmlns="http://www.w3.org/2000/svg" viewBox="0 0 24 24">
    <path d="M2 11.5002C2.14178 6.11704 6.61668 1.86588 12 2.00017C17.3833 1.86588 21.8582 6.11704 22 11.5002C21.8582 16.8833 17.3833 21.1345 12 21.0002C11.2293 21.0005 10.461 20.9132 9.71 20.7402C9.50644 20.6927 9.29311 20.7102 9.1 20.7902L6.39 21.9302C6.08134 22.0593 5.72855 22.0255 5.45 21.8402C5.16765 21.6542 4.99837 21.3382 5 21.0002V18.7002C4.9989 18.4378 4.89474 18.1864 4.71 18.0002C2.9822 16.2774 2.0077 13.9401 2 11.5002ZM14.88 13.2102L17.5 9.21017C17.5729 9.11606 17.6034 8.99597 17.5845 8.87847C17.5655 8.76098 17.4987 8.6566 17.4 8.59017C17.2389 8.45196 17.0011 8.45196 16.84 8.59017L13.78 10.9302L11.48 9.17017C11.2183 8.97202 10.8982 8.86649 10.57 8.87017H10.36C9.85431 8.86842 9.38131 9.11994 9.1 9.54017L6.47 13.5102C6.34023 13.71 6.36953 13.9737 6.54 14.1402C6.70108 14.2784 6.93892 14.2784 7.1 14.1402L10.1 11.8902L12.29 13.5802C12.5508 13.7812 12.8707 13.8902 13.2 13.8902H13.63C14.135 13.89 14.6055 13.634 14.88 13.2102Z" fill="currentColor" fill-rule="evenodd" clip-rule="evenodd" />
</svg>
