<svg xmlns="http://www.w3.org/2000/svg" viewBox="0 0 24 24">
    <path d="M12 2.00017C6.61668 1.86588 2.14178 6.11704 2 11.5002C2.0077 13.9401 2.9822 16.2774 4.71 18.0002C4.89474 18.1864 4.9989 18.4378 5 18.7002V21.0002C4.99837 21.3382 5.16765 21.6542 5.45 21.8402C5.61381 21.946 5.80499 22.0016 6 22.0002C6.13068 21.9986 6.25978 21.9714 6.38 21.9202L9.1 20.7902C9.22399 20.7398 9.35619 20.7127 9.49 20.7102C9.56301 20.7004 9.63699 20.7004 9.71 20.7102C10.4599 20.8933 11.2281 20.9906 12 21.0002C17.3833 21.1345 21.8582 16.8833 22 11.5002C21.8582 6.11704 17.3833 1.86588 12 2.00017ZM12 19.0002C11.3775 18.9984 10.7571 18.9279 10.15 18.7902C9.93364 18.7391 9.71228 18.7123 9.49 18.7102C9.08739 18.7252 8.69232 18.824 8.33 19.0002L7 19.5102V18.7002C6.99931 17.9097 6.68666 17.1514 6.13 16.5902C4.77596 15.2412 4.01029 13.4115 4 11.5002C4.14673 7.22388 7.72315 3.87099 12 4.00017C16.2768 3.87099 19.8533 7.22388 20 11.5002C19.8533 15.7764 16.2768 19.1293 12 19.0002ZM16.84 8.62017C17.0011 8.48196 17.2389 8.48196 17.4 8.62017L17.48 8.61017C17.6309 8.75458 17.6563 8.9866 17.54 9.16017L14.92 13.1602C14.6455 13.584 14.175 13.84 13.67 13.8402H13.24C12.9107 13.8402 12.5908 13.7312 12.33 13.5302L10.14 11.8602L7.14 14.1102C6.97892 14.2484 6.74108 14.2484 6.58 14.1102C6.40953 13.9437 6.38023 13.68 6.51 13.4802L9.1 9.57017C9.38131 9.14994 9.85431 8.89842 10.36 8.90017H10.57C10.8982 8.89649 11.2183 9.00202 11.48 9.20017L13.78 10.9602L16.84 8.62017Z" fill="currentColor" fill-rule="evenodd" clip-rule="evenodd" />
</svg>
