<svg xmlns="http://www.w3.org/2000/svg" viewBox="0 0 24 24">
    <path d="M9.38003 2.25003C8.88234 2.24737 8.40413 2.44321 8.05127 2.79419C7.69841 3.14517 7.50002 3.62233 7.50003 4.12003C7.49737 4.61771 7.69321 5.09593 8.04419 5.44879C8.39517 5.80164 8.87233 6.00003 9.37003 6.00003H10.75C11.0262 6.00003 11.25 5.77617 11.25 5.50003V4.12003C11.25 3.08725 10.4128 2.25003 9.38003 2.25003ZM12.75 4.12003V9.38003C12.75 9.87772 12.9484 10.3549 13.3013 10.7059C13.6541 11.0568 14.1323 11.2527 14.63 11.25C15.126 11.25 15.6016 11.053 15.9523 10.7023C16.303 10.3516 16.5 9.87598 16.5 9.38003V4.12003C16.5 3.62233 16.3016 3.14517 15.9488 2.79419C15.5959 2.44321 15.1177 2.24737 14.62 2.25003C13.5873 2.25003 12.75 3.08725 12.75 4.12003ZM14.62 12.75H19.88C20.9128 12.75 21.75 13.5873 21.75 14.62C21.75 15.116 21.553 15.5916 21.2023 15.9423C20.8516 16.293 20.376 16.49 19.88 16.49H14.62C13.5873 16.49 12.75 15.6528 12.75 14.62C12.75 13.5873 13.5873 12.75 14.62 12.75ZM9.38003 12.75C8.88234 12.7474 8.40413 12.9432 8.05127 13.2942C7.69841 13.6452 7.50002 14.1223 7.50003 14.62V19.88C7.50003 20.9128 8.33725 21.75 9.37003 21.75C10.4028 21.75 11.24 20.9128 11.24 19.88V14.62C11.24 13.5911 10.4089 12.7555 9.38003 12.75ZM4.12003 7.50003H9.38003C10.4128 7.50003 11.25 8.33725 11.25 9.37003C11.25 10.4028 10.4128 11.24 9.38003 11.24H4.12003C3.08725 11.24 2.25003 10.4028 2.25003 9.37003C2.25003 8.33725 3.08725 7.50003 4.12003 7.50003ZM18.5513 8.04419C18.9041 7.69321 19.3823 7.49737 19.88 7.50003C20.3777 7.50002 20.8549 7.69841 21.2059 8.05127C21.5568 8.40413 21.7527 8.88234 21.75 9.38003C21.75 10.4128 20.9128 11.25 19.88 11.25H18.5C18.2239 11.25 18 11.0262 18 10.75V9.37003C18 8.87233 18.1984 8.39517 18.5513 8.04419ZM14.63 18H13.25C12.9739 18 12.75 18.2239 12.75 18.5V19.88C12.75 20.9128 13.5873 21.75 14.62 21.75C15.6528 21.75 16.49 20.9128 16.49 19.88C16.4927 19.3841 16.2982 18.9074 15.9494 18.5548C15.6006 18.2022 15.126 18.0027 14.63 18ZM4.12003 12.75H5.50003C5.77617 12.75 6.00003 12.9739 6.00003 13.25V14.63C6.00003 15.1277 5.80164 15.6049 5.44879 15.9559C5.09593 16.3068 4.61771 16.5027 4.12003 16.5C3.62233 16.5 3.14517 16.3016 2.79419 15.9488C2.44321 15.5959 2.24737 15.1177 2.25003 14.62C2.25003 13.5873 3.08725 12.75 4.12003 12.75Z" fill="currentColor" fill-rule="evenodd" clip-rule="evenodd" />
</svg>
