<svg xmlns="http://www.w3.org/2000/svg" viewBox="0 0 24 24">
    <path d="M18.016 13.15C18.016 13.3 18.6867 16 21.019 16H20.999C21.5518 16 22 16.4477 22 17C22 17.5523 21.5518 18 20.999 18C19.6977 18 18.997 18.41 18.997 19C18.997 19.5523 18.5488 20 17.996 20C17.5673 20 17.3038 19.8748 17.0488 19.7537C16.8096 19.6401 16.5779 19.53 16.2242 19.53C15.9853 19.5604 15.7598 19.6574 15.5736 19.81C15.3068 20.0043 15.0257 20.1781 14.7327 20.33C14.1167 20.6755 13.4344 20.8868 12.7307 20.95C12.2459 21.0167 11.7541 21.0167 11.2693 20.95C10.5656 20.8868 9.88332 20.6755 9.26727 20.33C8.97426 20.1781 8.69318 20.0043 8.42643 19.81C8.2402 19.6574 8.01469 19.5604 7.77578 19.53C7.39762 19.53 7.16403 19.6431 6.92606 19.7584C6.679 19.8781 6.42721 20 6.004 20C5.45117 20 5.003 19.5523 5.003 19C5.003 18.41 4.3023 18 3.001 18C2.44816 18 2 17.5523 2 17C2 16.4477 2.44816 16 3.001 16C5.33333 16 6.004 13.27 6.004 13.15C6.004 12.8345 5.51256 12.5958 4.92729 12.3117C4.06579 11.8933 3.001 11.3763 3.001 10.37C2.99831 10.0058 3.14193 9.65581 3.3997 9.3983C3.65746 9.14079 4.00784 8.99731 4.37237 9C4.81841 9 5.15011 9.23238 5.39716 9.40547C5.54376 9.50817 5.66056 9.59 5.75375 9.59C5.89196 9.59 6.004 9.47807 6.004 9.34V9C6.004 5.68629 8.69298 3 12.01 3C15.327 3 18.016 5.68629 18.016 9V9.34C18.0211 9.47037 18.1258 9.57488 18.2563 9.58C18.3635 9.58 18.4853 9.49516 18.6358 9.39038C18.8787 9.22119 19.1964 9 19.6476 9C20.0122 8.99731 20.3626 9.14079 20.6203 9.3983C20.8781 9.65581 21.0217 10.0058 21.019 10.37C21.019 11.3588 19.9911 11.8512 19.138 12.2598C18.533 12.5496 18.016 12.7973 18.016 13.15ZM17.6557 16.82V16.77C17.6936 16.6862 17.6778 16.5878 17.6156 16.52C16.7159 15.6137 16.1512 14.429 16.014 13.16V9C16.014 6.79086 14.2214 5 12.01 5C9.79866 5 8.00601 6.79086 8.00601 9V13.16C7.85349 14.4287 7.28303 15.6107 6.38438 16.52C6.33509 16.5961 6.33509 16.6939 6.38438 16.77V16.82C6.41761 16.8902 6.48691 16.9364 6.56456 16.94C7.80396 17.0633 8.60249 17.5662 9.36145 18.0443C10.1411 18.5353 10.8789 19 12.01 19C13.1386 19 13.8758 18.5373 14.6561 18.0475C15.4191 17.5685 16.2234 17.0636 17.4755 16.94C17.5531 16.9364 17.6224 16.8902 17.6557 16.82Z" fill="currentColor" fill-rule="evenodd" clip-rule="evenodd" />
</svg>
