<svg xmlns="http://www.w3.org/2000/svg" viewBox="0 0 24 24">
    <path d="M22 17C22 17.5523 21.5523 18 21 18C19.7 18 19 18.41 19 19C19 19.5523 18.5523 20 18 20C17.17 20 17 19.53 16.23 19.53C15.9913 19.5604 15.766 19.6574 15.58 19.81C15.3135 20.0043 15.0327 20.1781 14.74 20.33C14.1246 20.6755 13.443 20.8868 12.74 20.95C12.2556 21.0167 11.7644 21.0167 11.28 20.95C10.577 20.8868 9.89544 20.6755 9.28 20.33C8.98729 20.1781 8.70649 20.0043 8.44 19.81C8.25396 19.6574 8.02868 19.5604 7.79 19.53C7 19.53 6.83 20 6 20C5.44772 20 5 19.5523 5 19C5 18.41 4.3 18 3 18C2.44772 18 2 17.5523 2 17C2 16.4477 2.44772 16 3 16C4.49523 15.8732 5.72232 14.7647 6 13.29C6.07175 13.0534 5.95597 12.8004 5.73 12.7C4.98831 12.3591 4.27591 11.9577 3.6 11.5C3.19629 11.2267 2.96905 10.7588 3.00389 10.2725C3.03873 9.78621 3.33034 9.35546 3.76889 9.14249C4.20744 8.92952 4.72629 8.96669 5.13 9.24L5.63 9.56C5.70916 9.61101 5.81084 9.61101 5.89 9.56C5.96594 9.50919 6.00812 9.42101 6 9.33C6 9.22 6 9.11 6 9C6 5.68629 8.68629 3 12 3C15.3137 3 18 5.68629 18 9C18 9.11 18 9.22 18 9.33C17.994 9.42305 18.0402 9.51171 18.12 9.56C18.1992 9.61101 18.3008 9.61101 18.38 9.56L18.88 9.24C19.2837 8.96848 19.8016 8.93296 20.2386 9.14682C20.6756 9.36068 20.9653 9.79144 20.9986 10.2768C21.0319 10.7622 20.8037 11.2285 20.4 11.5C19.7241 11.9577 19.0117 12.3591 18.27 12.7C18.044 12.8004 17.9282 13.0534 18 13.29C18.2777 14.7647 19.5048 15.8732 21 16C21.5523 16 22 16.4477 22 17Z" fill="currentColor" />
</svg>
