<svg xmlns="http://www.w3.org/2000/svg" viewBox="0 0 24 24">
    <path d="M22 11.9863C21.9707 6.76473 17.9617 2.4369 12.7778 2.03081C7.59398 1.62472 2.96516 5.27588 2.12998 10.4297C2.0894 10.6536 2.21031 10.8755 2.41998 10.962L6.81998 12.9704C7.32142 12.4104 8.01355 12.0593 8.75998 11.9863C8.91522 11.9802 9.05746 11.8975 9.13998 11.7654L9.93998 10.5502C10.0058 10.4494 10.0342 10.3285 10.02 10.2088C10.0088 10.1323 10.0021 10.0551 9.99998 9.97781C9.99998 7.75932 11.7908 5.96087 14 5.96087C16.2091 5.96087 18 7.75932 18 9.97781C18 12.1963 16.2091 13.9948 14 13.9948H13.76C13.6408 13.9805 13.5204 14.009 13.42 14.0751L12.21 14.8785C12.0783 14.9614 11.996 15.1042 11.99 15.2601C11.8587 16.8739 10.4807 18.0949 8.86984 18.0247C7.259 17.9545 5.99151 16.6182 5.99998 14.999V14.768L2.44998 13.1813C2.36852 13.142 2.27197 13.1519 2.20018 13.2071C2.12838 13.2622 2.09352 13.3532 2.10998 13.4424C2.88338 18.6365 7.5113 22.3549 12.7271 21.9731C17.9429 21.5912 21.9849 17.238 22 11.9863ZM8.99998 16.0032C9.55226 16.0032 9.99998 15.5536 9.99998 14.999C9.99998 14.4444 9.55226 13.9948 8.99998 13.9948C8.44769 13.9948 7.99998 14.4444 7.99998 14.999C7.99998 15.5536 8.44769 16.0032 8.99998 16.0032ZM16 9.97781C16 11.0871 15.1045 11.9863 14 11.9863C12.8954 11.9863 12 11.0871 12 9.97781C12 8.86856 12.8954 7.96934 14 7.96934C15.1045 7.96934 16 8.86856 16 9.97781Z" fill="currentColor" fill-rule="evenodd" clip-rule="evenodd" />
</svg>
