<svg xmlns="http://www.w3.org/2000/svg" viewBox="0 0 24 24">
    <path d="M12 19L10.59 20.41C10.2142 20.788 9.70304 21.0004 9.17 21H8C7.44772 21 7 20.5523 7 20V19H4C3.44772 19 3 18.5523 3 18V7.73C3.0058 7.24863 3.09373 6.77178 3.26 6.32L4.26 3.65C4.40518 3.26141 4.77519 3.0028 5.19 3H20C20.5523 3 21 3.44772 21 4V13.17C21.0004 13.703 20.788 14.2142 20.41 14.59L16.59 18.41C16.2142 18.788 15.703 19.0004 15.17 19H12ZM6 5V16H9V18H10.17L12.17 16H16.17L19 13.17V5H6ZM10.5 13H11.5C11.7761 13 12 12.7761 12 12.5V8.5C12 8.22386 11.7761 8 11.5 8H10.5C10.2239 8 10 8.22386 10 8.5V12.5C10 12.7761 10.2239 13 10.5 13ZM16.5 13H15.5C15.2239 13 15 12.7761 15 12.5V8.5C15 8.22386 15.2239 8 15.5 8H16.5C16.7761 8 17 8.22386 17 8.5V12.5C17 12.7761 16.7761 13 16.5 13Z" fill="currentColor" fill-rule="evenodd" clip-rule="evenodd" />
</svg>
