<svg xmlns="http://www.w3.org/2000/svg" viewBox="0 0 24 24">
    <path d="M3 10.5C3 4.24 5.37 2 12 2C18.63 2 21 4.24 21 10.5C21 16.76 18.63 19 12 19H11.34L8.14 21.87C8.0491 21.9514 7.93201 21.9975 7.81 22H7.5C7.22386 22 7 21.7761 7 21.5V18.3C4.13 17.22 3 14.81 3 10.5ZM11.94 8.17C11.8182 8.26233 11.7476 8.40716 11.75 8.56V9.07C11.75 9.29222 11.8967 9.48778 12.11 9.55C12.5127 9.67216 12.8278 9.98729 12.95 10.39C13.0122 10.6033 13.2078 10.75 13.43 10.75H13.94C14.0928 10.7524 14.2377 10.6818 14.33 10.56C14.431 10.4453 14.4685 10.2879 14.43 10.14C14.1973 9.10834 13.3917 8.30269 12.36 8.07C12.2121 8.03148 12.0547 8.06896 11.94 8.17ZM15.43 14.56C15.1923 14.935 14.8424 15.2254 14.43 15.39C14.1396 15.5151 13.8104 15.5151 13.52 15.39C11.0523 14.4041 9.00745 12.5856 7.74 10.25C7.48789 9.74284 7.26421 9.22203 7.07 8.69C7.03696 8.57549 7.01355 8.45841 7 8.34C7.03025 7.59673 7.58426 6.97977 8.32 6.87H8.51C8.69293 6.88028 8.8664 6.95462 9 7.08C9.51097 7.56628 9.92794 8.14257 10.23 8.78C10.3636 9.02751 10.3004 9.33523 10.08 9.51L9.93 9.64C9.70083 9.75113 9.5327 9.95814 9.47093 10.2052C9.40916 10.4523 9.46009 10.7141 9.61 10.92C10.0672 11.875 10.8721 12.6191 11.86 13C12.1117 13.1158 12.4098 13.0505 12.59 12.84L12.66 12.75C13.06 12.08 13.66 12.15 14.18 12.53L15.18 13.3C15.75 13.7 15.75 14.06 15.43 14.59V14.56ZM16.47 10.73C16.6154 10.7313 16.7541 10.6692 16.85 10.56V10.58C16.9553 10.4828 17.0105 10.3429 17 10.2C16.7471 7.71655 14.7835 5.75292 12.3 5.5C12.1618 5.48167 12.0226 5.52562 11.92 5.62C11.8108 5.71593 11.7487 5.85464 11.75 6V6.5C11.7526 6.75265 11.9397 6.96533 12.19 7C13.9262 7.18932 15.3002 8.55502 15.5 10.29C15.5347 10.5403 15.7474 10.7274 16 10.73H16.47Z" fill="currentColor" fill-rule="evenodd" clip-rule="evenodd" />
</svg>
