<svg xmlns="http://www.w3.org/2000/svg" viewBox="0 0 24 24">
    <path d="M6.15005 12.1399L6.85005 12.8499C6.94394 12.9446 7.07174 12.9978 7.20505 12.9978C7.33837 12.9978 7.46617 12.9446 7.56005 12.8499L12.0001 8.39995L16.4401 12.8499C16.6345 13.0405 16.9456 13.0405 17.1401 12.8499L17.8501 12.1399C17.9467 12.0492 18.0016 11.9225 18.0016 11.7899C18.0016 11.6574 17.9467 11.5307 17.8501 11.4399L12.7201 6.28995C12.5783 6.15106 12.3885 6.07225 12.1901 6.06995H11.8101C11.6112 6.07012 11.4206 6.14925 11.2801 6.28995L6.15005 11.4399C6.05338 11.5307 5.99854 11.6574 5.99854 11.7899C5.99854 11.9225 6.05338 12.0492 6.15005 12.1399ZM6.00005 17.4999V16.4999C6.00005 16.2238 6.22391 15.9999 6.50005 15.9999H17.5001C17.7762 15.9999 18.0001 16.2238 18.0001 16.4999V17.4999C18.0001 17.7761 17.7762 17.9999 17.5001 17.9999H6.50005C6.22391 17.9999 6.00005 17.7761 6.00005 17.4999Z" fill="currentColor" fill-rule="evenodd" clip-rule="evenodd" />
</svg>
