<svg xmlns="http://www.w3.org/2000/svg" viewBox="0 0 24 24">
    <path d="M21 6.5C21 6.22386 20.7761 6 20.5 6H19.5C19.2239 6 19 6.22386 19 6.5V11H6.33L9.77 7.56C9.86406 7.46784 9.91707 7.34169 9.91707 7.21C9.91707 7.07831 9.86406 6.95216 9.77 6.86L9.06 6.15C8.96612 6.05534 8.83832 6.0021 8.705 6.0021C8.57168 6.0021 8.44388 6.05534 8.35 6.15L3.22 11.28C3.08112 11.4217 3.0023 11.6116 3 11.81V12.19C3.00018 12.3888 3.07931 12.5795 3.22 12.72L8.36 17.85C8.45388 17.9447 8.58168 17.9979 8.715 17.9979C8.84832 17.9979 8.97612 17.9447 9.07 17.85L9.78 17.15C9.87466 17.0561 9.9279 16.9283 9.9279 16.795C9.9279 16.6617 9.87466 16.5339 9.78 16.44L6.33 13H19C20.1046 13 21 12.1046 21 11V6.5Z" fill="currentColor" />
</svg>
