<svg xmlns="http://www.w3.org/2000/svg" viewBox="0 0 24 24">
    <path d="M22 18.5V17.5C22.0008 17.2388 21.8004 17.0209 21.54 17H16.54L9.17 5.89001C8.79778 5.3321 8.17068 4.9979 7.5 5.00001H2.5C2.22386 5.00001 2 5.22387 2 5.50001V6.50001C1.99917 6.76126 2.19959 6.97911 2.46 7.00001H7.46L14.83 18.11C15.2022 18.6679 15.8293 19.0021 16.5 19H21.5C21.7761 19 22 18.7762 22 18.5ZM16.5 5.00001H21.5C21.7761 5.00001 22 5.22387 22 5.50001V6.50001C22 6.77615 21.7761 7.00001 21.5 7.00001H16.5C16.2239 7.00001 16 6.77615 16 6.50001V5.50001C16 5.22387 16.2239 5.00001 16.5 5.00001Z" fill="currentColor" fill-rule="evenodd" clip-rule="evenodd" />
</svg>
