<svg xmlns="http://www.w3.org/2000/svg" viewBox="0 0 24 24">
    <path d="M11.5 5H12.5C12.7761 5 13 4.77614 13 4.5V2.5C13 2.22386 12.7761 2 12.5 2H11.5C11.2239 2 11 2.22386 11 2.5V4.5C11 4.77614 11.2239 5 11.5 5ZM7 12C7 9.23858 9.23858 7 12 7C14.7614 7 17 9.23858 17 12C17 14.7614 14.7614 17 12 17C9.23858 17 7 14.7614 7 12ZM15 12C15 10.3431 13.6569 9 12 9C10.3431 9 9 10.3431 9 12C9 13.6569 10.3431 15 12 15C13.6569 15 15 13.6569 15 12ZM11 19.5C11 19.2239 11.2239 19 11.5 19H12.5C12.7761 19 13 19.2239 13 19.5V21.5C13 21.7761 12.7761 22 12.5 22H11.5C11.2239 22 11 21.7761 11 21.5V19.5ZM21.5 11H19.5C19.2239 11 19 11.2239 19 11.5V12.5C19 12.7761 19.2239 13 19.5 13H21.5C21.7761 13 22 12.7761 22 12.5V11.5C22 11.2239 21.7761 11 21.5 11ZM5 11.5V12.5C5 12.7761 4.77614 13 4.5 13H2.5C2.22386 13 2 12.7761 2 12.5V11.5C2 11.2239 2.22386 11 2.5 11H4.5C4.77614 11 5 11.2239 5 11.5ZM17.3 7.4C17.3939 7.49466 17.5217 7.5479 17.655 7.5479C17.7883 7.5479 17.9161 7.49466 18.01 7.4L19.42 6C19.5147 5.90612 19.5679 5.77832 19.5679 5.645C19.5679 5.51168 19.5147 5.38388 19.42 5.29L18.72 4.59C18.6261 4.49534 18.4983 4.4421 18.365 4.4421C18.2317 4.4421 18.1039 4.49534 18.01 4.59L16.6 6C16.5053 6.09388 16.4521 6.22168 16.4521 6.355C16.4521 6.48832 16.5053 6.61612 16.6 6.71L17.3 7.4ZM6.345 16.4521C6.47832 16.4521 6.60612 16.5053 6.7 16.6L7.4 17.29C7.49466 17.3839 7.5479 17.5117 7.5479 17.645C7.5479 17.7783 7.49466 17.9061 7.4 18L5.99 19.41C5.89612 19.5047 5.76832 19.5579 5.635 19.5579C5.50168 19.5579 5.37388 19.5047 5.28 19.41L4.58 18.71C4.48534 18.6161 4.4321 18.4883 4.4321 18.355C4.4321 18.2217 4.48534 18.0939 4.58 18L5.99 16.6C6.08388 16.5053 6.21168 16.4521 6.345 16.4521ZM18 16.6C17.9061 16.5053 17.7783 16.4521 17.645 16.4521C17.5117 16.4521 17.3839 16.5053 17.29 16.6L16.59 17.3C16.4953 17.3939 16.4421 17.5217 16.4421 17.655C16.4421 17.7883 16.4953 17.9161 16.59 18.01L18 19.42C18.0939 19.5147 18.2217 19.5679 18.355 19.5679C18.4883 19.5679 18.6161 19.5147 18.71 19.42L19.41 18.72C19.5047 18.6261 19.5579 18.4983 19.5579 18.365C19.5579 18.2317 19.5047 18.1039 19.41 18.01L18 16.6ZM6.355 7.5479C6.22168 7.5479 6.09388 7.49466 6 7.4L4.59 5.99C4.49534 5.89612 4.4421 5.76832 4.4421 5.635C4.4421 5.50168 4.49534 5.37388 4.59 5.28L5.29 4.58C5.38388 4.48534 5.51168 4.4321 5.645 4.4321C5.77832 4.4321 5.90612 4.48534 6 4.58L7.4 6C7.59338 6.19169 7.59782 6.50287 7.41 6.7L6.71 7.4C6.61612 7.49466 6.48832 7.5479 6.355 7.5479Z" fill="currentColor" fill-rule="evenodd" clip-rule="evenodd" />
</svg>
