<svg xmlns="http://www.w3.org/2000/svg" viewBox="0 0 24 24">
    <path d="M11 3.5V4.5C11 4.77614 11.2239 5 11.5 5H12.5C12.7761 5 13 4.77614 13 4.5V3.5C13 3.22386 12.7761 3 12.5 3H11.5C11.2239 3 11 3.22386 11 3.5ZM12.5 19C12.7761 19 13 19.2239 13 19.5V20.5C13 20.7761 12.7761 21 12.5 21H11.5C11.2239 21 11 20.7761 11 20.5V19.5C11 19.2239 11.2239 19 11.5 19H12.5ZM20.5 11H19.5C19.2239 11 19 11.2239 19 11.5V12.5C19 12.7761 19.2239 13 19.5 13H20.5C20.7761 13 21 12.7761 21 12.5V11.5C21 11.2239 20.7761 11 20.5 11ZM3.5 11H4.5C4.77614 11 5 11.2239 5 11.5V12.5C5 12.7761 4.77614 13 4.5 13H3.5C3.22386 13 3 12.7761 3 12.5V11.5C3 11.2239 3.22386 11 3.5 11ZM18 5.28C17.8022 5.08822 17.4878 5.08822 17.29 5.28L16.6 6C16.5053 6.09388 16.4521 6.22168 16.4521 6.355C16.4521 6.48832 16.5053 6.61612 16.6 6.71L17.3 7.41C17.3939 7.50466 17.5217 7.5579 17.655 7.5579C17.7883 7.5579 17.9161 7.50466 18.01 7.41L18.72 6.71C18.9118 6.51219 18.9118 6.19781 18.72 6L18 5.28ZM6.345 16.4521C6.47832 16.4521 6.60612 16.5053 6.7 16.6L7.4 17.29C7.49466 17.3839 7.5479 17.5117 7.5479 17.645C7.5479 17.7783 7.49466 17.9061 7.4 18L6.7 18.72C6.50219 18.9118 6.18781 18.9118 5.99 18.72L5.28 18.01C5.08822 17.8122 5.08822 17.4978 5.28 17.3L5.99 16.6C6.08388 16.5053 6.21168 16.4521 6.345 16.4521ZM18 16.6C17.9061 16.5053 17.7783 16.4521 17.645 16.4521C17.5117 16.4521 17.3839 16.5053 17.29 16.6L16.59 17.3C16.4953 17.3939 16.4421 17.5217 16.4421 17.655C16.4421 17.7883 16.4953 17.9161 16.59 18.01L17.29 18.72C17.4878 18.9118 17.8022 18.9118 18 18.72L18.71 18.01C18.9018 17.8122 18.9018 17.4978 18.71 17.3L18 16.6ZM6.355 7.5479C6.22168 7.5479 6.09388 7.49466 6 7.4L5.28 6.71C5.08822 6.51219 5.08822 6.19781 5.28 6L5.99 5.29C6.18781 5.09822 6.50219 5.09822 6.7 5.29L7.4 6C7.59338 6.19169 7.59782 6.50287 7.41 6.7L6.71 7.4C6.61612 7.49466 6.48832 7.5479 6.355 7.5479ZM12 9C10.3431 9 9 10.3431 9 12C9 13.6569 10.3431 15 12 15C13.6569 15 15 13.6569 15 12C15 10.3431 13.6569 9 12 9ZM17 12C17 9.23858 14.7614 7 12 7C9.23858 7 7 9.23858 7 12C7 14.7614 9.23858 17 12 17C14.7614 17 17 14.7614 17 12Z" fill="currentColor" fill-rule="evenodd" clip-rule="evenodd" />
</svg>
