<svg xmlns="http://www.w3.org/2000/svg" viewBox="0 0 24 24">
    <path d="M3 1H17C18.1046 1 19 1.89543 19 3V17C19 18.1046 18.1046 19 17 19H3C1.89543 19 1 18.1046 1 17V3C1 1.89543 1.89543 1 3 1ZM17 14.82C17.0027 14.9543 16.9512 15.0841 16.8571 15.18C16.7631 15.276 16.6344 15.33 16.5 15.33C16.3475 15.3308 16.2034 15.2606 16.11 15.14L12.11 10.14C12.0166 10.0194 11.8725 9.9492 11.72 9.95C11.5672 9.94762 11.4223 10.0182 11.33 10.14L9.08 13.07C8.98767 13.1918 8.84284 13.2624 8.69 13.26C8.53299 13.2585 8.38544 13.1847 8.29 13.06L7.29 11.7C7.18958 11.576 7.0395 11.5028 6.88 11.5C6.72299 11.5015 6.57544 11.5753 6.48 11.7L3.9 15.13C3.80776 15.2585 3.65814 15.3333 3.5 15.33C3.36657 15.3328 3.23778 15.281 3.14341 15.1866C3.04904 15.0922 2.99725 14.9634 3 14.83V3H17V14.82ZM7.5 6C6.67157 6 6 6.67157 6 7.5C6 8.32843 6.67157 9 7.5 9C8.32843 9 9 8.32843 9 7.5C9 6.67157 8.32843 6 7.5 6ZM21 19V5C22.1046 5 23 5.89543 23 7V19C23 21.2091 21.2091 23 19 23H7C5.89543 23 5 22.1046 5 21H19C20.1046 21 21 20.1046 21 19Z" fill="currentColor" fill-rule="evenodd" clip-rule="evenodd" />
</svg>
