<svg xmlns="http://www.w3.org/2000/svg" viewBox="0 0 24 24">
    <path d="M20 4H4C2.89543 4 2 4.89543 2 6V18C2 19.1046 2.89543 20 4 20H20C21.1046 20 22 19.1046 22 18V6C22 4.89543 21.1046 4 20 4ZM20 16.83C20.0028 16.9634 19.951 17.0922 19.8566 17.1866C19.7622 17.281 19.6334 17.3328 19.5 17.33C19.3419 17.3333 19.1922 17.2585 19.1 17.13L14.65 11.2C14.5533 11.0777 14.4059 11.0064 14.25 11.0064C14.0941 11.0064 13.9467 11.0777 13.85 11.2L11 14.91C10.9046 15.0347 10.757 15.1085 10.6 15.11C10.4527 15.1102 10.3132 15.0441 10.22 14.93L8.74 13.18C8.64371 13.0644 8.50046 12.9983 8.35 13C8.19853 13.0035 8.05611 13.0729 7.96 13.19L4.89 17.13C4.79767 17.2518 4.65284 17.3224 4.5 17.32C4.36657 17.3228 4.23778 17.271 4.14341 17.1766C4.04904 17.0822 3.99725 16.9534 4 16.82V6H20V16.83ZM9.5 8C8.67157 8 8 8.67157 8 9.5C8 10.3284 8.67157 11 9.5 11C10.3284 11 11 10.3284 11 9.5C11 8.67157 10.3284 8 9.5 8Z" fill="currentColor" fill-rule="evenodd" clip-rule="evenodd" />
</svg>
