<svg xmlns="http://www.w3.org/2000/svg" viewBox="0 0 24 24">
    <path d="M21 5C21 3.89543 20.1046 3 19 3H5C3.89543 3 3 3.89543 3 5V19C3 20.1046 3.89543 21 5 21H19C20.1046 21 21 20.1046 21 19V5ZM19 16.82C19.0027 16.9543 18.9512 17.0841 18.8571 17.18C18.7631 17.276 18.6344 17.33 18.5 17.33C18.3475 17.3308 18.2034 17.2606 18.11 17.14L14.11 12.14C14.0166 12.0194 13.8725 11.9492 13.72 11.95C13.5672 11.9476 13.4223 12.0182 13.33 12.14L11.04 15.02C10.9477 15.1418 10.8028 15.2124 10.65 15.21C10.493 15.2085 10.3454 15.1347 10.25 15.01L9.25 13.65C9.14958 13.526 8.9995 13.4528 8.84 13.45C8.68299 13.4515 8.53544 13.5253 8.44 13.65L5.9 17.13C5.80776 17.2585 5.65814 17.3333 5.5 17.33C5.36657 17.3328 5.23778 17.281 5.14341 17.1866C5.04904 17.0922 4.99725 16.9634 5 16.83V5H19V16.82ZM11 9.5C11 10.3284 10.3284 11 9.5 11C8.67157 11 8 10.3284 8 9.5C8 8.67157 8.67157 8 9.5 8C10.3284 8 11 8.67157 11 9.5Z" fill="currentColor" fill-rule="evenodd" clip-rule="evenodd" />
</svg>
