<svg xmlns="http://www.w3.org/2000/svg" viewBox="0 0 24 24">
    <path d="M16 5H4C2.89543 5 2 5.89543 2 7V17C2 18.1046 2.89543 19 4 19H16C17.1046 19 18 18.1046 18 17V14L20.71 16.71C20.8963 16.8947 21.1477 16.9989 21.41 17H21.5C21.7761 17 22 16.7761 22 16.5V7.5C22 7.22386 21.7761 7 21.5 7H21.41C21.1477 7.0011 20.8963 7.10526 20.71 7.29L18 10V7C18 5.89543 17.1046 5 16 5ZM16 7V17H4V7H16ZM6 10.38C6 10.6561 6.22386 10.88 6.5 10.88H10.5C10.7761 10.88 11 10.6561 11 10.38V9.62C11 9.34386 10.7761 9.12 10.5 9.12H6.5C6.22386 9.12 6 9.34386 6 9.62V10.38Z" fill="currentColor" fill-rule="evenodd" clip-rule="evenodd" />
</svg>
