<svg xmlns="http://www.w3.org/2000/svg" viewBox="0 0 24 24">
    <path d="M12 2C8.13401 2 5 5.13401 5 9V15C5 18.866 8.13401 22 12 22C15.866 22 19 18.866 19 15V9C19 5.13401 15.866 2 12 2ZM17 15C17 17.7614 14.7614 20 12 20C9.23858 20 7 17.7614 7 15V9C7 6.23858 9.23858 4 12 4C14.7614 4 17 6.23858 17 9V15ZM11 7.5C11 7.22386 11.2239 7 11.5 7H12.5C12.7761 7 13 7.22386 13 7.5V10.5C13 10.7761 12.7761 11 12.5 11H11.5C11.2239 11 11 10.7761 11 10.5V7.5Z" fill="currentColor" fill-rule="evenodd" clip-rule="evenodd" />
</svg>
