<svg xmlns="http://www.w3.org/2000/svg" viewBox="0 0 24 24">
    <path d="M13 6.09V5H13.5C14.3284 5 15 4.32843 15 3.5V2.5C15 2.22386 14.7761 2 14.5 2H13.5C13.2239 2 13 2.22386 13 2.5V3H12.5C11.6716 3 11 3.67157 11 4.5V6.09C8.1154 6.57759 6.00296 9.07448 6 12V16C6 19.3137 8.68629 22 12 22C15.3137 22 18 19.3137 18 16V12C17.997 9.07448 15.8846 6.57759 13 6.09ZM16 16C16 18.2091 14.2091 20 12 20C9.79086 20 8 18.2091 8 16V12C8 9.79086 9.79086 8 12 8C14.2091 8 16 9.79086 16 12V16ZM11 10.5C11 10.2239 11.2239 10 11.5 10H12.5C12.7761 10 13 10.2239 13 10.5V12.5C13 12.7761 12.7761 13 12.5 13H11.5C11.2239 13 11 12.7761 11 12.5V10.5Z" fill="currentColor" fill-rule="evenodd" clip-rule="evenodd" />
</svg>
