<svg xmlns="http://www.w3.org/2000/svg" viewBox="0 0 24 24">
    <path d="M17 8H19.5C19.7761 8 20 8.22386 20 8.5V9.5C20 9.77614 19.7761 10 19.5 10H19V12.34C18.9929 13.3908 18.5726 14.3966 17.83 15.14L15.88 17.14C15.375 17.6404 14.7088 17.9451 14 18V21.5C14 21.7761 13.7761 22 13.5 22H10.5C10.2239 22 10 21.7761 10 21.5V18C9.29516 17.9533 8.62941 17.6594 8.12 17.17L6.17 15.17C5.42005 14.4192 4.99917 13.4012 5 12.34V10H4.5C4.22386 10 4 9.77614 4 9.5V8.5C4 8.22386 4.22386 8 4.5 8H7V2.5C7 2.22386 7.22386 2 7.5 2H8.5C8.77614 2 9 2.22386 9 2.5V8H15V2.5C15 2.22386 15.2239 2 15.5 2H16.5C16.7761 2 17 2.22386 17 2.5V8ZM16.41 13.76C16.788 13.3842 17.0004 12.873 17 12.34V10H7V12.34C6.99958 12.873 7.21196 13.3842 7.59 13.76L9.39 15.56C9.67103 15.8414 10.0523 15.9997 10.45 16H13.55C13.9477 15.9997 14.329 15.8414 14.61 15.56L16.41 13.76Z" fill="currentColor" fill-rule="evenodd" clip-rule="evenodd" />
</svg>
