<svg xmlns="http://www.w3.org/2000/svg" viewBox="0 0 24 24">
    <path d="M19 11V3C19 2.44772 18.5523 2 18 2H6C5.44772 2 5 2.44772 5 3V11C4.44772 11 4 11.4477 4 12V17.34C3.99917 18.4012 4.42005 19.4192 5.17 20.17L5.83 20.83C6.58079 21.58 7.59882 22.0008 8.66 22H15.34C16.4012 22.0008 17.4192 21.58 18.17 20.83L18.83 20.17C19.58 19.4192 20.0008 18.4012 20 17.34V12C20 11.4477 19.5523 11 19 11ZM7 4H17V11H7V4ZM17.41 18.76C17.788 18.3842 18.0004 17.873 18 17.34V13H6V17.34C5.99958 17.873 6.21196 18.3842 6.59 18.76L7.24 19.41C7.6158 19.788 8.12696 20.0004 8.66 20H15.34C15.873 20.0004 16.3842 19.788 16.76 19.41L17.41 18.76ZM10.5 6H9.5C9.22386 6 9 6.22386 9 6.5V7.5C9 7.77614 9.22386 8 9.5 8H10.5C10.7761 8 11 7.77614 11 7.5V6.5C11 6.22386 10.7761 6 10.5 6ZM13.5 6H14.5C14.7761 6 15 6.22386 15 6.5V7.5C15 7.77614 14.7761 8 14.5 8H13.5C13.2239 8 13 7.77614 13 7.5V6.5C13 6.22386 13.2239 6 13.5 6Z" fill="currentColor" fill-rule="evenodd" clip-rule="evenodd" />
</svg>
