<svg xmlns="http://www.w3.org/2000/svg" viewBox="0 0 24 24">
    <path d="M19 2H7C5.34315 2 4 3.34315 4 5V19C4 20.6569 5.34315 22 7 22H19.5C19.7761 22 20 21.7761 20 21.5V3C20 2.44772 19.5523 2 19 2ZM6 19C6 18.4477 6.44772 18 7 18H18V20H7C6.44772 20 6 19.5523 6 19ZM11.7371 11.946C11.9009 11.8578 12.0021 11.686 12 11.5V4.5C12 4.22386 11.7761 4 11.5 4H6.5C6.22386 4 6 4.22386 6 4.5V11.5C5.99785 11.686 6.09914 11.8578 6.26292 11.946C6.4267 12.0342 6.6259 12.0242 6.78 11.92L8.72 10.62C8.89073 10.5109 9.10927 10.5109 9.28 10.62L11.22 11.92C11.3741 12.0242 11.5733 12.0342 11.7371 11.946Z" fill="currentColor" fill-rule="evenodd" clip-rule="evenodd" />
</svg>
