<svg xmlns="http://www.w3.org/2000/svg" viewBox="0 0 24 24">
    <path d="M7 2H19C19.5523 2 20 2.44772 20 3V21.5C20 21.7761 19.7761 22 19.5 22H7C5.34315 22 4 20.6569 4 19V5C4 3.34315 5.34315 2 7 2ZM7.5 6C7.22386 6 7 6.22386 7 6.5V7.5C7 7.77614 7.22386 8 7.5 8H16.5C16.7761 8 17 7.77614 17 7.5V6.5C17 6.22386 16.7761 6 16.5 6H7.5ZM7 10.5C7 10.2239 7.22386 10 7.5 10H12.5C12.7761 10 13 10.2239 13 10.5V11.5C13 11.7761 12.7761 12 12.5 12H7.5C7.22386 12 7 11.7761 7 11.5V10.5ZM7 18C6.44772 18 6 18.4477 6 19C6 19.5523 6.44772 20 7 20H18V18H7Z" fill="currentColor" fill-rule="evenodd" clip-rule="evenodd" />
</svg>
