<svg xmlns="http://www.w3.org/2000/svg" viewBox="0 0 24 24">
    <path d="M18 2H6C4.89543 2 4 2.89543 4 4V20C4 21.1046 4.89543 22 6 22H12.76C13.5554 21.9993 14.3179 21.6828 14.88 21.12L19.12 16.88C19.6828 16.3179 19.9993 15.5554 20 14.76V4C20 2.89543 19.1046 2 18 2ZM18 14H13C12.4477 14 12 14.4477 12 15V20H10V16V14V12H14H16H18V14ZM14 10V8H10V10H14ZM16 8V10H18V8H16ZM16 6V4H18V6H16ZM14 6V4H10V6H14ZM8 16V20H6V16H8ZM8 12V14H6V12H8ZM8 10V8H6V10H8ZM8 6V4H6V6H8Z" fill="currentColor" fill-rule="evenodd" clip-rule="evenodd" />
</svg>
