<svg xmlns="http://www.w3.org/2000/svg" viewBox="0 0 24 24">
    <path d="M21.9978 7V11.5C21.9978 11.7761 21.774 12 21.4978 12H20.4979C20.2217 12 19.9978 11.7761 19.9978 11.5V9.42L13.6278 15.78C13.4873 15.9207 13.2967 15.9998 13.0978 16H12.8978C12.699 15.9998 12.5083 15.9207 12.3678 15.78L7.9979 11.41C7.90324 11.3161 7.85 11.1883 7.85 11.055C7.85 10.9217 7.90324 10.7939 7.9979 10.7L8.6979 10C8.79178 9.90534 8.91958 9.8521 9.0529 9.8521C9.18622 9.8521 9.31402 9.90534 9.4079 10L12.9978 13.59L18.5878 8H16.4978C16.2217 8 15.9978 7.77614 15.9978 7.5V6.5C15.9978 6.22386 16.2217 6 16.4978 6H20.9978C21.1967 6.00017 21.3873 6.07931 21.5278 6.22L21.7978 6.49C21.9264 6.6287 21.9979 6.81086 21.9978 7Z" fill="currentColor" />
    <path d="M11.59 4H4C2.89543 4 2 4.89543 2 6V18C2 19.1046 2.89543 20 4 20H20C21.1046 20 22 19.1046 22 18L21.9978 13.5C21.9978 13.7761 21.774 14 21.4978 14H20.4979C20.2375 14 20.0235 13.8009 20 13.5467V18H4V6H11.17L12.3 7.12C12.8596 7.68033 13.6181 7.99666 14.41 8H14.4978C14.2217 8 13.9978 7.77614 13.9978 7.5V6.5C13.9978 6.22386 14.2217 6 14.4978 6H14.41C14.1477 5.9989 13.8963 5.89474 13.71 5.71L12.29 4.29C12.1037 4.10526 11.8523 4.0011 11.59 4Z" fill="currentColor" />
</svg>
