<svg xmlns="http://www.w3.org/2000/svg" viewBox="0 0 24 24">
    <path d="M20 6H14.41C14.1477 5.9989 13.8963 5.89474 13.71 5.71L12.29 4.29C12.1037 4.10526 11.8523 4.0011 11.59 4H4C2.89543 4 2 4.89543 2 6V18C2 19.1046 2.89543 20 4 20H20C21.1046 20 22 19.1046 22 18V8C22 6.89543 21.1046 6 20 6ZM11 16.5C11 16.7761 10.7761 17 10.5 17H5.5C5.22386 17 5 16.7761 5 16.5V15.5C5 15.2239 5.22386 15 5.5 15H10.5C10.7761 15 11 15.2239 11 15.5V16.5ZM12.5 13C12.7761 13 13 12.7761 13 12.5V11.5C13 11.2239 12.7761 11 12.5 11H5.5C5.22386 11 5 11.2239 5 11.5V12.5C5 12.7761 5.22386 13 5.5 13H12.5Z" fill="currentColor" fill-rule="evenodd" clip-rule="evenodd" />
</svg>
