<svg xmlns="http://www.w3.org/2000/svg" viewBox="0 0 24 24">
    <path d="M20 6H14.83C14.297 6.00042 13.7858 5.78804 13.41 5.41L12.59 4.59C12.2142 4.21196 11.703 3.99958 11.17 4H4C2.89543 4 2 4.89543 2 6V18C2 19.1046 2.89543 20 4 20H20C21.1046 20 22 19.1046 22 18V8C22 6.89543 21.1046 6 20 6ZM9 9C10.1046 9 11 9.89543 11 11C11 12.1046 10.1046 13 9 13C7.89543 13 7 12.1046 7 11C7 9.89543 7.89543 9 9 9ZM5.075 16.765C5.16656 16.9115 5.32725 17.0003 5.5 17H12.5C12.6815 17.0191 12.859 16.9378 12.963 16.7879C13.0671 16.6381 13.0813 16.4434 13 16.28L12.22 14.83C11.9664 14.322 11.4478 14.0008 10.88 14H7.12C6.55225 14.0008 6.03359 14.322 5.78 14.83L5.05 16.28C4.97399 16.4351 4.98344 16.6185 5.075 16.765Z" fill="currentColor" fill-rule="evenodd" clip-rule="evenodd" />
</svg>
