<svg xmlns="http://www.w3.org/2000/svg" viewBox="0 0 24 24">
    <path d="M4 4H11.59C11.8523 4.0011 12.1037 4.10526 12.29 4.29L13.71 5.71C13.8963 5.89474 14.1477 5.9989 14.41 6H20C21.1046 6 22 6.89543 22 8V18C22 19.1046 21.1046 20 20 20H9.00037C8.08816 21.2144 6.63582 22 5 22C2.23858 22 0 19.7614 0 17C0 15.3642 0.785553 13.9118 2 12.9996V6C2 4.89543 2.89543 4 4 4ZM20 18H9.89998C9.96557 17.6769 10 17.3425 10 17C10 14.2386 7.76142 12 5 12C4.65753 12 4.32311 12.0344 4 12.1V6H11.17L12.3 7.12C12.8596 7.68033 13.6181 7.99666 14.41 8H20V18ZM2.5 16C2.22386 16 2 16.2239 2 16.5V17.5C2 17.7761 2.22386 18 2.5 18H7.5C7.77614 18 8 17.7761 8 17.5V16.5C8 16.2239 7.77614 16 7.5 16H2.5Z" fill="currentColor" fill-rule="evenodd" clip-rule="evenodd" />
</svg>
