<svg xmlns="http://www.w3.org/2000/svg" viewBox="0 0 24 24">
    <path d="M14.41 6H20C21.1046 6 22 6.89543 22 8V18C22 19.1046 21.1046 20 20 20H4C2.89543 20 2 19.1046 2 18V6C2 4.89543 2.89543 4 4 4H11.59C11.8523 4.0011 12.1037 4.10526 12.29 4.29L13.71 5.71C13.8963 5.89474 14.1477 5.9989 14.41 6ZM11.91 13.84L13.91 12.14C14.0714 12.0022 14.1282 11.7775 14.0517 11.5796C13.9752 11.3816 13.7821 11.2535 13.57 11.26L10.97 11.06L9.97 8.63C9.89146 8.44562 9.71041 8.32596 9.51 8.32596C9.30959 8.32596 9.12854 8.44562 9.05 8.63L8.05 11.06L5.44 11.26C5.2387 11.2773 5.0676 11.414 5.00634 11.6066C4.94508 11.7991 5.00571 12.0096 5.16 12.14L7.16 13.84L6.55 16.38C6.50824 16.5763 6.58544 16.7787 6.74724 16.8974C6.90904 17.0161 7.12538 17.0288 7.3 16.93L9.54 15.56L11.78 16.93C11.9533 17.0325 12.1712 17.021 12.3328 16.9009C12.4944 16.7808 12.5682 16.5755 12.52 16.38L11.91 13.84Z" fill="currentColor" fill-rule="evenodd" clip-rule="evenodd" />
</svg>
