<svg xmlns="http://www.w3.org/2000/svg" viewBox="0 0 24 24">
    <path d="M13.21 9.24C14.4432 7.88323 16.1681 7.07656 18 7C20.7614 7 23 9.23858 23 12C23 14.7614 20.7614 17 18 17C15.44 17 13.65 15.34 12 13.51C10.35 15.34 8.56 17 6 17C3.23858 17 1 14.7614 1 12C1 9.23858 3.23858 7 6 7C8.56 7 10.35 8.66 12 10.49L12.75 11.34L13.33 12C14.77 13.62 16.2 15 18 15C19.6569 15 21 13.6569 21 12C21 10.3431 19.6569 9 18 9C16.6693 9.09988 15.4307 9.71738 14.55 10.72C14.4868 10.6489 14.4423 10.6012 14.3943 10.5497C14.3209 10.471 14.2394 10.3836 14.07 10.19C13.8805 9.97348 13.6865 9.76154 13.491 9.54798C13.3976 9.44592 13.3038 9.34348 13.21 9.24ZM3 12C3 13.6569 4.34315 15 6 15C7.8 15 9.23 13.62 10.67 12C9.23 10.38 7.8 9 6 9C4.34315 9 3 10.3431 3 12Z" fill="currentColor" fill-rule="evenodd" clip-rule="evenodd" />
</svg>
