<svg xmlns="http://www.w3.org/2000/svg" viewBox="0 0 24 24">
    <path d="M12 17.1973C11.1175 17.7078 10.0928 18 9 18C5.68629 18 3 15.3137 3 12C3 8.68629 5.68629 6 9 6C10.0929 6 11.1175 6.29218 12 6.80269C12.8825 6.29218 13.9071 6 15 6C18.3137 6 21 8.68629 21 12C21 15.3137 18.3137 18 15 18C13.9072 18 12.8825 17.7078 12 17.1973C13.7933 16.1599 15 14.2209 15 12C15 9.77919 13.7934 7.84012 12 6.80269C10.2066 7.84012 9 9.77919 9 12C9 14.2209 10.2066 16.1599 12 17.1973Z" fill="currentColor" />
</svg>
