<svg xmlns="http://www.w3.org/2000/svg" viewBox="0 0 24 24">
    <path d="M12 17.1973C11.1175 17.7078 10.0928 18 9 18C5.68629 18 3 15.3137 3 12C3 8.68629 5.68629 6 9 6C10.0929 6 11.1175 6.29218 12 6.80269C12.8825 6.29218 13.9071 6 15 6C18.3137 6 21 8.68629 21 12C21 15.3137 18.3137 18 15 18C13.9072 18 12.8825 17.7078 12 17.1973ZM10.3338 15.7722C9.91666 15.9197 9.4677 16 9 16C6.79086 16 5 14.2091 5 12C5 9.79086 6.79086 8 9 8C9.46771 8 9.91667 8.08027 10.3339 8.22779C9.55181 9.19396 9.06377 10.4079 9.00582 11.7334C9.00195 11.8218 9 11.9107 9 12C9 12 9 12 9 12C9 12.0056 9.00001 12.0112 9.00002 12.0167C9.00025 12.1004 9.00219 12.1837 9.00582 12.2666C9.06376 13.5921 9.5518 14.806 10.3338 15.7722ZM13.692 15.7812C14.1019 15.923 14.5419 16 15 16C17.2091 16 19 14.2091 19 12C19 9.79086 17.2091 8 15 8C14.5323 8 14.0833 8.08028 13.6661 8.2278C14.2808 8.98714 14.7138 9.89952 14.8992 10.8988C14.9654 11.2558 15 11.6239 15 12C15 13.4664 14.564 14.7403 13.692 15.7812Z" fill="currentColor" fill-rule="evenodd" clip-rule="evenodd" />
</svg>
