<svg xmlns="http://www.w3.org/2000/svg" viewBox="0 0 24 24">
    <path d="M8.00002 11.9996C10.2092 11.9996 12 10.2088 12 7.99978C12 5.79076 10.2092 4 8.00002 4C5.79087 4 4 5.79076 4 7.99978C4 10.2088 5.79087 11.9996 8.00002 11.9996ZM8.00003 9.99977C9.1046 9.99977 10 9.10439 10 7.99988C10 6.89537 9.1046 5.99999 8.00003 5.99999C6.89545 5.99999 6.00001 6.89537 6.00001 7.99988C6.00001 9.10439 6.89545 9.99977 8.00003 9.99977Z" fill="currentColor" fill-rule="evenodd" clip-rule="evenodd" />
    <path d="M16 19.9995C18.2092 19.9995 20 18.2088 20 15.9998C20 13.7907 18.2092 12 16 12C13.7909 12 12 13.7907 12 15.9998C12 18.2088 13.7909 19.9995 16 19.9995ZM16 17.9997C17.1046 17.9997 18 17.1044 18 15.9998C18 14.8953 17.1046 14 16 14C14.8954 14 14 14.8953 14 15.9998C14 17.1044 14.8954 17.9997 16 17.9997Z" fill="currentColor" fill-rule="evenodd" clip-rule="evenodd" />
    <path d="M17.3809 6.06794C17.1856 5.87269 16.869 5.87269 16.6738 6.06794L6.06712 16.674C5.87185 16.8692 5.87185 17.1858 6.06712 17.381L6.57218 17.8861C6.76745 18.0813 7.08404 18.0813 7.27931 17.8861L17.886 7.28006C18.0812 7.08481 18.0812 6.76823 17.886 6.57298L17.3809 6.06794Z" fill="currentColor" />
</svg>
