<svg xmlns="http://www.w3.org/2000/svg" viewBox="0 0 24 24">
    <path d="M9 12C11.21 12 13.0015 10.2091 13.0015 8C13.0015 5.79086 11.21 4 9 4C6.79002 4 4.99849 5.79086 4.99849 8C4.99849 10.2091 6.79002 12 9 12ZM9 6C10.105 6 11.0008 6.89543 11.0008 8C11.0008 9.10457 10.105 10 9 10C7.89501 10 6.99924 9.10457 6.99924 8C6.99924 6.89543 7.89501 6 9 6ZM15.0023 14.66L16.893 18.55C17.049 18.8595 17.0336 19.2277 16.8522 19.5231C16.6708 19.8185 16.3494 19.999 16.0026 20H1.99735C1.65063 19.999 1.32917 19.8185 1.14779 19.5231C0.966417 19.2277 0.950987 18.8595 1.10702 18.55L3.04775 14.66C3.55674 13.6408 4.59923 12.9978 5.73877 13H12.2612C13.4187 12.9785 14.4854 13.6245 15.0023 14.66ZM3.61796 18L4.83843 15.55C5.00956 15.2105 5.35847 14.9974 5.73877 15H12.2612C12.6415 14.9974 12.9904 15.2105 13.1616 15.55L14.382 18H3.61796ZM20 10H22.5C22.7761 10 23 10.2239 23 10.5V11.5C23 11.7761 22.7761 12 22.5 12H20V14.5C20 14.7761 19.7761 15 19.5 15H18.5C18.2239 15 18 14.7761 18 14.5V12H15.5C15.2239 12 15 11.7761 15 11.5V10.5C15 10.2239 15.2239 10 15.5 10H18V7.5C18 7.22386 18.2239 7 18.5 7H19.5C19.7761 7 20 7.22386 20 7.5V10Z" fill="currentColor" fill-rule="evenodd" clip-rule="evenodd" />
</svg>
