<svg xmlns="http://www.w3.org/2000/svg" viewBox="0 0 24 24">
    <path d="M8.00183 5C6.34452 5 5.001 6.34315 5.001 8C5.001 9.65685 6.34452 11 8.00183 11C9.65914 11 11.0027 9.65685 11.0027 8C11.0027 6.34315 9.65914 5 8.00183 5ZM19.0049 8C19.0049 9.65685 17.6613 11 16.004 11C14.3467 11 13.0032 9.65685 13.0032 8C13.0032 6.34315 14.3467 5 16.004 5C17.6613 5 19.0049 6.34315 19.0049 8ZM22.8959 17.55L21.4555 14.66C20.9482 13.6441 19.9106 13.0016 18.7748 13H14.7737C14.9567 13.2381 15.1175 13.4925 15.2538 13.76L16.7042 16.66C17.0631 17.3901 17.1101 18.2346 16.8343 19H22.0057C22.3524 18.999 22.6738 18.8185 22.8552 18.5231C23.0365 18.2277 23.0519 17.8595 22.8959 17.55ZM10.7626 13C11.902 12.9978 12.9444 13.6408 13.4533 14.66L14.8937 17.55C15.0497 17.8595 15.0343 18.2277 14.853 18.5231C14.6716 18.8185 14.3502 18.999 14.0035 19H2.00018C1.65349 18.999 1.33207 18.8185 1.15071 18.5231C0.96935 18.2277 0.953922 17.8595 1.10993 17.55L2.55033 14.66C3.05927 13.6408 4.10166 12.9978 5.24107 13H10.7626Z" fill="currentColor" fill-rule="evenodd" clip-rule="evenodd" />
</svg>
