<svg xmlns="http://www.w3.org/2000/svg" viewBox="0 0 24 24">
    <path d="M8.9999 12C11.209 12 12.9999 10.2091 12.9999 8C12.9999 5.79086 11.209 4 8.9999 4C6.79077 4 4.9999 5.79086 4.9999 8C4.9999 10.2091 6.79077 12 8.9999 12ZM16.8899 18.55C17.0459 18.8595 17.0304 19.2277 16.8491 19.5231C16.6678 19.8185 16.3465 19.999 15.9999 20H1.9999C1.65331 19.999 1.33198 19.8185 1.15067 19.5231C0.969359 19.2277 0.953935 18.8595 1.1099 18.55L2.5499 15.66C3.0587 14.6408 4.1008 13.9978 5.2399 14H12.7599C13.899 13.9978 14.9411 14.6408 15.4499 15.66L16.8899 18.55ZM19.9999 10H22.4999C22.776 10 22.9999 10.2239 22.9999 10.5V11.5C22.9999 11.7761 22.776 12 22.4999 12H19.9999V14.5C19.9999 14.7761 19.776 15 19.4999 15H18.4999C18.2238 15 17.9999 14.7761 17.9999 14.5V12H15.4999C15.2238 12 14.9999 11.7761 14.9999 11.5V10.5C14.9999 10.2239 15.2238 10 15.4999 10H17.9999V7.5C17.9999 7.22386 18.2238 7 18.4999 7H19.4999C19.776 7 19.9999 7.22386 19.9999 7.5V10Z" fill="currentColor" fill-rule="evenodd" clip-rule="evenodd" />
</svg>
