<svg xmlns="http://www.w3.org/2000/svg" viewBox="0 0 24 24">
    <path d="M5 3H19C20.1046 3 21 3.89543 21 5V19C21 20.1046 20.1046 21 19 21H5C3.89543 21 3 20.1046 3 19V5C3 3.89543 3.89543 3 5 3ZM19 19V5H5V19H19ZM12 11.25C13.2426 11.25 14.25 10.2426 14.25 9C14.25 7.75736 13.2426 6.75 12 6.75C10.7574 6.75 9.75 7.75736 9.75 9C9.74733 9.59755 9.98352 10.1714 10.4061 10.5939C10.8286 11.0165 11.4024 11.2527 12 11.25ZM16.8904 16.6427C16.7537 16.8652 16.5111 17.0005 16.25 17H7.75C7.49246 16.9937 7.25618 16.8556 7.12423 16.6344C6.99228 16.4131 6.98313 16.1396 7.1 15.91L8 14.1C8.33727 13.4306 9.02049 13.006 9.77 13H14.23C14.9795 13.006 15.6627 13.4306 16 14.1L16.92 15.91C17.0384 16.1427 17.0272 16.4203 16.8904 16.6427Z" fill="currentColor" fill-rule="evenodd" clip-rule="evenodd" />
</svg>
