<svg xmlns="http://www.w3.org/2000/svg" viewBox="0 0 24 24">
    <path d="M15.0127 15.98C17.2239 15.98 19.0164 14.1917 19.0164 11.9857V5.99429C19.0164 3.78831 17.2239 2 15.0127 2H5.00364C2.79249 2 1 3.78831 1 5.99429V18.4765C1 18.7522 1.22406 18.9757 1.50045 18.9757C1.63269 18.975 1.75902 18.921 1.85077 18.826L3.85259 16.8288C4.42744 16.2704 5.20238 15.9648 6.00455 15.98H15.0127ZM3.00182 14.9815V5.99429C3.00182 4.8913 3.89807 3.99715 5.00364 3.99715H15.0127C16.1183 3.99715 17.0146 4.8913 17.0146 5.99429V11.9857C17.0146 13.0887 16.1183 13.9829 15.0127 13.9829H6.00455C4.92171 13.9829 3.86809 14.3333 3.00182 14.9815ZM21.0182 13.9829V5.99429C22.1159 6.00525 23.0001 6.8962 23 7.99144V22.5007C23 22.7765 22.7759 23 22.4995 23C22.3673 22.9992 22.241 22.9452 22.1492 22.8502L20.1474 20.8531C19.5824 20.2886 18.815 19.9724 18.0155 19.9743H7.00546C5.89989 19.9743 5.00364 19.0802 5.00364 17.9772H17.0146C19.2257 17.9772 21.0182 16.1889 21.0182 13.9829Z" fill="currentColor" fill-rule="evenodd" clip-rule="evenodd" />
</svg>
