<svg xmlns="http://www.w3.org/2000/svg" viewBox="0 0 24 24">
    <path d="M4 3H20C21.1046 3 22 3.89543 22 5V17C22 18.1046 21.1046 19 20 19H14.91C14.6477 19.0011 14.3963 19.1053 14.21 19.29L12.72 20.78C12.5795 20.9207 12.3888 20.9998 12.19 21H11.81C11.6112 20.9998 11.4205 20.9207 11.28 20.78L9.79 19.29C9.60374 19.1053 9.35234 19.0011 9.09 19H4C2.89543 19 2 18.1046 2 17V5C2 3.89543 2.89543 3 4 3ZM20 17V5H4V17H9.09C9.88538 17.0007 10.6479 17.3172 11.21 17.88L12 18.67L12.79 17.88C13.3521 17.3172 14.1146 17.0007 14.91 17H20Z" fill="currentColor" fill-rule="evenodd" clip-rule="evenodd" />
</svg>
