<svg xmlns="http://www.w3.org/2000/svg" viewBox="0 0 24 24">
    <path d="M18 1.99976C20.2091 1.99976 22 3.79062 22 5.99976V9.54046C21.3935 9.16196 20.7195 8.88169 20 8.72195V5.99976C20 4.89519 19.1046 3.99976 18 3.99976H6C4.89543 3.99976 4 4.89519 4 5.99976V17.8798L4.46 17.4598C5.39951 16.5226 6.67301 15.9974 8 15.9998H12.2466C12.3577 16.7119 12.5858 17.3853 12.9105 17.9998H8C7.19856 17.9845 6.42433 18.2906 5.85 18.8498L2.85 21.8498C2.75833 21.9449 2.63212 21.999 2.5 21.9998C2.22386 21.9998 2 21.7759 2 21.4998V5.99976C2 3.79062 3.79086 1.99976 6 1.99976H18ZM23.2095 14.9998C23.2095 17.5455 21.1458 19.6092 18.6001 19.6092C16.0543 19.6092 13.9906 17.5455 13.9906 14.9998C13.9906 12.4541 16.0543 10.3904 18.6001 10.3904C21.1458 10.3904 23.2095 12.4541 23.2095 14.9998ZM21.3498 14.9998C21.3498 16.5184 20.1187 17.7495 18.6 17.7495C17.0814 17.7495 15.8503 16.5184 15.8503 14.9998C15.8503 13.4812 17.0814 12.2501 18.6 12.2501C20.1187 12.2501 21.3498 13.4812 21.3498 14.9998Z" fill="currentColor" fill-rule="evenodd" clip-rule="evenodd" />
</svg>
