<svg xmlns="http://www.w3.org/2000/svg" viewBox="0 0 24 24">
    <path d="M22 6C22 3.79086 20.2091 2 18 2H6C3.79086 2 2 3.79086 2 6V21.5C2 21.7761 2.22386 22 2.5 22C2.63212 21.9992 2.75833 21.9451 2.85 21.85L5.85 18.85C6.42433 18.2908 7.19856 17.9847 8 18H18C20.2091 18 22 16.2091 22 14V6ZM20 14C20 15.1046 19.1046 16 18 16H8C6.67301 15.9976 5.39951 16.5229 4.46 17.46L4 17.88V6C4 4.89543 4.89543 4 6 4H18C19.1046 4 20 4.89543 20 6V14ZM11 11H8.5C8.22386 11 8 10.7761 8 10.5V9.5C8 9.22386 8.22386 9 8.5 9H11V6.5C11 6.22386 11.2239 6 11.5 6H12.5C12.7761 6 13 6.22386 13 6.5V9H15.5C15.7761 9 16 9.22386 16 9.5V10.5C16 10.7761 15.7761 11 15.5 11H13V13.5C13 13.7761 12.7761 14 12.5 14H11.5C11.2239 14 11 13.7761 11 13.5V11Z" fill="currentColor" fill-rule="evenodd" clip-rule="evenodd" />
</svg>
