<svg xmlns="http://www.w3.org/2000/svg" viewBox="0 0 24 24">
    <path d="M18 2H6C3.79086 2 2 3.79086 2 6V21.5C2 21.7761 2.22386 22 2.5 22C2.63212 21.9992 2.75833 21.9451 2.85 21.85L5.85 18.85C6.42433 18.2908 7.19856 17.9847 8 18H18C20.2091 18 22 16.2091 22 14V6C22 3.79086 20.2091 2 18 2ZM20 14.83C20.0028 14.9634 19.951 15.0922 19.8566 15.1866C19.7622 15.281 19.6334 15.3328 19.5 15.33C19.3419 15.3333 19.1922 15.2585 19.1 15.13L14.65 9.2C14.5533 9.07771 14.4059 9.00639 14.25 9.00639C14.0941 9.00639 13.9467 9.07771 13.85 9.2L11 12.91C10.9046 13.0347 10.757 13.1085 10.6 13.11C10.4527 13.1102 10.3132 13.0441 10.22 12.93L8.74 11.18C8.64371 11.0644 8.50046 10.9983 8.35 11C8.19853 11.0035 8.05611 11.0729 7.96 11.19L4.89 15.13C4.79767 15.2518 4.65284 15.3224 4.5 15.32C4.36657 15.3228 4.23778 15.271 4.14341 15.1766C4.04904 15.0822 3.99725 14.9534 4 14.82V6C4 4.89543 4.89543 4 6 4H18C19.1046 4 20 4.89543 20 6V14.83ZM11 7.5C11 8.32843 10.3284 9 9.5 9C8.67157 9 8 8.32843 8 7.5C8 6.67157 8.67157 6 9.5 6C10.3284 6 11 6.67157 11 7.5Z" fill="currentColor" fill-rule="evenodd" clip-rule="evenodd" />
</svg>
