<svg xmlns="http://www.w3.org/2000/svg" viewBox="0 0 24 24">
    <path d="M18 3H6C3.79086 3 2 4.79086 2 7V22.5C2 22.7761 2.22386 23 2.5 23C2.63212 22.9992 2.75833 22.9451 2.85 22.85L5.85 19.85C6.42433 19.2908 7.19856 18.9847 8 19H18C20.2091 19 22 17.2091 22 15V7C22 4.79086 20.2091 3 18 3ZM8 17C6.67301 16.9976 5.39951 17.5229 4.46 18.46L4 18.88V7C4 5.89543 4.89543 5 6 5H18C19.1046 5 20 5.89543 20 7V15C20 16.1046 19.1046 17 18 17H8ZM8.5 12H7.5C7.22386 12 7 11.7761 7 11.5V10.5C7 10.2239 7.22386 10 7.5 10H8.5C8.77614 10 9 10.2239 9 10.5V11.5C9 11.7761 8.77614 12 8.5 12ZM11.5 12H12.5C12.7761 12 13 11.7761 13 11.5V10.5C13 10.2239 12.7761 10 12.5 10H11.5C11.2239 10 11 10.2239 11 10.5V11.5C11 11.7761 11.2239 12 11.5 12ZM16.5 12H15.5C15.2239 12 15 11.7761 15 11.5V10.5C15 10.2239 15.2239 10 15.5 10H16.5C16.7761 10 17 10.2239 17 10.5V11.5C17 11.7761 16.7761 12 16.5 12Z" fill="currentColor" fill-rule="evenodd" clip-rule="evenodd" />
</svg>
