<svg xmlns="http://www.w3.org/2000/svg" viewBox="0 0 24 24">
    <path d="M12 2C6.47715 2 2 6.47715 2 12C2 17.5228 6.47715 22 12 22C17.5228 22 22 17.5228 22 12C22 9.34784 20.9464 6.8043 19.0711 4.92893C17.1957 3.05357 14.6522 2 12 2ZM12 20C7.58172 20 4 16.4183 4 12C4 7.58172 7.58172 4 12 4C16.4183 4 20 7.58172 20 12C20 14.1217 19.1571 16.1566 17.6569 17.6569C16.1566 19.1571 14.1217 20 12 20ZM15.58 7.53C15.7655 7.45238 15.9796 7.496 16.12 7.64L16.36 7.88C16.504 8.02037 16.5476 8.23448 16.47 8.42L14.47 13.35C14.2669 13.8444 13.8744 14.2369 13.38 14.44L8.45 16.44C8.26448 16.5176 8.05037 16.474 7.91 16.33L7.67 16.09C7.526 15.9496 7.48238 15.7355 7.56 15.55L9.56 10.62C9.76309 10.1256 10.1556 9.73309 10.65 9.53L15.58 7.53Z" fill="currentColor" fill-rule="evenodd" clip-rule="evenodd" />
</svg>
