<svg xmlns="http://www.w3.org/2000/svg" viewBox="0 0 24 24">
    <path d="M11.9553 4.04681C14.7101 4.04633 17.2712 5.46357 18.7339 7.79788C20.1967 10.1322 20.3552 13.055 19.1534 15.5338L20.633 17.0434C22.927 13.1196 22.2855 8.14227 19.0716 4.92839C15.8577 1.7145 10.8804 1.07301 6.95662 3.36699L8.46623 4.8466C9.55389 4.31982 10.7468 4.04638 11.9553 4.04681ZM3.98741 3.04556C4.11996 3.04556 4.24661 3.10039 4.33732 3.19704L20.803 19.6627C20.8996 19.7534 20.9544 19.88 20.9544 20.0126C20.9544 20.1451 20.8996 20.2718 20.803 20.3625L20.2731 20.8924C20.1824 20.989 20.0557 21.0438 19.9232 21.0438C19.7906 21.0438 19.664 20.989 19.5733 20.8924L18.3736 19.7027C14.4003 22.9928 8.57598 22.7196 4.92821 19.0718C1.28044 15.424 1.00715 9.59971 4.29733 5.6264L3.10764 4.42671C3.01099 4.336 2.95616 4.20936 2.95616 4.07681C2.95616 3.94425 3.01099 3.81761 3.10764 3.7269L3.6375 3.19704C3.72821 3.10039 3.85486 3.04556 3.98741 3.04556ZM4.75784 15.5011C6.08559 18.2717 8.88302 20.0368 11.9553 20.0426C13.7751 20.0432 15.5399 19.4184 16.954 18.2731L13.195 14.504L8.36625 16.5035C8.18078 16.5811 7.96673 16.5375 7.82639 16.3935L7.58646 16.1536C7.44249 16.0133 7.39889 15.7992 7.47649 15.6138L9.47596 10.785L5.72695 7.04602C3.80676 9.44432 3.4301 12.7306 4.75784 15.5011ZM12.4652 8.84554L15.5344 7.57588C15.7198 7.49828 15.9339 7.54188 16.0742 7.68585L16.3141 7.92579C16.4581 8.06612 16.5017 8.28017 16.4241 8.46564L15.1545 11.5348L12.4652 8.84554Z" fill="currentColor" fill-rule="evenodd" clip-rule="evenodd" />
</svg>
