<svg xmlns="http://www.w3.org/2000/svg" viewBox="0 0 24 24">
    <path d="M2.5 14C2.22386 14 2 13.7761 2 13.5V11.41C2.0011 11.1477 2.10526 10.8963 2.29 10.71L9.71 3.29C9.89626 3.10526 10.1477 3.0011 10.41 3H13.59C13.8523 3.0011 14.1037 3.10526 14.29 3.29L21.71 10.71C21.8947 10.8963 21.9989 11.1477 22 11.41V13.5C22 13.7761 21.7761 14 21.5 14H20V20C20 20.5523 19.5523 21 19 21H14C13.4477 21 13 20.5523 13 20V15.25C13 15.1119 12.8881 15 12.75 15H11.25C11.1119 15 11 15.1119 11 15.25V20C11 20.5523 10.5523 21 10 21H5C4.44772 21 4 20.5523 4 20V14H2.5ZM15 14V19H18V12.5C18 12.2239 18.2239 12 18.5 12H20C19.9537 11.8202 19.8523 11.6593 19.71 11.54L13.17 5H10.83L4.29 11.54C4.16609 11.6661 4.08254 11.8262 4.05 12H5.5C5.77614 12 6 12.2239 6 12.5V19H9V14C9 13.4477 9.44771 13 10 13H14C14.5523 13 15 13.4477 15 14Z" fill="currentColor" fill-rule="evenodd" clip-rule="evenodd" />
</svg>
