<svg xmlns="http://www.w3.org/2000/svg" viewBox="0 0 24 24">
    <path d="M11.41 3H12.59C12.8523 3.0011 13.1037 3.10526 13.29 3.29L20.12 10.12C20.6828 10.6821 20.9993 11.4446 21 12.24V20C21 20.5523 20.5523 21 20 21H15C14.4477 21 14 20.5523 14 20V14.25C14 14.1119 13.8881 14 13.75 14H10.25C10.1119 14 10 14.1119 10 14.25V20C10 20.5523 9.55228 21 9 21H4C3.44772 21 3 20.5523 3 20V12.24C3.0007 11.4446 3.31723 10.6821 3.88 10.12L10.71 3.29C10.8963 3.10526 11.1477 3.0011 11.41 3ZM18.71 11.54L12.17 5H11.83L5.29 11.54C5.10526 11.7263 5.0011 11.9777 5 12.24V19H8V13C8 12.4477 8.44772 12 9 12H15C15.5523 12 16 12.4477 16 13V19H19V12.24C18.9989 11.9777 18.8947 11.7263 18.71 11.54Z" fill="currentColor" fill-rule="evenodd" clip-rule="evenodd" />
</svg>
