<svg xmlns="http://www.w3.org/2000/svg" viewBox="0 0 24 24">
    <path d="M14 2V2.5C14 2.77614 13.7762 3 13.5 3H10.5C10.2239 3 10 2.77614 10 2.5V2C10 1.44772 10.4477 1 11 1H13C13.5523 1 14 1.44772 14 2ZM14.63 9.27L15.58 11.16C15.8584 11.7119 16.0023 12.3219 16 12.94V22C16 22.5523 15.5523 23 15 23H9.00003C8.44774 23 8.00003 22.5523 8.00003 22V12.94C7.99772 12.3219 8.14164 11.7119 8.42003 11.16L9.37003 9.27C9.78266 8.4332 9.99817 7.51301 10 6.58V5.5C10 5.22386 10.2239 5 10.5 5H13.5C13.7762 5 14 5.22386 14 5.5V6.58C14.0019 7.51301 14.2174 8.4332 14.63 9.27Z" fill="currentColor" fill-rule="evenodd" clip-rule="evenodd" />
</svg>
