<svg xmlns="http://www.w3.org/2000/svg" viewBox="0 0 24 24">
    <path d="M16.9999 2C14.7907 2 12.9999 3.79086 12.9999 6H5.99985C5.7239 5.9995 5.46002 6.11306 5.27066 6.31378C5.08129 6.5145 4.98329 6.78455 4.99985 7.06L5.81985 20.12C5.88341 21.1774 6.7605 22.0019 7.81985 22H14.1199C15.1792 22.0019 16.0563 21.1774 16.1199 20.12L16.7799 10H16.9999C19.209 10 20.9999 8.20914 20.9999 6C20.9999 3.79086 19.209 2 16.9999 2ZM14.7199 11H7.27985L7.09985 8H14.8999L14.7199 11ZM16.9099 8H16.9999C18.1044 8 18.9999 7.10457 18.9999 6C18.9999 4.89543 18.1044 4 16.9999 4C15.8953 4 14.9999 4.89543 14.9999 6H15.9999C16.2758 5.9995 16.5397 6.11306 16.729 6.31378C16.9184 6.5145 17.0164 6.78455 16.9999 7.06L16.9099 8Z" fill="currentColor" fill-rule="evenodd" clip-rule="evenodd" />
</svg>
