<svg xmlns="http://www.w3.org/2000/svg" viewBox="0 0 24 24">
    <path d="M16 19V17.3643H16.689C17.7081 17.3643 17.9091 17.119 17.9091 15.8922V13.8253C17.9091 12.8067 18.6124 12.1524 19.9115 12.0706V11.9368C18.6124 11.855 17.9091 11.1933 17.9091 10.1822V8.10781C17.9091 6.88104 17.7081 6.63569 16.689 6.63569H16V5H17.1555C19.2297 5 19.9043 5.67658 19.9043 7.75836V9.40149C19.9043 10.5762 20.4211 11.0297 22 10.9628V13.0372C20.4211 12.9777 19.9043 13.4312 19.9043 14.6059V16.2416C19.9043 18.3234 19.2297 19 17.1555 19H16Z" fill="currentColor" />
    <path d="M8 19V17.3643H7.311C6.29187 17.3643 6.09091 17.119 6.09091 15.8922V13.8253C6.09091 12.8067 5.38756 12.1524 4.08852 12.0706V11.9368C5.38756 11.855 6.09091 11.1933 6.09091 10.1822V8.10781C6.09091 6.88104 6.29187 6.63569 7.311 6.63569H8V5H6.8445C4.77033 5 4.09569 5.67658 4.09569 7.75836V9.40149C4.09569 10.5762 3.57895 11.0297 2 10.9628V13.0372C3.57895 12.9777 4.09569 13.4312 4.09569 14.6059V16.2416C4.09569 18.3234 4.77033 19 6.8445 19H8Z" fill="currentColor" />
</svg>
