<svg xmlns="http://www.w3.org/2000/svg" viewBox="0 0 24 24">
    <path d="M8 3H5C3.89543 3 3 3.89543 3 5V8C3 9.10457 3.89543 10 5 10H8C9.10457 10 10 9.10457 10 8V5C10 3.89543 9.10457 3 8 3ZM19 3H16C14.8954 3 14 3.89543 14 5V8C14 9.10457 14.8954 10 16 10H19C20.1046 10 21 9.10457 21 8V5C21 3.89543 20.1046 3 19 3ZM8 14C9.10457 14 10 14.8954 10 16V19C10 20.1046 9.10457 21 8 21H5C3.89543 21 3 20.1046 3 19V16C3 14.8954 3.89543 14 5 14H8ZM19 14H16C14.8954 14 14 14.8954 14 16V19C14 20.1046 14.8954 21 16 21H19C20.1046 21 21 20.1046 21 19V16C21 14.8954 20.1046 14 19 14ZM16 19H19V16H16V19Z" fill="currentColor" fill-rule="evenodd" clip-rule="evenodd" />
</svg>
