<svg xmlns="http://www.w3.org/2000/svg" viewBox="0 0 24 24">
    <path d="M12.9992 10.0086V10.329C12.4341 9.86752 11.771 9.54206 11.0608 9.37767C11.3696 7.43728 13.037 6.00783 14.9975 6.00288H16.1765C16.6631 4.62338 18.0705 3.79588 19.5094 4.0433C20.9483 4.29073 22 5.54112 22 7.0043C22 8.46749 20.9483 9.71788 19.5094 9.9653C18.0705 10.2127 16.6631 9.38523 16.1765 8.00573H14.9975C13.8938 8.00573 12.9992 8.90243 12.9992 10.0086ZM19.5018 14.081C20.9317 14.3272 21.9803 15.5645 21.9916 17.0185C21.9803 18.4726 20.9317 19.7099 19.5018 19.9561C18.0719 20.2023 16.6713 19.3869 16.1765 18.0199H14.9975C12.7902 18.0199 11.0008 16.2265 11.0008 14.0143C11.0008 13.4612 10.5535 13.0128 10.0017 13.0128H7.82352C7.33689 14.3923 5.92945 15.2198 4.4906 14.9724C3.05174 14.725 2 13.4746 2 12.0114C2 10.5482 3.05174 9.29784 4.4906 9.05041C5.92945 8.80299 7.33689 9.63049 7.82352 11.01H10.0017C10.8491 11.0146 11.6549 11.3784 12.2198 12.0114C12.7172 12.5598 12.9948 13.2731 12.9992 14.0143C12.9992 15.1204 13.8938 16.0171 14.9975 16.0171H16.1765C16.6713 14.6502 18.0719 13.8347 19.5018 14.081Z" fill="currentColor" fill-rule="evenodd" clip-rule="evenodd" />
</svg>
