<svg xmlns="http://www.w3.org/2000/svg" viewBox="0 0 24 24">
    <path d="M6.5 12H13.5C13.7761 12 14 11.7761 14 11.5V10.5C14 10.2239 13.7761 10 13.5 10H6.5C6.22386 10 6 10.2239 6 10.5V11.5C6 11.7761 6.22386 12 6.5 12Z" fill="currentColor" />
    <path d="M10.5 16H6.5C6.22386 16 6 15.7761 6 15.5V14.5C6 14.2239 6.22386 14 6.5 14H10.5C10.7761 14 11 14.2239 11 14.5V15.5C11 15.7761 10.7761 16 10.5 16Z" fill="currentColor" />
    <path d="M15.809 11.9105C15.8818 11.7931 16.0359 11.757 16.1532 11.8298L17.428 12.6204C17.5453 12.6931 17.5814 12.8473 17.5087 12.9646L15.6566 15.9508C15.5747 16.0827 15.4633 16.1938 15.3311 16.2752L14.0539 17.0618C13.8785 17.1698 13.655 17.0312 13.6739 16.8261L13.8109 15.3324C13.8251 15.1778 13.8751 15.0286 13.9569 14.8967L15.809 11.9105Z" fill="currentColor" />
    <path d="M18.1229 9.52113C18.0102 9.45124 17.8744 9.42898 17.7453 9.45924L17.4601 9.52608C17.331 9.55635 17.2192 9.63666 17.1493 9.74935L16.5996 10.6356C16.5269 10.753 16.563 10.9071 16.6803 10.9798L17.955 11.7705C18.0724 11.8432 18.2265 11.8071 18.2993 11.6898L18.8489 10.8035C18.9188 10.6908 18.9411 10.555 18.9108 10.4259L18.844 10.1407C18.8137 10.0116 18.7334 9.89978 18.6207 9.82989L18.1229 9.52113Z" fill="currentColor" />
    <path d="M20 4H4C2.89543 4 2 4.89543 2 6V18C2 19.1046 2.89543 20 4 20H20C21.1046 20 22 19.1046 22 18V6C22 4.89543 21.1046 4 20 4ZM20 18H4V8H20V18Z" fill="currentColor" fill-rule="evenodd" clip-rule="evenodd" />
</svg>
