<svg xmlns="http://www.w3.org/2000/svg" viewBox="0 0 24 24">
    <path d="M6.5 12H13.5C13.7761 12 14 11.7761 14 11.5V10.5C14 10.2239 13.7761 10 13.5 10H6.5C6.22386 10 6 10.2239 6 10.5V11.5C6 11.7761 6.22386 12 6.5 12Z" fill="currentColor" />
    <path d="M10.5 16H6.5C6.22386 16 6 15.7761 6 15.5V14.5C6 14.2239 6.22386 14 6.5 14H10.5C10.7761 14 11 14.2239 11 14.5V15.5C11 15.7761 10.7761 16 10.5 16Z" fill="currentColor" />
    <path d="M20 4H4C2.89543 4 2 4.89543 2 6V18C2 19.1046 2.89543 20 4 20H20C21.1046 20 22 19.1046 22 18V6C22 4.89543 21.1046 4 20 4ZM20 18H4V8H20V18Z" fill="currentColor" fill-rule="evenodd" clip-rule="evenodd" />
    <path d="M16.8227 13.6798C16.1732 13.3687 15.6481 12.8471 15.3327 12.1998C15.2672 12.078 15.1409 12.0015 15.0027 11.9998C14.8645 12.0015 14.7381 12.078 14.6727 12.1998C14.3611 12.8464 13.8393 13.3682 13.1927 13.6798C13.0628 13.7295 12.9842 13.8619 13.0027 13.9998C12.9981 14.1269 13.0742 14.2432 13.1927 14.2898C13.8429 14.6046 14.3678 15.1296 14.6827 15.7798C14.7329 15.9128 14.8605 16.0005 15.0027 15.9998C15.1282 15.9998 15.2436 15.9305 15.3027 15.8198C15.6149 15.1677 16.1406 14.642 16.7927 14.3298C16.9253 14.2751 17.0093 14.143 17.0027 13.9998C17.0104 13.8671 16.9401 13.7421 16.8227 13.6798Z" fill="currentColor" />
    <path d="M18.8647 10.2598C18.378 10.0265 17.9844 9.63528 17.7481 9.14976C17.699 9.05847 17.6043 9.00103 17.5008 8.99976C17.3972 9.00103 17.3025 9.05847 17.2535 9.14976C17.02 9.63476 16.629 10.0261 16.1444 10.2598C16.0471 10.2971 15.9882 10.3964 16.002 10.4998C15.9986 10.5951 16.0556 10.6823 16.1444 10.7173C16.6316 10.9534 17.025 11.3471 17.261 11.8348C17.2986 11.9345 17.3942 12.0003 17.5008 11.9998C17.5949 11.9998 17.6813 11.9478 17.7256 11.8648C17.9596 11.3757 18.3536 10.9814 18.8422 10.7473C18.9416 10.7062 19.0045 10.6072 18.9996 10.4998C19.0053 10.4002 18.9526 10.3065 18.8647 10.2598Z" fill="currentColor" />
</svg>
