<svg xmlns="http://www.w3.org/2000/svg" viewBox="0 0 24 24">
    <path d="M2.8771 2.87731C3.9832 1.77094 5.75429 1.70252 6.94241 2.72025C6.99218 2.77103 7.02074 2.83886 7.02227 2.90995C7.02783 2.97554 7.00617 3.04054 6.96238 3.08967L3.0894 6.95361C3.04194 7.00104 2.97676 7.0264 2.90973 7.0235C2.83866 7.02197 2.77084 6.99341 2.72007 6.94362C1.70259 5.75521 1.771 3.98369 2.8771 2.87731ZM19.0005 2.03133C18.3008 2.02996 17.6228 2.27371 17.084 2.72025C17.0306 2.76941 16.9983 2.83745 16.9942 2.90995C16.9913 2.977 17.0166 3.0422 17.064 3.08967L20.937 6.96359C20.9845 7.01103 21.0497 7.03638 21.1167 7.03348C21.1892 7.02931 21.2572 6.99708 21.3063 6.94362C22.0505 6.05002 22.2102 4.80635 21.7161 3.75363C21.2219 2.7009 20.1632 2.02944 19.0005 2.03133ZM3.02951 13.0141C3.02951 8.05132 7.05165 4.0282 12.0132 4.0282C16.9748 4.0282 20.9969 8.05132 20.9969 13.0141C20.9969 17.9769 16.9748 22 12.0132 22C7.05165 22 3.02951 17.9769 3.02951 13.0141ZM5.02589 13.0141C5.02589 16.874 8.15422 20.0031 12.0132 20.0031C15.8722 20.0031 19.0005 16.874 19.0005 13.0141C19.0005 9.15416 15.8722 6.02507 12.0132 6.02507C8.15422 6.02507 5.02589 9.15416 5.02589 13.0141ZM12.5422 13.0141C12.6692 13.015 12.7766 12.9205 12.7918 12.7944L13.1911 9.57949C13.2083 9.43706 13.1634 9.2941 13.0679 9.18708C12.9723 9.08006 12.8354 9.01933 12.692 9.02037H11.3344C11.191 9.01933 11.0541 9.08006 10.9585 9.18708C10.863 9.2941 10.8181 9.43706 10.8353 9.57949L11.2346 12.7944C11.2499 12.9205 11.3572 13.015 11.4842 13.0141H12.5422ZM11.4842 15.011H12.4824H12.5123C12.7762 15.0268 12.9819 15.2458 12.9815 15.5102V16.5086C12.9815 16.7843 12.758 17.0078 12.4824 17.0078H11.4842C11.2085 17.0078 10.9851 16.7843 10.9851 16.5086V15.5102C10.9851 15.2345 11.2085 15.011 11.4842 15.011Z" fill="currentColor" fill-rule="evenodd" clip-rule="evenodd" />
</svg>
