<svg xmlns="http://www.w3.org/2000/svg" viewBox="0 0 24 24">
    <path d="M6.99743 2.88483C7.003 2.95033 6.98131 3.01523 6.93746 3.0643L6.3577 3.64259L4.73837 2.00741C4.82472 1.99753 4.91192 1.99753 4.99826 2.00741C5.69549 2.00837 6.3706 2.25164 6.90747 2.69539C6.96099 2.74448 6.99325 2.81242 6.99743 2.88483ZM2.37935 2.147C2.18162 1.95578 1.86738 1.95578 1.66965 2.147L1.13987 2.67545C0.948168 2.87268 0.948168 3.18613 1.13987 3.38336L2.07948 4.3206C2.02764 4.54293 2.00082 4.77033 1.99951 4.9986C1.99814 5.69749 2.24217 6.3748 2.68923 6.91295C2.74006 6.96267 2.80797 6.99119 2.87915 6.99272C2.94627 6.99561 3.01154 6.9703 3.05907 6.92292L3.87873 6.10534L5.05824 7.28187C3.72495 8.8807 2.99626 10.8954 2.9991 12.9751C2.9823 16.4527 4.98142 19.6269 8.1296 21.1212C11.2778 22.6155 15.0081 22.1609 17.703 19.9545L19.6122 21.8489C19.7029 21.9453 19.8295 22 19.962 22C20.0946 22 20.2212 21.9453 20.3119 21.8489L20.8417 21.3205C20.9383 21.23 20.9931 21.1037 20.9931 20.9715C20.9931 20.8393 20.9383 20.713 20.8417 20.6225L2.37935 2.147ZM11.9953 19.9545C9.3249 19.954 6.8876 18.4374 5.71293 16.0452C4.53825 13.653 4.83105 10.8025 6.46765 8.69769L16.2836 18.4888C15.0568 19.4385 13.5482 19.9541 11.9953 19.9545ZM18.9924 2.00741C18.2918 2.00605 17.6127 2.24946 17.0732 2.69539C17.0197 2.74448 16.9874 2.81242 16.9833 2.88483C16.9804 2.95179 17.0057 3.01689 17.0532 3.0643L20.9316 6.9329C20.9792 6.98027 21.0444 7.00558 21.1115 7.00269C21.1841 6.99852 21.2522 6.96634 21.3015 6.91295C22.0466 6.02058 22.2066 4.77862 21.7118 3.72734C21.2169 2.67607 20.1567 2.00553 18.9924 2.00741ZM7.76711 5.05842C9.06639 4.36065 10.5197 3.99737 11.9953 4.00154C16.9638 4.00154 20.9916 8.01913 20.9916 12.9751C20.9958 14.447 20.6316 15.8966 19.932 17.1927L18.4327 15.6971C18.8029 14.8372 18.9934 13.9109 18.9924 12.9751C18.9939 10.6335 17.818 8.44724 15.8614 7.15347C13.9048 5.85969 11.4281 5.63083 9.26648 6.54404L7.76711 5.05842Z" fill="currentColor" fill-rule="evenodd" clip-rule="evenodd" />
</svg>
