<svg xmlns="http://www.w3.org/2000/svg" viewBox="0 0 24 24">
    <path d="M7.00271 2.88006C7.00828 2.94576 6.98659 3.01085 6.94274 3.06006L3.06497 6.93006C3.01745 6.97757 2.95219 7.00297 2.88507 7.00006C2.81391 6.99853 2.74601 6.96992 2.69518 6.92006C1.7021 5.7292 1.77993 3.97725 2.87471 2.87925C3.96948 1.78126 5.72023 1.69923 6.91276 2.69006C6.96627 2.7393 6.99853 2.80744 7.00271 2.88006ZM11.9998 4.00006C7.03213 4.00006 3.005 8.0295 3.005 13.0001C3.005 17.9706 7.03213 22.0001 11.9998 22.0001C16.9676 22.0001 20.9947 17.9706 20.9947 13.0001C20.9947 8.0295 16.9676 4.00006 11.9998 4.00006ZM11.9998 20.0001C8.13607 20.0001 5.00386 16.8661 5.00386 13.0001C5.00386 9.13407 8.13607 6.00006 11.9998 6.00006C15.8636 6.00006 18.9958 9.13407 18.9958 13.0001C18.9958 16.8661 15.8636 20.0001 11.9998 20.0001ZM18.9958 2.00006C18.2953 1.99869 17.6164 2.24282 17.0769 2.69006C17.0234 2.7393 16.9912 2.80744 16.987 2.88006C16.9841 2.94722 17.0095 3.01251 17.0569 3.06006L20.9347 6.94006C20.9822 6.98757 21.0475 7.01297 21.1146 7.01006C21.1872 7.00588 21.2553 6.9736 21.3045 6.92006C22.0496 6.02506 22.2095 4.77944 21.7147 3.72506C21.22 2.67069 20.16 1.99817 18.9958 2.00006ZM12.8793 8.50006V12.6401L15.7977 15.5601C15.8923 15.6539 15.9455 15.7817 15.9455 15.9151C15.9455 16.0484 15.8923 16.1762 15.7977 16.2701L15.268 16.8001C15.1741 16.8947 15.0464 16.948 14.9132 16.948C14.7799 16.948 14.6522 16.8947 14.5584 16.8001L11.2703 13.5101C11.1787 13.416 11.1253 13.2913 11.1203 13.1601V8.50006C11.1203 8.22392 11.3441 8.00006 11.6201 8.00006H12.3796C12.6556 8.00006 12.8793 8.22392 12.8793 8.50006Z" fill="currentColor" fill-rule="evenodd" clip-rule="evenodd" />
</svg>
