<svg xmlns="http://www.w3.org/2000/svg" viewBox="0 0 24 24">
    <path d="M6 2H18C19.1046 2 20 2.89543 20 4V20C20 21.1046 19.1046 22 18 22H6C4.89543 22 4 21.1046 4 20V4C4 2.89543 4.89543 2 6 2ZM11.7371 11.946C11.9009 11.8578 12.0021 11.686 12 11.5V4.5C12 4.22386 11.7761 4 11.5 4H6.5C6.22386 4 6 4.22386 6 4.5V11.5C5.99785 11.686 6.09914 11.8578 6.26292 11.946C6.4267 12.0342 6.6259 12.0242 6.78 11.92L8.72 10.62C8.89073 10.5109 9.10927 10.5109 9.28 10.62L11.22 11.92C11.3741 12.0242 11.5733 12.0342 11.7371 11.946Z" fill="currentColor" fill-rule="evenodd" clip-rule="evenodd" />
</svg>
