<svg xmlns="http://www.w3.org/2000/svg" viewBox="0 0 24 24">
    <path d="M7 14C8.10457 14 9 13.1046 9 12C9 10.8954 8.10457 10 7 10C5.89543 10 5 10.8954 5 12C5 13.1046 5.89543 14 7 14ZM10.874 11C10.4299 9.27477 8.86384 8 7 8C4.79086 8 3 9.79086 3 12C3 14.2091 4.79086 16 7 16C8.86384 16 10.4299 14.7252 10.874 13L13.126 13C13.5701 14.7252 15.1362 16 17 16C19.2091 16 21 14.2091 21 12C21 9.79086 19.2091 8 17 8C15.1362 8 13.5701 9.27477 13.126 11H10.874Z" fill="currentColor" fill-rule="evenodd" clip-rule="evenodd" />
</svg>
