<svg xmlns="http://www.w3.org/2000/svg" viewBox="0 0 24 24">
    <path d="M6 21C6.2192 20.7049 6.65761 19.7961 6.65761 18.5213V7.66229C6.69746 6.1082 7.67391 3 11.2609 3C14.8478 3 15.8243 5.4 15.8641 6.6C15.8641 7.20984 15.5652 8.54754 13.8315 9.43279C14.8877 9.80656 17 11.1207 17 13.3869C17 16.2197 14.4293 17.8721 11.7391 17.8721C10.0054 17.8721 9.04891 16.7508 9.04891 16.7508V18.5213C9.02899 19.2098 8.98913 20.1148 8.3913 21H6ZM9.04884 15.5704V6.59994C9.12855 5.67535 9.70645 3.82617 11.3804 3.82617C13.4728 3.82617 13.8315 6.00978 13.8315 6.54093C13.8315 7.07207 13.8315 8.13437 12.9945 9.19666C12.7155 9.11797 11.9901 8.9606 11.3206 8.9606C10.4836 8.9606 10.3641 9.3147 10.3641 9.43273C10.3641 9.55076 10.3641 9.96388 11.3804 9.96388C12.1934 9.96388 12.7952 9.88519 12.9945 9.84584C13.5923 10.1016 14.788 11.1206 14.788 13.1508C14.788 15.6885 12.9945 17.1049 11.3804 17.1049C10.0891 17.1049 9.28797 16.0819 9.04884 15.5704Z" fill="currentColor" fill-rule="evenodd" clip-rule="evenodd" />
</svg>
