<svg xmlns="http://www.w3.org/2000/svg" viewBox="0 0 24 24">
    <path d="M18 15H20C20.5523 15 21 15.4477 21 16V20C21 20.5523 20.5523 21 20 21H14C13.4477 21 13 20.5523 13 20V16C13 15.4477 13.4477 15 14 15H16V13H8V15H10C10.5523 15 11 15.4477 11 16V20C11 20.5523 10.5523 21 10 21H4C3.44772 21 3 20.5523 3 20V16C3 15.4477 3.44772 15 4 15H6V13C6 11.8954 6.89543 11 8 11H11V9H9C8.44772 9 8 8.55228 8 8V4C8 3.44772 8.44772 3 9 3H15C15.5523 3 16 3.44772 16 4V8C16 8.55228 15.5523 9 15 9H13V11H16C17.1046 11 18 11.8954 18 13V15ZM14 5H10V7H14V5ZM9 19H5V17H9V19ZM15 19H19V17H15V19Z" fill="currentColor" fill-rule="evenodd" clip-rule="evenodd" />
</svg>
