<svg xmlns="http://www.w3.org/2000/svg" viewBox="0 0 24 24">
    <path d="M21 16C21 15.4477 20.5523 15 20 15H18V13C18 11.8954 17.1046 11 16 11H13V9H15C15.5523 9 16 8.55228 16 8V4C16 3.44772 15.5523 3 15 3H9C8.44772 3 8 3.44772 8 4V8C8 8.55228 8.44772 9 9 9H11V11H8C6.89543 11 6 11.8954 6 13V15H4C3.44772 15 3 15.4477 3 16V20C3 20.5523 3.44772 21 4 21H10C10.5523 21 11 20.5523 11 20V16C11 15.4477 10.5523 15 10 15H8V13H16V15H14C13.4477 15 13 15.4477 13 16V20C13 20.5523 13.4477 21 14 21H20C20.5523 21 21 20.5523 21 20V16Z" fill="currentColor" />
</svg>
