<svg xmlns="http://www.w3.org/2000/svg" viewBox="0 0 24 24">
    <path d="M14 7C14 8.10457 13.1046 9 12 9C10.8954 9 10 8.10457 10 7C10 5.89543 10.8954 5 12 5C13.1046 5 14 5.89543 14 7ZM13 10.874C14.7252 10.4299 16 8.86384 16 7C16 4.79086 14.2091 3 12 3C9.79086 3 8 4.79086 8 7C8 8.86384 9.27477 10.4299 11 10.874L11 13.126C9.27477 13.5701 8 15.1362 8 17C8 19.2091 9.79086 21 12 21C14.2091 21 16 19.2091 16 17C16 15.1362 14.7252 13.5701 13 13.126L13 10.874ZM10 17C10 15.8954 10.8954 15 12 15C13.1046 15 14 15.8954 14 17C14 18.1046 13.1046 19 12 19C10.8954 19 10 18.1046 10 17Z" fill="currentColor" fill-rule="evenodd" clip-rule="evenodd" />
</svg>
