<svg xmlns="http://www.w3.org/2000/svg" viewBox="0 0 24 24">
    <path d="M4 3H10C10.5523 3 11 3.44772 11 4V20C11 20.5523 10.5523 21 10 21H4C3.44772 21 3 20.5523 3 20V4C3 3.44772 3.44772 3 4 3ZM9 19V5H5V19H9ZM19 5V7H15V5H19ZM14 3H20C20.5523 3 21 3.44772 21 4V8C21 8.55228 20.5523 9 20 9H14C13.4477 9 13 8.55228 13 8V4C13 3.44772 13.4477 3 14 3ZM19 13V19H15V13H19ZM14 11H20C20.5523 11 21 11.4477 21 12V20C21 20.5523 20.5523 21 20 21H14C13.4477 21 13 20.5523 13 20V12C13 11.4477 13.4477 11 14 11Z" fill="currentColor" fill-rule="evenodd" clip-rule="evenodd" />
</svg>
