<svg xmlns="http://www.w3.org/2000/svg" viewBox="0 0 24 24">
    <path d="M11 8V4C11 3.44772 10.5523 3 10 3H4C3.44772 3 3 3.44772 3 4V8C3 8.55228 3.44772 9 4 9H10C10.5523 9 11 8.55228 11 8ZM4 11H10C10.5523 11 11 11.4477 11 12V20C11 20.5523 10.5523 21 10 21H4C3.44772 21 3 20.5523 3 20V12C3 11.4477 3.44772 11 4 11ZM20 15H14C13.4477 15 13 15.4477 13 16V20C13 20.5523 13.4477 21 14 21H20C20.5523 21 21 20.5523 21 20V16C21 15.4477 20.5523 15 20 15ZM14 3H20C20.5523 3 21 3.44772 21 4V12C21 12.5523 20.5523 13 20 13H14C13.4477 13 13 12.5523 13 12V4C13 3.44772 13.4477 3 14 3Z" fill="currentColor" fill-rule="evenodd" clip-rule="evenodd" />
</svg>
