<svg xmlns="http://www.w3.org/2000/svg" viewBox="0 0 24 24">
    <path d="M2 12C2 6.47715 6.47715 2 12 2C14.6522 2 17.1957 3.05357 19.0711 4.92893C20.9464 6.8043 22 9.34784 22 12C22 17.5228 17.5228 22 12 22C6.47715 22 2 17.5228 2 12ZM12.72 17.78L15.85 14.64C15.9447 14.5461 15.9979 14.4183 15.9979 14.285C15.9979 14.1517 15.9447 14.0239 15.85 13.93L15.15 13.22C15.0561 13.1253 14.9283 13.0721 14.795 13.0721C14.6617 13.0721 14.5339 13.1253 14.44 13.22L13 14.67V6.5C13 6.22386 12.7761 6 12.5 6H11.5C11.2239 6 11 6.22386 11 6.5V14.67L9.56 13.22C9.46784 13.1259 9.34169 13.0729 9.21 13.0729C9.07831 13.0729 8.95216 13.1259 8.86 13.22L8.15 13.93C8.05534 14.0239 8.0021 14.1517 8.0021 14.285C8.0021 14.4183 8.05534 14.5461 8.15 14.64L11.28 17.78C11.4217 17.9189 11.6116 17.9977 11.81 18H12.19C12.3888 17.9998 12.5795 17.9207 12.72 17.78Z" fill="currentColor" fill-rule="evenodd" clip-rule="evenodd" />
</svg>
