<svg xmlns="http://www.w3.org/2000/svg" viewBox="0 0 24 24">
    <path d="M16.0511 7.66868C15.9106 7.52454 15.6962 7.48089 15.5106 7.55858L12.4777 8.82977L6.96257 3.35465C10.8884 1.07402 15.8577 1.72146 19.0681 4.9319C22.2785 8.14234 22.926 13.1116 20.6453 17.0374L15.1702 11.5223L16.4014 8.44941C16.4791 8.26372 16.4354 8.04941 16.2913 7.90891L16.0511 7.66868ZM4.34012 3.17449C4.2493 3.07772 4.1225 3.02283 3.98979 3.02283C3.85708 3.02283 3.73028 3.07772 3.63947 3.17449L3.10897 3.70498C3.0122 3.7958 2.95731 3.9226 2.95731 4.05531C2.95731 4.18802 3.0122 4.31482 3.10897 4.40563L4.30008 5.60676C1.00596 9.58483 1.27958 15.4161 4.93172 19.0683C8.58387 22.7204 14.4152 22.994 18.3932 19.6999L19.5944 20.891C19.6852 20.9878 19.812 21.0427 19.9447 21.0427C20.0774 21.0427 20.2042 20.9878 20.295 20.891L20.8255 20.3605C20.9223 20.2697 20.9772 20.1429 20.9772 20.0102C20.9772 19.8775 20.9223 19.7507 20.8255 19.6599L4.34012 3.17449ZM8.34386 16.5069C8.15817 16.5846 7.94386 16.541 7.80335 16.3968L7.56313 16.1566C7.41899 16.0161 7.37534 15.8018 7.45303 15.6161L9.4549 10.7916L13.1784 14.5151L8.34386 16.5069Z" fill="currentColor" fill-rule="evenodd" clip-rule="evenodd" />
</svg>
