<svg xmlns="http://www.w3.org/2000/svg" viewBox="0 0 24 24">
    <path d="M21.1025 3.00488C21.6067 3.05621 22 3.48232 22 4V8L21.9951 8.10254C21.9472 8.57297 21.573 8.94722 21.1025 8.99512L21 9H16L15.8975 8.99512C15.427 8.94722 15.0528 8.57297 15.0049 8.10254L15 8V7H13V17H15V16C15 15.4823 15.3933 15.0562 15.8975 15.0049L16 15H21L21.1025 15.0049C21.6067 15.0562 22 15.4823 22 16V20L21.9951 20.1025C21.9472 20.573 21.573 20.9472 21.1025 20.9951L21 21H16L15.8975 20.9951C15.427 20.9472 15.0528 20.573 15.0049 20.1025L15 20V19H13C11.8954 19 11 18.1046 11 17V13H9V14L8.99512 14.1025C8.94722 14.573 8.57297 14.9472 8.10254 14.9951L8 15H3L2.89746 14.9951C2.42703 14.9472 2.05278 14.573 2.00488 14.1025L2 14V10C2 9.48232 2.39333 9.05621 2.89746 9.00488L3 9H8L8.10254 9.00488C8.60667 9.05621 9 9.48232 9 10V11H11V7C11 5.89543 11.8954 5 13 5H15V4C15 3.48232 15.3933 3.05621 15.8975 3.00488L16 3H21L21.1025 3.00488ZM17 19H20V17H17V19ZM4 13H7V11H4V13ZM17 7H20V5H17V7Z" fill="currentColor" />
</svg>
