<svg xmlns="http://www.w3.org/2000/svg" viewBox="0 0 24 24">
    <path d="M7 10H14V9C14 8.48232 14.3933 8.05621 14.8975 8.00488L15 8H21C21.5523 8 22 8.44772 22 9V13L21.9951 13.1025C21.9438 13.6067 21.5177 14 21 14H15L14.8975 13.9951C14.427 13.9472 14.0528 13.573 14.0049 13.1025L14 13V12H7V18H14V17C14 16.4823 14.3933 16.0562 14.8975 16.0049L15 16H21C21.5523 16 22 16.4477 22 17V21L21.9951 21.1025C21.9438 21.6067 21.5177 22 21 22H15L14.8975 21.9951C14.427 21.9472 14.0528 21.573 14.0049 21.1025L14 21V20H7C5.89543 20 5 19.1046 5 18V8H3L2.89746 7.99512C2.42703 7.94722 2.05278 7.57297 2.00488 7.10254L2 7V3C2 2.48232 2.39333 2.05621 2.89746 2.00488L3 2H9C9.55228 2 10 2.44772 10 3V7L9.99512 7.10254C9.94379 7.60667 9.51768 8 9 8H7V10ZM16 20H20V18H16V20ZM16 12H20V10H16V12ZM4 6H8V4H4V6Z" fill="currentColor" />
</svg>
