<svg xmlns="http://www.w3.org/2000/svg" viewBox="0 0 24 24">
    <path d="M14 11H20C20.5523 11 21 10.5523 21 10V4C21 3.44772 20.5523 3 20 3L14 3C13.4477 3 13 3.44772 13 4L13 10C13 10.5523 13.4477 11 14 11ZM11 4L11 10C11 10.5523 10.5523 11 10 11H4C3.44772 11 3 10.5523 3 10L3 4C3 3.44772 3.44772 3 4 3L10 3C10.5523 3 11 3.44772 11 4ZM11 20V14C11 13.4477 10.5523 13 10 13H4C3.44772 13 3 13.4477 3 14L3 20C3 20.5523 3.44772 21 4 21H10C10.5523 21 11 20.5523 11 20ZM21 14V20C21 20.5523 20.5523 21 20 21H14C13.4477 21 13 20.5523 13 20V14C13 13.4477 13.4477 13 14 13L20 13C20.5523 13 21 13.4477 21 14Z" fill="currentColor" fill-rule="evenodd" clip-rule="evenodd" />
</svg>
