<svg xmlns="http://www.w3.org/2000/svg" viewBox="0 0 24 24">
    <path d="M14 11H20C20.5523 11 21 10.5523 21 10V4C21 3.44772 20.5523 3 20 3H14C13.4477 3 13 3.44772 13 4V10C13 10.5523 13.4477 11 14 11ZM11 4V10C11 10.5523 10.5523 11 10 11H4C3.44771 11 3 10.5523 3 10V4C3 3.44772 3.44771 3 4 3H10C10.5523 3 11 3.44772 11 4ZM11 20V14C11 13.4477 10.5523 13 10 13H4C3.44771 13 3 13.4477 3 14V20C3 20.5523 3.44771 21 4 21H10C10.5523 21 11 20.5523 11 20ZM21 14V20C21 20.5523 20.5523 21 20 21H14C13.4477 21 13 20.5523 13 20V14C13 13.4477 13.4477 13 14 13L20 13C20.5523 13 21 13.4477 21 14ZM9 5.5V8.5C9 8.77614 8.77614 9 8.5 9H5.5C5.22386 9 5 8.77614 5 8.5V5.5C5 5.22386 5.22386 5 5.5 5H8.5C8.77614 5 9 5.22386 9 5.5ZM19 8.5V5.5C19 5.22386 18.7761 5 18.5 5H15.5C15.2239 5 15 5.22386 15 5.5V8.5C15 8.77614 15.2239 9 15.5 9H18.5C18.7761 9 19 8.77614 19 8.5ZM19 15.5V18.5C19 18.7761 18.7761 19 18.5 19H15.5C15.2239 19 15 18.7761 15 18.5V15.5C15 15.2239 15.2239 15 15.5 15H18.5C18.7761 15 19 15.2239 19 15.5ZM9 18.5V15.5C9 15.2239 8.77614 15 8.5 15H5.5C5.22386 15 5 15.2239 5 15.5V18.5C5 18.7761 5.22386 19 5.5 19H8.5C8.77614 19 9 18.7761 9 18.5Z" fill="currentColor" fill-rule="evenodd" clip-rule="evenodd" />
</svg>
