<svg xmlns="http://www.w3.org/2000/svg" viewBox="0 0 24 24">
    <path d="M14.29 3.29L21.71 10.71C21.8947 10.8963 21.9989 11.1477 22 11.41V12.5C22 12.7761 21.7761 13 21.5 13H20V20C20 20.5523 19.5523 21 19 21H14C13.4477 21 13 20.5523 13 20V15.25C13 15.1119 12.8881 15 12.75 15H11.25C11.1119 15 11 15.1119 11 15.25V20C11 20.5523 10.5523 21 10 21H5C4.44772 21 4 20.5523 4 20V13H2.5C2.22386 13 2 12.7761 2 12.5V11.41C2.0011 11.1477 2.10526 10.8963 2.29 10.71L9.71 3.29C9.89626 3.10526 10.1477 3.0011 10.41 3H13.59C13.8523 3.0011 14.1037 3.10526 14.29 3.29ZM15 19H18V9.83L13.17 5H10.83L6 9.83V19H9V14C9 13.4477 9.44772 13 10 13H14C14.5523 13 15 13.4477 15 14V19Z" fill="currentColor" fill-rule="evenodd" clip-rule="evenodd" />
</svg>
