<svg xmlns="http://www.w3.org/2000/svg" viewBox="0 0 24 24">
    <path d="M20.2672 3.30457L20.6969 3.73426C20.9349 3.96442 21.0434 4.29748 20.9867 4.62364L19.9874 10.1198C19.7982 11.0491 19.2758 11.8772 18.5185 12.4481L15.7705 14.6066C16.2243 15.873 15.779 17.2866 14.6813 18.0642L10.6843 20.8822C10.4601 21.0367 10.1535 20.9834 9.99476 20.7623L9.70497 20.3526C9.24869 19.7007 9.07025 18.8942 9.20895 18.1108C9.34765 17.3273 9.79211 16.6311 10.4444 16.1755L11.3338 15.5459L8.42591 12.638L7.79637 13.5274C7.34082 14.1797 6.64463 14.6242 5.86117 14.7629C5.07771 14.9016 4.27124 14.7231 3.61943 14.2668L3.20973 13.977C2.98859 13.8183 2.93527 13.5117 3.08982 13.2875L5.90775 9.29035C6.68534 8.19265 8.09889 7.74733 9.36522 8.20112L11.5236 5.42307C12.112 4.68202 12.9505 4.18104 13.8819 4.01407L19.3779 3.01477C19.704 2.95809 20.0371 3.06662 20.2672 3.30457ZM12.8926 6.53229L9.31526 11.0791L12.9226 14.6865L17.4793 11.0991C17.8771 10.7713 18.149 10.3157 18.2487 9.80998L18.5285 8.28106L15.7206 5.47304L14.1917 5.75284C13.6812 5.85377 13.2219 6.12938 12.8926 6.53229ZM13.4322 8.45094C12.8819 9.04154 12.8982 9.9619 13.469 10.5327C14.0398 11.1035 14.9601 11.1198 15.5507 10.5694C16.101 9.97885 16.0848 9.05849 15.514 8.48767C14.9431 7.91685 14.0228 7.90061 13.4322 8.45094ZM6.76213 16.0377C6.89535 16.0377 7.02305 16.0909 7.11687 16.1855L7.81635 16.885C7.91094 16.9788 7.96415 17.1065 7.96415 17.2397C7.96415 17.373 7.91094 17.5007 7.81635 17.5945L4.55874 20.8522C4.46493 20.9468 4.33723 21 4.204 21C4.07078 21 3.94308 20.9468 3.84926 20.8522L3.14978 20.1527C3.05519 20.0589 3.00199 19.9312 3.00199 19.7979C3.00199 19.6647 3.05519 19.537 3.14978 19.4432L6.40739 16.1855C6.5012 16.0909 6.62891 16.0377 6.76213 16.0377Z" fill="currentColor" fill-rule="evenodd" clip-rule="evenodd" />
</svg>
