<svg xmlns="http://www.w3.org/2000/svg" viewBox="0 0 24 24">
    <path d="M5.91895 7.72314H4.88379V5.10596H4.83496L4 5.65771V4.79102L4.88379 4.2002H5.91895V7.72314ZM21 6.5V5.5C21 5.22386 20.7761 5 20.5 5H9.5C9.22386 5 9 5.22386 9 5.5V6.5C9 6.77614 9.22386 7 9.5 7H20.5C20.7761 7 21 6.77614 21 6.5ZM9.5 11H20.5C20.7761 11 21 11.2239 21 11.5V12.5C21 12.7761 20.7761 13 20.5 13H9.5C9.22386 13 9 12.7761 9 12.5V11.5C9 11.2239 9.22386 11 9.5 11ZM20.5 17H9.5C9.22386 17 9 17.2239 9 17.5V18.5C9 18.7761 9.22386 19 9.5 19H20.5C20.7761 19 21 18.7761 21 18.5V17.5C21 17.2239 20.7761 17 20.5 17ZM4 11.2427H4.94238C4.94238 10.9717 5.11084 10.7666 5.40625 10.7666C5.68213 10.7666 5.82617 10.9448 5.82617 11.1475C5.82617 11.3257 5.77246 11.4673 5.34033 11.8359L4.06104 12.9321V13.6206H6.86133V12.8296H5.43799V12.7808L6.09961 12.2144C6.63916 11.7529 6.82471 11.4819 6.82471 11.062C6.82471 10.4468 6.33643 10 5.45752 10C4.58838 10 4 10.498 4 11.2427ZM5.47949 18.356H5.02295V17.6821H5.48438C5.75049 17.6821 5.91406 17.5332 5.91406 17.3135C5.91406 17.1035 5.75293 16.957 5.48682 16.957C5.20117 16.957 5.03516 17.1108 5.02539 17.3623H4.09033C4.09521 16.6519 4.65918 16.2002 5.5332 16.2002C6.39746 16.2002 6.86621 16.6274 6.86621 17.1621C6.86621 17.5894 6.59033 17.8677 6.19482 17.9556V18.0044C6.71973 18.0752 7.01025 18.3901 7.01025 18.8467C7.01025 19.4863 6.39014 19.9185 5.49902 19.9185C4.62256 19.9185 4.03174 19.4497 4 18.7271H4.98633C4.99121 18.9663 5.1792 19.1152 5.48193 19.1152C5.76758 19.1152 5.95801 18.9639 5.95801 18.7368C5.95801 18.4976 5.77734 18.356 5.47949 18.356Z" fill="currentColor" fill-rule="evenodd" clip-rule="evenodd" />
</svg>
