<svg xmlns="http://www.w3.org/2000/svg" viewBox="0 0 24 24">
    <path d="M5 3H8C9.10457 3 10 3.89543 10 5V8C10 9.10457 9.10457 10 8 10H5C3.89543 10 3 9.10457 3 8V5C3 3.89543 3.89543 3 5 3ZM5 8H8V5H5V8ZM19 3H16C14.8954 3 14 3.89543 14 5V8C14 9.10457 14.8954 10 16 10H19C20.1046 10 21 9.10457 21 8V5C21 3.89543 20.1046 3 19 3ZM16 8H19V5H16V8ZM10 16C10 14.8954 9.10457 14 8 14H5C3.89543 14 3 14.8954 3 16V19C3 20.1046 3.89543 21 5 21H8C9.10457 21 10 20.1046 10 19V16ZM5 19H8V16H5V19ZM19 14H16C14.8954 14 14 14.8954 14 16V19C14 20.1046 14.8954 21 16 21H19C20.1046 21 21 20.1046 21 19V16C21 14.8954 20.1046 14 19 14ZM16 19H19V16H16V19Z" fill="currentColor" fill-rule="evenodd" clip-rule="evenodd" />
</svg>
