<svg xmlns="http://www.w3.org/2000/svg" viewBox="0 0 24 24">
    <path d="M21.0852 2.36555L21.6339 2.91447C21.8679 3.1482 21.9995 3.4653 21.9998 3.79606V4.42814C22.0039 4.76465 21.872 5.08857 21.6339 5.32637L20.0957 6.84004C20.0177 6.91877 19.9114 6.96305 19.8006 6.96305C19.6897 6.96305 19.5835 6.91877 19.5054 6.84004L17.169 4.46973C17.0105 4.30803 17.0105 4.04924 17.169 3.88754L18.6739 2.36555C18.9117 2.12741 19.2355 1.99544 19.5719 1.99961H20.2038C20.5345 1.9999 20.8515 2.13153 21.0852 2.36555ZM10.3332 5.83298C10.3332 5.55683 10.1093 5.33298 9.83318 5.33298H4.49961C3.11885 5.33298 1.99951 6.45231 1.99951 7.83308V19.5002C1.99951 20.881 3.11884 22.0003 4.49961 22.0003H16.1668C17.5475 22.0003 18.6669 20.881 18.6669 19.5002V14.1666C18.6669 13.8905 18.443 13.6666 18.1669 13.6666H17.5001C17.224 13.6666 17.0001 13.8905 17.0001 14.1666V19.5002C17.0001 19.9605 16.627 20.3336 16.1668 20.3336H4.49961C4.03936 20.3336 3.66625 19.9605 3.66625 19.5002V7.83308C3.66625 7.37282 4.03936 6.99971 4.49961 6.99971H9.83318C10.1093 6.99971 10.3332 6.77585 10.3332 6.49971V5.83298ZM18.5164 7.82129C18.6749 7.98298 18.6749 8.24177 18.5164 8.40347L11.8148 15.1318C11.654 15.2941 11.4616 15.4215 11.2494 15.5061L7.64088 16.9699C7.48641 17.0321 7.30973 16.9961 7.19189 16.8784C7.01984 16.7686 6.9529 16.5501 7.03391 16.3627L8.46403 12.7532C8.5486 12.541 8.67596 12.3485 8.83819 12.1877L15.5481 5.47592C15.6261 5.3972 15.7324 5.35292 15.8432 5.35292C15.9541 5.35292 16.0604 5.3972 16.1384 5.47592L18.5164 7.82129Z" fill="currentColor" fill-rule="evenodd" clip-rule="evenodd" />
</svg>
