<svg xmlns="http://www.w3.org/2000/svg" viewBox="0 0 24 24">
    <path d="M20.5714 5H9.42857C9.19188 5 9 5.22386 9 5.5V6.5C9 6.77614 9.19188 7 9.42857 7H20.5714C20.8081 7 21 6.77614 21 6.5V5.5C21 5.22386 20.8081 5 20.5714 5Z" fill="currentColor" />
    <path d="M20.5714 11H9.42857C9.19188 11 9 11.2239 9 11.5V12.5C9 12.7761 9.19188 13 9.42857 13H20.5714C20.8081 13 21 12.7761 21 12.5V11.5C21 11.2239 20.8081 11 20.5714 11Z" fill="currentColor" />
    <path d="M20.5714 17H9.42857C9.19188 17 9 17.2239 9 17.5V18.5C9 18.7761 9.19188 19 9.42857 19H20.5714C20.8081 19 21 18.7761 21 18.5V17.5C21 17.2239 20.8081 17 20.5714 17Z" fill="currentColor" />
    <path d="M6.663 4.19562C6.93761 3.9268 7.37747 3.93646 7.64031 4.21583L7.81228 4.39862C8.06984 4.67237 8.06153 5.10381 7.79246 5.3672L5.33877 7.76911L4.77061 6.04806M4.77061 6.04806L6.663 4.19562L4.77061 6.04806ZM4.77061 6.04806L4.33291 5.62478C4.05659 5.35756 3.61681 5.37008 3.35574 5.65096L3.18486 5.83482C2.92904 6.11006 2.9398 6.54144 3.21053 6.80326L4.21285 7.77256C4.52785 8.07719 5.02569 8.07559 5.33877 7.76911" fill="currentColor" fill-rule="evenodd" clip-rule="evenodd" />
    <path d="M6.663 10.1956C6.93761 9.9268 7.37747 9.93646 7.64031 10.2158L7.81228 10.3986C8.06984 10.6724 8.06153 11.1038 7.79246 11.3672L5.33877 13.7691L4.77061 12.0481M4.77061 12.0481L6.663 10.1956L4.77061 12.0481ZM4.77061 12.0481L4.33291 11.6248C4.05659 11.3576 3.61681 11.3701 3.35574 11.651L3.18486 11.8348C2.92904 12.1101 2.9398 12.5414 3.21053 12.8033L4.21285 13.7726C4.52785 14.0772 5.02569 14.0756 5.33877 13.7691" fill="currentColor" fill-rule="evenodd" clip-rule="evenodd" />
    <path d="M6.663 16.1956C6.93761 15.9268 7.37747 15.9365 7.64031 16.2158L7.81228 16.3986C8.06984 16.6724 8.06153 17.1038 7.79246 17.3672L5.33877 19.7691L4.77061 18.0481M4.77061 18.0481L6.663 16.1956L4.77061 18.0481ZM4.77061 18.0481L4.33291 17.6248C4.05659 17.3576 3.61681 17.3701 3.35574 17.651L3.18486 17.8348C2.92904 18.1101 2.9398 18.5414 3.21053 18.8033L4.21285 19.7726C4.52785 20.0772 5.02569 20.0756 5.33877 19.7691" fill="currentColor" fill-rule="evenodd" clip-rule="evenodd" />
</svg>
