<svg xmlns="http://www.w3.org/2000/svg" viewBox="0 0 24 24">
    <path d="M13.9998 13.9998C9.27976 13.9998 4.49976 15.9998 3.99976 18.5898C3.95643 18.8266 3.7505 18.9989 3.50976 18.9998H3.40976C3.29026 18.9997 3.17549 18.9531 3.08976 18.8698C3.0219 18.7738 2.99003 18.657 2.99976 18.5398C3.35377 12.6941 8.14427 8.10394 13.9998 7.99981V5.41981C13.9978 5.28423 14.0521 5.15389 14.1498 5.05981L14.3498 4.85981C14.4436 4.76516 14.5714 4.71191 14.7048 4.71191C14.8381 4.71191 14.9659 4.76516 15.0598 4.85981L20.8498 10.6498C20.9464 10.7405 21.0013 10.8672 21.0013 10.9998C21.0013 11.1324 20.9464 11.2591 20.8498 11.3498L15.0598 17.1398C14.9659 17.2345 14.8381 17.2877 14.7048 17.2877C14.5714 17.2877 14.4436 17.2345 14.3498 17.1398L14.1498 16.9398C14.0521 16.8457 13.9978 16.7154 13.9998 16.5798V13.9998Z" fill="currentColor" />
</svg>
