<svg xmlns="http://www.w3.org/2000/svg" viewBox="0 0 24 24">
    <path d="M16 18.5V17.5C16 17.2239 15.7547 17 15.4521 17H11.5479C11.2453 17 11 17.2239 11 17.5V18.5C11 18.7761 11.2453 19 11.5479 19H15.4521C15.7547 19 16 18.7761 16 18.5ZM19.0195 11.5V12.5C19.0195 12.7761 18.831 13 18.5985 13H11.4211C11.1885 13 11 12.7761 11 12.5V11.5C11 11.2239 11.1885 11 11.4211 11H18.5985C18.831 11 19.0195 11.2239 19.0195 11.5ZM11.5 7H21.5C21.7761 7 22 6.77614 22 6.5V5.5C22 5.22386 21.7761 5 21.5 5H11.5C11.2239 5 11 5.22386 11 5.5V6.5C11 6.77614 11.2239 7 11.5 7ZM2.0396 15.305C1.96088 15.4909 2.00165 15.7058 2.14295 15.85L5.14295 18.85C5.34076 19.0418 5.65514 19.0418 5.85295 18.85L8.85295 15.85C8.99301 15.7072 9.03444 15.4946 8.95827 15.3096C8.88209 15.1246 8.70299 15.0028 8.50295 15H6.50295V5.5C6.50295 5.22386 6.27909 5 6.00295 5H5.00295C4.72681 5 4.50295 5.22386 4.50295 5.5V15H2.50295C2.3011 14.9988 2.11833 15.1191 2.0396 15.305Z" fill="currentColor" fill-rule="evenodd" clip-rule="evenodd" />
</svg>
