<svg xmlns="http://www.w3.org/2000/svg" viewBox="0 0 24 24">
    <path d="M16 18.5V17.5C16 17.2239 15.7547 17 15.4521 17H11.5479C11.2453 17 11 17.2239 11 17.5V18.5C11 18.7761 11.2453 19 11.5479 19H15.4521C15.7547 19 16 18.7761 16 18.5ZM19.0195 11.5V12.5C19.0195 12.7761 18.831 13 18.5985 13H11.4211C11.1885 13 11 12.7761 11 12.5V11.5C11 11.2239 11.1885 11 11.4211 11H18.5985C18.831 11 19.0195 11.2239 19.0195 11.5ZM11.5 7H21.5C21.7761 7 22 6.77614 22 6.5V5.5C22 5.22386 21.7761 5 21.5 5H11.5C11.2239 5 11 5.22386 11 5.5V6.5C11 6.77614 11.2239 7 11.5 7ZM2.0396 8.68866C1.96088 8.50278 2.00165 8.2878 2.14295 8.14365L5.14295 5.14365C5.34076 4.95187 5.65514 4.95187 5.85295 5.14365L8.85295 8.14365C8.99301 8.2865 9.03444 8.49909 8.95827 8.68408C8.88209 8.86907 8.70299 8.99084 8.50295 8.99365H6.50295V18.4937C6.50295 18.7698 6.27909 18.9937 6.00295 18.9937H5.00295C4.72681 18.9937 4.50295 18.7698 4.50295 18.4937V8.99365H2.50295C2.3011 8.99484 2.11833 8.87453 2.0396 8.68866Z" fill="currentColor" fill-rule="evenodd" clip-rule="evenodd" />
</svg>
