<svg xmlns="http://www.w3.org/2000/svg" viewBox="0 0 24 24">
    <path d="M7.11296 6.17592C7.34728 5.94161 7.72718 5.94161 7.96149 6.17592L11.9999 10.2144L16.0383 6.17602C16.2726 5.9417 16.6525 5.9417 16.8868 6.17602L17.8236 7.11275C18.0579 7.34707 18.0579 7.72697 17.8236 7.96128L13.7852 11.9996L17.8245 16.039C18.0589 16.2733 18.0589 16.6532 17.8245 16.8875L16.8878 17.8242C16.6535 18.0586 16.2736 18.0586 16.0393 17.8242L11.9999 13.7849L7.96051 17.8243C7.7262 18.0587 7.3463 18.0587 7.11198 17.8243L6.17525 16.8876C5.94093 16.6533 5.94093 16.2734 6.17525 16.0391L10.2147 11.9996L6.17623 7.96118C5.94191 7.72687 5.94191 7.34697 6.17623 7.11266L7.11296 6.17592Z" fill="currentColor" />
    <path d="M19.336 7H22.6963V6.05078H20.9766V5.99219L21.5772 5.5C22.3565 4.86133 22.6436 4.41895 22.6436 3.94141V3.92676C22.6436 3.15332 21.9932 2.65527 20.9883 2.65527C19.9483 2.65527 19.2627 3.22949 19.2627 4.09961V4.12305H20.3936V4.09668C20.3936 3.79199 20.6221 3.5752 20.9444 3.5752C21.2549 3.5752 21.4453 3.74219 21.4453 4.01758V4.03223C21.4453 4.25488 21.2784 4.46289 20.6309 5.03418L19.336 6.17383V7Z" fill="currentColor" />
</svg>
