<svg xmlns="http://www.w3.org/2000/svg" viewBox="0 0 24 24">
    <path d="M5.5 8C5.22386 8 5 8.22386 5 8.5V9.5C5 9.77614 5.22386 10 5.5 10H7V14H5.5C5.22386 14 5 14.2239 5 14.5V15.5C5 15.7761 5.22386 16 5.5 16H10.5C10.7761 16 11 15.7761 11 15.5V14.5C11 14.2239 10.7761 14 10.5 14H9V10H10.5C10.7761 10 11 9.77614 11 9.5V8.5C11 8.22386 10.7761 8 10.5 8H5.5Z" fill="currentColor" />
    <path d="M1 7C1 5.89543 1.89543 5 3 5H21C22.1046 5 23 5.89543 23 7V17C23 18.1046 22.1046 19 21 19H3C1.89543 19 1 18.1046 1 17V7ZM3 7H21V17H3L3 7Z" fill="currentColor" fill-rule="evenodd" clip-rule="evenodd" />
</svg>
