<svg xmlns="http://www.w3.org/2000/svg" viewBox="0 0 24 24">
    <path d="M15 4H19.5C19.7761 4 20 4.22386 20 4.5V5.5C20 5.77614 19.7761 6 19.5 6H4.5C4.22386 6 4 5.77614 4 5.5V4.5C4 4.22386 4.22386 4 4.5 4H9V3C9 2.44772 9.44772 2 10 2H14C14.5523 2 15 2.44772 15 3V4ZM5 8L5.87 20.14C5.94365 21.1896 6.81787 22.0026 7.87 22H16.15C17.2021 22.0026 18.0764 21.1896 18.15 20.14L19 8H5ZM16 15.5C16 15.7761 15.7761 16 15.5 16H13V18.5C13 18.7761 12.7761 19 12.5 19H11.5C11.2239 19 11 18.7761 11 18.5V16H8.5C8.22386 16 8 15.7761 8 15.5V14.5C8 14.2239 8.22386 14 8.5 14H11V11.5C11 11.2239 11.2239 11 11.5 11H12.5C12.7761 11 13 11.2239 13 11.5V14H15.5C15.7761 14 16 14.2239 16 14.5V15.5Z" fill="currentColor" fill-rule="evenodd" clip-rule="evenodd" />
</svg>
