<svg xmlns="http://www.w3.org/2000/svg" viewBox="0 0 24 24">
    <path d="M2 12C2 6.47715 6.47715 2 12 2C14.6522 2 17.1957 3.05357 19.0711 4.92893C20.9464 6.8043 22 9.34784 22 12C22 17.5228 17.5228 22 12 22C6.47715 22 2 17.5228 2 12ZM15.14 10.78L15.85 10.07C15.9447 9.97612 15.9979 9.84832 15.9979 9.715C15.9979 9.58168 15.9447 9.45388 15.85 9.36L12.72 6.22C12.5783 6.08112 12.3884 6.0023 12.19 6H11.81C11.6112 6.00017 11.4205 6.07931 11.28 6.22L8.15 9.36C8.05534 9.45388 8.0021 9.58168 8.0021 9.715C8.0021 9.84832 8.05534 9.97612 8.15 10.07L8.85 10.78C8.94388 10.8747 9.07168 10.9279 9.205 10.9279C9.33832 10.9279 9.46612 10.8747 9.56 10.78L11 9.33V17.5C11 17.7761 11.2239 18 11.5 18H12.5C12.7761 18 13 17.7761 13 17.5V9.33L14.44 10.78C14.5322 10.8741 14.6583 10.9271 14.79 10.9271C14.9217 10.9271 15.0478 10.8741 15.14 10.78Z" fill="currentColor" fill-rule="evenodd" clip-rule="evenodd" />
</svg>
