<svg xmlns="http://www.w3.org/2000/svg" viewBox="0 0 24 24">
    <path d="M21 15.2022V20.9444C21 21.5356 20.5395 22 19.9535 22H4.04651C3.46047 22 3 21.5356 3 20.9444V15.2022C3 14.6111 3.46047 14.1467 4.04651 14.1467C4.63256 14.1467 5.09302 14.6111 5.09302 15.2022V19.8889H18.907V15.2022C18.907 14.6111 19.3674 14.1467 19.9535 14.1467C20.5395 14.1467 21 14.6111 21 15.2022ZM8.56744 9.10109L10.9535 6.65223V15.7934C10.9535 16.3845 11.414 16.8489 12 16.8489C12.586 16.8489 13.0465 16.3845 13.0465 15.7934V6.65223L15.4325 9.10109C15.6418 9.3122 15.914 9.41776 16.186 9.41776C16.4581 9.41776 16.7093 9.31222 16.9186 9.12222C17.3372 8.72111 17.3372 8.04554 16.9396 7.62331L12.7744 3.31667C12.586 3.10556 12.3139 3 12.0209 3C11.7488 3 11.4767 3.10556 11.2674 3.31667L7.10232 7.62331C6.70465 8.04554 6.70464 8.7 7.12325 9.12222C7.49999 9.52333 8.16976 9.5022 8.56744 9.10109Z" fill="currentColor" />
</svg>
