<svg xmlns="http://www.w3.org/2000/svg" viewBox="0 0 24 24">
    <path d="M21 14V20C21 20.5523 20.5523 21 20 21H14C13.4477 21 13 20.5523 13 20V14C13 13.4477 13.4477 13 14 13H20C20.5523 13 21 13.4477 21 14ZM15 19H19V15H15V19ZM21 4L21 10C21 10.5523 20.5523 11 20 11L4 11C3.44772 11 3 10.5523 3 10L3 4C3 3.44772 3.44772 3 4 3L20 3C20.5523 3 21 3.44772 21 4ZM5 9L19 9L19 5L5 5V9ZM11 20V14C11 13.4477 10.5523 13 10 13H4C3.44772 13 3 13.4477 3 14V20C3 20.5523 3.44772 21 4 21L10 21C10.5523 21 11 20.5523 11 20ZM9 19H5V15H9V19Z" fill="currentColor" fill-rule="evenodd" clip-rule="evenodd" />
</svg>
