<svg xmlns="http://www.w3.org/2000/svg" viewBox="0 0 24 24">
    <path d="M19 9.00011H13V6.72011C13.6151 6.365 13.9957 5.71033 14 5.00011C13.7452 3.96309 13.2444 3.00268 12.54 2.20011C12.4478 2.0716 12.2981 1.99679 12.14 2.00011H11.86C11.7019 1.99679 11.5522 2.0716 11.46 2.20011C10.7556 3.00268 10.2548 3.96309 10 5.00011C10.0043 5.71033 10.3849 6.365 11 6.72011V9.00011H5C3.89543 9.00011 3 9.89554 3 11.0001V17.0001C3 17.5524 3.44772 18.0001 4 18.0001V21.0001C4 21.5524 4.44772 22.0001 5 22.0001H19C19.5523 22.0001 20 21.5524 20 21.0001V18.0001C20.5523 18.0001 21 17.5524 21 17.0001V11.0001C21 9.89554 20.1046 9.00011 19 9.00011ZM5 11.0001H19V16.0001C18.3526 15.9925 17.749 15.6721 17.38 15.1401L16.73 14.2101C16.6345 14.0789 16.4823 14.0009 16.32 14.0001H15.32C15.1746 13.9988 15.0359 14.0609 14.94 14.1701L14.25 14.9601C13.6933 15.6204 12.8736 16.0014 12.01 16.0014C11.1464 16.0014 10.3267 15.6204 9.77 14.9601L9.08 14.1701C8.98179 14.0582 8.83883 13.9959 8.69 14.0001H7.69C7.5277 14.0009 7.37547 14.0789 7.28 14.2101L6.63 15.1401C6.25899 15.6749 5.65091 15.9958 5 16.0001V11.0001ZM6 17.8701V20.0001H18V17.8701C17.0817 17.6254 16.2805 17.0617 15.74 16.2801C14.8034 17.3706 13.4375 17.9981 12 17.9981C10.5625 17.9981 9.19658 17.3706 8.26 16.2801C7.71947 17.0617 6.91829 17.6254 6 17.8701Z" fill="currentColor" fill-rule="evenodd" clip-rule="evenodd" />
</svg>
