<svg xmlns="http://www.w3.org/2000/svg" viewBox="0 0 24 24">
    <path d="M21 4H15C13.8495 4.00398 12.7564 4.50315 12 5.37C11.2436 4.50315 10.1505 4.00398 9 4H3C2.44772 4 2 4.44772 2 5V18C2 18.5523 2.44772 19 3 19H8.59C8.85234 19.0011 9.10374 19.1053 9.29 19.29L9.71 19.71C9.89626 19.8947 10.1477 19.9989 10.41 20H13.59C13.8523 19.9989 14.1037 19.8947 14.29 19.71L14.71 19.29C14.8963 19.1053 15.1477 19.0011 15.41 19H21C21.5523 19 22 18.5523 22 18V5C22 4.44772 21.5523 4 21 4ZM11 16.54C10.3923 16.1875 9.70252 16.0012 9 16H4V6H9C10.1046 6 11 6.89543 11 8V16.54ZM15 16H20V6H15C13.8954 6 13 6.89543 13 8V16.54C13.6077 16.1875 14.2975 16.0012 15 16Z" fill="currentColor" fill-rule="evenodd" clip-rule="evenodd" />
</svg>
