<svg xmlns="http://www.w3.org/2000/svg" viewBox="0 0 24 24">
    <path d="M2 7.5V4.5C2 4.22386 2.22386 4 2.5 4H10.5C10.7761 4 11 4.22386 11 4.5V7.5C11 7.77614 10.7761 8 10.5 8H2.5C2.22386 8 2 7.77614 2 7.5ZM21.5 4H13.5C13.2239 4 13 4.22386 13 4.5V7.5C13 7.77614 13.2239 8 13.5 8H21.5C21.7761 8 22 7.77614 22 7.5V4.5C22 4.22386 21.7761 4 21.5 4ZM4.5 14H2.5C2.22386 14 2 13.7761 2 13.5V10.5C2 10.2239 2.22386 10 2.5 10H4.5C4.77614 10 5 10.2239 5 10.5V13.5C5 13.7761 4.77614 14 4.5 14ZM7 10.5V13.5C7 13.7761 7.22386 14 7.5 14H16.5C16.7761 14 17 13.7761 17 13.5V10.5C17 10.2239 16.7761 10 16.5 10H7.5C7.22386 10 7 10.2239 7 10.5ZM19.5 10H21.5C21.7761 10 22 10.2239 22 10.5V13.5C22 13.7761 21.7761 14 21.5 14H19.5C19.2239 14 19 13.7761 19 13.5V10.5C19 10.2239 19.2239 10 19.5 10ZM10.5 16H2.5C2.22386 16 2 16.2239 2 16.5V19.5C2 19.7761 2.22386 20 2.5 20H10.5C10.7761 20 11 19.7761 11 19.5V16.5C11 16.2239 10.7761 16 10.5 16ZM13.5 16H21.5C21.7761 16 22 16.2239 22 16.5V19.5C22 19.7761 21.7761 20 21.5 20H13.5C13.2239 20 13 19.7761 13 19.5V16.5C13 16.2239 13.2239 16 13.5 16Z" fill="currentColor" fill-rule="evenodd" clip-rule="evenodd" />
</svg>
