<svg xmlns="http://www.w3.org/2000/svg" viewBox="0 0 20 20">
    <path d="M17.1583 5.72508L17.275 5.93341C17.4219 6.18661 17.4995 6.47403 17.5 6.76675V13.2251C17.4976 13.5175 17.4201 13.8045 17.275 14.0584L17.15 14.2667C17.0073 14.5218 16.7967 14.7323 16.5417 14.8751L10.95 18.1084C10.6968 18.2553 10.4094 18.3329 10.1167 18.3334H9.88333C9.59019 18.3362 9.30192 18.2583 9.05 18.1084L3.45 14.8834C3.20041 14.7336 2.99149 14.5247 2.84167 14.2751L2.725 14.0667C2.57812 13.8135 2.50052 13.5261 2.5 13.2334V6.77508C2.50052 6.48237 2.57812 6.19495 2.725 5.94175L2.84167 5.73342C2.98771 5.48089 3.19748 5.27113 3.45 5.12508L9.04167 1.89175C9.29487 1.74487 9.58228 1.66727 9.875 1.66675H10.1167C10.4094 1.66727 10.6968 1.74487 10.95 1.89175L16.5417 5.11675C16.7956 5.26377 17.0079 5.47315 17.1583 5.72508ZM10.1167 3.33341H9.875L8.35825 4.20976L6.70792 5.16328L5 6.15008L10 9.03342L11.6108 8.10454L13.2627 7.15195L15 6.15008L10.1167 3.33341ZM15.7083 13.4334L10.8333 16.2501V10.4834L15.8333 7.59175V13.2251L15.7083 13.4334ZM4.16667 7.50008L9.16667 10.4167V16.2501L4.16667 13.3334V7.50008Z" fill="currentColor" fill-rule="evenodd" clip-rule="evenodd" />
</svg>
