<svg xmlns="http://www.w3.org/2000/svg" viewBox="0 0 24 24">
    <path d="M8.50005 2H15.5001C15.7762 2 16.0001 2.22375 16.0001 2.49976V3.49928C16.0001 3.77529 15.7762 3.99904 15.5001 3.99904H15.0001V7.51735C14.9979 8.18771 15.3321 8.8145 15.8901 9.18655C18.4533 10.899 19.5937 14.0861 18.6985 17.035C17.8032 19.9838 15.0831 22 12.0001 22C8.91696 22 6.19688 19.9838 5.30165 17.035C4.40642 14.0861 5.54685 10.899 8.11005 9.18655C8.66797 8.8145 9.00216 8.18771 9.00005 7.51735V3.99904H8.50005C8.22391 3.99904 8.00005 3.77529 8.00005 3.49928V2.49976C8.00005 2.22375 8.22391 2 8.50005 2ZM14.7801 10.8457C13.6672 10.1036 12.9992 8.85453 13.0001 7.51735V3.99904H11.0001V7.51735C11.0009 8.85453 10.3329 10.1036 9.22005 10.8457C7.83455 11.7721 7.00203 13.3277 7.00005 14.9938H17.0001C16.9981 13.3277 16.1656 11.7721 14.7801 10.8457Z" fill="currentColor" fill-rule="evenodd" clip-rule="evenodd" />
</svg>
