<svg xmlns="http://www.w3.org/2000/svg" viewBox="0 0 24 24">
    <path d="M20.6604 7.00542C21.524 8.50093 21.3304 10.3819 20.1801 11.67C20.0097 11.857 20.0097 12.143 20.1801 12.33C21.3304 13.6182 21.524 15.4991 20.6604 16.9946C19.7967 18.4901 18.0708 19.2625 16.3801 18.91C16.1289 18.8619 15.8808 19.0073 15.8001 19.25C15.2606 20.8915 13.728 22.001 12.0001 22.001C10.2722 22.001 8.73966 20.8915 8.20013 19.25C8.11943 19.0073 7.87137 18.8619 7.62013 18.91C5.9295 19.2625 4.20356 18.4901 3.33989 16.9946C2.47623 15.4991 2.66987 13.6182 3.82013 12.33C3.9905 12.143 3.9905 11.857 3.82013 11.67C2.66987 10.3819 2.47623 8.50093 3.33989 7.00542C4.20356 5.50992 5.9295 4.73756 7.62013 5.09002C7.87137 5.1382 8.11943 4.99278 8.20013 4.75002C8.73966 3.10853 10.2722 1.99902 12.0001 1.99902C13.728 1.99902 15.2606 3.10853 15.8001 4.75002C15.8808 4.99278 16.1289 5.1382 16.3801 5.09002C18.0708 4.73756 19.7967 5.50992 20.6604 7.00542ZM8.00013 12C8.00013 14.2092 9.79099 16 12.0001 16C13.061 16 14.0784 15.5786 14.8286 14.8285C15.5787 14.0783 16.0001 13.0609 16.0001 12C16.0001 9.79088 14.2093 8.00002 12.0001 8.00002C9.79099 8.00002 8.00013 9.79088 8.00013 12Z" fill="currentColor" fill-rule="evenodd" clip-rule="evenodd" />
</svg>
