<svg xmlns="http://www.w3.org/2000/svg" viewBox="0 0 24 24">
    <path d="M13 10H19C19.5523 10 20 9.55228 20 9V3C20 2.44772 19.5523 2 19 2H5C4.44772 2 4 2.44772 4 3V9C4 9.55228 4.44772 10 5 10H11V14H5C4.44772 14 4 14.4477 4 15V21C4 21.5523 4.44772 22 5 22H19C19.5523 22 20 21.5523 20 21V15C20 14.4477 19.5523 14 19 14H13V10ZM6 4V8H10V7C10 6.44772 10.4477 6 11 6H13C13.5523 6 14 6.44772 14 7V8H18V4H6ZM18 16H14V17C14 17.5523 13.5523 18 13 18H11C10.4477 18 10 17.5523 10 17V16H6V20H18V16Z" fill="currentColor" fill-rule="evenodd" clip-rule="evenodd" />
</svg>
