<svg xmlns="http://www.w3.org/2000/svg" viewBox="0 0 24 24">
    <path d="M21.8836 4.44722L21.5522 4.11133C21.476 4.0303 21.3675 3.98905 21.2575 3.99936H17.9432C17.7398 3.99936 17.5749 4.16646 17.5749 4.37258V5.11901C17.5749 5.32513 17.7398 5.49223 17.9432 5.49223H19.4752L16.971 8.02264C15.3532 6.79296 13.2436 6.65911 11.5334 7.52458C9.74356 6.62228 7.52802 6.81451 5.89708 8.17554C3.75179 9.96579 3.37465 13.1469 5.04035 15.4018L3.94616 16.5095L3.15674 15.7103C3.01142 15.5632 2.77584 15.5631 2.63058 15.7102L2.10452 16.2427C1.95926 16.3898 1.95931 16.6283 2.10463 16.7754L2.89405 17.5745L2.10496 18.3734C1.9597 18.5204 1.95974 18.7589 2.10507 18.906L2.63135 19.4388C2.77667 19.5859 3.01225 19.586 3.15751 19.4389L3.9466 18.6401L4.73601 19.4392C4.88134 19.5864 5.11691 19.5864 5.26217 19.4394L5.78823 18.9068C5.9335 18.7597 5.93345 18.5213 5.78812 18.3741L4.99871 17.575L6.0929 16.4673C7.71275 17.6936 9.83531 17.8341 11.5594 16.9536C13.3857 17.8659 15.6398 17.6301 17.2576 16.208C19.3162 14.3986 19.6444 11.2844 18.0095 9.07511L20.521 6.5447V8.10475C20.521 8.31087 20.6859 8.47796 20.8893 8.47796H21.6258C21.8292 8.47796 21.9941 8.31087 21.9941 8.10475V4.7458C22.0042 4.63438 21.9635 4.52438 21.8836 4.44722ZM13.025 15.8382C13.3032 15.9063 13.5937 15.9423 13.8925 15.9423C15.9263 15.9423 17.5751 14.2714 17.5751 12.2101C17.5751 10.1489 15.9263 8.47798 13.8925 8.47798C13.5739 8.47798 13.2648 8.51897 12.97 8.59603C13.0031 8.63098 13.0358 8.66648 13.0681 8.70253C14.8937 10.7393 14.8616 13.8426 13.025 15.8382ZM11.5539 9.32702C11.6516 9.40766 11.7462 9.49409 11.8373 9.58629C13.2906 11.0575 13.291 13.4423 11.8384 14.9129C11.762 14.9902 11.6831 15.0635 11.6019 15.1327C10.7537 14.449 10.2099 13.3939 10.2099 12.2101C10.2099 11.0489 10.7332 10.0115 11.5539 9.32702ZM10.1045 8.59359C10.0461 8.65554 9.98882 8.71922 9.93285 8.78462C8.16415 10.8514 8.25523 13.9426 10.1305 15.8986C8.89993 16.216 7.54006 15.887 6.57673 14.9118C5.12346 13.4406 5.12297 11.0558 6.57563 9.58518C7.53219 8.61682 8.88031 8.28632 10.1045 8.59359Z" fill="currentColor" fill-rule="evenodd" clip-rule="evenodd" opacity="0.9" />
</svg>
