<svg xmlns="http://www.w3.org/2000/svg" viewBox="0 0 24 24">
    <path d="M22.51 12.87L18.91 5.13002C18.5763 4.43935 17.8771 4.00035 17.11 4.00002H15.5C15.2239 4.00002 15 4.22388 15 4.50002V5.50002C15 5.77617 15.2239 6.00002 15.5 6.00002H17.11L19 10.11C16.8787 9.65429 14.7084 10.636 13.65 12.53C13.1641 12.1949 12.5902 12.0105 12 12C11.4013 12.0058 10.8187 12.1942 10.33 12.54C9.27473 10.6529 7.11671 9.66902 5.00001 10.11L6.89001 6.00002H8.50001C8.77615 6.00002 9.00001 5.77617 9.00001 5.50002V4.50002C9.00001 4.22388 8.77615 4.00002 8.50001 4.00002H6.89001C6.11117 3.99628 5.40101 4.44502 5.07001 5.15002L1.47001 12.89C1.15917 13.5499 0.998648 14.2706 1.00001 15C1.00001 17.7614 3.23858 20 6.00001 20C8.76143 20 11 17.7614 11 15C11 14.4477 11.4477 14 12 14C12.5523 14 13 14.4477 13 15C13 17.7614 15.2386 20 18 20C20.7614 20 23 17.7614 23 15C22.9981 14.2623 22.8307 13.5344 22.51 12.87ZM6.00001 18C5.4514 17.9981 4.91436 17.8422 4.45001 17.55L8.55001 13.45C8.84216 13.9144 8.99808 14.4514 9.00001 15C9.00001 16.6569 7.65686 18 6.00001 18ZM16.45 17.55C16.9144 17.8422 17.4514 17.9981 18 18C19.6569 18 21 16.6569 21 15C20.9981 14.4514 20.8422 13.9144 20.55 13.45L16.45 17.55Z" fill="currentColor" fill-rule="evenodd" clip-rule="evenodd" />
</svg>
