<svg xmlns="http://www.w3.org/2000/svg" viewBox="0 0 24 24">
    <path d="M22 14.7481C20.5872 19.4116 16.0731 22.4279 11.2198 21.9513C6.36641 21.4747 2.52643 17.6381 2.04942 12.7889C1.57241 7.93981 4.59129 3.42964 9.25891 2.01808C9.44011 1.97003 9.63329 2.01923 9.76935 2.14808L9.85943 2.23808C9.96659 2.35062 10.0211 2.50318 10.0096 2.65808C9.62374 5.76601 10.6911 8.8784 12.9036 11.0968C15.1161 13.3152 18.2274 14.3926 21.3394 14.0181C21.4945 14.0065 21.6472 14.061 21.7598 14.1681L21.8499 14.2581C21.9788 14.394 22.0281 14.587 21.98 14.7681L22 14.7481Z" fill="currentColor" />
</svg>
