<svg xmlns="http://www.w3.org/2000/svg" viewBox="0 0 24 24">
    <path d="M18.9939 14C17.7268 14.0036 16.5987 14.8043 16.1763 16H14.9973C13.8937 16 12.999 15.1046 12.999 14V10C12.999 7.7909 11.2097 6.00004 9.00246 6.00004H7.82346C7.33684 4.62249 5.92941 3.79617 4.49057 4.04324C3.05173 4.29032 2 5.53893 2 7.00004C2 8.46115 3.05173 9.70976 4.49057 9.95683C5.92941 10.2039 7.33684 9.37758 7.82346 8.00004H9.00246C10.1061 8.00004 11.0008 8.89547 11.0008 10V14C11.0008 16.2092 12.7901 18 14.9973 18H16.1763C16.6848 19.4394 18.1923 20.2671 19.6784 19.9227C21.1645 19.5784 22.1552 18.1719 21.9799 16.6553C21.8047 15.1387 20.5193 13.9958 18.9939 14ZM5.00586 8.00004C4.45405 8.00004 4.00672 7.55232 4.00672 7.00004C4.00672 6.44775 4.45405 6.00004 5.00586 6.00004C5.55768 6.00004 6.00501 6.44775 6.00501 7.00004C6.00501 7.55232 5.55768 8.00004 5.00586 8.00004ZM17.9948 17C17.9948 17.5523 18.4421 18 18.9939 18C19.5458 18 19.9931 17.5523 19.9931 17C19.9931 16.4478 19.5458 16 18.9939 16C18.4421 16 17.9948 16.4478 17.9948 17Z" fill="currentColor" fill-rule="evenodd" clip-rule="evenodd" />
</svg>
