<svg xmlns="http://www.w3.org/2000/svg" viewBox="0 0 24 24">
    <path d="M16.775 8.82543L16.6583 8.62089C16.5079 8.37354 16.2956 8.16797 16.0417 8.02362L10.45 4.85727C10.1968 4.71306 9.90938 4.63687 9.61667 4.63636H9.375C9.08228 4.63687 8.79487 4.71306 8.54167 4.85727L2.95 8.0318C2.69748 8.17519 2.48771 8.38114 2.34167 8.62907L2.225 8.83361C2.07812 9.08221 2.00052 9.3644 2 9.65179V15.9927C2.00052 16.2801 2.07812 16.5623 2.225 16.8109L2.34167 17.0154C2.49149 17.2605 2.70041 17.4656 2.95 17.6127L8.55 20.779C8.80192 20.9262 9.09019 21.0026 9.38333 20.9999H9.61667C9.90938 20.9994 10.1968 20.9232 10.45 20.779L16.0417 17.6045C16.2967 17.4643 16.5073 17.2576 16.65 17.0072L16.775 16.8027C16.9201 16.5534 16.9976 16.2716 17 15.9845V9.64361C16.9995 9.35622 16.9219 9.07403 16.775 8.82543ZM9.375 6.27271H9.61667L14.5 9.03816L12.7627 10.0218L7.85825 7.13312L9.375 6.27271ZM6.20792 8.0693L11.1108 10.9571L9.5 11.8691L4.5 9.03816L6.20792 8.0693ZM10.3333 18.9545L15.2083 16.189L15.3333 15.9845V10.4536L10.3333 13.2927V18.9545ZM8.66667 13.2272L3.66667 10.3636V16.0909L8.66667 18.9545V13.2272Z" fill="currentColor" fill-rule="evenodd" clip-rule="evenodd" />
    <path d="M17.8333 11.1818C20.1345 11.1818 22 9.35023 22 7.09089C22 4.83156 20.1345 3 17.8333 3C15.5321 3 13.6667 4.83156 13.6667 7.09089C13.6667 9.35023 15.5321 11.1818 17.8333 11.1818ZM17.5167 4.63636C17.2865 4.63636 17.1 4.81951 17.1 5.04545V6.3709H15.75C15.5199 6.3709 15.3333 6.55405 15.3333 6.77999V7.4018C15.3333 7.62774 15.5199 7.81089 15.75 7.81089H17.1V9.13634C17.1 9.36227 17.2865 9.54543 17.5167 9.54543H18.15C18.3801 9.54543 18.5667 9.36227 18.5667 9.13634V7.81089H19.9167C20.1468 7.81089 20.3333 7.62774 20.3333 7.4018V6.77999C20.3333 6.55405 20.1468 6.3709 19.9167 6.3709H18.5667V5.04545C18.5667 4.81951 18.3801 4.63636 18.15 4.63636H17.5167Z" fill="currentColor" fill-rule="evenodd" clip-rule="evenodd" />
</svg>
