<svg xmlns="http://www.w3.org/2000/svg" viewBox="0 0 24 24">
    <path d="M21.9832 7.09089C21.9832 9.35023 20.1178 11.1818 17.8166 11.1818C17.5371 11.1818 17.2641 11.1548 17 11.1033V15.9846C16.9976 16.2718 16.9201 16.5535 16.775 16.8028L16.65 17.0073C16.5073 17.2577 16.2967 17.4645 16.0417 17.6046L10.45 20.7791C10.1968 20.9233 9.90938 20.9995 9.61667 21H9.38333C9.09019 21.0028 8.80192 20.9263 8.55 20.7791L2.95 17.6128C2.70041 17.4657 2.49149 17.2606 2.34167 17.0155L2.225 16.811C2.07812 16.5624 2.00052 16.2802 2 15.9928V9.65191C2.00052 9.36452 2.07812 9.08233 2.225 8.83373L2.34167 8.62919C2.48771 8.38126 2.69748 8.17531 2.95 8.03192L8.54167 4.85738C8.79487 4.71318 9.08228 4.63698 9.375 4.63647H9.61667C9.90938 4.63698 10.1968 4.71318 10.45 4.85738L13.6706 6.68106C13.88 4.61416 15.6563 3 17.8166 3C20.1178 3 21.9832 4.83156 21.9832 7.09089ZM15.6521 7.80314L15.4202 7.67184C15.3557 7.5998 15.3166 7.50529 15.3166 7.4018V6.77999C15.3166 6.55405 15.5031 6.3709 15.7332 6.3709H19.8999C20.13 6.3709 20.3166 6.55405 20.3166 6.77999V7.4018C20.3166 7.62774 20.13 7.81089 19.8999 7.81089H15.7332C15.7055 7.81089 15.6783 7.80822 15.6521 7.80314ZM14.0123 8.7621L9.61667 6.27283H9.375L7.85825 7.13324L12.7627 10.0219L14.2376 9.18685C14.1544 9.05023 14.0791 8.90844 14.0123 8.7621ZM11.1108 10.9572L6.20792 8.06942L4.5 9.03828L9.5 11.8692L11.1108 10.9572ZM15.2083 16.1892L10.3333 18.9546V13.2928L15.3333 10.4537V15.9846L15.2083 16.1892ZM3.66667 10.3637L8.66667 13.2274V18.9546L3.66667 16.091V10.3637Z" fill="currentColor" fill-rule="evenodd" clip-rule="evenodd" />
</svg>
