<svg xmlns="http://www.w3.org/2000/svg" viewBox="0 0 24 24">
    <path d="M17.2719 5.40043C16.4833 4.62694 15.2049 4.62694 14.4164 5.40044L12.9993 6.79049L16.8823 10.5995C17.6708 11.373 17.6708 12.627 16.8823 13.4005L12.9994 17.2094L14.4164 18.5994C15.2049 19.3729 16.4833 19.3729 17.2719 18.5994L22.5718 13.4004C23.3604 12.6269 23.3604 11.3729 22.5718 10.5994L17.2719 5.40043Z" fill="currentColor" />
    <path d="M7.76968 9C7.49353 9 7.26968 9.22386 7.26968 9.5V11.12H5.64968C5.37354 11.12 5.14968 11.3439 5.14968 11.62V12.38C5.14968 12.6561 5.37354 12.88 5.64968 12.88H7.26968V14.5C7.26968 14.7761 7.49353 15 7.76968 15H8.52968C8.80582 15 9.02968 14.7761 9.02968 14.5V12.88H10.6497C10.9258 12.88 11.1497 12.6561 11.1497 12.38V11.62C11.1497 11.3439 10.9258 11.12 10.6497 11.12H9.02968V9.5C9.02968 9.22386 8.80582 9 8.52968 9H7.76968Z" fill="currentColor" />
    <path d="M9.58281 5.40054C8.79428 4.62704 7.51582 4.62704 6.72729 5.40054L1.42733 10.5995C0.638805 11.373 0.638806 12.627 1.42733 13.4005L6.72729 18.5995C7.51582 19.373 8.79428 19.373 9.58281 18.5995L14.8828 13.4005C15.6713 12.627 15.6713 11.373 14.8828 10.5995L9.58281 5.40054ZM13.455 12L8.15505 6.80108L2.85509 12L8.15505 17.1989L13.455 12Z" fill="currentColor" fill-rule="evenodd" clip-rule="evenodd" />
</svg>
