<svg xmlns="http://www.w3.org/2000/svg" viewBox="0 0 24 24">
    <path d="M7 7V5C7 3.89543 7.89543 3 9 3C10.1046 3 11 3.89543 11 5V7C11 8.10457 10.1046 9 9 9C7.89543 9 7 8.10457 7 7ZM15 9C16.1046 9 17 8.10457 17 7V5C17 3.89543 16.1046 3 15 3C13.8954 3 13 3.89543 13 5V7C13 8.10457 13.8954 9 15 9ZM7 11V12C7 13.1046 6.10457 14 5 14C3.89543 14 3 13.1046 3 12V11C3 9.89543 3.89543 9 5 9C6.10457 9 7 9.89543 7 11ZM19 9C17.8954 9 17 9.89543 17 11V12C17 13.1046 17.8954 14 19 14C20.1046 14 21 13.1046 21 12V11C21 9.89543 20.1046 9 19 9ZM15.49 14C15.8279 14.666 16.2701 15.2737 16.8 15.8L18.41 17.41C18.788 17.7858 19.0004 18.297 19 18.83V19C19 20.1046 18.1046 21 17 21H7C5.89543 21 5 20.1046 5 19V18.83C4.99958 18.297 5.21196 17.7858 5.59 17.41L7.2 15.8C7.72989 15.2737 8.17215 14.666 8.51 14L9.45 12.11C9.78773 11.4303 10.4811 11.0004 11.24 11H12.76C13.5234 11.0042 14.2179 11.4426 14.55 12.13L15.49 14Z" fill="currentColor" fill-rule="evenodd" clip-rule="evenodd" />
</svg>
