<svg xmlns="http://www.w3.org/2000/svg" viewBox="0 0 24 24">
    <path d="M21 15H20C19.4477 15 19 15.4477 19 16V19C19 20.1046 18.1046 21 17 21H14C13.4477 21 13 20.5523 13 20V19C13 17.8954 12.1046 17 11 17C9.89543 17 9 17.8954 9 19V20C9 20.5523 8.55228 21 8 21H5C3.89543 21 3 20.1046 3 19V16C3 15.4477 3.44772 15 4 15H5C6.10457 15 7 14.1046 7 13C7 11.8954 6.10457 11 5 11H4C3.44772 11 3 10.5523 3 10V7C3 5.89543 3.89543 5 5 5H8C8.55228 5 9 4.55228 9 4V3C9 1.89543 9.89543 1 11 1C12.1046 1 13 1.89543 13 3V4C13 4.55228 13.4477 5 14 5H17C18.1046 5 19 5.89543 19 7V10C19 10.5523 19.4477 11 20 11H21C22.1046 11 23 11.8954 23 13C23 14.1046 22.1046 15 21 15Z" fill="currentColor" />
</svg>
