<svg xmlns="http://www.w3.org/2000/svg" viewBox="0 0 24 24">
    <path d="M11 14V7C11 5.89543 10.1046 5 9 5H5C3.89543 5 3 5.89543 3 7V11C3 12.1046 3.89543 13 5 13H8V14C8.01856 14.9686 7.34023 15.8113 6.39 16C6.1683 16.0498 6.0081 16.2429 6 16.47V18.47C5.99257 18.6252 6.05492 18.7756 6.17 18.88C6.27637 18.9748 6.41874 19.0186 6.56 19C9.10071 18.7137 11.0161 16.5567 11 14ZM15 5H19C20.1046 5 21 5.89543 21 7V14C21.011 16.5529 19.0969 18.7041 16.56 18.99C16.4187 19.0086 16.2764 18.9648 16.17 18.87C16.0629 18.7725 16.0013 18.6348 16 18.49V16.49C15.9989 16.2554 16.1611 16.0516 16.39 16C17.3402 15.8113 18.0186 14.9686 18 14V13H15C13.8954 13 13 12.1046 13 11V7C13 5.89543 13.8954 5 15 5Z" fill="currentColor" fill-rule="evenodd" clip-rule="evenodd" />
</svg>
