<svg xmlns="http://www.w3.org/2000/svg" viewBox="0 0 24 24">
    <path d="M4 14.2764V5.1383C4 4.50735 4.65614 4.10886 5.18938 4.41596L6.45847 5.14684C6.73927 5.30856 7.08644 5.28085 7.33989 5.0765L8.45811 4.17491C8.77354 3.92059 9.22223 3.94619 9.50865 4.23486L10.2513 4.98334C10.5046 5.23865 10.8901 5.29164 11.1992 5.11364L12.4106 4.41596C12.9439 4.10886 13.6 4.50735 13.6 5.1383V7.25574H12C11.0666 7.25574 10.2577 7.80647 9.86079 8.61068H7.18682C6.75227 8.61068 6.4 8.9748 6.4 9.42397C6.4 9.87313 6.75227 10.2373 7.18682 10.2373H9.6V11.0505H7.18682C6.75227 11.0505 6.4 11.4147 6.4 11.8638C6.4 12.313 6.75227 12.6771 7.18682 12.6771H9.6V15.9302H5.6C4.71634 15.9302 4 15.1898 4 14.2764Z" fill="currentColor" />
    <path d="M10.4 18.8617V9.72357C10.4 8.8102 11.1163 8.06977 12 8.06977H18.4C19.2837 8.06977 20 8.8102 20 9.72357V18.8617C20 19.4926 19.3439 19.8911 18.8106 19.584L17.5992 18.8864C17.2901 18.7084 16.9046 18.7614 16.6513 19.0167L15.9087 19.7651C15.6222 20.0538 15.1735 20.0794 14.8581 19.8251L13.7399 18.9235C13.4864 18.7192 13.1393 18.6914 12.8585 18.8532L11.5894 19.584C11.0561 19.8911 10.4 19.4926 10.4 18.8617ZM12.8 12.1362C12.8 12.5853 13.1523 12.9495 13.5868 12.9495H16.8132C17.2477 12.9495 17.6 12.5853 17.6 12.1362C17.6 11.687 17.2477 11.3229 16.8132 11.3229H13.5868C13.1523 11.3229 12.8 11.687 12.8 12.1362ZM13.5868 15.3893C13.1523 15.3893 12.8 15.0252 12.8 14.576C12.8 14.1269 13.1523 13.7627 13.5868 13.7627H16.8132C17.2477 13.7627 17.6 14.1269 17.6 14.576C17.6 15.0252 17.2477 15.3893 16.8132 15.3893H13.5868Z" fill="currentColor" fill-rule="evenodd" clip-rule="evenodd" />
</svg>
