<svg xmlns="http://www.w3.org/2000/svg" viewBox="0 0 24 24">
    <path d="M12 1C13.3059 1 14.4141 1.83532 14.8262 3H19.0225C19.0335 3.00024 19.0446 3.00134 19.0557 3.00195C19.0664 3.00256 19.0772 3.00295 19.0879 3.00391H19.0908C19.1086 3.0055 19.1261 3.00823 19.1436 3.01074C19.1468 3.01125 19.15 3.01219 19.1533 3.0127C19.1585 3.0135 19.1638 3.01376 19.1689 3.01465L19.1943 3.01855C19.1973 3.01913 19.2002 3.0199 19.2031 3.02051L19.2158 3.02344C19.2244 3.02533 19.2327 3.02815 19.2412 3.03027C19.2467 3.03165 19.2523 3.03271 19.2578 3.03418C19.3143 3.04921 19.3688 3.06858 19.4209 3.09277C19.4226 3.09357 19.4241 3.0949 19.4258 3.0957C19.4308 3.09806 19.4355 3.10099 19.4404 3.10352C19.4551 3.11073 19.4701 3.1171 19.4844 3.125C19.4884 3.12704 19.4922 3.12959 19.4961 3.13184C19.5022 3.13531 19.5077 3.13997 19.5137 3.14355C19.5178 3.14602 19.5223 3.14786 19.5264 3.15039L19.5352 3.15625C19.5494 3.16533 19.5634 3.1748 19.5771 3.18457L19.582 3.1875C19.5847 3.18939 19.5872 3.19144 19.5898 3.19336C19.5936 3.19609 19.5969 3.19933 19.6006 3.20215C19.6184 3.21556 19.6355 3.2296 19.6523 3.24414C19.6588 3.24939 19.6657 3.25417 19.6719 3.25977C19.6802 3.26734 19.6882 3.2753 19.6963 3.2832C19.707 3.29364 19.7173 3.30452 19.7275 3.31543C19.7337 3.32196 19.7401 3.32826 19.7461 3.33496C19.7498 3.3391 19.7533 3.34335 19.7568 3.34766C19.7931 3.38966 19.8256 3.43476 19.8545 3.48242L19.8682 3.50391L23.8682 10.5039C23.9577 10.6607 23.9992 10.8315 23.999 11C23.999 13.7614 21.7614 16 19 16C16.2386 16 14 13.7614 14 11C13.9999 10.8315 14.0423 10.6607 14.1318 10.5039L17.2773 5H14.8262C14.5249 5.85152 13.8515 6.5238 13 6.8252V16C13 16.0333 12.9983 16.0662 12.9951 16.0986C15.2798 16.56 17 18.5793 17 21H7C7 18.5796 8.71966 16.5603 11.0039 16.0986C11.0007 16.0662 11 16.0333 11 16V6.8252C10.1433 6.52194 9.46649 5.84332 9.16797 4.98438C9.11328 4.99364 9.05733 5 9 5H6.72266L9.86816 10.5039C9.95774 10.6607 9.99916 10.8315 9.99902 11C9.99902 13.7614 7.76142 16 5 16C2.23858 16 0 13.7614 0 11C-0.000132427 10.8315 0.04226 10.6607 0.131836 10.5039L4.13184 3.50391C4.13386 3.50036 4.13563 3.49667 4.1377 3.49316C4.14332 3.48359 4.14915 3.47413 4.15527 3.46484C4.16433 3.45057 4.17384 3.43662 4.18359 3.42285C4.18637 3.41883 4.18952 3.41508 4.19238 3.41113C4.19786 3.40361 4.2033 3.39605 4.20898 3.38867C4.21708 3.37821 4.22491 3.36754 4.2334 3.35742C4.23516 3.35531 4.23747 3.35366 4.23926 3.35156C4.24391 3.34609 4.24818 3.34031 4.25293 3.33496C4.26849 3.31749 4.28485 3.30064 4.30176 3.28418C4.31017 3.27596 4.31848 3.26765 4.32715 3.25977C4.33807 3.24986 4.3499 3.24092 4.36133 3.23145C4.36719 3.22657 4.37293 3.22154 4.37891 3.2168C4.38882 3.20872 4.39889 3.20089 4.40918 3.19336C4.41464 3.18937 4.42017 3.18546 4.42578 3.18164C4.44159 3.17053 4.45815 3.16059 4.47461 3.15039C4.47823 3.14818 4.48171 3.14574 4.48535 3.14355C4.49157 3.13982 4.49758 3.13545 4.50391 3.13184C4.50847 3.12923 4.51294 3.12646 4.51758 3.12402C4.52331 3.12086 4.52936 3.11829 4.53516 3.11523C4.54781 3.1086 4.56034 3.10178 4.57324 3.0957C4.5768 3.09402 4.5804 3.09242 4.58398 3.09082C4.63035 3.06957 4.67866 3.05213 4.72852 3.03809C4.73825 3.03535 4.748 3.03273 4.75781 3.03027L4.79883 3.02051C4.80145 3.01997 4.80401 3.01907 4.80664 3.01855C4.80921 3.01804 4.81188 3.01806 4.81445 3.01758C4.82481 3.01562 4.83528 3.01433 4.8457 3.0127C4.85094 3.01188 4.8561 3.01057 4.86133 3.00977C4.87654 3.00765 4.8918 3.00532 4.90723 3.00391C4.90852 3.00378 4.90984 3.00402 4.91113 3.00391C4.92184 3.00294 4.93261 3.00257 4.94336 3.00195C4.95477 3.00132 4.96614 3.00025 4.97754 3H9C9.05727 3 9.11333 3.0054 9.16797 3.01465C9.57585 1.8422 10.6886 1 12 1ZM2.15137 11H7.84863L5 6.01465L2.15137 11ZM16.1514 11H21.8486L19 6.01465L16.1514 11Z" fill="currentColor" />
</svg>
