<svg xmlns="http://www.w3.org/2000/svg" viewBox="0 0 24 24">
    <path d="M16.9906 1.99994H18.9891C19.541 1.99994 19.9884 2.44766 19.9884 2.99994V4.99994C19.9884 5.55223 19.541 5.99994 18.9891 5.99994H17.4902C17.0199 6.01366 16.6037 5.69713 16.491 5.23994L15.9913 3.23994C15.9162 2.93641 15.9873 2.61518 16.1834 2.37176C16.3796 2.12834 16.6782 1.99077 16.9906 1.99994ZM18.9891 7.99994H16.7308C16.3965 8.00167 16.0852 8.17056 15.9014 8.44994L13.0835 12.6799C12.6052 13.4073 12.3771 14.2711 12.434 15.1399L5.60904 14.1399H5.47914C5.20862 14.1384 4.94903 14.2466 4.75967 14.4399L4.29002 14.8999C4.02827 15.1613 3.93217 15.546 4.04021 15.8999L5.29927 20.5299C5.53786 21.3987 6.3275 22.0006 7.22784 21.9999H16.6808C17.1663 22.0088 17.5879 21.6671 17.6801 21.1899L19.9784 9.18994C20.0353 8.89546 19.9572 8.59095 19.7655 8.36036C19.5738 8.12978 19.2888 7.99748 18.9891 7.99994ZM15.8614 19.9999H7.22784L6.22858 16.2799L12.6438 17.1899C12.947 17.2318 13.2526 17.1323 13.4732 16.9199L14.1627 16.2599C14.3753 16.058 14.4885 15.7728 14.4725 15.4799V15.0199C14.4396 14.5872 14.5483 14.1554 14.7822 13.7899L17.2704 9.99994H17.78L15.8614 19.9999Z" fill="currentColor" fill-rule="evenodd" clip-rule="evenodd" />
</svg>
