<svg xmlns="http://www.w3.org/2000/svg" viewBox="0 0 24 24">
    <path d="M16.9934 1.99994H18.9857C19.5358 1.99994 19.9818 2.44766 19.9818 2.99994V4.99994C19.9818 5.55223 19.5358 5.99994 18.9857 5.99994H17.4915C17.0226 6.01366 16.6077 5.69713 16.4953 5.23994L15.9972 3.23994C15.9223 2.93641 15.9932 2.61518 16.1887 2.37176C16.3843 2.12834 16.682 1.99077 16.9934 1.99994ZM17.6907 21.1899L19.9818 9.18994C20.039 8.89372 19.9598 8.58743 19.7665 8.35643C19.5731 8.12544 19.2862 7.99444 18.9857 7.99994H17.7305C17.3959 7.9882 17.0778 8.14599 16.8838 8.41994L14.0747 12.6499C13.5113 13.4961 13.2905 14.526 13.4571 15.5299L13.5766 16.2799L5.60744 15.1399C5.2954 15.0968 4.98141 15.2043 4.76071 15.4299L4.29252 15.8899C4.03159 16.1513 3.93579 16.536 4.04349 16.8899L5.03963 20.5299C5.28387 21.4244 6.10863 22.0329 7.03192 21.9999H16.6945C17.1785 22.0088 17.5988 21.6671 17.6907 21.1899Z" fill="currentColor" fill-rule="evenodd" clip-rule="evenodd" />
</svg>
