<svg xmlns="http://www.w3.org/2000/svg" viewBox="0 0 24 24">
    <path d="M16.2498 13.319C16.7601 11.5966 17.0128 9.80799 16.9998 8.01143C16.9998 5.00714 15.9998 0 11.9998 0C7.99982 0 6.99982 5.00714 6.99982 8.01143C6.96786 9.89957 7.36809 11.77 8.16982 13.4792C8.34036 13.8089 8.67906 14.017 9.04982 14.02H15.2998C15.7351 14.0183 16.1192 13.7348 16.2498 13.319ZM9.64982 16.6437L14.5698 17.515C15.1099 17.6163 15.4671 18.1351 15.3698 18.6766L14.9398 21.1402C14.6082 22.9129 12.9873 24.1443 11.1932 23.9864C9.39907 23.8285 8.01752 22.3328 7.99982 20.5293C8.00115 20.3247 8.01787 20.1205 8.04982 19.9184L8.48982 17.4549C8.53613 17.1932 8.68439 16.9607 8.90196 16.8086C9.11953 16.6564 9.38857 16.5971 9.64982 16.6437Z" fill="currentColor" fill-rule="evenodd" clip-rule="evenodd" />
</svg>
