<svg xmlns="http://www.w3.org/2000/svg" viewBox="0 0 24 24">
    <path d="M20 10.5601C19.8026 8.68176 18.3183 7.19747 16.44 7.00006C16.1965 6.97525 16.0087 6.77462 16 6.53006V5.49006C16 5.25243 16.1672 5.04759 16.4 5.00006C17.2011 4.83768 17.8228 4.20412 17.97 3.40006C18.0175 3.16723 18.2224 3.00002 18.46 3.00006H19.46C19.6194 2.98471 19.7762 3.04819 19.88 3.17006C19.9777 3.27882 20.0217 3.42551 20 3.57006C19.8723 4.39243 19.4913 5.15448 18.91 5.75006C20.6522 6.70943 21.8058 8.46975 21.99 10.4501C21.9977 10.5918 21.9512 10.7312 21.86 10.8401C21.7632 10.941 21.6298 10.9987 21.49 11.0001H20.49C20.2378 11.0014 20.0257 10.811 20 10.5601ZM15.71 12.0001L18.71 15.0001C18.9051 14.9142 19.0224 14.7121 19 14.5001V12.5001C19 12.2239 18.7761 12.0001 18.5 12.0001H15.71ZM22 12.5001V14.5001C22 14.7762 21.7761 15.0001 21.5 15.0001H20.5C20.2239 15.0001 20 14.7762 20 14.5001V12.5001C20 12.2239 20.2239 12.0001 20.5 12.0001H21.5C21.7761 12.0001 22 12.2239 22 12.5001ZM17.44 11.0001C17.5757 11.0078 17.7089 10.961 17.81 10.8701C17.9109 10.7733 17.9686 10.6399 17.97 10.5001V9.50006C17.9708 9.23882 17.7704 9.02096 17.51 9.00006C14.5578 8.76623 12.2178 6.41347 12 3.46006C11.9791 3.19965 11.7612 2.99923 11.5 3.00006H10.5C10.3602 3.00148 10.2268 3.05915 10.13 3.16006C10.0391 3.26114 9.99229 3.39433 10 3.53006C10.2582 7.54384 13.4562 10.7419 17.47 11.0001H17.44ZM4.03 2.99855C4.16259 2.99855 4.28927 3.05339 4.38 3.15006L20.85 19.6201C20.9467 19.7108 21.0015 19.8375 21.0015 19.9701C21.0015 20.1027 20.9467 20.2293 20.85 20.3201L20.32 20.8501C20.2293 20.9467 20.1026 21.0016 19.97 21.0016C19.8374 21.0016 19.7107 20.9467 19.62 20.8501L13.76 15.0001H2.5C2.22386 15.0001 2 14.7762 2 14.5001V12.5001C2 12.2239 2.22386 12.0001 2.5 12.0001H10.76L3.15 4.38006C3.05332 4.28933 2.99848 4.16265 2.99848 4.03006C2.99848 3.89748 3.05332 3.7708 3.15 3.68006L3.68 3.15006C3.77073 3.05339 3.89741 2.99855 4.03 2.99855Z" fill="currentColor" fill-rule="evenodd" clip-rule="evenodd" />
</svg>
