<svg xmlns="http://www.w3.org/2000/svg" viewBox="0 0 24 24">
    <path d="M21.5 13.0001C21.6398 12.9987 21.7732 12.941 21.87 12.8401C21.9612 12.7312 22.0077 12.5918 22 12.4501C21.8158 10.4698 20.6622 8.70943 18.92 7.75006C19.4976 7.15316 19.8751 6.39124 20 5.57006C20.0217 5.42551 19.9777 5.27882 19.88 5.17006C19.7762 5.04819 19.6194 4.98471 19.46 5.00006H18.46C18.2224 5.00002 18.0175 5.16723 17.97 5.40006C17.8228 6.20412 17.2011 6.83768 16.4 7.00006C16.1672 7.04759 16 7.25243 16 7.49006V8.53006C15.9987 8.7823 16.1891 8.99433 16.44 9.02006C18.3116 9.21573 19.7938 10.6896 20 12.5601C20.0248 12.8035 20.2254 12.9913 20.47 13.0001H21.5ZM2 14.5001C2 14.2239 2.22386 14.0001 2.5 14.0001H18.5C18.7761 14.0001 19 14.2239 19 14.5001V16.5001C19 16.7762 18.7761 17.0001 18.5 17.0001H2.5C2.22386 17.0001 2 16.7762 2 16.5001V14.5001ZM22 16.5001V14.5001C22 14.2239 21.7761 14.0001 21.5 14.0001H20.5C20.2239 14.0001 20 14.2239 20 14.5001V16.5001C20 16.7762 20.2239 17.0001 20.5 17.0001H21.5C21.7761 17.0001 22 16.7762 22 16.5001ZM17.87 12.8701C17.7689 12.961 17.6357 13.0078 17.5 13.0001H17.47C13.4562 12.7419 10.2582 9.54384 10 5.53006C9.99229 5.39433 10.0391 5.26114 10.13 5.16006C10.2268 5.05915 10.3602 5.00148 10.5 5.00006H11.5C11.7612 4.99923 11.9791 5.19965 12 5.46006C12.2216 8.43449 14.5944 10.7945 17.57 11.0001C17.8304 11.021 18.0308 11.2388 18.03 11.5001V12.5001C18.0286 12.6399 17.9709 12.7733 17.87 12.8701Z" fill="currentColor" fill-rule="evenodd" clip-rule="evenodd" />
</svg>
