<svg xmlns="http://www.w3.org/2000/svg" viewBox="0 0 24 24">
    <path d="M6.75001 13.0001H2.50001C2.22823 12.9898 2.01028 12.7719 2.00001 12.5001V8.2501C1.99882 8.04824 2.11913 7.86547 2.305 7.78675C2.49088 7.70803 2.70586 7.74879 2.85001 7.8901L4.27001 9.3101L9.44001 4.1501C9.53389 4.05544 9.66169 4.0022 9.79501 4.0022C9.92833 4.0022 10.0561 4.05544 10.15 4.1501L10.85 4.8501C10.9447 4.94398 10.9979 5.07178 10.9979 5.2051C10.9979 5.33842 10.9447 5.46621 10.85 5.5601L5.68001 10.7201L7.10001 12.1501C7.24007 12.2929 7.2815 12.5055 7.20532 12.6905C7.12915 12.8755 6.95005 12.9973 6.75001 13.0001ZM21.5 8.0001C21.7762 8.0001 22 7.77624 22 7.5001V6.5001C22 6.22395 21.7762 6.0001 21.5 6.0001H18C17.4477 6.0001 17 6.44781 17 7.0001V10.0001H14C13.4477 10.0001 13 10.4478 13 11.0001V14.0001H10C9.44772 14.0001 9.00001 14.4478 9.00001 15.0001V18.0001H2.50001C2.22387 18.0001 2.00001 18.224 2.00001 18.5001V19.5001C2.00001 19.7762 2.22387 20.0001 2.50001 20.0001H10C10.5523 20.0001 11 19.5524 11 19.0001V16.0001H14C14.5523 16.0001 15 15.5524 15 15.0001V12.0001H18C18.5523 12.0001 19 11.5524 19 11.0001V8.0001H21.5Z" fill="currentColor" fill-rule="evenodd" clip-rule="evenodd" />
</svg>
