<svg xmlns="http://www.w3.org/2000/svg" viewBox="0 0 24 24">
    <path d="M21.08 7.55866L21.71 8.18738C21.8947 8.37327 21.9989 8.62416 22 8.88596V10.0636C21.9989 10.3254 21.8947 10.5763 21.71 10.7621L10.78 21.7099C10.5937 21.8942 10.3423 21.9982 10.08 21.9993H8.9C8.63766 21.9982 8.38626 21.8942 8.2 21.7099L7.57 21.0811C7.25592 20.8005 7.15192 20.3534 7.31 19.9634C7.43937 19.6467 7.50397 19.3074 7.5 18.9654C7.5 17.5875 6.38071 16.4705 5 16.4705C4.65733 16.4666 4.31733 16.531 4 16.6601C3.62054 16.7995 3.19433 16.6971 2.92 16.4007L2.29 15.7719C2.10526 15.5861 2.0011 15.3352 2 15.0734V13.8958C2.0011 13.634 2.10526 13.3831 2.29 13.1972L13.22 2.28939C13.4063 2.10502 13.6577 2.00108 13.92 1.99998H15.1C15.3568 1.9903 15.6075 2.07964 15.8 2.24947L16.43 2.87819C16.7441 3.15883 16.8481 3.60589 16.69 3.99592C16.5606 4.3126 16.496 4.65191 16.5 4.99389C16.5 6.37179 17.6193 7.48881 19 7.48881C19.3427 7.49277 19.6827 7.4283 20 7.29919C20.3795 7.15983 20.8057 7.26223 21.08 7.55866ZM10 11.9797C10 13.082 10.8954 13.9756 12 13.9756C13.1046 13.9756 14 13.082 14 11.9797C14 10.8773 13.1046 9.98373 12 9.98373C10.8954 9.98373 10 10.8773 10 11.9797Z" fill="currentColor" fill-rule="evenodd" clip-rule="evenodd" />
</svg>
