<svg xmlns="http://www.w3.org/2000/svg" viewBox="0 0 24 24">
    <path d="M19 2H7C5.89543 2 5 2.89543 5 4H3.5C3.22386 4 3 4.22386 3 4.5V5.5C3 5.77614 3.22386 6 3.5 6H5V11H3.5C3.22386 11 3 11.2239 3 11.5V12.5C3 12.7761 3.22386 13 3.5 13H5V18H3.5C3.22386 18 3 18.2239 3 18.5V19.5C3 19.7761 3.22386 20 3.5 20H5C5 21.1046 5.89543 22 7 22H19C20.1046 22 21 21.1046 21 20V4C21 2.89543 20.1046 2 19 2ZM7 4H19V20H7V4ZM13.42 15.83L14.2 15.08C14.2791 15.0026 14.366 14.9189 14.4586 14.8297C15.4194 13.9037 17 12.3804 17 11.14C16.9921 10.5645 16.7559 10.0156 16.3433 9.6143C15.9307 9.21296 15.3755 8.99199 14.8 9C14.1181 9.0192 13.4712 9.30668 13 9.8C12.5288 9.30668 11.8819 9.0192 11.2 9C10.6245 8.99199 10.0693 9.21296 9.65673 9.6143C9.24414 10.0156 9.0079 10.5645 9 11.14C9 12.3804 10.5806 13.9037 11.5414 14.8297C11.634 14.9189 11.7209 15.0026 11.8 15.08L12.58 15.83C12.8133 16.0587 13.1867 16.0587 13.42 15.83Z" fill="currentColor" fill-rule="evenodd" clip-rule="evenodd" />
</svg>
