<svg xmlns="http://www.w3.org/2000/svg" viewBox="0 0 24 24">
    <path d="M21 6.68614V7.00668C21 9.2195 19.2091 11.0134 17 11.0134C16.4635 11.0154 15.9324 10.9063 15.44 10.6928L5.44 20.7095C5.25374 20.8946 5.00234 20.9989 4.74 21H4.53C4.26766 20.9989 4.01626 20.8946 3.83 20.7095L3.29 20.1686C3.10526 19.982 3.0011 19.7302 3 19.4674V19.2871C3.0011 19.0244 3.10526 18.7725 3.29 18.586L13.29 8.56928C13.0872 8.0739 12.9885 7.54197 13 7.00668C13 4.79385 14.7909 3 17 3H17.32C17.4551 3.00033 17.5846 3.05437 17.68 3.15025L17.85 3.32053C17.9447 3.41457 17.9979 3.54259 17.9979 3.67613C17.9979 3.80967 17.9447 3.93768 17.85 4.03172L16.29 5.59432C16.0994 5.78907 16.0994 6.10075 16.29 6.29549L17.71 7.71786C17.9065 7.90358 18.2135 7.90358 18.41 7.71786L20 6.15526C20.0939 6.06044 20.2217 6.00711 20.355 6.00711C20.4883 6.00711 20.6161 6.06044 20.71 6.15526L20.88 6.32554C20.9648 6.42581 21.0078 6.55496 21 6.68614Z" fill="currentColor" />
</svg>
