<svg xmlns="http://www.w3.org/2000/svg" viewBox="0 0 24 24">
    <path d="M23 6.7C23.0014 6.23867 22.8383 5.79195 22.54 5.44L20.72 3.27C20.5798 3.09948 20.3708 3.00047 20.15 3H19.85C19.6292 3.00047 19.4202 3.09948 19.28 3.27L18 4.8L16.72 3.27C16.5798 3.09948 16.3708 3.00047 16.15 3H15.85C15.6292 3.00047 15.4202 3.09948 15.28 3.27L13.46 5.44C13.1617 5.79195 12.9986 6.23867 13 6.7V8H7.00001V6.7C7.00137 6.23867 6.83828 5.79195 6.54001 5.44L4.72001 3.27C4.57979 3.09948 4.37077 3.00047 4.15001 3H3.85001C3.62925 3.00047 3.42022 3.09948 3.28001 3.27L1.46001 5.44C1.16174 5.79195 0.998649 6.23867 1.00001 6.7V20C1.00001 20.5523 1.44772 21 2.00001 21H22C22.5523 21 23 20.5523 23 20V6.7ZM19 12H21V19H19V12ZM3.00001 19H17V7H15V9.5C15 9.77614 14.7762 10 14.5 10H5.50001C5.22387 10 5.00001 9.77614 5.00001 9.5V7H3.00001V19ZM19 10V7H21V10H19ZM6.50001 14H5.50001C5.22387 14 5.00001 13.7761 5.00001 13.5V12.5C5.00001 12.2239 5.22387 12 5.50001 12H6.50001C6.77615 12 7.00001 12.2239 7.00001 12.5V13.5C7.00001 13.7761 6.77615 14 6.50001 14ZM13.5 14H14.5C14.7762 14 15 13.7761 15 13.5V12.5C15 12.2239 14.7762 12 14.5 12H13.5C13.2239 12 13 12.2239 13 12.5V13.5C13 13.7761 13.2239 14 13.5 14ZM10.5 14H9.50001C9.22387 14 9.00001 13.7761 9.00001 13.5V12.5C9.00001 12.2239 9.22387 12 9.50001 12H10.5C10.7762 12 11 12.2239 11 12.5V13.5C11 13.7761 10.7762 14 10.5 14Z" fill="currentColor" fill-rule="evenodd" clip-rule="evenodd" />
</svg>
