<svg xmlns="http://www.w3.org/2000/svg" viewBox="0 0 24 24">
    <path d="M19.0001 5H17.0001V4C17.0001 3.44772 16.5524 3 16.0001 3H4.00008C3.44779 3 3.00008 3.44772 3.00008 4V5.46C2.99815 5.81909 3.03164 6.17749 3.10008 6.53L4.55008 14.53C4.80648 15.9585 6.04873 16.9986 7.50008 17H12.5001C13.9483 16.9995 15.1894 15.9645 15.4501 14.54L16.0901 11H19.0001C20.1046 11 21.0001 10.1046 21.0001 9V7C21.0001 5.89543 20.1046 5 19.0001 5ZM19.0001 9H16.4501L16.8201 7H19.0001V9ZM3.50008 19H17.5001C17.7762 19 18.0001 19.2239 18.0001 19.5V20.5C18.0001 20.7761 17.7762 21 17.5001 21H3.50008C3.22394 21 3.00008 20.7761 3.00008 20.5V19.5C3.00008 19.2239 3.22394 19 3.50008 19Z" fill="currentColor" fill-rule="evenodd" clip-rule="evenodd" />
</svg>
