<svg xmlns="http://www.w3.org/2000/svg" viewBox="0 0 24 24">
    <path d="M20.0141 6C20.0141 7.10457 19.1171 8 18.0106 8C16.904 8 16.007 7.10457 16.007 6C16.007 4.89543 16.904 4 18.0106 4C19.1171 4 20.0141 4.89543 20.0141 6ZM22.8791 18.45L17.1591 11.31C17.0193 11.1174 16.7963 11.0023 16.558 11H16.2374C15.9968 11.0039 15.7714 11.1182 15.6264 11.31L13.7932 13.61L9.99648 8.31C9.84855 8.10567 9.60767 7.9892 9.35535 8H9.04481C8.80378 8.00235 8.57771 8.11704 8.43373 8.31L1.12088 18.45C0.959707 18.696 0.959707 19.014 1.12088 19.26L1.33125 19.62C1.4627 19.8557 1.71219 20.0013 1.98239 20H22.0176C22.2878 20.0013 22.5373 19.8557 22.6688 19.62L22.8791 19.26C23.0403 19.014 23.0403 18.696 22.8791 18.45ZM3.91579 18L9.20509 10.67L11.4891 18H3.91579Z" fill="currentColor" fill-rule="evenodd" clip-rule="evenodd" />
</svg>
