<svg xmlns="http://www.w3.org/2000/svg" viewBox="0 0 24 24">
    <path d="M20 3.5V8.76C19.9993 9.55538 19.6828 10.3179 19.12 10.88L17.29 12.71C17.1053 12.8963 17.0011 13.1477 17 13.41V20.5C17 20.7761 16.7761 21 16.5 21H14.5C14.2239 21 14 20.7761 14 20.5V16.41C13.9989 16.1477 13.8947 15.8963 13.71 15.71L13.29 15.29C13.1037 15.1053 12.8523 15.0011 12.59 15H11.41C11.1477 15.0011 10.8963 15.1053 10.71 15.29L10.29 15.71C10.1053 15.8963 10.0011 16.1477 10 16.41V20.5C10 20.7761 9.77614 21 9.5 21H7.5C7.22386 21 7 20.7761 7 20.5V13.41C6.9989 13.1477 6.89474 12.8963 6.71 12.71L4.88 10.88C4.31723 10.3179 4.0007 9.55538 4 8.76V3.5C4 3.22386 4.22386 3 4.5 3H6.5C6.77614 3 7 3.22386 7 3.5V5.5C7 5.77614 7.22386 6 7.5 6H9.5C9.77614 6 10 5.77614 10 5.5V3.5C10 3.22386 10.2239 3 10.5 3H13.5C13.7761 3 14 3.22386 14 3.5V5.5C14 5.77614 14.2239 6 14.5 6H16.5C16.7761 6 17 5.77614 17 5.5V3.5C17 3.22386 17.2239 3 17.5 3H19.5C19.7761 3 20 3.22386 20 3.5Z" fill="currentColor" />
</svg>
