<svg xmlns="http://www.w3.org/2000/svg" viewBox="0 0 24 24">
    <path d="M20.5 19H18V4C18 3.44772 17.5523 3 17 3H7C6.44772 3 6 3.44772 6 4V19H3.5C3.22386 19 3 19.2239 3 19.5V20.5C3 20.7761 3.22386 21 3.5 21H20.5C20.7761 21 21 20.7761 21 20.5V19.5C21 19.2239 20.7761 19 20.5 19ZM14 14.5V13.5C14 13.2239 14.2239 13 14.5 13H15.5C15.7761 13 16 13.2239 16 13.5V14.5C16 14.7761 15.7761 15 15.5 15H14.5C14.2239 15 14 14.7761 14 14.5ZM16 5H8V9H16V5Z" fill="currentColor" fill-rule="evenodd" clip-rule="evenodd" />
</svg>
