<svg xmlns="http://www.w3.org/2000/svg" viewBox="0 0 24 24">
    <path d="M19.5 2C20.0523 2 20.5 2.44772 20.5 3L21 20H22.5C22.7761 20 23 20.2239 23 20.5V21.5C23 21.7761 22.7761 22 22.5 22H1.5C1.22386 22 1 21.7761 1 21.5V20.5C1 20.2239 1.22386 20 1.5 20H3V12.71C2.99807 12.5419 3.08073 12.3841 3.22 12.29L7.95 9.17C8.11271 9.06065 8.30397 9.00153 8.5 9C8.77614 9 9 9.22386 9 9.5V11.77L12.95 9.17C13.1127 9.06065 13.304 9.00153 13.5 9C13.7761 9 14 9.22386 14 9.5V11.77L15.28 11L15.53 3C15.53 2.44772 15.9777 2 16.53 2H19.5ZM7.5 16H6.5C6.22386 16 6 15.7761 6 15.5V14.5C6 14.2239 6.22386 14 6.5 14H7.5C7.77614 14 8 14.2239 8 14.5V15.5C8 15.7761 7.77614 16 7.5 16ZM7.5 20H6.5C6.22386 20 6 19.7761 6 19.5V18.5C6 18.2239 6.22386 18 6.5 18H7.5C7.77614 18 8 18.2239 8 18.5V19.5C8 19.7761 7.77614 20 7.5 20ZM11.5 20H12.5C12.7761 20 13 19.7761 13 19.5V18.5C13 18.2239 12.7761 18 12.5 18H11.5C11.2239 18 11 18.2239 11 18.5V19.5C11 19.7761 11.2239 20 11.5 20ZM12.5 16H11.5C11.2239 16 11 15.7761 11 15.5V14.5C11 14.2239 11.2239 14 11.5 14H12.5C12.7761 14 13 14.2239 13 14.5V15.5C13 15.7761 12.7761 16 12.5 16ZM16.5 20H17.5C17.7761 20 18 19.7761 18 19.5V18.5C18 18.2239 17.7761 18 17.5 18H16.5C16.2239 18 16 18.2239 16 18.5V19.5C16 19.7761 16.2239 20 16.5 20ZM17.5 16H16.5C16.2239 16 16 15.7761 16 15.5V14.5C16 14.2239 16.2239 14 16.5 14H17.5C17.7761 14 18 14.2239 18 14.5V15.5C18 15.7761 17.7761 16 17.5 16Z" fill="currentColor" fill-rule="evenodd" clip-rule="evenodd" />
</svg>
