<svg xmlns="http://www.w3.org/2000/svg" viewBox="0 0 24 24">
    <path d="M16.48 3.14999L20.56 7.21999C20.8402 7.50592 20.998 7.8897 21 8.28999V17.5C21 18.8807 19.8807 20 18.5 20C17.1193 20 16 18.8807 16 17.5V13C16 12.7239 15.7761 12.5 15.5 12.5H14V19C14 19.5523 13.5523 20 13 20H5C4.44772 20 4 19.5523 4 19V4.99999C4 3.89542 4.89543 2.99999 6 2.99999H12C13.1046 2.99999 14 3.89542 14 4.99999V11H15.5C16.6046 11 17.5 11.8954 17.5 13V17.5C17.5 18.0523 17.9477 18.5 18.5 18.5C19.0523 18.5 19.5 18.0523 19.5 17.5V11.29L17.94 9.71999C17.6586 9.43896 17.5003 9.05768 17.5 8.65999V6.28999L15.42 4.20999C15.2282 4.01218 15.2282 3.69781 15.42 3.49999L15.78 3.14999C15.8707 3.05332 15.9974 2.99847 16.13 2.99847C16.2626 2.99847 16.3893 3.05332 16.48 3.14999ZM6 8.99999H12V4.99999H6V8.99999Z" fill="currentColor" fill-rule="evenodd" clip-rule="evenodd" />
</svg>
