<svg xmlns="http://www.w3.org/2000/svg" viewBox="0 0 24 24">
    <path d="M22.2365 13.84C22.1572 13.3509 21.7318 12.9936 21.2365 13H19.7665L19.2365 9.84C19.1572 9.35094 18.7318 8.99362 18.2365 9H16.0065V5H16.5065C16.7826 5 17.0065 4.77614 17.0065 4.5V3.5C17.0065 3.22386 16.7826 3 16.5065 3H7.50645C7.23031 3 7.00645 3.22386 7.00645 3.5V4.5C7.00645 4.77614 7.23031 5 7.50645 5H8.00645V9H5.76645C5.27106 8.99362 4.84568 9.35094 4.76645 9.84L4.24645 13H2.76645C2.27106 12.9936 1.84568 13.3509 1.76645 13.84L1.00645 18.42C0.982804 18.5658 1.02485 18.7146 1.1213 18.8265C1.21775 18.9384 1.35874 19.0019 1.50645 19H8.00645V20.5C8.00645 20.7761 8.23031 21 8.50645 21H15.5065C15.7826 21 16.0065 20.7761 16.0065 20.5V19H22.5065C22.6524 18.999 22.7906 18.9342 22.8848 18.8227C22.979 18.7112 23.0198 18.5641 22.9965 18.42L22.2365 13.84ZM17.7365 13H14.8065L14.4065 11H17.4065L17.7365 13ZM10.0065 6.41V9H14.0065V6.41C14.0053 6.14766 13.9012 5.89626 13.7165 5.71L13.2965 5.29C13.1102 5.10526 12.8588 5.0011 12.5965 5H11.4165C11.1541 5.0011 10.9027 5.10526 10.7165 5.29L10.2965 5.71C10.1117 5.89626 10.0076 6.14766 10.0065 6.41ZM6.60645 11H9.60645L9.20645 13H6.27645L6.60645 11ZM3.60645 15L3.27645 17H8.40645L8.80645 15H3.60645ZM11.6065 11H12.3265L14.0065 19H10.0065L11.6065 11ZM15.1665 15L15.5665 17H20.6965L20.3665 15H15.1665Z" fill="currentColor" fill-rule="evenodd" clip-rule="evenodd" />
</svg>
