<svg xmlns="http://www.w3.org/2000/svg" viewBox="0 0 24 24">
    <path d="M19.5 17H4.5C4.22386 17 4 16.7761 4 16.5V14.5C4 14.2238 4.22386 14 4.5 14H6V6.99998H4.5C4.22386 6.99998 4 6.77612 4 6.49998V4.66998C4.00202 4.26627 4.24657 3.90338 4.62 3.74998L11.02 1.14998C11.2611 1.05092 11.5193 0.999968 11.78 0.999976H12.22C12.4874 0.997325 12.7526 1.04833 13 1.14998L19.38 3.74998C19.7534 3.90338 19.998 4.26627 20 4.66998V6.49998C20 6.77612 19.7761 6.99998 19.5 6.99998H18V14H19.5C19.7761 14 20 14.2238 20 14.5V16.5C20 16.7761 19.7761 17 19.5 17ZM16 6.99998H13V14H16V6.99998ZM8 6.99998H11V14H8V6.99998ZM3.5 19H20.5C20.7761 19 21 19.2238 21 19.5V20.5C21 20.7761 20.7761 21 20.5 21H3.5C3.22386 21 3 20.7761 3 20.5V19.5C3 19.2238 3.22386 19 3.5 19Z" fill="currentColor" fill-rule="evenodd" clip-rule="evenodd" />
</svg>
