<svg xmlns="http://www.w3.org/2000/svg" viewBox="0 0 24 24">
    <path d="M23.5 19H22V15.29C22.0016 14.9519 21.8323 14.6359 21.55 14.45L19.55 13.08C19.4652 13.0295 19.3687 13.0019 19.27 13H18.82C18.7213 13.0019 18.6248 13.0295 18.54 13.08L17.04 14.08V6.61997C17.0405 6.28734 16.8756 5.97624 16.6 5.78997L12.6 3.07997C12.4894 3.01193 12.3588 2.98371 12.23 2.99997H11.78C11.6813 3.00194 11.5848 3.02951 11.5 3.07997L7.5 5.77997C7.19851 5.95388 7.00913 6.27204 7 6.61997V14.08L5.51 13.08C5.42517 13.0295 5.32869 13.0019 5.23 13H4.78C4.68131 13.0019 4.58483 13.0295 4.5 13.08L2.5 14.45C2.21765 14.6359 2.04837 14.9519 2.05 15.29V19H0.5C0.223858 19 0 19.2238 0 19.5V20.5C0 20.7761 0.223858 21 0.5 21H23.5C23.7761 21 24 20.7761 24 20.5V19.5C24 19.2238 23.7761 19 23.5 19ZM6 18.5C6 18.7761 5.77614 19 5.5 19H4.5C4.22386 19 4 18.7761 4 18.5V17.5C4 17.2238 4.22386 17 4.5 17H5.5C5.77614 17 6 17.2238 6 17.5V18.5ZM10.5 19C10.7761 19 11 18.7761 11 18.5V17.5C11 17.2238 10.7761 17 10.5 17H9.5C9.22386 17 9 17.2238 9 17.5V18.5C9 18.7761 9.22386 19 9.5 19H10.5ZM11 14.5C11 14.7761 10.7761 15 10.5 15H9.5C9.22386 15 9 14.7761 9 14.5V13.5C9 13.2238 9.22386 13 9.5 13H10.5C10.7761 13 11 13.2238 11 13.5V14.5ZM10.5 11C10.7761 11 11 10.7761 11 10.5V9.49997C11 9.22383 10.7761 8.99997 10.5 8.99997H9.5C9.22386 8.99997 9 9.22383 9 9.49997V10.5C9 10.7761 9.22386 11 9.5 11H10.5ZM15 18.5C15 18.7761 14.7761 19 14.5 19H13.5C13.2239 19 13 18.7761 13 18.5V17.5C13 17.2238 13.2239 17 13.5 17H14.5C14.7761 17 15 17.2238 15 17.5V18.5ZM14.5 15C14.7761 15 15 14.7761 15 14.5V13.5C15 13.2238 14.7761 13 14.5 13H13.5C13.2239 13 13 13.2238 13 13.5V14.5C13 14.7761 13.2239 15 13.5 15H14.5ZM15 10.5C15 10.7761 14.7761 11 14.5 11H13.5C13.2239 11 13 10.7761 13 10.5V9.49997C13 9.22383 13.2239 8.99997 13.5 8.99997H14.5C14.7761 8.99997 15 9.22383 15 9.49997V10.5ZM19.5 19C19.7761 19 20 18.7761 20 18.5V17.5C20 17.2238 19.7761 17 19.5 17H18.5C18.2239 17 18 17.2238 18 17.5V18.5C18 18.7761 18.2239 19 18.5 19H19.5Z" fill="currentColor" fill-rule="evenodd" clip-rule="evenodd" />
</svg>
