<svg xmlns="http://www.w3.org/2000/svg" viewBox="0 0 24 24">
    <path d="M4 3.5C4 2.67157 4.67157 2 5.5 2V1.35C5.5 1.1567 5.6567 1 5.85 1C6.81617 1.17161 7.51512 2.01883 7.5 3C7.5 4.10457 6.60457 5 5.5 5C4.67157 5 4 4.32843 4 3.5ZM10 10.62V12.29C10 12.7435 10.1802 13.1785 10.5008 13.4992C10.8215 13.8198 11.2565 14 11.71 14H12.29C12.7435 14 13.1785 13.8198 13.4992 13.4992C13.8198 13.1785 14 12.7435 14 12.29V10.62L15.79 9.33C16.0126 9.16743 16.0657 8.85742 15.91 8.63L15.62 8.21C15.4574 7.98741 15.1474 7.93427 14.92 8.09L14 8.71C13.7601 8.87096 13.4515 8.88814 13.1952 8.75479C12.9389 8.62144 12.7759 8.35884 12.77 8.07V6.49C12.7595 6.22 12.5402 6.00509 12.27 6H11.75C11.4798 6.00509 11.2605 6.22 11.25 6.49V8.07C11.2492 8.3657 11.0832 8.63617 10.82 8.77093C10.5568 8.90569 10.2404 8.88218 10 8.71L9.09 8.09C8.86258 7.93427 8.55257 7.98741 8.39 8.21L8.1 8.63C7.94427 8.85742 7.99741 9.16743 8.22 9.33L10 10.62ZM21 19C21.0052 19.2058 20.9257 19.4046 20.78 19.55L17.62 22.71C17.4313 22.8972 17.1758 23.0015 16.91 23H8.5C8.22386 23 8 22.7761 8 22.5V19.23L6.23 17.11C6.08092 16.9301 5.99954 16.7037 6 16.47V14.56L5.92 14.47C5.35539 13.7853 4.97963 12.9648 4.83 12.09L4.15 8H3.5C3.22386 8 3 7.77614 3 7.5V6.5C3 6.22386 3.22386 6 3.5 6H6.5C6.77614 6 7 6.22386 7 6.5V7.5C7 7.77614 6.77614 8 6.5 8H6.18L6.81 11.77C6.89751 12.2924 7.12177 12.7824 7.46 13.19L8.07 13.92C8.63883 14.6029 9.4812 14.9985 10.37 15H14.22C14.7441 15.0101 15.2432 15.2256 15.61 15.6L16.38 16.37C16.7307 16.7226 16.9375 17.1932 16.96 17.69L17.96 16.69C18.1478 16.5007 18.4034 16.3942 18.67 16.3942C18.9366 16.3942 19.1922 16.5007 19.38 16.69L20.78 18.09C20.9207 18.2305 20.9998 18.4212 21 18.62V19Z" fill="currentColor" fill-rule="evenodd" clip-rule="evenodd" />
</svg>
