<svg xmlns="http://www.w3.org/2000/svg" viewBox="0 0 24 24">
    <path d="M16.88 18C17.7531 19.5367 18.7568 20.9954 19.88 22.36C19.9588 22.4478 20.0016 22.5621 20 22.68V22.75C20 22.8881 19.8881 23 19.75 23H17.53C17.2028 22.9995 16.8966 22.8389 16.71 22.57C16.38 22.11 16.07 21.61 15.78 21.11C14.9717 19.7981 13.541 18.9992 12 18.9992C10.4591 18.9992 9.0284 19.7981 8.22004 21.11C8.13958 21.2376 8.05758 21.3699 7.97403 21.5046C7.75648 21.8555 7.52848 22.2232 7.29004 22.57C7.10352 22.8389 6.79727 22.9995 6.47004 23H4.25004C4.11197 23 4.00004 22.8881 4.00004 22.75V22.68C3.99847 22.5621 4.0413 22.4478 4.12004 22.36C5.24325 20.9954 6.24695 19.5367 7.12004 18H6.50004C6.2239 18 6.00004 17.7761 6.00004 17.5V16.5C6.00004 16.2239 6.2239 16 6.50004 16H8.16004C8.91933 14.3907 9.53506 12.7176 10 11H9.48004C9.2039 11 8.98004 10.7761 8.98004 10.5V9.5C8.98004 9.22386 9.2039 9 9.48004 9H10.48C10.7142 7.91381 10.8878 6.81545 11 5.71V5H10.5C10.2239 5 10 4.77614 10 4.5V3.5C10 3.22386 10.2239 3 10.5 3H11V1.5C11 1.22386 11.2239 1 11.5 1H12.5C12.7762 1 13 1.22386 13 1.5V3H13.52C13.7962 3 14.02 3.22386 14.02 3.5V4.5C14.02 4.77614 13.7962 5 13.52 5H13.06V5.71C13.1459 6.81395 13.2928 7.91229 13.5 9H14.5C14.7762 9 15 9.22386 15 9.5V10.5C15 10.7761 14.7762 11 14.5 11H14C14.465 12.7176 15.0807 14.3907 15.84 16H17.5C17.7762 16 18 16.2239 18 16.5V17.5C18 17.7761 17.7762 18 17.5 18H16.88ZM11.08 16H12.88H12.92C12.9994 15.9978 13.0729 15.9581 13.1183 15.893C13.1637 15.8279 13.1755 15.7452 13.15 15.67C12.9 15.02 12.68 14.35 12.47 13.67C12.4086 13.4616 12.2173 13.3186 12 13.3186C11.7828 13.3186 11.5915 13.4616 11.53 13.67C11.32 14.33 11.1 15 10.85 15.67C10.8246 15.7452 10.8364 15.8279 10.8818 15.893C10.9271 15.9581 11.0007 15.9978 11.08 16Z" fill="currentColor" fill-rule="evenodd" clip-rule="evenodd" />
</svg>
