<svg xmlns="http://www.w3.org/2000/svg" viewBox="0 0 24 24">
    <path d="M21 8.48001C20.9933 8.83311 20.8933 9.17813 20.71 9.48001L18.62 12.94C18.2392 13.5739 18.2392 14.3661 18.62 15L20.71 18.55C20.8933 18.8519 20.9933 19.1969 21 19.55V20C21 20.5523 20.5523 21 20 21H4C3.44772 21 3 20.5523 3 20V19.52C3.00668 19.1669 3.10674 18.8219 3.29 18.52L5.38 15.06C5.76083 14.4261 5.76083 13.6339 5.38 13L3.29 9.45002C3.10674 9.14813 3.00668 8.80311 3 8.45002V8.00001C3 7.44773 3.44772 7.00002 4 7.00002H16.06L17.03 3.37001C17.1076 3.10453 17.3826 2.94926 17.65 3.02002L18.65 3.28002C18.9141 3.35308 19.0702 3.62513 19 3.89002L18.14 7.00002H20C20.5523 7.00002 21 7.44773 21 8.00001V8.48001ZM14.5 14.88C14.7761 14.88 15 14.6562 15 14.38V13.62C15 13.3439 14.7761 13.12 14.5 13.12H12.88V11.5C12.88 11.2239 12.6561 11 12.38 11H11.62C11.3439 11 11.12 11.2239 11.12 11.5V13.12H9.5C9.22386 13.12 9 13.3439 9 13.62V14.38C9 14.6562 9.22386 14.88 9.5 14.88H11.12V16.5C11.12 16.7762 11.3439 17 11.62 17H12.38C12.6561 17 12.88 16.7762 12.88 16.5V14.88H14.5Z" fill="currentColor" fill-rule="evenodd" clip-rule="evenodd" />
</svg>
