<svg xmlns="http://www.w3.org/2000/svg" viewBox="0 0 24 24">
    <path d="M12.6075 3.76002L21.741 14.35C21.889 14.4721 21.9823 14.6485 22 14.84V15.19C22.0022 15.3943 21.9191 15.5901 21.7709 15.73C21.6345 15.8669 21.4804 15.9846 21.3127 16.08L13.3446 20.68C12.9884 20.8903 12.5825 21.0008 12.1693 21H11.8307C11.4174 21.0008 11.0116 20.8903 10.6554 20.68L2.68725 16.09C2.42094 15.9333 2.18753 15.7262 2 15.48V14.82C2.00193 14.6409 2.06524 14.4678 2.17928 14.33L11.3127 3.76002C11.4494 3.59248 11.6548 3.49674 11.8705 3.50002H12.0498C12.2649 3.4996 12.4691 3.5948 12.6075 3.76002ZM12.9562 7.22002V18.58L19.48 14.79L12.9562 7.22002Z" fill="currentColor" fill-rule="evenodd" clip-rule="evenodd" />
</svg>
