<svg xmlns="http://www.w3.org/2000/svg" viewBox="0 0 24 24">
    <path d="M7.5 2C6.39543 2 5.5 2.89543 5.5 4C5.5 4.53043 5.71071 5.03914 6.08579 5.41421C6.46086 5.78929 6.96957 6 7.5 6C8.60457 6 9.5 5.10457 9.5 4C9.5 2.89543 8.60457 2 7.5 2ZM8.22 7C8.75305 6.99958 9.2642 7.21196 9.64 7.59L10.41 8.36C10.788 8.7358 11.0004 9.24696 11 9.78V14.5C11 14.7761 10.7761 15 10.5 15H9.5V21.5C9.5 21.7761 9.27614 22 9 22H6C5.72386 22 5.5 21.7761 5.5 21.5V15H4.5C4.22386 15 4 14.7761 4 14.5V9.78C3.99958 9.24696 4.21196 8.7358 4.59 8.36L5.36 7.59C5.7358 7.21196 6.24696 6.99958 6.78 7H8.22ZM16.5 6C17.6046 6 18.5 5.10457 18.5 4C18.5 2.89543 17.6046 2 16.5 2C15.3954 2 14.5 2.89543 14.5 4C14.5 5.10457 15.3954 6 16.5 6ZM18.27 7.73L20.39 15.37C20.4303 15.5197 20.3989 15.6797 20.3049 15.803C20.2109 15.9264 20.0651 15.9991 19.91 16H18V21.5C18 21.7761 17.7761 22 17.5 22H15.5C15.2239 22 15 21.7761 15 21.5V16H13C12.838 16.0122 12.6802 15.945 12.5768 15.8197C12.4734 15.6944 12.4373 15.5267 12.48 15.37L14.76 7.73C14.8845 7.28476 15.298 6.98292 15.76 7H17.27C17.732 6.98292 18.1455 7.28476 18.27 7.73Z" fill="currentColor" fill-rule="evenodd" clip-rule="evenodd" />
</svg>
