<svg xmlns="http://www.w3.org/2000/svg" viewBox="0 0 24 24">
    <path d="M6 2H18C19.1046 2 20 2.89543 20 4V14C20 18.4183 16.4183 22 12 22C7.58172 22 4 18.4183 4 14V4C4 2.89543 4.89543 2 6 2ZM15 8.98414C14.1476 8.98414 13.3888 9.52445 13.11 10.33C13.0562 10.4855 13.0824 10.6575 13.18 10.79C13.2732 10.9239 13.4269 11.0026 13.59 11H16.41C16.5731 11.0026 16.7268 10.9239 16.82 10.79C16.9176 10.6575 16.9438 10.4855 16.89 10.33C16.6112 9.52445 15.8524 8.98414 15 8.98414ZM7.11 10.33C7.38881 9.52445 8.14756 8.98414 9 8.98414C9.85244 8.98414 10.6112 9.52445 10.89 10.33C10.9438 10.4855 10.9176 10.6575 10.82 10.79C10.7268 10.9239 10.5731 11.0026 10.41 11H7.59C7.4269 11.0026 7.27319 10.9239 7.18 10.79C7.0824 10.6575 7.05622 10.4855 7.11 10.33ZM7 14.56C7.28631 17.1007 9.44326 19.0161 12 19C14.5453 19.0007 16.6849 17.0893 16.97 14.56C16.9886 14.4187 16.9448 14.2764 16.85 14.17C16.7525 14.0629 16.6148 14.0013 16.47 14H7.53C7.37718 13.9896 7.22857 14.0528 7.13 14.17C7.02776 14.2723 6.9796 14.4168 7 14.56Z" fill="currentColor" fill-rule="evenodd" clip-rule="evenodd" />
</svg>
