<svg xmlns="http://www.w3.org/2000/svg" viewBox="0 0 24 24">
    <path d="M17 7H17.5C17.7761 7 18 6.77614 18 6.5V5.7C18.0014 5.23867 17.8383 4.79195 17.54 4.44L15.72 2.27C15.5758 2.09905 15.3636 2.00028 15.14 2H12.86C12.6364 2.00028 12.4242 2.09905 12.28 2.27L10.46 4.44C10.1617 4.79195 9.99864 5.23867 10 5.7V6.5C10 6.77614 10.2239 7 10.5 7H11V12H3C2.44772 12 2 12.4477 2 13V20H1.5C1.22386 20 1 20.2239 1 20.5V21.5C1 21.7761 1.22386 22 1.5 22H22.5C22.7761 22 23 21.7761 23 21.5V17C23 16.4477 22.5523 16 22 16H21V13.83C21.0004 13.297 20.788 12.7858 20.41 12.41L19.29 11.29C19.1037 11.1053 18.8523 11.0011 18.59 11H17V7ZM13 7H15V12H13V7ZM19 16V14H17V16H19ZM21 20V18H12V20H21ZM15 14H4V20H10V17C10 16.4477 10.4477 16 11 16H15V14ZM6.5 16H7.5C7.77614 16 8 16.2239 8 16.5V17.5C8 17.7761 7.77614 18 7.5 18H6.5C6.22386 18 6 17.7761 6 17.5V16.5C6 16.2239 6.22386 16 6.5 16Z" fill="currentColor" fill-rule="evenodd" clip-rule="evenodd" />
</svg>
