<svg xmlns="http://www.w3.org/2000/svg" viewBox="0 0 24 24">
    <path d="M21.7832 13.65L21.6131 13.16C21.3228 12.4139 21.3228 11.5861 21.6131 10.84L21.7832 10.38C22.4026 8.76209 21.6524 6.94198 20.0726 6.22999L19.6225 5.99999C18.9066 5.67005 18.332 5.09562 18.0019 4.37999L17.8019 3.92999C17.0934 2.34681 15.269 1.59531 13.6505 2.21999L13.1904 2.38999C12.8099 2.53264 12.4063 2.60384 12 2.59999C11.6037 2.60019 11.2107 2.52905 10.8396 2.38999L10.3795 2.21999C8.76099 1.59531 6.93658 2.34681 6.22813 3.92999L5.99806 4.37999C5.66801 5.09562 5.09339 5.67005 4.37753 5.99999L3.92739 6.19999C2.34758 6.91198 1.59736 8.73209 2.21683 10.35L2.38689 10.81C2.67719 11.5561 2.67719 12.3839 2.38689 13.13L2.21683 13.59C1.59736 15.2079 2.34758 17.028 3.92739 17.74L4.37753 17.94C5.10383 18.2847 5.67984 18.8819 5.99806 19.62L6.19812 20.07C6.90657 21.6532 8.73098 22.4047 10.3495 21.78L10.8096 21.61C11.5579 21.3301 12.3821 21.3301 13.1304 21.61L13.5905 21.78C15.209 22.4047 17.0334 21.6532 17.7419 20.07L17.9419 19.62C18.2868 18.8939 18.8841 18.3181 19.6225 18L20.0726 17.8C21.6524 17.088 22.4026 15.2679 21.7832 13.65ZM13.0003 15.5C13.0003 15.7761 12.7764 16 12.5002 16H11.4998C11.2236 16 10.9997 15.7761 10.9997 15.5V14.5C10.9997 14.2239 11.2236 14 11.4998 14H12.5002C12.7764 14 13.0003 14.2239 13.0003 14.5V15.5ZM12.5302 12C12.6574 12.0009 12.765 11.9062 12.7803 11.78L13.1804 8.55999C13.1976 8.41734 13.1527 8.27416 13.0569 8.16697C12.9612 8.05979 12.824 7.99896 12.6802 7.99999H11.3198C11.176 7.99896 11.0388 8.05979 10.9431 8.16697C10.8473 8.27416 10.8024 8.41734 10.8196 8.55999L11.2197 11.78C11.235 11.9062 11.3426 12.0009 11.4698 12H12.5302Z" fill="currentColor" fill-rule="evenodd" clip-rule="evenodd" />
</svg>
