<svg xmlns="http://www.w3.org/2000/svg" viewBox="0 0 24 24">
    <path d="M18 11.4236C14.8849 10.9425 12.5 8.24979 12.5 5C12.5 4.11243 12.6779 3.26641 13 2.49565C12.9976 2.22151 12.7747 2 12.5 2H11.5C11.2239 2 11 2.22386 11 2.5V4H10.5C9.55573 4 8.66656 4.44458 8.1 5.2L7.2 6.4C6.42107 7.43858 6 8.70178 6 10V12.76C5.9993 13.5554 5.68277 14.3179 5.12 14.88L4.29 15.71C4.10526 15.8963 4.0011 16.1477 4 16.41V17C4 17.5523 4.44772 18 5 18H19C19.5523 18 20 17.5523 20 17V16.41C19.9989 16.1477 19.8947 15.8963 19.71 15.71L18.88 14.88C18.3172 14.3179 18.0007 13.5554 18 12.76V11.4236Z" fill="currentColor" />
    <path d="M14 20C14 21.1046 13.1046 22 12 22C10.8954 22 10 21.1046 10 20H14Z" fill="currentColor" />
    <path d="M19 10C21.7614 10 24 7.76142 24 5C24 2.23858 21.7614 0 19 0C16.2386 0 14 2.23858 14 5C14 7.76142 16.2386 10 19 10ZM21.098 2.59989C21.2281 2.4667 21.4363 2.4667 21.5664 2.59989L21.901 2.97029C21.9644 3.0359 22 3.12521 22 3.21838C22 3.31156 21.9644 3.40087 21.901 3.46648L18.1401 7.39411C18.0793 7.46167 17.9946 7.5 17.9058 7.5C17.8171 7.5 17.7323 7.46167 17.6716 7.39411L16.099 5.7378C16.0356 5.67218 16 5.58287 16 5.4897C16 5.39653 16.0356 5.30721 16.099 5.2416L16.4537 4.8712C16.5144 4.80364 16.5992 4.76531 16.6879 4.76531C16.7766 4.76531 16.8614 4.80364 16.9221 4.8712L17.9259 5.91251L21.098 2.59989Z" fill="currentColor" fill-rule="evenodd" clip-rule="evenodd" />
</svg>
