<svg xmlns="http://www.w3.org/2000/svg" viewBox="0 0 24 24">
    <path d="M17.9998 12.76C18.0005 13.5554 18.317 14.3179 18.8798 14.88L19.7098 15.71C19.8945 15.8963 19.9987 16.1477 19.9998 16.41V17C19.9998 17.5523 19.5521 18 18.9998 18H4.99978C4.44749 18 3.99978 17.5523 3.99978 17V16.41C4.00088 16.1477 4.10503 15.8963 4.28978 15.71L5.11978 14.88C5.68255 14.3179 5.99908 13.5554 5.99978 12.76V10C5.99978 8.70178 6.42084 7.43858 7.19978 6.4L8.09978 5.2C8.66634 4.44458 9.5555 4 10.4998 4H10.9998V2.5C10.9998 2.22386 11.2236 2 11.4998 2H12.4998C12.7759 2 12.9998 2.22386 12.9998 2.5V4H13.4998C14.444 4 15.3332 4.44458 15.8998 5.2L16.7998 6.4C17.5787 7.43858 17.9998 8.70178 17.9998 10V12.76ZM11.9998 22C13.1043 22 13.9998 21.1046 13.9998 20H9.99978C9.99978 21.1046 10.8952 22 11.9998 22ZM5.58978 5.21C5.70907 5.05475 5.68242 4.83262 5.52978 4.71L4.52978 3.93C4.44617 3.86047 4.33785 3.82797 4.22978 3.84C4.1351 3.86112 4.05251 3.91858 3.99978 4C2.80781 5.58596 2.11192 7.48923 1.99978 9.47C1.98974 9.60792 2.04095 9.74327 2.13978 9.84C2.23135 9.94239 2.36241 10.0006 2.49978 10H3.49978C3.76626 9.99523 3.98414 9.78607 3.99978 9.52C4.10385 7.96023 4.65595 6.46367 5.58978 5.21ZM19.7298 3.84C19.8386 3.85194 19.937 3.91026 19.9998 4C21.1875 5.58824 21.8829 7.4902 21.9998 9.47C21.9979 9.60777 21.9444 9.73981 21.8498 9.84C21.7567 9.94035 21.6266 9.99818 21.4898 10H20.4898C20.2251 9.99492 20.0103 9.78447 19.9998 9.52C19.8811 7.95503 19.3115 6.45798 18.3598 5.21C18.2405 5.05475 18.2671 4.83262 18.4198 4.71L19.4198 3.93C19.508 3.86181 19.6188 3.82964 19.7298 3.84Z" fill="currentColor" fill-rule="evenodd" clip-rule="evenodd" />
</svg>
