<svg xmlns="http://www.w3.org/2000/svg" viewBox="0 0 24 24">
    <path d="M21 9.51C20.9993 8.71462 20.6828 7.95207 20.12 7.39L16.61 3.88C16.0479 3.31723 15.2854 3.0007 14.49 3H9.49C8.69462 3.0007 7.93207 3.31723 7.37 3.88L3.88 7.39C3.31723 7.95207 3.0007 8.71462 3 9.51V14.51C3.0007 15.3054 3.31723 16.0679 3.88 16.63L7.39 20.14C7.95533 20.6954 8.71748 21.0046 9.51 21H14.51C15.3054 20.9993 16.0679 20.6828 16.63 20.12L20.14 16.61C20.6954 16.0447 21.0046 15.2825 21 14.49V9.51ZM13 15.51C13 15.7861 12.7761 16.01 12.5 16.01H11.5C11.2239 16.01 11 15.7861 11 15.51V14.51C11 14.2339 11.2239 14.01 11.5 14.01H12.5C12.7761 14.01 13 14.2339 13 14.51V15.51ZM12.53 12.01C12.6572 12.0109 12.7647 11.9162 12.78 11.79L13.18 8.57C13.1972 8.42735 13.1523 8.28417 13.0566 8.17698C12.9609 8.06979 12.8237 8.00896 12.68 8.01H11.32C11.1763 8.00896 11.0391 8.06979 10.9434 8.17698C10.8477 8.28417 10.8028 8.42735 10.82 8.57L11.22 11.79C11.2353 11.9162 11.3428 12.0109 11.47 12.01H12.53Z" fill="currentColor" fill-rule="evenodd" clip-rule="evenodd" />
</svg>
