<svg xmlns="http://www.w3.org/2000/svg" viewBox="0 0 24 24">
    <path d="M16.61 3.88L20.12 7.39C20.6779 7.94716 20.994 8.70156 21 9.49V14.49C21.0046 15.2825 20.6954 16.0447 20.14 16.61L16.63 20.12C16.0679 20.6828 15.3054 20.9993 14.51 21H9.51C8.71748 21.0046 7.95533 20.6954 7.39 20.14L3.88 16.63C3.31723 16.0679 3.0007 15.3054 3 14.51V9.51C3.0007 8.71462 3.31723 7.95207 3.88 7.39L7.37 3.88C7.93207 3.31723 8.69462 3.0007 9.49 3H14.49C15.2854 3.0007 16.0479 3.31723 16.61 3.88ZM18.71 15.19C18.8947 15.0037 18.9989 14.7523 19 14.49L19.02 9.51C19.0189 9.24766 18.9147 8.99626 18.73 8.81L15.21 5.29C15.0237 5.10526 14.7723 5.0011 14.51 5H9.51C9.24766 5.0011 8.99626 5.10526 8.81 5.29L5.29 8.79C5.10526 8.97626 5.0011 9.22766 5 9.49V14.49C5.0011 14.7523 5.10526 15.0037 5.29 15.19L8.79 18.71C8.97626 18.8947 9.22766 18.9989 9.49 19H14.49C14.7523 18.9989 15.0037 18.8947 15.19 18.71L18.71 15.19ZM12.5 14H11.5C11.2239 14 11 14.2239 11 14.5V15.5C11 15.7761 11.2239 16 11.5 16H12.5C12.7761 16 13 15.7761 13 15.5V14.5C13 14.2239 12.7761 14 12.5 14ZM11.32 8H12.68C12.8237 7.99896 12.9609 8.05979 13.0566 8.16698C13.1523 8.27417 13.1972 8.41735 13.18 8.56L12.78 11.78C12.7647 11.9062 12.6572 12.0009 12.53 12H11.47C11.3428 12.0009 11.2353 11.9062 11.22 11.78L10.82 8.56C10.8028 8.41735 10.8477 8.27417 10.9434 8.16698C11.0391 8.05979 11.1763 7.99896 11.32 8Z" fill="currentColor" fill-rule="evenodd" clip-rule="evenodd" />
</svg>
