<svg xmlns="http://www.w3.org/2000/svg" viewBox="0 0 24 24">
    <path d="M20.12 5.12L16.59 1.59C16.2142 1.21196 15.703 0.999578 15.17 1H8.83C8.29696 0.999578 7.7858 1.21196 7.41 1.59L3.88 5.12C3.31723 5.68207 3.0007 6.44462 3 7.24V13.09C3.00185 15.5573 4.14207 17.8857 6.09 19.4L10.17 22.58C10.5218 22.853 10.9547 23.0008 11.4 23H12.6C13.0453 23.0008 13.4782 22.853 13.83 22.58L17.91 19.4C19.8579 17.8857 20.9981 15.5573 21 13.09V7.24C20.9993 6.44462 20.6828 5.68207 20.12 5.12ZM13 15.5C13 15.7761 12.7761 16 12.5 16H11.5C11.2239 16 11 15.7761 11 15.5V14.5C11 14.2239 11.2239 14 11.5 14H12.5C12.7761 14 13 14.2239 13 14.5V15.5ZM12.53 12C12.6572 12.0009 12.7647 11.9062 12.78 11.78L13.18 8.56C13.1972 8.41735 13.1523 8.27417 13.0566 8.16698C12.9609 8.05979 12.8237 7.99896 12.68 8H11.32C11.1763 7.99896 11.0391 8.05979 10.9434 8.16698C10.8477 8.27417 10.8028 8.41735 10.82 8.56L11.22 11.78C11.2353 11.9062 11.3428 12.0009 11.47 12H12.53Z" fill="currentColor" fill-rule="evenodd" clip-rule="evenodd" />
</svg>
