<svg xmlns="http://www.w3.org/2000/svg" viewBox="0 0 24 24">
    <path d="M2.14985 6.55985C2.0552 6.46597 2.00195 6.33817 2.00195 6.20485C2.00195 6.07153 2.0552 5.94374 2.14985 5.84985L2.84985 5.14985C2.94374 5.0552 3.07153 5.00195 3.20485 5.00195C3.33817 5.00195 3.46597 5.0552 3.55985 5.14985L10.4999 12.0899L13.1499 9.43985C13.2406 9.34317 13.3673 9.28833 13.4999 9.28833C13.6324 9.28833 13.7591 9.34317 13.8499 9.43985L21.8499 17.4399C21.9445 17.5337 21.9978 17.6615 21.9978 17.7949C21.9978 17.9282 21.9445 18.056 21.8499 18.1499L21.1499 18.8499C21.056 18.9445 20.9282 18.9978 20.7949 18.9978C20.6615 18.9978 20.5337 18.9445 20.4399 18.8499L13.4999 11.9099L10.8499 14.5599C10.7591 14.6565 10.6324 14.7114 10.4999 14.7114C10.3673 14.7114 10.2406 14.6565 10.1499 14.5599L2.14985 6.55985Z" fill="currentColor" />
</svg>
