<svg xmlns="http://www.w3.org/2000/svg" viewBox="0 0 24 24">
    <path d="M4 5V15C4 15.5523 4.44772 16 5 16H7C7.55229 16 8 15.5523 8 15V5C8 4.44772 7.55229 4 7 4H5C4.44772 4 4 4.44772 4 5ZM11 8C10.4477 8 10 8.44772 10 9V15C10 15.5523 10.4477 16 11 16H13C13.5523 16 14 15.5523 14 15V9C14 8.44772 13.5523 8 13 8H11ZM19 16H17C16.4477 16 16 15.5523 16 15V13C16 12.4477 16.4477 12 17 12H19C19.5523 12 20 12.4477 20 13V15C20 15.5523 19.5523 16 19 16ZM2 19.5V18.5C2 18.2239 2.22386 18 2.5 18H21.5C21.7761 18 22 18.2239 22 18.5V19.5C22 19.7761 21.7761 20 21.5 20H2.5C2.22386 20 2 19.7761 2 19.5Z" fill="currentColor" fill-rule="evenodd" clip-rule="evenodd" />
</svg>
