<svg xmlns="http://www.w3.org/2000/svg" viewBox="0 0 24 24">
    <path d="M8.5 3C11.5376 3 14 5.46243 14 8.5C14 9.95869 13.4205 11.3576 12.3891 12.3891C11.3576 13.4205 9.95869 14 8.5 14C5.46243 14 3 11.5376 3 8.5C3 5.46243 5.46243 3 8.5 3ZM17.5 11C15.567 11 14 12.567 14 14.5C14 16.433 15.567 18 17.5 18C19.433 18 21 16.433 21 14.5C21 12.567 19.433 11 17.5 11ZM14 19C14 20.1046 13.1046 21 12 21C10.8954 21 10 20.1046 10 19C10 17.8954 10.8954 17 12 17C13.1046 17 14 17.8954 14 19Z" fill="currentColor" fill-rule="evenodd" clip-rule="evenodd" />
</svg>
