<svg xmlns="http://www.w3.org/2000/svg" viewBox="0 0 24 24">
    <path d="M13 4H11C10.4477 4 10 4.44772 10 5V19C10 19.5523 10.4477 20 11 20H13C13.5523 20 14 19.5523 14 19V5C14 4.44772 13.5523 4 13 4ZM8 13V19C8 19.5523 7.55228 20 7 20H5C4.44772 20 4 19.5523 4 19V13C4 12.4477 4.44772 12 5 12H7C7.55228 12 8 12.4477 8 13ZM17 8H19C19.5523 8 20 8.44772 20 9V19C20 19.5523 19.5523 20 19 20H17C16.4477 20 16 19.5523 16 19V9C16 8.44772 16.4477 8 17 8Z" fill="currentColor" fill-rule="evenodd" clip-rule="evenodd" />
</svg>
