<svg xmlns="http://www.w3.org/2000/svg" viewBox="0 0 24 24">
    <path d="M13 16H11C10.4477 16 10 15.5523 10 15V5C10 4.44772 10.4477 4 11 4H13C13.5523 4 14 4.44772 14 5V15C14 15.5523 13.5523 16 13 16ZM4 13V15C4 15.5523 4.44772 16 5 16H7C7.55228 16 8 15.5523 8 15V13C8 12.4477 7.55228 12 7 12H5C4.44772 12 4 12.4477 4 13ZM17 16H19C19.5523 16 20 15.5523 20 15V9C20 8.44772 19.5523 8 19 8H17C16.4477 8 16 8.44772 16 9V15C16 15.5523 16.4477 16 17 16ZM2.5 18H21.5C21.7761 18 22 18.2239 22 18.5V19.5C22 19.7761 21.7761 20 21.5 20H2.5C2.22386 20 2 19.7761 2 19.5V18.5C2 18.2239 2.22386 18 2.5 18Z" fill="currentColor" fill-rule="evenodd" clip-rule="evenodd" />
</svg>
