<svg xmlns="http://www.w3.org/2000/svg" viewBox="0 0 24 24">
    <path d="M18.9311 9.09C18.4916 6.7222 16.4215 5.00313 14.0061 5H5.98164C3.40251 5.01739 1.2571 6.98213 1.02126 9.54268C0.785415 12.1032 2.53603 14.4246 5.06885 14.91C5.50845 17.2778 7.5785 18.9969 9.99388 19H18.0184C20.5975 18.9826 22.7429 17.0179 22.9787 14.4573C23.2146 11.8968 21.464 9.57537 18.9311 9.09ZM2.97246 10C2.97246 8.34315 4.31971 7 5.98164 7H14.0061C15.668 7 17.0153 8.34315 17.0153 10C17.0153 11.6569 15.668 13 14.0061 13H7.16525C7.58929 11.8043 8.72174 11.0036 9.99388 11H14.7083C15.051 10.7821 15.2588 10.4052 15.2599 10C15.2539 9.59851 15.0517 9.22521 14.7183 9H9.99388C7.66763 9.00385 5.64939 10.6019 5.119 12.86C3.85013 12.4815 2.97868 11.3204 2.97246 10ZM9.99388 17H18.0184C19.4944 16.9781 20.7365 15.892 20.9508 14.4359C21.1652 12.9799 20.2884 11.5838 18.881 11.14C18.3506 13.3981 16.3324 14.9961 14.0061 15H7.16525C7.58929 16.1957 8.72174 16.9964 9.99388 17Z" fill="currentColor" fill-rule="evenodd" clip-rule="evenodd" />
</svg>
