<svg xmlns="http://www.w3.org/2000/svg" viewBox="0 0 24 24">
    <path d="M22 9.5C22 12.8844 19.7583 15.7453 16.6787 16.6787C15.7453 19.7583 12.8844 22 9.5 22C5.35786 22 2 18.6421 2 14.5C2 11.1156 4.24173 8.25474 7.32134 7.32134C8.25474 4.24173 11.1156 2 14.5 2C18.6421 2 22 5.35786 22 9.5ZM9.59938 7.00065C13.6626 7.05341 16.9466 10.3374 16.9994 14.4006C18.7805 13.4904 20 11.6376 20 9.5C20 6.46243 17.5376 4 14.5 4C12.3624 4 10.5096 5.21946 9.59938 7.00065ZM7.00065 9.59938C7.05341 13.6626 10.3374 16.9466 14.4006 16.9994C13.4904 18.7805 11.6376 20 9.5 20C6.46243 20 4 17.5376 4 14.5C4 12.3624 5.21946 10.5096 7.00065 9.59938Z" fill="currentColor" fill-rule="evenodd" clip-rule="evenodd" />
</svg>
