<svg xmlns="http://www.w3.org/2000/svg" viewBox="0 0 24 24">
    <path d="M20 13H13V11H17C17.5523 11 18 10.5523 18 10V6C18 5.44772 17.5523 5 17 5H13V3.5C13 3.22386 12.7761 3 12.5 3H11.5C11.2239 3 11 3.22386 11 3.5V5H7C6.44772 5 6 5.44772 6 6V10C6 10.5523 6.44772 11 7 11H11V13H4C3.44772 13 3 13.4477 3 14V18C3 18.5523 3.44772 19 4 19H11V20.5C11 20.7761 11.2239 21 11.5 21H12.5C12.7761 21 13 20.7761 13 20.5V19H20C20.5523 19 21 18.5523 21 18V14C21 13.4477 20.5523 13 20 13ZM8 9V7H16V9H8ZM5 15V17H19V15H5Z" fill="currentColor" fill-rule="evenodd" clip-rule="evenodd" />
</svg>
