<svg xmlns="http://www.w3.org/2000/svg" viewBox="0 0 24 24">
    <path d="M16.002 3H16C14.896 3 14 3.896 14 5V6.586C14 7.188 13.507 7.588 12.993 7.588C12.747 7.588 12.497 7.496 12.293 7.293L12.172 7.172C11.422 6.422 10.404 6 9.343 6H8C6.702 6 5.438 6.421 4.4 7.2C2.889 8.333 2 10.111 2 12V13C2 17.418 5.582 21 10 21H14C18.418 21 22 17.418 22 13V11.728C22 9.341 21.052 7.052 19.364 5.364L17.706 3.706C17.254 3.254 16.641 3 16.002 3ZM6 11.5C6 12.328 6.672 13 7.5 13C8.328 13 9 12.328 9 11.5C9 10.672 8.328 10 7.5 10C6.672 10 6 10.672 6 11.5ZM15 11.5C15 12.328 15.672 13 16.5 13C17.328 13 18 12.328 18 11.5C18 10.672 17.328 10 16.5 10C15.672 10 15 10.672 15 11.5ZM13 15.5C13 16.328 13.672 17 14.5 17C15.328 17 16 16.328 16 15.5C16 14.672 15.328 14 14.5 14C13.672 14 13 14.672 13 15.5ZM9.5 17C8.672 17 8 16.328 8 15.5C8 14.672 8.672 14 9.5 14C10.328 14 11 14.672 11 15.5C11 16.328 10.328 17 9.5 17ZM16.292 5.12C16.214 5.043 16.111 5 16.002 5H16V6.586C16 8.241 14.651 9.588 12.993 9.588C12.197 9.588 11.446 9.275 10.879 8.707L10.758 8.586C10.38 8.208 9.877 8 9.343 8H8C7.141 8 6.288 8.284 5.6 8.8C4.598 9.552 4 10.748 4 12V13C4 16.309 6.691 19 10 19H14C17.309 19 20 16.309 20 13V11.728C20 9.858 19.271 8.101 17.95 6.778L16.292 5.12Z" fill="currentColor" fill-rule="evenodd" clip-rule="evenodd" />
</svg>
