<svg xmlns="http://www.w3.org/2000/svg" viewBox="0 0 24 24">
    <path d="M7 12C9.20914 12 11 10.2091 11 8C11 5.79086 9.20914 4 7 4C4.79086 4 3 5.79086 3 8C3 10.2091 4.79086 12 7 12ZM7 10C8.10457 10 9 9.10457 9 8C9 6.89543 8.10457 6 7 6C5.89543 6 5 6.89543 5 8C5 9.10457 5.89543 10 7 10Z" fill="currentColor" fill-rule="evenodd" clip-rule="evenodd" />
    <path d="M17 12C19.2091 12 21 10.2091 21 8C21 5.79086 19.2091 4 17 4C14.7909 4 13 5.79086 13 8C13 10.2091 14.7909 12 17 12ZM17 10C18.1046 10 19 9.10457 19 8C19 6.89543 18.1046 6 17 6C15.8954 6 15 6.89543 15 8C15 9.10457 15.8954 10 17 10Z" fill="currentColor" fill-rule="evenodd" clip-rule="evenodd" />
    <path d="M15.4042 13C13.9995 13 12.7187 13.7341 12 14.8993V20H22.5549C23.2537 20 23.737 19.3015 23.4907 18.6475L22.3392 15.5902C21.7523 14.0317 20.2612 13 18.5959 13H15.4042ZM18.5959 15H15.4042C14.5716 15 13.826 15.5159 13.5325 16.2951L12.8904 18H21.1097L20.4676 16.2951C20.1741 15.5159 19.4285 15 18.5959 15Z" fill="currentColor" fill-rule="evenodd" clip-rule="evenodd" />
    <path d="M1.66089 15.5902C2.24783 14.0317 3.73891 13 5.40421 13H8.5959C10.0407 13 11.3543 13.7766 12.0602 15H12V20H1.44525C0.746436 20 0.263118 19.3015 0.509417 18.6475L1.66089 15.5902ZM5.40421 15H8.5959C9.42854 15 10.1741 15.5159 10.4676 16.2951L11.1097 18H2.89044L3.53255 16.2951C3.82602 15.5159 4.57156 15 5.40421 15Z" fill="currentColor" fill-rule="evenodd" clip-rule="evenodd" />
</svg>
