<svg xmlns="http://www.w3.org/2000/svg" viewBox="0 0 24 24">
    <path d="M6.99982 8.01143C6.99982 5.00714 7.99982 0 11.9998 0C15.9998 0 16.9998 5.00714 16.9998 8.01143C17.0128 9.80799 16.7601 11.5966 16.2498 13.319C16.1192 13.7348 15.7351 14.0183 15.2998 14.02H9.04982C8.67906 14.017 8.34036 13.8089 8.16982 13.4792C7.36809 11.77 6.96786 9.89957 6.99982 8.01143ZM14.1898 3.72531C13.4898 2.20314 12.6498 2.00286 11.9998 2.00286C11.3498 2.00286 10.5098 2.20314 9.80982 3.72531C9.25327 5.08449 8.97772 6.54258 8.99982 8.01143C8.98246 9.37775 9.21636 10.7356 9.68982 12.0171H14.5398C14.8472 10.7042 15.0016 9.35998 14.9998 8.01143C15.0219 6.54258 14.7464 5.08449 14.1898 3.72531ZM10.2798 18.7868L13.2798 19.3075L12.9998 20.7896C12.9534 21.3263 12.6246 21.7974 12.1372 22.0254C11.6499 22.2535 11.0781 22.2039 10.6372 21.8953C10.1964 21.5867 9.95338 21.0659 9.99982 20.5293C9.99259 20.4426 9.99259 20.3555 9.99982 20.2689L10.2498 18.7868H10.2798ZM8.46982 17.4549C8.55345 16.9691 8.97764 16.6165 9.46982 16.6237L9.45982 16.6437H9.63982L14.5598 17.515C14.8211 17.5614 15.0533 17.7098 15.2052 17.9277C15.3571 18.1456 15.4164 18.415 15.3698 18.6766L14.9398 21.1401C14.6082 22.9129 12.9873 24.1443 11.1932 23.9864C9.39907 23.8285 8.01752 22.3328 7.99982 20.5293C7.99453 20.3252 8.00456 20.121 8.02982 19.9184L8.46982 17.4549Z" fill="currentColor" fill-rule="evenodd" clip-rule="evenodd" />
</svg>
