<svg xmlns="http://www.w3.org/2000/svg" viewBox="0 0 24 24">
    <path d="M4 2C2.89543 2 2 2.89543 2 4V21C2 21.5523 2.44772 22 3 22C3.18723 22.0006 3.37086 21.9486 3.53 21.85L9.47 18.13C9.79427 17.9273 10.2057 17.9273 10.53 18.13L16.47 21.85C16.6291 21.9486 16.8128 22.0006 17 22C17.5523 22 18 21.5523 18 21V4C18 2.89543 17.1046 2 16 2H4ZM4 4H16V19.19L11.59 16.44C10.6172 15.832 9.38281 15.832 8.41 16.44L4 19.19V4ZM22 19C22 19.5523 21.5523 20 21 20H20V4H21C21.5523 4 22 4.44772 22 5V19Z" fill="currentColor" fill-rule="evenodd" clip-rule="evenodd" />
</svg>
