<svg xmlns="http://www.w3.org/2000/svg" viewBox="0 0 24 24">
    <path d="M5 11V6H3.5C3.22386 6 3 5.77614 3 5.5V4.5C3 4.22386 3.22386 4 3.5 4H5C5 2.89543 5.89543 2 7 2H19C20.1046 2 21 2.89543 21 4V20C21 21.1046 20.1046 22 19 22H7C5.89543 22 5 21.1046 5 20H3.5C3.22386 20 3 19.7761 3 19.5V18.5C3 18.2239 3.22386 18 3.5 18H5V13H3.5C3.22386 13 3 12.7761 3 12.5V11.5C3 11.2239 3.22386 11 3.5 11H5ZM8.00006 4C7.44778 4 7.00007 4.44739 7.00007 4.99928V18.9892C6.99577 19.3609 7.19834 19.7043 7.52589 19.8806C7.85345 20.0568 8.25185 20.0368 8.56005 19.8286L12.44 17.2304C12.7815 17.0124 13.2185 17.0124 13.56 17.2304L17.4399 19.8286C17.7482 20.0368 18.1465 20.0568 18.4741 19.8806C18.8017 19.7043 19.0042 19.3609 18.9999 18.9892V4.99928C18.9999 4.44739 18.5522 4 17.9999 4H8.00006Z" fill="currentColor" fill-rule="evenodd" clip-rule="evenodd" />
</svg>
