<svg xmlns="http://www.w3.org/2000/svg" viewBox="0 0 24 24">
    <path d="M21.5 8H20V4C20 2.89543 19.1046 2 18 2H6C4.89543 2 4 2.89543 4 4V8H2.5C2.22386 8 2 8.22386 2 8.5V9.5C2 9.77614 2.22386 10 2.5 10H21.5C21.7761 10 22 9.77614 22 9.5V8.5C22 8.22386 21.7761 8 21.5 8ZM6 4H18V8H6V4ZM13 14H18V12H20V14.76C19.9993 15.5554 19.6828 16.3179 19.12 16.88L14.88 21.12C14.3179 21.6828 13.5554 21.9993 12.76 22H6C4.89543 22 4 21.1046 4 20V12H6V20H12V15C12 14.4477 12.4477 14 13 14Z" fill="currentColor" fill-rule="evenodd" clip-rule="evenodd" />
</svg>
