<svg xmlns="http://www.w3.org/2000/svg" viewBox="0 0 24 24">
    <path d="M21 10.06L18.22 5.06C17.5146 3.78809 16.1744 2.99929 14.72 3H9.27999C7.82557 2.99929 6.48538 3.78809 5.77999 5.06L2.99999 10.06C2.33073 11.2668 2.33073 12.7332 2.99999 13.94L5.77999 18.94C6.48538 20.2119 7.82557 21.0007 9.27999 21H14.72C16.1744 21.0007 17.5146 20.2119 18.22 18.94L21 13.94C21.6692 12.7332 21.6692 11.2668 21 10.06ZM19.25 13L16.47 18C16.1095 18.6244 15.4409 19.0065 14.72 19H9.27999C8.55905 19.0065 7.89044 18.6244 7.52999 18L4.74999 13C4.41536 12.3966 4.41536 11.6634 4.74999 11.06L7.52999 6C7.89044 5.37561 8.55905 4.99355 9.27999 5H14.72C15.4409 4.99355 16.1095 5.37561 16.47 6L19.25 11C19.6073 11.6188 19.6073 12.3812 19.25 13Z" fill="currentColor" fill-rule="evenodd" clip-rule="evenodd" />
</svg>
