<svg xmlns="http://www.w3.org/2000/svg" viewBox="0 0 24 24">
    <path d="M11.3919 2.32011C11.4702 2.12451 11.6604 1.99734 11.8706 2.00011H12.1298C12.3381 1.99568 12.5263 2.12416 12.5986 2.32011L15.0817 8.21011L21.4542 8.72011C21.6593 8.73266 21.8346 8.87254 21.893 9.07011L21.9728 9.32011C22.0383 9.5088 21.9831 9.71852 21.8331 9.85011L16.9865 14.0001L18.4225 20.2201C18.4712 20.4189 18.3965 20.6276 18.233 20.7501L18.0137 20.9001C17.9284 20.9671 17.8227 21.0024 17.7145 21.0001C17.6232 21.0021 17.5332 20.9778 17.4552 20.9301L12.0002 17.6001L6.57513 20.9301C6.49714 20.9778 6.40717 21.0021 6.31585 21.0001C6.2076 21.0024 6.10188 20.9671 6.01667 20.9001L5.76736 20.7501C5.60386 20.6276 5.52925 20.4189 5.57788 20.2201L7.01393 14.0001L2.17724 9.86011C2.01951 9.72929 1.9598 9.51376 2.02765 9.32011L2.13735 9.07011C2.19568 8.87254 2.37104 8.73266 2.57614 8.72011L8.9486 8.21011L11.3919 2.32011ZM18.6519 10.2501L13.8551 9.87011L12.0002 5.41011L10.1453 9.87011L5.34851 10.2501L9.00844 13.3801L7.88154 18.0601L12.0002 15.5501L16.1089 18.0601L14.992 13.3801L18.6519 10.2501Z" fill="currentColor" fill-rule="evenodd" clip-rule="evenodd" />
</svg>
