<svg xmlns="http://www.w3.org/2000/svg" viewBox="0 0 24 24">
    <path d="M21 7.5V6C21 4.34315 19.6569 3 18 3H16.5C16.2239 3 16 3.22386 16 3.5V4.5C16 4.77614 16.2239 5 16.5 5H18C18.5523 5 19 5.44772 19 6V7.5C19 7.77614 19.2239 8 19.5 8H20.5C20.7761 8 21 7.77614 21 7.5ZM6 19H7.5C7.77614 19 8 19.2239 8 19.5V20.5C8 20.7761 7.77614 21 7.5 21H6C4.34315 21 3 19.6569 3 18V16.5C3 16.2239 3.22386 16 3.5 16H4.5C4.77614 16 5 16.2239 5 16.5V18C5 18.5523 5.44772 19 6 19ZM3.5 8H4.5C4.77614 8 5 7.77614 5 7.5V6C5 5.44772 5.44772 5 6 5H7.5C7.77614 5 8 4.77614 8 4.5V3.5C8 3.22386 7.77614 3 7.5 3H6C4.34315 3 3 4.34315 3 6V7.5C3 7.77614 3.22386 8 3.5 8ZM19.5 16H20.5C20.7761 16 21 16.2239 21 16.5V18C21 19.6569 19.6569 21 18 21H16.5C16.2239 21 16 20.7761 16 20.5V19.5C16 19.2239 16.2239 19 16.5 19H18C18.5523 19 19 18.5523 19 18V16.5C19 16.2239 19.2239 16 19.5 16ZM9 10.5V8.5C9 8.22386 8.77614 8 8.5 8H7.5C7.22386 8 7 8.22386 7 8.5V10.5C7 10.7761 7.22386 11 7.5 11H8.5C8.77614 11 9 10.7761 9 10.5ZM17 8.5V10.5C17 10.7761 16.7761 11 16.5 11H15.5C15.2239 11 15 10.7761 15 10.5V8.5C15 8.22386 15.2239 8 15.5 8H16.5C16.7761 8 17 8.22386 17 8.5ZM10.5 14C11.8807 14 13 12.8807 13 11.5V8.5C13 8.22386 12.7761 8 12.5 8H11.5C11.2239 8 11 8.22386 11 8.5V11.5C11 11.7761 10.7761 12 10.5 12C10.2239 12 10 12.2239 10 12.5V13.5C10 13.7761 10.2239 14 10.5 14ZM14.01 15.46C14.2288 15.3211 14.5171 15.3684 14.68 15.57L15.28 16.38C15.3671 16.4887 15.4037 16.6294 15.3808 16.7668C15.3579 16.9042 15.2776 17.0254 15.16 17.1C14.2127 17.6922 13.1172 18.0042 12 18C10.8868 17.998 9.79618 17.6864 8.85 17.1C8.73393 17.0237 8.65567 16.9018 8.63469 16.7645C8.61372 16.6272 8.65199 16.4874 8.74 16.38L9.34 15.57C9.50293 15.3684 9.79116 15.3211 10.01 15.46C11.2534 16.1526 12.7666 16.1526 14.01 15.46Z" fill="currentColor" fill-rule="evenodd" clip-rule="evenodd" />
</svg>
