<svg xmlns="http://www.w3.org/2000/svg" viewBox="0 0 24 24">
    <path d="M8 10H18C19.1046 10 20 10.8954 20 12V20C20 21.1046 19.1046 22 18 22H6C4.89543 22 4 21.1046 4 20V12C4 10.8954 4.89543 10 6 10V8C6 4.68629 8.68629 2 12 2C15.3137 2 18 4.68629 18 8H16C16 5.79086 14.2091 4 12 4C9.79086 4 8 5.79086 8 8V10ZM13 18C13.5523 18 14 17.5523 14 17V15C14 14.4477 13.5523 14 13 14H11C10.4477 14 10 14.4477 10 15V17C10 17.5523 10.4477 18 11 18H13Z" fill="currentColor" fill-rule="evenodd" clip-rule="evenodd" />
</svg>
