<svg xmlns="http://www.w3.org/2000/svg" viewBox="0 0 24 24">
    <path d="M18 10V8C18 4.68629 15.3137 2 12 2C8.68629 2 6 4.68629 6 8V10C4.89543 10 4 10.8954 4 12V20C4 21.1046 4.89543 22 6 22H18C19.1046 22 20 21.1046 20 20V12C20 10.8954 19.1046 10 18 10ZM8 8C8 5.79086 9.79086 4 12 4C14.2091 4 16 5.79086 16 8V10H8V8ZM15.5 15C15.2239 15 15 15.2239 15 15.5V16.5C15 16.7761 15.2239 17 15.5 17H16.5C16.7761 17 17 16.7761 17 16.5V15.5C17 15.2239 16.7761 15 16.5 15H15.5ZM11 15.5C11 15.2239 11.2239 15 11.5 15H12.5C12.7761 15 13 15.2239 13 15.5V16.5C13 16.7761 12.7761 17 12.5 17H11.5C11.2239 17 11 16.7761 11 16.5V15.5ZM7 15.5V16.5C7 16.7761 7.22386 17 7.5 17H8.5C8.77614 17 9 16.7761 9 16.5V15.5C9 15.2239 8.77614 15 8.5 15H7.5C7.22386 15 7 15.2239 7 15.5Z" fill="currentColor" fill-rule="evenodd" clip-rule="evenodd" />
</svg>
