<svg xmlns="http://www.w3.org/2000/svg" viewBox="0 0 24 24">
    <path d="M20.12 5.12C20.6828 5.68207 20.9993 6.44462 21 7.24V13.09C20.9981 15.5573 19.8579 17.8857 17.91 19.4L13.83 22.58C13.4782 22.853 13.0453 23.0008 12.6 23H11.4C10.9547 23.0008 10.5218 22.853 10.17 22.58L6.09 19.4C4.14207 17.8857 3.00185 15.5573 3 13.09V7.24C3.0007 6.44462 3.31723 5.68207 3.88 5.12L7.41 1.59C7.7858 1.21196 8.29696 0.999578 8.83 1H15.17C15.703 0.999578 16.2142 1.21196 16.59 1.59L20.12 5.12ZM15.2415 13.21C15.2415 13.0774 15.1867 12.9507 15.09 12.86L13.24 11L15.09 9.14C15.1867 9.04927 15.2415 8.92259 15.2415 8.79C15.2415 8.65741 15.1867 8.53073 15.09 8.44L14.56 7.91C14.4693 7.81332 14.3426 7.75848 14.21 7.75848C14.0774 7.75848 13.9507 7.81332 13.86 7.91L12 9.76L10.14 7.91C10.0493 7.81332 9.92259 7.75848 9.79 7.75848C9.65741 7.75848 9.53073 7.81332 9.44 7.91L8.91 8.44C8.81332 8.53073 8.75848 8.65741 8.75848 8.79C8.75848 8.92259 8.81332 9.04927 8.91 9.14L10.76 11L8.91 12.86C8.81332 12.9507 8.75848 13.0774 8.75848 13.21C8.75848 13.3426 8.81332 13.4693 8.91 13.56L9.44 14.09C9.53073 14.1867 9.65741 14.2415 9.79 14.2415C9.92259 14.2415 10.0493 14.1867 10.14 14.09L12 12.24L13.86 14.09C13.9507 14.1867 14.0774 14.2415 14.21 14.2415C14.3426 14.2415 14.4693 14.1867 14.56 14.09L15.09 13.56C15.1867 13.4693 15.2415 13.3426 15.2415 13.21Z" fill="currentColor" fill-rule="evenodd" clip-rule="evenodd" />
</svg>
