<svg xmlns="http://www.w3.org/2000/svg" viewBox="0 0 24 24">
    <path d="M19.0711 4.92893C22.9763 8.83417 22.9763 15.1658 19.0711 19.0711C15.1658 22.9763 8.83421 22.9763 4.92893 19.0711C1.02369 15.1658 1.02369 8.83421 4.92893 4.92893C8.83417 1.02369 15.1658 1.02369 19.0711 4.92893Z" fill="#F0F0F0" />
    <path d="M18.9982 4.85719C17.1945 3.09 14.7251 2 12.0006 2C11.131 2 8.58676 3.09 6.7832 4.85719H18.9982Z" fill="#6DA544" />
    <path d="M12.0007 10.5715H21.8987C21.7544 9.56272 21.4597 8.60256 21.0378 7.71436H11.5659L12.0007 10.5715Z" fill="#6DA544" />
    <path d="M2.96344 16.2859H21.0376C21.4595 15.3977 21.7542 14.4375 21.8985 13.4287H2.10254C2.24687 14.4375 2.54145 15.3978 2.96344 16.2859Z" fill="#6DA544" />
    <path d="M5.00293 19.1426C6.80656 20.9098 9.27602 21.9998 12.0005 21.9998C14.725 21.9998 17.1945 20.9098 18.9981 19.1426H5.00293Z" fill="#6DA544" />
    <path d="M12.0005 2C6.96277 2 2.79582 5.72543 2.10254 10.5714H12.0005V2Z" fill="#D80027" />
    <path d="M7.00068 9.66672L6.56592 8.79719V7.05805L7.65287 6.18848L8.73982 7.05805V8.36238L9.17459 7.92762V8.79719L8.30502 9.66672H7.00068Z" fill="#F0F0F0" />
    <path d="M4.66193 7L4.77705 7.3543H5.14955L4.84818 7.57332L4.96334 7.92758L4.66193 7.70859L4.36053 7.92758L4.47568 7.57332L4.17432 7.3543H4.54682L4.66193 7Z" fill="#F0F0F0" />
    <path d="M5.53156 6.13037L5.64668 6.48467H6.01922L5.71781 6.70369L5.83293 7.05795L5.53156 6.839L5.2302 7.05795L5.34535 6.70369L5.04395 6.48467H5.41641L5.53156 6.13037Z" fill="#F0F0F0" />
    <path d="M6.40119 5.26074L6.51631 5.61504H6.88877L6.58744 5.83406L6.70252 6.18832L6.40119 5.96938L6.09979 6.18832L6.2149 5.83406L5.91357 5.61504H6.28604L6.40119 5.26074Z" fill="#F0F0F0" />
    <path d="M10.6433 7L10.5282 7.3543H10.1558L10.4571 7.57332L10.342 7.92758L10.6433 7.70859L10.9447 7.92758L10.8296 7.57332L11.131 7.3543H10.7585L10.6433 7Z" fill="#F0F0F0" />
    <path d="M9.77371 6.13037L9.65859 6.48467H9.28613L9.58746 6.70369L9.47234 7.05795L9.77371 6.839L10.0751 7.05795L9.95996 6.70369L10.2613 6.48467H9.88887L9.77371 6.13037Z" fill="#F0F0F0" />
    <path d="M8.90412 5.26074L8.78896 5.61504H8.4165L8.71783 5.83406L8.60271 6.18832L8.90412 5.96938L9.20549 6.18832L9.09037 5.83406L9.3917 5.61504H9.01924L8.90412 5.26074Z" fill="#F0F0F0" />
    <path d="M7.65266 4.82617L7.5375 5.18047H7.16504L7.46637 5.39945L7.35125 5.75371L7.65266 5.53477L7.95402 5.75371L7.83891 5.39945L8.14023 5.18047H7.76777L7.65266 4.82617Z" fill="#F0F0F0" />
</svg>
