<svg xmlns="http://www.w3.org/2000/svg" viewBox="0 0 24 24">
    <path d="M16.3479 2.99227C15.0332 2.35656 13.5583 2 12.0001 2C10.4419 2 8.96697 2.35656 7.65229 2.99227L6.78271 12L7.65229 21.0077C8.96697 21.6434 10.4419 22 12.0001 22C13.5583 22 15.0332 21.6434 16.3479 21.0077L17.2175 12L16.3479 2.99227Z" fill="#D80027" />
    <path d="M7.65219 2.99268C4.30727 4.61014 2 8.03549 2 12.0001C2 15.9646 4.30727 19.39 7.65219 21.0074V2.99268Z" fill="black" />
    <path d="M16.3477 2.99268V21.0074C19.6926 19.39 21.9998 15.9646 21.9998 12.0001C21.9998 8.03549 19.6926 4.61014 16.3477 2.99268Z" fill="#496E2D" />
    <path d="M12.0002 8.52197C10.0792 8.52197 8.52197 10.0792 8.52197 12.0002C8.52197 13.9212 10.0792 15.4785 12.0002 15.4785C13.9212 15.4785 15.4785 13.9212 15.4785 12.0002C15.4785 10.0792 13.9212 8.52197 12.0002 8.52197ZM12.0002 14.1741C10.7996 14.1741 9.82631 13.2008 9.82631 12.0002C9.82631 10.7996 10.7996 9.82631 12.0002 9.82631C13.2008 9.82631 14.1741 10.7996 14.1741 12.0002C14.1741 13.2008 13.2008 14.1741 12.0002 14.1741Z" fill="#FFDA44" />
    <path d="M11.9999 10.6958C11.5197 10.6958 11.1304 11.0851 11.1304 11.5654V12.8697H12.8695V11.5654C12.8695 11.0851 12.4802 10.6958 11.9999 10.6958Z" fill="#FFDA44" />
</svg>
