<svg xmlns="http://www.w3.org/2000/svg" viewBox="0 0 24 24">
    <path d="M21.6555 14.6087C21.8797 13.777 22 12.9027 22 12C22 11.0974 21.8797 10.2231 21.6555 9.39133L11.1304 2.03809C9.17648 2.20645 7.3834 2.93652 5.91305 4.06625L2.34449 9.39133C2.12031 10.2231 2 11.0974 2 12C2 12.8974 2.11887 13.7669 2.34055 14.5943L5.91301 19.9338C7.38336 21.0636 9.17645 21.7937 11.1304 21.962L21.6555 14.6087Z" fill="#FFDA44" />
    <path d="M2.34473 14.6089C2.92332 16.7557 4.19852 18.6164 5.91328 19.934V14.6089H2.34473Z" fill="#0052B4" />
    <path d="M11.1304 21.9621C11.417 21.9868 11.7069 22.0002 11.9999 22.0002C16.6202 22.0002 20.5079 18.8665 21.6554 14.6089H11.1304V21.9621Z" fill="#0052B4" />
    <path d="M21.6554 9.39129C20.5079 5.13363 16.6202 2 11.9999 2C11.7069 2 11.417 2.01336 11.1304 2.03805V9.39129H21.6554Z" fill="#0052B4" />
    <path d="M5.91328 4.06641C4.19852 5.38398 2.92332 7.24465 2.34473 9.39148H5.91328V4.06641Z" fill="#0052B4" />
    <path d="M21.9154 10.6958H9.82613H9.82609V2.23779C8.90195 2.44271 8.02582 2.77486 7.21738 3.216V10.6957H2.08465C2.02898 11.1227 2 11.558 2 12.0001C2 12.4422 2.02898 12.8775 2.08465 13.3044H7.21734H7.21738V20.7842C8.02582 21.2253 8.90195 21.5575 9.82609 21.7624V13.3046V13.3045H21.9154C21.9709 12.8775 22 12.4422 22 12.0001C22 11.558 21.9709 11.1227 21.9154 10.6958Z" fill="#D80027" />
</svg>
