<svg xmlns="http://www.w3.org/2000/svg" viewBox="0 0 24 24">
    <path d="M19.0711 4.92893C22.9763 8.83417 22.9763 15.1658 19.0711 19.0711C15.1658 22.9763 8.83421 22.9763 4.92893 19.0711C1.02369 15.1658 1.02369 8.83421 4.92893 4.92893C8.83417 1.02369 15.1658 1.02369 19.0711 4.92893Z" fill="#D80027" />
    <path d="M17.653 9.42209H14.0309C14.2545 9.18795 14.3921 8.87096 14.3921 8.52162C14.3921 7.80127 13.8081 7.21729 13.0877 7.21729C12.6339 7.21729 12.2344 7.44916 12.0008 7.80076C11.7671 7.44916 11.3676 7.21729 10.9138 7.21729C10.1935 7.21729 9.60949 7.80127 9.60949 8.52162C9.60949 8.87096 9.74711 9.18799 9.9707 9.42209H6.34863C6.34863 10.3826 7.18523 11.1612 8.14566 11.1612H8.0877C8.0877 12.1217 8.86633 12.9004 9.82688 12.9004C9.82688 13.2115 9.90887 13.5031 10.052 13.7556L8.60941 15.1982L9.71621 16.3049L11.2862 14.735C11.3477 14.7575 11.4113 14.7756 11.477 14.7879L10.5283 16.9299L12.0008 18.5216L13.4732 16.9298L12.5245 14.7878C12.5903 14.7755 12.6539 14.7575 12.7154 14.7349L14.2854 16.3049L15.3921 15.1981L13.9495 13.7555C14.0927 13.503 14.1747 13.2113 14.1747 12.9003C15.1352 12.9003 15.9138 12.1217 15.9138 11.1611H15.8559C16.8163 11.1612 17.653 10.3826 17.653 9.42209Z" fill="black" />
</svg>
