<svg xmlns="http://www.w3.org/2000/svg" viewBox="0 0 24 24">
    <path d="M12.0001 2C17.5229 2 22.0001 6.47719 22.0001 12C22.0001 17.5228 17.5229 22 12.0001 22C12.0001 21.5652 10.6958 12 10.6958 12L12.0001 2Z" fill="#F0F0F0" />
    <path d="M12 22C6.47719 22 2 17.5228 2 12C2 6.47719 6.47719 2 12 2" fill="#496E2D" />
    <path d="M14.1488 10.082L13.3283 11.2127L11.9995 10.7818L12.8213 11.9114L12.0009 13.0421L13.3292 12.6096L14.151 13.7393L14.1501 12.3424L15.4785 11.9099L14.1497 11.479L14.1488 10.082Z" fill="#D80027" />
    <path d="M12.8294 14.8259C11.2686 14.8259 10.0033 13.5605 10.0033 11.9998C10.0033 10.439 11.2686 9.17367 12.8294 9.17367C13.316 9.17367 13.7739 9.29672 14.1737 9.51336C13.5465 8.90004 12.6888 8.52148 11.7424 8.52148C9.82139 8.52148 8.26416 10.0788 8.26416 11.9997C8.26416 13.9207 9.82143 15.478 11.7424 15.478C12.6889 15.478 13.5465 15.0994 14.1737 14.4861C13.7739 14.7028 13.316 14.8259 12.8294 14.8259Z" fill="#D80027" />
</svg>
