<svg xmlns="http://www.w3.org/2000/svg" viewBox="0 0 24 24">
    <path d="M19.0711 4.92893C22.9763 8.83417 22.9763 15.1658 19.0711 19.0711C15.1658 22.9763 8.83421 22.9763 4.92893 19.0711C1.02369 15.1658 1.02369 8.83421 4.92893 4.92893C8.83417 1.02369 15.1658 1.02369 19.0711 4.92893Z" fill="#F0F0F0" />
    <path d="M16.8519 3.25437C15.415 2.45562 13.761 2 12.0005 2C6.47807 2 2.00119 6.47648 2.00049 11.9988L8.95701 8.52176L16.8519 3.25437Z" fill="#0052B4" />
    <path d="M2.00049 12.001C2.00119 17.5233 6.47807 21.9998 12.0005 21.9998C13.761 21.9998 15.415 21.5443 16.8519 20.7454L8.95701 15.478L2.00049 12.001H2.00049Z" fill="#0052B4" />
    <path d="M17.6853 3.7726C17.4167 3.5867 17.1383 3.41381 16.8515 3.25439L2.00049 11.9987C2.00049 11.9991 2.00049 11.9995 2.00049 11.9999C2.00049 12.0003 2.00049 12.0007 2.00049 12.001L16.8516 20.7453C17.1384 20.5858 17.4167 20.413 17.6853 20.2271L3.71229 11.9999L17.6853 3.7726Z" fill="#D80027" />
    <path d="M19.3918 11.6271H18.2006C18.5104 11.2553 18.4913 10.702 18.1423 10.3531C18.5119 9.98357 18.5119 9.38432 18.1423 9.01467L18.1201 9.03701C18.4896 8.66744 18.5119 8.04584 18.1423 7.67627L12.7886 13.03C13.1582 13.3997 13.7469 13.3953 14.1165 13.0256L14.2196 12.9315L16.7831 12.6984V13.801H17.6527V12.6194L18.9571 12.5008L19.3918 11.6271Z" fill="#A2001D" />
    <path d="M12.8704 14.1738L12.0005 13.739L12.8704 13.3042H18.5225V14.1738H12.8704Z" fill="#FFDA44" />
</svg>
