<svg xmlns="http://www.w3.org/2000/svg" viewBox="0 0 24 24">
    <path d="M7.65229 21.0077C8.96697 21.6434 10.4419 22 12.0001 22C13.5583 22 15.0332 21.6434 16.3479 21.0077L17.2175 12L16.3479 2.99227C15.0332 2.35656 13.5583 2 12.0001 2C10.4419 2 8.96697 2.35656 7.65229 2.99227L6.78271 12L7.65229 21.0077Z" fill="#FFDA44" />
    <path d="M16.3477 21.0074C19.6926 19.39 21.9998 15.9646 21.9998 12.0001C21.9998 8.03549 19.6926 4.6101 16.3477 2.99268V21.0074Z" fill="#D80027" />
    <path d="M7.65219 21.0074V2.99268C4.30723 4.6101 2 8.03545 2 12.0001C2 15.9647 4.30723 19.39 7.65219 21.0074Z" fill="#0052B4" />
    <path d="M12 15.4782C12 13.8825 12 12 12 12H14.6087V13.3043C14.6087 13.5309 14.1739 14.3612 13.1008 15.0435C12.6943 15.3019 12.2736 15.385 12 15.4782Z" fill="#D80027" />
    <path d="M9.39111 9.39111H11.9998V11.9998H9.39111V9.39111Z" fill="#D80027" />
    <path d="M13.3046 8.52191C13.3046 8.04164 12.9152 7.65234 12.435 7.65234C12.2764 7.65234 12.1282 7.69547 12.0002 7.76961C11.8722 7.69547 11.724 7.65234 11.5654 7.65234C11.0852 7.65234 10.6959 8.04164 10.6959 8.52191H8.52197V12.8697C8.52197 14.4883 9.80736 15.4243 10.8154 15.9096C10.7399 16.0384 10.6959 16.1879 10.6959 16.348C10.6959 16.8283 11.0852 17.2176 11.5654 17.2176C11.724 17.2176 11.8722 17.1745 12.0002 17.1003C12.1282 17.1745 12.2764 17.2176 12.435 17.2176C12.9152 17.2176 13.3046 16.8283 13.3046 16.348C13.3046 16.1879 13.2605 16.0384 13.185 15.9096C14.193 15.4243 15.4785 14.4883 15.4785 12.8697V8.52191H13.3046ZM14.1741 12.8697C14.1741 13.0963 14.1741 13.7858 13.101 14.468C12.6945 14.7265 12.2738 14.8941 12.0002 14.9872C11.7266 14.8941 11.3059 14.7265 10.8994 14.468C9.82631 13.7858 9.82631 13.0963 9.82631 12.8697V9.82625H14.1741V12.8697Z" fill="#FF9811" />
</svg>
