<svg xmlns="http://www.w3.org/2000/svg" viewBox="0 0 24 24">
    <path d="M2 12C2 6.47719 6.47719 2 12 2C17.5228 2 22 6.47719 22 12C21.5652 12 12 13.3043 12 13.3043L2 12Z" fill="#D80027" />
    <path d="M22 12C22 17.5228 17.5228 22 12 22C6.47719 22 2 17.5228 2 12" fill="black" />
    <path d="M10.6289 9.95361L11.4766 10.5688L11.1536 11.5653L12.0007 10.949L12.8485 11.5642L12.5242 10.5681L13.3712 9.95197L12.3238 9.9526L11.9995 8.95654L11.6764 9.95295L10.6289 9.95361Z" fill="#FFDA44" />
    <path d="M14.5 7.66968C13.712 7.21471 12.8504 6.99999 12 7.00147V8.30554C12.6286 8.3044 13.2654 8.463 13.8478 8.79932C15.6126 9.81823 16.2194 12.0829 15.2005 13.8477C14.1816 15.6124 11.917 16.2193 10.1521 15.2004C9.63801 14.9035 9.22297 14.5005 8.91703 14.0354L7.82812 14.7543C8.24207 15.3835 8.80441 15.9283 9.5 16.3299C11.8877 17.7084 14.9516 16.8874 16.3301 14.4998C17.7086 12.1121 16.8877 9.04819 14.5 7.66968Z" fill="#FFDA44" />
    <path d="M9.1168 11.1304C8.77109 11.7624 9.0032 12.555 9.63515 12.9007L13.8714 15.2155C13.5834 15.7421 13.7364 16.3831 14.263 16.6712L15.4073 17.2972C15.9339 17.5853 16.5945 17.3919 16.8826 16.8652L17.5086 15.7209L9.1168 11.1304Z" fill="#FFDA44" />
</svg>
