<svg xmlns="http://www.w3.org/2000/svg" viewBox="0 0 24 24">
    <path d="M22 12C22 17.5228 17.5228 22 12 22C6.47719 22 2 17.5228 2 12C2 12.0024 12 2.00109 12 2C17.5228 2 22 6.47719 22 12Z" fill="#0052B4" />
    <path d="M11.9731 11.9999H11.9999C11.9999 11.9909 11.9999 11.9822 11.9999 11.9731C11.991 11.9821 11.9821 11.991 11.9731 11.9999Z" fill="#F0F0F0" />
    <path d="M12 7.21738C12 5.45781 12 4.30488 12 2H11.9983C6.47621 2.00094 2 6.4777 2 12H7.21738V9.06207L10.1553 12H11.9733C11.9822 11.9911 11.9911 11.9822 12 11.9732C12 11.2995 12 10.6984 12 10.1554L9.06203 7.21738H12Z" fill="#F0F0F0" />
    <path d="M7.05904 3.3042C5.49502 4.19479 4.19475 5.49502 3.3042 7.05904V11.9999H5.91291V5.91299V5.91291H11.9999C11.9999 5.09014 11.9999 4.30631 11.9999 3.3042H7.05904Z" fill="#D80027" />
    <path d="M11.9999 10.7701L8.44697 7.21729H7.21729V7.21736L11.9998 11.9999H11.9999C11.9999 11.9999 11.9999 11.1519 11.9999 10.7701Z" fill="#D80027" />
    <path d="M18.9115 13.4637C19.1991 13.068 19.3912 12.5849 19.3912 11.9998V7.65201C19.0278 7.92498 18.5762 8.08678 18.0868 8.08678C17.3756 8.08678 16.7443 7.74525 16.3477 7.21729C15.951 7.74525 15.3197 8.08678 14.6085 8.08678C14.1191 8.08678 13.6675 7.92494 13.3042 7.65209V11.9998C13.3042 12.5849 13.4963 13.068 13.7838 13.4637H18.9115Z" fill="#F3F3F3" />
    <path d="M18.007 11.1936C18.1454 10.8558 18.2531 10.3622 18.2531 10.1165C18.2531 9.72182 17.7385 9.40186 17.7385 9.40186C17.7385 9.40186 17.2239 9.72182 17.2239 10.1165C17.2239 10.3622 17.3316 10.8559 17.4699 11.1936L17.1729 11.8643C17.3475 11.9353 17.5383 11.9748 17.7385 11.9748C17.9387 11.9748 18.1295 11.9353 18.3042 11.8643L18.007 11.1936Z" fill="#FF9811" />
    <path d="M15.996 9.02133C15.6344 9.07031 15.153 9.22402 14.9403 9.34684C14.5985 9.54422 14.5786 10.1498 14.5786 10.1498C14.5786 10.1498 15.1131 10.4355 15.4549 10.2381C15.6677 10.1153 16.0413 9.77527 16.2644 9.48652L16.994 9.4084C16.9681 9.22176 16.9067 9.03672 16.8068 8.8634C16.7066 8.69008 16.5771 8.54445 16.4283 8.42871L15.996 9.02133Z" fill="#FF9811" />
    <path d="M15.1206 11.8494C15.3438 12.1379 15.7175 12.4779 15.9303 12.6008C16.2721 12.7981 16.8065 12.5126 16.8065 12.5126C16.8065 12.5126 16.7866 11.9069 16.4449 11.7095C16.232 11.5867 15.7507 11.4331 15.3891 11.3842L14.9568 10.7915C14.808 10.9072 14.6785 11.0529 14.5783 11.2261C14.4783 11.3995 14.4171 11.5844 14.3911 11.7712L15.1206 11.8494Z" fill="#FF9811" />
    <path d="M13.6763 13.3047C14.4883 14.6076 16.3477 15.0437 16.3477 15.0437C16.3477 15.0437 18.2071 14.6076 19.0192 13.3047H13.6763Z" fill="#338AF3" />
</svg>
