<svg xmlns="http://www.w3.org/2000/svg" viewBox="0 0 24 24">
    <path d="M2 11.9998C2 12.6848 2.06906 13.3536 2.20027 13.9998L12 14.6085L21.7998 13.9998C21.931 13.3536 22 12.6848 22 11.9998C22 11.3149 21.9309 10.646 21.7998 9.99982L12 9.39111L2.20027 9.99982C2.06906 10.646 2 11.3149 2 11.9998H2Z" fill="#0052B4" />
    <path d="M21.7997 14H2.2002C3.12672 18.5645 7.16207 22 11.9999 22C16.8378 22 20.8731 18.5645 21.7997 14Z" fill="#F0F0F0" />
    <path d="M2.2002 10H21.7997C20.8731 5.43555 16.8379 2 11.9999 2C7.16199 2 3.12672 5.43555 2.2002 10Z" fill="black" />
    <path d="M16.348 9.99982H7.65234L9.42891 9.16412L8.48285 7.44361L10.412 7.81256L10.6565 5.86377L12.0002 7.29713L13.3439 5.86377L13.5883 7.81256L15.5175 7.44361L14.5715 9.1642L16.348 9.99982Z" fill="#FFDA44" />
    <path d="M2 11.9999C2 17.5227 6.47719 21.9999 12 21.9999L3.99984 5.99951C2.74422 7.67096 2 9.74842 2 11.9999Z" fill="#A2001D" />
    <path d="M12 21.9999C17.5228 21.9999 22 17.5227 22 11.9999C22 9.74842 21.2558 7.67096 20.0002 5.99951L12 21.9999Z" fill="#A2001D" />
</svg>
