<svg xmlns="http://www.w3.org/2000/svg" viewBox="0 0 24 24">
    <path d="M19.0711 4.92893C22.9763 8.83417 22.9763 15.1658 19.0711 19.0711C15.1658 22.9763 8.83421 22.9763 4.92893 19.0711C1.02369 15.1658 1.02369 8.83421 4.92893 4.92893C8.83417 1.02369 15.1658 1.02369 19.0711 4.92893Z" fill="#F0F0F0" />
    <path d="M12.0004 2C8.0358 2 4.61018 4.30723 2.99268 7.65219H21.0081C19.3906 4.30723 15.965 2 12.0004 2Z" fill="#338AF3" />
    <path d="M12.0004 21.9998C15.965 21.9998 19.3906 19.6926 21.0081 16.3477H2.99268C4.61018 19.6926 8.0358 21.9998 12.0004 21.9998Z" fill="#338AF3" />
    <path d="M14.9895 12.0005L13.7682 12.575L14.4185 13.7577L13.0923 13.504L12.9243 14.8437L12.0006 13.8584L11.0768 14.8437L10.9088 13.504L9.58266 13.7577L10.233 12.5749L9.01172 12.0005L10.233 11.426L9.58266 10.2432L10.9088 10.4969L11.0769 9.15723L12.0006 10.1425L12.9243 9.15723L13.0923 10.4969L14.4186 10.2432L13.7682 11.426L14.9895 12.0005Z" fill="#FFDA44" />
</svg>
