<svg xmlns="http://www.w3.org/2000/svg" viewBox="0 0 24 24">
    <path d="M22 12C22 10.7768 21.78 9.605 21.378 8.52172L12 8.08691L2.62199 8.52168C2.22004 9.605 2 10.7768 2 12C2 13.2232 2.22004 14.3949 2.62199 15.4782L12 15.913L21.378 15.4782C21.78 14.3949 22 13.2232 22 12Z" fill="#0052B4" />
    <path d="M12.0001 22.0003C16.2997 22.0003 19.9652 19.2865 21.3781 15.4785H2.62207C4.035 19.2865 7.70043 22.0003 12.0001 22.0003Z" fill="#FF9811" />
    <path d="M2.62207 8.52176H21.3781C19.9652 4.71375 16.2997 2 12.0001 2C7.70043 2 4.035 4.71375 2.62207 8.52176Z" fill="#D80027" />
</svg>
