<svg xmlns="http://www.w3.org/2000/svg" viewBox="0 0 24 24">
    <path d="M19.0711 4.92893C22.9763 8.83417 22.9763 15.1658 19.0711 19.0711C15.1658 22.9763 8.83421 22.9763 4.92893 19.0711C1.02369 15.1658 1.02369 8.83421 4.92893 4.92893C8.83417 1.02369 15.1658 1.02369 19.0711 4.92893Z" fill="#FFDA44" />
    <path d="M12.0004 21.9997C15.0313 21.9997 17.7471 20.6511 19.5809 18.5215H4.41992C6.25379 20.6511 8.96953 21.9997 12.0004 21.9997Z" fill="#338AF3" />
    <path d="M22.0005 12C22.0005 6.47719 17.5233 2 12.0005 2C6.47768 2 2.00049 6.47719 2.00049 12C2.00049 12.9026 2.1208 13.7769 2.34498 14.6087H21.656C21.8802 13.7769 22.0005 12.9026 22.0005 12Z" fill="#338AF3" />
    <path d="M2.79541 15.9131C2.98818 16.3661 3.21354 16.8017 3.46826 17.2174H20.5328C20.7875 16.8016 21.0129 16.366 21.2057 15.9131H2.79541Z" fill="#338AF3" />
    <path d="M6.58314 8.30715L4.62939 7.44488L6.58314 6.58262L7.44537 4.62891L8.3076 6.58262L10.2613 7.44488L8.3076 8.30715L7.44537 10.2609L6.58314 8.30715Z" fill="#F0F0F0" />
    <path d="M7.44568 5.70605L7.97814 6.91266L9.18479 7.4452L7.97814 7.9777L7.44568 9.1843L6.91314 7.9777L5.70654 7.4452L6.91314 6.91266L7.44568 5.70605Z" fill="#D80027" />
</svg>
