<svg xmlns="http://www.w3.org/2000/svg" viewBox="0 0 24 24">
    <path d="M22 12C22 17.5228 17.5228 22 12 22C6.47719 22 2 17.5228 2 12C2 12.0023 12 2.00113 12 2C17.5228 2 22 6.47719 22 12Z" fill="#0052B4" />
    <path d="M11.9731 12.0004H11.9999C11.9999 11.9913 11.9999 11.9827 11.9999 11.9736C11.991 11.9826 11.9821 11.9915 11.9731 12.0004Z" fill="#F0F0F0" />
    <path d="M12 7.21836C12 5.45879 12 4.30578 12 2.00098H11.9983C6.47625 2.00188 2 6.47863 2 12.0009H7.21738V9.06297L10.1554 12.0009H11.9733C11.9822 11.992 11.9911 11.9831 12 11.9742C12 11.3005 12 10.6993 12 10.1564L9.06203 7.21836H12Z" fill="#F0F0F0" />
    <path d="M7.05904 3.30469C5.49502 4.19527 4.19479 5.49551 3.3042 7.05953V12.0004H5.91291V5.91344V5.9134H11.9999C11.9999 5.09063 11.9999 4.3068 11.9999 3.30469H7.05904Z" fill="#D80027" />
    <path d="M11.9999 10.7706L8.44701 7.21779H7.21729C7.21729 7.21775 7.21729 7.21779 7.21729 7.21779L11.9998 12.0003H11.9999C11.9999 12.0003 11.9999 11.1525 11.9999 10.7706Z" fill="#D80027" />
    <path d="M8.03107 13.7393L8.5799 14.8868L9.81924 14.6004L9.26424 15.745L10.2609 16.5354L9.01998 16.815L9.02346 18.0871L8.03107 17.2912L7.03873 18.0871L7.04221 16.815L5.80127 16.5354L6.79795 15.745L6.24287 14.6004L7.48229 14.8868L8.03107 13.7393Z" fill="#F0F0F0" />
    <path d="M16.9718 15.9131L17.2462 16.4869L17.8659 16.3436L17.5884 16.9159L18.0867 17.3111L17.4663 17.451L17.468 18.087L16.9718 17.6891L16.4756 18.087L16.4774 17.451L15.8569 17.3111L16.3553 16.9159L16.0778 16.3436L16.6974 16.4869L16.9718 15.9131Z" fill="#F0F0F0" />
    <path d="M14.4191 9.82617L14.6935 10.4L15.3132 10.2567L15.0357 10.829L15.534 11.2242L14.9136 11.3641L14.9153 12.0001L14.4191 11.6021L13.9229 12.0001L13.9246 11.3641L13.3042 11.2242L13.8025 10.829L13.525 10.2567L14.1447 10.4L14.4191 9.82617Z" fill="#F0F0F0" />
    <path d="M16.9718 6.34766L17.2462 6.92148L17.8659 6.77824L17.5884 7.35055L18.0867 7.7457L17.4663 7.88559L17.468 8.5216L16.9718 8.12367L16.4756 8.5216L16.4774 7.88559L15.8569 7.7457L16.3552 7.35055L16.0778 6.77824L16.6974 6.92148L16.9718 6.34766Z" fill="#F0F0F0" />
    <path d="M19.2018 8.95605L19.4762 9.52988L20.0959 9.3866L19.8184 9.95891L20.3167 10.3541L19.6963 10.494L19.698 11.13L19.2018 10.7321L18.7057 11.13L18.7073 10.494L18.0869 10.3541L18.5852 9.95891L18.3077 9.3866L18.9274 9.52988L19.2018 8.95605Z" fill="#F0F0F0" />
    <path d="M17.6072 12L17.823 12.6643H18.5215L17.9564 13.0749L18.1723 13.7391L17.6072 13.3286L17.0421 13.7391L17.2579 13.0749L16.6929 12.6643H17.3913L17.6072 12Z" fill="#F0F0F0" />
</svg>
