<svg xmlns="http://www.w3.org/2000/svg" viewBox="0 0 24 24">
    <path d="M22 12C22 10.7768 21.78 9.605 21.378 8.52172L12 8.08691L2.62199 8.52168C2.22004 9.605 2 10.7768 2 12C2 13.2232 2.22004 14.3949 2.62199 15.4782L12 15.913L21.378 15.4782C21.78 14.3949 22 13.2232 22 12Z" fill="#D80027" />
    <path d="M12.0001 22.0003C16.2997 22.0003 19.9652 19.2865 21.3781 15.4785H2.62207C4.035 19.2865 7.70043 22.0003 12.0001 22.0003Z" fill="#6DA544" />
    <path d="M2.62207 8.52176H21.3781C19.9652 4.71375 16.2997 2 12.0001 2C7.70043 2 4.035 4.71375 2.62207 8.52176Z" fill="#338AF3" />
    <path d="M12.2175 14.8259C10.6568 14.8259 9.39145 13.5605 9.39145 11.9998C9.39145 10.439 10.6568 9.17367 12.2175 9.17367C12.7042 9.17367 13.1621 9.29672 13.5619 9.51336C12.9347 8.90004 12.077 8.52148 11.1306 8.52148C9.20957 8.52148 7.65234 10.0788 7.65234 11.9997C7.65234 13.9207 9.20961 15.478 11.1306 15.478C12.0771 15.478 12.9347 15.0994 13.5619 14.4861C13.1621 14.7028 12.7042 14.8259 12.2175 14.8259Z" fill="#F0F0F0" />
    <path d="M14.3911 10.0439L14.7654 11.0967L15.7746 10.617L15.2948 11.6261L16.3476 12.0005L15.2948 12.3748L15.7746 13.384L14.7654 12.9042L14.3911 13.957L14.0168 12.9042L13.0076 13.384L13.4874 12.3748L12.4346 12.0005L13.4874 11.6261L13.0076 10.617L14.0168 11.0967L14.3911 10.0439Z" fill="#F0F0F0" />
</svg>
