<svg xmlns="http://www.w3.org/2000/svg" viewBox="0 0 24 24">
    <path d="M19.0711 4.92893C22.9763 8.83417 22.9763 15.1658 19.0711 19.0711C15.1658 22.9763 8.83421 22.9763 4.92893 19.0711C1.02369 15.1658 1.02369 8.83421 4.92893 4.92893C8.83417 1.02369 15.1658 1.02369 19.0711 4.92893Z" fill="#F0F0F0" />
    <path d="M2.00049 11.9999C2.00049 15.7904 4.10947 19.088 7.21787 20.784V3.21582C4.10947 4.91184 2.00049 8.20949 2.00049 11.9999Z" fill="#D80027" />
    <path d="M2.00049 12.0002C2.00049 16.6205 5.13412 20.5082 9.39178 21.6557V2.34473C5.13412 3.49223 2.00049 7.37996 2.00049 12.0002Z" fill="#0052B4" />
    <path d="M5.5874 5.47852V7.10895C5.5874 7.91937 6.24436 8.57633 7.05479 8.57633C7.86522 8.57633 8.52217 7.91937 8.52217 7.10895V5.47852H5.5874Z" fill="#D80027" />
    <path d="M7.05484 7.70633C6.7252 7.70633 6.45703 7.43816 6.45703 7.10852V6.34766H7.6527V7.10852C7.6527 7.43816 7.38449 7.70633 7.05484 7.70633Z" fill="#F0F0F0" />
    <path d="M12.8701 12.435H10.2614C10.2614 11.9548 9.87209 11.5654 9.39186 11.5654C8.91162 11.5654 8.52228 11.9548 8.52228 12.435H5.91357C5.91357 12.9153 6.33189 13.3046 6.81209 13.3046H6.78314C6.78314 13.7848 7.1724 14.1741 7.65272 14.1741C7.65272 14.6544 8.04197 15.0437 8.52228 15.0437H10.2614C10.7417 15.0437 11.131 14.6544 11.131 14.1741C11.6112 14.1741 12.0006 13.7848 12.0006 13.3046H11.9716C12.4518 13.3046 12.8701 12.9153 12.8701 12.435Z" fill="#FFDA44" />
    <path d="M13.2277 11.0437L12.9994 11.4092L13.2763 11.7392L12.8582 11.6351L12.6299 12.0004L12.5998 11.5705L12.1816 11.4663L12.5813 11.3049L12.5512 10.875L12.8282 11.2052L13.2277 11.0437Z" fill="#FFDA44" />
    <path d="M11.8955 9.92578L11.806 10.3473L12.1792 10.5627L11.7506 10.608L11.661 11.0294L11.4857 10.6357L11.0571 10.6807L11.3774 10.3923L11.2022 9.99875L11.5753 10.2142L11.8955 9.92578Z" fill="#FFDA44" />
    <path d="M10.2614 9.33105L10.3214 9.75781L10.7457 9.83262L10.3585 10.0215L10.4184 10.4483L10.1191 10.1383L9.7318 10.3272L9.9341 9.94668L9.63477 9.63676L10.0592 9.71152L10.2614 9.33105Z" fill="#FFDA44" />
    <path d="M8.52238 9.33105L8.72473 9.71152L9.14906 9.63672L8.84973 9.94676L9.05203 10.3272L8.66477 10.1383L8.36539 10.4482L8.42539 10.0215L8.03809 9.83266L8.46242 9.75781L8.52238 9.33105Z" fill="#FFDA44" />
    <path d="M6.88853 9.92578L7.20877 10.2142L7.58189 9.99875L7.40674 10.3925L7.72686 10.6807L7.29838 10.6357L7.12303 11.0294L7.03357 10.6079L6.60498 10.5629L6.97811 10.3473L6.88853 9.92578Z" fill="#FFDA44" />
    <path d="M5.55637 11.0436L5.95602 11.2051L6.23285 10.875L6.20293 11.305L6.60242 11.4664L6.18426 11.5705L6.1541 12.0004L5.92594 11.635L5.50781 11.7392L5.7848 11.4091L5.55637 11.0436Z" fill="#FFDA44" />
</svg>
