<svg xmlns="http://www.w3.org/2000/svg" viewBox="0 0 24 24">
    <path d="M19.0711 4.92893C22.9763 8.83417 22.9763 15.1658 19.0711 19.0711C15.1658 22.9763 8.83421 22.9763 4.92893 19.0711C1.02369 15.1658 1.02369 8.83421 4.92893 4.92893C8.83417 1.02369 15.1658 1.02369 19.0711 4.92893Z" fill="#FFDA44" />
    <path d="M8.08738 8.52176H21.3784C19.9655 4.71375 16.3 2 12.0004 2C9.23895 2 6.73922 3.11949 4.92969 4.92926L8.08738 8.52176Z" fill="#338AF3" />
    <path d="M8.08738 15.4785H21.3784C19.9655 19.2865 16.3 22.0003 12.0004 22.0003C9.23895 22.0003 6.73922 20.8808 4.92969 19.071L8.08738 15.4785Z" fill="#338AF3" />
    <path d="M4.92941 4.92871C1.02418 8.83395 1.02418 15.1656 4.92941 19.0709C6.5432 17.4571 8.09527 15.905 12.0005 11.9998L4.92941 4.92871Z" fill="black" />
</svg>
