<svg xmlns="http://www.w3.org/2000/svg" viewBox="0 0 24 24">
    <path d="M19.0711 4.92893C22.9763 8.83417 22.9763 15.1658 19.0711 19.0711C15.1658 22.9763 8.83421 22.9763 4.92893 19.0711C1.02369 15.1658 1.02369 8.83421 4.92893 4.92893C8.83417 1.02369 15.1658 1.02369 19.0711 4.92893Z" fill="#F0F0F0" />
    <path d="M12.0005 2C9.99365 2 8.12521 2.5916 6.55912 3.6093L9.13096 5.33309L5.91357 6.99973L9.13096 8.66637L5.91357 10.333L9.13096 11.9995L5.91357 13.6661L9.13096 15.3327L5.91357 16.9995L9.13096 18.6661L6.55881 20.3904C8.12498 21.4083 9.99353 22 12.0005 22C17.5233 22 22.0005 17.5228 22.0005 12C22.0005 6.47719 17.5233 2 12.0005 2V2Z" fill="#D80027" />
</svg>
