<svg xmlns="http://www.w3.org/2000/svg" viewBox="0 0 24 24">
    <path d="M12.001 2C17.5238 2 22.0009 6.47718 22.0009 12C22.0009 17.5228 17.5238 21.9999 12.001 21.9999C6.47815 21.9999 2.00098 17.5228 2.00098 12" fill="#FFDA44" />
    <path d="M11.7827 6.4439H20.3157C19.7538 5.60457 19.0681 4.85535 18.2849 4.22168H11.7827V6.4439Z" fill="#D80027" />
    <path d="M11.7827 10.8882H21.9384C21.8531 10.1177 21.6804 9.37363 21.4303 8.66602H11.7827V10.8882Z" fill="#D80027" />
    <path d="M2.57006 15.3326H21.4304C21.6805 14.625 21.8532 13.8809 21.9384 13.1104H2.06201C2.14717 13.8809 2.3199 14.625 2.57006 15.3326Z" fill="#D80027" />
    <path d="M5.71523 19.7769H18.2849C19.068 19.1433 19.7537 18.394 20.3156 17.5547H3.68457C4.24644 18.394 4.93207 19.1432 5.71523 19.7769Z" fill="#D80027" />
    <path d="M12 2C6.47718 2 1.99996 6.47718 2 12.0001C4.28226 12 6.47718 12.0001 12 12.0001L12 2Z" fill="#4A1F63" />
    <path d="M10.2608 7.21625V8.08582H9.82604V7.21625H8.95647V8.08582H8.52171V6.34668H6.78257V8.08582H6.34777V7.21625H5.47824V8.08582H5.04344V7.21625H4.17383V9.82491H11.1304V7.21625H10.2608Z" fill="#F0F0F0" />
</svg>
