<svg xmlns="http://www.w3.org/2000/svg" viewBox="0 0 24 24">
    <path d="M16.3479 2.99227C15.0332 2.35656 13.5583 2 12.0001 2C10.4419 2 8.96697 2.35656 7.65229 2.99227L6.78271 12L7.65229 21.0077C8.96697 21.6434 10.4419 22 12.0001 22C13.5583 22 15.0332 21.6434 16.3479 21.0077L17.2175 12L16.3479 2.99227Z" fill="#FFDA44" />
    <path d="M7.65219 2.99219C4.30727 4.60961 2 8.03496 2 11.9996C2 15.9642 4.30727 19.3895 7.65219 21.007V2.99219Z" fill="#0052B4" />
    <path d="M16.3477 2.99219V21.007C19.6926 19.3895 21.9998 15.9641 21.9998 11.9996C21.9998 8.035 19.6926 4.60961 16.3477 2.99219Z" fill="#0052B4" />
    <path d="M15.0433 8.08734L15.6266 8.37898L15.0433 8.08734L14.46 7.7957C14.4248 7.86605 13.6631 9.41578 13.5387 11.783H12.652V8.08734L11.9998 7.21777L11.3477 8.08734V11.783H10.461C10.3365 9.41578 9.57488 7.86605 9.53969 7.7957L8.37305 8.37902C8.38109 8.39504 9.17379 10.0085 9.17379 12.4352V13.0874H11.3477V16.783H12.652V13.0874H14.8259V12.4352C14.8259 11.1805 15.043 10.146 15.2252 9.49906C15.4237 8.79359 15.6254 8.3816 15.6274 8.3775L15.0433 8.08734Z" fill="black" />
</svg>
