<svg xmlns="http://www.w3.org/2000/svg" viewBox="0 0 24 24">
    <path d="M19.0711 4.92893C22.9763 8.83417 22.9763 15.1658 19.0711 19.0711C15.1658 22.9763 8.83421 22.9763 4.92893 19.0711C1.02369 15.1658 1.02369 8.83421 4.92893 4.92893C8.83417 1.02369 15.1658 1.02369 19.0711 4.92893Z" fill="#F0F0F0" />
    <path d="M2.08545 13.3047C2.31811 15.0904 3.02209 16.7277 4.06807 18.0884L9.39205 13.3047H2.08545Z" fill="#D80027" />
    <path d="M10.6963 21.916V14.6094L5.9126 19.9334C7.27342 20.9794 8.91068 21.6834 10.6963 21.916Z" fill="#D80027" />
    <path d="M10.6963 2.08398C8.91068 2.31664 7.27342 3.02062 5.9126 4.0666L10.6963 9.39066V2.08398Z" fill="#D80027" />
    <path d="M2.08545 10.6959H9.39205L4.06803 5.91211C3.02205 7.27289 2.31807 8.9102 2.08545 10.6959Z" fill="#D80027" />
    <path d="M13.3052 2.08398V9.39062L18.089 4.0666C16.7282 3.0207 15.0909 2.3166 13.3052 2.08398Z" fill="#D80027" />
    <path d="M21.916 10.6959C21.6834 8.91023 20.9794 7.27293 19.9334 5.91211L14.6094 10.6959H21.916Z" fill="#D80027" />
    <path d="M14.6094 13.3047L19.9334 18.0885C20.9794 16.7277 21.6834 15.0904 21.9161 13.3047H14.6094Z" fill="#D80027" />
    <path d="M13.3052 21.916C15.0908 21.6834 16.7282 20.9794 18.089 19.9334L13.3052 14.6094V21.916Z" fill="#D80027" />
    <path d="M19.9339 18.0888L13.8451 12L13.8451 11.9999L19.9339 5.91102C19.6713 5.56977 19.3841 5.24148 19.0715 4.92883C18.7589 4.61625 18.4306 4.32895 18.0893 4.06641L12.0004 10.1553H12.0004L5.91154 4.06641C5.57029 4.32898 5.24197 4.61621 4.92932 4.92883C4.61674 5.24148 4.32943 5.56977 4.06689 5.91105L10.1558 11.9999L10.1558 11.9999L4.06693 18.0888C4.32951 18.43 4.61678 18.7584 4.92936 19.071C5.24197 19.3836 5.57029 19.6709 5.91158 19.9334L12.0004 13.8446L18.0893 19.9334C18.4305 19.6709 18.7588 19.3836 19.0715 19.071C19.3841 18.7584 19.6713 18.43 19.9339 18.0888Z" fill="#496E2D" />
    <path d="M13.3048 21.9154V13.3045V13.3044H21.9158C21.9715 12.8774 22.0005 12.4421 22.0005 12C22.0005 11.558 21.9715 11.1227 21.9158 10.6957H13.3049L13.3049 10.6957V2.08469C12.8779 2.0291 12.4426 2 12.0005 2C11.5584 2.00004 11.1231 2.0291 10.6962 2.08469L10.6962 10.6956V10.6957H2.08518C2.02955 11.1226 2.00049 11.5579 2.00049 12C2.00053 12.4421 2.02955 12.8774 2.08518 13.3043H10.6961L10.6962 21.9154C11.1231 21.9709 11.5583 22 12.0005 22C12.4426 22 12.8779 21.9709 13.3048 21.9154Z" fill="#F0F0F0" />
</svg>
