<svg xmlns="http://www.w3.org/2000/svg" viewBox="0 0 24 24">
    <path d="M19.0711 4.92893C22.9763 8.83417 22.9763 15.1658 19.0711 19.0711C15.1658 22.9763 8.83421 22.9763 4.92893 19.0711C1.02369 15.1658 1.02369 8.83421 4.92893 4.92893C8.83417 1.02369 15.1658 1.02369 19.0711 4.92893Z" fill="#FCFCFC" />
    <path d="M6.1309 11.2754L5.04395 9.30336L6.1309 7.3623L7.21785 9.30336L6.1309 11.2754Z" fill="#A2001D" />
    <path d="M3.95707 11.2754L2.87012 9.30336L3.95707 7.3623L5.04402 9.30336L3.95707 11.2754Z" fill="#A2001D" />
    <path d="M6.1309 16.6377L5.04395 14.6657L6.1309 12.7246L7.21785 14.6657L6.1309 16.6377Z" fill="#A2001D" />
    <path d="M3.95707 16.6377L2.87012 14.6657L3.95707 12.7246L5.04402 14.6657L3.95707 16.6377Z" fill="#A2001D" />
    <path d="M7.21814 3.94113L6.91041 3.3916C6.35846 3.71863 5.84076 4.09727 5.36377 4.52086L6.13119 5.91309L7.21814 3.94113Z" fill="#A2001D" />
    <path d="M6.13102 18.0869L5.35547 19.4719C5.83203 19.8961 6.34938 20.2753 6.90109 20.603L7.21801 20.028L6.13102 18.0869Z" fill="#A2001D" />
    <path d="M8.0874 14.6084V21.2046C9.28932 21.7162 10.6117 21.9997 12.0004 21.9997C16.3001 21.9997 19.9655 19.2859 21.3785 15.4779L8.0874 14.6084Z" fill="#6DA544" />
    <path d="M21.3785 15.4782C21.7804 14.3949 22.0005 13.2232 22.0005 12C22.0005 6.47719 17.5233 2 12.0004 2C10.6118 2 9.28932 2.28332 8.0874 2.79484V15.4783H21.3785V15.4782Z" fill="#A2001D" />
</svg>
