<svg xmlns="http://www.w3.org/2000/svg" viewBox="0 0 24 24">
    <path d="M22 12.0004C22 8.56828 20.2707 5.54043 17.6362 3.73949L12 3.30469L6.36379 3.73945C3.7293 5.54043 2 8.56832 2 12.0004C2 15.4325 3.7293 18.4603 6.36379 20.2612L12 20.696L17.6362 20.2612C20.2707 18.4603 22 15.4325 22 12.0004Z" fill="#0052B4" />
    <path d="M17.6362 3.73914C16.0313 2.64203 14.0908 2 12 2C9.90924 2 7.96865 2.64203 6.36377 3.73914H17.6362Z" fill="#A2001D" />
    <path d="M6.36377 20.2607C7.96861 21.3579 9.90924 21.9999 12 21.9999C14.0908 21.9999 16.0313 21.3579 17.6362 20.2607H6.36377Z" fill="#A2001D" />
    <path d="M15.3817 8.61857C17.2494 10.4863 17.2494 13.5145 15.3817 15.3822C13.514 17.2499 10.4858 17.2499 8.61808 15.3822C6.75035 13.5145 6.75035 10.4863 8.61808 8.61857C10.4858 6.75084 13.514 6.75084 15.3817 8.61857Z" fill="#F0F0F0" />
    <path d="M14.7669 9.23302C16.295 10.7612 16.295 13.2388 14.7669 14.7669C13.2387 16.295 10.7611 16.295 9.23302 14.7669C7.70488 13.2387 7.70488 10.7611 9.23302 9.23302C10.7612 7.70488 13.2388 7.70488 14.7669 9.23302Z" fill="#6DA544" />
    <path d="M13.8445 10.1557C14.8632 11.1744 14.8632 12.8262 13.8445 13.845C12.8257 14.8637 11.174 14.8637 10.1552 13.845C9.13642 12.8262 9.13642 11.1744 10.1552 10.1557C11.174 9.13691 12.8257 9.13691 13.8445 10.1557Z" fill="#F0F0F0" />
    <path d="M12 11.3477L10.5869 11.9998V13.0868L12 13.9564L13.413 13.0868V11.9998L12 11.3477Z" fill="#0052B4" />
    <path d="M10.5869 10.6953H13.413V11.9996H10.5869V10.6953Z" fill="#FFDA44" />
</svg>
