<svg xmlns="http://www.w3.org/2000/svg" viewBox="0 0 24 24">
    <path d="M22 12C22 17.5228 17.5228 22 12 22C6.47719 22 2 17.5228 2 12C2 12.0024 12 2.00109 12 2C17.5228 2 22 6.47719 22 12Z" fill="#D80027" />
    <path d="M12.0002 6.78223V10.155L8.52197 6.78223H12.0002Z" fill="#0052B4" />
    <path d="M7.21748 12H10.1554L7.21748 8.08691L6.78271 11.1304L7.21748 12Z" fill="#0052B4" />
    <path d="M11.9731 12.0004H11.9999C11.9999 11.9914 11.9999 11.9827 11.9999 11.9736C11.991 11.9826 11.9821 11.9915 11.9731 12.0004Z" fill="#F0F0F0" />
    <path d="M12 7.21738C12 5.45781 12 4.30488 12 2H11.9983C6.47621 2.00094 2 6.4777 2 12H7.21738V9.06207L10.1553 12H11.9733C11.9822 11.9911 11.9911 11.9822 12 11.9732C12 11.2995 12 10.6984 12 10.1554L9.06203 7.21738H12Z" fill="#F0F0F0" />
    <path d="M7.05904 3.30469C5.49502 4.19527 4.19475 5.49551 3.3042 7.05953V12.4351H5.91291V5.91348V5.9134H12.4346C12.4346 5.09063 12.4346 4.3068 12.4346 3.30469H7.05904Z" fill="#D80027" />
    <path d="M12.3974 11.1681L8.44697 7.21777H7.21729V7.21785L12.3973 12.3979H12.3974C12.3974 12.3979 12.3974 11.55 12.3974 11.1681Z" fill="#D80027" />
    <path d="M13.3042 7.21777V12.0004C13.3042 14.33 19.3912 14.33 19.3912 12.0004V7.21777H13.3042Z" fill="#F3F3F3" />
    <path d="M13.3042 12V12C13.3042 14.3297 16.3477 15.0435 16.3477 15.0435C16.3477 15.0435 19.3912 14.3297 19.3912 12V12H13.3042Z" fill="#6DA544" />
    <path d="M16.3476 10.0869L14.9346 10.6956V12L16.3476 12.8695L17.7607 12V10.6956L16.3476 10.0869Z" fill="#A2001D" />
    <path d="M14.9346 9.3916H17.7607V10.6959H14.9346V9.3916Z" fill="#338AF3" />
</svg>
