<svg xmlns="http://www.w3.org/2000/svg" viewBox="0 0 24 24">
    <path d="M4.92893 19.0711C1.02369 15.1659 1.02369 8.83421 4.92893 4.92894C8.83416 1.02367 15.1658 1.02371 19.0711 4.92894C19.0711 4.93031 21.7261 13.9155 17.8208 17.8209C13.9156 21.7261 4.93166 19.0738 4.92893 19.0711Z" fill="#FFDA44" />
    <path d="M4.9292 19.0709C8.83443 22.9761 15.1661 22.9761 19.0714 19.0709C22.9767 15.1656 22.9766 8.83398 19.0714 4.92871L4.9292 19.0709Z" fill="#FF9811" />
    <path d="M17.6572 7.65223V5.91309H14.3238L14.0691 6.16773C13.1633 7.07355 13.3156 8.13027 13.4269 8.90184C13.5301 9.61758 13.5424 9.89176 13.2763 10.158C13.0101 10.4241 12.7358 10.4118 12.0202 10.3085C11.2486 10.1973 10.1919 10.0449 9.28611 10.9507C8.38033 11.8565 8.53279 12.9131 8.64412 13.6846C8.74736 14.4003 8.75978 14.6745 8.49369 14.9405C8.22756 15.2066 7.9533 15.1942 7.23779 15.091C6.95881 15.0507 6.67033 15.0091 6.36236 15.0057L6.34326 16.7448C6.536 16.7469 6.75627 16.7786 6.98947 16.8123C7.26557 16.8522 7.57807 16.8973 7.90721 16.8973C8.2483 16.8973 8.60713 16.8486 8.9615 16.6956V18.0871H11.5702V16.7827H10.2659V15.9132H11.1354V14.6088H10.4404C10.4734 14.1869 10.4154 13.7828 10.3654 13.4364C10.2622 12.7207 10.2498 12.4466 10.5159 12.1805C10.7821 11.9144 11.0562 11.9267 11.772 12.0299C12.3342 12.111 13.0478 12.2134 13.7442 11.9128V13.3045H16.3529V12.0001H15.0485V11.1305H15.9181V9.82621H15.2231C15.2562 9.40422 15.1982 9.0002 15.1482 8.65367C15.0762 8.15363 15.0483 7.8691 15.129 7.65227H17.6572V7.65223Z" fill="#F0F0F0" />
</svg>
