<svg xmlns="http://www.w3.org/2000/svg" viewBox="0 0 24 24">
    <path d="M19.0711 4.92893C22.9763 8.83417 22.9763 15.1658 19.0711 19.0711C15.1658 22.9763 8.83421 22.9763 4.92893 19.0711C1.02369 15.1658 1.02369 8.83421 4.92893 4.92893C8.83417 1.02369 15.1658 1.02369 19.0711 4.92893Z" fill="#F0F0F0" />
    <path d="M4.92961 4.9286C2.78644 7.07177 1.81976 9.94575 2.02887 12.7483L12.7493 2.0279C9.94672 1.81876 7.07277 2.78544 4.92961 4.9286Z" fill="#FFDA44" />
    <path d="M5.57129 19.6586C9.50023 22.9642 15.3736 22.7687 19.0717 19.0707C22.7697 15.3727 22.9652 9.49922 19.6596 5.57031L5.57129 19.6586Z" fill="#0052B4" />
    <path d="M11.9649 11.5971L12.8266 11.1304L11.9649 10.6636C11.7637 9.35648 10.7309 8.32371 9.42385 8.12254L8.95701 7.26074L8.49021 8.1225C7.18318 8.32367 6.15045 9.35645 5.9492 10.6635L5.0874 11.1304L5.94916 11.5971C6.15037 12.9042 7.18311 13.937 8.49018 14.1382L8.95701 15L9.42381 14.1382C10.7309 13.937 11.7637 12.9042 11.9649 11.5971ZM8.95705 12.8695C7.99654 12.8695 7.21791 12.0909 7.21791 11.1304C7.21791 10.1698 7.9965 9.39121 8.95705 9.39121C9.9176 9.39121 10.6962 10.1698 10.6962 11.1304C10.6962 12.0909 9.91756 12.8695 8.95705 12.8695Z" fill="black" />
    <path d="M8.95721 9.82617L9.33373 10.4783H10.0868L9.71025 11.1305L10.0868 11.7827H9.33373L8.95721 12.4348L8.58068 11.7827H7.82764L8.20416 11.1305L7.82764 10.4783H8.58068L8.95721 9.82617Z" fill="#D80027" />
</svg>
