<svg xmlns="http://www.w3.org/2000/svg" viewBox="0 0 24 24">
    <path d="M19.0711 4.92893C22.9763 8.83417 22.9763 15.1658 19.0711 19.0711C15.1658 22.9763 8.83421 22.9763 4.92893 19.0711C1.02369 15.1658 1.02369 8.83421 4.92893 4.92893C8.83417 1.02369 15.1658 1.02369 19.0711 4.92893Z" fill="#F0F0F0" />
    <path d="M12.0007 2C8.45502 2 5.34057 3.84543 3.56494 6.62809L17.1258 20.5879C20.0455 18.8417 22.0007 15.6493 22.0007 12C22.0007 6.47719 17.5235 2 12.0007 2Z" fill="#FFDA44" />
    <path d="M22.0008 12.0001C22.0008 9.40551 21.0126 7.04191 19.3921 5.26465V18.7356C21.0126 16.9583 22.0008 14.5947 22.0008 12.0001Z" fill="#0052B4" />
    <path d="M14.4922 20.8233L15.5397 20.8227L15.8628 19.8262L16.1871 20.8223L16.7125 20.822C17.0347 20.6495 17.3463 20.46 17.6461 20.2544L3.74615 6.35449C3.51709 6.68871 3.30818 7.03769 3.12033 7.39941L3.24385 7.77879L4.29131 7.77813L3.44428 8.39434L3.76857 9.39039L2.92076 8.77523L2.4151 9.14305C2.14553 10.0484 2.00049 11.0073 2.00049 12.0002C2.00049 17.523 6.47768 22.0002 12.0005 22.0002C13.1681 22.0002 14.2889 21.7997 15.3306 21.4317L14.4922 20.8233ZM4.23092 11.5654L4.55397 10.569L3.70623 9.95375L4.75369 9.95309L5.07678 8.95664L5.40107 9.9527L6.44854 9.95203L5.60146 10.5682L5.92576 11.5643L5.07795 10.9491L4.23092 11.5654ZM6.38814 13.7393L6.71119 12.7429L5.86346 12.1277L6.91092 12.127L7.234 11.1305L7.5583 12.1266L8.60576 12.1259L7.75873 12.7421L8.08303 13.7382L7.23522 13.123L6.38814 13.7393ZM8.54533 15.9132L8.86838 14.9168L8.02064 14.3016L9.06811 14.3009L9.39119 13.3045L9.71549 14.3005L10.7629 14.2998L9.91592 14.9161L10.2402 15.9121L9.3924 15.2969L8.54533 15.9132ZM11.5496 17.4709L10.7025 18.0871L11.0256 17.0907L10.1778 16.4755L11.2253 16.4748L11.5484 15.4784L11.8727 16.4744L12.9202 16.4737L12.0731 17.09L12.3974 18.086L11.5496 17.4709ZM12.8597 20.261L13.1828 19.2646L12.3351 18.6494L13.3825 18.6487L13.7056 17.6523L14.0299 18.6483L15.0774 18.6477L14.2303 19.2639L14.5546 20.2599L13.7068 19.6447L12.8597 20.261Z" fill="#0052B4" />
</svg>
