<svg xmlns="http://www.w3.org/2000/svg" viewBox="0 0 24 24">
    <path d="M2.47219 8.95625C2.16586 9.91598 1.99996 10.9384 2 11.9997C1.99996 13.061 2.16586 14.0834 2.47223 15.0432L12 15.478L21.5277 15.0432C21.834 14.0834 22 13.061 22 11.9998C22 10.9384 21.8341 9.91598 21.5277 8.95625L12 8.52148L2.47219 8.95625Z" fill="#F0F0F0" />
    <path d="M22 11.9999C22 11.4067 21.948 10.8256 21.8489 10.2607H2.15109C2.05195 10.8256 2 11.4066 2 11.9999C2 12.5932 2.05199 13.1742 2.15109 13.739H21.8489C21.948 13.1741 22 12.5931 22 11.9999Z" fill="black" />
    <path d="M11.9999 21.9995C16.4615 21.9995 20.24 19.0775 21.5277 15.043H2.47217C3.75986 19.0775 7.53842 21.9995 11.9999 21.9995Z" fill="#338AF3" />
    <path d="M12 2C7.53846 2 3.75994 4.92199 2.47217 8.95644L21.5276 8.95648C20.24 4.92199 16.4615 1.99992 12 2Z" fill="#338AF3" />
</svg>
