<svg xmlns="http://www.w3.org/2000/svg" viewBox="0 0 24 24">
    <path d="M19.0711 4.92893C22.9763 8.83417 22.9763 15.1658 19.0711 19.0711C15.1658 22.9763 8.83421 22.9763 4.92893 19.0711C1.02369 15.1658 1.02369 8.83421 4.92893 4.92893C8.83417 1.02369 15.1658 1.02369 19.0711 4.92893Z" fill="#6DA544" />
    <path d="M12.0006 5.91309L20.2615 12L12.0006 18.087L3.73975 12L12.0006 5.91309Z" fill="#FFDA44" />
    <path d="M14.4602 9.54024C15.8185 10.8986 15.8185 13.1009 14.4602 14.4592C13.1019 15.8176 10.8996 15.8176 9.54122 14.4592C8.18288 13.1009 8.18288 10.8986 9.54122 9.54024C10.8996 8.1819 13.1019 8.1819 14.4602 9.54024Z" fill="#F0F0F0" />
    <path d="M10.2614 11.7822C9.6566 11.7822 9.07289 11.8742 8.52344 12.0449C8.54777 13.9449 10.0948 15.4779 12.0006 15.4779C13.179 15.4779 14.2198 14.8913 14.849 13.9948C13.7725 12.6472 12.1163 11.7822 10.2614 11.7822Z" fill="#0052B4" />
    <path d="M15.4143 12.6661C15.4562 12.4504 15.4788 12.2277 15.4788 11.9997C15.4788 10.0787 13.9215 8.52148 12.0005 8.52148C10.5672 8.52148 9.3367 9.38871 8.8042 10.6269C9.2749 10.5294 9.76225 10.478 10.2614 10.478C12.2816 10.478 14.1092 11.3177 15.4143 12.6661Z" fill="#0052B4" />
</svg>
