<svg xmlns="http://www.w3.org/2000/svg" viewBox="0 0 24 24">
    <path d="M22 12C22 17.5228 17.5228 22 12 22C6.47719 22 2 17.5228 2 12C2 12.0024 12 2.00109 12 2C17.5228 2 22 6.47719 22 12Z" fill="#0052B4" />
    <path d="M11.9731 12.0004H11.9999C11.9999 11.9914 11.9999 11.9827 11.9999 11.9736C11.991 11.9826 11.9821 11.9915 11.9731 12.0004Z" fill="#F0F0F0" />
    <path d="M12 7.21738C12 5.45781 12 4.30488 12 2H11.9983C6.47621 2.00094 2 6.4777 2 12H7.21738V9.06207L10.1553 12H11.9733C11.9822 11.9911 11.9911 11.9822 12 11.9732C12 11.2995 12 10.6984 12 10.1554L9.06203 7.21738H12Z" fill="#F0F0F0" />
    <path d="M7.05904 3.30469C5.49502 4.19527 4.19475 5.49551 3.3042 7.05953V12.0004H5.91291V5.91348V5.9134H11.9999C11.9999 5.09063 11.9999 4.3068 11.9999 3.30469H7.05904Z" fill="#D80027" />
    <path d="M16.3479 12L13.645 14.7029C14.1516 15.6798 15.1714 16.3478 16.3479 16.3478C17.5243 16.3478 18.5442 15.6798 19.0507 14.7029L16.3479 12Z" fill="#FFDA44" />
    <path d="M11.9999 10.7706L8.44697 7.21777H7.21729V7.21785L11.9998 12.0004H11.9999C11.9999 12.0004 11.9999 11.1524 11.9999 10.7706Z" fill="#D80027" />
    <path d="M13.3042 7.21777V12.0004V12.0004C13.3042 14.33 16.3477 15.0439 16.3477 15.0439C16.3477 15.0439 19.3911 14.33 19.3912 12.0004V12.0004V7.21777H13.3042Z" fill="#6DA544" />
    <path d="M15.6958 9.3916H17.0001V12.8698H15.6958V9.3916Z" fill="#F0F0F0" />
    <path d="M16.8092 8.93028C17.0638 9.18497 17.0638 9.59792 16.8092 9.85261C16.5545 10.1073 16.1415 10.1073 15.8868 9.85261C15.6321 9.59792 15.6321 9.18497 15.8868 8.93028C16.1415 8.67558 16.5545 8.67558 16.8092 8.93028Z" fill="#A2001D" />
    <path d="M14.1738 8.08691H15.0434V8.95648H14.1738V8.08691Z" fill="#FFDA44" />
    <path d="M14.1738 10.0439H15.0434V10.9135H14.1738V10.0439Z" fill="#FFDA44" />
    <path d="M14.1738 12H15.0434V12.8696H14.1738V12Z" fill="#FFDA44" />
    <path d="M17.6523 8.08691H18.5219V8.95648H17.6523V8.08691Z" fill="#FFDA44" />
    <path d="M17.6523 10.0439H18.5219V10.9135H17.6523V10.0439Z" fill="#FFDA44" />
    <path d="M17.6523 12H18.5219V12.8696H17.6523V12Z" fill="#FFDA44" />
</svg>
