<svg xmlns="http://www.w3.org/2000/svg" viewBox="0 0 24 24">
    <path d="M19.0711 4.92893C22.9763 8.83417 22.9763 15.1658 19.0711 19.0711C15.1658 22.9763 8.83421 22.9763 4.92893 19.0711C1.02369 15.1658 1.02369 8.83421 4.92893 4.92893C8.83417 1.02369 15.1658 1.02369 19.0711 4.92893Z" fill="#F0F0F0" />
    <path d="M20.3339 13.1965C19.5005 13.1965 19.5005 12.4346 18.6672 12.4346C17.8339 12.4346 17.8339 13.1965 17.0006 13.1965C16.1673 13.1965 16.1673 12.4346 15.334 12.4346C14.5007 12.4346 14.5007 13.1965 13.6673 13.1965C12.8339 13.1965 12.8339 12.4346 12.0005 12.4346C11.1672 12.4346 11.1672 13.1965 10.3339 13.1965C9.5007 13.1965 9.5007 12.4346 8.66738 12.4346C7.83398 12.4346 7.83398 13.1965 7.00059 13.1965C6.16719 13.1965 6.16719 12.4346 5.33379 12.4346C4.50059 12.4346 4.50059 13.1965 3.66727 13.1965C2.83844 13.1965 2.83363 12.443 2.01367 12.4349C2.03676 12.8923 2.09137 13.3414 2.17395 13.7806C2.83816 13.8781 2.89633 14.5298 3.66734 14.5298C4.50066 14.5298 4.50066 13.7679 5.33387 13.7679C6.16727 13.7679 6.16727 14.5298 7.00066 14.5298C7.83406 14.5298 7.83406 13.7679 8.66746 13.7679C9.50078 13.7679 9.50078 14.5298 10.334 14.5298C11.1673 14.5298 11.1673 13.7679 12.0006 13.7679C12.834 13.7679 12.834 14.5298 13.6674 14.5298C14.5008 14.5298 14.5008 13.7679 15.3341 13.7679C16.1674 13.7679 16.1674 14.5298 17.0007 14.5298C17.834 14.5298 17.834 13.7679 18.6673 13.7679C19.5007 13.7679 19.5007 14.5298 20.3339 14.5298C21.105 14.5298 21.1632 13.8782 21.8274 13.7806C21.91 13.3414 21.9646 12.8923 21.9878 12.4349C21.1676 12.443 21.1627 13.1965 20.3339 13.1965Z" fill="#0052B4" />
    <path d="M18.6674 15.0439C17.8341 15.0439 17.8341 15.8059 17.0008 15.8059C16.1675 15.8059 16.1675 15.0439 15.3342 15.0439C14.5009 15.0439 14.5009 15.8059 13.6675 15.8059C12.8341 15.8059 12.8341 15.0439 12.0007 15.0439C11.1674 15.0439 11.1674 15.8059 10.3341 15.8059C9.5009 15.8059 9.5009 15.0439 8.66758 15.0439C7.83418 15.0439 7.83418 15.8059 7.00078 15.8059C6.16738 15.8059 6.16738 15.0439 5.33398 15.0439C4.50078 15.0439 4.50078 15.8059 3.66746 15.8059C3.05359 15.8059 2.89152 15.3927 2.51562 15.175C2.74328 15.8555 3.0423 16.5031 3.40344 17.1095C3.48164 17.1284 3.56859 17.1392 3.66742 17.1392C4.50074 17.1392 4.50074 16.3773 5.33395 16.3773C6.16734 16.3773 6.16734 17.1392 7.00074 17.1392C7.83414 17.1392 7.83414 16.3773 8.66754 16.3773C9.50086 16.3773 9.50086 17.1392 10.3341 17.1392C11.1674 17.1392 11.1674 16.3773 12.0007 16.3773C12.8341 16.3773 12.8341 17.1392 13.6675 17.1392C14.5009 17.1392 14.5009 16.3773 15.3341 16.3773C16.1675 16.3773 16.1675 17.1392 17.0007 17.1392C17.834 17.1392 17.8341 16.3773 18.6673 16.3773C19.5007 16.3773 19.5007 17.1392 20.334 17.1392C20.4329 17.1392 20.52 17.1284 20.5982 17.1095C20.9594 16.5031 21.2584 15.8555 21.486 15.1751C21.1101 15.3927 20.948 15.8059 20.334 15.8059C19.5008 15.8059 19.5008 15.0439 18.6674 15.0439Z" fill="#0052B4" />
    <path d="M21.7681 9.84934C21.159 9.97578 21.0813 10.5881 20.334 10.5881C19.5006 10.5881 19.5006 9.82617 18.6673 9.82617C17.834 9.82617 17.834 10.5881 17.0007 10.5881C16.1674 10.5881 16.1674 9.82617 15.3341 9.82617C14.5008 9.82617 14.5008 10.5881 13.6674 10.5881C12.834 10.5881 12.834 9.82617 12.0006 9.82617C11.5503 9.82617 11.3433 10.0486 11.1167 10.2531V11.5864C11.3433 11.382 11.5503 11.1596 12.0006 11.1596C12.834 11.1596 12.834 11.9214 13.6674 11.9214C14.5008 11.9214 14.5008 11.1596 15.3341 11.1596C16.1674 11.1596 16.1674 11.9214 17.0007 11.9214C17.834 11.9214 17.834 11.1596 18.6673 11.1596C19.5007 11.1596 19.5007 11.9214 20.334 11.9214C21.105 11.9214 21.1632 11.2698 21.8274 11.1722C21.87 11.1722 21.9176 11.1718 21.9663 11.1712C21.9294 10.7215 21.8626 10.2802 21.7681 9.84934Z" fill="#0052B4" />
    <path d="M21.0376 7.71422C20.8649 7.85926 20.6653 7.97973 20.334 7.97973C19.5006 7.97973 19.5006 7.21777 18.6673 7.21777C17.834 7.21777 17.834 7.97973 17.0007 7.97973C16.1674 7.97973 16.1674 7.21777 15.3341 7.21777C14.5008 7.21777 14.5008 7.97973 13.6674 7.97973C12.834 7.97973 12.834 7.21777 12.0006 7.21777C11.5503 7.21777 11.3433 7.4402 11.1167 7.64473V8.97805C11.3433 8.77355 11.5503 8.55117 12.0006 8.55117C12.834 8.55117 12.834 9.31305 13.6674 9.31305C14.5007 9.31305 14.5007 8.55117 15.334 8.55117C16.1674 8.55117 16.1674 9.31305 17.0006 9.31305C17.8339 9.31305 17.8339 8.55117 18.6672 8.55117C19.5006 8.55117 19.5006 9.31305 20.3339 9.31305C20.9252 9.31305 21.0974 8.93004 21.4451 8.7073C21.3266 8.36758 21.1906 8.03613 21.0376 7.71422Z" fill="#0052B4" />
    <path d="M18.7385 4.61043C18.7154 4.60918 18.6918 4.6084 18.6673 4.6084C17.834 4.6084 17.834 5.37035 17.0007 5.37035C16.1674 5.37035 16.1674 4.6084 15.3341 4.6084C14.5008 4.6084 14.5008 5.37035 13.6674 5.37035C12.834 5.37035 12.834 4.6084 12.0006 4.6084C11.5503 4.6084 11.3433 4.83082 11.1167 5.03535V6.36867C11.3433 6.16418 11.5503 5.9418 12.0006 5.9418C12.834 5.9418 12.834 6.70367 13.6674 6.70367C14.5008 6.70367 14.5008 5.9418 15.3341 5.9418C16.1674 5.9418 16.1674 6.70367 17.0007 6.70367C17.834 6.70367 17.834 5.9418 18.6673 5.9418C19.5007 5.9418 19.5007 6.70367 20.334 6.70367C20.3853 6.70367 20.4332 6.70063 20.4786 6.6952C19.9946 5.92316 19.4085 5.22172 18.7385 4.61043Z" fill="#0052B4" />
    <path d="M14.5565 2.33016C14.3278 2.53594 14.1211 2.76195 13.6672 2.76195C12.8338 2.76195 12.8338 2.00008 12.0004 2H12.0003C11.5693 2.00004 11.3613 2.20383 11.1455 2.40066V3.73402C11.3612 3.53719 11.5694 3.33336 12.0004 3.33336C12.8338 3.33336 12.8338 4.09523 13.6672 4.09523C14.5006 4.09523 14.5006 3.33336 15.3339 3.33336C16.1672 3.33336 16.1672 4.09523 17.0005 4.09523C17.3502 4.09523 17.553 3.96102 17.7323 3.80531C16.7817 3.1391 15.7099 2.63418 14.5565 2.33016Z" fill="#0052B4" />
    <path d="M13.6671 21.0227C12.8337 21.0227 12.8337 20.2608 12.0003 20.2608C11.167 20.2608 11.167 21.0227 10.3337 21.0227C9.50047 21.0227 9.50047 20.2608 8.66715 20.2608C8.02883 20.2608 7.8791 20.7074 7.46973 20.9167C8.59863 21.4915 9.85125 21.8579 11.177 21.9659C11.3821 21.7786 11.5904 21.5941 12.0003 21.5941C12.4103 21.5941 12.6186 21.7786 12.8237 21.966C14.1495 21.8579 15.4022 21.4915 16.5311 20.9168C16.1217 20.7075 15.972 20.2607 15.3337 20.2607C14.5005 20.2608 14.5005 21.0227 13.6671 21.0227Z" fill="#0052B4" />
    <path d="M17.0005 18.4143C16.1672 18.4143 16.1672 17.6523 15.3339 17.6523C14.5006 17.6523 14.5006 18.4143 13.6673 18.4143C12.8339 18.4143 12.8339 17.6523 12.0005 17.6523C11.1671 17.6523 11.1671 18.4143 10.3339 18.4143C9.50066 18.4143 9.50066 17.6523 8.66734 17.6523C7.83395 17.6523 7.83395 18.4143 7.00055 18.4143C6.16715 18.4143 6.16715 17.6523 5.33375 17.6523C4.73449 17.6523 4.56621 18.0465 4.20898 18.2678C4.43289 18.5458 4.67094 18.812 4.92285 19.0643C5.0357 19.0161 5.16813 18.9857 5.33371 18.9857C6.16711 18.9857 6.16711 19.7476 7.00051 19.7476C7.83391 19.7476 7.83391 18.9857 8.6673 18.9857C9.50063 18.9857 9.50063 19.7476 10.3338 19.7476C11.1671 19.7476 11.1671 18.9857 12.0004 18.9857C12.8338 18.9857 12.8338 19.7476 13.6672 19.7476C14.5006 19.7476 14.5006 18.9857 15.3339 18.9857C16.1672 18.9857 16.1672 19.7476 17.0005 19.7476C17.8338 19.7476 17.8338 18.9857 18.6671 18.9857C18.8329 18.9857 18.9653 19.0161 19.0782 19.0644C19.3302 18.812 19.5682 18.5459 19.7921 18.2678C19.4349 18.0466 19.2666 17.6524 18.6671 17.6524C17.8338 17.6523 17.8338 18.4143 17.0005 18.4143Z" fill="#0052B4" />
    <path d="M11.9741 12.0004H12.0009C12.0009 11.9914 12.0009 11.9827 12.0009 11.9736C11.992 11.9826 11.9831 11.9915 11.9741 12.0004Z" fill="#F0F0F0" />
    <path d="M12.0007 7.21699V10.155L8.52246 6.78223L12.0007 7.21699Z" fill="#0052B4" />
    <path d="M7.21801 12H10.1559L7.21797 8.08691L6.7832 11.1304L7.21801 12Z" fill="#0052B4" />
    <path d="M12.0005 7.21738C12.0005 5.45781 12.0005 4.30488 12.0005 2H11.9988C6.47674 2.00094 2.00049 6.4777 2.00049 12H7.21791V9.06207L10.1558 12H11.9738C11.9827 11.9911 11.9916 11.9822 12.0005 11.9732C12.0005 11.2995 12.0005 10.6984 12.0005 10.1554L9.06252 7.21738H12.0005Z" fill="#F0F0F0" />
    <path d="M7.06002 3.30469C5.496 4.19527 4.19576 5.49551 3.30518 7.05953V12.0004H5.91389V5.91348V5.9134H12.0008C12.0008 5.09063 12.0008 4.3068 12.0008 3.30469H7.06002Z" fill="#D80027" />
    <path d="M12.0009 10.7706L8.44795 7.21777H7.21826V7.21785L12.0008 12.0004H12.0009C12.0009 12.0004 12.0009 11.1524 12.0009 10.7706Z" fill="#D80027" />
    <path d="M15.0439 7.21777H18.957L17.0005 9.1743L15.0439 7.21777Z" fill="#6DA544" />
    <path d="M16.5659 8.73926H17.4355V11.1305H16.5659V8.73926Z" fill="#A2001D" />
    <path d="M16.5659 15.0439H17.4355V17.4352H16.5659V15.0439Z" fill="#A2001D" />
    <path d="M19.6095 13.7388C19.6095 13.0184 19.0255 12.4345 18.3051 12.4345C17.971 12.4345 17.6664 12.5602 17.4356 12.7668V11.9996H17.8703V11.1301H17.4356V10.6953H16.566V11.1301H16.1312V11.9996H16.566V12.7668C16.3352 12.5602 16.0306 12.4345 15.6964 12.4345C14.9761 12.4345 14.3921 13.0184 14.3921 13.7388C14.3921 14.125 14.5601 14.4719 14.8269 14.7107V15.4779H19.1747V14.7107C19.4415 14.4719 19.6095 14.125 19.6095 13.7388Z" fill="#FFDA44" />
    <path d="M18.3052 13.3047C18.168 13.3047 18.072 13.3649 18.0155 13.4154L17.4356 13.9346H16.5661L15.9861 13.4154C15.9296 13.3649 15.8336 13.3047 15.6965 13.3047C15.4568 13.3047 15.2617 13.4997 15.2617 13.7395C15.2617 13.9083 15.3528 14.015 15.407 14.0636L15.6965 14.3229V14.609H18.3052V14.3229L18.5947 14.0636C18.649 14.015 18.74 13.9083 18.74 13.7395C18.74 13.4997 18.5449 13.3047 18.3052 13.3047Z" fill="#D80027" />
</svg>
