<svg xmlns="http://www.w3.org/2000/svg" viewBox="0 0 24 24">
    <path d="M2 12C2 6.47719 6.47719 2 12 2C17.5228 2 22 6.47719 22 12H2Z" fill="#F0F0F0" />
    <path d="M9.39141 11.4531L8.84473 11.9998H9.39141V11.4531Z" fill="#0052B4" />
    <path d="M14.6089 11.4531V11.9998H15.1555L14.6089 11.4531Z" fill="#0052B4" />
    <path d="M2.28852 9.6084C2.10043 10.3746 2 11.1754 2 11.9996H5.15535L7.5466 9.6084H2.28852Z" fill="#0052B4" />
    <path d="M16.4531 9.6084L18.8444 11.9996H21.9998C21.9998 11.1754 21.8993 10.3746 21.7113 9.6084H16.4531Z" fill="#0052B4" />
    <path d="M15.8386 9.6084H14.6089L17.0001 11.9996H18.2299L15.8386 9.6084Z" fill="#D80027" />
    <path d="M9.39133 10.838V9.6084H9.39125L7 11.9996H8.22977L9.39133 10.838Z" fill="#D80027" />
    <path d="M6.68461 3.5293C6.27242 3.78852 5.88051 4.07688 5.51172 4.3916H7.54688L6.68461 3.5293Z" fill="#0052B4" />
    <path d="M18.4882 4.3916C18.1194 4.07684 17.7275 3.78848 17.3154 3.5293L16.4531 4.3916H18.4882Z" fill="#0052B4" />
    <path d="M13.3045 8.30434H21.2947C20.9167 7.35438 20.3971 6.47633 19.7622 5.69563H13.3045H13.3045V2.08465C12.8775 2.02906 12.4422 2 12.0001 2C11.558 2 11.1228 2.02906 10.6958 2.08465V5.69559V5.69563H4.23811C3.60322 6.47633 3.08361 7.35438 2.70557 8.30434H10.6957H10.6958V12H13.3045V8.30437V8.30434Z" fill="#D80027" />
    <path d="M9.39107 4.39137V4.39133L7.88353 2.88379C7.60482 3.00984 7.33318 3.14871 7.06885 3.29883L8.16139 4.39137H9.39107Z" fill="#D80027" />
    <path d="M14.6089 4.39129L16.1165 2.88375C15.8297 2.7541 15.5357 2.63785 15.2353 2.53516L14.6089 3.1616V4.39129Z" fill="#D80027" />
    <path d="M22 12C22 17.5228 17.5228 22 12 22C6.47719 22 2 17.5228 2 12C2.43477 12 22 12 22 12Z" fill="#F0F0F0" />
    <path d="M20.3334 13.2756C19.5001 13.2756 19.5001 12.5137 18.6667 12.5137C17.8334 12.5137 17.8334 13.2756 17.0001 13.2756C16.1668 13.2756 16.1668 12.5137 15.3335 12.5137C14.5002 12.5137 14.5002 13.2756 13.6668 13.2756C12.8335 13.2756 12.8334 12.5137 12 12.5137C11.1667 12.5137 11.1667 13.2756 10.3334 13.2756C9.50022 13.2756 9.50022 12.5137 8.66689 12.5137C7.8335 12.5137 7.8335 13.2756 7.0001 13.2756C6.1667 13.2756 6.1667 12.5137 5.3333 12.5137C4.5001 12.5137 4.5001 13.2756 3.66678 13.2756C2.83795 13.2756 2.83314 12.5221 2.01318 12.514C2.03627 12.9714 2.09088 13.4205 2.17346 13.8596C2.83768 13.9573 2.89584 14.6089 3.66682 14.6089C4.50014 14.6089 4.50014 13.8471 5.33334 13.8471C6.16674 13.8471 6.16674 14.6089 7.00014 14.6089C7.83354 14.6089 7.83354 13.8471 8.66693 13.8471C9.50025 13.8471 9.50025 14.6089 10.3335 14.6089C11.1668 14.6089 11.1668 13.8471 12.0001 13.8471C12.8335 13.8471 12.8335 14.6089 13.6669 14.6089C14.5003 14.6089 14.5003 13.8471 15.3335 13.8471C16.1669 13.8471 16.1669 14.6089 17.0001 14.6089C17.8334 14.6089 17.8335 13.8471 18.6667 13.8471C19.5001 13.8471 19.5001 14.6089 20.3334 14.6089C21.1045 14.6089 21.1626 13.9573 21.8269 13.8597C21.9095 13.4205 21.964 12.9715 21.9872 12.5141C21.1671 12.5221 21.1622 13.2756 20.3334 13.2756Z" fill="#0052B4" />
    <path d="M18.6663 15.1221C17.833 15.1221 17.833 15.884 16.9997 15.884C16.1664 15.884 16.1664 15.1221 15.3331 15.1221C14.4998 15.1221 14.4998 15.884 13.6664 15.884C12.833 15.884 12.833 15.1221 11.9996 15.1221C11.1663 15.1221 11.1663 15.884 10.333 15.884C9.49982 15.884 9.49982 15.1221 8.6665 15.1221C7.83311 15.1221 7.83311 15.884 6.99971 15.884C6.16631 15.884 6.16631 15.1221 5.33291 15.1221C4.49971 15.1221 4.49971 15.884 3.66639 15.884C3.07096 15.884 2.90088 15.4951 2.54834 15.2729C2.78303 15.951 3.08834 16.5961 3.45604 17.199C3.51998 17.2108 3.58959 17.2173 3.66639 17.2173C4.49971 17.2173 4.49971 16.4555 5.33291 16.4555C6.16631 16.4555 6.16631 17.2173 6.99971 17.2173C7.83311 17.2173 7.83311 16.4555 8.6665 16.4555C9.49982 16.4555 9.49982 17.2173 10.333 17.2173C11.1663 17.2173 11.1663 16.4555 11.9996 16.4555C12.833 16.4555 12.833 17.2173 13.6664 17.2173C14.4998 17.2173 14.4998 16.4555 15.3331 16.4555C16.1664 16.4555 16.1664 17.2173 16.9997 17.2173C17.833 17.2173 17.833 16.4555 18.6663 16.4555C19.4997 16.4555 19.4997 17.2173 20.333 17.2173C20.4098 17.2173 20.4795 17.2108 20.5434 17.199C20.9111 16.5961 21.2164 15.951 21.4512 15.273C21.0986 15.495 20.9285 15.884 20.333 15.884C19.4997 15.884 19.4997 15.1221 18.6663 15.1221Z" fill="#0052B4" />
    <path d="M21.9946 11.6855C21.9955 11.7133 21.9965 11.7411 21.9971 11.769C21.9965 11.7411 21.9954 11.7133 21.9946 11.6855Z" fill="#F0F0F0" />
    <path d="M2.00293 11.769C2.00359 11.7411 2.00453 11.7134 2.00539 11.6855C2.00457 11.7134 2.00355 11.7412 2.00293 11.769Z" fill="#F0F0F0" />
    <path d="M2 12.0003C2 11.9232 2.00117 11.8463 2.00293 11.7695C2.00113 11.8463 2 11.9232 2 12.0003Z" fill="#F0F0F0" />
    <path d="M2 12C2 12.1821 2.00516 12.3631 2.01488 12.5429C2.83297 12.552 2.8384 13.3043 3.66664 13.3043C4.49996 13.3043 4.49996 12.5425 5.33316 12.5425C6.16656 12.5425 6.16656 13.3043 6.99996 13.3043C7.83336 13.3043 7.83336 12.5425 8.66676 12.5425C9.50008 12.5425 9.50008 13.3043 10.3333 13.3043C11.1666 13.3043 11.1666 12.5425 11.9999 12.5425C12.8333 12.5425 12.8333 13.3043 13.6667 13.3043C14.5001 13.3043 14.5001 12.5425 15.3334 12.5425C16.1667 12.5425 16.1667 13.3043 17 13.3043C17.8332 13.3043 17.8333 12.5425 18.6666 12.5425C19.5 12.5425 19.5 13.3043 20.3332 13.3043C21.1616 13.3043 21.167 12.552 21.9852 12.5429C21.9948 12.3631 22 12.1821 22 12H2Z" fill="#F0F0F0" />
    <path d="M21.9971 11.7695C21.9988 11.8462 22 11.9231 22 12.0003C22 11.9232 21.9989 11.8463 21.9971 11.7695Z" fill="#F0F0F0" />
    <path d="M18.6667 17.7305C17.8334 17.7305 17.8334 18.4924 17.0001 18.4924C16.1668 18.4924 16.1668 17.7305 15.3335 17.7305C14.5002 17.7305 14.5002 18.4924 13.6668 18.4924C12.8334 18.4924 12.8334 17.7305 12 17.7305C11.1667 17.7305 11.1667 18.4924 10.3334 18.4924C9.50023 18.4924 9.50023 17.7305 8.66691 17.7305C7.83352 17.7305 7.83352 18.4924 7.00012 18.4924C6.16672 18.4924 6.16672 17.7305 5.33332 17.7305C4.75777 17.7305 4.57969 18.0939 4.25 18.3188C5.12457 19.3901 6.21715 20.2762 7.45953 20.9107L12.0002 20.6819L16.5408 20.9106C17.7832 20.2761 18.8757 19.3902 19.7503 18.3188C19.4205 18.094 19.2424 17.7305 18.6667 17.7305Z" fill="#0052B4" />
    <path d="M17.5464 17.9696L14.5045 18.5514L14.1191 15.4786L12.0002 17.7385L9.88148 15.4785L9.49594 18.5514L6.4541 17.9695L7.94586 20.6825L7.45867 20.9116C8.82148 21.6077 10.365 22.0003 12.0002 22.0003C13.6355 22.0003 15.179 21.6077 16.5418 20.9117L16.0548 20.6826L17.5464 17.9696Z" fill="#FFDA44" />
</svg>
