<svg xmlns="http://www.w3.org/2000/svg" viewBox="0 0 24 24">
    <path d="M19.0695 4.93045C22.9742 8.83512 22.9742 15.1658 19.0695 19.0705C15.1649 22.9752 8.83416 22.9752 4.92948 19.0705C1.02481 15.1658 1.02481 8.83514 4.92948 4.93045C8.83414 1.02579 15.1648 1.02579 19.0695 4.93045Z" fill="#F0F0F0" />
    <path d="M3.34035 7.00098C2.88905 7.78256 2.55616 8.59968 2.33447 9.432L19.0558 19.0861C19.6658 18.478 20.2071 17.781 20.6582 16.9995L3.34035 7.00098Z" fill="black" />
    <path d="M16.9987 3.341C12.998 1.03123 8.06508 1.80105 4.94287 4.91408L21.6642 14.5681C22.7991 10.3078 20.9993 5.65082 16.9987 3.341Z" fill="#FFDA44" />
    <path d="M7.00025 20.6589C11.0009 22.9686 15.9339 22.1988 19.056 19.0858L2.33464 9.43164C1.19982 13.6921 2.99954 18.3491 7.00025 20.6589Z" fill="#FFDA44" />
    <path d="M14.8249 10.9135C14.8249 12.474 13.5598 13.7392 11.9993 13.7392C10.4387 13.7392 9.17357 12.4741 9.17357 10.9135C9.17357 10.4269 9.29658 9.96907 9.51322 9.56934C8.90005 10.1964 8.52148 11.0539 8.52148 12.0003C8.52148 13.921 10.0785 15.4781 11.9993 15.4781C13.92 15.4781 15.477 13.921 15.477 12.0003C15.477 11.0539 15.0985 10.1964 14.4853 9.56934C14.7019 9.96915 14.8249 10.4269 14.8249 10.9135Z" fill="#D80027" />
    <path d="M11.3477 7.65332H12.6518V14.1741H11.3477V7.65332Z" fill="#D80027" />
    <path d="M14.1733 8.95703H9.82617C9.82617 9.25715 10.0876 9.50044 10.3877 9.50044H10.3696C10.3696 9.80056 10.6129 10.0439 10.913 10.0439C10.913 10.344 11.1563 10.5873 11.4564 10.5873H12.5432C12.8433 10.5873 13.0866 10.344 13.0866 10.0439C13.3867 10.0439 13.63 9.80056 13.63 9.50044H13.6119C13.9119 9.5004 14.1733 9.25719 14.1733 8.95703Z" fill="#D80027" />
    <path d="M8.95654 14.6084H15.0426V15.9126H8.95654V14.6084Z" fill="#D80027" />
    <path d="M13.3037 15.043H15.912V16.3471H13.3037V15.043Z" fill="#D80027" />
    <path d="M8.08691 15.043H10.6952V16.3471H8.08691V15.043Z" fill="#D80027" />
</svg>
