<svg xmlns="http://www.w3.org/2000/svg" viewBox="0 0 24 24">
    <path d="M19.0711 4.92893C22.9763 8.83417 22.9763 15.1658 19.0711 19.0711C15.1658 22.9763 8.83421 22.9763 4.92893 19.0711C1.02369 15.1658 1.02369 8.83421 4.92893 4.92893C8.83417 1.02369 15.1658 1.02369 19.0711 4.92893Z" fill="#F0F0F0" />
    <path d="M18.0894 4.0662C14.5093 1.31127 9.49178 1.31127 5.91162 4.06616L12.0005 10.1551L18.0894 4.0662Z" fill="#D80027" />
    <path d="M12.0004 13.8448L5.91162 19.9336C9.49178 22.6886 14.5093 22.6886 18.0894 19.9336L12.0005 13.8447L12.0004 13.8448Z" fill="#D80027" />
    <path d="M10.156 12L4.06717 5.91113C1.31225 9.49129 1.31225 14.5088 4.06717 18.0889L10.156 12Z" fill="#6DA544" />
    <path d="M13.8452 12L19.934 18.0889C22.689 14.5088 22.689 9.49129 19.934 5.91113L13.8452 12Z" fill="#6DA544" />
    <path d="M15.075 8.92579C16.773 10.6237 16.773 13.3766 15.075 15.0745C13.3771 16.7725 10.6242 16.7725 8.92628 15.0745C7.22835 13.3766 7.22835 10.6237 8.92628 8.92579C10.6242 7.22786 13.3771 7.22786 15.075 8.92579Z" fill="#F0F0F0" />
    <path d="M12.0007 8.95605L12.3772 9.60824H13.1303L12.7537 10.2604L13.1303 10.9126H12.3772L12.0007 11.5648L11.6241 10.9126H10.8711L11.2476 10.2604L10.8711 9.60824H11.6241L12.0007 8.95605Z" fill="#D80027" />
    <path d="M10.0866 12L10.4632 12.6522H11.2162L10.8397 13.3043L11.2162 13.9565H10.4632L10.0866 14.6087L9.71008 13.9565H8.95703L9.33355 13.3043L8.95703 12.6522H9.71008L10.0866 12Z" fill="#D80027" />
    <path d="M13.9148 12L14.2913 12.6522H15.0443L14.6678 13.3043L15.0443 13.9565H14.2913L13.9148 14.6087L13.5382 13.9565H12.7852L13.1617 13.3043L12.7852 12.6522H13.5382L13.9148 12Z" fill="#D80027" />
</svg>
