<svg xmlns="http://www.w3.org/2000/svg" viewBox="0 0 24 24">
    <path d="M19.0711 4.92893C22.9763 8.83417 22.9763 15.1658 19.0711 19.0711C15.1658 22.9763 8.83421 22.9763 4.92893 19.0711C1.02369 15.1658 1.02369 8.83421 4.92893 4.92893C8.83417 1.02369 15.1658 1.02369 19.0711 4.92893Z" fill="#F0F0F0" />
    <path d="M12.0004 21.9997C15.0313 21.9997 17.7471 20.6511 19.5809 18.5215H4.41992C6.25379 20.6511 8.96953 21.9997 12.0004 21.9997Z" fill="#0052B4" />
    <path d="M22.0005 12C22.0005 6.47719 17.5233 2 12.0005 2C6.47768 2 2.00049 6.47719 2.00049 12C2.00049 12.9026 2.1208 13.7769 2.34498 14.6087H21.656C21.8802 13.7769 22.0005 12.9026 22.0005 12Z" fill="#0052B4" />
    <path d="M2.79541 15.9131C2.98818 16.3661 3.21354 16.8017 3.46834 17.2174H20.5329C20.7876 16.8016 21.0129 16.366 21.2058 15.9131H2.79541Z" fill="#D80027" />
    <path d="M9.14859 12.6523L9.31047 13.1505H9.83434L9.41055 13.4585L9.57242 13.9567L9.14859 13.6487L8.72477 13.9567L8.88668 13.4585L8.46289 13.1505H8.98676L9.14859 12.6523Z" fill="#FFDA44" />
    <path d="M9.14859 19.1738L9.31047 19.6721H9.83434L9.41055 19.98L9.57242 20.4782L9.14859 20.1703L8.72477 20.4782L8.88668 19.98L8.46289 19.6721H8.98676L9.14859 19.1738Z" fill="#FFDA44" />
    <path d="M6.11295 16.9688L6.27482 17.4669H6.79869L6.3749 17.7748L6.53678 18.2731L6.11295 17.9652L5.68912 18.2731L5.85107 17.7748L5.42725 17.4669H5.95107L6.11295 16.9688Z" fill="#FFDA44" />
    <path d="M7.27266 13.3047L7.43453 13.8029H7.95836L7.53461 14.1108L7.69648 14.6091L7.27266 14.3011L6.84883 14.6091L7.01078 14.1108L6.58691 13.8029H7.11078L7.27266 13.3047Z" fill="#FFDA44" />
    <path d="M5.42725 15.3557L5.951 15.3557L6.11291 14.8574L6.27482 15.3557L6.79869 15.3557L6.37486 15.6636L6.53678 16.1618L6.11291 15.8539L5.68912 16.1617L5.851 15.6636L5.42725 15.3557Z" fill="#FFDA44" />
    <path d="M6.84891 19.731L7.01078 19.2329L6.58691 18.925H7.11078L7.2727 18.4268L7.43461 18.925H7.95844L7.53461 19.2329L7.69648 19.7311L7.27266 19.4232L6.84891 19.731Z" fill="#FFDA44" />
    <path d="M12.1833 16.9688L12.0214 17.4669H11.4976L11.9213 17.7748L11.7594 18.2731L12.1833 17.9652L12.6071 18.2731L12.4452 17.7748L12.869 17.4669H12.3451L12.1833 16.9688Z" fill="#FFDA44" />
    <path d="M11.0236 13.3047L10.8618 13.8029H10.3379L10.7616 14.1108L10.5998 14.6091L11.0236 14.3011L11.4474 14.6091L11.2855 14.1108L11.7093 13.8029H11.1855L11.0236 13.3047Z" fill="#FFDA44" />
    <path d="M12.869 15.3557L12.3452 15.3557L12.1833 14.8574L12.0214 15.3557L11.4976 15.3557L11.9213 15.6636L11.7594 16.1618L12.1833 15.8539L12.6071 16.1617L12.4452 15.6636L12.869 15.3557Z" fill="#FFDA44" />
    <path d="M11.4474 19.731L11.2856 19.2329L11.7094 18.925H11.1855L11.0236 18.4268L10.8618 18.925H10.3379L10.7617 19.2329L10.5998 19.7311L11.0237 19.4232L11.4474 19.731Z" fill="#FFDA44" />
</svg>
