<svg xmlns="http://www.w3.org/2000/svg" viewBox="0 0 24 24">
    <path d="M2 11.9998C2 13.7323 2.44074 15.3617 3.2159 16.7825L12 17.652L20.7841 16.7825C21.5593 15.3617 22 13.7323 22 11.9998C22 10.2674 21.5593 8.63797 20.7841 7.21723L12 6.34766L3.2159 7.21723C2.44074 8.63797 2 10.2674 2 11.9998H2Z" fill="#D80027" />
    <path d="M3.21582 7.21738H20.784C19.088 4.10895 15.7904 2 11.9999 2C8.20949 2 4.91188 4.10895 3.21582 7.21738Z" fill="#0052B4" />
    <path d="M11.9999 21.9996C15.7904 21.9996 19.088 19.8907 20.784 16.7822H3.21582C4.91188 19.8907 8.20949 21.9996 11.9999 21.9996Z" fill="#0052B4" />
    <path d="M15.4784 13.9569V12.6525H14.6089V10.9134L13.7393 10.0438L12.8697 10.9134V9.17426L12.0002 8.30469L11.1306 9.17426V10.9134L10.261 10.0438L9.39145 10.9134V12.6525H8.52191V13.9569H7.65234V15.2612H16.348V13.9569H15.4784Z" fill="#F0F0F0" />
</svg>
