<svg xmlns="http://www.w3.org/2000/svg" viewBox="0 0 24 24">
    <path d="M16.3479 2.99227C15.0332 2.35656 13.5583 2 12.0001 2C10.4419 2 8.96697 2.35656 7.65229 2.99227L6.78271 12L7.65229 21.0077C8.96697 21.6434 10.4419 22 12.0001 22C13.5583 22 15.0332 21.6434 16.3479 21.0077L17.2175 12L16.3479 2.99227Z" fill="#D80027" />
    <path d="M12 8.52148L12.8632 11.1785H15.6573L13.397 12.8208L14.2603 15.478L12 13.8357L9.73961 15.478L10.6031 12.8208L8.34277 11.1785H11.1366L12 8.52148Z" fill="#FFDA44" />
    <path d="M7.65219 2.99219C4.30727 4.60961 2 8.03496 2 11.9996C2 15.9642 4.30727 19.3895 7.65219 21.007V2.99219Z" fill="#496E2D" />
    <path d="M16.3477 2.99219V21.007C19.6926 19.3895 21.9998 15.9641 21.9998 11.9996C21.9998 8.035 19.6926 4.60961 16.3477 2.99219Z" fill="#FFDA44" />
</svg>
