<svg xmlns="http://www.w3.org/2000/svg" viewBox="0 0 24 24">
    <path d="M19.0711 4.92893C22.9763 8.83417 22.9763 15.1658 19.0711 19.0711C15.1658 22.9763 8.83421 22.9763 4.92893 19.0711C1.02369 15.1658 1.02369 8.83421 4.92893 4.92893C8.83417 1.02369 15.1658 1.02369 19.0711 4.92893Z" fill="#F0F0F0" />
    <path d="M22.0008 11.9999C22.0008 8.03531 19.6936 4.60969 16.3486 2.99219V21.0076C19.6936 19.3902 22.0008 15.9645 22.0008 11.9999Z" fill="#D80027" />
    <path d="M2.00049 11.9999C2.00049 15.9645 4.30771 19.3902 7.65268 21.0077V2.99219C4.30771 4.60969 2.00049 8.03531 2.00049 11.9999Z" fill="#D80027" />
    <path d="M13.7398 13.3039L15.4789 12.4343L14.6094 11.9995V11.13L12.8703 11.9995L13.7398 10.2604H12.8703L12.0007 8.95605L11.1311 10.2604H10.2616L11.1311 11.9995L9.39199 11.13V11.9995L8.52246 12.4343L10.2616 13.3039L9.8268 14.1734H11.5659V15.4778H12.4355V14.1734H14.1746L13.7398 13.3039Z" fill="#D80027" />
</svg>
