<svg xmlns="http://www.w3.org/2000/svg" viewBox="0 0 24 24">
    <path d="M19.0711 4.92893C22.9763 8.83417 22.9763 15.1658 19.0711 19.0711C15.1658 22.9763 8.83421 22.9763 4.92893 19.0711C1.02369 15.1658 1.02369 8.83421 4.92893 4.92893C8.83417 1.02369 15.1658 1.02369 19.0711 4.92893Z" fill="#F0F0F0" />
    <path d="M20.785 7.21719C19.4928 4.84887 17.2708 3.06102 14.6096 2.34375L14.1748 7.21719H20.785Z" fill="#0052B4" />
    <path d="M3.21631 7.21719H9.82646L9.3917 2.34375C6.73049 3.06102 4.50854 4.84891 3.21631 7.21719Z" fill="#0052B4" />
    <path d="M14.1743 12V16.7826H20.7845C21.5597 15.3619 22.0004 13.7324 22.0004 12H14.1743Z" fill="#6DA544" />
    <path d="M9.82658 12H2.00049C2.00049 13.7324 2.44123 15.3619 3.21639 16.7826H9.82654V12H9.82658Z" fill="#6DA544" />
    <path d="M3.21631 16.7822C4.50854 19.1505 6.73049 20.9384 9.3917 21.6557L9.82646 17.3936L3.21631 16.7822Z" fill="#FFDA44" />
    <path d="M14.6096 21.6557C17.2708 20.9384 19.4928 19.1505 20.785 16.7822L14.1748 17.3935L14.6096 21.6557Z" fill="#FFDA44" />
    <path d="M14.1743 17.3935L20.7845 16.7822H14.1743V17.3935Z" fill="#FFDA44" />
    <path d="M9.8265 16.7822H3.21631L9.8265 17.3935V16.7822Z" fill="#FFDA44" />
    <path d="M12.0008 2C11.0982 2 10.2239 2.12031 9.39209 2.34449V21.6555C10.2239 21.8797 11.0982 22 12.0008 22C12.9034 22 13.7777 21.8797 14.6095 21.6555V2.34449C13.7777 2.12031 12.9034 2 12.0008 2V2Z" fill="#D80027" />
    <path d="M7.37963 4.17383L7.64939 5.00418H8.52256L7.81623 5.51738L8.08604 6.34773L7.37963 5.83457L6.67326 6.34773L6.94314 5.51738L6.23682 5.00418H7.1099L7.37963 4.17383Z" fill="#FFDA44" />
</svg>
