<svg xmlns="http://www.w3.org/2000/svg" viewBox="0 0 24 24">
    <path d="M19.0711 4.92893C22.9763 8.83417 22.9763 15.1658 19.0711 19.0711C15.1658 22.9763 8.83421 22.9763 4.92893 19.0711C1.02369 15.1658 1.02369 8.83421 4.92893 4.92893C8.83417 1.02369 15.1658 1.02369 19.0711 4.92893Z" fill="#F0F0F0" />
    <path d="M12.0008 2C9.23934 2 6.73934 3.1193 4.92969 4.92891L12.0008 12V2Z" fill="black" />
    <path d="M2.00049 12C2.00049 14.7614 3.11979 17.2614 4.92939 19.0711L12.0005 12H2.00049Z" fill="black" />
    <path d="M12.0005 22C14.7619 22 17.2619 20.8807 19.0716 19.0711L12.0005 12V22Z" fill="black" />
    <path d="M22.0005 11.9998C22.0005 9.23836 20.8812 6.73836 19.0716 4.92871L12.0005 11.9998H22.0005Z" fill="black" />
    <path d="M8.52246 8.9568L12.0007 9.39168L15.4789 8.9568V6.86984L14.0877 7.56551L12.0007 5.47852L9.91375 7.56551L8.52246 6.86984V8.9568Z" fill="#FFDA44" />
    <path d="M12.0007 17.2178C10.0828 17.2178 8.52246 15.6575 8.52246 13.7396V10.2615L9.8268 8.95703H14.1746L15.4789 10.2615V13.7396C15.4789 15.6575 13.9186 17.2178 12.0007 17.2178Z" fill="#D80027" />
    <path d="M12.0006 15.9129C10.8019 15.9129 9.82666 14.9376 9.82666 13.7389V10.2607H14.1745V13.7389C14.1745 14.9376 13.1993 15.9129 12.0006 15.9129Z" fill="#F0F0F0" />
    <path d="M8.52246 8.95605H9.8268V10.2604H8.52246V8.95605Z" fill="#FFDA44" />
    <path d="M14.1743 8.95605H15.4787V10.2604H14.1743V8.95605Z" fill="#FFDA44" />
    <path d="M14.1743 11.7822H15.4787V13.0866H14.1743V11.7822Z" fill="#FFDA44" />
    <path d="M8.52246 11.7822H9.8268V13.0866H8.52246V11.7822Z" fill="#FFDA44" />
    <path d="M12.0008 15.9126C11.7736 15.9126 11.5546 15.8774 11.3486 15.8125V17.1547C11.56 17.195 11.7779 17.217 12.0008 17.217C12.2238 17.217 12.4416 17.195 12.653 17.1547V15.8125C12.447 15.8774 12.228 15.9126 12.0008 15.9126Z" fill="#FFDA44" />
    <path d="M9.85588 14.0918L8.81494 15.1327C8.99541 15.5436 9.25291 15.9131 9.56939 16.2229L10.4913 15.301C10.1623 14.9832 9.93311 14.5629 9.85588 14.0918Z" fill="#FFDA44" />
    <path d="M15.1865 15.1327L14.1456 14.0918C14.0683 14.5628 13.8392 14.9831 13.5103 15.3011L14.4321 16.2229C14.7485 15.9131 15.0061 15.5436 15.1865 15.1327Z" fill="#FFDA44" />
    <path d="M11.5659 10.9854V11.71C11.5659 11.95 11.7606 12.1447 12.0007 12.1447C12.2408 12.1447 12.4354 11.95 12.4354 11.71V10.9854H11.5659Z" fill="#0052B4" />
    <path d="M11.5659 13.8838V14.6084C11.5659 14.8485 11.7606 15.0432 12.0007 15.0432C12.2408 15.0432 12.4354 14.8485 12.4354 14.6084V13.8838H11.5659Z" fill="#0052B4" />
    <path d="M12.8701 12.4346V13.1593C12.8701 13.3993 13.0648 13.594 13.3049 13.594C13.545 13.594 13.7396 13.3993 13.7396 13.1593V12.4346H12.8701Z" fill="#0052B4" />
    <path d="M11.5659 12.4346V13.1593C11.5659 13.3993 11.7606 13.594 12.0007 13.594C12.2408 13.594 12.4354 13.3993 12.4354 13.1593V12.4346H11.5659Z" fill="#0052B4" />
    <path d="M10.2617 12.4346V13.1593C10.2617 13.3993 10.4564 13.594 10.6965 13.594C10.9366 13.594 11.1313 13.3993 11.1313 13.1593V12.4346H10.2617Z" fill="#0052B4" />
</svg>
