<svg xmlns="http://www.w3.org/2000/svg" viewBox="0 0 24 24">
    <path d="M12 2C10.7768 2 9.605 2.22004 8.52172 2.62199L8.08691 12L8.52168 21.378C9.605 21.78 10.7768 22 12 22C13.2232 22 14.3949 21.78 15.4782 21.378L15.913 12L15.4782 2.62199C14.3949 2.22004 13.2232 2 12 2V2Z" fill="#FFDA44" />
    <path d="M21.9998 12.0001C21.9998 7.70043 19.286 4.035 15.478 2.62207V21.3781C19.286 19.9652 21.9998 16.2997 21.9998 12.0001Z" fill="#D80027" />
    <path d="M8.52176 21.3781V2.62207C4.71375 4.035 2 7.70043 2 12.0001C2 16.2997 4.71375 19.9652 8.52176 21.3781Z" fill="#0052B4" />
</svg>
