<svg xmlns="http://www.w3.org/2000/svg" viewBox="0 0 24 24">
    <path d="M19.0711 4.92893C22.9763 8.83417 22.9763 15.1658 19.0711 19.0711C15.1658 22.9763 8.83421 22.9763 4.92893 19.0711C1.02369 15.1658 1.02369 8.83421 4.92893 4.92893C8.83417 1.02369 15.1658 1.02369 19.0711 4.92893Z" fill="#F0F0F0" />
    <path d="M22.0005 12.0005C22.0005 17.5233 17.5233 22.0005 12.0005 22.0005C6.47768 22.0005 2.00049 17.5233 2.00049 12.0005C2.00049 6.47767 12.0005 12.0005 12.0005 12.0005C12.0005 12.0005 19.5693 12.0005 22.0005 12.0005Z" fill="#D80027" />
    <path d="M2.00049 12C2.00049 6.47719 6.47768 2 12.0005 2C12.0005 5.80293 12.0005 12 12.0005 12C12.0005 12 5.47873 12 2.00049 12Z" fill="#0052B4" />
    <path d="M7.95342 5.47852L8.60096 7.47141H10.6964L9.00115 8.70305L9.64865 10.6959L7.95342 9.46426L6.25818 10.6959L6.90568 8.70305L5.21045 7.47141H7.30588L7.95342 5.47852Z" fill="#F0F0F0" />
</svg>
