<svg xmlns="http://www.w3.org/2000/svg" viewBox="0 0 24 24">
    <path d="M19.0711 4.92893C22.9763 8.83417 22.9763 15.1658 19.0711 19.0711C15.1658 22.9763 8.83421 22.9763 4.92893 19.0711C1.02369 15.1658 1.02369 8.83421 4.92893 4.92893C8.83417 1.02369 15.1658 1.02369 19.0711 4.92893Z" fill="#D80027" />
    <path d="M7.47266 8.08594L8.33594 10.7422H11.1289L8.87109 12.3867L9.73438 15.043L7.47266 13.4023L5.21094 15.043L6.07812 12.3867L3.81641 10.7422H6.60938L7.47266 8.08594Z" fill="#FFDA44" />
    <path d="M13.8555 17.4883L13.1953 16.6758L12.2188 17.0547L12.7852 16.1758L12.125 15.3594L13.1367 15.6289L13.707 14.75L13.7617 15.7969L14.7773 16.0664L13.7969 16.4414L13.8555 17.4883Z" fill="#FFDA44" />
    <path d="M15.168 15.1055L15.4805 14.1055L14.625 13.5L15.6719 13.4844L15.9805 12.4844L16.3203 13.4766L17.3672 13.4648L16.5273 14.0898L16.8633 15.082L16.0078 14.4766L15.168 15.1055Z" fill="#FFDA44" />
    <path d="M16.9375 9.33984L16.4766 10.2812L17.2266 11.0117L16.1914 10.8633L15.7305 11.8008L15.5508 10.7695L14.5117 10.6211L15.4414 10.1328L15.2617 9.09766L16.0117 9.82812L16.9375 9.33984Z" fill="#FFDA44" />
    <path d="M13.8828 6.48828L13.8047 7.53125L14.7773 7.92578L13.7578 8.17578L13.6836 9.22266L13.1328 8.33203L12.1133 8.58203L12.7891 7.78125L12.2344 6.89453L13.207 7.28906L13.8828 6.48828Z" fill="#FFDA44" />
</svg>
