<svg xmlns="http://www.w3.org/2000/svg" viewBox="0 0 24 24">
    <path d="M19.0711 19.0709C15.1659 22.9761 8.8342 22.9761 4.92893 19.0709C1.02367 15.1656 1.02371 8.83397 4.92893 4.92871C5.23635 5.23609 12.9223 11.0774 12.9223 11.0774L19.0711 19.0709Z" fill="#0052B4" />
    <path d="M4.92871 4.92892C8.83394 1.02369 15.1656 1.02369 19.0709 4.92892C22.9761 8.83414 22.9761 15.1658 19.0709 19.0711" fill="#6DA544" />
    <path d="M13.8444 10.1557C14.8632 11.1744 14.8632 12.8262 13.8444 13.8449C12.8257 14.8637 11.1739 14.8637 10.1552 13.8449C9.13642 12.8262 9.13642 11.1744 10.1552 10.1557C11.1739 9.13691 12.8257 9.13691 13.8444 10.1557Z" fill="#FFDA44" />
    <path d="M5.72381 16.3477L5.99822 16.9214L6.61787 16.7782L6.34037 17.3505L6.83872 17.7457L6.21826 17.8855L6.21998 18.5216L5.72381 18.1236L5.22764 18.5216L5.22935 17.8855L4.60889 17.7457L5.10724 17.3505L4.82971 16.7782L5.44939 16.9214L5.72381 16.3477Z" fill="#F0F0F0" />
    <path d="M3.92836 11.5654L4.20277 12.1392L4.82242 11.9959L4.54496 12.5683L5.04324 12.9635L4.42281 13.1033L4.42453 13.7393L3.92836 13.3414L3.43223 13.7393L3.4339 13.1033L2.81348 12.9635L3.3118 12.5683L3.0343 11.9959L3.65394 12.1392L3.92836 11.5654Z" fill="#F0F0F0" />
    <path d="M5.72377 7.65234L5.99818 8.22613L6.61783 8.08285L6.34037 8.65519L6.83869 9.05039L6.21822 9.19019L6.21994 9.82624L5.72377 9.42836L5.2276 9.82624L5.22931 9.19019L4.60889 9.05039L5.10717 8.65519L4.82967 8.08285L5.44935 8.22613L5.72377 7.65234Z" fill="#F0F0F0" />
    <path d="M7.95326 10.6953L8.22767 11.2691L8.84736 11.1258L8.56982 11.6982L9.06814 12.0934L8.44771 12.2332L8.44939 12.8692L7.95326 12.4713L7.45709 12.8692L7.45881 12.2332L6.83838 12.0934L7.33666 11.6982L7.0592 11.1258L7.67885 11.2691L7.95326 10.6953Z" fill="#F0F0F0" />
    <path d="M6.35912 13.3047L6.57498 13.969H7.27341L6.70834 14.3795L6.9242 15.0438L6.35912 14.6333L5.79404 15.0438L6.0099 14.3795L5.44482 13.969H6.14326L6.35912 13.3047Z" fill="#F0F0F0" />
    <path d="M11.9998 13.7388H12.8694C12.8694 13.7388 13.2462 13.0722 12.8694 12.4344L13.7389 11.5649L13.3042 10.6953H12.8694C12.8694 10.6953 12.652 11.3475 11.7825 11.3475C10.9129 11.3475 10.6955 10.6953 10.6955 10.6953H10.2607L10.6955 11.5649L10.2607 12.4344L10.6955 12.8692C10.6955 12.8692 11.1303 11.9996 11.9998 12.4344C11.9998 12.4344 12.3694 12.9779 11.9998 13.7388Z" fill="#6DA544" />
    <path d="M18.4905 7.47757C18.511 7.37074 18.5219 7.26054 18.5219 7.14773C18.5219 6.37429 18.0169 5.71918 17.3188 5.49316C17.5321 5.92676 17.6524 6.41441 17.6524 6.93035C17.6524 7.10433 17.6384 7.27503 17.6121 7.44164C17.507 7.27238 17.372 7.11773 17.2072 6.98652C16.586 6.4923 15.7372 6.47922 15.1097 6.89543C15.5942 7.00121 16.0626 7.21625 16.477 7.54589C16.8013 7.80402 17.0635 8.15316 17.2642 8.49019L14.6089 9.32163C17.2176 9.7564 19.3915 8.0173 19.3915 8.0173C19.1506 7.53558 18.7765 7.45433 18.4905 7.47757Z" fill="#FFDA44" />
</svg>
