<svg xmlns="http://www.w3.org/2000/svg" viewBox="0 0 24 24">
    <path d="M19.0711 4.92893C22.9763 8.83417 22.9763 15.1658 19.0711 19.0711C15.1658 22.9763 8.83421 22.9763 4.92893 19.0711C1.02369 15.1658 1.02369 8.83421 4.92893 4.92893C8.83417 1.02369 15.1658 1.02369 19.0711 4.92893Z" fill="#6DA544" />
    <path d="M17.3517 16.3477L17.6261 16.9214L18.2458 16.7782L17.9683 17.3505L18.4666 17.7457L17.8462 17.8855L17.8479 18.5216L17.3517 18.1237L16.8555 18.5216L16.8572 17.8855L16.2368 17.7457L16.7351 17.3505L16.4576 16.7782L17.0773 16.9214L17.3517 16.3477Z" fill="#FFDA44" />
    <path d="M14.799 10.2607L15.0734 10.8345L15.6931 10.6913L15.4156 11.2636L15.9139 11.6588L15.2935 11.7986L15.2952 12.4346L14.799 12.0368L14.3028 12.4346L14.3045 11.7986L13.6841 11.6588L14.1824 11.2636L13.9049 10.6913L14.5246 10.8345L14.799 10.2607Z" fill="#FFDA44" />
    <path d="M17.3517 6.78223L17.6261 7.35602L18.2458 7.21273L17.9683 7.78508L18.4666 8.18027L17.8461 8.32008L17.8478 8.95613L17.3517 8.5582L16.8555 8.95613L16.8572 8.32008L16.2368 8.18027L16.7351 7.78508L16.4576 7.21273L17.0772 7.35602L17.3517 6.78223Z" fill="#FFDA44" />
    <path d="M19.5812 9.3916L19.8556 9.96539L20.4753 9.82215L20.1978 10.3945L20.6961 10.7896L20.0757 10.9295L20.0774 11.5655L19.5812 11.1676L19.085 11.5655L19.0867 10.9295L18.4663 10.7896L18.9646 10.3945L18.6871 9.82215L19.3068 9.96539L19.5812 9.3916Z" fill="#FFDA44" />
    <path d="M17.9871 12.4346L18.2029 13.0989H18.9014L18.3363 13.5095L18.5522 14.1737L17.9871 13.7632L17.422 14.1737L17.6378 13.5095L17.0728 13.0989H17.7712L17.9871 12.4346Z" fill="#FFDA44" />
    <path d="M13.0877 14.8259C11.5269 14.8259 10.2616 13.5605 10.2616 11.9998C10.2616 10.439 11.5268 9.17367 13.0877 9.17367C13.5743 9.17367 14.0323 9.29676 14.432 9.51336C13.8049 8.9 12.9473 8.52148 12.0007 8.52148C10.0797 8.52148 8.52246 10.0788 8.52246 11.9997C8.52246 13.9207 10.0797 15.478 12.0007 15.478C12.9472 15.478 13.8049 15.0995 14.432 14.4861C14.0323 14.7028 13.5743 14.8259 13.0877 14.8259Z" fill="#FFDA44" />
    <path d="M8.28914 5.91254C7.98836 5.39285 7.42684 5.04297 6.78324 5.04297C6.13965 5.04297 5.57812 5.39285 5.27734 5.91254H8.28914Z" fill="#FFDA44" />
    <path d="M8.29473 5.92285L6.78305 7.43453L5.27137 5.92285C5.12687 6.17641 5.04395 6.46965 5.04395 6.78238C5.04395 7.74289 5.82258 8.52152 6.78309 8.52152C7.74359 8.52152 8.52223 7.74293 8.52223 6.78238C8.52219 6.46965 8.43922 6.17641 8.29473 5.92285Z" fill="#FFDA44" />
    <path d="M6.34863 7V8.46695C6.48758 8.5027 6.63328 8.52172 6.7834 8.52172C6.93352 8.52172 7.07922 8.50266 7.21816 8.46695V7H6.34863Z" fill="#A2001D" />
</svg>
