<svg xmlns="http://www.w3.org/2000/svg" viewBox="0 0 24 24">
    <path d="M19.0711 4.92893C22.9763 8.83417 22.9763 15.1658 19.0711 19.0711C15.1658 22.9763 8.83421 22.9763 4.92893 19.0711C1.02369 15.1658 1.02369 8.83421 4.92893 4.92893C8.83417 1.02369 15.1658 1.02369 19.0711 4.92893Z" fill="#F0F0F0" />
    <path d="M22.0003 11.9707H11.1601C9.00783 14.123 7.70635 15.7846 6.37744 17.1135L12.0296 17.6229L20.8005 16.7533C21.5659 15.3394 22.0006 13.7203 22.0006 11.9996C22.0006 11.99 22.0003 11.9804 22.0003 11.9707Z" fill="#D80027" />
    <path d="M6.37727 7.18844H20.7684C19.0677 4.09594 15.779 2 12.0004 2C9.24633 2 6.75273 3.11371 4.94434 4.915L6.37727 7.18844Z" fill="#FFDA44" />
    <path d="M6.81236 16.7539C5.91338 17.6529 5.56596 18.4061 4.91553 19.0565C6.72627 20.8747 9.23193 22.0003 12.0008 22.0003C15.8029 22.0003 19.1094 19.8782 20.8006 16.7539H6.81236Z" fill="#0052B4" />
    <path d="M4.92941 4.90039C1.02418 8.80562 1.02418 15.1373 4.92941 19.0426C6.5432 17.4288 8.09527 15.8767 12.0005 11.9715L4.92941 4.90039Z" fill="#6DA544" />
    <path d="M4.63836 11.9712C4.63836 10.5143 5.6623 9.29711 7.02965 8.99852C6.81949 8.95262 6.60145 8.92773 6.37746 8.92773C4.69656 8.92773 3.33398 10.2903 3.33398 11.9712C3.33398 13.6521 4.69656 15.0147 6.37746 15.0147C6.60141 15.0147 6.81945 14.9898 7.02965 14.9439C5.6623 14.6453 4.63836 13.4282 4.63836 11.9712Z" fill="#F0F0F0" />
    <path d="M6.99629 9.3623L7.1582 9.86051H7.68203L7.2582 10.1684L7.42012 10.6666L6.99629 10.3588L6.57246 10.6666L6.73437 10.1684L6.31055 9.86051H6.83437L6.99629 9.3623Z" fill="#F0F0F0" />
    <path d="M6.99629 10.667L7.1582 11.1652H7.68203L7.2582 11.4731L7.42012 11.9714L6.99629 11.6634L6.57246 11.9714L6.73437 11.4731L6.31055 11.1652H6.83437L6.99629 10.667Z" fill="#F0F0F0" />
    <path d="M6.99629 11.9707L7.1582 12.4689H7.68203L7.2582 12.7768L7.42012 13.275L6.99629 12.9671L6.57246 13.275L6.73437 12.7768L6.31055 12.4689H6.83437L6.99629 11.9707Z" fill="#F0F0F0" />
    <path d="M6.99629 13.2754L7.1582 13.7736H7.68203L7.2582 14.0815L7.42012 14.5797L6.99629 14.2718L6.57246 14.5797L6.73437 14.0815L6.31055 13.7736H6.83437L6.99629 13.2754Z" fill="#F0F0F0" />
</svg>
