<svg xmlns="http://www.w3.org/2000/svg" viewBox="0 0 24 24">
    <path d="M22 12C22 17.5228 17.5228 22 12 22C6.47719 22 2 17.5228 2 12C2 12.0024 12 2.00109 12 2C17.5228 2 22 6.47719 22 12Z" fill="#0052B4" />
    <path d="M11.9731 12.0004H11.9999C11.9999 11.9914 11.9999 11.9827 11.9999 11.9736C11.991 11.9826 11.9821 11.9915 11.9731 12.0004Z" fill="#F0F0F0" />
    <path d="M12 7.21738C12 5.45781 12 4.30488 12 2H11.9983C6.47621 2.00094 2 6.4777 2 12H7.21738V9.06207L10.1553 12H11.9733C11.9822 11.9911 11.9911 11.9822 12 11.9732C12 11.2995 12 10.6984 12 10.1554L9.06203 7.21738H12Z" fill="#F0F0F0" />
    <path d="M7.05904 3.30469C5.49502 4.19527 4.19475 5.49551 3.3042 7.05953V12.0004H5.91291V5.91348V5.9134H11.9999C11.9999 5.09063 11.9999 4.3068 11.9999 3.30469H7.05904Z" fill="#D80027" />
    <path d="M11.9999 10.7706L8.44697 7.21777H7.21729V7.21785L11.9998 12.0004H11.9999C11.9999 12.0004 11.9999 11.1524 11.9999 10.7706Z" fill="#D80027" />
    <path d="M15.4785 12L15.6635 12.5694H16.2622L15.7779 12.9213L15.9629 13.4907L15.4785 13.1388L14.9941 13.4907L15.1791 12.9213L14.6948 12.5694H15.2935L15.4785 12Z" fill="#F0F0F0" />
    <path d="M13.0188 13.0188L13.5521 13.2905L13.9755 12.8672L13.8818 13.4585L14.4153 13.7303L13.8239 13.8239L13.7303 14.4153L13.4585 13.8818L12.8672 13.9755L13.2906 13.5522L13.0188 13.0188Z" fill="#F0F0F0" />
    <path d="M12 15.4779L12.5694 15.2929L12.5695 14.6943L12.9213 15.1786L13.4907 14.9936L13.1388 15.4779L13.4907 15.9623L12.9213 15.7773L12.5695 16.2616V15.663L12 15.4779Z" fill="#F0F0F0" />
    <path d="M13.0188 17.9375L13.2905 17.4041L12.8672 16.9808L13.4585 17.0745L13.7303 16.541L13.8239 17.1323L14.4153 17.2259L13.8818 17.4978L13.9755 18.0891L13.5521 17.6657L13.0188 17.9375Z" fill="#F0F0F0" />
    <path d="M15.478 18.9565L15.293 18.3871H14.6943L15.1787 18.0352L14.9937 17.4658L15.478 17.8177L15.9624 17.4658L15.7774 18.0352L16.2617 18.3871H15.6631L15.478 18.9565Z" fill="#F0F0F0" />
    <path d="M17.9375 17.9375L17.4041 17.6658L16.9808 18.0891L17.0745 17.4978L16.541 17.226L17.1323 17.1323L17.226 16.541L17.4978 17.0745L18.0891 16.9808L17.6657 17.4041L17.9375 17.9375Z" fill="#F0F0F0" />
    <path d="M18.9565 15.4779L18.3871 15.663V16.2616L18.0352 15.7773L17.4658 15.9623L17.8177 15.4779L17.4658 14.9936L18.0352 15.1786L18.3871 14.6943V15.2929L18.9565 15.4779Z" fill="#F0F0F0" />
    <path d="M17.9375 13.0188L17.6658 13.5521L18.0891 13.9755L17.4978 13.8818L17.226 14.4153L17.1323 13.8239L16.541 13.7302L17.0745 13.4585L16.9808 12.8672L17.4041 13.2905L17.9375 13.0188Z" fill="#F0F0F0" />
</svg>
