<svg xmlns="http://www.w3.org/2000/svg" viewBox="0 0 24 24">
    <path d="M19.0711 4.92893C22.9763 8.83417 22.9763 15.1658 19.0711 19.0711C15.1658 22.9763 8.83421 22.9763 4.92893 19.0711C1.02369 15.1658 1.02369 8.83421 4.92893 4.92893C8.83417 1.02369 15.1658 1.02369 19.0711 4.92893Z" fill="#FCFCFC" />
    <path d="M15.4826 10.4701C15.4826 8.35512 13.7681 6.64062 11.6531 6.64062C10.0924 6.64062 8.75074 7.57461 8.15418 8.91383L7.68187 10.6261L8.11664 11.0609L7.24707 12.8L8.11664 13.2348L7.68187 13.6696V14.1043L8.11664 14.5391V15.4087L8.55141 15.8434L9.85574 15.4087C9.85574 15.4087 9.85574 15.8434 10.2905 16.2782C10.7253 16.713 11.1601 17.5826 11.1601 17.5826C11.1601 17.5826 12.4645 18.0174 13.334 16.713C14.2036 15.4087 15.0732 14.9739 15.0732 14.9739L14.235 13.2976C15.0015 12.5975 15.4826 11.5902 15.4826 10.4701Z" fill="black" />
    <path d="M15.7946 11.9344C17.5614 11.6364 17.8557 8.17676 17.8557 8.17676H15.4209C16.6818 11.2202 15.3621 11.425 15.3621 11.425C15.1833 11.292 8.78492 8.26086 8.58211 8.18379C8.53324 8.24918 8.35336 8.42094 8.13469 8.9557C7.91598 9.49047 7.8623 9.97156 7.8623 9.97156C7.96473 10.0383 14.7598 12.411 14.9394 12.4308C15.2958 12.6638 15.7344 13.3607 15.4893 15.4271L17.8328 14.7666C17.8329 14.7666 17.0375 12.6509 15.7946 11.9344Z" fill="#ACABB1" />
</svg>
