<svg xmlns="http://www.w3.org/2000/svg" viewBox="0 0 24 24">
    <path d="M22 12C22 10.7768 21.78 9.605 21.378 8.52172L12 8.08691L2.62199 8.52168C2.22004 9.605 2 10.7768 2 12C2 13.2232 2.22004 14.3949 2.62199 15.4782L12 15.913L21.378 15.4782C21.78 14.3949 22 13.2232 22 12Z" fill="#F0F0F0" />
    <path d="M12.0001 22.0003C16.2997 22.0003 19.9652 19.2865 21.3781 15.4785H2.62207C4.035 19.2865 7.70043 22.0003 12.0001 22.0003Z" fill="#0052B4" />
    <path d="M2.62207 8.52176H21.3781C19.9652 4.71375 16.2997 2 12.0001 2C7.70043 2 4.035 4.71375 2.62207 8.52176Z" fill="#D80027" />
    <path d="M14.6088 8.9566H12.8696L13.1595 6.78266L14.3189 5.91309L15.4783 6.78266V8.5218L14.6088 8.9566Z" fill="#338AF3" />
    <path d="M9.3915 8.9566H11.1306L10.8408 6.78266L9.68135 5.91309L8.52197 6.78266V8.5218L9.3915 8.9566Z" fill="#338AF3" />
    <path d="M13.1592 8.9566H10.8403V6.78266L11.9998 5.91309L13.1592 6.78266V8.9566Z" fill="#0052B4" />
    <path d="M8.52197 8.52148V13.3041C8.52197 14.4429 9.07205 15.4556 9.92049 16.0905L10.5292 15.9382L11.2973 16.7109C11.5245 16.7577 11.7595 16.7823 12.0003 16.7823C12.2397 16.7823 12.4736 16.758 12.6995 16.7117L13.5763 15.9816L14.0799 16.0891C14.928 15.4542 15.4785 14.4425 15.4785 13.3041V8.52148H8.52197Z" fill="#F0F0F0" />
    <path d="M8.52197 8.52148H9.91326V9.91277H8.52197V8.52148Z" fill="#D80027" />
    <path d="M11.3042 8.52148H12.6955V9.91277H11.3042V8.52148Z" fill="#D80027" />
    <path d="M14.0869 8.52148H15.4782V9.91277H14.0869V8.52148Z" fill="#D80027" />
    <path d="M9.91309 9.91309H11.3044V11.3044H9.91309V9.91309Z" fill="#D80027" />
    <path d="M12.6958 9.91309H14.0871V11.3044H12.6958V9.91309Z" fill="#D80027" />
    <path d="M8.52197 11.3037H9.91326V12.695H8.52197V11.3037Z" fill="#D80027" />
    <path d="M9.91309 12.6953H11.3044V14.0866H9.91309V12.6953Z" fill="#D80027" />
    <path d="M11.3042 11.3037H12.6955V12.695H11.3042V11.3037Z" fill="#D80027" />
    <path d="M14.0869 11.3037H15.4782V12.695H14.0869V11.3037Z" fill="#D80027" />
    <path d="M12.6958 12.6953H14.0871V14.0866H12.6958V12.6953Z" fill="#D80027" />
    <path d="M11.3042 14.0869H12.6955V15.4782H11.3042V14.0869Z" fill="#D80027" />
    <path d="M9.91285 14.0869H8.61133C8.7307 14.6041 8.96539 15.0773 9.28719 15.4782H9.91285V14.0869Z" fill="#D80027" />
    <path d="M14.0869 15.4782H14.7125C15.0344 15.0773 15.269 14.6041 15.3884 14.0869H14.0869V15.4782Z" fill="#D80027" />
    <path d="M9.91309 15.4775V16.0846C10.3177 16.3891 10.7906 16.6074 11.3044 16.7122V15.4775H9.91309Z" fill="#D80027" />
    <path d="M12.6958 15.4775V16.7122C13.2096 16.6075 13.6824 16.3891 14.0871 16.0846V15.4775H12.6958Z" fill="#D80027" />
</svg>
