<svg xmlns="http://www.w3.org/2000/svg" viewBox="0 0 24 24">
    <path d="M19.071 4.92892C22.9762 8.83415 22.9762 15.1658 19.071 19.071C15.1658 22.9762 8.83415 22.9762 4.92892 19.071C1.02369 15.1658 1.02369 8.83415 4.92892 4.92892C8.83415 1.02369 15.1658 1.02369 19.071 4.92892Z" fill="#F0F0F0" />
    <path d="M11.9999 2C8.72838 2 5.82393 3.57121 3.99951 6H20.0003C18.176 3.57117 15.2715 2 11.9999 2Z" fill="#0052B4" />
    <path d="M11.9999 22C15.2715 22 18.176 20.4288 20.0004 18H3.99951C5.82389 20.4288 8.72838 22 11.9999 22Z" fill="#0052B4" />
    <path d="M2 12C2 12.685 2.06906 13.3538 2.20027 14H21.7998C21.931 13.3538 22 12.685 22 12C22 11.315 21.9309 10.6462 21.7998 10H2.20027C2.06906 10.6462 2 11.315 2 12Z" fill="#0052B4" />
    <path d="M4.9289 4.92871C1.0237 8.83391 1.0237 15.1656 4.9289 19.0709C6.54269 17.4571 8.09472 15.905 12 11.9998L4.9289 4.92871Z" fill="#D80027" />
    <path d="M6.04713 9.3916L6.69455 11.3844H8.7901L7.0949 12.6161L7.74232 14.6089L6.04713 13.3773L4.35186 14.6089L4.99943 12.6161L3.3042 11.3844H5.39959L6.04713 9.3916Z" fill="#F0F0F0" />
</svg>
