<svg xmlns="http://www.w3.org/2000/svg" viewBox="0 0 24 24">
    <path d="M19.9002 4.92893C23.9752 8.83417 23.9752 15.1658 19.9002 19.0711C15.8252 22.9763 9.21826 22.9763 5.14319 19.0711C1.06816 15.1658 1.06816 8.83421 5.14319 4.92893C9.21823 1.02369 15.8251 1.02369 19.9002 4.92893Z" fill="#FFDA44" />
    <path d="M12.5225 22C15.9465 22 18.9851 20.4196 20.8879 17.9785H4.15723C6.05994 20.4196 9.09863 22 12.5225 22Z" fill="#0052B4" />
    <path d="M22.957 12C22.957 6.47719 18.2851 2 12.5222 2C6.75925 2 2.0874 6.47719 2.0874 12C2.0874 13.1825 2.30217 14.3169 2.69539 15.3699H22.3489C22.7422 14.3169 22.957 13.1825 22.957 12Z" fill="#0052B4" />
    <path d="M9.22985 8.41309L9.79288 10.0737H11.6151L10.1409 11.1002L10.704 12.7609L9.22985 11.7345L7.75573 12.7609L8.31884 11.1002L6.84473 10.0737H8.66682L9.22985 8.41309Z" fill="#F0F0F0" />
    <path d="M6.10047 6.67383L6.43829 7.67023H7.53162L6.64715 8.28609L6.98498 9.28254L6.10047 8.66668L5.216 9.28254L5.55386 8.28609L4.66943 7.67023H5.76272L6.10047 6.67383Z" fill="#F0F0F0" />
</svg>
