<svg xmlns="http://www.w3.org/2000/svg" viewBox="0 0 24 24">
    <path d="M19.0711 4.92893C22.9763 8.83417 22.9763 15.1658 19.0711 19.0711C15.1658 22.9763 8.83421 22.9763 4.92893 19.0711C1.02369 15.1658 1.02369 8.83421 4.92893 4.92893C8.83417 1.02369 15.1658 1.02369 19.0711 4.92893Z" fill="#FCFCFC" />
    <path d="M17.6529 10.6953C17.3486 10.6953 16.9718 10.6953 16.3486 10.6953C16.3486 13.0966 14.402 15.0431 12.0008 15.0431C9.59949 15.0431 7.65297 13.0966 7.65297 10.6953C7.23266 10.6953 6.76887 10.6953 6.34863 10.6953C6.34863 13.2818 8.08598 15.4626 10.4575 16.1342C10.1975 16.6281 10.2371 17.2499 10.6085 17.7134C11.0963 17.3224 11.6013 16.9177 12.0298 16.5744C12.4582 16.9177 12.9633 17.3225 13.4511 17.7134C13.8261 17.2453 13.863 16.6156 13.5944 16.1193C15.9399 15.4312 17.6529 13.2634 17.6529 10.6953Z" fill="#6DA544" />
    <path d="M8.52246 10.2612C8.52246 10.2612 8.52246 12.4352 10.6964 12.4352L11.1311 12.8699H12.0007C12.0007 12.8699 12.4355 11.5656 13.305 11.5656C13.305 11.5656 13.305 10.696 14.1746 10.696C15.0442 10.696 15.4789 10.696 15.4789 10.696C15.4789 10.696 15.0442 8.95688 17.2181 7.65254L16.3485 7.21777C16.3485 7.21777 13.305 9.39168 11.1311 8.95691V9.82648H10.2616L9.8268 9.39172L8.52246 10.2612Z" fill="#FFDA44" />
</svg>
