<svg xmlns="http://www.w3.org/2000/svg" viewBox="0 0 24 24">
    <path d="M20.8895 7.41461C20.4274 6.51934 19.8218 5.67902 19.0713 4.92855C18.3208 4.17805 17.4804 3.57238 16.5852 3.11035L9.54031 9.54027L3.11035 16.5852C3.57242 17.4804 4.17809 18.3208 4.92855 19.0712C5.67902 19.8217 6.51938 20.4274 7.41461 20.8895L14.4595 14.4595L20.8895 7.41461Z" fill="#FFDA44" />
    <path d="M4.92863 19.0713C5.34812 19.4908 5.79574 19.865 6.26523 20.1944L20.1943 6.26523C19.865 5.79574 19.4908 5.34812 19.0713 4.92863C18.6518 4.50914 18.2042 4.13504 17.7347 3.80566L3.80566 17.7347C4.135 18.2041 4.5091 18.6518 4.92863 19.0713Z" fill="#D80027" />
    <path d="M4.92868 4.92859C1.77372 8.08355 1.16805 12.8218 3.11047 16.5852L16.5853 3.11043C12.8218 1.16804 8.0836 1.77379 4.92868 4.92859Z" fill="#338AF3" />
    <path d="M19.0716 19.0716C22.2266 15.9167 22.8322 11.1785 20.8899 7.41504L7.41504 20.8898C11.1785 22.8322 15.9168 22.2266 19.0716 19.0716Z" fill="#338AF3" />
    <path d="M7.32939 5.04297L7.869 6.70379H9.61525L8.20252 7.7302L8.74213 9.39098L7.32939 8.36453L5.91658 9.39098L6.45627 7.7302L5.04346 6.70379H6.78971L7.32939 5.04297Z" fill="#FFDA44" />
</svg>
