<svg xmlns="http://www.w3.org/2000/svg" viewBox="0 0 24 24">
    <path d="M11.1302 12.8696C11.1302 12.8696 4.93457 4.92754 4.92871 4.92895C6.73832 3.1193 9.23836 2 11.9998 2C17.5226 2 21.9998 6.47719 21.9998 12L11.1302 12.8696Z" fill="#338AF3" />
    <path d="M11.1302 12C11.1302 12 4.93457 19.0725 4.92871 19.0711C6.73832 20.8807 9.23836 22 11.9998 22C17.5226 22 21.9998 17.5228 21.9998 12H11.1302Z" fill="#6DA544" />
    <path d="M4.92893 4.92871C1.02369 8.83395 1.02369 15.1656 4.92893 19.0709C6.54271 17.4571 8.09478 15.905 12 11.9998L4.92893 4.92871Z" fill="#F0F0F0" />
    <path d="M6.04713 9.3916L6.69459 11.3844H8.79014L7.0949 12.6161L7.74232 14.609L6.04713 13.3773L4.35186 14.609L4.99943 12.6161L3.3042 11.3844H5.39959L6.04713 9.3916Z" fill="#D80027" />
</svg>
