<svg xmlns="http://www.w3.org/2000/svg" viewBox="0 0 24 24">
    <path d="M19.0711 4.92893C22.9763 8.83417 22.9763 15.1658 19.0711 19.0711C15.1658 22.9763 8.83421 22.9763 4.92893 19.0711C1.02369 15.1658 1.02369 8.83421 4.92893 4.92893C8.83417 1.02369 15.1658 1.02369 19.0711 4.92893Z" fill="#F0F0F0" />
    <path d="M13.957 21.8076C17.9103 21.0234 21.0244 17.9093 21.8086 13.9561H13.957V21.8076Z" fill="#496E2D" />
    <path d="M2.19238 13.9561C2.97656 17.9093 6.0907 21.0234 10.0439 21.8076V13.9561H2.19238Z" fill="#496E2D" />
    <path d="M21.8086 10.0439C21.0244 6.09074 17.9103 2.9766 13.957 2.19238V10.0439H21.8086Z" fill="#496E2D" />
    <path d="M10.0439 2.19238C6.0907 2.9766 2.97656 6.09074 2.19238 10.0439H10.0439V2.19238Z" fill="#496E2D" />
    <path d="M11.3483 13.9561H10.0439V21.8076C10.4696 21.892 10.905 21.9492 11.3483 21.9778V13.9561Z" fill="#FFDA44" />
    <path d="M11.3483 10.0432V2.02148C10.905 2.05 10.4696 2.10723 10.0439 2.19164V10.0432H11.3483Z" fill="#FFDA44" />
    <path d="M12.653 2.02176C12.4373 2.00781 12.22 2 12.0008 2C11.7816 2 11.5643 2.00781 11.3486 2.02176V10.0435H12.653V2.02176H12.653Z" fill="black" />
    <path d="M11.3486 21.9778C11.5643 21.9917 11.7816 21.9995 12.0008 21.9995C12.22 21.9995 12.4373 21.9917 12.653 21.9778V13.9561H11.3487V21.9778H11.3486Z" fill="black" />
    <path d="M10.0442 11.3483V10.0439H2.19262C2.10816 10.4696 2.05098 10.905 2.02246 11.3483H10.0442Z" fill="#FFDA44" />
    <path d="M13.957 11.3483H21.9788C21.9503 10.905 21.893 10.4696 21.8086 10.0439H13.9571V11.3483H13.957Z" fill="#FFDA44" />
    <path d="M13.957 12.652H21.9788C21.9927 12.4364 22.0005 12.219 22.0005 11.9998C22.0005 11.7807 21.9927 11.5633 21.9787 11.3477H13.957V12.652Z" fill="black" />
    <path d="M2.02225 11.3477C2.00834 11.5633 2.00049 11.7807 2.00049 11.9998C2.00049 12.219 2.00834 12.4364 2.02225 12.652H10.044V11.3477H2.02225V11.3477Z" fill="black" />
    <path d="M15.3827 8.61857C17.2504 10.4863 17.2504 13.5145 15.3827 15.3822C13.515 17.2499 10.4868 17.2499 8.61906 15.3822C6.75133 13.5145 6.75133 10.4863 8.61906 8.61857C10.4868 6.75084 13.515 6.75084 15.3827 8.61857Z" fill="#D80027" />
    <path d="M13.0904 12.534C12.7347 11.8226 12.2723 11.1015 12.2723 11.1015C12.2723 11.1015 12.2838 10.7732 12.2838 10.5775C12.2838 10.2829 12.0449 10.0439 11.7502 10.0439C11.471 10.0439 11.2422 10.2584 11.2189 10.5315C10.9994 10.5459 10.8257 10.728 10.8257 10.9511C10.8257 11.1133 10.9176 11.2539 11.0521 11.3242C11.119 11.1678 11.2499 11.0457 11.4119 10.99C11.4383 11.0116 11.4667 11.0309 11.4969 11.0473L11.5653 11.08C11.5653 11.08 11.3118 11.7945 11.3118 12.1783C11.3118 13.2574 12.0233 13.5902 12.0233 13.5902V13.6013L11.6676 13.957H12.379V13.2455L12.7347 13.6012C12.7379 13.5946 13.4086 13.1704 13.0904 12.534Z" fill="#496E2D" />
    <path d="M12.0006 8.08691L12.1625 8.58512H12.6863L12.2626 8.89305L12.4245 9.39125L12.0006 9.08336L11.5768 9.39125L11.7387 8.89305L11.3149 8.58512H11.8388L12.0006 8.08691Z" fill="#496E2D" />
    <path d="M9.70043 8.83402L10.1242 9.14195L10.548 8.83398L10.3861 9.33227L10.81 9.64012L10.2861 9.64016L10.1242 10.1384L9.9623 9.64016L9.43848 9.64012L9.86227 9.33219L9.70043 8.83402Z" fill="#496E2D" />
    <path d="M8.2793 10.7912H8.80309L8.965 10.293L9.12687 10.7912L9.65074 10.7911L9.22695 11.0991L9.38887 11.5973L8.965 11.2894L8.54121 11.5973L8.70305 11.0991L8.2793 10.7912Z" fill="#496E2D" />
    <path d="M8.2793 13.2094L8.70305 12.9016L8.54117 12.4033L8.965 12.7112L9.38883 12.4033L9.22695 12.9015L9.65078 13.2095L9.12687 13.2095L8.965 13.7077L8.80309 13.2094H8.2793Z" fill="#496E2D" />
    <path d="M9.70047 15.1656L9.8623 14.6675L9.43848 14.3596H9.96234L10.1243 13.8613L10.2861 14.3595H10.81L10.3862 14.6675L10.548 15.1657L10.1242 14.8577L9.70047 15.1656Z" fill="#496E2D" />
    <path d="M12.0006 15.9127L11.8388 15.4146H11.3149L11.7387 15.1066L11.5768 14.6084L12.0006 14.9163L12.4244 14.6084L12.2626 15.1066L12.6863 15.4146L12.1625 15.4146L12.0006 15.9127Z" fill="#496E2D" />
    <path d="M14.3004 15.1656L13.8767 14.8577L13.4529 15.1657L13.6147 14.6675L13.1909 14.3596L13.7148 14.3595L13.8766 13.8613L14.0386 14.3596H14.5624L14.1386 14.6675L14.3004 15.1656Z" fill="#496E2D" />
    <path d="M15.7221 13.2094H15.1983L15.0364 13.7076L14.8745 13.2095H14.3506L14.7744 12.9015L14.6125 12.4033L15.0364 12.7112L15.4601 12.4033L15.2983 12.9015L15.7221 13.2094Z" fill="#496E2D" />
    <path d="M15.7221 10.7911L15.2983 11.099L15.4602 11.5972L15.0364 11.2893L14.6125 11.5973L14.7744 11.0991L14.3506 10.7912L14.8745 10.7911L15.0363 10.293L15.1983 10.7911H15.7221Z" fill="#496E2D" />
    <path d="M14.3004 8.83398L14.1386 9.33215L14.5624 9.64008H14.0386L13.8767 10.1383L13.7148 9.64012L13.1909 9.64016L13.6147 9.33215L13.4529 8.83402L13.8767 9.14188L14.3004 8.83398Z" fill="#496E2D" />
</svg>
