<svg xmlns="http://www.w3.org/2000/svg" viewBox="0 0 24 24">
    <path d="M19.0711 4.92893C22.9763 8.83417 22.9763 15.1658 19.0711 19.0711C15.1658 22.9763 8.83421 22.9763 4.92893 19.0711C1.02369 15.1658 1.02369 8.83421 4.92893 4.92893C8.83417 1.02369 15.1658 1.02369 19.0711 4.92893Z" fill="#F0F0F0" />
    <path d="M2.34521 14.6084C3.26857 18.0343 5.96611 20.7319 9.39205 21.6552V14.6084H2.34521Z" fill="#D80027" />
    <path d="M9.39201 2.34473C5.96611 3.26805 3.26854 5.96562 2.34521 9.39152H9.39205V2.34473H9.39201Z" fill="#0052B4" />
    <path d="M21.6562 9.39152C20.7329 5.96562 18.0353 3.26805 14.6094 2.34473V9.39156H21.6562V9.39152Z" fill="#D80027" />
    <path d="M14.6094 21.6552C18.0353 20.7319 20.7329 18.0343 21.6562 14.6084H14.6094V21.6552Z" fill="#0052B4" />
    <path d="M14.6095 12.0003C14.6095 13.4411 13.4416 14.609 12.0008 14.609C10.5601 14.609 9.39209 13.4411 9.39209 12.0003C9.39209 10.5595 12.0008 9.3916 12.0008 9.3916C12.0008 9.3916 14.6095 10.5595 14.6095 12.0003Z" fill="#496E2D" />
    <path d="M9.39209 12.0003C9.39209 10.5595 10.5601 9.3916 12.0008 9.3916C13.4416 9.3916 14.6095 10.5595 14.6095 12.0003" fill="#0052B4" />
    <path d="M10.5332 10.6953V12.3257C10.5332 13.1362 11.1902 13.7931 12.0006 13.7931C12.811 13.7931 13.468 13.1362 13.468 12.3257V10.6953H10.5332Z" fill="#D80027" />
</svg>
