<svg xmlns="http://www.w3.org/2000/svg" viewBox="0 0 24 24">
    <path d="M2 12C2 6.47719 6.47719 2 12 2C17.5228 2 22 6.47719 22 12L12 12.8696L2 12Z" fill="#FFDA44" />
    <path d="M3.33789 16.9998C5.06699 19.9888 8.2984 21.9998 11.9998 21.9998C15.7011 21.9998 18.9325 19.9888 20.6616 16.9998L11.9998 16.3477L3.33789 16.9998Z" fill="#D80027" />
    <path d="M20.6619 17C21.5127 15.5291 22 13.8215 22 12H2C2 13.8215 2.48727 15.5291 3.33812 17H20.6619Z" fill="#0052B4" />
    <path d="M14.4597 9.54024C15.8181 10.8986 15.8181 13.1009 14.4597 14.4592C13.1014 15.8176 10.8991 15.8176 9.54073 14.4592C8.18239 13.1009 8.18239 10.8986 9.54073 9.54024C10.8991 8.1819 13.1014 8.1819 14.4597 9.54024Z" fill="#FFDA44" />
    <path d="M12.0001 14.1736C10.8014 14.1736 9.82617 13.1984 9.82617 11.9997V10.6954C9.82617 9.49668 10.8014 8.52148 12.0001 8.52148C13.1987 8.52148 14.174 9.49672 14.174 10.6954V11.9997C14.174 13.1984 13.1988 14.1736 12.0001 14.1736Z" fill="#338AF3" />
    <path d="M15.478 6.78266H12.8693C12.8693 6.30242 12.48 5.91309 11.9998 5.91309C11.5195 5.91309 11.1302 6.30242 11.1302 6.78266H8.52148C8.52148 7.26293 8.9398 7.65223 9.42 7.65223H9.39105C9.39105 8.1325 9.78035 8.5218 10.2606 8.5218C10.2606 9.00207 10.6499 9.39137 11.1302 9.39137H12.8693C13.3496 9.39137 13.7389 9.00207 13.7389 8.5218C14.2192 8.5218 14.6085 8.1325 14.6085 7.65223H14.5795C15.0598 7.65223 15.478 7.26289 15.478 6.78266Z" fill="black" />
</svg>
