<svg xmlns="http://www.w3.org/2000/svg" viewBox="0 0 24 24">
    <path d="M19.0711 4.92893C22.9763 8.83417 22.9763 15.1658 19.0711 19.0711C15.1658 22.9763 8.83421 22.9763 4.92893 19.0711C1.02369 15.1658 1.02369 8.83421 4.92893 4.92893C8.83417 1.02369 15.1658 1.02369 19.0711 4.92893Z" fill="#F0F0F0" />
    <path d="M12.0004 2C8.0358 2 4.61018 4.30723 2.99268 7.65219H21.0081C19.3906 4.30723 15.965 2 12.0004 2Z" fill="#0052B4" />
    <path d="M12.0004 21.9998C15.965 21.9998 19.3906 19.6926 21.0081 16.3477H2.99268C4.61018 19.6926 8.0358 21.9998 12.0004 21.9998Z" fill="#0052B4" />
    <path d="M9.99268 12.4343L12.0009 8.95605L14.0091 12.4343H9.99268Z" fill="#FFDA44" />
    <path d="M14.6095 13.5829L12.0008 14.8872L9.39209 13.5829V11.8438H14.6095V13.5829Z" fill="#6DA544" />
    <path d="M14.4602 9.10547L13.5379 10.0278C13.9313 10.4212 14.1746 10.9646 14.1746 11.565C14.1746 12.7656 13.2013 13.7389 12.0007 13.7389C10.8001 13.7389 9.8268 12.7655 9.8268 11.565C9.8268 10.9646 10.0702 10.4212 10.4636 10.0278L9.54125 9.10547C8.91176 9.73484 8.52246 10.6044 8.52246 11.565C8.52246 13.486 10.0797 15.0432 12.0007 15.0432C13.9217 15.0432 15.4789 13.4859 15.4789 11.565C15.4789 10.6044 15.0896 9.73484 14.4602 9.10547Z" fill="#FFDA44" />
</svg>
