<svg xmlns="http://www.w3.org/2000/svg" viewBox="0 0 24 24">
    <path d="M19.0711 4.92893C22.9763 8.83417 22.9763 15.1658 19.0711 19.0711C15.1658 22.9763 8.83421 22.9763 4.92893 19.0711C1.02369 15.1658 1.02369 8.83421 4.92893 4.92893C8.83417 1.02369 15.1658 1.02369 19.0711 4.92893Z" fill="#F0F0F0" />
    <path d="M8.08738 8.52176H21.3784C19.9655 4.71375 16.3 2 12.0004 2C9.23895 2 6.73922 3.11949 4.92969 4.92926L8.08738 8.52176Z" fill="#6DA544" />
    <path d="M8.08738 15.4785H21.3784C19.9655 19.2865 16.3 22.0003 12.0004 22.0003C9.23895 22.0003 6.73922 20.8808 4.92969 19.071L8.08738 15.4785Z" fill="#D80027" />
    <path d="M4.92941 4.92871C1.02418 8.83395 1.02418 15.1656 4.92941 19.0709C6.5432 17.4571 8.09527 15.905 12.0005 11.9998L4.92941 4.92871Z" fill="#0052B4" />
    <path d="M13.7397 10.2607V12.4346C13.7397 13.7659 15.4789 14.1738 15.4789 14.1738C15.4789 14.1738 17.218 13.7659 17.218 12.4346V10.2607H13.7397Z" fill="#DEDDE0" />
    <path d="M15.0439 12.0439H15.9135V13.3048H15.0439V12.0439Z" fill="#786145" />
    <path d="M16.3482 11.5649C16.3482 11.0846 15.9589 10.6953 15.4787 10.6953C14.9984 10.6953 14.6091 11.0846 14.6091 11.5649C14.369 11.5649 14.1743 11.7595 14.1743 11.9996C14.1743 12.2398 14.369 12.4344 14.6091 12.4344C14.7517 12.4344 16.2056 12.4344 16.3482 12.4344C16.5883 12.4344 16.783 12.2398 16.783 11.9996C16.783 11.7595 16.5884 11.5649 16.3482 11.5649Z" fill="#6DA544" />
</svg>
