<svg xmlns="http://www.w3.org/2000/svg" viewBox="0 0 24 24">
    <path d="M11.1302 11.1309C11.1302 11.1309 4.93457 19.0729 4.92871 19.0715C6.73832 20.8811 9.23836 22.0004 11.9998 22.0004C17.5226 22.0004 21.9998 17.5232 21.9998 12.0004L11.1302 11.1309Z" fill="#338AF3" />
    <path d="M11.1302 12C11.1302 12 4.93457 4.92754 4.92871 4.92895C6.73832 3.1193 9.23836 2 11.9998 2C17.5226 2 21.9998 6.47719 21.9998 12H11.1302Z" fill="#6DA544" />
    <path d="M4.92893 4.92871C1.02369 8.83395 1.02369 15.1656 4.92893 19.0709C4.92865 19.0725 22 11.9998 22 11.9998L4.92893 4.92871Z" fill="#D80027" />
    <path d="M7.2175 7.86914C5.29957 7.86914 3.73926 9.42949 3.73926 11.3474V12.6517C3.73926 14.5696 5.29961 16.13 7.2175 16.13C9.13539 16.13 10.6957 14.5696 10.6957 12.6517V11.3474C10.6958 9.42949 9.13543 7.86914 7.2175 7.86914ZM9.39141 12.6518C9.39141 13.6233 8.7507 14.4479 7.86965 14.7256V13.3039L8.79246 12.3811L7.87016 11.4588L7.86965 11.1306V10.6953H6.56535V11.9996L5.64316 12.9217L6.56535 13.8439V14.7256C5.6843 14.4479 5.04359 13.6234 5.04359 12.6518V11.3475C5.04359 10.1487 6.01883 9.17355 7.2175 9.17355C8.41617 9.17355 9.39141 10.1488 9.39141 11.3475V12.6518Z" fill="#FFDA44" />
</svg>
