<svg xmlns="http://www.w3.org/2000/svg" viewBox="0 0 24 24">
    <path d="M21.0077 16.3482C21.6434 15.0336 22 13.5586 22 12.0004C22 10.4422 21.6434 8.96723 21.0077 7.65258L12 7.21777L2.99227 7.65254C2.35656 8.96723 2 10.4422 2 12.0004C2 13.5586 2.35656 15.0336 2.99227 16.3482L12 16.783L21.0077 16.3482Z" fill="#FFDA44" />
    <path d="M11.9999 2C8.03531 2 4.60969 4.30723 2.99219 7.65219H21.0076C19.3902 4.30723 15.9645 2 11.9999 2Z" fill="black" />
    <path d="M11.9999 21.9998C8.03531 21.9998 4.60969 19.6926 2.99219 16.3477H21.0076C19.3902 19.6926 15.9645 21.9998 11.9999 21.9998Z" fill="#0052B4" />
    <path d="M21.5278 8.95605H2.47223C2.1659 9.91578 2 10.9382 2 11.9995C2 13.0608 2.1659 14.0833 2.47223 15.043H21.5277C21.8341 14.0833 22 13.0608 22 11.9995C22 10.9382 21.8341 9.91578 21.5278 8.95605Z" fill="#A2001D" />
    <path d="M5.47803 11.5654H18.5215V12.435H5.47803V11.5654Z" fill="#FFDA44" />
    <path d="M7.21729 9.82617H16.7825V10.6957H7.21729V9.82617Z" fill="#FFDA44" />
    <path d="M16.8446 12.0003C16.8446 12.0003 14.6085 14.609 11.9998 14.609C9.39115 14.609 9.39111 12.0003 9.39111 12.0003C9.39111 12.0003 9.39111 9.3916 11.9998 9.3916C14.6085 9.3916 16.8446 12.0003 16.8446 12.0003Z" fill="#F0F0F0" />
    <path d="M12 14.609C9.39129 14.609 7.15527 12.0003 7.15527 12.0003C7.15527 12.0003 9.39129 9.3916 12 9.3916" fill="black" />
    <path d="M10.2607 11.1309H11.1303V12.87H10.2607V11.1309Z" fill="#F0F0F0" />
    <path d="M12.8696 11.1309H13.7392V12.87H12.8696V11.1309Z" fill="black" />
    <path d="M6.09334 11.3856C6.43292 11.7251 6.43292 12.2757 6.09334 12.6153C5.75375 12.9549 5.20317 12.9549 4.86358 12.6153C4.52399 12.2757 4.52399 11.7251 4.86358 11.3856C5.20317 11.046 5.75375 11.046 6.09334 11.3856Z" fill="#0052B4" />
    <path d="M19.1368 11.3856C19.4764 11.7251 19.4764 12.2757 19.1368 12.6153C18.7972 12.9549 18.2466 12.9549 17.907 12.6153C17.5674 12.2757 17.5674 11.7251 17.907 11.3856C18.2466 11.046 18.7972 11.046 19.1368 11.3856Z" fill="#0052B4" />
</svg>
