<svg xmlns="http://www.w3.org/2000/svg" viewBox="0 0 24 24">
    <path d="M2 12.0002C2 13.2234 2.22004 14.3952 2.62203 15.4785L12 16.348L21.378 15.4785C21.78 14.3952 22 13.2234 22 12.0002C22 10.7937 21.7863 9.63719 21.3948 8.56637L12 7.65234L2.60523 8.56641C2.21371 9.63719 2 10.7937 2 12.0002H2Z" fill="#FFDA44" />
    <path d="M12.0001 22.0003C16.2997 22.0003 19.9652 19.2865 21.3781 15.4785H2.62207C4.035 19.2865 7.70043 22.0003 12.0001 22.0003Z" fill="#D80027" />
    <path d="M12.0001 2C7.70043 2 4.035 4.71375 2.62207 8.52176H21.3781C19.9652 4.71375 16.2997 2 12.0001 2Z" fill="#6DA544" />
    <path d="M15.3817 8.61857C17.2494 10.4863 17.2494 13.5145 15.3817 15.3822C13.514 17.2499 10.4858 17.2499 8.61808 15.3822C6.75035 13.5145 6.75035 10.4863 8.61808 8.61857C10.4858 6.75084 13.514 6.75084 15.3817 8.61857Z" fill="#0052B4" />
    <path d="M11.999 8.29688L12.8624 10.954H15.6607L13.3959 12.5962L14.2661 15.2612L11.999 13.6112L9.73541 15.2582L10.6021 12.5962L8.33936 10.954H11.1356L11.999 8.29688Z" fill="#FFDA44" />
    <path d="M15.4423 12.6615L12.7034 11.7715L14.3961 9.44184L13.6927 8.93066L11.9999 11.2605L10.3073 8.9307L9.60375 9.4418L11.2964 11.7717L8.55762 12.6615L8.82629 13.4886L11.5652 12.5987V15.4784H12.4347V12.5986L15.1735 13.4886L15.4423 12.6615Z" fill="#FFDA44" />
</svg>
