<svg xmlns="http://www.w3.org/2000/svg" viewBox="0 0 24 24">
    <path d="M19.0711 4.92893C22.9763 8.83417 22.9763 15.1658 19.0711 19.0711C15.1658 22.9763 8.83421 22.9763 4.92893 19.0711C1.02369 15.1658 1.02369 8.83421 4.92893 4.92893C8.83417 1.02369 15.1658 1.02369 19.0711 4.92893Z" fill="#0052B4" />
    <path d="M12.0009 5.91309L12.3247 6.90953H13.3723L12.5247 7.52535L12.8485 8.5218L12.0009 7.90594L11.1532 8.5218L11.477 7.52535L10.6294 6.90953H11.6771L12.0009 5.91309Z" fill="#FFDA44" />
    <path d="M7.69627 7.69582L8.62986 8.17145L9.37068 7.43066L9.20674 8.46543L10.1403 8.94109L9.10549 9.105L8.94158 10.1398L8.46592 9.20629L7.43115 9.37023L8.17197 8.62941L7.69627 7.69582Z" fill="#FFDA44" />
    <path d="M5.91357 12.0004L6.91002 11.6766V10.6289L7.5258 11.4766L8.52228 11.1528L7.90639 12.0004L8.52228 12.848L7.5258 12.5243L6.91002 13.3719V12.3242L5.91357 12.0004Z" fill="#FFDA44" />
    <path d="M7.69627 16.3043L8.17193 15.3707L7.43115 14.6299L8.46596 14.7939L8.94154 13.8604L9.10549 14.8952L10.1403 15.0591L9.20682 15.5347L9.37068 16.5695L8.62986 15.8287L7.69627 16.3043Z" fill="#FFDA44" />
    <path d="M12.0009 18.0871L11.6771 17.0907H10.6294L11.4771 16.4749L11.1532 15.4785L12.0009 16.0943L12.8485 15.4785L12.5247 16.4749L13.3723 17.0907H12.3246L12.0009 18.0871Z" fill="#FFDA44" />
    <path d="M16.3048 16.3043L15.3712 15.8287L14.6304 16.5695L14.7943 15.5347L13.8608 15.0591L14.8956 14.8952L15.0595 13.8604L15.5351 14.7939L16.5699 14.6299L15.8291 15.3708L16.3048 16.3043Z" fill="#FFDA44" />
    <path d="M18.0876 12.0004L17.0912 12.3242V13.3719L16.4754 12.5242L15.479 12.848L16.0948 12.0004L15.479 11.1528L16.4754 11.4766L17.0912 10.6289V11.6766L18.0876 12.0004Z" fill="#FFDA44" />
    <path d="M16.3048 7.69578L15.8291 8.62938L16.5699 9.3702L15.5351 9.20621L15.0595 10.1398L14.8956 9.10496L13.8608 8.94102L14.7943 8.46539L14.6304 7.43066L15.3713 8.17145L16.3048 7.69578Z" fill="#FFDA44" />
</svg>
