<svg xmlns="http://www.w3.org/2000/svg" viewBox="0 0 24 24">
    <path d="M22 12C22 17.5228 17.5228 22 12 22C6.47719 22 2 17.5228 2 12C2 12.0024 12 2.00109 12 2C17.5228 2 22 6.47719 22 12Z" fill="#0052B4" />
    <path d="M11.9731 12.0004H11.9999C11.9999 11.9914 11.9999 11.9827 11.9999 11.9736C11.991 11.9826 11.9821 11.9915 11.9731 12.0004Z" fill="#F0F0F0" />
    <path d="M12 7.21738C12 5.45781 12 4.30488 12 2H11.9983C6.47625 2.00094 2 6.4777 2 12H7.21738V9.06207L10.1554 12H11.9733C11.9822 11.9911 11.9911 11.9822 12 11.9732C12 11.2995 12 10.6984 12 10.1554L9.06203 7.21738H12Z" fill="#F0F0F0" />
    <path d="M7.05904 3.30469C5.49502 4.19527 4.19479 5.49551 3.3042 7.05953V12.0004H5.91291V5.91348V5.9134H11.9999C11.9999 5.09063 11.9999 4.3068 11.9999 3.30469H7.05904Z" fill="#D80027" />
    <path d="M11.9999 10.7706L8.44701 7.21777H7.21729V7.21785L11.9998 12.0004H11.9999C11.9999 12.0004 11.9999 11.1524 11.9999 10.7706Z" fill="#D80027" />
    <path d="M18.0868 13.7393V14.174H14.6086V13.7393H13.3042V15.4784H14.1738V15.9132H18.5216V15.4784H19.3912V13.7393H18.0868Z" fill="#FFDA44" />
    <path d="M13.3042 7.21777V12.0004C13.3042 14.33 16.3477 15.0439 16.3477 15.0439C16.3477 15.0439 19.3912 14.33 19.3912 12.0004V7.21777H13.3042Z" fill="#338AF3" />
    <path d="M16.3475 10.7852C15.5867 10.7852 15.5867 11.4808 14.8258 11.4808C14.065 11.4808 14.065 10.7852 13.3042 10.7852V12.0025C14.065 12.0025 14.065 12.6982 14.8258 12.6982C15.5867 12.6982 15.5867 12.0025 16.3475 12.0025C17.1084 12.0025 17.1084 12.6982 17.8693 12.6982C18.6303 12.6982 18.6302 12.0025 19.3912 12.0025V10.7852C18.6303 10.7852 18.6303 11.4808 17.8693 11.4808C17.1084 11.4808 17.1084 10.7852 16.3475 10.7852Z" fill="#F3F3F3" />
    <path d="M16.3475 8.34766C15.5867 8.34766 15.5867 9.04332 14.8258 9.04332C14.065 9.04332 14.065 8.34766 13.3042 8.34766V9.56504C14.065 9.56504 14.065 10.2607 14.8258 10.2607C15.5867 10.2607 15.5867 9.56504 16.3475 9.56504C17.1084 9.56504 17.1084 10.2607 17.8693 10.2607C18.6303 10.2607 18.6302 9.56504 19.3912 9.56504V8.34766C18.6303 8.34766 18.6303 9.04332 17.8693 9.04332C17.1084 9.04332 17.1084 8.34766 16.3475 8.34766Z" fill="#F3F3F3" />
</svg>
