<svg xmlns="http://www.w3.org/2000/svg" viewBox="0 0 24 24">
    <path d="M19.0711 4.92893C22.9763 8.83417 22.9763 15.1658 19.0711 19.0711C15.1658 22.9763 8.83421 22.9763 4.92893 19.0711C1.02369 15.1658 1.02369 8.83421 4.92893 4.92893C8.83417 1.02369 15.1658 1.02369 19.0711 4.92893Z" fill="#F0F0F0" />
    <path d="M21.5659 12L21.9158 10.6957C21.8577 10.2511 21.7705 9.81566 21.6562 9.39137H11.1311V2.03809C10.6873 2.07629 10.252 2.14383 9.82674 2.23812L8.0876 3.30437L7.21803 3.2166C6.76041 3.46629 6.32443 3.75066 5.91369 4.06625V9.39133H2.34514C2.2308 9.81562 2.14361 10.2511 2.08549 10.6957L2.43541 12L2.08545 13.3044C2.14357 13.7489 2.23076 14.1844 2.3451 14.6087H5.91365V19.9338C6.32439 20.2494 6.76041 20.5338 7.21799 20.7834L8.52232 20.6957L9.82666 21.7619C10.2519 21.8562 10.6873 21.9237 11.131 21.962V14.6087H21.6561C21.7704 14.1845 21.8576 13.749 21.9157 13.3044L21.5659 12Z" fill="#0052B4" />
    <path d="M21.9158 10.6953H9.82662H9.82658V2.2373C8.90244 2.44223 8.02631 2.77437 7.21787 3.21551V10.6952H2.08514C2.02955 11.1222 2.00049 11.5575 2.00049 11.9996C2.00049 12.4417 2.02955 12.877 2.08514 13.3039H7.21783H7.21787V20.7837C8.02631 21.2248 8.90244 21.557 9.82658 21.7619V13.3041V13.304H21.9158C21.9714 12.877 22.0005 12.4417 22.0005 11.9996C22.0005 11.5575 21.9714 11.1222 21.9158 10.6953Z" fill="#D80027" />
</svg>
