<svg xmlns="http://www.w3.org/2000/svg" viewBox="0 0 24 24">
    <path d="M22 12C22 17.5228 17.5228 22 12 22C6.47719 22 2 17.5228 2 12C2 12.0024 12 2.00109 12 2C17.5228 2 22 6.47719 22 12Z" fill="#338AF3" />
    <path d="M12.0002 6.78223V10.155L8.52197 6.78223H12.0002Z" fill="#0052B4" />
    <path d="M7.21748 12H10.1554L7.21748 8.08691L6.78271 11.1304L7.21748 12Z" fill="#0052B4" />
    <path d="M11.9731 12.0004H11.9999C11.9999 11.9914 11.9999 11.9827 11.9999 11.9736C11.991 11.9826 11.9821 11.9915 11.9731 12.0004Z" fill="#F0F0F0" />
    <path d="M12 7.21738C12 5.45781 12 4.30488 12 2H11.9983C6.47625 2.00094 2 6.4777 2 12H7.21738V9.06207L10.1554 12H11.9733C11.9822 11.9911 11.9911 11.9822 12.0001 11.9732C12.0001 11.2995 12.0001 10.6984 12.0001 10.1554L9.06203 7.21738H12Z" fill="#F0F0F0" />
    <path d="M7.05904 3.30469C5.49502 4.19527 4.19479 5.49551 3.3042 7.05953V12.0004H5.91291V5.91348V5.9134H11.9999C11.9999 5.09063 11.9999 4.3068 11.9999 3.30469H7.05904Z" fill="#D80027" />
    <path d="M11.9999 10.7706L8.44701 7.21777H7.21729V7.21785L11.9998 12.0004H11.9999C11.9999 12.0004 11.9999 11.1524 11.9999 10.7706Z" fill="#D80027" />
    <path d="M13.3042 8.52191V12.0001C13.3042 14.3298 16.3477 15.0436 16.3477 15.0436C16.3477 15.0436 19.3912 14.3298 19.3912 12.0001V8.52191L16.3477 7.65234L13.3042 8.52191Z" fill="#F3F3F3" />
    <path d="M19.3912 8.52211V7.21777H13.3042V8.52211H15.9128V11.1309H13.3042V12.0004C13.3042 12.0004 13.3042 12.0004 13.3042 12.0004L15.9128 12.0005V14.9105C16.1753 15.0033 16.3477 15.0439 16.3477 15.0439C16.3477 15.0439 16.52 15.0034 16.7824 14.9105V12.0004H19.3912V12.0004V11.1308H16.7824V8.52207H19.3912V8.52211Z" fill="#D80027" />
</svg>
