<svg xmlns="http://www.w3.org/2000/svg" viewBox="0 0 24 24">
    <path d="M19.0711 4.92893C22.9763 8.83417 22.9763 15.1658 19.0711 19.0711C15.1658 22.9763 8.83421 22.9763 4.92893 19.0711C1.02369 15.1658 1.02369 8.83421 4.92893 4.92893C8.83417 1.02369 15.1658 1.02369 19.0711 4.92893Z" fill="#F0F0F0" />
    <path d="M21.9158 10.6953H9.82662H9.82658V2.2373C8.90244 2.44223 8.02631 2.77437 7.21787 3.21551V10.6952V10.6952H2.08514C2.02947 11.1222 2.00049 11.5575 2.00049 11.9996C2.00049 12.4417 2.02947 12.877 2.08514 13.3039H7.21783H7.21787V20.7837C8.02631 21.2248 8.90244 21.557 9.82658 21.7619V13.3041V13.304H21.9158C21.9714 12.877 22.0005 12.4417 22.0005 11.9996C22.0005 11.5575 21.9714 11.1222 21.9158 10.6953Z" fill="#0052B4" />
</svg>
