<svg xmlns="http://www.w3.org/2000/svg" viewBox="0 0 24 24">
    <path d="M19.0711 4.92893C22.9763 8.83417 22.9763 15.1658 19.0711 19.0711C15.1658 22.9763 8.83421 22.9763 4.92893 19.0711C1.02369 15.1658 1.02369 8.83421 4.92893 4.92893C8.83417 1.02369 15.1658 1.02369 19.0711 4.92893Z" fill="#F0F0F0" />
    <path d="M3.21631 7.21738H20.7845C19.0885 4.10895 15.7908 2 12.0004 2C8.20998 2 4.91236 4.10895 3.21631 7.21738Z" fill="#D80027" />
    <path d="M12.0004 21.9996C15.7908 21.9996 19.0885 19.8907 20.7845 16.7822H3.21631C4.91236 19.8907 8.20998 21.9996 12.0004 21.9996Z" fill="#D80027" />
    <path d="M15.4789 11.9997C15.4789 13.9207 13.9217 15.0432 12.0007 15.0432C10.0797 15.0432 8.52246 13.9207 8.52246 11.9997C8.52246 10.0787 10.0797 8.52148 12.0007 8.52148C13.9217 8.52148 15.4789 10.0787 15.4789 11.9997Z" fill="#FFDA44" />
    <path d="M15.4789 12C15.4789 13.921 13.9217 15.4782 12.0007 15.4782C10.0797 15.4782 8.52246 13.921 8.52246 12" fill="#0052B4" />
    <path d="M9.82666 11.1309H10.6962V12.87H9.82666V11.1309Z" fill="#D80027" />
    <path d="M13.3052 11.1309H14.1747V12.87H13.3052V11.1309Z" fill="#D80027" />
    <path d="M11.5659 9.82617H12.4355V12.8696H11.5659V9.82617Z" fill="#D80027" />
</svg>
