<svg xmlns="http://www.w3.org/2000/svg" viewBox="0 0 24 24">
    <path d="M19.0711 4.92893C22.9763 8.83417 22.9763 15.1658 19.0711 19.0711C15.1658 22.9763 8.83421 22.9763 4.92893 19.0711C1.02369 15.1658 1.02369 8.83421 4.92893 4.92893C8.83417 1.02369 15.1658 1.02369 19.0711 4.92893Z" fill="#F0F0F0" />
    <path d="M12.0006 2C7.86639 2 4.31842 4.50883 2.79541 8.08695H21.2058C19.6828 4.50883 16.1347 2 12.0006 2Z" fill="#A2001D" />
    <path d="M12.0006 22C16.1347 22 19.6828 19.4912 21.2057 15.9131H2.79541C4.31842 19.4912 7.86639 22 12.0006 22Z" fill="#496E2D" />
    <path d="M21.656 9.3916H2.34498C2.1208 10.2234 2.00049 11.0977 2.00049 12.0003C2.00049 12.9029 2.1208 13.7773 2.34498 14.609H21.656C21.8802 13.7773 22.0005 12.9029 22.0005 12.0003C22.0005 11.0977 21.8802 10.2234 21.656 9.3916Z" fill="#0052B4" />
</svg>
