<svg xmlns="http://www.w3.org/2000/svg" viewBox="0 0 24 24">
    <path d="M19.0711 4.92893C22.9763 8.83417 22.9763 15.1658 19.0711 19.0711C15.1658 22.9763 8.83421 22.9763 4.92893 19.0711C1.02369 15.1658 1.02369 8.83421 4.92893 4.92893C8.83417 1.02369 15.1658 1.02369 19.0711 4.92893Z" fill="#F0F0F0" />
    <path d="M21.9158 10.6957H13.3049H13.3049V2.08465C12.8779 2.02906 12.4426 2 12.0005 2C11.5584 2 11.1231 2.02906 10.6962 2.08465V10.6956V10.6956H2.08514C2.02955 11.1226 2.00049 11.5579 2.00049 12C2.00049 12.4421 2.02955 12.8774 2.08514 13.3043H10.6961H10.6961V21.9154C11.1231 21.9709 11.5584 22 12.0005 22C12.4426 22 12.8779 21.971 13.3048 21.9154V13.3044V13.3044H21.9158C21.9714 12.8774 22.0005 12.4421 22.0005 12C22.0005 11.5579 21.9714 11.1226 21.9158 10.6957Z" fill="#D80027" />
    <path d="M8.08772 6.78289V5.47852H6.78338V6.78289H5.479V8.08723H6.78338V9.39156H8.08772V8.08723H9.39205V6.78289H8.08772Z" fill="#D80027" />
    <path d="M17.218 6.78289V5.47852H15.9137V6.78289H14.6094V8.08723H15.9137V9.39156H17.218V8.08723H18.5224V6.78289H17.218Z" fill="#D80027" />
    <path d="M8.08772 15.9127V14.6084H6.78338V15.9127H5.479V17.2171H6.78338V18.5214H8.08772V17.2171H9.39205V15.9127H8.08772Z" fill="#D80027" />
    <path d="M17.218 15.9127V14.6084H15.9137V15.9127H14.6094V17.2171H15.9137V18.5214H17.218V17.2171H18.5224V15.9127H17.218Z" fill="#D80027" />
</svg>
