<svg xmlns="http://www.w3.org/2000/svg" viewBox="0 0 24 24">
    <path d="M2.62207 15.4779C4.035 19.2859 7.70043 21.9997 12.0001 21.9997C16.2997 21.9997 19.9652 19.2859 21.3781 15.4779L12.0001 14.6084L2.62207 15.4779Z" fill="#FFDA44" />
    <path d="M12.0001 2C7.70043 2 4.035 4.71375 2.62207 8.52176L12.0001 9.39129L21.3781 8.52172C19.9652 4.71375 16.2997 2 12.0001 2Z" fill="black" />
    <path d="M2.62199 8.52148C2.22004 9.6048 2 10.7765 2 11.9997C2 13.2229 2.22004 14.3946 2.62199 15.478H21.378C21.78 14.3946 22 13.2229 22 11.9997C22 10.7765 21.78 9.6048 21.378 8.52148H2.62199Z" fill="#D80027" />
</svg>
