<svg xmlns="http://www.w3.org/2000/svg" viewBox="0 0 24 24">
    <path d="M2 12C2 13.2232 2.22004 14.3949 2.62199 15.4782L12 15.913L21.378 15.4782C21.78 14.3949 22 13.2232 22 12C22 10.7768 21.78 9.60504 21.378 8.52172L12 8.08691L2.62199 8.52168C2.22004 9.60504 2 10.7768 2 12V12Z" fill="#FFDA44" />
    <path d="M12.0001 2C7.70043 2 4.035 4.71375 2.62207 8.52176H21.3781C19.9652 4.71375 16.2997 2 12.0001 2Z" fill="#D80027" />
    <path d="M21.3781 15.4785H2.62207C4.035 19.2865 7.70043 22.0003 12.0001 22.0003C16.2997 22.0003 19.9652 19.2865 21.3781 15.4785Z" fill="#496E2D" />
    <path d="M12 8.52148L12.8632 11.1785H15.6573L13.397 12.8208L14.2603 15.478L12 13.8358L9.73961 15.478L10.603 12.8208L8.34277 11.1785H11.1367L12 8.52148Z" fill="black" />
</svg>
