<svg xmlns="http://www.w3.org/2000/svg" viewBox="0 0 24 24">
    <path d="M19.0711 4.92893C22.9763 8.83417 22.9763 15.1658 19.0711 19.0711C15.1658 22.9763 8.83421 22.9763 4.92893 19.0711C1.02369 15.1658 1.02369 8.83421 4.92893 4.92893C8.83417 1.02369 15.1658 1.02369 19.0711 4.92893Z" fill="#F9F9F9" />
    <path d="M12.0006 22.0003C16.3002 22.0003 19.9657 19.2865 21.3786 15.4785H2.62256C4.03553 19.2865 7.70092 22.0003 12.0006 22.0003Z" fill="#D80027" />
    <path d="M15.9139 10.2606V8.95625H16.3487V8.08668H15.4791V8.52148H14.6096V8.08668H13.74V8.95625H14.1748V10.2606H13.3052V7.21719H13.74V6.34766H12.8704V6.78234H12.4356V6.34766H11.5661V6.78234H11.1313V6.34766H10.2617V7.21719H10.6965V10.2606H9.82697V8.95625H10.2617V8.08668H9.39217V8.52148H8.52264V8.08668H7.65307V8.95625H8.08783V10.2606H7.21826V13.7389H16.7835V10.2606H15.9139Z" fill="#D80027" />
    <path d="M12.0008 13.3047C11.2805 13.3047 10.6965 13.8887 10.6965 14.609C10.6965 15.1768 11.0595 15.6598 11.5661 15.8389V17.6525H10.2617V19.3917H12.4356V15.8389C12.9421 15.6598 13.3052 15.1769 13.3052 14.6091C13.3052 13.8887 12.7212 13.3047 12.0008 13.3047ZM12.0008 15.0438C11.7607 15.0438 11.5661 14.8491 11.5661 14.6091C11.5661 14.3689 11.7607 14.1743 12.0008 14.1743C12.2409 14.1743 12.4356 14.3689 12.4356 14.6091C12.4356 14.8491 12.2409 15.0438 12.0008 15.0438Z" fill="#FFDA44" />
</svg>
