<svg xmlns="http://www.w3.org/2000/svg" viewBox="0 0 24 24">
    <path d="M2 12C2 6.47719 6.47719 2 12 2C17.5228 2 22 6.47719 22 12C21.5652 12 12 13.3043 12 13.3043L2 12Z" fill="#F0F0F0" />
    <path d="M22 12C22 17.5228 17.5228 22 12 22C6.47719 22 2 17.5228 2 12" fill="#D80027" />
    <path d="M12.3383 8.61857C14.206 10.4863 14.206 13.5145 12.3383 15.3822C10.4705 17.2499 7.44236 17.2499 5.57462 15.3822C3.7069 13.5145 3.7069 10.4863 5.57462 8.61857C7.44235 6.75084 10.4705 6.75084 12.3383 8.61857Z" fill="#F0F0F0" />
    <path d="M4.17383 12.0004C4.17383 9.3591 6.31508 7.21777 8.95645 7.21777C11.5979 7.21777 13.7391 9.35906 13.7391 12.0004" fill="#D80027" />
</svg>
