<svg xmlns="http://www.w3.org/2000/svg" viewBox="0 0 24 24">
    <path d="M19.0711 4.92893C22.9763 8.83417 22.9763 15.1658 19.0711 19.0711C15.1658 22.9763 8.83421 22.9763 4.92893 19.0711C1.02369 15.1658 1.02369 8.83421 4.92893 4.92893C8.83417 1.02369 15.1658 1.02369 19.0711 4.92893Z" fill="#F0F0F0" />
    <path d="M12.0005 9.39094H21.656C21.4053 8.4607 21.0242 7.5841 20.5328 6.78223H12.0005V9.39094Z" fill="#338AF3" />
    <path d="M5.77564 19.8265H18.2254C19.138 19.0996 19.9206 18.2167 20.5328 17.2178H3.46826C4.08041 18.2167 4.86307 19.0996 5.77564 19.8265Z" fill="#338AF3" />
    <path d="M5.47877 4.41992C4.6926 5.09691 4.01295 5.89414 3.46826 6.78305H5.47877V4.41992Z" fill="#338AF3" />
    <path d="M12.0005 12.0003C12.0005 10.9817 12.0005 10.1293 12.0005 9.3916H8.08744V12.0003H5.47873V9.3916H2.34498C2.1208 10.2234 2.00049 11.0977 2.00049 12.0003C2.00049 12.9029 2.1208 13.7772 2.34498 14.609H21.656C21.8802 13.7772 22.0005 12.9029 22.0005 12.0003H12.0005Z" fill="#338AF3" />
    <path d="M12.0004 2C10.6118 2 9.28936 2.28332 8.0874 2.79484V6.78262H12.0004C12.0004 5.87199 12.0004 5.0975 12.0004 4.17391H18.2253C16.5171 2.81344 14.3539 2 12.0004 2Z" fill="#338AF3" />
</svg>
