<svg xmlns="http://www.w3.org/2000/svg" viewBox="0 0 24 24">
    <path d="M19.0711 4.92893C22.9763 8.83417 22.9763 15.1658 19.0711 19.0711C15.1658 22.9763 8.83421 22.9763 4.92893 19.0711C1.02369 15.1658 1.02369 8.83421 4.92893 4.92893C8.83417 1.02369 15.1658 1.02369 19.0711 4.92893Z" fill="#FFDA44" />
    <path d="M6.36426 3.73914C7.96914 2.64203 9.90969 2 12.0005 2C14.0912 2 16.0318 2.64203 17.6367 3.73914L12.0005 4.17391L6.36426 3.73914Z" fill="#A2001D" />
    <path d="M12.0005 11.9995L11.3623 11.3613L11.1929 11.6649L12.0005 11.9995Z" fill="#0052B4" />
    <path d="M4.92941 4.92871C1.02418 8.83395 1.02418 15.1656 4.92941 19.0709C6.5432 17.4571 8.09527 15.905 12.0005 11.9998L4.92941 4.92871Z" fill="#496E2D" />
    <path d="M19.0716 4.92871C22.9768 8.83395 22.9768 15.1656 19.0716 19.0709C17.4578 17.4571 15.9057 15.905 12.0005 11.9998L19.0716 4.92871Z" fill="#496E2D" />
    <path d="M14.4602 9.54024C15.8185 10.8986 15.8185 13.1009 14.4602 14.4592C13.1019 15.8176 10.8996 15.8176 9.54122 14.4592C8.18288 13.1009 8.18288 10.8986 9.54122 9.54024C10.8996 8.1819 13.1019 8.1819 14.4602 9.54024Z" fill="#A2001D" />
    <path d="M12.0007 8.52148L12.7803 10.9211H15.3037L13.2624 12.4044L14.042 14.8041L12.0007 13.321L9.95928 14.8041L10.7391 12.4044L8.69775 10.9211H11.221L12.0007 8.52148Z" fill="#FFDA44" />
    <path d="M12.0041 2H11.9974C9.23752 2.0009 6.73904 3.11977 4.93018 4.92844H19.0713C17.2624 3.11977 14.7639 2.0009 12.0041 2Z" fill="#A2001D" />
    <path d="M4.93018 19.0713C6.73979 20.8806 9.23955 21.9997 12.0007 21.9997C14.7618 21.9997 17.2616 20.8806 19.0712 19.0713H4.93018Z" fill="#A2001D" />
    <path d="M12.0007 3.08691L12.1626 3.58512H12.6864L12.2626 3.89305L12.4246 4.39125L12.0007 4.08336L11.5769 4.39125L11.7388 3.89305L11.3149 3.58512H11.8388L12.0007 3.08691Z" fill="#FFDA44" />
    <path d="M9.57588 3.08691L9.73779 3.58512H10.2616L9.83783 3.89305L9.99975 4.39125L9.57588 4.08336L9.15213 4.39125L9.314 3.89305L8.89014 3.58512H9.41396L9.57588 3.08691Z" fill="#FFDA44" />
    <path d="M14.4255 3.08691L14.5874 3.58512H15.1112L14.6874 3.89305L14.8494 4.39125L14.4255 4.08336L14.0017 4.39125L14.1636 3.89305L13.7397 3.58512H14.2636L14.4255 3.08691Z" fill="#FFDA44" />
    <path d="M12.0007 19.6084L12.1626 20.1066H12.6864L12.2626 20.4145L12.4246 20.9127L12.0007 20.6048L11.5769 20.9127L11.7388 20.4145L11.3149 20.1066H11.8388L12.0007 19.6084Z" fill="#FFDA44" />
    <path d="M9.57588 19.6084L9.73779 20.1066H10.2616L9.83783 20.4145L9.99975 20.9127L9.57588 20.6048L9.15213 20.9127L9.314 20.4145L8.89014 20.1066H9.41396L9.57588 19.6084Z" fill="#FFDA44" />
    <path d="M14.4255 19.6084L14.5874 20.1066H15.1112L14.6874 20.4145L14.8494 20.9127L14.4255 20.6048L14.0017 20.9127L14.1636 20.4145L13.7397 20.1066H14.2636L14.4255 19.6084Z" fill="#FFDA44" />
    <path d="M5.04785 11.8345C5.30468 12.2403 5.18398 12.7774 4.77816 13.0343C4.37238 13.2912 3.83519 13.1705 3.57832 12.7646C3.11328 12.03 3.38292 10.8301 3.38292 10.8301C3.38292 10.8301 4.58277 11.0997 5.04785 11.8345Z" fill="#FFDA44" />
    <path d="M4.85303 12.3598C5.02282 12.5295 5.02282 12.8048 4.85303 12.9746C4.68324 13.1444 4.40797 13.1444 4.23818 12.9746C4.06839 12.8048 4.06839 12.5295 4.23818 12.3598C4.40797 12.19 4.68325 12.19 4.85303 12.3598Z" fill="#A2001D" />
</svg>
