<svg xmlns="http://www.w3.org/2000/svg" viewBox="0 0 24 24">
    <path d="M6.36377 20.2612C7.96861 21.3582 9.90924 22.0003 12 22.0003C14.0907 22.0003 16.0313 21.3582 17.6362 20.2612L12 19.3916L6.36377 20.2612Z" fill="#D80027" />
    <path d="M17.6362 3.73914C16.0313 2.64207 14.0907 2 12 2C9.90924 2 7.96861 2.64207 6.36377 3.73914L12 4.60871L17.6362 3.73914Z" fill="#D80027" />
    <path d="M22 12.0001C22 8.69113 20.0189 5.36809 17.6362 3.73926H6.36379C3.7293 5.5402 2 8.56809 2 12.0001C2 15.4323 3.7293 18.46 6.36379 20.261H17.6362C20.2707 18.46 22 15.4323 22 12.0001Z" fill="#0052B4" />
    <path d="M11.4341 18.312C11.2974 18.1948 8.08691 15.4039 8.08691 11.9996C8.08691 8.59535 11.2974 5.80437 11.4341 5.68723L12 5.20215L12.5659 5.68719C12.7025 5.80437 15.913 8.59531 15.913 11.9996C15.913 15.4039 12.7025 18.1949 12.5659 18.312L12 18.7971L11.4341 18.312Z" fill="#D80027" />
    <path d="M15.0435 11.9998C15.0435 8.95637 12 6.34766 12 6.34766C12 6.34766 8.95654 8.95645 8.95654 11.9998C8.95654 12.9309 9.24158 13.8211 9.63697 14.6086H14.3631C14.7585 13.8211 15.0435 12.9309 15.0435 11.9998Z" fill="#338AF3" />
    <path d="M15.0435 12C15.0435 12.9311 14.7585 13.8212 14.3631 14.6087L12 15.0435L9.63697 14.6087C9.24158 13.8213 8.95654 12.9311 8.95654 12H15.0435Z" fill="#0052B4" />
    <path d="M11.9998 17.6519C11.9998 17.6519 13.4657 16.395 14.3628 14.6084H9.63672C10.5338 16.395 11.9998 17.6519 11.9998 17.6519Z" fill="#FFDA44" />
    <path d="M10.0435 10.2607H13.9565L12 12.2173L10.0435 10.2607Z" fill="#6DA544" />
    <path d="M11.3477 11.5654H12.652V15.4785H11.3477V11.5654Z" fill="#A2001D" />
</svg>
