<svg xmlns="http://www.w3.org/2000/svg" viewBox="0 0 24 24">
    <path d="M19.0711 4.92893C22.9763 8.83417 22.9763 15.1658 19.0711 19.0711C15.1658 22.9763 8.83421 22.9763 4.92893 19.0711C1.02369 15.1658 1.02369 8.83421 4.92893 4.92893C8.83417 1.02369 15.1658 1.02369 19.0711 4.92893Z" fill="#F0F0F0" />
    <path d="M22.0008 11.9999C22.0008 8.03531 19.6936 4.60969 16.3486 2.99219V21.0076C19.6936 19.3902 22.0008 15.9645 22.0008 11.9999Z" fill="#338AF3" />
    <path d="M2.00049 11.9999C2.00049 15.9645 4.30771 19.3902 7.65268 21.0077V2.99219C4.30771 4.60969 2.00049 8.03531 2.00049 11.9999Z" fill="#338AF3" />
    <path d="M14.6137 13.6905L12.9228 11.9996L14.5323 10.39L14.4594 9.53996L13.9986 9.0791L12.0004 11.0772L10.0023 9.0791L9.54154 9.53996L9.46861 10.39L11.0781 11.9996L9.38721 13.6905L10.3096 14.6127L12.0004 12.9219L13.6913 14.6127L14.6137 13.6905Z" fill="#ACABB1" />
    <path d="M14.4602 9.54004L13.5379 10.4623C13.9313 10.8557 14.1746 11.3992 14.1746 11.9995C14.1746 13.2002 13.2013 14.1734 12.0007 14.1734C10.8002 14.1734 9.8268 13.2002 9.8268 11.9995C9.8268 11.3992 10.0702 10.8557 10.4636 10.4623L9.54125 9.54004C8.91176 10.1694 8.52246 11.039 8.52246 11.9995C8.52246 13.9205 10.0797 15.4778 12.0007 15.4778C13.9217 15.4778 15.4789 13.9205 15.4789 11.9995C15.4789 11.039 15.0896 10.1695 14.4602 9.54004Z" fill="#6DA544" />
</svg>
