<svg xmlns="http://www.w3.org/2000/svg" viewBox="0 0 24 24">
    <path d="M12.0002 2C11.0976 2 10.2233 2.12031 9.3915 2.34449L8.52197 12L9.39154 21.6555C10.2233 21.8797 11.0976 22 12.0002 22C17.523 22 22.0002 17.5228 22.0002 12C22.0002 6.47719 17.523 2 12.0002 2Z" fill="#FFDA44" />
    <path d="M8.52197 12L9.39154 21.6555C10.2233 21.8797 11.0976 22 12.0002 22C17.523 22 22.0002 17.5228 22.0002 12H8.52197Z" fill="#6DA544" />
    <path d="M2 11.9999C2 15.7904 4.10898 19.088 7.21738 20.784V3.21582C4.10898 4.91184 2 8.20949 2 11.9999Z" fill="#D80027" />
    <path d="M2 12.0002C2 16.6205 5.13363 20.5082 9.39129 21.6557V2.34473C5.13363 3.49223 2 7.37996 2 12.0002Z" fill="#D80027" />
    <path d="M5.77857 9.3916L6.42604 11.3844H8.52158L6.82635 12.6161L7.47377 14.609L5.77857 13.3773L4.0833 14.609L4.73088 12.6161L3.03564 11.3844H5.13107L5.77857 9.3916Z" fill="black" />
</svg>
