<svg xmlns="http://www.w3.org/2000/svg" viewBox="0 0 24 24">
    <path d="M19.0711 4.92893C22.9763 8.83417 22.9763 15.1658 19.0711 19.0711C15.1658 22.9763 8.83421 22.9763 4.92893 19.0711C1.02369 15.1658 1.02369 8.83421 4.92893 4.92893C8.83417 1.02369 15.1658 1.02369 19.0711 4.92893Z" fill="#F0F0F0" />
    <path d="M12.0004 2C10.2324 2 8.57195 2.45945 7.13086 3.26453V20.7355C8.57199 21.5405 10.2324 22 12.0004 22C17.5232 22 22.0004 17.5228 22.0004 12C22.0004 6.47719 17.5232 2 12.0004 2Z" fill="#6DA544" />
    <path d="M7.16047 3.24805C6.53137 3.59668 5.94395 4.01105 5.40727 4.48215C5.46152 4.43457 5.51633 4.38754 5.57156 4.34113L13.2304 12L5.57152 19.6588C5.51625 19.6124 5.46148 19.5654 5.40723 19.5178C5.94391 19.9889 6.53137 20.4032 7.16043 20.7519L22.0006 12L7.16047 3.24805Z" fill="#F0F0F0" />
    <path d="M6.31596 3.77246C6.011 3.98363 5.71811 4.21086 5.439 4.45371L12.0007 11.9997L5.43896 19.5457C5.71807 19.7886 6.01096 20.0159 6.31592 20.227L20.2889 11.9997L6.31596 3.77246Z" fill="#FFDA44" />
    <path d="M5.57168 4.34082C5.34937 4.52762 5.13484 4.72344 4.92969 4.92855L11.1312 11.9996L4.92969 19.0707C5.13484 19.2759 5.34934 19.4718 5.57168 19.6585L13.2305 11.9996L5.57168 4.34082Z" fill="black" />
    <path d="M4.92941 4.92871C1.02418 8.83395 1.02418 15.1656 4.92941 19.0709C6.5432 17.4571 8.09527 15.905 12.0005 11.9998L4.92941 4.92871Z" fill="#D80027" />
</svg>
