<svg xmlns="http://www.w3.org/2000/svg" viewBox="0 0 24 24">
    <path d="M22 12C22 17.5228 17.5228 22 12 22C6.47719 22 2 17.5228 2 12C2 6.47719 12 2 12 2C12 2 22 6.47719 22 12Z" fill="#A2001D" />
    <path d="M2 12C2 6.47719 6.47719 2 12 2C17.5228 2 22 6.47719 22 12" fill="#0052B4" />
    <path d="M15.4785 14.609L12.0002 14.1742L8.52197 14.609V9.3916H15.4785V14.609Z" fill="#F0F0F0" />
    <path d="M13.2296 11.2047C13.9088 11.8839 13.9088 12.985 13.2296 13.6642C12.5505 14.3434 11.4493 14.3434 10.7701 13.6642C10.0909 12.985 10.0909 11.8839 10.7701 11.2047C11.4493 10.5255 12.5505 10.5255 13.2296 11.2047Z" fill="#0052B4" />
    <path d="M12.6148 11.8201C12.9544 12.1597 12.9544 12.7103 12.6148 13.0499C12.2752 13.3895 11.7247 13.3895 11.3851 13.0499C11.0455 12.7103 11.0455 12.1597 11.3851 11.8201C11.7247 11.4805 12.2752 11.4805 12.6148 11.8201Z" fill="#A2001D" />
    <path d="M10.6958 10.2607H13.3045L12.0001 11.5651L10.6958 10.2607Z" fill="#6DA544" />
    <path d="M11.5654 11.1309H12.435V13.7396H11.5654V11.1309Z" fill="#FFDA44" />
    <path d="M13.3915 13.4785H10.6088L8.52197 14.609H15.4785L13.3915 13.4785Z" fill="#6DA544" />
</svg>
