<svg xmlns="http://www.w3.org/2000/svg" viewBox="0 0 24 24">
    <path d="M19.0711 4.92893C22.9763 8.83417 22.9763 15.1658 19.0711 19.0711C15.1658 22.9763 8.83421 22.9763 4.92893 19.0711C1.02369 15.1658 1.02369 8.83421 4.92893 4.92893C8.83417 1.02369 15.1658 1.02369 19.0711 4.92893Z" fill="#F0F0F0" />
    <path d="M12.0007 22C14.5365 22 16.8515 21.0556 18.6142 19.5H5.38721C7.14998 21.0556 9.4649 22 12.0007 22Z" fill="#D80027" />
    <path d="M2.31592 14.5001C2.54424 15.3871 2.89135 16.2263 3.339 17.0001H20.6627C21.1104 16.2263 21.4575 15.3871 21.6858 14.5001L12.0009 13.7393L2.31592 14.5001Z" fill="#0052B4" />
    <path d="M21.6858 9.5C21.4575 8.61305 21.1104 7.77383 20.6627 7L12.0008 6.78262C12.0008 5.03602 12.0008 3.38535 12.0008 2C11.258 2 10.534 2.08105 9.83732 2.23469C9.82396 2.23766 3.30518 7.37961 3.30518 12C3.47186 12.029 12.0008 12.8696 12.0008 12.8696C12.0008 12.8696 12.0008 10.9648 12.0008 9.5H21.6858Z" fill="#0052B4" />
    <path d="M12.0005 8.23914V3.23914H8.8335L9.83729 2.23535C5.71654 3.14418 2.55033 6.59434 2.06572 10.8587C2.02314 11.2333 2.00049 11.614 2.00049 12C3.04396 12 7.06572 12 7.06572 12V10.0069L9.07854 12H12.6561L8.83346 8.23914H12.0005Z" fill="#F0F0F0" />
    <path d="M12.0051 12L8.2442 8.23914H7.06572V8.23918L10.8265 12H5.80482V7H20.6624C20.1179 6.05887 19.4242 5.21496 18.614 4.5H5.80482V4.15137C4.79592 4.94891 3.94467 5.93672 3.30482 7.0607V12H2.00049C2.00049 12.8632 2.10986 13.701 2.31553 14.5H21.6854C21.8911 13.7009 22.0005 12.8632 22.0005 12H12.0051Z" fill="#D80027" />
</svg>
