<svg xmlns="http://www.w3.org/2000/svg" viewBox="0 0 24 24">
    <path d="M19.0711 4.92893C22.9763 8.83417 22.9763 15.1658 19.0711 19.0711C15.1658 22.9763 8.83421 22.9763 4.92893 19.0711C1.02369 15.1658 1.02369 8.83421 4.92893 4.92893C8.83417 1.02369 15.1658 1.02369 19.0711 4.92893Z" fill="#F0F0F0" />
    <path d="M12.0004 21.9998C15.965 21.9998 19.3906 19.6926 21.0081 16.3477H2.99268C4.61018 19.6926 8.0358 21.9998 12.0004 21.9998Z" fill="#338AF3" />
    <path d="M12.0004 2C8.0358 2 4.61018 4.30723 2.99268 7.65219H21.0081C19.3906 4.30723 15.965 2 12.0004 2Z" fill="#338AF3" />
    <path d="M8.15469 8.52148L8.47844 9.51793H9.52613L8.67855 10.1337L9.00234 11.1302L8.15469 10.5143L7.30703 11.1302L7.63082 10.1337L6.7832 9.51793H7.8309L8.15469 8.52148Z" fill="#338AF3" />
    <path d="M8.15469 12.8691L8.47844 13.8656H9.52613L8.67855 14.4814L9.00234 15.4778L8.15469 14.862L7.30703 15.4778L7.63082 14.4814L6.7832 13.8656H7.8309L8.15469 12.8691Z" fill="#338AF3" />
    <path d="M15.8466 8.52148L16.1704 9.51793H17.2181L16.3704 10.1337L16.6942 11.1302L15.8466 10.5143L14.9989 11.1302L15.3227 10.1337L14.4751 9.51793H15.5228L15.8466 8.52148Z" fill="#338AF3" />
    <path d="M15.8466 12.8691L16.1704 13.8656H17.2181L16.3704 14.4814L16.6942 15.4778L15.8466 14.862L14.9989 15.4778L15.3227 14.4814L14.4751 13.8656H15.5228L15.8466 12.8691Z" fill="#338AF3" />
    <path d="M12.0009 10.6953L12.3247 11.6918H13.3724L12.5247 12.3076L12.8485 13.304L12.0009 12.6882L11.1532 13.304L11.477 12.3076L10.6294 11.6918H11.6771L12.0009 10.6953Z" fill="#338AF3" />
</svg>
