<svg xmlns="http://www.w3.org/2000/svg" viewBox="0 0 24 24">
    <path d="M19.0711 4.92893C22.9763 8.83417 22.9763 15.1658 19.0711 19.0711C15.1658 22.9763 8.83421 22.9763 4.92893 19.0711C1.02369 15.1658 1.02369 8.83421 4.92893 4.92893C8.83417 1.02369 15.1658 1.02369 19.0711 4.92893Z" fill="#D80027" />
    <path d="M13.0331 9.56498C12.8058 10.5103 12.402 10.33 12.2039 11.1544C11.0366 10.8737 10.3177 9.69987 10.5983 8.53248C10.8789 7.36518 12.0528 6.64627 13.2202 6.92694C12.8238 8.57565 13.2364 8.71955 13.0331 9.56498Z" fill="#F0F0F0" />
    <path d="M10.0041 10.2655C10.8329 10.7737 10.5366 11.1021 11.2594 11.5454C10.6317 12.5688 9.29325 12.8897 8.26973 12.2621C7.24626 11.6345 6.92528 10.2959 7.55294 9.27246C8.99848 10.1589 9.26274 9.81094 10.0041 10.2655Z" fill="#F0F0F0" />
    <path d="M9.73402 13.3628C10.4735 12.7316 10.6942 13.1148 11.3391 12.5645C12.1186 13.4776 12.0101 14.8498 11.097 15.6293C10.1838 16.4088 8.8116 16.3002 8.03223 15.3871C9.32184 14.2862 9.07258 13.9273 9.73402 13.3628Z" fill="#F0F0F0" />
    <path d="M12.5964 14.5767C12.2245 13.6784 12.6572 13.5868 12.333 12.8035C13.4423 12.3444 14.7139 12.8715 15.173 13.9808C15.6321 15.0902 15.105 16.3617 13.9956 16.8208C13.3473 15.2541 12.929 15.3802 12.5964 14.5767Z" fill="#F0F0F0" />
    <path d="M14.6355 12.2294C13.6662 12.3055 13.7127 11.8656 12.8676 11.9319C12.7737 10.7351 13.668 9.68858 14.8649 9.59463C16.0618 9.50092 17.1083 10.3951 17.2021 11.5921C15.5116 11.7246 15.5023 12.1615 14.6355 12.2294Z" fill="#F0F0F0" />
</svg>
