<svg xmlns="http://www.w3.org/2000/svg" viewBox="0 0 24 24">
    <path d="M19.0711 4.92893C22.9763 8.83417 22.9763 15.1658 19.0711 19.0711C15.1658 22.9763 8.83421 22.9763 4.92893 19.0711C1.02369 15.1658 1.02369 8.83421 4.92893 4.92893C8.83417 1.02369 15.1658 1.02369 19.0711 4.92893Z" fill="#F0F0F0" />
    <path d="M12.0004 2C8.0358 2 4.61018 4.30723 2.99268 7.65219H21.0081C19.3906 4.30723 15.965 2 12.0004 2Z" fill="#FF9811" />
    <path d="M12.0004 21.9998C15.965 21.9998 19.3906 19.6926 21.0081 16.3477H2.99268C4.61018 19.6926 8.0358 21.9998 12.0004 21.9998Z" fill="#6DA544" />
    <path d="M14.4602 9.54024C15.8185 10.8986 15.8185 13.1009 14.4602 14.4592C13.1019 15.8176 10.8996 15.8176 9.54122 14.4592C8.18288 13.1009 8.18288 10.8986 9.54122 9.54024C10.8996 8.1819 13.1019 8.1819 14.4602 9.54024Z" fill="#0052B4" />
    <path d="M13.5378 10.4629C14.3867 11.3119 14.3867 12.6883 13.5378 13.5373C12.6888 14.3862 11.3123 14.3862 10.4634 13.5373C9.61442 12.6883 9.61442 11.3119 10.4634 10.4629C11.3123 9.61393 12.6888 9.61393 13.5378 10.4629Z" fill="#F0F0F0" />
    <path d="M12.0004 9.31738L12.6711 10.8384L14.3236 10.6587L13.3417 12L14.3236 13.3412L12.6711 13.1615L12.0004 14.6825L11.3297 13.1615L9.67725 13.3412L10.6591 12L9.67725 10.6587L11.3297 10.8384L12.0004 9.31738Z" fill="#0052B4" />
</svg>
