<svg xmlns="http://www.w3.org/2000/svg" viewBox="0 0 24 24">
    <path d="M19.0711 4.92893C22.9763 8.83417 22.9763 15.1658 19.0711 19.0711C15.1658 22.9763 8.83421 22.9763 4.92893 19.0711C1.02369 15.1658 1.02369 8.83421 4.92893 4.92893C8.83417 1.02369 15.1658 1.02369 19.0711 4.92893Z" fill="#F0F0F0" />
    <path d="M15.2486 9.39164H13.9403C13.9511 9.53543 13.9572 9.68051 13.9572 9.82641C13.9572 10.7937 13.7154 11.7314 13.2939 12.3988C13.1638 12.6046 12.9453 12.8954 12.6528 13.0914V9.3916H11.3485V13.0914C11.056 12.8954 10.8375 12.6047 10.7074 12.3988C10.2859 11.7314 10.0441 10.7937 10.0441 9.82641C10.0441 9.68051 10.0503 9.53539 10.0611 9.39164H8.75271C8.74432 9.53473 8.73975 9.67965 8.73975 9.82641C8.73975 12.5083 10.1721 14.609 12.0006 14.609C13.8291 14.609 15.2615 12.5083 15.2615 9.82641C15.2615 9.67965 15.257 9.53473 15.2486 9.39164Z" fill="#D80027" />
    <path d="M6.13084 6.78262H7.43518V7.65219H8.73951V6.78262H10.0438V7.65219H11.3482V6.78262H12.6525V7.65219H13.9569V6.78262H15.2612V7.65219H16.5655V6.78262H17.8699V7.65219H21.008C19.3906 4.30723 15.965 2 12.0004 2C8.03584 2 4.61018 4.30723 2.99268 7.65219H6.13084V6.78262Z" fill="#6DA544" />
    <path d="M17.87 16.3477V17.2172H16.5656V16.3477H15.2613V17.2172H13.957V16.3477H12.6526V17.2172H11.3483V16.3477H10.044V17.2172H8.73963V16.3477H7.43518V17.2172H6.13084V16.3477H2.99268C4.61018 19.6926 8.0358 21.9998 12.0004 21.9998C15.965 21.9998 19.3906 19.6926 21.0081 16.3477H17.87Z" fill="#D80027" />
</svg>
