<svg xmlns="http://www.w3.org/2000/svg" viewBox="0 0 24 24">
    <path d="M19.0711 4.92893C22.9763 8.83417 22.9763 15.1658 19.0711 19.0711C15.1658 22.9763 8.83421 22.9763 4.92893 19.0711C1.02369 15.1658 1.02369 8.83421 4.92893 4.92893C8.83417 1.02369 15.1658 1.02369 19.0711 4.92893Z" fill="#F0F0F0" />
    <path d="M12.0006 2C7.70092 2 4.03549 4.71375 2.62256 8.52176H21.3786C19.9656 4.71375 16.3002 2 12.0006 2Z" fill="#A2001D" />
    <path d="M12.0006 22.0003C16.3002 22.0003 19.9656 19.2865 21.3786 15.4785H2.62256C4.03549 19.2865 7.70092 22.0003 12.0006 22.0003Z" fill="black" />
    <path d="M9.60947 11.3481C9.604 11.3481 9.59865 11.3485 9.59318 11.3486V11.3481H7.68158C7.7785 10.9737 8.11826 10.6959 8.52252 10.6959V9.3916C7.32381 9.3916 6.34861 10.3668 6.34861 11.5655V12.6307V12.6525H9.59318C9.60053 12.6525 9.60631 12.6525 9.60947 12.6525C9.72936 12.6525 9.82686 12.75 9.82686 12.8699V13.3046H5.479V14.609H11.1312V12.8698C11.1312 12.0308 10.4485 11.3481 9.60947 11.3481Z" fill="#496E2D" />
    <path d="M12.8703 13.3046V9.3916H11.5659V14.609H13.7398V13.3046H12.8703Z" fill="#496E2D" />
    <path d="M17.2178 13.3047V9.3916H15.9135V13.3047H15.4787V12.0004H14.1743V14.6091H18.0874V13.3047H17.2178Z" fill="#496E2D" />
</svg>
