<svg xmlns="http://www.w3.org/2000/svg" viewBox="0 0 24 24">
    <path d="M19.0711 4.92893C22.9763 8.83417 22.9763 15.1658 19.0711 19.0711C15.1658 22.9763 8.83421 22.9763 4.92893 19.0711C1.02369 15.1658 1.02369 8.83421 4.92893 4.92893C8.83417 1.02369 15.1658 1.02369 19.0711 4.92893Z" fill="#D80027" />
    <path d="M15.7034 8.70367L14.9966 11.226L12.8759 10.8344L11.5108 8.02051L7.82305 9.32914L7.53223 8.50961L6.56738 8.39074L7.29438 10.4395L9.83223 9.79051L10.5534 11.8229L8.79906 14.412L11.7763 16.9513L11.212 17.6129L11.5914 18.508L13.0023 16.8539L11.1713 14.9806L12.5708 13.3399L15.6902 13.5646L16.4007 9.7166L17.2559 9.87453L17.8414 9.09836L15.7034 8.70367Z" fill="#F0F0F0" />
</svg>
