<svg xmlns="http://www.w3.org/2000/svg" viewBox="0 0 24 24">
    <path d="M19.0711 4.92893C22.9763 8.83417 22.9763 15.1658 19.0711 19.0711C15.1658 22.9763 8.83421 22.9763 4.92893 19.0711C1.02369 15.1658 1.02369 8.83421 4.92893 4.92893C8.83417 1.02369 15.1658 1.02369 19.0711 4.92893Z" fill="#F0F0F0" />
    <path d="M15.7661 9.82625H13.2558L12.0007 7.65234L10.7457 9.82625H8.23535L9.49059 12.0002L8.23535 14.1741H10.7457L12.0007 16.348L13.2558 14.1741H15.7661L14.5108 12.0002L15.7661 9.82625ZM13.5427 12.0002L12.7718 13.3356H11.2298L10.4587 12.0002L11.2297 10.6647H12.7717L13.5427 12.0002ZM12.0007 9.32918L12.2877 9.82621H11.7138L12.0007 9.32918ZM9.68766 10.6647H10.2616L9.97461 11.1617L9.68766 10.6647ZM9.68766 13.3356L9.97465 12.8386L10.2616 13.3356H9.68766ZM12.0007 14.6711L11.7138 14.1741H12.2877L12.0007 14.6711ZM14.3137 13.3356H13.7398L14.0268 12.8386L14.3137 13.3356ZM13.7398 10.6647H14.3137L14.0268 11.1617L13.7398 10.6647Z" fill="#0052B4" />
    <path d="M18.2254 4.17383H5.77564C4.86303 4.9007 4.08037 5.78359 3.46826 6.78254H20.5328C19.9206 5.78363 19.138 4.9007 18.2254 4.17383Z" fill="#0052B4" />
    <path d="M5.77564 19.8265H18.2254C19.138 19.0996 19.9206 18.2167 20.5328 17.2178H3.46826C4.08041 18.2167 4.86307 19.0996 5.77564 19.8265Z" fill="#0052B4" />
</svg>
