<svg xmlns="http://www.w3.org/2000/svg" viewBox="0 0 24 24">
    <path d="M19.0711 4.92893C22.9763 8.83417 22.9763 15.1658 19.0711 19.0711C15.1658 22.9763 8.83421 22.9763 4.92893 19.0711C1.02369 15.1658 1.02369 8.83421 4.92893 4.92893C8.83417 1.02369 15.1658 1.02369 19.0711 4.92893Z" fill="#F0F0F0" />
    <path d="M19.9339 18.0888L13.8451 12H13.845L19.9339 5.91102C19.6713 5.56977 19.384 5.24145 19.0715 4.92883C18.7589 4.61625 18.4306 4.32895 18.0893 4.06641L12.0004 10.1553L12.0004 10.1553L5.91154 4.06641C5.57033 4.32898 5.24197 4.61621 4.92936 4.92883C4.61674 5.24145 4.32947 5.56977 4.06693 5.91102L10.1558 11.9998L10.1558 11.9999L4.06689 18.0888C4.32951 18.4301 4.61678 18.7584 4.92932 19.071C5.24193 19.3836 5.57021 19.6709 5.9115 19.9334L12.0004 13.8446L12.0004 13.8445L18.0893 19.9334C18.4305 19.6708 18.7589 19.3836 19.0715 19.071C19.3841 18.7584 19.6713 18.43 19.9339 18.0888Z" fill="#D80027" />
    <path d="M10.2617 5.04305L12.0009 5.47781L13.74 5.04305V3.5648L13.0443 3.91262L12.0009 2.86914L10.9574 3.91262L10.2617 3.5648V5.04305Z" fill="#FFDA44" />
    <path d="M10.2617 5.04297V6.13C10.2617 7.46125 12.0009 7.86914 12.0009 7.86914C12.0009 7.86914 13.74 7.46121 13.74 6.13V5.04297H10.2617Z" fill="#D80027" />
</svg>
