<svg xmlns="http://www.w3.org/2000/svg" viewBox="0 0 24 24">
    <path d="M19.0711 4.92893C22.9763 8.83417 22.9763 15.1658 19.0711 19.0711C15.1658 22.9763 8.83421 22.9763 4.92893 19.0711C1.02369 15.1658 1.02369 8.83421 4.92893 4.92893C8.83417 1.02369 15.1658 1.02369 19.0711 4.92893Z" fill="#338AF3" />
    <path d="M17.653 12.1084H6.34863C6.34863 12.8888 7.02836 13.5214 7.80871 13.5214H7.76168C7.76168 14.3019 8.3943 14.9345 9.17473 14.9345C9.17473 15.7149 9.80734 16.3475 10.5878 16.3475H13.4139C14.1943 16.3475 14.8269 15.7149 14.8269 14.9345C15.6073 14.9345 16.24 14.3019 16.24 13.5214H16.1929C16.9732 13.5214 17.653 12.8888 17.653 12.1084Z" fill="#FFDA44" />
    <path d="M15.9135 10.2607C15.9135 12.4218 14.1615 14.1738 12.0004 14.1738C9.83932 14.1738 8.0874 12.4218 8.0874 10.2607" fill="#338AF3" />
    <path d="M14.9895 10.2612L13.7682 10.8357L14.4185 12.0185L13.0923 11.7648L12.9243 13.1045L12.0006 12.1191L11.0768 13.1045L10.9088 11.7648L9.58266 12.0184L10.233 10.8357L9.01172 10.2612L10.233 9.68676L9.58266 8.50398L10.9088 8.75766L11.0769 7.41797L12.0006 8.40332L12.9243 7.41797L13.0923 8.75766L14.4186 8.50398L13.7682 9.6868L14.9895 10.2612Z" fill="#FFDA44" />
</svg>
