<svg xmlns="http://www.w3.org/2000/svg" viewBox="0 0 24 24">
    <path d="M19.0711 4.92893C22.9763 8.83417 22.9763 15.1658 19.0711 19.0711C15.1658 22.9763 8.83421 22.9763 4.92893 19.0711C1.02369 15.1658 1.02369 8.83421 4.92893 4.92893C8.83417 1.02369 15.1658 1.02369 19.0711 4.92893Z" fill="#F0F0F0" />
    <path d="M12.0004 2C8.0358 2 4.61018 4.30723 2.99268 7.65219H21.0081C19.3906 4.30723 15.965 2 12.0004 2Z" fill="black" />
    <path d="M12.0004 21.9998C8.0358 21.9998 4.61018 19.6926 2.99268 16.3477H21.0081C19.3906 19.6926 15.965 21.9998 12.0004 21.9998Z" fill="#496E2D" />
    <path d="M21.5283 8.95605H2.47271C2.16639 9.91578 2.00049 10.9382 2.00049 11.9995C2.00049 13.0608 2.16639 14.0833 2.47271 15.043H21.5282C21.8346 14.0833 22.0005 13.0608 22.0005 11.9995C22.0005 10.9382 21.8346 9.91578 21.5283 8.95605Z" fill="#A2001D" />
    <path d="M15.1145 6.62082L13.9302 6.07422L12.0006 10.4434L10.071 6.07422L8.88672 6.62082L11.2823 11.9997L8.88672 17.3786L10.071 17.9252L12.0006 13.556L13.9302 17.9252L15.1145 17.3786L12.7188 11.9997L15.1145 6.62082Z" fill="#F0F0F0" />
    <path d="M12.805 7.13613C12.3465 6.63547 12.0006 6.34766 12.0006 6.34766C12.0006 6.34766 11.6547 6.63543 11.1963 7.13613V16.8635C11.6547 17.3642 12.0006 17.652 12.0006 17.652C12.0006 17.652 12.3465 17.3643 12.805 16.8635V7.13613Z" fill="#F0F0F0" />
    <path d="M9.82666 9.00207V14.9986C10.3111 15.857 10.904 16.5606 11.3484 17.0271V6.97363C10.904 7.44008 10.3111 8.14371 9.82666 9.00207Z" fill="#A2001D" />
    <path d="M14.1746 9.00207C13.6901 8.14367 13.0972 7.44008 12.6528 6.97363V17.0271C13.0972 16.5606 13.6901 15.857 14.1746 14.9986V9.00207Z" fill="#A2001D" />
    <path d="M14.1743 9.00195V14.9985C14.6647 14.1294 15.0439 13.1017 15.0439 12.0003C15.0439 10.8988 14.6647 9.87109 14.1743 9.00195Z" fill="black" />
    <path d="M9.8266 9.00195V14.9985C9.33617 14.1294 8.95703 13.1017 8.95703 12.0003C8.95703 10.8988 9.33617 9.87109 9.8266 9.00195Z" fill="black" />
</svg>
