<svg xmlns="http://www.w3.org/2000/svg" viewBox="0 0 24 24">
    <path d="M2 12C2 6.47719 6.47719 2 12 2C17.5228 2 22 6.47719 22 12" fill="#D80027" />
    <path d="M15.4785 11.3L14.0572 11.9685L14.814 13.345L13.2707 13.0497L13.0752 14.6088L12.0002 13.4621L10.9252 14.6088L10.7297 13.0497L9.18639 13.3449L9.94322 11.9685L8.52197 11.3L9.94322 10.6314L9.18639 9.25504L10.7297 9.5502L10.9253 7.99121L12.0002 9.13781L13.0752 7.99121L13.2707 9.5502L14.8141 9.25504L14.0573 10.6315L15.4785 11.3Z" fill="#FFDA44" />
    <path d="M14.6085 5.26059H12.652C12.652 4.90047 12.36 4.6084 11.9998 4.6084C11.6397 4.6084 11.3476 4.90043 11.3476 5.26059H9.39111C9.39111 5.62074 9.70486 5.91277 10.065 5.91277H10.0433C10.0433 6.27293 10.3352 6.56496 10.6954 6.56496C10.6954 6.92512 10.9874 7.21715 11.3476 7.21715H12.652C13.0121 7.21715 13.3042 6.92516 13.3042 6.56496C13.6643 6.56496 13.9563 6.27297 13.9563 5.91277H13.9346C14.2948 5.91277 14.6085 5.62078 14.6085 5.26059Z" fill="#FFDA44" />
    <path d="M22 12C22 17.5228 17.5228 22 12 22C6.47719 22 2 17.5228 2 12C2.43477 12 22 12 22 12Z" fill="#F0F0F0" />
    <path d="M12.0002 21.9996C15.1261 21.9996 17.9164 20.5651 19.7503 18.3189C19.4204 18.094 19.2423 17.7305 18.6667 17.7305C17.8334 17.7305 17.8334 18.4924 17.0001 18.4924C16.1668 18.4924 16.1668 17.7305 15.3335 17.7305C14.5002 17.7305 14.5002 18.4924 13.6668 18.4924C12.8335 18.4924 12.8334 17.7305 12 17.7305C11.1667 17.7305 11.1667 18.4924 10.3334 18.4924C9.50023 18.4924 9.50023 17.7305 8.66691 17.7305C7.83352 17.7305 7.83352 18.4924 7.00012 18.4924C6.16672 18.4924 6.16672 17.7305 5.33332 17.7305C4.75777 17.7305 4.57969 18.0939 4.25 18.3188C6.08375 20.5651 8.8743 21.9996 12.0002 21.9996Z" fill="#0052B4" />
    <path d="M20.3334 13.2756C19.5001 13.2756 19.5001 12.5137 18.6667 12.5137C17.8334 12.5137 17.8334 13.2756 17.0001 13.2756C16.1668 13.2756 16.1668 12.5137 15.3335 12.5137C14.5002 12.5137 14.5002 13.2756 13.6668 13.2756C12.8335 13.2756 12.8334 12.5137 12 12.5137C11.1667 12.5137 11.1667 13.2756 10.3334 13.2756C9.50022 13.2756 9.50022 12.5137 8.66689 12.5137C7.8335 12.5137 7.8335 13.2756 7.0001 13.2756C6.1667 13.2756 6.1667 12.5137 5.3333 12.5137C4.5001 12.5137 4.5001 13.2756 3.66678 13.2756C2.83795 13.2756 2.83314 12.5221 2.01318 12.514C2.03627 12.9714 2.09088 13.4205 2.17346 13.8596C2.83768 13.9573 2.89584 14.6089 3.66682 14.6089C4.50014 14.6089 4.50014 13.8471 5.33334 13.8471C6.16674 13.8471 6.16674 14.6089 7.00014 14.6089C7.83354 14.6089 7.83354 13.8471 8.66693 13.8471C9.50025 13.8471 9.50025 14.6089 10.3335 14.6089C11.1668 14.6089 11.1668 13.8471 12.0001 13.8471C12.8335 13.8471 12.8335 14.6089 13.6669 14.6089C14.5003 14.6089 14.5003 13.8471 15.3335 13.8471C16.1669 13.8471 16.1669 14.6089 17.0001 14.6089C17.8334 14.6089 17.8335 13.8471 18.6667 13.8471C19.5001 13.8471 19.5001 14.6089 20.3334 14.6089C21.1045 14.6089 21.1626 13.9573 21.8269 13.8597C21.9095 13.4205 21.964 12.9715 21.9872 12.5141C21.1671 12.5221 21.1622 13.2756 20.3334 13.2756Z" fill="#0052B4" />
    <path d="M18.6663 15.1221C17.833 15.1221 17.833 15.884 16.9997 15.884C16.1664 15.884 16.1664 15.1221 15.3331 15.1221C14.4998 15.1221 14.4998 15.884 13.6664 15.884C12.833 15.884 12.833 15.1221 11.9996 15.1221C11.1663 15.1221 11.1663 15.884 10.333 15.884C9.49982 15.884 9.49982 15.1221 8.6665 15.1221C7.83311 15.1221 7.83311 15.884 6.99971 15.884C6.16631 15.884 6.16631 15.1221 5.33291 15.1221C4.49971 15.1221 4.49971 15.884 3.66639 15.884C3.07096 15.884 2.90088 15.4951 2.54834 15.2729C2.78303 15.951 3.08834 16.5961 3.45604 17.199C3.51998 17.2108 3.58959 17.2173 3.66639 17.2173C4.49971 17.2173 4.49971 16.4555 5.33291 16.4555C6.16631 16.4555 6.16631 17.2173 6.99971 17.2173C7.83311 17.2173 7.83311 16.4555 8.6665 16.4555C9.49982 16.4555 9.49982 17.2173 10.333 17.2173C11.1663 17.2173 11.1663 16.4555 11.9996 16.4555C12.833 16.4555 12.833 17.2173 13.6664 17.2173C14.4998 17.2173 14.4998 16.4555 15.3331 16.4555C16.1664 16.4555 16.1664 17.2173 16.9997 17.2173C17.833 17.2173 17.833 16.4555 18.6663 16.4555C19.4997 16.4555 19.4997 17.2173 20.333 17.2173C20.4099 17.2173 20.4795 17.2108 20.5434 17.199C20.9111 16.5961 21.2164 15.951 21.4512 15.273C21.0986 15.495 20.9285 15.884 20.333 15.884C19.4997 15.884 19.4997 15.1221 18.6663 15.1221Z" fill="#0052B4" />
    <path d="M21.969 11.2098C21.167 11.2288 21.156 11.9709 20.3332 11.9709C19.4999 11.9709 19.4999 11.209 18.6665 11.209C17.8332 11.209 17.8332 11.9709 16.9999 11.9709C16.1666 11.9709 16.1666 11.209 15.3333 11.209C14.5 11.209 14.5 11.9709 13.6666 11.9709C12.8333 11.9709 12.8332 11.209 11.9998 11.209C11.1665 11.209 11.1665 11.9709 10.3332 11.9709C9.50004 11.9709 9.50004 11.209 8.66672 11.209C7.83332 11.209 7.83332 11.9709 6.99992 11.9709C6.16652 11.9709 6.16652 11.209 5.33313 11.209C4.49992 11.209 4.49992 11.9709 3.6666 11.9709C2.84398 11.9709 2.83285 11.2289 2.03098 11.2098C2.01062 11.4705 2 11.734 2 11.9999C2 12.182 2.00516 12.363 2.01488 12.5427C2.83297 12.5519 2.8384 13.3042 3.66664 13.3042C4.49996 13.3042 4.49996 12.5423 5.33316 12.5423C6.16656 12.5423 6.16656 13.3042 6.99996 13.3042C7.83336 13.3042 7.83336 12.5423 8.66676 12.5423C9.50008 12.5423 9.50008 13.3042 10.3333 13.3042C11.1666 13.3042 11.1666 12.5423 11.9999 12.5423C12.8333 12.5423 12.8333 13.3042 13.6667 13.3042C14.5001 13.3042 14.5001 12.5423 15.3334 12.5423C16.1667 12.5423 16.1667 13.3042 17 13.3042C17.8332 13.3042 17.8333 12.5423 18.6666 12.5423C19.5 12.5423 19.5 13.3042 20.3332 13.3042C21.1616 13.3042 21.167 12.5519 21.9852 12.5427C21.9948 12.363 22 12.182 22 11.9999C22 11.734 21.9894 11.4705 21.969 11.2098Z" fill="#F0F0F0" />
</svg>
