<svg xmlns="http://www.w3.org/2000/svg" viewBox="0 0 24 24">
    <path d="M19.0711 4.92893C22.9763 8.83417 22.9763 15.1658 19.0711 19.0711C15.1658 22.9763 8.83421 22.9763 4.92893 19.0711C1.02369 15.1658 1.02369 8.83421 4.92893 4.92893C8.83417 1.02369 15.1658 1.02369 19.0711 4.92893Z" fill="#0052B4" />
    <path d="M6.3933 8.08691L6.60916 8.75129H7.3076L6.74256 9.1618L6.95838 9.82605L6.3933 9.41555L5.82818 9.82605L6.04408 9.1618L5.479 8.75129H6.1774L6.3933 8.08691Z" fill="#F0F0F0" />
    <path d="M8.56709 7.43457L8.78295 8.09891H9.48139L8.91635 8.50941L9.13217 9.17367L8.56709 8.76316L8.00201 9.17367L8.21787 8.50941L7.65283 8.09891H8.35127L8.56709 7.43457Z" fill="#F0F0F0" />
    <path d="M10.7409 6.78223L10.9568 7.44656H11.6552L11.0902 7.85711L11.306 8.52137L10.7409 8.11082L10.1758 8.52137L10.3917 7.85711L9.82666 7.44656H10.5251L10.7409 6.78223Z" fill="#F0F0F0" />
    <path d="M17.6081 8.08691L17.3923 8.75129H16.6938L17.2589 9.1618L17.0431 9.82605L17.6081 9.41555L18.1733 9.82605L17.9574 9.1618L18.5224 8.75129H17.824L17.6081 8.08691Z" fill="#F0F0F0" />
    <path d="M15.4343 7.43457L15.2185 8.09891H14.52L15.0851 8.50941L14.8692 9.17367L15.4343 8.76316L15.9994 9.17367L15.7835 8.50941L16.3486 8.09891H15.6501L15.4343 7.43457Z" fill="#F0F0F0" />
    <path d="M13.2605 6.78223L13.0446 7.44656H12.3462L12.9112 7.85711L12.6954 8.52137L13.2605 8.11082L13.8256 8.52137L13.6097 7.85711L14.1747 7.44656H13.4763L13.2605 6.78223Z" fill="#F0F0F0" />
    <path d="M13.7396 12.4346L12.0005 10.2607L11.1309 10.6955V11.5651L9.8266 12.4346H8.95703V13.558C10.2316 14.0741 11.1309 15.3229 11.1309 16.7825H12.0005V15.9129L12.8701 15.0434L13.7396 15.9129L14.6092 15.0434V14.1738L15.4788 12.8695L13.7396 12.4346Z" fill="#FFDA44" />
</svg>
