<svg xmlns="http://www.w3.org/2000/svg" viewBox="0 0 24 24">
    <path d="M19.0711 4.92893C22.9763 8.83417 22.9763 15.1658 19.0711 19.0711C15.1658 22.9763 8.83421 22.9763 4.92893 19.0711C1.02369 15.1658 1.02369 8.83421 4.92893 4.92893C8.83417 1.02369 15.1658 1.02369 19.0711 4.92893Z" fill="#D80027" />
    <path d="M16.8914 11.9998L14.8931 12.9398L15.9572 14.8752L13.7872 14.46L13.5123 16.652L12.0008 15.0399L10.4894 16.652L10.2145 14.46L8.04461 14.8751L9.10867 12.9397L7.11035 11.9998L9.10867 11.06L8.04461 9.12449L10.2144 9.53973L10.4895 7.34766L12.0008 8.9598L13.5124 7.34766L13.7872 9.53973L15.9573 9.12449L14.8932 11.0601L16.8914 11.9998Z" fill="#FFDA44" />
    <path d="M14.1526 9.84747C15.3411 11.036 15.3411 12.963 14.1526 14.1516C12.964 15.3402 11.037 15.3402 9.84844 14.1516C8.65989 12.9631 8.65989 11.036 9.84844 9.84747C11.037 8.65892 12.964 8.65892 14.1526 9.84747Z" fill="#D80027" />
    <path d="M10.4789 12C10.4055 12 10.3332 12.0038 10.2617 12.0109C10.2643 12.4324 10.4168 12.8182 10.6687 13.1179C10.8031 12.7563 11.0037 12.4266 11.2567 12.1444C11.0151 12.0515 10.7529 12 10.4789 12Z" fill="#FFDA44" />
    <path d="M11.4155 13.6377C11.5983 13.703 11.7952 13.7388 12.0005 13.7388C12.2058 13.7388 12.4026 13.703 12.5854 13.6377C12.4858 13.2466 12.2801 12.8974 12.0005 12.623C11.7209 12.8974 11.5152 13.2466 11.4155 13.6377Z" fill="#FFDA44" />
    <path d="M13.5067 11.1306C13.206 10.6108 12.6444 10.2607 12.0007 10.2607C11.3569 10.2607 10.7953 10.6108 10.4946 11.1306C11.0428 11.1334 11.5569 11.2824 12.0007 11.5398C12.4445 11.2824 12.9585 11.1334 13.5067 11.1306Z" fill="#FFDA44" />
    <path d="M12.7446 12.1444C12.9976 12.4266 13.1983 12.7563 13.3326 13.1179C13.5845 12.8182 13.737 12.4324 13.7396 12.0109C13.6681 12.0037 13.5958 12 13.5225 12C13.2485 12 12.9863 12.0514 12.7446 12.1444Z" fill="#FFDA44" />
</svg>
