<svg xmlns="http://www.w3.org/2000/svg" viewBox="0 0 24 24">
    <path d="M21.0077 7.65219C19.3902 4.30723 15.9645 2 11.9999 2C8.03531 2 4.60969 4.30723 2.99219 7.65219L11.9999 8.52176L21.0077 7.65219Z" fill="#D80027" />
    <path d="M2.99219 16.3481C4.60969 19.693 8.03531 22.0003 11.9999 22.0003C15.9645 22.0003 19.3902 19.693 21.0077 16.3481L11.9999 15.4785L2.99219 16.3481Z" fill="#D80027" />
    <path d="M21.0077 7.65234H2.99227C2.35656 8.96699 2 10.4419 2 12.0002C2 13.5584 2.35656 15.0333 2.99227 16.348H21.0077C21.6435 15.0333 22 13.5584 22 12.0002C22 10.4419 21.6435 8.96699 21.0077 7.65234Z" fill="#0052B4" />
    <path d="M14.4597 9.54024C15.8181 10.8986 15.8181 13.1009 14.4597 14.4592C13.1014 15.8176 10.8991 15.8176 9.54073 14.4592C8.18239 13.1009 8.18239 10.8986 9.54073 9.54024C10.8991 8.1819 13.1014 8.1819 14.4597 9.54024Z" fill="#F0F0F0" />
</svg>
