<svg xmlns="http://www.w3.org/2000/svg" viewBox="0 0 24 24">
    <path d="M19.0711 4.92893C22.9763 8.83417 22.9763 15.1658 19.0711 19.0711C15.1658 22.9763 8.83421 22.9763 4.92893 19.0711C1.02369 15.1658 1.02369 8.83421 4.92893 4.92893C8.83417 1.02369 15.1658 1.02369 19.0711 4.92893Z" fill="#F0F0F0" />
    <path d="M12.0004 2C8.0358 2 4.61018 4.30723 2.99268 7.65219H21.0081C19.3906 4.30723 15.965 2 12.0004 2Z" fill="#D80027" />
    <path d="M12.0004 21.9998C15.965 21.9998 19.3906 19.6926 21.0081 16.3477H2.99268C4.61018 19.6926 8.0358 21.9998 12.0004 21.9998Z" fill="#D80027" />
    <path d="M14.6095 13.7387L12.0008 8.95605L9.39209 13.7387H11.3486V15.043H12.653V13.7387H14.6095Z" fill="#6DA544" />
</svg>
