<svg xmlns="http://www.w3.org/2000/svg" viewBox="0 0 24 24">
    <path d="M2 12.0004C2 13.5586 2.35652 15.0335 2.99227 16.3482L12 16.783L21.0077 16.3482C21.6435 15.0335 22 13.5586 22 12.0004C22 10.4422 21.6435 8.96727 21.0077 7.65258L12 7.21777L2.99227 7.65254C2.35652 8.96727 2 10.4422 2 12.0004H2Z" fill="#F0F0F0" />
    <path d="M11.9999 21.9998C15.9645 21.9998 19.3902 19.6926 21.0077 16.3477H2.99219C4.60969 19.6926 8.03531 21.9998 11.9999 21.9998Z" fill="#6DA544" />
    <path d="M11.9999 2C8.03531 2 4.60969 4.30723 2.99219 7.65219H21.0076C19.3902 4.30723 15.9645 2 11.9999 2Z" fill="#0052B4" />
    <path d="M12.6522 11.7829V9.3916H11.3479V11.7829L9.77246 13.3583C10.2306 14.1083 11.0568 14.609 12 14.609C12.9432 14.609 13.7694 14.1083 14.2276 13.3583L12.6522 11.7829Z" fill="black" />
</svg>
