<svg xmlns="http://www.w3.org/2000/svg" viewBox="0 0 24 24">
    <path d="M19.0711 4.92893C22.9763 8.83417 22.9763 15.1658 19.0711 19.0711C15.1658 22.9763 8.83421 22.9763 4.92893 19.0711C1.02369 15.1658 1.02369 8.83421 4.92893 4.92893C8.83417 1.02369 15.1658 1.02369 19.0711 4.92893Z" fill="#F0F0F0" />
    <path d="M4.28662 5.63652H19.7151C19.1452 4.94648 18.4843 4.33457 17.7511 3.81836H6.25057C5.5174 4.33449 4.8565 4.94645 4.28662 5.63652Z" fill="#F0F0F0" />
    <path d="M2.00049 11.9999C2.00049 12.3064 2.01506 12.6095 2.04205 12.909H21.9589C21.9859 12.6095 22.0005 12.3064 22.0005 11.9999C22.0005 11.6934 21.9859 11.3903 21.9589 11.0908H2.04205C2.01506 11.3903 2.00049 11.6934 2.00049 11.9999H2.00049Z" fill="#F0F0F0" />
    <path d="M3.09135 16.5457H20.9104C21.2049 15.9696 21.445 15.3614 21.6243 14.7275H2.37744C2.5567 15.3614 2.79693 15.9697 3.09135 16.5457Z" fill="#F0F0F0" />
    <path d="M6.25057 20.1814H17.7511C18.4842 19.6652 19.1452 19.0533 19.715 18.3633H4.28662C4.8565 19.0532 5.5174 19.6652 6.25057 20.1814Z" fill="#F0F0F0" />
    <path d="M2.37695 9.27227H21.6239C21.4446 8.63836 21.2044 8.03008 20.91 7.4541H3.0909C2.79648 8.03008 2.55625 8.63836 2.37695 9.27227Z" fill="#F0F0F0" />
    <path d="M6.7832 3.81816H17.7509C16.1243 2.67293 14.1411 2 12.0006 2C10.6963 2 8.40977 2.67293 6.7832 3.81816Z" fill="#D80027" />
    <path d="M11.5659 7.45488H20.9102C20.5777 6.80437 20.176 6.19504 19.7149 5.63672H11.5659V7.45488Z" fill="#D80027" />
    <path d="M11.5659 11.0906H21.9591C21.9029 10.4663 21.7898 9.85836 21.6242 9.27246H11.5659V11.0906Z" fill="#D80027" />
    <path d="M2.37699 14.7273H21.6239C21.7896 14.1415 21.9026 13.5335 21.9589 12.9092H2.04199C2.09824 13.5335 2.21129 14.1414 2.37699 14.7273Z" fill="#D80027" />
    <path d="M4.28662 18.3641H19.7151C20.1762 17.8057 20.5778 17.1964 20.9104 16.5459H3.09131C3.42385 17.1964 3.82549 17.8057 4.28662 18.3641Z" fill="#D80027" />
    <path d="M12.0008 21.9998C14.1413 21.9998 16.1245 21.3269 17.751 20.1816H6.25049C7.87705 21.3269 9.86025 21.9998 12.0008 21.9998Z" fill="#D80027" />
    <path d="M2.37695 9.27273C2.21125 9.85867 2.09824 10.4666 2.04199 11.0909H12.0004V2C7.42309 2 3.56414 5.07547 2.37695 9.27273Z" fill="#0052B4" />
    <path d="M7.95338 4.6084L8.60084 6.60117H10.6964L9.00115 7.83289L9.64857 9.82578L7.95338 8.59414L6.25811 9.82578L6.90568 7.83289L5.21045 6.60117H7.30588L7.95338 4.6084Z" fill="#F0F0F0" />
</svg>
