<svg xmlns="http://www.w3.org/2000/svg" viewBox="0 0 24 24">
    <path d="M2.99227 7.6518C2.35656 8.96648 2 10.4414 2 11.9996C2 13.5579 2.35656 15.0327 2.99227 16.3474L12 17.217L21.0077 16.3474C21.6434 15.0327 22 13.5579 22 11.9996C22 10.4414 21.6434 8.96648 21.0077 7.6518L12 6.78223L2.99227 7.6518Z" fill="black" />
    <path d="M2.99268 16.3477C4.6101 19.6926 8.03545 21.9998 12.0001 21.9998C15.9646 21.9998 19.39 19.6926 21.0074 16.3477H2.99268Z" fill="#496E2D" />
    <path d="M2.99268 7.65219H21.0074C19.39 4.30723 15.9646 2 12.0001 2C8.03545 2 4.6101 4.30723 2.99268 7.65219Z" fill="#D80027" />
    <path d="M14.3278 10.1709L15.1482 11.3016L16.477 10.8707L15.6552 12.0004L16.4756 13.131L15.1473 12.6985L14.3255 13.8282L14.3264 12.4313L12.998 11.9988L14.3269 11.5679L14.3278 10.1709Z" fill="#F0F0F0" />
    <path d="M12.0881 14.8259C10.5274 14.8259 9.26205 13.5605 9.26205 11.9998C9.26205 10.439 10.5274 9.17367 12.0881 9.17367C12.5748 9.17367 13.0327 9.29672 13.4325 9.51336C12.8053 8.90004 11.9476 8.52148 11.0012 8.52148C9.08018 8.52148 7.52295 10.0788 7.52295 11.9997C7.52295 13.9207 9.08021 15.478 11.0012 15.478C11.9477 15.478 12.8053 15.0994 13.4325 14.4861C13.0327 14.7028 12.5748 14.8259 12.0881 14.8259Z" fill="#F0F0F0" />
</svg>
