<svg xmlns="http://www.w3.org/2000/svg" viewBox="0 0 24 24">
    <path d="M22 11.9996C22 17.5225 17.5228 21.9996 12 21.9996C6.47719 21.9996 2 17.5225 2 11.9996C2.43477 11.9996 12 10.6953 12 10.6953L22 11.9996Z" fill="#D80027" />
    <path d="M2 12C2 6.47719 6.47719 2 12 2C17.5228 2 22 6.47719 22 12" fill="#0052B4" />
    <path d="M9.39121 8.95656C9.39121 8.23621 8.80723 7.65223 8.08688 7.65223C7.7527 7.65223 7.44813 7.77801 7.2173 7.98461V7.21742H7.65207V6.34785H7.2173V5.91309H6.34773V6.34785H5.91297V7.21742H6.34773V7.98461C6.11691 7.77801 5.81234 7.65223 5.47816 7.65223C4.75781 7.65223 4.17383 8.23621 4.17383 8.95656C4.17383 9.34277 4.34184 9.68965 4.60859 9.92852V10.6957H8.95641V9.92852C9.22324 9.68965 9.39121 9.34277 9.39121 8.95656Z" fill="#FFDA44" />
</svg>
