<svg xmlns="http://www.w3.org/2000/svg" viewBox="0 0 24 24">
    <path d="M19.0711 4.92893C22.9763 8.83417 22.9763 15.1658 19.0711 19.0711C15.1658 22.9763 8.83421 22.9763 4.92893 19.0711C1.02369 15.1658 1.02369 8.83421 4.92893 4.92893C8.83417 1.02369 15.1658 1.02369 19.0711 4.92893Z" fill="#496E2D" />
    <path d="M13.74 11.5833C13.4945 11.5833 13.2615 11.6322 13.0451 11.7101C13.1636 11.4459 13.2431 11.1519 13.2431 10.838C13.2431 9.59574 12.0009 8.66406 12.0009 8.66406C12.0009 8.66406 10.7587 9.59574 10.7587 10.838C10.7587 11.1519 10.8382 11.4459 10.9567 11.7101C10.7403 11.6323 10.5072 11.5833 10.2618 11.5833C9.01957 11.5833 8.08789 12.8255 8.08789 12.8255C8.08789 12.8255 9.01957 14.0678 10.2618 14.0678C10.9901 14.0678 11.6113 13.6409 12.0009 13.2875C12.3906 13.6409 13.0118 14.0678 13.7401 14.0678C14.9823 14.0678 15.914 12.8255 15.914 12.8255C15.914 12.8255 14.9822 11.5833 13.74 11.5833Z" fill="#F0F0F0" />
    <path d="M12.0005 5.91309L12.2571 6.70277H13.0875L12.4158 7.1909L12.6722 7.98059L12.0005 7.49246L11.3288 7.98059L11.5853 7.1909L10.9136 6.70277H11.7439L12.0005 5.91309Z" fill="#FFDA44" />
    <path d="M8.84291 7.29395L9.33658 7.7384L9.91186 7.40629L9.6417 8.01312L10.1353 8.45766L9.47471 8.3882L9.20455 8.99504L9.06635 8.34531L8.40576 8.27586L8.981 7.94367L8.84291 7.29395Z" fill="#FFDA44" />
    <path d="M6.53174 9.60613L7.1815 9.74422L7.51365 9.16895L7.58311 9.82953L8.23279 9.96773L7.626 10.2379L7.69545 10.8985L7.25088 10.4049L6.64408 10.6751L6.97623 10.0998L6.53174 9.60613Z" fill="#FFDA44" />
    <path d="M15.1581 7.29395L14.6645 7.7384L14.0892 7.40629L14.3593 8.01312L13.8657 8.45766L14.5263 8.3882L14.7965 8.99504L14.9347 8.34531L15.5953 8.27586L15.0201 7.94367L15.1581 7.29395Z" fill="#FFDA44" />
    <path d="M17.4696 9.60613L16.8198 9.74422L16.4877 9.16895L16.4182 9.82953L15.7686 9.96773L16.3754 10.2379L16.3059 10.8985L16.7505 10.4049L17.3573 10.6751L17.0251 10.0998L17.4696 9.60613Z" fill="#FFDA44" />
    <path d="M12.0009 17.5453C12.9876 17.5453 13.8971 17.2161 14.6268 16.6621H9.375C10.1046 17.216 11.0141 17.5453 12.0009 17.5453Z" fill="#F0F0F0" />
    <path d="M8.01514 14.9375C8.15314 15.2534 8.32814 15.5492 8.53369 15.8207H15.468C15.6735 15.5492 15.8485 15.2534 15.9865 14.9375H8.01514Z" fill="#F0F0F0" />
</svg>
