<svg xmlns="http://www.w3.org/2000/svg" viewBox="0 0 24 24">
    <path d="M19.0711 4.92893C22.9763 8.83417 22.9763 15.1658 19.0711 19.0711C15.1658 22.9763 8.83421 22.9763 4.92893 19.0711C1.02369 15.1658 1.02369 8.83421 4.92893 4.92893C8.83417 1.02369 15.1658 1.02369 19.0711 4.92893Z" fill="#F0F0F0" />
    <path d="M8.52246 12.0005V21.3785C9.60574 21.7805 10.7775 22.0005 12.0007 22.0005C17.5235 22.0005 22.0007 17.5233 22.0007 12.0005C22.0007 6.47767 8.52246 12.0005 8.52246 12.0005Z" fill="#6DA544" />
    <path d="M12.0007 2C10.7775 2 9.60574 2.22004 8.52246 2.62199V12C8.52246 12 17.392 12 22.0007 12C22.0007 6.47719 17.5235 2 12.0007 2Z" fill="#D80027" />
</svg>
