<svg xmlns="http://www.w3.org/2000/svg" viewBox="0 0 24 24">
    <path d="M16.3479 2.99227C15.0332 2.35656 13.5583 2 12.0001 2C10.4419 2 8.96697 2.35656 7.65229 2.99227L6.78271 12L7.65229 21.0077C8.96697 21.6434 10.4419 22 12.0001 22C13.5583 22 15.0332 21.6434 16.3479 21.0077L17.2175 12L16.3479 2.99227Z" fill="#FFDA44" />
    <path d="M7.65219 2.99219C4.30723 4.60965 2 8.035 2 11.9996C2 15.9641 4.30723 19.3895 7.65219 21.007V2.99219Z" fill="#0052B4" />
    <path d="M16.3477 2.99219V21.007C19.6926 19.3895 21.9998 15.9641 21.9998 11.9996C21.9998 8.035 19.6926 4.60965 16.3477 2.99219Z" fill="#0052B4" />
    <path d="M14.8263 12.8693L15.4785 13.7389V10.2606L14.8263 11.1302H12.8698V9.17363L13.7394 8.52148H10.2611L11.1306 9.17363V11.1302H9.17412L8.52197 10.2606V13.7389L9.17412 12.8693H11.1306V14.8258L10.2611 15.478H13.7394L12.8698 14.8258V12.8693H14.8263Z" fill="#D80027" />
    <path d="M14.6085 11.5655H12.4346V9.3916H11.5651V11.5655H9.39111V12.4351H11.5651V14.609H12.4346V12.4351H14.6085V11.5655Z" fill="#F0F0F0" />
</svg>
