<svg xmlns="http://www.w3.org/2000/svg" viewBox="0 0 24 24">
    <path d="M19.0711 4.92893C22.9763 8.83417 22.9763 15.1658 19.0711 19.0711C15.1658 22.9763 8.83421 22.9763 4.92893 19.0711C1.02369 15.1658 1.02369 8.83421 4.92893 4.92893C8.83417 1.02369 15.1658 1.02369 19.0711 4.92893Z" fill="#F0F0F0" />
    <path d="M11.5659 12.0003H22.0007C22.0007 11.0977 21.8804 10.2234 21.6562 9.3916H11.5659V12.0003Z" fill="#D80027" />
    <path d="M11.5659 6.78254H20.5329C19.9208 5.78363 19.1382 4.9007 18.2256 4.17383H11.5659V6.78254Z" fill="#D80027" />
    <path d="M12.0008 22.0001C14.3542 22.0001 16.5174 21.1866 18.2256 19.8262H5.77588C7.48412 21.1866 9.64728 22.0001 12.0008 22.0001Z" fill="#D80027" />
    <path d="M3.46846 17.2171H20.533C21.0244 16.4152 21.4055 15.5386 21.6562 14.6084H2.34521C2.59588 15.5386 2.97701 16.4152 3.46846 17.2171Z" fill="#D80027" />
    <path d="M12.0005 12C12.0005 6.47719 12.0005 5.82609 12.0005 2C6.47768 2 2.00049 6.47719 2.00049 12H12.0005Z" fill="#0052B4" />
    <path d="M8.65033 10.5602C7.28463 10.5602 6.17752 9.45305 6.17752 8.08738C6.17752 6.72172 7.28467 5.61457 8.65033 5.61457C9.07615 5.61457 9.47682 5.72227 9.82662 5.9118C9.27787 5.3752 8.5274 5.04395 7.69924 5.04395C6.01842 5.04395 4.65576 6.40656 4.65576 8.08742C4.65576 9.76828 6.01842 11.1309 7.69924 11.1309C8.5274 11.1309 9.27787 10.7996 9.82662 10.263C9.47682 10.4525 9.07619 10.5602 8.65033 10.5602Z" fill="#FFDA44" />
    <path d="M9.34738 6.34766L9.78641 7.2657L10.7779 7.03664L10.3339 7.95223L11.1312 8.58453L10.1385 8.80832L10.1412 9.82594L9.34738 9.1893L8.55348 9.82594L8.55621 8.80832L7.56348 8.58453L8.36082 7.95223L7.9168 7.03664L8.90832 7.2657L9.34738 6.34766Z" fill="#FFDA44" />
</svg>
