<svg xmlns="http://www.w3.org/2000/svg" viewBox="0 0 24 24">
    <path d="M19.0711 4.92893C22.9763 8.83417 22.9763 15.1658 19.0711 19.0711C15.1658 22.9763 8.83421 22.9763 4.92893 19.0711C1.02369 15.1658 1.02369 8.83421 4.92893 4.92893C8.83417 1.02369 15.1658 1.02369 19.0711 4.92893Z" fill="#D80027" />
    <path d="M5.479 7.21777H18.5225V16.783H5.479V7.21777Z" fill="#6DA544" />
    <path d="M13.6111 14.8259C12.0503 14.8259 10.785 13.5605 10.785 11.9998C10.785 10.439 12.0503 9.17367 13.6111 9.17367C14.0977 9.17367 14.5557 9.29672 14.9554 9.51336C14.3283 8.90004 13.4707 8.52148 12.5241 8.52148C10.6032 8.52148 9.0459 10.0788 9.0459 11.9997C9.0459 13.9207 10.6032 15.478 12.5241 15.478C13.4707 15.478 14.3283 15.0994 14.9554 14.4861C14.5557 14.7028 14.0977 14.8259 13.6111 14.8259Z" fill="#F0F0F0" />
</svg>
