<svg xmlns="http://www.w3.org/2000/svg" viewBox="0 0 24 24">
    <path d="M12 22C17.5228 22 22 17.5228 22 12C22 10.3218 21.5859 8.74039 20.8554 7.35156L11.9882 12.0117L16.6484 3.14461C15.2596 2.41406 13.6782 2 12 2C6.47719 2 2 6.47719 2 12C2 14.7614 3.1193 17.2614 4.92891 19.0711C6.73855 20.8807 9.23855 22 12 22Z" fill="#0052B4" />
    <path d="M20.8446 7.3625C20.3869 6.49125 19.7918 5.67324 19.0592 4.94066C18.3266 4.20809 17.5087 3.61297 16.6373 3.15527L4.91699 19.0828L20.8446 7.3625Z" fill="#F0F0F0" />
    <path d="M4.91699 19.0826L20.8446 7.36227C20.3869 6.49102 19.7918 5.67301 19.0592 4.94043L4.91699 19.0826Z" fill="#FF9811" />
    <path d="M10.6838 7.86379L9.46254 8.43824L10.1129 9.62105L8.78672 9.36734L8.61867 10.707L7.69492 9.72168L6.77117 10.707L6.6032 9.36734L5.27703 9.62098L5.9273 8.4382L4.70605 7.86379L5.92734 7.2893L5.27703 6.10656L6.60313 6.3602L6.77121 5.02051L7.69492 6.00586L8.61867 5.02051L8.78672 6.3602L10.1129 6.10656L9.46258 7.28934L10.6838 7.86379Z" fill="#F0F0F0" />
</svg>
