<svg xmlns="http://www.w3.org/2000/svg" viewBox="0 0 24 24">
    <path d="M19.0711 4.92893C22.9763 8.83417 22.9763 15.1658 19.0711 19.0711C15.1658 22.9763 8.83421 22.9763 4.92893 19.0711C1.02369 15.1658 1.02369 8.83421 4.92893 4.92893C8.83417 1.02369 15.1658 1.02369 19.0711 4.92893Z" fill="#F0F0F0" />
    <path d="M21.9151 10.6959C21.6393 8.58707 20.692 6.54934 19.0719 4.92922C17.4518 3.3091 15.414 2.3618 13.3052 2.08594L13.3052 10.6959H21.9151Z" fill="#0052B4" />
    <path d="M10.6964 2.08594C8.58756 2.3618 6.54979 3.30906 4.92967 4.92918C3.30959 6.54934 2.36229 8.58711 2.08643 10.696L10.6964 10.6959L10.6964 2.08594Z" fill="#0052B4" />
    <path d="M2.08643 13.3047C2.36229 15.4135 3.30959 17.4513 4.92967 19.0714C6.54979 20.6915 8.58752 21.6388 10.6964 21.9147L10.6964 13.3048L2.08643 13.3047Z" fill="#0052B4" />
    <path d="M13.3052 21.9146C15.414 21.6388 17.4517 20.6915 19.0719 19.0714C20.692 17.4513 21.6392 15.4135 21.9151 13.3047H13.3052V21.9146Z" fill="#0052B4" />
    <path d="M15.414 8.34543C15.414 8.21246 15.5221 8.10437 15.6551 8.10437H16.1717C16.9883 8.10437 17.6526 7.44008 17.6526 6.62355C17.6526 5.80703 16.9883 5.1427 16.1717 5.1427H15.6812C15.521 5.02242 15.3062 4.94824 15.0693 4.94824C14.575 4.94824 14.1744 5.26875 14.1744 5.66414C14.1744 6.0557 14.5674 6.37336 15.055 6.37953L15.0548 6.38238H16.1717C16.3047 6.38238 16.4128 6.49051 16.4128 6.62348C16.4128 6.75645 16.3047 6.86453 16.1717 6.86453H15.6551C14.8386 6.86453 14.1743 7.52883 14.1743 8.34535C14.1743 9.16188 14.8385 9.82621 15.6551 9.82621H17.6526V8.58645H15.6551C15.5221 8.58648 15.414 8.4784 15.414 8.34543Z" fill="#F0F0F0" />
    <path d="M7.58832 8.34543C7.58832 8.21246 7.69641 8.10437 7.82941 8.10437H8.34598C9.16254 8.10437 9.82687 7.44008 9.82687 6.62355C9.82687 5.80703 9.16258 5.1427 8.34598 5.1427H7.85543C7.69531 5.02242 7.48051 4.94824 7.24355 4.94824C6.7493 4.94824 6.34863 5.26875 6.34863 5.66414C6.34863 6.0557 6.74164 6.37336 7.2293 6.37953L7.22906 6.38238H8.34602C8.47902 6.38238 8.58711 6.49051 8.58711 6.62348C8.58711 6.75645 8.47902 6.86453 8.34602 6.86453H7.82945C7.01289 6.86453 6.34863 7.52883 6.34863 8.34535C6.34863 9.16188 7.01285 9.82621 7.82945 9.82621H9.82684V8.58645H7.82941C7.69641 8.58648 7.58832 8.4784 7.58832 8.34543Z" fill="#F0F0F0" />
    <path d="M15.4141 17.571C15.4141 17.438 15.5222 17.33 15.6552 17.33H16.1717C16.9883 17.33 17.6526 16.6657 17.6526 15.8491C17.6526 15.0326 16.9883 14.3683 16.1717 14.3683H15.6812C15.5211 14.248 15.3063 14.1738 15.0693 14.1738C14.575 14.1738 14.1744 14.4944 14.1744 14.8897C14.1744 15.2813 14.5674 15.5989 15.055 15.6051L15.0548 15.608H16.1717C16.3047 15.608 16.4128 15.7161 16.4128 15.8491C16.4128 15.982 16.3047 16.0901 16.1717 16.0901H15.6551C14.8386 16.0901 14.1743 16.7544 14.1743 17.5709C14.1743 18.3875 14.8385 19.0518 15.6551 19.0518H17.6526V17.8121H15.6552C15.5222 17.8121 15.4141 17.7039 15.4141 17.571Z" fill="#F0F0F0" />
    <path d="M7.58836 17.571C7.58836 17.438 7.69645 17.33 7.82945 17.33H8.34602C9.16258 17.33 9.82691 16.6657 9.82691 15.8491C9.82691 15.0326 9.16262 14.3683 8.34602 14.3683H7.85547C7.69535 14.248 7.48055 14.1738 7.24359 14.1738C6.7493 14.1738 6.34863 14.4944 6.34863 14.8897C6.34863 15.2813 6.74164 15.5989 7.2293 15.6051L7.22906 15.608H8.34602C8.47902 15.608 8.58711 15.7161 8.58711 15.8491C8.58711 15.982 8.47902 16.0901 8.34602 16.0901H7.82945C7.01289 16.0901 6.34863 16.7544 6.34863 17.5709C6.34863 18.3875 7.01285 19.0518 7.82945 19.0518H9.82688V17.8121H7.82945C7.69645 17.8121 7.58836 17.7039 7.58836 17.571Z" fill="#F0F0F0" />
</svg>
