<svg xmlns="http://www.w3.org/2000/svg" viewBox="0 0 24 24">
    <path d="M19.0711 4.92893C22.9763 8.83417 22.9763 15.1658 19.0711 19.0711C15.1658 22.9763 8.83421 22.9763 4.92893 19.0711C1.02369 15.1658 1.02369 8.83421 4.92893 4.92893C8.83417 1.02369 15.1658 1.02369 19.0711 4.92893Z" fill="#496E2D" />
    <path d="M12.0007 13.5523C10.3356 13.5523 8.94461 12.3821 8.60332 10.8194C8.5509 11.0596 8.52246 11.3087 8.52246 11.5647C8.52246 13.4858 10.0797 15.043 12.0007 15.043C13.9217 15.043 15.4789 13.4857 15.4789 11.5647C15.4789 11.3087 15.4505 11.0596 15.3981 10.8193C15.0568 12.3821 13.6658 13.5523 12.0007 13.5523Z" fill="#FFDA44" />
    <path d="M12.0008 8.95605L12.3246 9.9525H13.3724L12.5247 10.5683L12.8485 11.5648L12.0008 10.9489L11.1532 11.5648L11.477 10.5683L10.6294 9.9525H11.6771L12.0008 8.95605Z" fill="#FFDA44" />
</svg>
