<svg xmlns="http://www.w3.org/2000/svg" viewBox="0 0 24 24">
    <path d="M3.21582 7.21738L11.9999 8.08695L20.784 7.21738C19.088 4.10895 15.7904 2 11.9999 2C8.20949 2 4.91188 4.10895 3.21582 7.21738Z" fill="#D80027" />
    <path d="M3.2159 16.783L12 17.6526L20.7841 16.783C21.5593 15.3623 22 13.7329 22 12.0004L12 11.1309L2 12.0004C2 13.7329 2.44074 15.3623 3.2159 16.783Z" fill="#FFDA44" />
    <path d="M3.2159 7.21777C2.44074 8.63852 2 10.268 2 12.0004H22C22 10.268 21.5593 8.63852 20.7841 7.21777H12H3.2159Z" fill="#0052B4" />
    <path d="M11.9999 21.9996C15.7904 21.9996 19.088 19.8907 20.784 16.7822H3.21582C4.91188 19.8907 8.20949 21.9996 11.9999 21.9996Z" fill="#6DA544" />
</svg>
