<svg xmlns="http://www.w3.org/2000/svg" viewBox="0 0 24 24">
    <path d="M19.0711 4.92893C22.9763 8.83417 22.9763 15.1658 19.0711 19.0711C15.1658 22.9763 8.83421 22.9763 4.92893 19.0711C1.02369 15.1658 1.02369 8.83421 4.92893 4.92893C8.83417 1.02369 15.1658 1.02369 19.0711 4.92893Z" fill="#338AF3" />
    <path d="M6.7832 12.8691H17.218V14.1735H6.7832V12.8691Z" fill="#818085" />
    <path d="M8.52246 8.9568L12.0007 9.39164L15.4789 8.9568V6.86984L14.0877 7.56551L12.0007 5.47852L9.91375 7.56551L8.52246 6.86984V8.9568Z" fill="#FFDA44" />
    <path d="M7.65301 15.4782H6.34863V13.0868L6.78344 12.4346L6.34863 11.7825V10.2607H7.65301V15.4782Z" fill="#F0F0F0" />
    <path d="M17.653 15.4782H16.3486V10.2607H17.653V11.7824L17.2182 12.4455L17.653 13.0869V15.4782Z" fill="#F0F0F0" />
    <path d="M6.34863 11.7822H17.653V13.0866H6.34863V11.7822Z" fill="#ACABB1" />
    <path d="M12.0007 17.2169C10.0828 17.2169 8.52246 15.6565 8.52246 13.7386V8.95605H15.479V13.7386C15.4789 15.6565 13.9186 17.2169 12.0007 17.2169Z" fill="#F0F0F0" />
    <path d="M12.0006 15.9129C10.8019 15.9129 9.82666 14.9376 9.82666 13.7389V10.2607H14.1745V13.7389C14.1745 14.9376 13.1993 15.9129 12.0006 15.9129Z" fill="#0052B4" />
    <path d="M8.52246 8.95605H9.8268V10.2604H8.52246V8.95605Z" fill="#D80027" />
    <path d="M14.1743 8.95605H15.4787V10.2604H14.1743V8.95605Z" fill="#D80027" />
    <path d="M14.1743 11.7822H15.4787V13.0866H14.1743V11.7822Z" fill="#D80027" />
    <path d="M8.52246 11.7822H9.8268V13.0866H8.52246V11.7822Z" fill="#D80027" />
    <path d="M11.3486 8.95605H12.653V10.2604H11.3486V8.95605Z" fill="#D80027" />
    <path d="M12.0008 15.9126C11.7736 15.9126 11.5546 15.8774 11.3486 15.8125V17.1547C11.56 17.195 11.7779 17.217 12.0008 17.217C12.2238 17.217 12.4416 17.195 12.653 17.1547V15.8125C12.447 15.8774 12.228 15.9126 12.0008 15.9126Z" fill="#D80027" />
    <path d="M9.85588 14.0918L8.81494 15.1327C8.99541 15.5436 9.25291 15.9131 9.56939 16.2229L10.4913 15.301C10.1623 14.9832 9.93311 14.5629 9.85588 14.0918Z" fill="#D80027" />
    <path d="M15.1865 15.1327L14.1456 14.0918C14.0683 14.5628 13.8392 14.9831 13.5103 15.3011L14.4321 16.2229C14.7485 15.9131 15.0061 15.5436 15.1865 15.1327Z" fill="#D80027" />
</svg>
