<svg xmlns="http://www.w3.org/2000/svg" viewBox="0 0 24 24">
    <path d="M19.0711 4.92893C22.9763 8.83417 22.9763 15.1658 19.0711 19.0711C15.1658 22.9763 8.83421 22.9763 4.92893 19.0711C1.02369 15.1658 1.02369 8.83421 4.92893 4.92893C8.83417 1.02369 15.1658 1.02369 19.0711 4.92893Z" fill="#F0F0F0" />
    <path d="M22.0008 11.9999C22.0008 8.03531 19.6936 4.60969 16.3486 2.99219V21.0076C19.6936 19.3902 22.0008 15.9645 22.0008 11.9999Z" fill="#D80027" />
    <path d="M2.00049 11.9999C2.00049 15.9645 4.30771 19.3902 7.65268 21.0077V2.99219C4.30771 4.60969 2.00049 8.03531 2.00049 11.9999Z" fill="#6DA544" />
    <path d="M9.39209 12.0004C9.39209 13.4412 10.5601 14.6091 12.0008 14.6091C13.4415 14.6091 14.6095 13.4412 14.6095 12.0004V11.1309H9.39209V12.0004Z" fill="#6DA544" />
    <path d="M15.479 10.2612H12.8703C12.8703 9.78094 12.481 9.3916 12.0007 9.3916C11.5205 9.3916 11.1312 9.78094 11.1312 10.2612H8.52246C8.52246 10.7414 8.94078 11.1307 9.42098 11.1307H9.39203C9.39203 11.611 9.78133 12.0003 10.2616 12.0003C10.2616 12.4806 10.6509 12.8699 11.1312 12.8699H12.8703C13.3506 12.8699 13.7399 12.4806 13.7399 12.0003C14.2202 12.0003 14.6095 11.611 14.6095 11.1307H14.5805C15.0607 11.1307 15.479 10.7414 15.479 10.2612Z" fill="#FF9811" />
</svg>
