<svg xmlns="http://www.w3.org/2000/svg" viewBox="0 0 24 24">
    <path d="M19.0711 4.92893C22.9763 8.83417 22.9763 15.1658 19.0711 19.0711C15.1658 22.9763 8.83421 22.9763 4.92893 19.0711C1.02369 15.1658 1.02369 8.83421 4.92893 4.92893C8.83417 1.02369 15.1658 1.02369 19.0711 4.92893Z" fill="#338AF3" />
    <path d="M12.0005 6.34766L12.4321 7.67625H13.8292L12.699 8.49738L13.1307 9.82594L12.0005 9.00484L10.8703 9.82594L11.3021 8.49738L10.1719 7.67625H11.5689L12.0005 6.34766Z" fill="#F0F0F0" />
    <path d="M6.34863 11.9996L7.67723 11.5679V10.1709L8.49836 11.3011L9.82691 10.8695L9.00582 11.9996L9.82691 13.1297L8.49836 12.698L7.67723 13.8282V12.4312L6.34863 11.9996Z" fill="#F0F0F0" />
    <path d="M12.0006 17.6521L11.5689 16.3235H10.1719L11.3021 15.5024L10.8704 14.1738L12.0006 14.9949L13.1307 14.1738L12.699 15.5024L13.8292 16.3235H12.4322L12.0006 17.6521Z" fill="#F0F0F0" />
    <path d="M17.6526 11.9995L16.324 12.4312V13.8282L15.5029 12.698L14.1743 13.1297L14.9954 11.9995L14.1743 10.8694L15.5029 11.3011L16.324 10.1709V11.5679L17.6526 11.9995Z" fill="#F0F0F0" />
</svg>
