<svg xmlns="http://www.w3.org/2000/svg" viewBox="0 0 24 24">
    <path d="M16.3479 2.99227C15.0332 2.35656 13.5583 2 12.0001 2C10.4419 2 8.96697 2.35656 7.65229 2.99227L6.78271 12L7.65229 21.0077C8.96697 21.6434 10.4419 22 12.0001 22C13.5583 22 15.0332 21.6434 16.3479 21.0077L17.2175 12L16.3479 2.99227Z" fill="#FFDA44" />
    <path d="M7.65219 2.99219C4.30727 4.60965 2 8.035 2 11.9996C2 15.9641 4.30727 19.3895 7.65219 21.007V2.99219Z" fill="#0052B4" />
    <path d="M16.3477 2.99219V21.007C19.6926 19.3895 21.9998 15.9641 21.9998 11.9996C21.9998 8.035 19.6926 4.60965 16.3477 2.99219Z" fill="#D80027" />
    <path d="M15.4785 9.8682H13.0872C13.0872 9.26789 12.6005 8.78125 12.0002 8.78125C11.3999 8.78125 10.9133 9.26789 10.9133 9.8682H8.52197C8.52197 10.4593 9.03686 10.9384 9.62783 10.9384H9.59221C9.59221 11.5295 10.0713 12.0086 10.6624 12.0086C10.6624 12.532 11.0383 12.9668 11.5347 13.0598L10.6913 14.9637C11.0954 15.128 11.5371 15.2193 12.0002 15.2193C12.4633 15.2193 12.905 15.128 13.309 14.9637L12.4657 13.0598C12.9621 12.9668 13.338 12.532 13.338 12.0086C13.9291 12.0086 14.4082 11.5295 14.4082 10.9384H14.3726C14.9636 10.9384 15.4785 10.4592 15.4785 9.8682Z" fill="#FF9811" />
    <path d="M12 11.3477L10.5869 11.9998V13.3042L12 14.1738L13.413 13.3042V11.9998L12 11.3477Z" fill="#0052B4" />
    <path d="M10.5869 10.6953H13.413V11.9996H10.5869V10.6953Z" fill="#D80027" />
</svg>
