<svg xmlns="http://www.w3.org/2000/svg" viewBox="0 0 24 24">
    <path d="M12 22C13.2232 22 14.3949 21.78 15.4782 21.378L15.913 12L15.4782 2.62199C14.3949 2.22004 13.2232 2 12 2C10.7768 2 9.605 2.22004 8.52172 2.62199L8.08691 12L8.52168 21.378C9.605 21.78 10.7768 22 12 22Z" fill="#0052B4" />
    <path d="M2 12.0001C2 16.2997 4.71375 19.9652 8.52176 21.3781V2.62207C4.71375 4.035 2 7.70043 2 12.0001Z" fill="#A2001D" />
    <path d="M15.478 2.62207V21.3781C19.286 19.9652 21.9998 16.2997 21.9998 12.0001C21.9998 7.70043 19.286 4.035 15.478 2.62207Z" fill="#A2001D" />
    <path d="M6.78271 12H7.65229V15.4782H6.78271V12Z" fill="#FFDA44" />
    <path d="M3.3042 12H4.17377V15.4782H3.3042V12Z" fill="#FFDA44" />
    <path d="M6.09334 12.6893C6.43292 13.0288 6.43292 13.5794 6.09334 13.919C5.75375 14.2586 5.20317 14.2586 4.86358 13.919C4.52399 13.5794 4.52399 13.0289 4.86358 12.6893C5.20317 12.3497 5.75375 12.3497 6.09334 12.6893Z" fill="#FFDA44" />
    <path d="M5.78565 9.95351C5.95544 10.1233 5.95544 10.3986 5.78565 10.5684C5.61586 10.7382 5.34058 10.7382 5.1708 10.5684C5.00101 10.3986 5.00101 10.1233 5.1708 9.95351C5.34058 9.78373 5.61586 9.78373 5.78565 9.95351Z" fill="#FFDA44" />
    <path d="M4.60889 14.6084H6.34803V15.478H4.60889V14.6084Z" fill="#FFDA44" />
    <path d="M4.60889 11.1309H6.34803V12.0004H4.60889V11.1309Z" fill="#FFDA44" />
    <path d="M5.47816 7.21777L5.78613 8.16543H6.78254L5.97648 8.75113L6.28422 9.69879L5.47816 9.11309L4.67215 9.69879L4.97988 8.75113L4.17383 8.16543H5.17023L5.47816 7.21777Z" fill="#FFDA44" />
</svg>
