<svg xmlns="http://www.w3.org/2000/svg" viewBox="0 0 24 24">
    <path d="M19.0711 4.92893C22.9763 8.83417 22.9763 15.1658 19.0711 19.0711C15.1658 22.9763 8.83421 22.9763 4.92893 19.0711C1.02369 15.1658 1.02369 8.83421 4.92893 4.92893C8.83417 1.02369 15.1658 1.02369 19.0711 4.92893Z" fill="#FFDA44" />
    <path d="M22.0005 12.0001C22.0005 8.56805 20.2712 5.54016 17.6367 3.73926H6.36428C3.72978 5.54016 2.00049 8.56805 2.00049 12.0001C2.00049 15.4323 3.72978 18.4601 6.36428 20.261H17.6367C20.2712 18.4601 22.0005 15.4323 22.0005 12.0001Z" fill="#A2001D" />
    <path d="M9.82666 9.3909H14.1745V7.6518L13.3049 8.08656L12.0006 6.78223L10.6962 8.08656L9.82666 7.6518V9.3909Z" fill="#FFDA44" />
    <path d="M15.9136 12H13.7405C13.8257 11.8525 13.8753 11.682 13.8753 11.4995C13.8753 10.9453 13.426 10.4961 12.8719 10.4961C12.489 10.4961 12.1565 10.7106 11.9874 11.0259C11.8182 10.7106 11.4857 10.4961 11.1028 10.4961C10.5487 10.4961 10.0995 10.9453 10.0995 11.4995C10.0995 11.682 10.1491 11.8526 10.2342 12H8.0874C8.0874 12.6649 8.66658 13.2039 9.3315 13.2039H9.29143C9.29143 13.7494 9.6542 14.2099 10.1516 14.3579L9.17436 15.3352L10.0967 16.2575L11.405 14.9491C11.4562 14.9679 11.5092 14.9829 11.564 14.9932L10.7735 16.7782C11.1523 16.9323 11.5663 17.0178 12.0005 17.0178C12.4347 17.0178 12.8487 16.9323 13.2276 16.7782L12.437 14.9932C12.4918 14.983 12.5448 14.9679 12.596 14.9491L13.9043 16.2575L14.8266 15.3352L13.8493 14.3579C14.3467 14.2099 14.7095 13.7494 14.7095 13.204H14.6694C15.3344 13.2039 15.9136 12.6649 15.9136 12Z" fill="#FFDA44" />
    <path d="M12.0004 12.6523L10.5874 13.3045V14.6089L12.0004 15.4784L13.4135 14.6089V13.3045L12.0004 12.6523Z" fill="#6DA544" />
    <path d="M10.5874 12H13.4135V13.7391H10.5874V12Z" fill="#0052B4" />
</svg>
