<svg xmlns="http://www.w3.org/2000/svg" viewBox="0 0 24 24">
    <path d="M19.0711 4.92893C22.9763 8.83417 22.9763 15.1658 19.0711 19.0711C15.1658 22.9763 8.83421 22.9763 4.92893 19.0711C1.02369 15.1658 1.02369 8.83421 4.92893 4.92893C8.83417 1.02369 15.1658 1.02369 19.0711 4.92893Z" fill="#D80027" />
    <path d="M17.9102 10.2067H13.3956L12.0005 5.91309L10.6054 10.2067H6.09082L9.7432 12.8603L8.34809 17.154L12.0005 14.5004L15.6529 17.154L14.2578 12.8603L17.9102 10.2067ZM10.7654 12.5281L11.2372 11.0762H12.7638L13.2356 12.5281V12.5282L12.0005 13.4255L10.7655 12.5282L10.7654 12.5281ZM12.4813 10.2067H11.5198L12.0005 8.72699L12.4813 10.2067ZM13.9752 11.9907L13.6781 11.0763H15.2339L13.9752 11.9907ZM10.3229 11.0763L10.0257 11.9907L8.76703 11.0763H10.3229ZM10.0021 14.8774L10.4829 13.3978L11.2608 13.9629L10.0021 14.8774ZM12.7402 13.963L13.5181 13.3978L13.9989 14.8775L12.7402 13.963Z" fill="#FFDA44" />
</svg>
