<svg xmlns="http://www.w3.org/2000/svg" viewBox="0 0 24 24">
    <path d="M19.0711 4.92893C22.9763 8.83417 22.9763 15.1658 19.0711 19.0711C15.1658 22.9763 8.83421 22.9763 4.92893 19.0711C1.02369 15.1658 1.02369 8.83421 4.92893 4.92893C8.83417 1.02369 15.1658 1.02369 19.0711 4.92893Z" fill="#F0F0F0" />
    <path d="M7.40555 15.9131L4.92969 19.0708C6.73922 20.8805 9.23895 22 12.0004 22C16.1344 22 19.6818 19.4911 21.2048 15.9131H7.40555Z" fill="#FFDA44" />
    <path d="M21.2203 8.12316C19.7059 4.52586 16.1484 2 12.0004 2C9.23895 2 6.73922 3.11949 4.92969 4.92926L7.43398 8.12316H21.2203Z" fill="#496E2D" />
    <path d="M4.17432 9.35547V14.6091H21.656C21.8803 13.7774 22.0004 12.903 22.0004 12.0004C22.0004 11.0847 21.8771 10.198 21.6465 9.35547H4.17432Z" fill="black" />
    <path d="M4.92941 4.92871C1.02418 8.83395 1.02418 15.1656 4.92941 19.0709C6.5432 17.4571 8.09527 15.905 12.0005 11.9998L4.92941 4.92871Z" fill="#A2001D" />
    <path d="M6.04811 9.3916L6.69557 11.3844H8.79111L7.09588 12.6161L7.7433 14.609L6.04811 13.3773L4.35283 14.609L5.00041 12.6161L3.30518 11.3844H5.40057L6.04811 9.3916Z" fill="#FFDA44" />
    <path d="M4.15332 12H7.94332V13.7391H4.15332V12Z" fill="#F0F0F0" />
    <path d="M8.66076 10.0065L8.04588 9.3916L6.04791 11.3896L4.04994 9.3916L3.43506 10.0065L5.43479 12.0027L3.43506 14.0025L4.04994 14.609L6.04791 12.6146L8.04588 14.609L8.66076 14.0025L6.66104 12.0027L8.66076 10.0065Z" fill="black" />
</svg>
