<svg xmlns="http://www.w3.org/2000/svg" viewBox="0 0 24 24">
    <path d="M21.378 15.4784C21.78 14.3951 22 13.2234 22 12.0002C22 10.777 21.78 9.6052 21.378 8.52191L12 7.65234L2.62199 8.52191C2.22004 9.6052 2 10.777 2 12.0002C2 13.2234 2.22004 14.3951 2.62199 15.4784L12 16.348L21.378 15.4784Z" fill="#6DA544" />
    <path d="M21.3781 8.52176C19.9652 4.71375 16.2997 2 12.0001 2C7.70043 2 4.035 4.71375 2.62207 8.52176H21.3781Z" fill="#FFDA44" />
    <path d="M12.0001 22.0003C16.2997 22.0003 19.9652 19.2865 21.3781 15.4785H2.62207C4.035 19.2865 7.70043 22.0003 12.0001 22.0003Z" fill="#D80027" />
    <path d="M18.8573 10.4607H13.6188L12 5.47852L10.3811 10.4607H5.14258L9.38066 13.5398L7.76184 18.522L12 15.4785L16.2381 18.522L14.6193 13.5398L18.8573 10.4607Z" fill="#F0F0F0" />
</svg>
