<svg xmlns="http://www.w3.org/2000/svg" viewBox="0 0 24 24">
    <path d="M19.0711 4.92893C22.9763 8.83417 22.9763 15.1658 19.0711 19.0711C15.1658 22.9763 8.83421 22.9763 4.92893 19.0711C1.02369 15.1658 1.02369 8.83421 4.92893 4.92893C8.83417 1.02369 15.1658 1.02369 19.0711 4.92893Z" fill="#F0F0F0" />
    <path d="M4.92957 19.0707C5.34906 19.4902 5.79664 19.8643 6.26613 20.1937L20.1946 6.26516C19.8653 5.79566 19.4912 5.34809 19.0716 4.92859C18.6521 4.5091 18.2046 4.13504 17.7351 3.80566L3.80664 17.7342C4.13598 18.2036 4.51008 18.6512 4.92957 19.0707Z" fill="#A2001D" />
    <path d="M4.92954 4.92847C1.7747 8.08332 1.16907 12.8213 3.11138 16.5846L16.5857 3.11039C12.8223 1.16808 8.08431 1.77378 4.92954 4.92847Z" fill="#0052B4" />
    <path d="M19.0717 19.0712C22.2264 15.9164 22.8321 11.1784 20.8898 7.41504L7.41553 20.8893C11.1788 22.8316 15.9169 22.226 19.0717 19.0712Z" fill="#496E2D" />
    <path d="M10.2615 7.65168L9.14092 8.17875L9.73764 9.26398L8.52088 9.03125L8.36666 10.2604L7.51916 9.35633L6.67162 10.2604L6.51748 9.03125L5.30068 9.26395L5.89736 8.17871L4.77686 7.65168L5.8974 7.12457L5.30068 6.03941L6.51744 6.27215L6.67166 5.04297L7.51916 5.94703L8.3667 5.04297L8.52088 6.27215L9.73764 6.03941L9.141 7.12461L10.2615 7.65168Z" fill="#FFDA44" />
</svg>
