<svg xmlns="http://www.w3.org/2000/svg" viewBox="0 0 24 24">
    <path d="M19.0711 4.92893C22.9763 8.83417 22.9763 15.1658 19.0711 19.0711C15.1658 22.9763 8.83421 22.9763 4.92893 19.0711C1.02369 15.1658 1.02369 8.83421 4.92893 4.92893C8.83417 1.02369 15.1658 1.02369 19.0711 4.92893Z" fill="#0052B4" />
    <path d="M16.2921 12.6977C16.3289 12.4705 16.3483 12.2375 16.3483 12C16.3483 12.2375 16.3289 12.4705 16.2921 12.6977L18.0875 12L16.2921 11.3024L15.306 10.9193L13.7038 10.2967L13.0813 8.69457C14.1311 9.03867 14.9618 9.86941 15.306 10.9192L16.2921 11.3024C15.9941 9.4627 14.5378 8.00637 12.6981 7.7084L12.0005 5.91309L11.3029 7.70844C9.46318 8.00648 8.00693 9.46273 7.70893 11.3024L5.91357 12L7.70896 12.6977C8.00697 14.5374 9.46322 15.9936 11.3029 16.2916L12.0005 18.087L12.6982 16.2916C14.5378 15.9936 15.9941 14.5373 16.2921 12.6977ZM13.0321 10.9685L12.0005 12H15.6867L13.0321 13.0316L12.0005 12V15.6862L10.969 13.0316L12.0005 12H8.31439L10.969 10.9685L12.0005 12V8.31391L13.0321 10.9685ZM10.9197 8.69461L10.2971 10.2968L8.69506 10.9193C9.03916 9.86941 9.8699 9.03875 10.9197 8.69461ZM8.6951 13.0809L10.2971 13.7034L10.9197 15.3055C9.8699 14.9613 9.03924 14.1307 8.6951 13.0809ZM13.0813 15.3055L13.7039 13.7034L15.306 13.0809C14.9618 14.1307 14.1312 14.9613 13.0813 15.3055Z" fill="#F0F0F0" />
    <path d="M15.6866 12H12.0005L13.0321 13.0316L15.6866 12Z" fill="#0052B4" />
    <path d="M8.31445 12.0003H12.0006L10.969 10.9688L8.31445 12.0003Z" fill="#0052B4" />
    <path d="M12.0008 15.6862V12L10.9692 13.0316L12.0008 15.6862Z" fill="#0052B4" />
    <path d="M12.0005 11.9996L13.0321 10.9681L12.0005 8.31348V11.9996Z" fill="#0052B4" />
    <path d="M11.5659 3.30469H12.4355V5.04383H11.5659V3.30469Z" fill="#F0F0F0" />
    <path d="M3.30518 11.5654H5.04432V12.435H3.30518V11.5654Z" fill="#F0F0F0" />
    <path d="M11.5659 18.9561H12.4355V20.6952H11.5659V18.9561Z" fill="#F0F0F0" />
    <path d="M18.957 11.5654H20.6962V12.435H18.957V11.5654Z" fill="#F0F0F0" />
</svg>
