<svg xmlns="http://www.w3.org/2000/svg" viewBox="0 0 24 24">
    <path d="M19.0711 4.92893C22.9763 8.83417 22.9763 15.1658 19.0711 19.0711C15.1658 22.9763 8.83421 22.9763 4.92893 19.0711C1.02369 15.1658 1.02369 8.83421 4.92893 4.92893C8.83417 1.02369 15.1658 1.02369 19.0711 4.92893Z" fill="#0052B4" />
    <path d="M19.0711 4.92893C22.9763 8.83417 22.9763 15.1658 19.0711 19.0711C15.1658 22.9763 8.83421 22.9763 4.92893 19.0711C1.02369 15.1658 1.02369 8.83421 4.92893 4.92893C8.83417 1.02369 15.1658 1.02369 19.0711 4.92893Z" fill="#FFDA44" />
    <path d="M12.0005 2C6.77064 2 2.47932 6.01488 2.03857 11.1304H21.9624C21.5217 6.01488 17.2303 2 12.0005 2Z" fill="#0052B4" />
    <path d="M12.0005 21.9996C17.2303 21.9996 21.5217 17.9847 21.9624 12.8691H2.03857C2.47932 17.9847 6.77064 21.9996 12.0005 21.9996Z" fill="#0052B4" />
    <path d="M10.2615 15.4778L9.14096 16.0049L9.73764 17.0901L8.52088 16.8573L8.3667 18.0865L7.51916 17.1825L6.67166 18.0865L6.51748 16.8573L5.30068 17.0901L5.8974 16.0049L4.77686 15.4778L5.89744 14.9507L5.30068 13.8656L6.51744 14.0983L6.6717 12.8691L7.51916 13.7732L8.36674 12.8691L8.52088 14.0983L9.73768 13.8656L9.141 14.9508L10.2615 15.4778Z" fill="#F0F0F0" />
</svg>
