<svg xmlns="http://www.w3.org/2000/svg" viewBox="0 0 24 24">
    <path d="M19.0711 4.92893C22.9763 8.83417 22.9763 15.1658 19.0711 19.0711C15.1658 22.9763 8.83421 22.9763 4.92893 19.0711C1.02369 15.1658 1.02369 8.83421 4.92893 4.92893C8.83417 1.02369 15.1658 1.02369 19.0711 4.92893Z" fill="#F0F0F0" />
    <path d="M21.9415 13.0867C21.9415 13.0866 21.9415 13.0866 21.9415 13.0864L10.9749 2.05176C10.4802 2.10219 9.99611 2.18867 9.52537 2.30855C5.19963 3.40992 2.00049 11.9998 2.00049 11.9998C2.00049 11.9998 16.0004 21.3683 17.5976 20.2874C17.9171 20.0712 18.2235 19.8369 18.5153 19.5861L12.0159 13.0867H21.9415Z" fill="#0052B4" />
    <path d="M19.3918 11.9998L9.66631 2.27441C5.26955 3.32586 2.00049 7.28078 2.00049 11.9998C2.00049 17.5227 6.47768 21.9998 12.0005 21.9998C14.0954 21.9998 16.0394 21.3552 17.6462 20.2542L9.39178 11.9998H19.3918Z" fill="#D80027" />
    <path d="M11.5115 16.7652L10.2902 16.1907L10.9405 15.0079L9.61436 15.2616L9.44631 13.9219L8.5226 14.9072L7.59889 13.9219L7.4308 15.2616L6.10467 15.0079L6.75502 16.1907L5.53369 16.7652L6.75502 17.3396L6.10467 18.5224L7.43088 18.2687L7.59885 19.6084L8.5226 18.623L9.44631 19.6084L9.61436 18.2687L10.9405 18.5224L10.2901 17.3396L11.5115 16.7652Z" fill="#F0F0F0" />
    <path d="M10.6965 7.54648L9.8082 7.12871L10.2812 6.26844L9.31664 6.45297L9.19441 5.47852L8.52258 6.1952L7.85074 5.47852L7.72848 6.45297L6.76391 6.26844L7.23695 7.12871L6.34863 7.54648L8.52258 7.98133L10.6965 7.54648Z" fill="#F0F0F0" />
    <path d="M11.131 7.5459C11.131 8.98664 9.96303 10.1546 8.52228 10.1546C7.08154 10.1546 5.91357 8.98664 5.91357 7.5459" fill="#F0F0F0" />
</svg>
