<svg xmlns="http://www.w3.org/2000/svg" viewBox="0 0 24 24">
    <path d="M22 12C22 17.5228 17.5228 22 12 22C6.47719 22 2 17.5228 2 12C2 12.0024 12 2.00109 12 2C17.5228 2 22 6.47719 22 12Z" fill="#0052B4" />
    <path d="M11.9731 12.0004H11.9999C11.9999 11.9914 11.9999 11.9827 11.9999 11.9736C11.991 11.9826 11.9821 11.9915 11.9731 12.0004Z" fill="#F0F0F0" />
    <path d="M12 7.21738C12 5.45781 12 4.30488 12 2H11.9983C6.47625 2.00094 2 6.4777 2 12H7.21738V9.06207L10.1554 12H11.9733C11.9822 11.9911 11.9911 11.9822 12 11.9732C12 11.2995 12 10.6984 12 10.1554L9.06203 7.21738H12Z" fill="#F0F0F0" />
    <path d="M7.05904 3.30469C5.49502 4.19527 4.19479 5.49551 3.3042 7.05953V12.0004H5.91291V5.91348V5.9134H11.9999C11.9999 5.09063 11.9999 4.3068 11.9999 3.30469H7.05904Z" fill="#D80027" />
    <path d="M11.9999 10.7706L8.44701 7.21777C8.44701 7.21777 7.21729 7.21785 7.21729 7.21777V7.21785L11.9998 12.0004H11.9999C11.9999 12.0004 11.9999 11.1524 11.9999 10.7706Z" fill="#D80027" />
    <path d="M19.3177 9.41992L19.5335 10.0842H20.232L19.6669 10.4948L19.8828 11.159L19.3177 10.7485L18.7526 11.159L18.9684 10.4948L18.4033 10.0842H19.1018L19.3177 9.41992Z" fill="#D80027" />
    <path d="M16.8207 14.2031L17.1445 15.1996H18.1922L17.3445 15.8154L17.6684 16.8118L16.8207 16.196L15.973 16.8118L16.2969 15.8154L15.4492 15.1996H16.4969L16.8207 14.2031Z" fill="#D80027" />
    <path d="M16.9148 6.37695L17.1847 7.20738H18.0578L17.3513 7.72047L17.6212 8.55086L16.9148 8.03762L16.2085 8.55086L16.4783 7.72047L15.772 7.20738H16.645L16.9148 6.37695Z" fill="#D80027" />
    <path d="M14.5126 9.3916L14.8363 10.3881H15.8841L15.0364 11.0039L15.3603 12.0003L14.5126 11.3845L13.6649 12.0003L13.9888 11.0039L13.1411 10.3881H14.1888L14.5126 9.3916Z" fill="#D80027" />
</svg>
