<svg xmlns="http://www.w3.org/2000/svg" viewBox="0 0 24 24">
    <path d="M19.0711 4.92893C22.9763 8.83417 22.9763 15.1658 19.0711 19.0711C15.1658 22.9763 8.83421 22.9763 4.92893 19.0711C1.02369 15.1658 1.02369 8.83421 4.92893 4.92893C8.83417 1.02369 15.1658 1.02369 19.0711 4.92893Z" fill="#F0F0F0" />
    <path d="M12.0004 2C8.0358 2 4.61018 4.30723 2.99268 7.65219H21.0081C19.3906 4.30723 15.965 2 12.0004 2Z" fill="#338AF3" />
    <path d="M12.0004 21.9998C15.965 21.9998 19.3906 19.6926 21.0081 16.3477H2.99268C4.61018 19.6926 8.0358 21.9998 12.0004 21.9998Z" fill="#338AF3" />
    <path d="M12.0005 8.95605C10.3196 8.95605 8.95703 10.3187 8.95703 11.9995C8.95703 13.6804 10.3196 15.043 12.0005 15.043C13.6814 15.043 15.044 13.6804 15.044 11.9995C15.044 10.3187 13.6814 8.95605 12.0005 8.95605ZM12.0005 13.7387C11.04 13.7387 10.2614 12.9601 10.2614 11.9995C10.2614 11.039 11.04 10.2604 12.0005 10.2604C12.961 10.2604 13.7396 11.039 13.7396 11.9995C13.7396 12.9601 12.961 13.7387 12.0005 13.7387Z" fill="#FFDA44" />
    <path d="M13.5071 12.4348L12.0009 12L10.4947 12.4348L9.99268 13.3043H14.009L13.5071 12.4348Z" fill="#0052B4" />
    <path d="M12.0007 9.82617L10.9966 11.5653L12.0007 12.0001L13.0048 11.5653L12.0007 9.82617Z" fill="#338AF3" />
    <path d="M10.4946 12.435H13.507L13.0049 11.5654H10.9967L10.4946 12.435Z" fill="#6DA544" />
</svg>
