<svg xmlns="http://www.w3.org/2000/svg" viewBox="0 0 24 24">
    <path d="M22 12C22 17.5228 17.5228 22 12 22C6.47719 22 2 17.5228 2 12C2 12.0024 12 2.00109 12 2C17.5228 2 22 6.47719 22 12Z" fill="#FFDA44" />
    <path d="M12.0002 6.78223V10.155L8.52197 6.78223H12.0002Z" fill="#0052B4" />
    <path d="M7.21748 12H10.1554L7.21748 8.08691L6.78271 11.1304L7.21748 12Z" fill="#0052B4" />
    <path d="M11.9731 12.0004H11.9999C11.9999 11.9914 11.9999 11.9827 11.9999 11.9736C11.991 11.9826 11.9821 11.9915 11.9731 12.0004Z" fill="#F0F0F0" />
    <path d="M12 7.21738C12 5.45781 12 4.30488 12 2H11.9983C6.47621 2.00094 2 6.4777 2 12H7.21738V9.06207L10.1553 12H11.9733C11.9822 11.9911 11.9911 11.9822 12 11.9732C12 11.2995 12 10.6984 12 10.1554L9.06203 7.21738H12Z" fill="#F0F0F0" />
    <path d="M11.9999 10.7706L8.44697 7.21777H7.21729V7.21785L11.9998 12.0004H11.9999C11.9999 12.0004 11.9999 11.1524 11.9999 10.7706Z" fill="#D80027" />
    <path d="M7.05904 3.30469C6.67354 3.52422 6.3042 3.76887 5.95295 4.03594H6.36326L5.27881 4.82398L5.69295 6.09887L4.6085 5.31098L4.49311 5.39484C4.04283 5.90617 3.64361 6.46352 3.3042 7.05953V12.0004H5.91291V5.91348V5.9134H11.9999C11.9999 5.09063 11.9999 4.3068 11.9999 3.30469H7.05904Z" fill="#D80027" />
    <path d="M6.27184 3.80273C6.16398 3.87824 6.05766 3.95586 5.95293 4.03551L5.27891 4.82355L4.60859 5.31051L4.49223 5.39504C4.24668 5.67395 4.01641 5.9666 3.80273 6.2718C4.04629 6.39 4.31969 6.45645 4.60859 6.45645C5.62914 6.45645 6.45641 5.62918 6.45641 4.60863C6.45648 4.31965 6.39008 4.04633 6.27184 3.80273Z" fill="#0052B4" />
    <path d="M4.49219 5.39469L4.60855 5.31016L5.69301 6.09809L5.27883 4.8232L6.3632 4.03516H5.95281C5.4218 4.43902 4.93246 4.89465 4.49219 5.39469Z" fill="#FFDA44" />
    <path d="M8.91193 3.73926L9.12779 4.40352H9.82623L9.26119 4.8141L9.47693 5.47836L8.91193 5.06781L8.34689 5.47836L8.5626 4.8141L7.99756 4.40352H8.69604L8.91193 3.73926Z" fill="#FFDA44" />
    <path d="M4.60867 8.08691L4.82453 8.75117H5.52297L4.95797 9.1618L5.17371 9.82605L4.60867 9.41547L4.04359 9.82605L4.25934 9.1618L3.69434 8.75117H4.39277L4.60867 8.08691Z" fill="#FFDA44" />
</svg>
