<svg xmlns="http://www.w3.org/2000/svg" viewBox="0 0 24 24">
    <path d="M16.3479 2.99227C15.0332 2.35656 13.5583 2 12.0001 2C10.4419 2 8.96697 2.35656 7.65229 2.99227L6.78271 12L7.65229 21.0077C8.96697 21.6434 10.4419 22 12.0001 22C13.5583 22 15.0332 21.6434 16.3479 21.0077L17.2175 12L16.3479 2.99227Z" fill="#F0F0F0" />
    <path d="M7.65219 2.99219C4.30723 4.60961 2 8.03496 2 11.9996C2 15.9642 4.30723 19.3895 7.65219 21.007V2.99219Z" fill="#6DA544" />
    <path d="M16.3477 2.99219V21.007C19.6926 19.3895 21.9998 15.9641 21.9998 11.9996C21.9998 8.035 19.6926 4.60961 16.3477 2.99219Z" fill="#6DA544" />
    <path d="M14.6085 15.0431L11.9998 6.78223L9.39111 15.0431H11.3476V17.217H12.652V15.0431H14.6085Z" fill="#6DA544" />
</svg>
