<svg xmlns="http://www.w3.org/2000/svg" viewBox="0 0 24 24">
    <path d="M19.0711 4.92893C22.9763 8.83417 22.9763 15.1658 19.0711 19.0711C15.1658 22.9763 8.83421 22.9763 4.92893 19.0711C1.02369 15.1658 1.02369 8.83421 4.92893 4.92893C8.83417 1.02369 15.1658 1.02369 19.0711 4.92893Z" fill="#F0F0F0" />
    <path d="M4.42006 5.47852C4.06916 5.88605 3.75061 6.32211 3.46826 6.78285H20.5328C20.2504 6.32211 19.9319 5.88602 19.581 5.47852H4.42006Z" fill="#D80027" />
    <path d="M4.42002 18.5221H19.581C19.9319 18.1146 20.2504 17.6785 20.5328 17.2178H3.46826C3.75057 17.6785 4.06912 18.1146 4.42002 18.5221Z" fill="#D80027" />
    <path d="M10.7208 10.1709L11.5413 11.3016L12.8701 10.8707L12.0483 12.0004L12.8687 13.131L11.5404 12.6985L10.7186 13.8282L10.7194 12.4313L9.39111 11.9988L10.7199 11.5679L10.7208 10.1709Z" fill="#D80027" />
    <path d="M8.4817 14.8259C6.92092 14.8259 5.65561 13.5605 5.65561 11.9998C5.65561 10.439 6.92092 9.17367 8.4817 9.17367C8.96834 9.17367 9.42627 9.29672 9.82604 9.51336C9.19889 8.90004 8.34119 8.52148 7.39475 8.52148C5.47373 8.52148 3.9165 10.0788 3.9165 11.9997C3.9165 13.9207 5.47377 15.478 7.39475 15.478C8.34119 15.478 9.19889 15.0994 9.82604 14.4861C9.42627 14.7028 8.96838 14.8259 8.4817 14.8259Z" fill="#D80027" />
</svg>
