<svg xmlns="http://www.w3.org/2000/svg" viewBox="0 0 24 24">
    <path d="M19.0711 4.92893C22.9763 8.83417 22.9763 15.1658 19.0711 19.0711C15.1658 22.9763 8.83421 22.9763 4.92893 19.0711C1.02369 15.1658 1.02369 8.83421 4.92893 4.92893C8.83417 1.02369 15.1658 1.02369 19.0711 4.92893Z" fill="#338AF3" />
    <path d="M11.6856 18.2964C11.416 18.2833 11.193 18.1081 11.1056 17.8703C10.9513 18.0716 10.686 18.1729 10.4248 18.1055C10.163 18.0381 9.97999 17.8216 9.94214 17.5703C9.74995 17.7363 9.46995 17.7815 9.2278 17.6629C8.98518 17.5438 8.84956 17.2946 8.86347 17.0411C8.64218 17.1655 8.3587 17.1533 8.14522 16.9881C7.93218 16.8228 7.84913 16.552 7.91347 16.3063C7.67171 16.3837 7.39694 16.315 7.22085 16.1102C7.04476 15.9059 7.01776 15.6237 7.12999 15.3963C6.8778 15.4232 6.62218 15.3006 6.49085 15.065C6.35909 14.8294 6.38956 14.5472 6.54561 14.3467C6.293 14.3224 6.0669 14.1506 5.98604 13.8932C5.90476 13.6358 5.99171 13.3654 6.18519 13.2006C5.94257 13.1258 5.75647 12.9119 5.72909 12.6437C5.70171 12.3754 5.84085 12.1289 6.063 12.0063C5.84081 11.8845 5.70081 11.638 5.72733 11.3702C5.72733 11.3702 5.72733 11.3702 5.72776 11.3702C5.75429 11.1015 5.94038 10.8872 6.18253 10.8115C5.98905 10.6471 5.90124 10.3771 5.98167 10.1197C6.0621 9.8619 6.28772 9.68971 6.54038 9.66447C6.38429 9.46447 6.353 9.18225 6.48386 8.94623C6.61472 8.71057 6.87038 8.58752 7.123 8.61404C7.00995 8.38666 7.03647 8.10447 7.21214 7.89928C7.38737 7.69451 7.66214 7.62537 7.90433 7.7019C7.83909 7.45666 7.92171 7.18537 8.13476 7.01975C8.34737 6.85404 8.63085 6.84143 8.85214 6.9649C8.8378 6.71147 8.973 6.46229 9.21518 6.34272C9.45694 6.22358 9.73737 6.26795 9.92995 6.43401C9.9669 6.18276 10.15 5.96537 10.4112 5.89748C10.6721 5.82967 10.9373 5.9301 11.0921 6.13096C11.1795 5.89315 11.4021 5.71748 11.6717 5.70401C11.9408 5.69014 12.1799 5.84139 12.2912 6.06885C12.4243 5.85319 12.6773 5.72537 12.9439 5.7658C13.2108 5.8058 13.4156 6.00229 13.4791 6.24799C13.653 6.06272 13.9269 5.98928 14.18 6.08229C14.4334 6.17576 14.5943 6.40967 14.6065 6.66358C14.8139 6.51752 15.0973 6.50053 15.3265 6.64315C15.5556 6.78533 15.6656 7.04662 15.6265 7.29748C15.8591 7.19619 16.14 7.23662 16.3356 7.42182C16.5313 7.60748 16.5869 7.88529 16.4982 8.12311C16.7465 8.07049 17.0135 8.16615 17.1682 8.38744C17.323 8.6083 17.3217 8.89178 17.1874 9.10701C17.4408 9.10526 17.683 9.25311 17.7904 9.50049C17.8974 9.7483 17.8387 10.0262 17.6635 10.2101C17.9126 10.2596 18.12 10.4531 18.1748 10.7174C18.2291 10.9818 18.1156 11.2413 17.9074 11.3862C18.1404 11.4849 18.3048 11.7157 18.3052 11.9853C18.3052 11.9883 18.3052 11.991 18.3052 11.994C18.3052 11.9958 18.3052 11.9979 18.3052 11.9997C18.3052 12.2692 18.1417 12.5005 17.9087 12.6001C18.1174 12.744 18.2317 13.0036 18.1774 13.2679C18.1235 13.5322 17.9165 13.7262 17.6674 13.7766C17.843 13.9601 17.9026 14.2375 17.7961 14.4858C17.6896 14.7336 17.4474 14.8819 17.1935 14.8805C17.3282 15.0958 17.3304 15.3792 17.1761 15.6005C17.0217 15.8219 16.7552 15.9184 16.5069 15.8662C16.5961 16.1036 16.5408 16.3819 16.3457 16.568C16.15 16.7537 15.8696 16.7945 15.6369 16.694C15.6765 16.9445 15.5669 17.2062 15.3382 17.3493C15.1095 17.4923 14.826 17.4758 14.6182 17.3301C14.6065 17.584 14.4465 17.8184 14.1935 17.9123C14.1935 17.9123 14.1935 17.9123 14.193 17.9123C13.94 18.0058 13.6661 17.9328 13.4917 17.748C13.4291 17.9941 13.2248 18.191 12.9578 18.2319C12.6913 18.2724 12.4378 18.1454 12.3044 17.9297C12.1983 18.1485 11.9739 18.2971 11.7183 18.2971C11.7074 18.2973 11.6965 18.2969 11.6856 18.2964Z" fill="#F3F3F3" />
    <path d="M15.075 8.92579C16.773 10.6237 16.773 13.3766 15.075 15.0745C13.3771 16.7725 10.6242 16.7725 8.92628 15.0745C7.22835 13.3766 7.22835 10.6237 8.92628 8.92579C10.6242 7.22786 13.3771 7.22786 15.075 8.92579Z" fill="#338AF3" />
    <path d="M12.9525 10.5239C13.1661 10.3655 13.3052 10.1122 13.3052 9.82582V9.39105C13.3052 8.91078 12.9159 8.52148 12.4356 8.52148H11.5661C11.0858 8.52148 10.6965 8.91078 10.6965 9.39105V9.82582C10.6965 10.1122 10.8355 10.3655 11.0491 10.5239L10.2617 18.5214C10.2617 18.5214 10.6965 18.9563 12.0009 18.9563C13.3052 18.9563 13.74 18.5214 13.74 18.5214L12.9525 10.5239Z" fill="#BDBCC1" />
    <path d="M12.0004 8.52148L12.7558 10.8464H15.2005L13.2228 12.2834L13.9781 14.6084L12.0004 13.1715L10.0226 14.6084L10.7781 12.2834L8.80029 10.8464H11.2449L12.0004 8.52148Z" fill="#F0F0F0" />
</svg>
