<svg xmlns="http://www.w3.org/2000/svg" viewBox="0 0 24 24">
    <path d="M19.0711 4.92893C22.9763 8.83417 22.9763 15.1658 19.0711 19.0711C15.1658 22.9763 8.83421 22.9763 4.92893 19.0711C1.02369 15.1658 1.02369 8.83421 4.92893 4.92893C8.83417 1.02369 15.1658 1.02369 19.0711 4.92893Z" fill="#FFDA44" />
    <path d="M13.5213 21.885C15.1477 21.6369 16.6448 20.9964 17.9141 20.064L12.0005 12L13.5213 21.885Z" fill="#D80027" />
    <path d="M10.4798 2.11523C8.8534 2.36336 7.35629 3.00383 6.08691 3.93621L12.0006 12.0003L10.4798 2.11523Z" fill="#D80027" />
    <path d="M6.08691 20.064C7.35621 20.9964 8.85332 21.6369 10.4797 21.8851L12.0006 12L6.08691 20.064Z" fill="#D80027" />
    <path d="M3.9367 6.08594C3.00428 7.35531 2.36389 8.85238 2.11572 10.4788L12.0008 11.9996L3.9367 6.08594Z" fill="#D80027" />
    <path d="M2.11572 13.5208C2.36385 15.1472 3.00432 16.6443 3.93674 17.9136L12.0008 12L2.11572 13.5208Z" fill="#D80027" />
    <path d="M21.8855 10.4788C21.6374 8.85238 20.9969 7.35527 20.0645 6.08594L12.0005 11.9996L21.8855 10.4788Z" fill="#D80027" />
    <path d="M17.9141 3.93617C16.6447 3.00379 15.1477 2.36336 13.5213 2.11523L12.0005 12.0003L17.9141 3.93617Z" fill="#D80027" />
    <path d="M20.0646 17.9136C20.997 16.6443 21.6374 15.1471 21.8856 13.5208L12.0005 12L20.0646 17.9136Z" fill="#D80027" />
    <path d="M14.4602 9.54024C15.8185 10.8986 15.8185 13.1009 14.4602 14.4592C13.1019 15.8176 10.8996 15.8176 9.54122 14.4592C8.18288 13.1009 8.18288 10.8986 9.54122 9.54024C10.8996 8.1819 13.1019 8.1819 14.4602 9.54024Z" fill="#D80027" />
    <path d="M13.8454 10.1557C14.8642 11.1744 14.8642 12.8262 13.8454 13.845C12.8267 14.8637 11.1749 14.8637 10.1562 13.845C9.1374 12.8262 9.1374 11.1744 10.1562 10.1557C11.1749 9.13691 12.8267 9.13691 13.8454 10.1557Z" fill="#FFDA44" />
</svg>
