<svg xmlns="http://www.w3.org/2000/svg" viewBox="0 0 24 24">
    <path d="M19.0711 4.92893C22.9763 8.83417 22.9763 15.1658 19.0711 19.0711C15.1658 22.9763 8.83421 22.9763 4.92893 19.0711C1.02369 15.1658 1.02369 8.83421 4.92893 4.92893C8.83417 1.02369 15.1658 1.02369 19.0711 4.92893Z" fill="#F0F0F0" />
    <path d="M12.0004 2C8.96953 2 6.25379 3.34859 4.41992 5.47824H19.5809C17.7471 3.34859 15.0313 2 12.0004 2Z" fill="#0052B4" />
    <path d="M19.5809 18.5215H4.41992C6.25379 20.6511 8.96953 21.9997 12.0004 21.9997C15.0313 21.9997 17.7471 20.6511 19.5809 18.5215Z" fill="#0052B4" />
    <path d="M20.5328 6.78223H3.46822C2.5374 8.30117 2.00049 10.0876 2.00049 11.9996C2.00049 13.9116 2.5374 15.6981 3.46822 17.217H20.5328C21.4636 15.6981 22.0005 13.9116 22.0005 11.9996C22.0005 10.0876 21.4636 8.30117 20.5328 6.78223Z" fill="#D80027" />
    <path d="M10.8738 9.27934C12.3765 10.782 12.3765 13.2183 10.8738 14.721C9.37115 16.2236 6.93487 16.2236 5.43217 14.721C3.92951 13.2183 3.92951 10.782 5.43217 9.27934C6.93484 7.77668 9.37112 7.77668 10.8738 9.27934Z" fill="#F0F0F0" />
    <path d="M8.15281 8.15234L9.01613 10.8094H11.8145L9.54977 12.4517L10.4198 15.1167L8.15281 13.4666L5.88922 15.1136L6.75586 12.4517L4.49316 10.8094H7.28945L8.15281 8.15234Z" fill="#D80027" />
</svg>
