<svg xmlns="http://www.w3.org/2000/svg" viewBox="0 0 24 24">
    <path d="M19.0711 4.92893C22.9763 8.83417 22.9763 15.1658 19.0711 19.0711C15.1658 22.9763 8.83421 22.9763 4.92893 19.0711C1.02369 15.1658 1.02369 8.83421 4.92893 4.92893C8.83417 1.02369 15.1658 1.02369 19.0711 4.92893Z" fill="#F0F0F0" />
    <path d="M2.00049 11.9999C2.00049 15.7904 4.10947 19.088 7.21787 20.784V3.21582C4.10947 4.91184 2.00049 8.20949 2.00049 11.9999Z" fill="#D80027" />
    <path d="M21.3785 15.478C21.7805 14.3946 22.0005 13.2229 22.0005 11.9997C22.0005 10.7765 21.7805 9.60477 21.3785 8.52148H2.62252C2.22053 9.60477 2.00049 10.7765 2.00049 11.9997C2.00049 13.2229 2.22053 14.3946 2.62252 15.478L12.0005 16.3475L21.3785 15.478Z" fill="#D80027" />
    <path d="M12.0005 22.0003C16.3002 22.0003 19.9656 19.2865 21.3786 15.4785H2.62256C4.03545 19.2865 7.70092 22.0003 12.0005 22.0003Z" fill="#6DA544" />
    <path d="M2.00049 12.0002C2.00049 16.6205 5.13412 20.5082 9.39178 21.6557V2.34473C5.13412 3.49223 2.00049 7.37996 2.00049 12.0002Z" fill="#D80027" />
    <path d="M8.11832 6.40082L7.19602 5.47852L6.58117 6.09344L5.96633 5.47852L5.04402 6.40082L5.65891 7.0157L5.04395 7.63062L5.96625 8.55293L6.58113 7.93801L7.19602 8.55293L8.11832 7.63062L7.50344 7.0157L8.11832 6.40082Z" fill="#F0F0F0" />
</svg>
