<svg xmlns="http://www.w3.org/2000/svg" viewBox="0 0 24 24">
    <path d="M21.6555 14.6087C21.8797 13.777 22 12.9027 22 12C22 11.0974 21.8797 10.2231 21.6555 9.39133L11.1304 2.03809C9.17648 2.20645 7.3834 2.93652 5.91305 4.06625L2.34449 9.39133C2.12031 10.2231 2 11.0974 2 12C2 12.8974 2.11887 13.7669 2.34055 14.5943L5.91301 19.9338C7.38336 21.0636 9.17645 21.7937 11.1304 21.962L21.6555 14.6087Z" fill="#FFDA44" />
    <path d="M2.34473 14.6084C2.92332 16.7552 4.19855 18.6159 5.91328 19.9335V14.6084H2.34473Z" fill="#D80027" />
    <path d="M11.1304 21.9616C11.417 21.9863 11.7069 21.9997 11.9999 21.9997C16.6202 21.9997 20.5079 18.8661 21.6554 14.6084H11.1304V21.9616Z" fill="#D80027" />
    <path d="M21.6554 9.39129C20.5079 5.13363 16.6202 2 11.9999 2C11.7069 2 11.417 2.01336 11.1304 2.03805V9.39129H21.6554Z" fill="#D80027" />
    <path d="M5.91328 4.06641C4.19855 5.38398 2.92332 7.24465 2.34473 9.39148H5.91328V4.06641Z" fill="#D80027" />
    <path d="M21.9154 10.6953H9.82613H9.82609V2.2373C8.90195 2.44223 8.02582 2.77437 7.21738 3.21551V10.6952H2.08465C2.02906 11.1222 2 11.5575 2 11.9996C2 12.4417 2.02906 12.877 2.08465 13.3039H7.21734H7.21738V20.7837C8.02582 21.2248 8.90195 21.557 9.82609 21.7619V13.3041V13.304H21.9154C21.9709 12.877 22 12.4417 22 11.9996C22 11.5575 21.9709 11.1222 21.9154 10.6953Z" fill="#0052B4" />
</svg>
