<svg xmlns="http://www.w3.org/2000/svg" viewBox="0 0 24 24">
    <path d="M19.0711 4.92893C22.9763 8.83417 22.9763 15.1658 19.0711 19.0711C15.1658 22.9763 8.83421 22.9763 4.92893 19.0711C1.02369 15.1658 1.02369 8.83421 4.92893 4.92893C8.83417 1.02369 15.1658 1.02369 19.0711 4.92893Z" fill="#F0F0F0" />
    <path d="M2.00049 11.9999C2.00049 15.7904 4.10943 19.088 7.21787 20.784V3.21582C4.10943 4.91188 2.00049 8.20949 2.00049 11.9999Z" fill="#F0F0F0" />
    <path d="M12.0009 2C10.2685 2 8.639 2.44074 7.21826 3.2159V20.7841C8.639 21.5593 10.2685 22 12.0009 22C17.5237 22 22.0009 17.5228 22.0009 12C22.0009 6.47719 17.5237 2 12.0009 2Z" fill="#496E2D" />
    <path d="M16.2764 13.6534C15.0113 14.5675 13.2446 14.283 12.3306 13.0179C11.4164 11.7527 11.701 9.98613 12.9661 9.07207C13.3606 8.78707 13.8038 8.61859 14.2547 8.56003C13.3872 8.43031 12.4702 8.62578 11.7032 9.18003C10.1461 10.3051 9.79585 12.4794 10.9209 14.0365C12.0459 15.5935 14.2202 15.9438 15.7773 14.8186C16.5445 14.2644 17.018 13.4553 17.1671 12.5909C16.97 13.0005 16.6709 13.3684 16.2764 13.6534Z" fill="#F0F0F0" />
    <path d="M16.2221 8.52148L16.9347 9.28949L17.8854 8.84918L17.3751 9.76418L18.0877 10.5323L17.0597 10.3297L16.5495 11.2448L16.4245 10.2046L15.3965 10.002L16.3471 9.56172L16.2221 8.52148Z" fill="#F0F0F0" />
</svg>
