<svg xmlns="http://www.w3.org/2000/svg" viewBox="0 0 24 24">
    <path d="M19.0711 4.92893C22.9763 8.83417 22.9763 15.1658 19.0711 19.0711C15.1658 22.9763 8.83421 22.9763 4.92893 19.0711C1.02369 15.1658 1.02369 8.83421 4.92893 4.92893C8.83417 1.02369 15.1658 1.02369 19.0711 4.92893Z" fill="#F0F0F0" />
    <path d="M2.00049 12C2.00049 17.5228 6.47768 22 12.0005 22C12.0005 18.1971 12.0005 12 12.0005 12C12.0005 12 5.47873 12 2.00049 12Z" fill="#0052B4" />
    <path d="M12.0005 2C17.5233 2 22.0005 6.47719 22.0005 12C18.1976 12 12.0005 12 12.0005 12C12.0005 12 12.0005 5.47824 12.0005 2Z" fill="#D80027" />
    <path d="M7.95342 5.47852L8.60096 7.47141H10.6964L9.00115 8.70305L9.64865 10.6959L7.95342 9.46426L6.25818 10.6959L6.90568 8.70305L5.21045 7.47141H7.30588L7.95342 5.47852Z" fill="#0052B4" />
    <path d="M16.0481 13.3047L16.6957 15.2976H18.7911L17.0958 16.5292L17.7434 18.5221L16.0481 17.2904L14.3529 18.5221L15.0004 16.5292L13.3052 15.2976H15.4006L16.0481 13.3047Z" fill="#D80027" />
</svg>
