<svg xmlns="http://www.w3.org/2000/svg" viewBox="0 0 24 24">
    <path d="M19.0711 19.0708C15.1659 22.976 8.83423 22.976 4.92892 19.0708C1.02369 15.1656 1.02369 8.83389 4.92896 4.92862C8.83419 1.02339 14.551 1.63827 18.4562 5.54354C22.3614 9.44878 22.9763 15.1656 19.0711 19.0708Z" fill="black" />
    <path d="M4.92871 4.92889C8.83395 1.02366 15.1655 1.02374 19.0709 4.92893C22.9761 8.83416 22.9761 15.1658 19.0709 19.0711" fill="#A2001D" />
    <path d="M9.64228 15.4785L9.80416 15.9768H10.328L9.9042 16.2846L10.0661 16.7829L9.64228 16.475L9.21846 16.7829L9.38033 16.2846L8.95654 15.9768H9.48037L9.64228 15.4785Z" fill="#F0F0F0" />
    <path d="M8.30451 10.6953L8.57439 11.5257H9.44744L8.74107 12.0389L9.01088 12.8693L8.30451 12.356L7.59818 12.8693L7.86803 12.0389L7.16162 11.5257H8.03475L8.30451 10.6953Z" fill="#F0F0F0" />
    <path d="M8.30451 16.7822L8.57432 17.6126H9.44744L8.741 18.1257L9.01088 18.9561L8.30451 18.4429L7.59818 18.9561L7.86795 18.1257L7.16162 17.6126H8.03463L8.30451 16.7822Z" fill="#F0F0F0" />
    <path d="M10.8572 12.8691L11.1271 13.6995H12.0001L11.2938 14.2127L11.5636 15.043L10.8572 14.5298L10.1509 15.043L10.4207 14.2127L9.71436 13.6995H10.5874L10.8572 12.8691Z" fill="#F0F0F0" />
    <path d="M5.75178 12.8691L6.02166 13.6995H6.89467L6.18834 14.2127L6.45811 15.043L5.75178 14.5298L5.04541 15.043L5.31529 14.2127L4.60889 13.6995H5.48197L5.75178 12.8691Z" fill="#F0F0F0" />
    <path d="M18.7404 9.40512C18.2935 8.9582 17.7128 8.69418 17.0887 8.64883L18.9567 7.19598C18.2128 6.45203 17.2157 6.11605 16.2427 6.18711C16.1262 5.76852 15.9041 5.37313 15.575 5.04395L14.8371 6.51965C14.7887 6.43145 14.7274 6.34844 14.6527 6.27371C14.2281 5.84922 13.5399 5.84922 13.1155 6.27371C12.691 6.6982 12.6909 7.38641 13.1155 7.8109C13.1902 7.88562 13.2732 7.94691 13.3614 7.99535L11.8857 8.7332C12.215 9.0625 12.6107 9.28473 13.0295 9.40113C12.9582 10.3741 13.2938 11.3711 14.0378 12.115L15.6698 10.0167C15.7926 9.89578 15.9548 9.82902 16.1273 9.82902C16.3015 9.82902 16.4652 9.89684 16.5884 10.0201C16.7116 10.1432 16.7795 10.307 16.7795 10.4812C16.7795 10.6554 16.7116 10.8192 16.5884 10.9424L17.2033 11.5573C17.4907 11.2699 17.649 10.8877 17.649 10.4813C17.649 10.1487 17.5429 9.8325 17.3471 9.57109C17.6325 9.6473 17.9022 9.7966 18.1256 10.0201C18.8038 10.6982 18.8038 11.8015 18.1256 12.4796L18.7405 13.0945C19.2332 12.6018 19.5046 11.9467 19.5046 11.2498C19.5045 10.5529 19.2331 9.89785 18.7404 9.40512Z" fill="#FFDA44" />
</svg>
