<svg xmlns="http://www.w3.org/2000/svg" viewBox="0 0 24 24">
    <path d="M19.0711 4.92893C22.9763 8.83417 22.9763 15.1658 19.0711 19.0711C15.1658 22.9763 8.83421 22.9763 4.92893 19.0711C1.02369 15.1658 1.02369 8.83421 4.92893 4.92893C8.83417 1.02369 15.1658 1.02369 19.0711 4.92893Z" fill="#F0F0F0" />
    <path d="M12.0008 2V12L4.92969 19.0711C6.73934 20.8807 9.23934 22 12.0008 22C17.5236 22 22.0008 17.5228 22.0008 12C22.0008 6.47719 12.0008 2 12.0008 2Z" fill="#D80027" />
    <path d="M12.0008 2C9.23934 2 6.73934 3.1193 4.92969 4.92891C7.3832 7.38242 8.25418 8.25344 12.0008 12H22.0008C22.0008 6.47719 17.5236 2 12.0008 2Z" fill="#0052B4" />
    <path d="M8.84785 12.0005L7.6266 11.426L8.27695 10.2432L6.95078 10.497L6.78273 9.15723L5.85898 10.1425L4.93527 9.15723L4.76719 10.497L3.44105 10.2432L4.09141 11.426L2.87012 12.0005L4.09141 12.5749L3.44105 13.7577L4.7673 13.504L4.93523 14.8437L5.85898 13.8584L6.78273 14.8437L6.95078 13.504L8.27687 13.7577L7.62656 12.575L8.84785 12.0005Z" fill="#FFDA44" />
    <path d="M4.66768 5.91309L5.07408 6.48117L5.7399 6.27027L5.32514 6.8323L5.73154 7.40039L5.06881 7.17965L4.65408 7.74164L4.65928 7.0432L3.99658 6.82242L4.66252 6.61152L4.66768 5.91309Z" fill="#FFDA44" />
    <path d="M4.66768 16.2588L5.07408 16.8269L5.7399 16.6159L5.32514 17.178L5.73154 17.7461L5.06881 17.5254L4.65408 18.0873L4.65928 17.3889L3.99658 17.1681L4.66252 16.9572L4.66768 16.2588Z" fill="#FFDA44" />
    <path d="M10.4643 11.0859L10.0579 11.654L9.39209 11.443L9.80686 12.0051L9.40045 12.5732L10.0632 12.3525L10.4779 12.9145L10.4727 12.2161L11.1354 11.9953L10.4695 11.7844L10.4643 11.0859Z" fill="#FFDA44" />
</svg>
