<svg xmlns="http://www.w3.org/2000/svg" viewBox="0 0 24 24">
    <path d="M22 12C22 17.5228 17.5228 22 12 22C6.47719 22 2 17.5228 2 12C2 12.0024 12 2.00109 12 2C17.5228 2 22 6.47719 22 12Z" fill="#0052B4" />
    <path d="M11.9731 12.0004H11.9999C11.9999 11.9914 11.9999 11.9827 11.9999 11.9736C11.991 11.9826 11.9821 11.9915 11.9731 12.0004Z" fill="#F0F0F0" />
    <path d="M12 7.21738C12 5.45781 12 4.30488 12 2H11.9983C6.47621 2.00094 2 6.4777 2 12H7.21738V9.06207L10.1553 12H11.9733C11.9822 11.9911 11.9911 11.9822 12 11.9732C12 11.2995 12 10.6984 12 10.1554L9.06203 7.21738H12Z" fill="#F0F0F0" />
    <path d="M7.05904 3.30469C5.49502 4.19527 4.19475 5.49551 3.3042 7.05953V12.0004H5.91291V5.91348V5.9134H11.9999C11.9999 5.09063 11.9999 4.3068 11.9999 3.30469H7.05904Z" fill="#D80027" />
    <path d="M11.9999 10.7706L8.44697 7.21777H7.21729V7.21785L11.9998 12.0004H11.9999C11.9999 12.0004 11.9999 11.1524 11.9999 10.7706Z" fill="#D80027" />
    <path d="M17.6524 8.08699L16.348 8.5218L15.0437 8.08699L14.6089 7.00004L15.0437 5.91309H17.6524L17.2176 7.00004L17.6524 8.08699Z" fill="#ACABB1" />
    <path d="M13.3042 8.08691V12.8695C13.3042 15.1992 16.3477 15.913 16.3477 15.913C16.3477 15.913 19.3912 15.1992 19.3912 12.8695V8.08691H13.3042Z" fill="#338AF3" />
    <path d="M13.5786 14.0029C14.3267 15.4391 16.3478 15.9133 16.3478 15.9133C16.3478 15.9133 18.3688 15.4391 19.1169 14.0029L16.3478 9.3916L13.5786 14.0029Z" fill="#6DA544" />
    <path d="M19.3912 12.8212L16.3477 8.08691L13.3042 12.8212V12.8695C13.3042 13.3007 13.4087 13.6764 13.5785 14.0025L16.3477 9.69492L19.1168 14.0025C19.2867 13.6763 19.3912 13.3006 19.3912 12.8695V12.8212Z" fill="#FFDA44" />
</svg>
