<svg xmlns="http://www.w3.org/2000/svg" viewBox="0 0 24 24">
    <path d="M2 12.0001C2 16.2997 4.71375 19.9651 8.52168 21.378L9.39129 12L8.52168 2.62207C4.71375 4.03504 2 7.70043 2 12.0001Z" fill="#6DA544" />
    <path d="M21.9998 12C21.9998 6.47719 17.5226 2 11.9998 2C10.7766 2 9.60484 2.22004 8.52148 2.62199V21.378C9.60484 21.78 10.7766 22 11.9998 22C17.5226 22 21.9998 17.5228 21.9998 12Z" fill="#D80027" />
    <path d="M10.9812 9.54024C12.3395 10.8986 12.3395 13.1009 10.9812 14.4592C9.62286 15.8176 7.42056 15.8176 6.06221 14.4592C4.70387 13.1009 4.70387 10.8986 6.06221 9.54024C7.42055 8.1819 9.62285 8.1819 10.9812 9.54024Z" fill="#FFDA44" />
    <path d="M6.56543 10.2607V12.4346C6.56543 13.5152 7.44137 14.3912 8.52195 14.3912C9.60254 14.3912 10.4785 13.5152 10.4785 12.4346V10.2607H6.56543Z" fill="#D80027" />
    <path d="M8.52182 13.0871C8.16221 13.0871 7.86963 12.7946 7.86963 12.435V11.5654H9.17396V12.435C9.17396 12.7946 8.88139 13.0871 8.52182 13.0871Z" fill="#F0F0F0" />
</svg>
