<svg xmlns="http://www.w3.org/2000/svg" viewBox="0 0 24 24">
    <path d="M19.0711 4.92893C22.9763 8.83417 22.9763 15.1658 19.0711 19.0711C15.1658 22.9763 8.83421 22.9763 4.92893 19.0711C1.02369 15.1658 1.02369 8.83421 4.92893 4.92893C8.83417 1.02369 15.1658 1.02369 19.0711 4.92893Z" fill="#F0F0F0" />
    <path d="M12.0004 2C8.72887 2 5.82437 3.57121 4 6H20.0009C18.1765 3.57121 15.272 2 12.0004 2Z" fill="#D80027" />
    <path d="M12.0004 22C15.272 22 18.1765 20.4288 20.0009 18H4C5.82437 20.4288 8.72887 22 12.0004 22Z" fill="#D80027" />
    <path d="M2.00049 12C2.00049 12.685 2.06955 13.3538 2.20076 14H21.8003C21.9315 13.3538 22.0005 12.685 22.0005 12C22.0005 11.315 21.9314 10.6462 21.8003 10H2.20076C2.06955 10.6462 2.00049 11.315 2.00049 12H2.00049Z" fill="#D80027" />
    <path d="M4.92941 4.92871C1.02418 8.83395 1.02418 15.1656 4.92941 19.0709C6.5432 17.4571 8.09527 15.905 12.0005 11.9998L4.92941 4.92871Z" fill="#0052B4" />
    <path d="M6.04811 9.3916L6.69557 11.3844H8.79111L7.09588 12.6161L7.7433 14.609L6.04811 13.3773L4.35283 14.609L5.00041 12.6161L3.30518 11.3844H5.40057L6.04811 9.3916Z" fill="#F0F0F0" />
</svg>
