<svg xmlns="http://www.w3.org/2000/svg" viewBox="0 0 24 24">
    <path d="M19.0711 4.92893C22.9763 8.83417 22.9763 15.1658 19.0711 19.0711C15.1658 22.9763 8.83421 22.9763 4.92893 19.0711C1.02369 15.1658 1.02369 8.83421 4.92893 4.92893C8.83417 1.02369 15.1658 1.02369 19.0711 4.92893Z" fill="#F0F0F0" />
    <path d="M22.0005 12C22.0005 6.47719 17.5233 2 12.0005 2C10.0443 2 8.21951 2.5623 6.67818 3.53324L8.8701 4.46453L5.91357 5.7207L8.8701 6.97684L5.91357 8.23293L8.8701 9.48898L5.91357 10.7449L8.8701 12.0007L5.91357 13.2568L8.8701 14.5128L5.91357 15.7687L8.8701 17.0247L5.91357 18.2808L8.8701 19.5367L6.67916 20.4675C8.22029 21.438 10.0447 22 12.0005 22C17.5233 22 22.0005 17.5228 22.0005 12Z" fill="#751A46" />
</svg>
