<svg xmlns="http://www.w3.org/2000/svg" viewBox="0 0 24 24">
    <path d="M19.0711 4.92893C22.9763 8.83417 22.9763 15.1658 19.0711 19.0711C15.1658 22.9763 8.83421 22.9763 4.92893 19.0711C1.02369 15.1658 1.02369 8.83421 4.92893 4.92893C8.83417 1.02369 15.1658 1.02369 19.0711 4.92893Z" fill="#FCFCFC" />
    <path d="M15.044 10.2607V11.1303H16.2374C15.7394 11.8225 15.076 12.3876 14.3052 12.7681C14.1075 12.5627 13.8299 12.4346 13.5222 12.4346C13.0037 12.4346 12.5703 12.7979 12.4617 13.2838C12.3097 13.2971 12.156 13.3042 12.0005 13.3042C11.8451 13.3042 11.6913 13.2971 11.5394 13.2838C11.4308 12.7979 10.9974 12.4346 10.4788 12.4346C10.1712 12.4346 9.89365 12.5627 9.69584 12.7681C8.92506 12.3876 8.2617 11.8225 7.76365 11.1303H8.95705V10.2607H5.91357C5.91357 13.6224 8.63885 16.3477 12.0005 16.3477C15.3623 16.3477 18.0875 13.6224 18.0875 10.2607H15.044Z" fill="#D80027" />
</svg>
