<svg xmlns="http://www.w3.org/2000/svg" viewBox="0 0 24 24">
    <path d="M15.4784 2.62195C14.395 2.22004 13.2234 2 12.0002 2C10.777 1.99996 9.60523 2.22004 8.52191 2.62195L7.65234 12L8.52191 21.378C9.6052 21.78 10.7769 22 12.0002 22C13.2233 22 14.3951 21.78 15.4784 21.378L16.3479 12L15.4784 2.62195Z" fill="#FFDA44" />
    <path d="M21.9998 12.0001C21.9998 7.70047 19.286 4.03496 15.478 2.62207V21.3782C19.286 19.9651 21.9997 16.2998 21.9998 12.0001Z" fill="#D80027" />
    <path d="M2 12C2 16.2997 4.71375 19.9651 8.52168 21.3781L8.52172 2.62207C4.71375 4.03496 2 7.70035 2 12H2Z" fill="#0052B4" />
</svg>
