<svg xmlns="http://www.w3.org/2000/svg" viewBox="0 0 24 24">
    <path d="M19.0711 4.92893C22.9763 8.83417 22.9763 15.1658 19.0711 19.0711C15.1658 22.9763 8.83421 22.9763 4.92893 19.0711C1.02369 15.1658 1.02369 8.83421 4.92893 4.92893C8.83417 1.02369 15.1658 1.02369 19.0711 4.92893Z" fill="#F0F0F0" />
    <path d="M21.3785 15.478C21.7805 14.3946 22.0005 13.2229 22.0005 11.9997C22.0005 10.7765 21.7805 9.6048 21.3785 8.52148H2.62248C2.22053 9.6048 2.00049 10.7765 2.00049 11.9997C2.00049 13.2229 2.22053 14.3946 2.62248 15.478L12.0005 16.3475L21.3785 15.478Z" fill="#0052B4" />
    <path d="M12.0006 22.0003C16.3002 22.0003 19.9656 19.2865 21.3786 15.4785H2.62256C4.03549 19.2865 7.70092 22.0003 12.0006 22.0003Z" fill="#D80027" />
</svg>
