<svg xmlns="http://www.w3.org/2000/svg" viewBox="0 0 24 24">
    <path d="M2 12.0004C2 13.7329 2.44074 15.3623 3.2159 16.783L12 17.6526L20.7841 16.783C21.5593 15.3623 22 13.7329 22 12.0004L12 11.1309L2 12.0004Z" fill="#FFDA44" />
    <path d="M20.7841 7.21738C19.088 4.10895 15.7904 2 12 2C8.20957 2 4.91195 4.10895 3.2159 7.21738C2.44074 8.63812 2 10.2676 2 12H22C22 10.2676 21.5593 8.63812 20.7841 7.21738Z" fill="#338AF3" />
    <path d="M11.9999 21.9996C15.7904 21.9996 19.088 19.8907 20.784 16.7822H3.21582C4.91188 19.8907 8.20949 21.9996 11.9999 21.9996Z" fill="#496E2D" />
    <path d="M13.3042 7.85199L14.5255 8.42648L13.8752 9.6093L15.2013 9.35562L15.3694 10.6953L16.2931 9.70996L17.2168 10.6953L17.3848 9.35562L18.711 9.60922L18.0607 8.42645L19.2819 7.85199L18.0606 7.27758L18.711 6.09477L17.3849 6.34844L17.2168 5.00879L16.2931 5.9941L15.3694 5.00879L15.2013 6.34844L13.8751 6.09477L14.5255 7.27762L13.3042 7.85199Z" fill="#FFDA44" />
</svg>
