<svg xmlns="http://www.w3.org/2000/svg" viewBox="0 0 24 24">
    <path d="M19.0711 4.92893C22.9763 8.83417 22.9763 15.1658 19.0711 19.0711C15.1658 22.9763 8.83421 22.9763 4.92893 19.0711C1.02369 15.1658 1.02369 8.83421 4.92893 4.92893C8.83417 1.02369 15.1658 1.02369 19.0711 4.92893Z" fill="#F0F0F0" />
    <path d="M12.0005 2C11.9912 1.99297 1.99783 11.9974 2.00049 12C2.00049 6.47719 6.47768 2 12.0005 2Z" fill="#D80027" />
    <path d="M12.0005 2C12.0098 1.99297 22.0031 11.9973 22.0005 12C22.0005 6.47719 17.5233 2 12.0005 2Z" fill="#D80027" />
    <path d="M12.0005 22C11.9912 22.007 1.99783 12.0027 2.00049 12C2.00049 17.5228 6.47768 22 12.0005 22Z" fill="#0052B4" />
    <path d="M12.0005 22C12.0098 22.007 22.0031 12.0027 22.0005 12C22.0005 17.5228 17.5233 22 12.0005 22Z" fill="#0052B4" />
    <path d="M12.0008 7.21777L13.08 10.5392H16.5724L13.7469 12.592L14.8262 15.9134L12.0008 13.8607L9.17537 15.9134L10.2546 12.592L7.4292 10.5392H10.9215L12.0008 7.21777Z" fill="#FFDA44" />
</svg>
