<svg xmlns="http://www.w3.org/2000/svg" viewBox="0 0 24 24">
    <path d="M19.0711 4.92893C22.9763 8.83418 22.9763 15.1658 19.0711 19.0711C15.1658 22.9763 8.83421 22.9763 4.92893 19.0711C1.02369 15.1658 1.02369 8.83421 4.92893 4.92893C8.83418 1.02369 15.1658 1.02369 19.0711 4.92893Z" fill="#F0F0F0" />
    <path d="M19.8553 10.043H16.5654C16.5654 9.4427 16.0788 8.95605 15.4785 8.95605L14.6089 10.6952C14.6089 10.6952 15.5364 13.3039 15.5074 13.3039H16.5944C17.1947 13.3039 17.6813 12.8173 17.6813 12.2169C18.2817 12.2169 18.7683 11.7303 18.7683 11.13H18.7321C19.3324 11.1299 19.8553 10.6433 19.8553 10.043Z" fill="#ACABB1" />
    <path d="M4.14502 10.043H7.43487C7.43487 9.4427 7.92152 8.95605 8.52182 8.95605L9.3914 10.6952C9.3914 10.6952 8.46384 13.3039 8.49285 13.3039H7.4059C6.80556 13.3039 6.31895 12.8173 6.31895 12.2169C5.71862 12.2169 5.23201 11.7303 5.23201 11.13H5.26821C4.66787 11.1299 4.14502 10.6433 4.14502 10.043Z" fill="#ACABB1" />
    <path d="M15.4784 15.9131V16.3479H8.52184V15.9131H6.78271V17.6522H8.52184V18.087H15.4784V17.6522H17.2175V15.9131H15.4784Z" fill="#FFDA44" />
    <path d="M8.52197 8.95626V13.304C8.52197 15.9665 12.0002 16.7823 12.0002 16.7823C12.0002 16.7823 15.4785 15.9665 15.4785 13.304V8.95626L12.0002 8.52148L8.52197 8.95626Z" fill="#0052B4" />
    <path d="M8.52197 10.6953H15.4785V13.304H8.52197V10.6953Z" fill="#D80027" />
    <path d="M13.7393 6.78267V7.43484L13.3046 7.65225L12.8698 7.21744V5.91309H11.1307V7.21744L10.6959 7.65225L10.2611 7.43484V6.78267H8.52197V8.95656H15.4785V6.78267H13.7393Z" fill="#FFDA44" />
</svg>
