<svg xmlns="http://www.w3.org/2000/svg" viewBox="0 0 24 24">
    <path d="M19.0715 4.92893C22.9768 8.83416 22.9768 15.1658 19.0715 19.071C15.1663 22.9763 8.83466 22.9763 4.92942 19.071C1.02418 15.1658 1.02418 8.83417 4.92942 4.92893C8.83465 1.02369 15.1663 1.02369 19.0715 4.92893Z" fill="#FFDA44" />
    <path d="M4.92852 19.0707C5.34801 19.4902 5.79563 19.8643 6.26512 20.1937L20.1936 6.2652C19.8643 5.79567 19.4902 5.34809 19.0706 4.9286C18.6511 4.5091 18.2036 4.13508 17.7341 3.80566L3.80566 17.7342C4.13496 18.2037 4.50903 18.6512 4.92852 19.0707Z" fill="black" />
    <path d="M4.92855 4.92845C1.77374 8.08327 1.16808 12.8213 3.11043 16.5846L16.5847 3.1104C12.8213 1.16809 8.08325 1.77376 4.92855 4.92845Z" fill="#6DA544" />
    <path d="M19.0708 19.0712C22.2255 15.9165 22.8312 11.1784 20.8889 7.41504L7.41455 20.8894C11.1779 22.8316 15.9159 22.226 19.0708 19.0712Z" fill="#D80027" />
    <path d="M8.35793 13.7974L9.29145 14.273L10.0323 13.5322L9.8684 14.567L10.8019 15.0427L9.76707 15.2065L9.60317 16.2413L9.12754 15.3078L8.09277 15.4717L8.8336 14.7309L8.35793 13.7974Z" fill="#F0F0F0" />
    <path d="M13.7969 8.35793L14.7304 8.8336L15.4712 8.09277L15.3074 9.1275L16.2408 9.60321L15.206 9.76711L15.0422 10.8019L14.5665 9.8684L13.5317 10.0323L14.2726 9.29145L13.7969 8.35793Z" fill="#F0F0F0" />
</svg>
