<svg xmlns="http://www.w3.org/2000/svg" viewBox="0 0 24 24">
    <path d="M16.7825 3.2159C15.3617 2.44074 13.7323 2 11.9998 2C10.2674 2 8.63797 2.44074 7.21723 3.2159L6.34766 12L7.21723 20.7841C8.63797 21.5593 10.2674 22 11.9998 22C13.7323 22 15.3617 21.5593 16.7825 20.7841L17.652 12L16.7825 3.2159Z" fill="#FFDA44" />
    <path d="M7.21738 20.784V3.21582C4.10895 4.91191 2 8.20953 2 12C2 15.7904 4.10895 19.088 7.21738 20.784Z" fill="#338AF3" />
    <path d="M22.0001 12C22.0001 8.20953 19.8912 4.91191 16.7827 3.21582V20.784C19.8912 19.088 22.0001 15.7904 22.0001 12Z" fill="#6DA544" />
    <path d="M9.82609 14.609L8.08691 12.0003L9.82605 9.3916L11.5653 12.0003L9.82609 14.609Z" fill="#6DA544" />
    <path d="M14.1737 14.609L12.4346 12.0003L14.1737 9.3916L15.9129 12.0003L14.1737 14.609Z" fill="#6DA544" />
    <path d="M11.9999 18.0865L10.2607 15.4778L11.9999 12.8691L13.739 15.4778L11.9999 18.0865Z" fill="#6DA544" />
</svg>
