<svg xmlns="http://www.w3.org/2000/svg" viewBox="0 0 24 24">
    <path d="M22 12C22 17.5228 17.5228 22 12 22C6.47719 22 2 17.5228 2 12C5.43477 8.56523 8.34781 5.65219 12 2C17.5228 2 22 6.47719 22 12Z" fill="#D80027" />
    <path d="M12 12C12 6.47719 12 5.82609 12 2C6.47719 2 2 6.47719 2 12H12Z" fill="#0052B4" />
    <path d="M10.01 8.52148L10.1719 9.01973H10.6957L10.2719 9.32758L10.4338 9.82582L10.01 9.51789L9.58613 9.82582L9.74805 9.32758L9.32422 9.01973H9.84805L10.01 8.52148Z" fill="#F0F0F0" />
    <path d="M7.37873 4.6084L7.64853 5.43883H8.52166L7.81525 5.95191L8.08514 6.7823L7.37873 6.26906L6.67236 6.7823L6.94221 5.95191L6.23584 5.43883H7.10889L7.37873 4.6084Z" fill="#F0F0F0" />
    <path d="M9.98762 5.47852L10.2574 6.30898H11.1305L10.4241 6.82207L10.6939 7.65246L9.98762 7.13922L9.28125 7.65246L9.55109 6.82207L8.84473 6.30898H9.71777L9.98762 5.47852Z" fill="#F0F0F0" />
    <path d="M7.92561 8.95605L8.19545 9.78648H9.0685L8.36213 10.2996L8.63197 11.13L7.92561 10.6168L7.21924 11.13L7.48908 10.2996L6.78271 9.78648H7.6558L7.92561 8.95605Z" fill="#F0F0F0" />
    <path d="M5.63992 6.78223L5.90977 7.61266H6.78285L6.07645 8.12574L6.34629 8.95613L5.63992 8.44293L4.93359 8.95613L5.2034 8.12574L4.49707 7.61266H5.37012L5.63992 6.78223Z" fill="#F0F0F0" />
</svg>
