<svg xmlns="http://www.w3.org/2000/svg" viewBox="0 0 24 24">
    <path d="M22 11.9996C22 17.5225 17.5228 21.9996 12 21.9996C6.47719 21.9996 2 17.5225 2 11.9996C2.43477 11.9996 12 10.6953 12 10.6953L22 11.9996Z" fill="#338AF3" />
    <path d="M2 12C2 6.47719 6.47719 2 12 2C17.5228 2 22 6.47719 22 12" fill="#F0F0F0" />
    <path d="M15.9692 8.90039L11.9999 12.8698L8.03049 8.90039C7.51717 9.66238 7.21729 10.5795 7.21729 11.5654V12.8698C7.21729 14.9641 8.57061 16.7482 10.4486 17.394C10.1979 17.8852 10.2402 18.4983 10.6075 18.9567C11.0953 18.5657 11.6004 18.161 12.0288 17.8177C12.4572 18.1611 12.9623 18.5658 13.4501 18.9567C13.8217 18.493 13.8609 17.8707 13.6004 17.3766C15.4527 16.7168 16.7824 14.9458 16.7824 12.8698V11.5655C16.7825 10.5795 16.4826 9.66242 15.9692 8.90039Z" fill="#6DA544" />
    <path d="M12.0002 16.3477C10.0823 16.3477 8.52197 14.7874 8.52197 12.8695V11.5652C8.52197 9.64723 10.0823 8.08691 12.0002 8.08691C13.9181 8.08691 15.4785 9.64727 15.4785 11.5652V12.8695C15.4785 14.7874 13.9181 16.3477 12.0002 16.3477Z" fill="#FFDA44" />
    <path d="M14.174 12.8698V11.5655C14.174 10.3668 13.1987 9.3916 12.0001 9.3916C10.8014 9.3916 9.82617 10.3668 9.82617 11.5655V12.8698L12.0001 13.3046L14.174 12.8698Z" fill="#338AF3" />
    <path d="M9.82617 12.8691C9.82617 14.0679 10.8014 15.043 12.0001 15.043C13.1987 15.043 14.174 14.0678 14.174 12.8691H9.82617Z" fill="#6DA544" />
    <path d="M14.6085 8.08742C14.6085 7.36707 14.0245 6.78309 13.3042 6.78309C12.97 6.78309 12.6654 6.90887 12.4346 7.11547V6.34828H12.8694V5.47871H12.4346V5.04395H11.565V5.47871H11.1303V6.34828H11.565V7.11547C11.3342 6.90887 11.0296 6.78309 10.6954 6.78309C9.9751 6.78309 9.39111 7.36707 9.39111 8.08742C9.39111 8.47363 9.55912 8.82051 9.82588 9.05937V9.82656H14.1737V9.05937C14.4405 8.82051 14.6085 8.47363 14.6085 8.08742Z" fill="#FFDA44" />
</svg>
