<svg xmlns="http://www.w3.org/2000/svg" viewBox="0 0 24 24">
    <path d="M19.0711 4.92893C22.9763 8.83417 22.9763 15.1658 19.0711 19.0711C15.1658 22.9763 8.83421 22.9763 4.92893 19.0711C1.02369 15.1658 1.02369 8.83421 4.92893 4.92893C8.83417 1.02369 15.1658 1.02369 19.0711 4.92893Z" fill="#F0F0F0" />
    <path d="M21.9158 10.6957H13.3049H13.3049V2.08465C12.8779 2.02906 12.4426 2 12.0005 2C11.5584 2 11.1231 2.02906 10.6962 2.08465V10.6956V10.6956H2.08514C2.02955 11.1226 2.00049 11.5579 2.00049 12C2.00049 12.4421 2.02955 12.8774 2.08514 13.3043H10.6961H10.6961V21.9154C11.1231 21.9709 11.5584 22 12.0005 22C12.4426 22 12.8779 21.971 13.3048 21.9154V13.3045V13.3044H21.9158C21.9714 12.8774 22.0005 12.4421 22.0005 12C22.0005 11.5579 21.9714 11.1226 21.9158 10.6957Z" fill="#D80027" />
    <path d="M16.7835 5.47852C15.9731 5.47852 15.2922 6.03277 15.0991 6.78285L16.7835 7.21762L18.4678 6.78285C18.2747 6.03281 17.5938 5.47852 16.7835 5.47852Z" fill="black" />
    <path d="M15.0441 9.39168L17.218 9.82645V8.90211C17.8292 8.74477 18.3102 8.26363 18.4675 7.65254L16.7833 7.21777H14.6094L15.0441 8.52211V9.39168Z" fill="black" />
    <path d="M18.4676 6.78223H14.6094V7.6518V8.52137H15.0441V7.6518H18.4675C18.5033 7.51285 18.5224 7.36715 18.5224 7.21703C18.5224 7.06687 18.5034 6.92117 18.4676 6.78223Z" fill="#ACABB1" />
    <path d="M7.6526 5.47852C6.84221 5.47852 6.16131 6.03277 5.96826 6.78285L7.6526 7.21762L9.33693 6.78285C9.14389 6.03281 8.46299 5.47852 7.6526 5.47852Z" fill="black" />
    <path d="M5.91381 9.39168L8.08772 9.82645V8.90211C8.69885 8.74477 9.17986 8.26363 9.33717 7.65254L7.65295 7.21777H5.479L5.91377 8.52211V9.39168H5.91381Z" fill="black" />
    <path d="M9.33729 6.78223H5.479V7.6518V8.52137H5.91377V7.6518H9.33713C9.37291 7.51285 9.39205 7.36715 9.39205 7.21703C9.39205 7.06687 9.37307 6.92117 9.33729 6.78223Z" fill="#ACABB1" />
    <path d="M16.7835 14.1738C15.9731 14.1738 15.2922 14.7281 15.0991 15.4782L16.7835 15.9129L18.4678 15.4782C18.2747 14.7281 17.5938 14.1738 16.7835 14.1738Z" fill="black" />
    <path d="M15.0441 18.087L17.218 18.5218V17.5974C17.8292 17.4401 18.3102 16.9589 18.4675 16.3479L16.7833 15.9131H14.6094L15.0441 17.2174V18.087Z" fill="black" />
    <path d="M18.4676 15.4785H14.6094V16.3481V17.2177H15.0441V16.3481H18.4675C18.5033 16.2091 18.5224 16.0634 18.5224 15.9133C18.5224 15.7632 18.5034 15.6175 18.4676 15.4785Z" fill="#ACABB1" />
    <path d="M7.6526 14.1738C6.84221 14.1738 6.16131 14.7281 5.96826 15.4782L7.6526 15.9129L9.33693 15.4782C9.14389 14.7281 8.46299 14.1738 7.6526 14.1738Z" fill="black" />
    <path d="M5.91381 18.087L8.08772 18.5218V17.5974C8.69885 17.4401 9.17986 16.9589 9.33717 16.3479L7.65295 15.9131H5.479L5.91377 17.2174V18.087H5.91381Z" fill="black" />
    <path d="M9.33729 15.4785H5.479V16.3481V17.2177H5.91377V16.3481H9.33713C9.37291 16.2091 9.39205 16.0634 9.39205 15.9133C9.39205 15.7632 9.37307 15.6175 9.33729 15.4785Z" fill="#ACABB1" />
</svg>
