<svg xmlns="http://www.w3.org/2000/svg" viewBox="0 0 24 24">
    <path d="M19.0711 4.92893C22.9763 8.83417 22.9763 15.1658 19.0711 19.0711C15.1658 22.9763 8.83421 22.9763 4.92893 19.0711C1.02369 15.1658 1.02369 8.83421 4.92893 4.92893C8.83417 1.02369 15.1658 1.02369 19.0711 4.92893Z" fill="#6DA544" />
    <path d="M7.65283 13.9561C7.65283 14.6764 8.23682 15.2604 8.95717 15.2604H12.8702C12.8702 15.8607 13.3569 16.3473 13.9572 16.3473H15.2615C15.8618 16.3473 16.3485 15.8607 16.3485 15.2604V13.9561H7.65283Z" fill="#F0F0F0" />
    <path d="M16.457 7.65234V10.6958C16.457 11.1753 16.0669 11.5654 15.5874 11.5654V12.8697C16.7861 12.8697 17.7613 11.8945 17.7613 10.6958V7.65234H16.457Z" fill="#F0F0F0" />
    <path d="M7.10932 10.6958C7.10932 11.1753 6.71924 11.5654 6.23975 11.5654V12.8697C7.43846 12.8697 8.41365 11.8945 8.41365 10.6958V7.65234H7.10932V10.6958Z" fill="#F0F0F0" />
    <path d="M14.5005 7.65234H15.8048V10.6958H14.5005V7.65234Z" fill="#F0F0F0" />
    <path d="M12.5442 9.39148C12.5442 9.51137 12.4466 9.60887 12.3268 9.60887C12.2069 9.60887 12.1094 9.51133 12.1094 9.39148V7.65234H10.8051V9.39148C10.8051 9.51137 10.7075 9.60887 10.5877 9.60887C10.4678 9.60887 10.3703 9.51133 10.3703 9.39148V7.65234H9.06592V9.39148C9.06592 10.2306 9.74857 10.9132 10.5877 10.9132C10.9108 10.9132 11.2105 10.8117 11.4572 10.6392C11.7039 10.8116 12.0037 10.9132 12.3268 10.9132C12.3919 10.9132 12.4559 10.9087 12.5188 10.9007C12.4264 11.2815 12.0834 11.5654 11.6746 11.5654V12.8697C12.8733 12.8697 13.8485 11.8945 13.8485 10.6958V9.39148V7.65234H12.5442V9.39148H12.5442Z" fill="#F0F0F0" />
    <path d="M9.06592 11.5654H11.0224V12.8698H9.06592V11.5654Z" fill="#F0F0F0" />
</svg>
