<svg xmlns="http://www.w3.org/2000/svg" viewBox="0 0 24 24">
    <path d="M19.0711 4.92893C22.9763 8.83417 22.9763 15.1658 19.0711 19.0711C15.1658 22.9763 8.83421 22.9763 4.92893 19.0711C1.02369 15.1658 1.02369 8.83421 4.92893 4.92893C8.83417 1.02369 15.1658 1.02369 19.0711 4.92893Z" fill="#F0F0F0" />
    <path d="M18.0889 4.06719C16.4027 2.77105 14.2919 2 12.0008 2C9.70959 2 7.59881 2.77109 5.9126 4.06719L12.0008 10.1553L18.0889 4.06719Z" fill="#0052B4" />
    <path d="M4.06764 5.91211C2.77158 7.59832 2.00049 9.70906 2.00049 12.0002C2.00049 14.2914 2.77158 16.4022 4.06768 18.0884L10.1558 12.0002L4.06764 5.91211Z" fill="#0052B4" />
    <path d="M5.9126 19.9329C7.59885 21.229 9.70959 22 12.0008 22C14.2919 22 16.4027 21.2289 18.0889 19.9329L12.0008 13.8447L5.9126 19.9329Z" fill="#0052B4" />
    <path d="M19.9333 18.0884C21.2295 16.4021 22.0005 14.2914 22.0005 12.0002C22.0005 9.70906 21.2295 7.59832 19.9333 5.91211L13.8452 12.0002L19.9333 18.0884Z" fill="#0052B4" />
</svg>
