<svg xmlns="http://www.w3.org/2000/svg" viewBox="0 0 24 24">
    <path d="M19.0711 4.92893C22.9763 8.83417 22.9763 15.1658 19.0711 19.0711C15.1658 22.9763 8.83421 22.9763 4.92893 19.0711C1.02369 15.1658 1.02369 8.83421 4.92893 4.92893C8.83417 1.02369 15.1658 1.02369 19.0711 4.92893Z" fill="#F0F0F0" />
    <path d="M12.0005 2C6.47768 2 2.00049 6.47719 2.00049 12C2.00049 13.2232 2.22053 14.395 2.62248 15.4782H21.3785C21.7805 14.395 22.0005 13.2232 22.0005 12C22.0005 6.47719 17.5233 2 12.0005 2Z" fill="#0052B4" />
    <path d="M12.0006 2C7.70092 2 4.03549 4.71375 2.62256 8.52176H21.3786C19.9656 4.71375 16.3002 2 12.0006 2Z" fill="#D80027" />
    <path d="M4.58643 7.65234V12.6409C4.58643 15.4785 8.2935 16.348 8.2935 16.348C8.2935 16.348 12.0005 15.4785 12.0005 12.6409V7.65234H4.58643Z" fill="#D80027" />
    <path d="M6.11963 8.5218H10.4675V6.78266L9.59791 7.21742L8.29357 5.91309L6.9892 7.21742L6.11963 6.78266V8.5218Z" fill="#FFDA44" />
    <path d="M11.1312 13.3349L8.3051 10.5088L5.479 13.3349L6.40131 14.2572L8.3051 12.3534L10.2089 14.2572L11.1312 13.3349Z" fill="#FFDA44" />
    <path d="M11.1312 10.6959H9.8126C9.88674 10.5679 9.92986 10.4197 9.92986 10.2612C9.92986 9.78086 9.54053 9.3916 9.06029 9.3916C8.72846 9.3916 8.44029 9.57746 8.29369 9.8507C8.14709 9.5775 7.85893 9.3916 7.52709 9.3916C7.04686 9.3916 6.65752 9.78086 6.65752 10.2612C6.65752 10.4197 6.70064 10.5679 6.77479 10.6959H5.479C5.479 11.1761 5.89732 11.5654 6.37752 11.5654H6.34857C6.34857 12.0457 6.73787 12.435 7.21814 12.435C7.21814 12.8602 7.52354 13.2135 7.92686 13.2891L7.2417 14.8361C7.57006 14.9696 7.92889 15.0437 8.30514 15.0437C8.68139 15.0437 9.04021 14.9696 9.36857 14.8361L8.68342 13.2891C9.08674 13.2136 9.39213 12.8603 9.39213 12.435C9.8724 12.435 10.2617 12.0457 10.2617 11.5654H10.2328C10.7129 11.5654 11.1312 11.1761 11.1312 10.6959Z" fill="#F0F0F0" />
</svg>
