<svg xmlns="http://www.w3.org/2000/svg" viewBox="0 0 24 24">
    <path d="M19.0711 4.92893C22.9763 8.83417 22.9763 15.1658 19.0711 19.0711C15.1658 22.9763 8.83421 22.9763 4.92893 19.0711C1.02369 15.1658 1.02369 8.83421 4.92893 4.92893C8.83417 1.02369 15.1658 1.02369 19.0711 4.92893Z" fill="#F0F0F0" />
    <path d="M18.7508 4.62254C16.9719 2.99395 14.6023 2 12.0004 2C11.5745 2 11.1548 2.02684 10.7428 2.07852L5.9135 7.65219L2.31689 14.5051C2.54924 15.4059 2.90447 16.2573 3.36279 17.0409L12.0004 12L18.7508 4.62254Z" fill="#FFDA44" />
    <path d="M20.3259 17.541L6.33496 20.241C7.94547 21.3504 9.89695 22.0005 12.0005 22.0005C15.4739 22.0005 18.5333 20.2293 20.3259 17.541Z" fill="#6DA544" />
    <path d="M18.7524 4.62402L3.36865 17.0508C3.77104 17.737 4.25279 18.3711 4.8015 18.9402L22.0006 12.0002C22.0006 9.07988 20.7486 6.45223 18.7524 4.62402Z" fill="#D80027" />
    <path d="M2.00049 11.9996C2.00049 12.8647 2.11041 13.7041 2.31693 14.5047L10.7429 2.07812C5.81369 2.69664 2.00049 6.90273 2.00049 11.9996Z" fill="#0052B4" />
</svg>
