<svg xmlns="http://www.w3.org/2000/svg" viewBox="0 0 24 24">
    <path d="M19.0711 19.0716C15.1658 22.9768 8.8342 22.9768 4.92893 19.0716C1.02369 15.1663 1.02369 8.83464 4.92893 4.92937C4.93033 4.92937 13.9156 2.2744 17.8208 6.17964C21.7261 10.0849 19.0738 19.0688 19.0711 19.0716Z" fill="#FFDA44" />
    <path d="M19.0709 19.0711C22.9761 15.1659 22.9761 8.83421 19.0709 4.92894C15.1656 1.02367 8.83398 1.02371 4.92871 4.92894L19.0709 19.0711Z" fill="#D80027" />
    <path d="M14.614 14.615C14.2032 14.7763 13.7259 14.7592 13.3118 14.5268C12.5802 14.1162 12.319 13.1868 12.7298 12.455L12.6051 12.3851C13.8579 12.083 14.7847 10.9459 14.7684 9.60402C14.7584 8.76977 14.3856 8.0234 13.8025 7.5127L12.8895 8.44809C13.2346 8.72316 13.4584 9.14512 13.4642 9.61984C13.4743 10.4589 12.8 11.1498 11.961 11.1599L11.9628 11.3028C11.0748 10.3689 9.62664 10.1348 8.47269 10.8198C7.75527 11.2458 7.29535 11.9417 7.14453 12.7021L8.41109 13.0251C8.47676 12.5886 8.73023 12.1839 9.13848 11.9415C9.86 11.5132 10.7955 11.7518 11.2238 12.4732L11.3468 12.4003C10.982 13.6362 11.5033 15.0074 12.6736 15.6643C13.4011 16.0726 14.2338 16.123 14.9677 15.8734L14.614 14.615ZM11.9715 12.0293L11.9714 12.0293L11.9715 12.0293Z" fill="#FF9811" />
    <path d="M15.7024 8.77301L14.9956 11.2953L12.8749 10.9037L11.5098 8.08984L7.82207 9.39848L7.53125 8.57895L6.56641 8.46008L7.2934 10.5089L9.83125 9.8598L10.5525 11.8922L8.79809 14.4813L11.7753 17.0206L11.211 17.6822L11.5905 18.5773L13.0013 16.9232L11.1703 15.0499L12.5698 13.4092L15.6893 13.6339L16.3998 9.7859L17.2549 9.94383L17.8404 9.16766L15.7024 8.77301ZM11.9991 12.0684V12.0684V12.0684Z" fill="#FFEACF" />
</svg>
