<svg xmlns="http://www.w3.org/2000/svg" viewBox="0 0 24 24">
    <path d="M19.0711 4.92893C22.9763 8.83417 22.9763 15.1658 19.0711 19.0711C15.1658 22.9763 8.83421 22.9763 4.92893 19.0711C1.02369 15.1658 1.02369 8.83421 4.92893 4.92893C8.83417 1.02369 15.1658 1.02369 19.0711 4.92893Z" fill="#F0F0F0" />
    <path d="M2.00049 12C2.00049 6.47719 6.47768 2 12.0005 2C17.5233 2 22.0005 6.47719 22.0005 12" fill="#D80027" />
    <path d="M8.08758 7.21727C8.08758 5.76031 9.11152 4.5432 10.4789 4.24457C10.2687 4.19871 10.0507 4.17383 9.82668 4.17383C8.14578 4.17383 6.7832 5.53641 6.7832 7.2173C6.7832 8.8982 8.14578 10.2608 9.82668 10.2608C10.0506 10.2608 10.2687 10.2359 10.4789 10.19C9.11152 9.89137 8.08758 8.67426 8.08758 7.21727Z" fill="#F0F0F0" />
    <path d="M12.0007 4.3916L12.2166 5.05586H12.9151L12.3499 5.46645L12.5658 6.1307L12.0007 5.7202L11.4356 6.1307L11.6515 5.46645L11.0864 5.05586H11.7849L12.0007 4.3916Z" fill="#F0F0F0" />
    <path d="M10.3065 5.69531L10.5223 6.35961H11.2208L10.6557 6.77016L10.8715 7.43441L10.3065 7.02391L9.74131 7.43441L9.95721 6.77016L9.39209 6.35961H10.0906L10.3065 5.69531Z" fill="#F0F0F0" />
    <path d="M13.6951 5.69531L13.911 6.35961H14.6094L14.0443 6.77016L14.2602 7.43441L13.6951 7.02391L13.13 7.43441L13.3458 6.77016L12.7808 6.35961H13.4792L13.6951 5.69531Z" fill="#F0F0F0" />
    <path d="M13.0427 7.65234L13.2586 8.31664H13.957L13.3919 8.72719L13.6078 9.39145L13.0427 8.98094L12.4776 9.39145L12.6935 8.72719L12.1284 8.31664H12.8268L13.0427 7.65234Z" fill="#F0F0F0" />
    <path d="M10.9583 7.65234L11.1741 8.31664H11.8726L11.3075 8.72719L11.5234 9.39145L10.9583 8.98094L10.3932 9.39145L10.609 8.72719L10.0439 8.31664H10.7424L10.9583 7.65234Z" fill="#F0F0F0" />
</svg>
