<svg xmlns="http://www.w3.org/2000/svg" viewBox="0 0 24 24">
    <path d="M6.36377 20.2612C7.96869 21.3582 9.9092 22.0003 12 22.0003C14.0908 22.0003 16.0313 21.3582 17.6362 20.2612L12 19.3916L6.36377 20.2612Z" fill="#D80027" />
    <path d="M17.6362 3.73914C16.0313 2.64207 14.0908 2 12 2C9.9092 2 7.96861 2.64207 6.36377 3.73914L12 4.60871L17.6362 3.73914Z" fill="#D80027" />
    <path d="M6.36377 20.2612C7.96869 21.3582 9.9092 22.0003 12 22.0003C14.0908 22.0003 16.0313 21.3582 17.6362 20.2612L12 19.3916L6.36377 20.2612Z" fill="#D80027" />
    <path d="M17.6362 3.73914C16.0313 2.64207 14.0908 2 12 2C9.9092 2 7.96861 2.64207 6.36377 3.73914L12 4.60871L17.6362 3.73914Z" fill="#D80027" />
    <path d="M21.9745 11.348C21.7376 8.26164 19.8623 5.26102 17.6362 3.73926H6.36377C3.89752 5.42523 2.22459 8.18648 2.021 11.348L12 12.0002L21.9745 11.348Z" fill="#0052B4" />
    <path d="M2.021 12.6522C2.22459 15.8137 3.89748 18.5749 6.36373 20.2609H17.6362C20.1025 18.575 21.7753 15.8137 21.9789 12.6522L12 12L2.021 12.6522Z" fill="#0052B4" />
    <path d="M21.9745 11.3481H12.6522V3.30469H11.3479V11.3481H2.02105C2.00719 11.5637 2 11.7812 2 12.0004C2 12.2195 2.00715 12.4369 2.02102 12.6525H11.3479V20.696H12.6522V12.6525H21.979C21.9929 12.4369 22 12.2195 22 12.0004C22 11.7828 21.9912 11.5653 21.9745 11.3481Z" fill="#D80027" />
    <path d="M5.91309 11.9997L12 8.17383L18.087 11.9997L12 15.8256L5.91309 11.9997Z" fill="#F0F0F0" />
    <path d="M8.52197 13.7396H16.348L14.6089 11.1309L13.7394 12.0004L12.8698 11.5657L12.0002 12.87H10.2611L9.3915 12.0004L8.52197 13.7396Z" fill="#6DA544" />
    <path d="M12.0002 9.3916L12.2161 10.0559H12.9145L12.3494 10.4664L12.5653 11.1307L12.0002 10.7202L11.4351 11.1307L11.651 10.4664L11.0859 10.0559H11.7843L12.0002 9.3916Z" fill="#FFDA44" />
    <path d="M11.9999 7.08105L4.17383 12L11.9999 16.919L19.826 12L11.9999 7.08105ZM6.62492 12L11.9999 8.62164L17.3749 12L11.9999 15.3784L6.62492 12Z" fill="#D80027" />
</svg>
