<svg xmlns="http://www.w3.org/2000/svg" viewBox="0 0 24 24">
    <path d="M11.1302 12.8696C11.1302 12.8696 4.93457 4.92754 4.92871 4.92895C6.73832 3.1193 9.23836 2 11.9998 2C17.5226 2 21.9998 6.47719 21.9998 12L11.1302 12.8696Z" fill="#D80027" />
    <path d="M11.1302 12C11.1302 12 4.93457 19.0725 4.92871 19.0711C6.73832 20.8807 9.23836 22 11.9998 22C17.5226 22 21.9998 17.5228 21.9998 12H11.1302Z" fill="#0052B4" />
    <path d="M4.92893 4.92871C1.02369 8.83395 1.02369 15.1656 4.92893 19.0709C6.54271 17.4571 8.09478 15.905 12 11.9998L4.92893 4.92871Z" fill="#F0F0F0" />
    <path d="M3.09609 12C3.09063 12.0718 3.08691 12.1441 3.08691 12.2173C3.08691 13.7781 4.35223 15.0434 5.91301 15.0434C7.47379 15.0434 8.7391 13.7781 8.7391 12.2173C8.7391 12.1441 8.73539 12.0718 8.72992 12H3.09609Z" fill="#FFDA44" />
    <path d="M6.52791 9.21075C6.86749 9.55033 6.86749 10.1009 6.52791 10.4405C6.18832 10.7801 5.63774 10.7801 5.29815 10.4405C4.95856 10.1009 4.95856 9.55034 5.29815 9.21075C5.63774 8.87116 6.18832 8.87116 6.52791 9.21075Z" fill="#FFDA44" />
    <path d="M3.95654 9.6084V12.4345C3.95654 13.9321 5.91307 14.391 5.91307 14.391C5.91307 14.391 7.86959 13.9321 7.86959 12.4345V9.6084H3.95654Z" fill="#D80027" />
    <path d="M5.9141 13.4815C5.55113 13.3509 4.82617 13.0171 4.82617 12.435V10.4785H7.00012V12.435C7.00012 13.019 6.27523 13.352 5.9141 13.4815Z" fill="#338AF3" />
    <path d="M6.3477 11.5653V11.1305L5.91293 10.9131L5.47813 11.1305V11.5653L5.26074 11.7827V12.6522H6.56512V11.7827L6.3477 11.5653Z" fill="#F3F3F3" />
</svg>
