<svg xmlns="http://www.w3.org/2000/svg" viewBox="0 0 24 24">
    <path d="M19.0711 4.92893C22.9763 8.83417 22.9763 15.1658 19.0711 19.0711C15.1658 22.9763 8.83421 22.9763 4.92893 19.0711C1.02369 15.1658 1.02369 8.83421 4.92893 4.92893C8.83417 1.02369 15.1658 1.02369 19.0711 4.92893Z" fill="#F0F0F0" />
    <path d="M21.3785 8.5218H10.6962V5.91309H5.47873V8.5218H2.62248C2.22053 9.60508 2.00049 10.7768 2.00049 12C2.00049 13.2232 2.22053 14.395 2.62248 15.4783L12.0005 16.3479L21.3785 15.4783C21.7804 14.395 22.0005 13.2232 22.0005 12C22.0005 10.7768 21.7804 9.60508 21.3785 8.5218Z" fill="#0052B4" />
    <path d="M12.0006 22.0003C16.3002 22.0003 19.9656 19.2865 21.3786 15.4785H2.62256C4.03549 19.2865 7.70092 22.0003 12.0006 22.0003Z" fill="#D80027" />
    <path d="M5.479 8.52168V9.39121C5.479 11.3881 8.08772 12 8.08772 12C8.08772 12 10.6964 11.3881 10.6964 9.39121V8.52168L9.82686 9.39125L8.08772 8.08691L6.34857 9.39125L5.479 8.52168Z" fill="#F0F0F0" />
</svg>
