<svg xmlns="http://www.w3.org/2000/svg" viewBox="0 0 24 24">
    <path d="M19.0711 4.92893C22.9763 8.83417 22.9763 15.1658 19.0711 19.0711C15.1658 22.9763 8.83421 22.9763 4.92893 19.0711C1.02369 15.1658 1.02369 8.83421 4.92893 4.92893C8.83417 1.02369 15.1658 1.02369 19.0711 4.92893Z" fill="#F0F0F0" />
    <path d="M12.0005 21.9997C17.5233 21.9997 22.0005 17.5225 22.0005 11.9997C22.0005 10.7765 21.7805 9.60477 21.3785 8.52148H2.62248C2.22053 9.60477 2.00049 10.7765 2.00049 11.9997C2.00049 17.5225 6.47768 21.9997 12.0005 21.9997Z" fill="#0052B4" />
    <path d="M12.0006 22.0003C16.3002 22.0003 19.9656 19.2865 21.3786 15.4785H2.62256C4.03549 19.2865 7.70092 22.0003 12.0006 22.0003Z" fill="#D80027" />
    <path d="M4.58643 7.65234V12.6409C4.58643 15.4785 8.2935 16.348 8.2935 16.348C8.2935 16.348 12.0005 15.4785 12.0005 12.6409V7.65234H4.58643Z" fill="#F0F0F0" />
    <path d="M5.45605 7.65234V12.6409C5.45605 12.974 5.53004 13.2886 5.6766 13.5836C7.13105 13.5836 9.30496 13.5836 10.9105 13.5836C11.057 13.2886 11.131 12.974 11.131 12.6409V7.65234H5.45605Z" fill="#D80027" />
    <path d="M10.0324 11.1302H8.72814V10.2606H9.59771V9.39102H8.72814V8.52148H7.85857V9.39102H6.98904V10.2606H7.85857V11.1302H6.5542V11.9997H7.85857V12.8693H8.72814V11.9997H10.0324V11.1302Z" fill="#F0F0F0" />
    <path d="M6.86281 14.797C7.42316 15.1492 7.99887 15.3536 8.29359 15.4446C8.58832 15.3537 9.16402 15.1492 9.72438 14.797C10.2895 14.4419 10.6856 14.0357 10.9105 13.5832C10.6624 13.4077 10.3597 13.3041 10.0327 13.3041C9.91367 13.3041 9.79801 13.3182 9.6868 13.3441C9.45113 12.8087 8.91617 12.4346 8.29363 12.4346C7.67109 12.4346 7.13609 12.8087 6.90047 13.3441C6.78926 13.3182 6.67355 13.3041 6.55453 13.3041C6.22754 13.3041 5.92484 13.4077 5.67676 13.5832C5.90156 14.0357 6.2977 14.4418 6.86281 14.797Z" fill="#0052B4" />
</svg>
