<svg xmlns="http://www.w3.org/2000/svg" viewBox="0 0 24 24">
    <path d="M19.071 19.0714C22.8214 15.321 22.9695 9.33335 19.5168 5.40527L11.9996 12.0001L5.40479 19.5173C9.33286 22.97 15.3205 22.8219 19.071 19.0714Z" fill="#496E2D" />
    <path d="M4.92865 4.92867C8.67907 1.17825 14.6667 1.03016 18.5948 4.48285L12 12.0001L4.48287 18.5948C1.03014 14.6668 1.17826 8.67909 4.92865 4.92867Z" fill="#0052B4" />
    <path d="M18.5944 4.48242L4.48242 18.5944C4.62508 18.7567 4.7732 18.9159 4.92824 19.0709C5.08324 19.2259 5.2425 19.374 5.40484 19.5168L19.5167 5.40476C19.3741 5.24242 19.2259 5.0832 19.0709 4.92816C18.9159 4.77324 18.7567 4.62508 18.5944 4.48242Z" fill="#FFDA44" />
    <path d="M6.21267 5.47754L6.42857 6.14187H7.12705L6.56197 6.55238L6.77779 7.21671L6.21267 6.80613L5.64756 7.21671L5.86346 6.55238L5.29834 6.14187H5.99685L6.21267 5.47754Z" fill="#F0F0F0" />
    <path d="M9.78054 5.47754L9.99644 6.14187H10.6949L10.1298 6.55238L10.3457 7.21671L9.78054 6.80613L9.21543 7.21671L9.43133 6.55238L8.86621 6.14187H9.56469L9.78054 5.47754Z" fill="#F0F0F0" />
    <path d="M6.21267 8.95605L6.42857 9.62039H7.12705L6.56197 10.0309L6.77779 10.6953L6.21267 10.2847L5.64756 10.6953L5.86346 10.0309L5.29834 9.62039H5.99685L6.21267 8.95605Z" fill="#F0F0F0" />
    <path d="M9.78054 8.95605L9.99644 9.62039H10.6949L10.1298 10.0309L10.3457 10.6953L9.78054 10.2847L9.21543 10.6953L9.43133 10.0309L8.86621 9.62039H9.56469L9.78054 8.95605Z" fill="#F0F0F0" />
    <path d="M7.99689 7.2168L8.21279 7.88113H8.91123L8.34615 8.29168L8.56201 8.95601L7.99689 8.54543L7.43178 8.95601L7.64764 8.29168L7.08252 7.88113H7.78103L7.99689 7.2168Z" fill="#F0F0F0" />
</svg>
