<svg xmlns="http://www.w3.org/2000/svg" viewBox="0 0 24 24">
    <path d="M21.378 15.4784C21.78 14.3951 22 13.2234 22 12.0002C22 10.777 21.78 9.60523 21.378 8.52191L12 7.65234L2.62199 8.52191C2.22004 9.60523 2 10.777 2 12.0002C2 13.2234 2.22004 14.3951 2.62199 15.4784L12 16.348L21.378 15.4784Z" fill="#F0F0F0" />
    <path d="M12.0001 22.0003C16.2997 22.0003 19.9652 19.2865 21.3781 15.4785H2.62207C4.03504 19.2865 7.70043 22.0003 12.0001 22.0003Z" fill="#D80027" />
    <path d="M12.0001 2C7.70043 2 4.03504 4.71375 2.62207 8.52176H21.3781C19.9652 4.71375 16.2997 2 12.0001 2Z" fill="#496E2D" />
    <path d="M12.0001 9.82617L12.5397 11.4868H14.2859L12.8732 12.5133L13.4129 14.174L12.0001 13.1477L10.5874 14.174L11.1271 12.5133L9.71436 11.4868H11.4606L12.0001 9.82617Z" fill="black" />
    <path d="M14.9708 3.95605V5.985C14.9708 6.30473 14.7108 6.56473 14.3911 6.56473V7.4343C15.1903 7.4343 15.8404 6.78418 15.8404 5.985V3.95605H14.9708Z" fill="#F0F0F0" />
    <path d="M8.73891 5.985C8.73891 6.30473 8.47887 6.56473 8.15918 6.56473V7.4343C8.95836 7.4343 9.60848 6.78418 9.60848 5.985V3.95605H8.73891V5.985Z" fill="#F0F0F0" />
    <path d="M13.6665 3.95605H14.5361V5.985H13.6665V3.95605Z" fill="#F0F0F0" />
    <path d="M12.3623 5.11543C12.3623 5.19535 12.2973 5.26039 12.2174 5.26039C12.1375 5.26039 12.0724 5.19535 12.0724 5.11543V3.95605H11.2029V5.11543C11.2029 5.19535 11.1379 5.26039 11.0579 5.26039C10.978 5.26039 10.913 5.19535 10.913 5.11543V3.95605H10.0435V5.11543C10.0435 5.67488 10.4985 6.12996 11.0579 6.12996C11.2734 6.12996 11.4732 6.06227 11.6376 5.9473C11.8021 6.06227 12.0019 6.12996 12.2174 6.12996C12.2608 6.12996 12.3034 6.12691 12.3454 6.12156C12.2837 6.37543 12.0551 6.56473 11.7826 6.56473V7.4343C12.5817 7.4343 13.2319 6.78418 13.2319 5.985V5.11543V3.95605H12.3623L12.3623 5.11543Z" fill="#F0F0F0" />
    <path d="M10.0435 6.56543H11.3478V7.435H10.0435V6.56543Z" fill="#F0F0F0" />
</svg>
