<svg xmlns="http://www.w3.org/2000/svg" viewBox="0 0 24 24">
    <path d="M21.378 15.4784C21.78 14.3951 22 13.2234 22 12.0002C22 10.777 21.78 9.60523 21.378 8.52191L12 7.65234L2.62199 8.52191C2.22004 9.60523 2 10.777 2 12.0002C2 13.2234 2.22004 14.3951 2.62199 15.4784L12 16.348L21.378 15.4784Z" fill="#D80027" />
    <path d="M12.0001 22.0003C16.2997 22.0003 19.9652 19.2865 21.3781 15.4785H2.62207C4.03504 19.2865 7.70043 22.0003 12.0001 22.0003Z" fill="#FFDA44" />
    <path d="M12.0001 2C7.70043 2 4.03504 4.71375 2.62207 8.52176H21.3781C19.9652 4.71375 16.2997 2 12.0001 2Z" fill="#F0F0F0" />
</svg>
