<svg xmlns="http://www.w3.org/2000/svg" viewBox="0 0 24 24">
    <path d="M19.0711 4.92893C22.9763 8.83417 22.9763 15.1658 19.0711 19.0711C15.1658 22.9763 8.83421 22.9763 4.92893 19.0711C1.02369 15.1658 1.02369 8.83421 4.92893 4.92893C8.83417 1.02369 15.1658 1.02369 19.0711 4.92893Z" fill="#F0F0F0" />
    <path d="M4.92941 19.0709C1.02418 15.1656 1.02418 8.83398 4.92941 4.92871C4.92914 4.92914 10.6962 11.9998 10.6962 11.9998L4.92941 19.0709Z" fill="black" />
    <path d="M10.6961 12.0005L3.32672 7.02051C3.09824 7.41766 2.89676 7.83219 2.72363 8.26125L6.45445 12.0005L2.72375 15.74C2.89672 16.1687 3.09801 16.583 3.32633 16.9798L10.6961 12.0005Z" fill="#FFDA44" />
    <path d="M21.9161 10.6953H10.6962L4.92959 4.92871C4.30818 5.55012 3.7683 6.25289 3.32705 7.01973L8.29732 11.9996L3.32666 16.9789C3.76791 17.746 4.30803 18.449 4.92959 19.0705L10.6962 13.304H21.9161C21.9717 12.877 22.0008 12.4417 22.0008 11.9996C22.0008 11.5576 21.9717 11.1223 21.9161 10.6953Z" fill="#6DA544" />
    <path d="M5.91211 19.9324C7.5984 21.2286 9.70922 21.9997 12.0005 21.9997C16.6207 21.9997 20.5085 18.8661 21.656 14.6084H11.2361L5.91211 19.9324Z" fill="#0052B4" />
    <path d="M21.656 9.39129C20.5085 5.13363 16.6207 2 12.0005 2C9.70922 2 7.5984 2.77113 5.91211 4.0673L11.2361 9.39129H21.656Z" fill="#D80027" />
</svg>
