<svg xmlns="http://www.w3.org/2000/svg" viewBox="0 0 24 24">
    <path d="M19.0711 4.92893C22.9763 8.83417 22.9763 15.1658 19.0711 19.0711C15.1658 22.9763 8.83421 22.9763 4.92893 19.0711C1.02369 15.1658 1.02369 8.83421 4.92893 4.92893C8.83417 1.02369 15.1658 1.02369 19.0711 4.92893Z" fill="#F0F0F0" />
    <path d="M21.2203 8.12316C19.7059 4.52586 16.1484 2 12.0004 2C9.23895 2 6.73922 3.11949 4.92969 4.92926L7.43398 8.12316H21.2203Z" fill="black" />
    <path d="M7.46238 15.8408L4.92969 19.0709C6.73922 20.8807 9.23895 22.0002 12.0004 22.0002C16.1624 22.0002 19.73 19.4575 21.2357 15.8408H7.46238Z" fill="#496E2D" />
    <path d="M4.17432 9.35547V14.6091H21.656C21.8803 13.7774 22.0004 12.903 22.0004 12.0004C22.0004 11.0847 21.8771 10.198 21.6465 9.35547H4.17432Z" fill="#A2001D" />
    <path d="M4.92941 4.92871C1.02418 8.83395 1.02418 15.1656 4.92941 19.0709C6.5432 17.4571 8.09527 15.905 12.0005 11.9998L4.92941 4.92871Z" fill="#0052B4" />
    <path d="M5.25773 9.51367L6.47824 11.2168L8.47543 10.5823L7.23281 12.2695L8.45332 13.9727L6.46473 13.3123L5.22207 14.9995L5.23574 12.9041L3.24707 12.2436L5.2441 11.609L5.25773 9.51367Z" fill="#FFDA44" />
</svg>
