<svg xmlns="http://www.w3.org/2000/svg" viewBox="0 0 24 24">
    <path d="M19.0711 4.92893C22.9763 8.83417 22.9763 15.1658 19.0711 19.0711C15.1658 22.9763 8.83421 22.9763 4.92893 19.0711C1.02369 15.1658 1.02369 8.83421 4.92893 4.92893C8.83417 1.02369 15.1658 1.02369 19.0711 4.92893Z" fill="#F0F0F0" />
    <path d="M15.4789 11.9997C15.4789 12.8693 13.9217 15.0432 12.0007 15.0432C10.0797 15.0432 8.52246 12.8693 8.52246 11.9997C8.52246 10.0787 10.0797 8.52148 12.0007 8.52148C13.9217 8.52148 15.4789 10.0787 15.4789 11.9997Z" fill="#D80027" />
    <path d="M15.4789 12C15.4789 13.921 13.9217 15.4782 12.0007 15.4782C10.0797 15.4782 8.52246 13.921 8.52246 12" fill="#0052B4" />
    <path d="M15.6899 15.0742L16.6122 14.1519L17.2271 14.7668L16.3048 15.6891L15.6899 15.0742Z" fill="black" />
    <path d="M14.1523 16.6113L15.0746 15.689L15.6895 16.3039L14.7672 17.2262L14.1523 16.6113Z" fill="black" />
    <path d="M17.5347 16.9189L18.457 15.9966L19.0718 16.6115L18.1495 17.5338L17.5347 16.9189Z" fill="black" />
    <path d="M15.9971 18.4561L16.9194 17.5338L17.5342 18.1486L16.6119 19.0709L15.9971 18.4561Z" fill="black" />
    <path d="M16.6123 15.9961L17.5346 15.0738L18.1495 15.6887L17.2272 16.611L16.6123 15.9961Z" fill="black" />
    <path d="M15.0752 17.5342L15.9975 16.6119L16.6124 17.2268L15.6901 18.1491L15.0752 17.5342Z" fill="black" />
    <path d="M17.5352 8.92578L15.0757 6.46632L15.6906 5.85144L18.15 8.31091L17.5352 8.92578Z" fill="black" />
    <path d="M15.0752 8.31055L14.1529 7.38825L14.7677 6.77341L15.69 7.6957L15.0752 8.31055Z" fill="black" />
    <path d="M16.6123 9.84766L15.69 8.92536L16.3049 8.31052L17.2272 9.23281L16.6123 9.84766Z" fill="black" />
    <path d="M16.9189 6.46582L15.9966 5.54352L16.6115 4.92865L17.5338 5.85095L16.9189 6.46582Z" fill="black" />
    <path d="M18.457 8.00293L17.5347 7.08063L18.1496 6.46576L19.0719 7.38806L18.457 8.00293Z" fill="black" />
    <path d="M5.54443 15.9971L8.0039 18.4565L7.38902 19.0714L4.92956 16.6119L5.54443 15.9971Z" fill="black" />
    <path d="M8.00391 16.6113L8.9262 17.5336L8.31136 18.1485L7.38906 17.2262L8.00391 16.6113Z" fill="black" />
    <path d="M6.4668 15.0742L7.38909 15.9965L6.77422 16.6114L5.85192 15.6891L6.4668 15.0742Z" fill="black" />
    <path d="M7.38916 14.1523L9.84863 16.6118L9.23375 17.2267L6.77429 14.7672L7.38916 14.1523Z" fill="black" />
    <path d="M8.00391 5.54395L5.54444 8.00341L4.92957 7.38854L7.38903 4.92907L8.00391 5.54395Z" fill="black" />
    <path d="M8.92578 6.46582L6.46632 8.92529L5.85144 8.31041L8.31091 5.85095L8.92578 6.46582Z" fill="black" />
    <path d="M9.84863 7.38867L7.38917 9.84814L6.77432 9.23329L9.23379 6.77383L9.84863 7.38867Z" fill="black" />
</svg>
