<svg xmlns="http://www.w3.org/2000/svg" viewBox="0 0 24 24">
    <path d="M2 11.8693C2 13.0925 2.22004 14.2642 2.62199 15.3475L12 16.2171L21.378 15.3475C21.78 14.2642 22 13.0925 22 11.8693C22 10.6461 21.78 9.47438 21.378 8.39105L12 7.52148L2.62199 8.39105C2.22004 9.47438 2 10.6461 2 11.8693V11.8693Z" fill="#FFDA44" />
    <path d="M21.3781 8.52176C19.9652 4.71379 16.2997 2 12.0001 2C7.70043 2 4.035 4.71379 2.62207 8.52176H21.3781Z" fill="#D80027" />
    <path d="M2.62207 15.2178C4.035 19.0257 7.70043 21.7395 12.0001 21.7395C16.2997 21.7395 19.9652 19.0257 21.3781 15.2178H2.62207Z" fill="#D80027" />
</svg>
