<svg xmlns="http://www.w3.org/2000/svg" viewBox="0 0 24 24">
    <path d="M19.0715 4.92893C22.9768 8.83416 22.9768 15.1658 19.0715 19.071C15.1663 22.9763 8.83466 22.9763 4.92942 19.071C1.02418 15.1658 1.02418 8.83417 4.92942 4.92893C8.83465 1.02369 15.1663 1.02369 19.0715 4.92893Z" fill="#FFDA44" />
    <path d="M9.82609 3.73926H6.36377C6.21033 3.84414 6.06018 3.95332 5.91303 4.06633L5.04346 12.0001L5.91303 19.9339C6.06018 20.0469 6.21033 20.1561 6.36377 20.2609H9.82609V3.73926Z" fill="#FF9811" />
    <path d="M2 12.0002C2 15.2325 3.53391 18.106 5.91306 19.934V4.06641C3.53391 5.89446 2 8.76798 2 12.0002Z" fill="#6DA544" />
    <path d="M18.0869 8.09668V8.34688L18.0962 8.34828L18.0869 8.09668Z" fill="#FFDA44" />
    <path d="M21.2029 14.6088H19.3188L18.5217 15.4784V17.2175H16.7825V16.348H17.6521V14.6088H13.739V15.6958H12.8695V13.6242C12.6027 13.3854 12.4347 13.0385 12.4347 12.6523V7.00013C12.4347 6.27977 13.0187 5.69579 13.739 5.69579V13.7393H15.4782L16.0749 13.242C15.9707 12.9937 15.913 12.7211 15.913 12.4349V11.1306H14.6086V8.52193H17.2173C17.2173 8.08716 17.8695 7.65235 17.8695 7.65235C17.8695 7.65235 18.5217 8.08712 18.5217 8.52193V9.17412V11.1306C19.0054 11.1364 19.7739 11.1238 20.6042 11.1306C20.3861 10.7494 20.2608 10.297 20.2608 9.8263C20.2608 9.05908 20.592 8.36931 21.1193 7.89196C20.3593 6.20778 19.1466 4.77176 17.6361 3.73926H11.1304V20.261H17.6362C19.4729 19.0055 20.8693 17.1535 21.5468 14.9841L21.2029 14.6088Z" fill="#A2001D" />
</svg>
