<svg xmlns="http://www.w3.org/2000/svg" viewBox="0 0 24 24">
    <path d="M19.0711 4.92893C22.9763 8.83417 22.9763 15.1658 19.0711 19.0711C15.1658 22.9763 8.83421 22.9763 4.92893 19.0711C1.02369 15.1658 1.02369 8.83421 4.92893 4.92893C8.83417 1.02369 15.1658 1.02369 19.0711 4.92893Z" fill="#F0F0F0" />
    <path d="M21.3785 8.52148H2.62244C2.22053 9.60484 2.00049 10.7765 2.00049 11.9997C2.00049 13.2229 2.22053 14.3947 2.62244 15.478H21.3785C21.7805 14.3947 22.0005 13.2229 22.0005 11.9997C22.0005 10.7765 21.7805 9.60484 21.3785 8.52148Z" fill="#A2001D" />
    <path d="M12.0296 22.0002C15.4547 22.0002 18.4772 20.2778 20.2794 17.6523H3.77979C5.58205 20.2778 8.60447 22.0002 12.0296 22.0002Z" fill="#6DA544" />
    <path d="M12.0296 2C15.4547 2 18.4772 3.72234 20.2794 6.34781H3.77979C5.58205 3.72234 8.60447 2 12.0296 2Z" fill="#6DA544" />
    <path d="M12.0005 8.52148L12.8638 11.1785H15.6578L13.3975 12.8209L14.2609 15.478L12.0005 13.8358L9.74018 15.478L10.6036 12.8209L8.34326 11.1785H11.1372L12.0005 8.52148Z" fill="#FFDA44" />
</svg>
