<svg xmlns="http://www.w3.org/2000/svg" viewBox="0 0 24 24">
    <path d="M19.0711 4.92893C22.9763 8.83417 22.9763 15.1658 19.0711 19.0711C15.1658 22.9763 8.83421 22.9763 4.92893 19.0711C1.02369 15.1658 1.02369 8.83421 4.92893 4.92893C8.83417 1.02369 15.1658 1.02369 19.0711 4.92893Z" fill="#FFDA44" />
    <path d="M9.8267 10.6957H21.9159C21.2767 5.78914 17.0813 2 12.0006 2C11.2539 2 10.5266 2.08254 9.82666 2.2377V10.6957H9.8267Z" fill="#0052B4" />
    <path d="M7.21818 10.6955V3.21582C4.47232 4.71402 2.50666 7.46211 2.08545 10.6956H7.21818V10.6955Z" fill="#0052B4" />
    <path d="M7.21814 13.3047H2.08545C2.50666 16.5382 4.47232 19.2863 7.21818 20.7844L7.21814 13.3047Z" fill="#0052B4" />
    <path d="M9.82666 13.3047V21.7627C10.5266 21.9178 11.2539 22.0004 12.0006 22.0004C17.0813 22.0004 21.2767 18.2112 21.9159 13.3047H9.82666V13.3047Z" fill="#0052B4" />
</svg>
