<svg xmlns="http://www.w3.org/2000/svg" viewBox="0 0 24 24">
    <path d="M19.0711 4.92893C22.9763 8.83417 22.9763 15.1658 19.0711 19.0711C15.1658 22.9763 8.83421 22.9763 4.92893 19.0711C1.02369 15.1658 1.02369 8.83421 4.92893 4.92893C8.83417 1.02369 15.1658 1.02369 19.0711 4.92893Z" fill="#F0F0F0" />
    <path d="M12.0006 2C7.70092 2 4.03549 4.71375 2.62256 8.52176H21.3786C19.9656 4.71375 16.3002 2 12.0006 2Z" fill="#D80027" />
    <path d="M12.0006 22.0003C16.3002 22.0003 19.9656 19.2865 21.3786 15.4785H2.62256C4.03549 19.2865 7.70092 22.0003 12.0006 22.0003Z" fill="black" />
    <path d="M7.97572 9.6084L8.51529 11.269H10.2615L8.84881 12.2955L9.38842 13.9562L7.97572 12.9298L6.56303 13.9562L7.10264 12.2955L5.68994 11.269H7.43615L7.97572 9.6084Z" fill="#6DA544" />
    <path d="M16.0255 9.6084L16.5651 11.269H18.3113L16.8986 12.2955L17.4382 13.9562L16.0255 12.9298L14.6128 13.9562L15.1524 12.2955L13.7397 11.269H15.486L16.0255 9.6084Z" fill="#6DA544" />
</svg>
