<svg xmlns="http://www.w3.org/2000/svg" viewBox="0 0 24 24">
    <path d="M22 12C22 17.5228 17.5228 22 12 22C6.47719 22 2 17.5228 2 12C5.43477 8.56523 8.34781 5.65219 12 2C17.5228 2 22 6.47719 22 12Z" fill="#D80027" />
    <path d="M12 12C12 6.47719 12 5.82609 12 2C6.47719 2 2 6.47719 2 12H12Z" fill="#0052B4" />
    <path d="M10.6955 7.85199L9.47422 8.42652L10.1245 9.6093L8.7984 9.35555L8.63031 10.6953L7.70664 9.70996L6.78289 10.6953L6.61488 9.35555L5.28871 9.60922L5.93902 8.42645L4.71777 7.85199L5.93906 7.27758L5.28871 6.09477L6.61484 6.34848L6.78293 5.00879L7.70664 5.9941L8.63035 5.00879L8.7984 6.34848L10.1246 6.09477L9.47422 7.27762L10.6955 7.85199Z" fill="#F0F0F0" />
    <path d="M9.02339 6.53642C9.75033 7.26336 9.75033 8.44196 9.02339 9.1689C8.29645 9.89584 7.11785 9.89584 6.39091 9.1689C5.66397 8.44196 5.66397 7.26335 6.39091 6.53642C7.11785 5.80948 8.29645 5.80948 9.02339 6.53642Z" fill="#0052B4" />
    <path d="M7.70668 8.8441C7.15977 8.8441 6.71484 8.39914 6.71484 7.85223C6.71484 7.30531 7.1598 6.86035 7.70668 6.86035C8.25359 6.86035 8.69855 7.30531 8.69855 7.85223C8.69852 8.39914 8.25352 8.8441 7.70668 8.8441Z" fill="#F0F0F0" />
</svg>
