<svg xmlns="http://www.w3.org/2000/svg" viewBox="0 0 24 24">
    <path d="M2.99227 7.6518C2.35656 8.96648 2 10.4414 2 11.9996C2 13.5578 2.35656 15.0327 2.99227 16.3474L12 17.217L21.0077 16.3474C21.6434 15.0327 22 13.5578 22 11.9996C22 10.4414 21.6434 8.96648 21.0077 7.6518L12 6.78223L2.99227 7.6518Z" fill="#F0F0F0" />
    <path d="M2.99268 16.3477C4.61014 19.6926 8.03549 21.9998 12.0001 21.9998C15.9646 21.9998 19.39 19.6926 21.0074 16.3477H2.99268Z" fill="#6DA544" />
    <path d="M2.99268 7.65219H21.0074C19.39 4.30727 15.9646 2 12.0001 2C8.03549 2 4.61014 4.30727 2.99268 7.65219Z" fill="#D80027" />
    <path d="M10.2607 14.6085H13.739V13.1302L13.0434 13.478L11.9999 12.4346L10.9564 13.478L10.2607 13.1302V14.6085Z" fill="#FFDA44" />
    <path d="M8.2707 12.8691L8.43262 13.3673H8.95645L8.53262 13.6753L8.69453 14.1735L8.2707 13.8656L7.84688 14.1735L8.00879 13.6753L7.58496 13.3673H8.10879L8.2707 12.8691Z" fill="#FFDA44" />
    <path d="M8.77266 11.1309L8.93457 11.6291H9.4584L9.03457 11.937L9.19644 12.4352L8.77266 12.1273L8.34883 12.4352L8.51074 11.937L8.08691 11.6291H8.61074L8.77266 11.1309Z" fill="#FFDA44" />
    <path d="M10.2077 9.82617L10.3696 10.3244H10.8934L10.4697 10.6323L10.6315 11.1305L10.2077 10.8226L9.78393 11.1305L9.9458 10.6323L9.52197 10.3244H10.0458L10.2077 9.82617Z" fill="#FFDA44" />
    <path d="M15.7292 12.8691L15.5673 13.3673H15.0435L15.4673 13.6753L15.3054 14.1735L15.7292 13.8656L16.153 14.1735L15.9911 13.6753L16.4149 13.3673H15.8911L15.7292 12.8691Z" fill="#FFDA44" />
    <path d="M15.2272 11.1309L15.0653 11.6291H14.5415L14.9653 11.937L14.8034 12.4352L15.2272 12.1273L15.6511 12.4352L15.4892 11.937L15.913 11.6291H15.3892L15.2272 11.1309Z" fill="#FFDA44" />
    <path d="M13.7926 9.82617L13.6307 10.3244H13.1069L13.5307 10.6323L13.3688 11.1305L13.7926 10.8226L14.2164 11.1305L14.0546 10.6323L14.4783 10.3244H13.9545L13.7926 9.82617Z" fill="#FFDA44" />
    <path d="M12.0002 9.17383L12.1621 9.67203H12.6859L12.2621 9.97996L12.424 10.4782L12.0002 10.1703L11.5764 10.4782L11.7383 9.97996L11.3145 9.67203H11.8383L12.0002 9.17383Z" fill="#FFDA44" />
</svg>
