<svg xmlns="http://www.w3.org/2000/svg" viewBox="0 0 24 24">
    <path d="M19.0711 4.92893C22.9763 8.83417 22.9763 15.1658 19.0711 19.0711C15.1658 22.9763 8.83421 22.9763 4.92893 19.0711C1.02369 15.1658 1.02369 8.83421 4.92893 4.92893C8.83417 1.02369 15.1658 1.02369 19.0711 4.92893Z" fill="#FFDA44" />
    <path d="M4.92953 19.0707C5.34902 19.4902 5.7966 19.8643 6.26609 20.1937L20.1946 6.26516C19.8653 5.79566 19.4912 5.34809 19.0717 4.92859C18.6521 4.5091 18.2046 4.13504 17.7351 3.80566L3.80664 17.7342C4.13594 18.2036 4.51008 18.6512 4.92953 19.0707Z" fill="black" />
    <path d="M4.9295 4.92847C1.77473 8.08332 1.16907 12.8212 3.11137 16.5846L16.5857 3.11039C12.8223 1.16808 8.0843 1.77378 4.9295 4.92847Z" fill="#6DA544" />
    <path d="M19.0717 19.0712C22.2264 15.9164 22.8321 11.1784 20.8898 7.41504L7.41553 20.8893C11.1788 22.8316 15.9169 22.226 19.0717 19.0712Z" fill="#338AF3" />
</svg>
