<svg xmlns="http://www.w3.org/2000/svg" viewBox="0 0 24 24">
    <path d="M19.0711 4.92893C22.9763 8.83417 22.9763 15.1658 19.0711 19.0711C15.1658 22.9763 8.83421 22.9763 4.92893 19.0711C1.02369 15.1658 1.02369 8.83421 4.92893 4.92893C8.83417 1.02369 15.1658 1.02369 19.0711 4.92893Z" fill="#F0F0F0" />
    <path d="M21.3785 8.52148H2.62248C2.22049 9.6048 2.00049 10.7765 2.00049 11.9997C2.00049 13.2229 2.22049 14.3946 2.62248 15.478H21.3785C21.7805 14.3946 22.0005 13.2229 22.0005 11.9997C22.0005 10.7765 21.7805 9.6048 21.3785 8.52148Z" fill="#0052B4" />
    <path d="M12.0004 2C8.96953 2 6.25379 3.34859 4.41992 5.47824H19.5809C17.7471 3.34859 15.0313 2 12.0004 2Z" fill="#D80027" />
    <path d="M19.5809 18.5215H4.41992C6.25379 20.6511 8.96953 21.9997 12.0004 21.9997C15.0313 21.9997 17.7471 20.6511 19.5809 18.5215Z" fill="#D80027" />
</svg>
