<svg xmlns="http://www.w3.org/2000/svg" viewBox="0 0 24 24">
    <path d="M19.0711 4.92893C22.9763 8.83417 22.9763 15.1658 19.0711 19.0711C15.1658 22.9763 8.83421 22.9763 4.92893 19.0711C1.02369 15.1658 1.02369 8.83421 4.92893 4.92893C8.83417 1.02369 15.1658 1.02369 19.0711 4.92893Z" fill="#F0F0F0" />
    <path d="M6.36426 3.73914C7.96914 2.64203 9.90969 2 12.0005 2C14.0912 2 16.0318 2.64203 17.6367 3.73914L12.0005 4.17391L6.36426 3.73914Z" fill="#FFDA44" />
    <path d="M4.92994 19.0707L9.54096 14.4597L12.0005 10.261L14.4597 14.4595L19.071 19.0707C20.8808 17.2611 22.0005 14.7616 22.0005 12.0001C22.0005 8.56805 20.2712 5.54016 17.6367 3.73926H6.36428C3.72975 5.54016 2.00049 8.56805 2.00049 12.0001C2.00049 14.7616 3.12018 17.2611 4.92994 19.0707Z" fill="#D80027" />
    <path d="M21.241 15.8294L13.9297 12.7998L14.4596 14.4593L19.0713 19.071C19.992 18.1503 20.7341 17.051 21.241 15.8294Z" fill="#0052B4" />
    <path d="M22.0005 11.9998C22.0005 10.6434 21.7301 9.35023 21.2408 8.1709L12.0005 11.9998H22.0005Z" fill="#0052B4" />
    <path d="M19.071 4.92957C18.6315 4.49012 18.1515 4.09117 17.6367 3.73926H15.4236L12.0005 12.0001L19.071 4.92957Z" fill="#0052B4" />
    <path d="M12.0007 3.73926H8.57764L12.0007 12.0001V3.73926Z" fill="#0052B4" />
    <path d="M4.92998 4.92969C4.0092 5.85039 3.26713 6.94965 2.76025 8.17125L12.0005 12.0002L4.92998 4.92969Z" fill="#0052B4" />
    <path d="M2.00049 12C2.00049 13.3564 2.27084 14.6496 2.76018 15.8289L12.0005 12H2.00049Z" fill="#0052B4" />
    <path d="M6.36426 20.2607C7.9691 21.3579 9.90969 21.9999 12.0005 21.9999C14.0912 21.9999 16.0318 21.3579 17.6367 20.2607H6.36426Z" fill="#FFDA44" />
    <path d="M12.0007 11.9997L14.4602 14.4592C15.0897 13.8298 15.479 12.9602 15.479 11.9997C15.479 10.0787 13.9217 8.52148 12.0007 8.52148C10.0798 8.52148 8.52246 10.0787 8.52246 11.9997C8.52246 12.9602 8.91176 13.8298 9.54125 14.4592L12.0007 11.9997Z" fill="#FFDA44" />
    <path d="M13.5225 17.0003C13.5225 17.8407 12.8412 18.0872 12.0008 18.0872C11.1604 18.0872 10.479 17.8407 10.479 17.0003C10.479 16.1598 11.1604 15.4785 12.0008 15.4785C12.8412 15.4785 13.5225 16.1598 13.5225 17.0003Z" fill="#FFDA44" />
    <path d="M13.5225 17C13.5225 17.8404 12.8412 18.5218 12.0008 18.5218C11.1604 18.5218 10.479 17.8404 10.479 17" fill="#0052B4" />
</svg>
