<svg xmlns="http://www.w3.org/2000/svg" viewBox="0 0 24 24">
    <path d="M19.0711 4.92893C22.9763 8.83417 22.9763 15.1658 19.0711 19.0711C15.1658 22.9763 8.83421 22.9763 4.92893 19.0711C1.02369 15.1658 1.02369 8.83421 4.92893 4.92893C8.83417 1.02369 15.1658 1.02369 19.0711 4.92893Z" fill="#FFDA44" />
    <path d="M12.0009 2C9.55256 2 7.31014 2.88035 5.57178 4.34117L16.3487 12L5.57178 19.6588C7.31014 21.1196 9.55256 22 12.0009 22C17.5237 22 22.0009 17.5228 22.0009 12C22.0009 6.47719 17.5237 2 12.0009 2Z" fill="#D80027" />
    <path d="M4.92941 4.92871C1.02418 8.83395 1.02418 15.1656 4.92941 19.0709C6.5432 17.4571 8.09527 15.905 12.0005 11.9998L4.92941 4.92871Z" fill="black" />
    <path d="M4.7733 9.70898L6.29518 11.1493L8.13533 10.1468L7.23592 12.0394L8.75783 13.4797L6.67994 13.2091L5.78041 15.1016L5.39576 13.0418L3.31787 12.7711L5.15795 11.7687L4.7733 9.70898Z" fill="#F0F0F0" />
</svg>
