<svg xmlns="http://www.w3.org/2000/svg" viewBox="0 0 24 24">
    <path d="M19.0711 4.92893C22.9763 8.83417 22.9763 15.1658 19.0711 19.0711C15.1658 22.9763 8.83421 22.9763 4.92893 19.0711C1.02369 15.1658 1.02369 8.83421 4.92893 4.92893C8.83417 1.02369 15.1658 1.02369 19.0711 4.92893Z" fill="#FFDA44" />
    <path d="M12.0007 2C11.9934 2.00008 11.5659 6 11.5659 6H20.0012C18.1767 3.57121 15.2722 2 12.0007 2Z" fill="#496E2D" />
    <path d="M12.0004 22C15.272 22 18.1765 20.4288 20.0009 18H4C5.82437 20.4288 8.72887 22 12.0004 22Z" fill="#496E2D" />
    <path d="M21.8004 10H11.5659L12.0007 14H21.8004C21.9317 13.3538 22.0007 12.685 22.0007 12C22.0007 11.315 21.9316 10.6462 21.8004 10Z" fill="#496E2D" />
    <path d="M12.0005 14C12.0005 11.913 12.0005 4.34781 12.0005 2C6.47768 2 2.00049 6.47719 2.00049 12C2.00049 12.685 2.06955 13.3538 2.20072 14H12.0005Z" fill="#D80027" />
    <path d="M7.51828 6.78223L8.16578 8.775H10.2613L8.56609 10.0068L9.21352 11.9996L7.51828 10.768L5.82305 11.9996L6.47059 10.0068L4.77539 8.775H6.87082L7.51828 6.78223Z" fill="#F0F0F0" />
</svg>
