<svg xmlns="http://www.w3.org/2000/svg" viewBox="0 0 24 24">
    <path d="M19.0711 4.92893C22.9763 8.83417 22.9763 15.1658 19.0711 19.0711C15.1658 22.9763 8.83421 22.9763 4.92893 19.0711C1.02369 15.1658 1.02369 8.83421 4.92893 4.92893C8.83417 1.02369 15.1658 1.02369 19.0711 4.92893Z" fill="#FFDA44" />
    <path d="M18.0874 6.78262C17.9978 7.21367 17.957 7.67277 17.957 8.13043C17.957 10.7685 19.5296 13.0517 21.7833 14.0796C21.9253 13.4086 22.0005 12.7131 22.0005 12C22.0005 6.47719 17.5233 2 12.0005 2C6.47768 2 2.00049 6.47719 2.00049 12C2.00049 17.5228 6.47768 22 12.0005 22C15.4256 22 18.4481 20.2777 20.2503 17.6522H7.65268V16.3479H21.0082C21.1449 16.0652 21.2684 15.775 21.3785 15.4783H7.65268L18.0874 6.78262Z" fill="#0052B4" />
    <path d="M9.34744 7.21777L9.5633 7.88207H10.2617L9.6967 8.29266L9.91256 8.95691L9.34744 8.54641L8.7824 8.95691L8.99822 8.29266L8.43311 7.88207H9.13158L9.34744 7.21777Z" fill="#F0F0F0" />
    <path d="M6.51004 12L6.77988 12.8304H7.65293L6.94656 13.3435L7.21641 14.1739L6.51004 13.6607L5.80371 14.1739L6.07352 13.3435L5.36719 12.8304H6.24023L6.51004 12Z" fill="#F0F0F0" />
    <path d="M6.51004 5.04395L6.77988 5.87437H7.65293L6.94656 6.38746L7.21641 7.21785L6.51004 6.70465L5.80371 7.21785L6.07352 6.38746L5.36719 5.87437H6.24023L6.51004 5.04395Z" fill="#F0F0F0" />
    <path d="M4.33621 8.95605L4.60605 9.78648H5.47906L4.77273 10.2996L5.04258 11.13L4.33621 10.6168L3.62988 11.13L3.89969 10.2996L3.19336 9.78648H4.06637L4.33621 8.95605Z" fill="#F0F0F0" />
</svg>
