<svg xmlns="http://www.w3.org/2000/svg" viewBox="0 0 24 24">
    <path d="M19.0711 4.92893C22.9763 8.83417 22.9763 15.1658 19.0711 19.0711C15.1658 22.9763 8.83421 22.9763 4.92893 19.0711C1.02369 15.1658 1.02369 8.83421 4.92893 4.92893C8.83417 1.02369 15.1658 1.02369 19.0711 4.92893Z" fill="#F0F0F0" />
    <path d="M8.52228 7.21742V5.91309H7.21791V7.21742H5.91357V8.5218H7.21791V9.82613H8.52228V8.5218H9.82662V7.21742H8.52228Z" fill="#D80027" />
    <path d="M12.0005 2V12C6.47768 12 4.28271 12 2.00049 12C2.00049 17.5228 6.47768 22 12.0005 22C17.5233 22 22.0005 17.5228 22.0005 12C22.0005 6.47719 17.5233 2 12.0005 2Z" fill="#D80027" />
</svg>
