<svg xmlns="http://www.w3.org/2000/svg" viewBox="0 0 24 24">
    <path d="M21.6557 9.39129C20.5082 5.13363 16.6205 2 12.0002 2C7.37996 2 3.49223 5.13363 2.34473 9.39129L12.0002 9.82609L21.6557 9.39129Z" fill="#A2001D" />
    <path d="M2.34473 14.6086C3.49223 18.8662 7.37996 21.9999 12.0002 21.9999C16.6205 21.9999 20.5082 18.8663 21.6557 14.6086L12.0002 14.1738L2.34473 14.6086Z" fill="#A2001D" />
    <path d="M21.6555 9.3916H2.34449C2.12031 10.2234 2 11.0977 2 12.0003C2 12.9029 2.12031 13.7773 2.34449 14.609H21.6555C21.8797 13.7773 22 12.9029 22 12.0003C22 11.0977 21.8797 10.2234 21.6555 9.3916Z" fill="#6DA544" />
</svg>
