<svg xmlns="http://www.w3.org/2000/svg" viewBox="0 0 24 24">
    <path d="M7.41461 3.11035C6.51937 3.57242 5.67902 4.17809 4.92855 4.92855C4.17805 5.67906 3.57238 6.51941 3.11035 7.41465L9.54031 14.4595L16.5852 20.8895C17.4805 20.4274 18.3208 19.8218 19.0713 19.0713C19.8218 18.3208 20.4274 17.4805 20.8895 16.5852L14.4595 9.54031L7.41461 3.11035Z" fill="#F0F0F0" />
    <path d="M19.0714 19.0714C19.4909 18.6519 19.865 18.2043 20.1944 17.7348L6.26527 3.80566C5.79578 4.135 5.34816 4.50914 4.92867 4.92863C4.50918 5.34813 4.13504 5.79574 3.80566 6.26527L17.7348 20.1943C18.2042 19.865 18.6519 19.4909 19.0714 19.0714Z" fill="black" />
    <path d="M4.92859 19.0717C8.08355 22.2267 12.8217 22.8323 16.5852 20.8899L3.11043 7.41504C1.16804 11.1786 1.77379 15.9168 4.92859 19.0717Z" fill="#D80027" />
    <path d="M19.0712 4.92864C15.9162 1.77372 11.1781 1.16809 7.41455 3.1104L20.8894 16.5853C22.8318 12.8218 22.2262 8.08356 19.0712 4.92864Z" fill="#D80027" />
</svg>
