<svg xmlns="http://www.w3.org/2000/svg" viewBox="0 0 24 24">
    <path d="M19.0711 4.92893C22.9763 8.83417 22.9763 15.1658 19.0711 19.0711C15.1658 22.9763 8.83421 22.9763 4.92893 19.0711C1.02369 15.1658 1.02369 8.83421 4.92893 4.92893C8.83417 1.02369 15.1658 1.02369 19.0711 4.92893Z" fill="#D80027" />
    <path d="M15.3827 8.61857C17.2504 10.4863 17.2504 13.5145 15.3827 15.3822C13.515 17.2499 10.4868 17.2499 8.61906 15.3822C6.75133 13.5145 6.75133 10.4863 8.61906 8.61857C10.4868 6.75084 13.515 6.75084 15.3827 8.61857Z" fill="#F0F0F0" />
    <path d="M12.5899 10.1709L13.4104 11.3016L14.7392 10.8707L13.9174 12.0004L14.7378 13.131L13.4095 12.6985L12.5877 13.8282L12.5886 12.4313L11.2603 11.9988L12.5891 11.5679L12.5899 10.1709Z" fill="#D80027" />
    <path d="M13.0877 14.8259C11.5269 14.8259 10.2616 13.5605 10.2616 11.9998C10.2616 10.439 11.5269 9.17367 13.0877 9.17367C13.5743 9.17367 14.0322 9.29672 14.432 9.51336C13.8048 8.90004 12.9472 8.52148 12.0007 8.52148C10.0798 8.52148 8.52246 10.0788 8.52246 11.9997C8.52246 13.9207 10.0798 15.478 12.0007 15.478C12.9472 15.478 13.8049 15.0994 14.432 14.4861C14.0322 14.7028 13.5743 14.8259 13.0877 14.8259Z" fill="#D80027" />
</svg>
