<svg xmlns="http://www.w3.org/2000/svg" viewBox="0 0 24 24">
    <path d="M22 12C22 17.5228 17.5228 22 12 22C6.47719 22 2 17.5228 2 12C2 12.0024 12 2.00109 12 2C17.5228 2 22 6.47719 22 12Z" fill="#0052B4" />
    <path d="M11.9731 12.0004H11.9999C11.9999 11.9914 11.9999 11.9827 11.9999 11.9736C11.991 11.9826 11.9821 11.9915 11.9731 12.0004Z" fill="#F0F0F0" />
    <path d="M12 7.21738C12 5.45781 12 4.30488 12 2H11.9983C6.47621 2.00094 2 6.4777 2 12H7.21738V9.06207L10.1553 12H11.9733C11.9822 11.9911 11.9911 11.9822 12 11.9732C12 11.2995 12 10.6984 12 10.1554L9.06203 7.21738H12Z" fill="#F0F0F0" />
    <path d="M7.05904 3.30469C5.49502 4.19527 4.19475 5.49551 3.3042 7.05953V12.0004H5.91291V5.91348V5.9134H11.9999C11.9999 5.09063 11.9999 4.3068 11.9999 3.30469H7.05904Z" fill="#D80027" />
    <path d="M11.9999 10.7706L8.44697 7.21777H7.21729V7.21785L11.9998 12.0004H11.9999C11.9999 12.0004 11.9999 11.1524 11.9999 10.7706Z" fill="#D80027" />
    <path d="M13.3042 7.21777V12.0004C13.3042 14.33 16.3477 15.0439 16.3477 15.0439C16.3477 15.0439 19.3912 14.33 19.3912 12.0004V7.21777H13.3042Z" fill="#FFDA44" />
    <path d="M15.913 8.95648C15.913 9.43676 15.5237 10.6956 15.0434 10.6956C14.5631 10.6956 14.1738 9.43676 14.1738 8.95648C14.1738 8.47621 15.0434 8.08691 15.0434 8.08691C15.0434 8.08691 15.913 8.47621 15.913 8.95648Z" fill="#FF9811" />
    <path d="M18.2203 9.90355C18.3606 9.56117 18.4698 9.0607 18.4698 8.81156C18.4698 8.41133 17.948 8.08691 17.948 8.08691C17.948 8.08691 17.4263 8.41137 17.4263 8.81156C17.4263 9.0607 17.5354 9.56117 17.6757 9.90355L17.3745 10.5836C17.5515 10.6556 17.7451 10.6956 17.948 10.6956C18.1509 10.6956 18.3444 10.6556 18.5215 10.5836L18.2203 9.90355Z" fill="#A2001D" />
    <path d="M15.6955 12.0002C15.6955 12.0002 15.2607 12.8698 15.2607 13.7393C15.2607 13.7393 16.5651 13.7393 17.4346 13.7393C17.4346 12.8698 16.9998 12.0002 16.9998 12.0002L16.3477 11.5654L15.6955 12.0002Z" fill="#6DA544" />
    <path d="M17.0002 12.0004V11.783C17.0002 11.4229 16.7082 11.1309 16.348 11.1309C15.9878 11.1309 15.6958 11.4229 15.6958 11.783V12.0004H17.0002Z" fill="#D80027" />
</svg>
