<svg xmlns="http://www.w3.org/2000/svg" viewBox="0 0 24 24">
    <path d="M19.0711 4.92893C22.9763 8.83417 22.9763 15.1658 19.0711 19.0711C15.1658 22.9763 8.83421 22.9763 4.92893 19.0711C1.02369 15.1658 1.02369 8.83421 4.92893 4.92893C8.83417 1.02369 15.1658 1.02369 19.0711 4.92893Z" fill="#D80027" />
    <path d="M11.5914 10.1709L12.4119 11.3016L13.7407 10.8707L12.9189 12.0004L13.7393 13.131L12.411 12.6985L11.5892 13.8282L11.5901 12.4313L10.2617 11.9988L11.5905 11.5679L11.5914 10.1709Z" fill="#F0F0F0" />
    <path d="M9.35182 14.8259C7.79104 14.8259 6.52572 13.5605 6.52572 11.9998C6.52572 10.439 7.79104 9.17367 9.35182 9.17367C9.83846 9.17367 10.2963 9.29676 10.6961 9.51336C10.069 8.9 9.21127 8.52148 8.26486 8.52148C6.34385 8.52148 4.78662 10.0788 4.78662 11.9997C4.78662 13.9207 6.34389 15.478 8.26486 15.478C9.21135 15.478 10.069 15.0994 10.6961 14.4861C10.2963 14.7028 9.83846 14.8259 9.35182 14.8259Z" fill="#F0F0F0" />
</svg>
