<svg xmlns="http://www.w3.org/2000/svg" viewBox="0 0 24 24">
    <path d="M11.9997 2C11.2531 2 10.5258 2.08254 9.82588 2.2377L9.39111 12L9.82588 21.7623C10.5258 21.9174 11.2531 22 11.9997 22C17.5226 22 21.9997 17.5228 21.9997 12C21.9997 6.47715 17.5226 2 11.9997 2V2Z" fill="#496E2D" />
    <path d="M4.60867 5.26465C2.9882 7.04184 2 9.40551 2 12.0001C2 14.5947 2.98824 16.9584 4.60871 18.7357L5.04348 12.0001L4.60867 5.26465Z" fill="#496E2D" />
    <path d="M16.6258 9.54309C17.1178 8.17176 16.5651 6.68031 15.3789 5.9375C15.5922 5.96527 15.8058 6.01551 16.0166 6.09109C17.5988 6.65875 18.4212 8.40141 17.8535 9.98352C17.2859 11.5657 15.5432 12.3881 13.9611 11.8204C13.7502 11.7448 13.5534 11.6477 13.3711 11.5336C14.759 11.7143 16.1338 10.9144 16.6258 9.54309Z" fill="#F0F0F0" />
    <path d="M13.897 5.56152L13.4695 6.11395L12.8121 5.87805L13.2053 6.45531L12.7778 7.00766L13.4483 6.81211L13.8416 7.3893L13.8627 6.69117L14.5333 6.49559L13.8759 6.25977L13.897 5.56152Z" fill="#F0F0F0" />
    <path d="M15.0513 7.36133L14.6238 7.91371L13.9664 7.67781L14.3596 8.25508L13.9321 8.80742L14.6026 8.6118L14.9959 9.1891L15.0171 8.49094L15.6876 8.29531L15.0302 8.05945L15.0513 7.36133Z" fill="#F0F0F0" />
    <path d="M11.8619 6.2168L11.4343 6.76914L10.7769 6.53332L11.1702 7.11055L10.7427 7.66293L11.4131 7.46734L11.8064 8.04457L11.8276 7.34644L12.4981 7.15086L11.8407 6.91496L11.8619 6.2168Z" fill="#F0F0F0" />
    <path d="M11.815 8.27832L11.3875 8.8307L10.7301 8.59484L11.1234 9.17211L10.6958 9.72445L11.3664 9.52891L11.7596 10.1061L11.7808 9.40797L12.4513 9.21238L11.7938 8.97648L11.815 8.27832Z" fill="#F0F0F0" />
    <path d="M13.7769 8.98242L13.3494 9.53477L12.692 9.29891L13.0853 9.87617L12.6577 10.4285L13.3283 10.2329L13.7215 10.8102L13.7427 10.112L14.4132 9.91645L13.7558 9.68059L13.7769 8.98242Z" fill="#F0F0F0" />
    <path d="M4.60889 5.2641V18.7351C5.97139 20.2294 7.78115 21.3085 9.82627 21.7618V2.2373C7.78111 2.69066 5.97143 3.76977 4.60889 5.2641Z" fill="#D80027" />
    <path d="M6.59955 7.26551L5.72607 6.6148V5.69461L6.59955 5.04395H7.8349L8.70838 5.69461V6.6148L7.8349 7.26551H6.59955Z" fill="#F0F0F0" />
    <path d="M7.21725 5.04395H6.59955L5.72607 5.69461V6.14449H7.21725V5.04395Z" fill="#FF9811" />
    <path d="M7.21729 7.26465H7.83494L8.70842 6.61395V6.14453H7.21729V7.26465Z" fill="#FF9811" />
    <path d="M6.59955 18.9569L5.72607 18.3062V17.3861L6.59955 16.7354H7.8349L8.70838 17.3861V18.3062L7.8349 18.9569H6.59955Z" fill="#F0F0F0" />
    <path d="M7.21725 16.7354H6.59955L5.72607 17.3861V17.8359H7.21725V16.7354Z" fill="#FF9811" />
    <path d="M7.21729 18.956H7.83494L8.70842 18.3053V17.8359H7.21729V18.956Z" fill="#FF9811" />
    <path d="M6.59955 13.1112L5.72607 12.4605V11.5404L6.59955 10.8896H7.8349L8.70838 11.5404V12.4605L7.8349 13.1112H6.59955Z" fill="#496E2D" />
    <path d="M8.73924 14.5426H8.35877V14.1622H7.69022L7.21748 13.6895L6.74479 14.1622H6.07623V14.5426H5.6958V15.3035H6.07623V15.6839H6.74475L7.21752 16.1567L7.69022 15.6839H8.35877V15.3035H8.73924V14.5426Z" fill="#496E2D" />
    <path d="M8.73924 8.69695H8.35877V8.31648H7.69022L7.21748 7.84375L6.74479 8.31648H6.07623V8.69695H5.6958V9.45781H6.07623V9.83824H6.74475L7.21752 10.3111L7.69022 9.83824H8.35877V9.45781H8.73924V8.69695Z" fill="#496E2D" />
    <path d="M6.78271 11.5654H7.65229V12.435H6.78271V11.5654Z" fill="#D80027" />
    <path d="M7.52491 8.76992C7.69469 8.9397 7.69469 9.21498 7.52491 9.38477C7.35512 9.55456 7.07984 9.55456 6.91005 9.38477C6.74027 9.21498 6.74027 8.9397 6.91005 8.76992C7.07984 8.60013 7.35512 8.60013 7.52491 8.76992Z" fill="#D80027" />
    <path d="M7.52491 14.6156C7.69469 14.7854 7.69469 15.0607 7.52491 15.2305C7.35512 15.4003 7.07984 15.4003 6.91005 15.2305C6.74027 15.0607 6.74027 14.7854 6.91005 14.6156C7.07984 14.4458 7.35512 14.4458 7.52491 14.6156Z" fill="#D80027" />
</svg>
