<svg xmlns="http://www.w3.org/2000/svg" viewBox="0 0 24 24">
    <path d="M22 12C22 17.5228 17.5228 22 12 22C6.47719 22 2 17.5228 2 12C2 12.0024 12 2.00109 12 2C17.5228 2 22 6.47719 22 12Z" fill="#338AF3" />
    <path d="M6.78271 11.9997H10.1554L7.21748 8.52148L6.78271 9.82582V11.9997Z" fill="#0052B4" />
    <path d="M12.0003 10.155L8.52197 6.78223H12.0002L12.0003 10.155Z" fill="#0052B4" />
    <path d="M11.9731 12.0004H11.9999C11.9999 11.9914 11.9999 11.9827 11.9999 11.9736C11.991 11.9826 11.9821 11.9915 11.9731 12.0004Z" fill="#F0F0F0" />
    <path d="M12 7.21738C12 5.45781 12 4.30484 12 2H11.9984C6.47625 2.00094 2 6.4777 2 12H7.21742V9.06207L10.1554 12H11.9733C11.9822 11.9911 11.9911 11.9822 12.0001 11.9732C12.0001 11.2995 12.0001 10.6984 12.0001 10.1554L9.06203 7.21738H12Z" fill="#F0F0F0" />
    <path d="M7.05904 3.30469C5.49502 4.19527 4.19479 5.49551 3.3042 7.05953V12.0004H5.91291V5.91348V5.9134H11.9999C11.9999 5.09063 11.9999 4.3068 11.9999 3.30469H7.05904Z" fill="#D80027" />
    <path d="M11.9999 10.7706L8.44697 7.21777H7.21729V7.21785L11.9998 12.0004H11.9999C11.9999 12.0004 11.9999 11.1524 11.9999 10.7706Z" fill="#D80027" />
    <path d="M12.9143 18.5215L13.1302 19.1858H13.8286L13.2636 19.5963L13.4795 20.2606L12.9143 19.8501L12.3493 20.2606L12.5651 19.5963L12 19.1858H12.6984L12.9143 18.5215Z" fill="#FFDA44" />
    <path d="M18.4768 14.1738L18.6927 14.8381H19.3911L18.8261 15.2487L19.042 15.913L18.4768 15.5025L17.9118 15.913L18.1277 15.2487L17.5625 14.8381H18.261L18.4768 14.1738Z" fill="#FFDA44" />
    <path d="M19.8708 7.65234L20.0867 8.31664H20.7852L20.2201 8.72719L20.436 9.39145L19.8708 8.98094L19.3058 9.39145L19.5217 8.72719L18.9565 8.31664H19.655L19.8708 7.65234Z" fill="#FFDA44" />
    <path d="M20.2161 12.4346L20.4319 13.0989H21.1304L20.5654 13.5095L20.7812 14.1737L20.2161 13.7632L19.6511 14.1737L19.8669 13.5095L19.3018 13.0989H20.0002L20.2161 12.4346Z" fill="#FFDA44" />
    <path d="M13.916 16.9589L14.5384 17.2761L15.0323 16.7822L14.9231 17.472L15.5454 17.7891L14.8555 17.8984L14.7462 18.5883L14.4292 17.9659L13.7393 18.0753L14.2331 17.5814L13.916 16.9589Z" fill="#FFDA44" />
    <path d="M13.916 14.3506L14.5384 14.6677L15.0323 14.1738L14.9231 14.8637L15.5454 15.1807L14.8555 15.29L14.7462 15.9799L14.4292 15.3576L13.7393 15.4669L14.2331 14.973L13.916 14.3506Z" fill="#FFDA44" />
    <path d="M16.0898 16.0224L16.7123 16.3396L17.2061 15.8457L17.0969 16.5355L17.7192 16.8526L17.0293 16.9619L16.92 17.6518L16.603 17.0294L15.9131 17.1388L16.407 16.6449L16.0898 16.0224Z" fill="#FFDA44" />
    <path d="M16.0898 10.4375L16.7123 10.7546L17.2061 10.2607L17.0969 10.9506L17.7192 11.2677L17.0293 11.377L16.92 12.0668L16.603 11.4445L15.9131 11.5538L16.407 11.0599L16.0898 10.4375Z" fill="#FFDA44" />
    <path d="M18.1967 10.3711L18.8192 10.6882L19.3131 10.1943L19.2038 10.8842L19.8262 11.2012L19.1362 11.3105L19.027 12.0004L18.7099 11.3781L18.02 11.4874L18.5139 10.9935L18.1967 10.3711Z" fill="#FFDA44" />
</svg>
