<svg xmlns="http://www.w3.org/2000/svg" viewBox="0 0 24 24">
    <path d="M19.4529 18.6663C21.0366 16.8971 22 14.5611 22 11.9997C22 9.43828 21.0365 7.10223 19.4528 5.33301L12 4.6084L4.54719 5.33301C2.96348 7.10223 2 9.43828 2 11.9997C2 14.5611 2.96344 16.8971 4.54715 18.6663L12 19.391L19.4529 18.6663Z" fill="#FFDA44" />
    <path d="M4.54736 5.33332H19.453C17.622 3.28773 14.9616 2 12.0002 2C9.03873 2 6.37838 3.28773 4.54736 5.33332Z" fill="black" />
    <path d="M2 12.0004L12 12.8699L22 12.0004C22 10.8314 21.7988 9.70965 21.4302 8.66699H2.56984C2.20121 9.70965 2 10.8314 2 12.0004H2Z" fill="#D80027" />
    <path d="M2.56984 15.3333H21.4302C21.7988 14.2907 22 13.1689 22 12H2C2 13.1689 2.20121 14.2907 2.56984 15.3333Z" fill="black" />
    <path d="M19.4531 18.667H4.54736C6.37838 20.7126 9.03873 22.0004 12.0002 22.0004C14.9617 22.0004 17.6221 20.7126 19.4531 18.667Z" fill="#D80027" />
    <path d="M15.337 12C15.337 13.8431 13.8431 15.337 12 15.337C10.157 15.337 8.66309 13.8431 8.66309 12C8.66309 10.157 10.157 8.66309 12 8.66309C13.8431 8.66309 15.337 10.157 15.337 12Z" fill="#F0F0F0" />
    <path d="M13.2224 12.1704L11.9999 11.6406C11.9999 11.6406 12.2859 10.6913 12.3012 10.6263C12.3123 10.5789 12.3182 10.5294 12.3182 10.4785C12.3182 10.2984 12.2452 10.1354 12.1272 10.0174L12.4346 9.70996C12.2379 9.51328 11.9662 9.3916 11.666 9.3916C11.3659 9.3916 11.0941 9.51324 10.8974 9.70996L11.2048 10.0174C11.0868 10.1354 11.0138 10.2984 11.0138 10.4785C11.0138 10.5444 11.0238 10.6079 11.042 10.6678L10.5791 11.1306H11.4204C11.4204 11.1306 11.0725 11.653 10.8827 12.0821C10.6928 12.5111 10.8853 13.0348 11.3241 13.2298L11.5779 13.3426L11.9999 13.7393V14.1741L11.5652 14.6089H12.4347V13.7393L12.8315 13.3425H13.6521C13.6561 13.3344 13.6602 13.3264 13.6639 13.318C13.8589 12.8793 13.6613 12.3654 13.2224 12.1704Z" fill="black" />
</svg>
