<svg xmlns="http://www.w3.org/2000/svg" viewBox="0 0 24 24">
    <path d="M19.0711 4.92893C22.9763 8.83417 22.9763 15.1658 19.0711 19.0711C15.1658 22.9763 8.83421 22.9763 4.92893 19.0711C1.02369 15.1658 1.02369 8.83421 4.92893 4.92893C8.83417 1.02369 15.1658 1.02369 19.0711 4.92893Z" fill="#F0F0F0" />
    <path d="M11.5659 12.0003H22.0007C22.0007 11.0977 21.8804 10.2234 21.6562 9.3916H11.5659V12.0003Z" fill="#D80027" />
    <path d="M11.5659 6.78254H20.5329C19.9208 5.78363 19.1381 4.9007 18.2255 4.17383H11.5659V6.78254Z" fill="#D80027" />
    <path d="M12.0007 22.0001C14.3542 22.0001 16.5174 21.1866 18.2256 19.8262H5.77588C7.48408 21.1866 9.64725 22.0001 12.0007 22.0001Z" fill="#D80027" />
    <path d="M3.46846 17.2171H20.533C21.0244 16.4152 21.4056 15.5386 21.6562 14.6084H2.34521C2.59588 15.5386 2.97701 16.4152 3.46846 17.2171Z" fill="#D80027" />
    <path d="M6.63268 3.56164H7.54396L6.69631 4.17746L7.0201 5.17391L6.17248 4.55809L5.32486 5.17391L5.60455 4.31309C4.85822 4.93477 4.20408 5.66313 3.66502 6.47469H3.95701L3.41744 6.86668C3.33338 7.00691 3.25275 7.14937 3.17549 7.29395L3.43314 8.08695L2.95244 7.7377C2.83295 7.99086 2.72365 8.24973 2.62541 8.51398L2.90928 9.38773H3.95701L3.10936 10.0036L3.43314 11L2.58553 10.3842L2.07779 10.7531C2.02697 11.1616 2.00049 11.5777 2.00049 12H12.0005C12.0005 6.47719 12.0005 5.82609 12.0005 2C10.025 2 8.1835 2.57305 6.63268 3.56164ZM7.0201 11L6.17248 10.3842L5.32486 11L5.64865 10.0036L4.801 9.38773H5.84873L6.17248 8.39129L6.49623 9.38773H7.54396L6.69631 10.0036L7.0201 11ZM6.69631 7.09051L7.0201 8.08695L6.17248 7.47113L5.32486 8.08695L5.64865 7.09051L4.801 6.47469H5.84873L6.17248 5.47824L6.49623 6.47469H7.54396L6.69631 7.09051ZM10.6071 11L9.75943 10.3842L8.91182 11L9.23561 10.0036L8.38795 9.38773H9.43568L9.75943 8.39129L10.0832 9.38773H11.1309L10.2833 10.0036L10.6071 11ZM10.2833 7.09051L10.6071 8.08695L9.75943 7.47113L8.91182 8.08695L9.23561 7.09051L8.38795 6.47469H9.43568L9.75943 5.47824L10.0832 6.47469H11.1309L10.2833 7.09051ZM10.2833 4.17746L10.6071 5.17391L9.75943 4.55809L8.91182 5.17391L9.23561 4.17746L8.38795 3.56164H9.43568L9.75943 2.5652L10.0832 3.56164H11.1309L10.2833 4.17746Z" fill="#0052B4" />
</svg>
