<svg xmlns="http://www.w3.org/2000/svg" viewBox="0 0 24 24">
    <path d="M19.0711 4.92893C22.9763 8.83417 22.9763 15.1658 19.0711 19.0711C15.1658 22.9763 8.83421 22.9763 4.92893 19.0711C1.02369 15.1658 1.02369 8.83421 4.92893 4.92893C8.83417 1.02369 15.1658 1.02369 19.0711 4.92893Z" fill="#338AF3" />
    <path d="M11.9719 8.52148C10.0508 8.52148 8.49365 10.0788 8.49365 11.9997C8.49365 13.9207 10.0509 15.478 11.9719 15.478C13.8928 15.478 15.4501 13.9207 15.4501 11.9997C15.4501 10.0788 13.8928 8.52148 11.9719 8.52148ZM11.1023 11.9997C11.1023 11.5195 11.4916 11.1302 11.9719 11.1302C12.4521 11.1302 12.8415 11.5195 12.8415 11.9997C12.8415 12.48 12.4521 12.8693 11.9719 12.8693C11.4916 12.8693 11.1023 12.48 11.1023 11.9997ZM12.8735 10.5123C12.7385 10.4303 12.5914 10.3666 12.4356 10.3236V9.43297C12.8278 9.50336 13.1895 9.66113 13.4999 9.8859L12.8735 10.5123ZM11.5661 10.3087C11.4029 10.3477 11.2488 10.4097 11.1071 10.4911L10.4778 9.8618C10.796 9.63906 11.1658 9.4852 11.5661 9.42258V10.3087ZM11.1071 13.5084C11.2487 13.5897 11.4029 13.6517 11.566 13.6907V14.5768C11.1657 14.5143 10.796 14.3603 10.4778 14.1376L11.1071 13.5084ZM12.4356 13.6759C12.5914 13.6329 12.7386 13.5692 12.8735 13.4872L13.4998 14.1136C13.1894 14.3383 12.8278 14.4961 12.4356 14.5665V13.6759H12.4356V13.6759ZM13.4805 12.8646C13.5571 12.7313 13.617 12.587 13.6562 12.4345H14.5438C14.4785 12.8237 14.3272 13.1834 14.1098 13.4938L13.4805 12.8646ZM13.6562 11.565C13.617 11.4124 13.5571 11.2683 13.4805 11.135L14.1098 10.5057C14.3271 10.8161 14.4785 11.1758 14.5438 11.5649H13.6562V11.565H13.6562ZM9.85803 10.4718L10.4844 11.0982C10.3973 11.2415 10.3304 11.3984 10.2875 11.565H9.39994C9.46764 11.1616 9.62775 10.7898 9.85803 10.4718ZM9.39994 12.4345H10.2875C10.3304 12.6011 10.3973 12.7579 10.4844 12.9013L9.85803 13.5277C9.62775 13.2096 9.46764 12.8379 9.39994 12.4345Z" fill="#F0F0F0" />
    <path d="M17.6241 11.9996C17.6241 10.4535 17.0031 9.0527 15.9972 8.03223L15.0749 8.95453C15.8448 9.73891 16.3198 10.8138 16.3198 11.9996C16.3198 14.4009 14.3732 16.3474 11.972 16.3474C9.57068 16.3474 7.62416 14.4009 7.62416 11.9996C7.62416 10.7989 8.11076 9.71199 8.8976 8.92523L7.97529 8.00293C6.95244 9.02578 6.31982 10.4388 6.31982 11.9996C6.31982 14.5861 8.05721 16.7669 10.4287 17.4385C10.1687 17.9324 10.2083 18.5542 10.5797 19.0177C11.0675 18.6268 11.5725 18.222 12.001 17.8787C12.4294 18.222 12.9345 18.6268 13.4222 19.0177C13.7973 18.5496 13.8342 17.9199 13.5656 17.4236C15.9111 16.7355 17.6241 14.5678 17.6241 11.9996Z" fill="#F0F0F0" />
</svg>
