<svg xmlns="http://www.w3.org/2000/svg" viewBox="0 0 24 24">
    <path d="M19.0711 4.92893C22.9763 8.83417 22.9763 15.1658 19.0711 19.0711C15.1658 22.9763 8.83421 22.9763 4.92893 19.0711C1.02369 15.1658 1.02369 8.83421 4.92893 4.92893C8.83417 1.02369 15.1658 1.02369 19.0711 4.92893Z" fill="#F0F0F0" />
    <path d="M4.06791 5.91211C3.2824 6.9341 2.6901 8.11203 2.34521 9.39168H7.54748L4.06791 5.91211Z" fill="#0052B4" />
    <path d="M21.6563 9.39164C21.3114 8.11203 20.7191 6.9341 19.9336 5.91211L16.4541 9.39164H21.6563Z" fill="#0052B4" />
    <path d="M2.34521 14.6084C2.69014 15.888 3.28244 17.0659 4.06791 18.0879L7.54736 14.6084H2.34521Z" fill="#0052B4" />
    <path d="M18.0889 4.06746C17.0669 3.28195 15.889 2.68965 14.6094 2.34473V7.54695L18.0889 4.06746Z" fill="#0052B4" />
    <path d="M5.9126 19.9326C6.93459 20.7181 8.11252 21.3104 9.39213 21.6553V16.4531L5.9126 19.9326Z" fill="#0052B4" />
    <path d="M9.39209 2.34473C8.11248 2.68965 6.93455 3.28195 5.9126 4.06742L9.39209 7.54691V2.34473Z" fill="#0052B4" />
    <path d="M14.6094 21.6553C15.889 21.3104 17.0669 20.7181 18.0889 19.9326L14.6094 16.4531V21.6553Z" fill="#0052B4" />
    <path d="M16.4541 14.6084L19.9336 18.0879C20.7191 17.066 21.3114 15.888 21.6563 14.6084H16.4541Z" fill="#0052B4" />
    <path d="M21.9158 10.6957H13.3049H13.3049V2.08465C12.8779 2.02906 12.4426 2 12.0005 2C11.5583 2 11.1231 2.02906 10.6962 2.08465V10.6956V10.6956H2.08514C2.02955 11.1226 2.00049 11.5579 2.00049 12C2.00049 12.4421 2.02955 12.8774 2.08514 13.3043H10.6961H10.6961V21.9154C11.1231 21.9709 11.5583 22 12.0005 22C12.4426 22 12.8779 21.971 13.3048 21.9154V13.3044V13.3044H21.9158C21.9714 12.8774 22.0005 12.4421 22.0005 12C22.0005 11.5579 21.9714 11.1226 21.9158 10.6957Z" fill="#D80027" />
    <path d="M14.6094 14.6084L19.0717 19.0708C19.277 18.8656 19.4727 18.6511 19.6595 18.4288L15.8391 14.6084H14.6094V14.6084Z" fill="#D80027" />
    <path d="M9.39207 14.6084H9.39199L4.92969 19.0707C5.13484 19.2759 5.34934 19.4717 5.57168 19.6585L9.39207 15.838V14.6084Z" fill="#D80027" />
    <path d="M9.39195 9.39117V9.39109L4.92961 4.92871C4.72438 5.13387 4.52859 5.34836 4.3418 5.5707L8.16223 9.39113H9.39195V9.39117Z" fill="#D80027" />
    <path d="M14.6094 9.39102L19.0718 4.92859C18.8666 4.72336 18.6521 4.52758 18.4298 4.34082L14.6094 8.16125V9.39102Z" fill="#D80027" />
</svg>
