<svg xmlns="http://www.w3.org/2000/svg" viewBox="0 0 24 24">
    <path d="M19.0711 4.92893C22.9763 8.83417 22.9763 15.1658 19.0711 19.0711C15.1658 22.9763 8.83421 22.9763 4.92893 19.0711C1.02369 15.1658 1.02369 8.83421 4.92893 4.92893C8.83417 1.02369 15.1658 1.02369 19.0711 4.92893Z" fill="#F0F0F0" />
    <path d="M7.65283 15.4785L8.5224 21.3784C9.60568 21.7804 10.7774 22.0003 12.0006 22.0003C16.3003 22.0003 19.9657 19.2865 21.3786 15.4785H7.65283Z" fill="black" />
    <path d="M7.65283 8.52176L8.5224 2.62191C9.60568 2.21992 10.7774 2 12.0006 2C16.3003 2 19.9657 4.71375 21.3786 8.52176H7.65283Z" fill="#6DA544" />
    <path d="M2.00049 12.0001C2.00049 16.2997 4.71428 19.9652 8.52225 21.3781V2.62207C4.71428 4.035 2.00049 7.70043 2.00049 12.0001Z" fill="#A2001D" />
</svg>
