<svg xmlns="http://www.w3.org/2000/svg" viewBox="0 0 24 24">
    <path d="M19.0711 4.92893C22.9763 8.83417 22.9763 15.1658 19.0711 19.0711C15.1658 22.9763 8.83421 22.9763 4.92893 19.0711C1.02369 15.1658 1.02369 8.83421 4.92893 4.92893C8.83417 1.02369 15.1658 1.02369 19.0711 4.92893Z" fill="#F0F0F0" />
    <path d="M12.0005 9.39094H21.656C21.4053 8.4607 21.0242 7.5841 20.5328 6.78223H12.0005V9.39094Z" fill="#338AF3" />
    <path d="M5.77564 19.8265H18.2254C19.138 19.0996 19.9206 18.2167 20.5328 17.2178H3.46826C4.08041 18.2167 4.86307 19.0996 5.77564 19.8265Z" fill="#338AF3" />
    <path d="M12.0005 2C12.0005 2.86957 12.0005 4.17391 12.0005 4.17391H18.2254C16.5172 2.81344 14.354 2 12.0005 2Z" fill="#338AF3" />
    <path d="M12.0005 9.39094H21.656C21.4053 8.4607 21.0242 7.5841 20.5328 6.78223H12.0005V9.39094Z" fill="#338AF3" />
    <path d="M2.00049 12C2.00049 12.9026 2.1208 13.7769 2.34498 14.6087H21.656C21.8802 13.7769 22.0005 12.9026 22.0005 12H2.00049Z" fill="#338AF3" />
    <path d="M10.6965 7.85199L9.47516 8.42648L10.1255 9.6093L8.79934 9.35562L8.63129 10.6953L7.70762 9.70996L6.78387 10.6953L6.61586 9.35562L5.28969 9.60922L5.94 8.42645L4.71875 7.85199L5.94004 7.27758L5.28969 6.09477L6.61582 6.34844L6.78391 5.00879L7.70762 5.9941L8.63133 5.00879L8.79934 6.34844L10.1255 6.09477L9.47519 7.27762L10.6965 7.85199Z" fill="#FFDA44" />
</svg>
