<svg xmlns="http://www.w3.org/2000/svg" viewBox="0 0 24 24">
    <path d="M19.0711 4.92893C22.9763 8.83417 22.9763 15.1658 19.0711 19.0711C15.1658 22.9763 8.83421 22.9763 4.92893 19.0711C1.02369 15.1658 1.02369 8.83421 4.92893 4.92893C8.83417 1.02369 15.1658 1.02369 19.0711 4.92893Z" fill="#FCFCFC" />
    <path d="M13.6991 8.98645C13.6991 8.04848 12.9387 7.28809 12.0007 7.28809C11.0627 7.28809 10.3023 8.04848 10.3023 8.98645H6.56592C6.56592 9.90992 7.37037 10.6586 8.29385 10.6586H8.23822C8.23822 11.5822 8.98682 12.3309 9.91045 12.3309C9.91045 13.1486 10.4977 13.8281 11.2733 13.9733L11.269 13.9831H12.7324L12.7281 13.9733C13.5037 13.828 14.091 13.1486 14.091 12.3309C15.0146 12.3309 15.7632 11.5822 15.7632 10.6586H15.7075C16.631 10.6586 17.4354 9.90992 17.4354 8.98645H13.6991Z" fill="#FFDA44" />
    <path d="M11.2542 13.8096L10.2012 16.187C10.7568 16.4129 11.3641 16.5384 12.0009 16.5384C12.6376 16.5384 13.2449 16.4129 13.8005 16.187L12.7475 13.8096H11.2542Z" fill="#FFDA44" />
    <path d="M9.82666 9.82129V12.7467C9.82666 14.4107 12.0006 14.9206 12.0006 14.9206C12.0006 14.9206 14.1745 14.4107 14.1745 12.7467V9.82129H9.82666Z" fill="#F0F0F0" />
    <path d="M4.42553 12.0703L5.60127 15.3587L6.76479 12.0703H7.65275L5.95643 16.4181H5.24607L3.5376 12.0703H4.42553Z" fill="#338AF3" />
    <path d="M18.0874 16.4181V12.0703H18.9324V16.4181H18.0874Z" fill="#338AF3" />
    <path d="M10.6963 10.7656V14.3107C10.9952 14.5307 11.3167 14.682 11.5659 14.7788V10.7656H10.6963Z" fill="#D80027" />
    <path d="M13.3051 10.7656V14.3107C13.0062 14.5307 12.6847 14.682 12.4355 14.7788V10.7656H13.3051Z" fill="#D80027" />
    <path d="M9.82666 9.82129H14.1745V11.2008H9.82666V9.82129Z" fill="#0052B4" />
</svg>
