<svg xmlns="http://www.w3.org/2000/svg" viewBox="0 0 24 24">
    <path d="M2.47219 8.95629C2.16586 9.91598 1.99996 10.9384 2 11.9996C1.99996 13.061 2.1659 14.0834 2.47223 15.0431L12 15.478L21.5278 15.0432C21.8341 14.0835 22 13.061 22 11.9997C22 10.9384 21.8341 9.91598 21.5278 8.95625L12 8.52148L2.47219 8.95629Z" fill="#F0F0F0" />
    <path d="M21.5278 8.95625L12.0001 8.52148L2.47225 8.95625C2.38146 9.24078 2.3033 9.5309 2.23779 9.82582H21.7622C21.6967 9.53086 21.6186 9.2407 21.5278 8.95625Z" fill="#D80027" />
    <path d="M2.23779 14.1738C2.30322 14.4688 2.38139 14.7588 2.47217 15.0434L2.47311 15.0434L11.9999 15.4782L21.5277 15.0434C21.6185 14.7589 21.6966 14.4688 21.7621 14.1738H2.23779Z" fill="#D80027" />
    <path d="M11.9999 21.9995C16.4615 21.9995 20.24 19.0775 21.5277 15.043H2.47217C3.75986 19.0775 7.53846 21.9995 11.9999 21.9995Z" fill="#6DA544" />
    <path d="M11.9999 2C7.53846 2.00004 3.75994 4.92203 2.47217 8.95652L21.5277 8.95656C20.2401 4.92199 16.4615 1.99996 11.9999 2Z" fill="#338AF3" />
    <path d="M6.56996 6.13031C6.56996 5.19371 7.2282 4.41129 8.10723 4.21934C7.97215 4.1898 7.83195 4.17383 7.68797 4.17383C6.60742 4.17383 5.73145 5.04977 5.73145 6.13035C5.73145 7.21094 6.60734 8.08688 7.68797 8.08688C7.83195 8.08688 7.97211 8.07086 8.10723 8.04137C7.22824 7.84934 6.56996 7.06691 6.56996 6.13031Z" fill="#F0F0F0" />
    <path d="M9.26324 7.01953L9.39566 7.42715H9.82426L9.47754 7.6791L9.60996 8.08672L9.26324 7.8348L8.91645 8.08672L9.04891 7.6791L8.70215 7.42715H9.13074L9.26324 7.01953Z" fill="#F0F0F0" />
    <path d="M10.6313 7.01953L10.7638 7.42715H11.1924L10.8456 7.6791L10.9781 8.08672L10.6313 7.8348L10.2846 8.08672L10.417 7.6791L10.0703 7.42715H10.4989L10.6313 7.01953Z" fill="#F0F0F0" />
    <path d="M11.9996 7.01953L12.132 7.42715H12.5606L12.2139 7.6791L12.3463 8.08672L11.9996 7.8348L11.6528 8.08672L11.7853 7.6791L11.4385 7.42715H11.8671L11.9996 7.01953Z" fill="#F0F0F0" />
    <path d="M13.3672 7.01953L13.4997 7.42715H13.9283L13.5815 7.6791L13.714 8.08672L13.3672 7.8348L13.0204 8.08672L13.1529 7.6791L12.8062 7.42715H13.2347L13.3672 7.01953Z" fill="#F0F0F0" />
    <path d="M14.7353 7.01953L14.8678 7.42715H15.2964L14.9497 7.6791L15.0821 8.08672L14.7353 7.8348L14.3886 8.08672L14.521 7.6791L14.1743 7.42715H14.6029L14.7353 7.01953Z" fill="#F0F0F0" />
    <path d="M10.6313 5.59668L10.7638 6.00426H11.1924L10.8456 6.25625L10.9781 6.66383L10.6313 6.41191L10.2846 6.66383L10.417 6.25625L10.0703 6.00426H10.4989L10.6313 5.59668Z" fill="#F0F0F0" />
    <path d="M11.9996 5.59668L12.132 6.00426H12.5606L12.2139 6.25625L12.3463 6.66383L11.9996 6.41191L11.6528 6.66383L11.7853 6.25625L11.4385 6.00426H11.8671L11.9996 5.59668Z" fill="#F0F0F0" />
    <path d="M13.3672 5.59668L13.4997 6.00426H13.9283L13.5815 6.25625L13.714 6.66383L13.3672 6.41191L13.0204 6.66383L13.1529 6.25625L12.8062 6.00426H13.2347L13.3672 5.59668Z" fill="#F0F0F0" />
    <path d="M14.7353 5.59668L14.8678 6.00426H15.2964L14.9497 6.25625L15.0821 6.66383L14.7353 6.41191L14.3886 6.66383L14.521 6.25625L14.1743 6.00426H14.6029L14.7353 5.59668Z" fill="#F0F0F0" />
    <path d="M11.9996 4.17383L12.132 4.58148H12.5606L12.2139 4.8334L12.3463 5.24105L11.9996 4.98914L11.6528 5.24105L11.7853 4.8334L11.4385 4.58148H11.8671L11.9996 4.17383Z" fill="#F0F0F0" />
    <path d="M13.3672 4.17383L13.4997 4.58148H13.9283L13.5815 4.8334L13.714 5.24105L13.3672 4.98914L13.0204 5.24105L13.1529 4.8334L12.8062 4.58148H13.2347L13.3672 4.17383Z" fill="#F0F0F0" />
    <path d="M14.7353 4.17383L14.8678 4.58148H15.2964L14.9497 4.8334L15.0821 5.24105L14.7353 4.98914L14.3886 5.24105L14.521 4.8334L14.1743 4.58148H14.6029L14.7353 4.17383Z" fill="#F0F0F0" />
</svg>
