<svg xmlns="http://www.w3.org/2000/svg" viewBox="0 0 24 24">
    <path d="M22 11.9998C22 11.5577 21.9709 11.1224 21.9153 10.6955H10.6955C8.65254 8.65257 4.92876 4.92902 4.92892 4.92871C1.02369 8.83394 1.02369 15.1656 4.92892 19.0709L10.6957 13.3042H21.9153C21.9709 12.8772 22 12.4419 22 11.9998Z" fill="black" />
    <path d="M21.997 12.2275C21.9966 12.2468 21.9962 12.2662 21.9956 12.2855C21.9961 12.2661 21.9965 12.2468 21.997 12.2275Z" fill="#F0F0F0" />
    <path d="M21.9876 12.501C21.9867 12.5201 21.9854 12.5391 21.9844 12.5582C21.9854 12.5391 21.9866 12.5201 21.9876 12.501Z" fill="#F0F0F0" />
    <path d="M21.974 12.7188C21.972 12.7468 21.97 12.7749 21.9678 12.8029C21.97 12.7749 21.972 12.7468 21.974 12.7188Z" fill="#F0F0F0" />
    <path d="M21.9404 10.9102C21.9441 10.9436 21.9478 10.977 21.9511 11.0105C21.9478 10.977 21.9441 10.9436 21.9404 10.9102Z" fill="#F0F0F0" />
    <path d="M21.9844 11.4424C21.9854 11.4614 21.9867 11.4805 21.9876 11.4996C21.9867 11.4805 21.9854 11.4614 21.9844 11.4424Z" fill="#F0F0F0" />
    <path d="M21.9956 11.7148C21.9962 11.7341 21.9965 11.7535 21.997 11.7728C21.9966 11.7534 21.9961 11.7341 21.9956 11.7148Z" fill="#F0F0F0" />
    <path d="M21.9678 11.1973C21.97 11.2253 21.972 11.2534 21.974 11.2814C21.972 11.2534 21.97 11.2253 21.9678 11.1973Z" fill="#F0F0F0" />
    <path d="M21.9152 10.6956C21.9197 10.7299 21.9237 10.7643 21.9278 10.7986C21.3343 5.84233 17.1161 2 11.9999 2C9.23839 2 6.73835 3.11933 4.92871 4.92905L10.6953 10.6956H21.9152V10.6956Z" fill="#D80027" />
    <path d="M21.9152 13.3042H10.6953L4.92871 19.0708C6.73835 20.8805 9.23839 21.9999 11.9999 21.9999C17.1161 21.9999 21.3343 18.1575 21.9278 13.2012C21.9237 13.2355 21.9196 13.27 21.9152 13.3042Z" fill="#6DA544" />
    <path d="M21.9511 12.9893C21.9478 13.0228 21.9441 13.0562 21.9404 13.0896C21.9441 13.0562 21.9478 13.0228 21.9511 12.9893Z" fill="#F0F0F0" />
    <path d="M21.9741 11.2812C21.9779 11.3347 21.9813 11.3883 21.9843 11.442C21.9813 11.3883 21.9779 11.3347 21.9741 11.2812Z" fill="black" />
    <path d="M21.9277 10.7988C21.9322 10.8359 21.9365 10.873 21.9405 10.9102C21.9364 10.873 21.9321 10.8359 21.9277 10.7988Z" fill="black" />
    <path d="M21.9512 11.0107C21.9573 11.0728 21.9628 11.135 21.9677 11.1975C21.9628 11.135 21.9573 11.0728 21.9512 11.0107Z" fill="black" />
    <path d="M21.9999 12C21.9999 12.0761 21.9987 12.1518 21.9971 12.2274C21.9987 12.1518 21.9999 12.076 21.9999 12Z" fill="black" />
    <path d="M21.9843 12.5576C21.9813 12.6113 21.9779 12.6649 21.9741 12.7184C21.9779 12.6649 21.9813 12.6113 21.9843 12.5576Z" fill="black" />
    <path d="M21.9677 12.8027C21.9628 12.8651 21.9573 12.9274 21.9512 12.9894C21.9573 12.9274 21.9628 12.8651 21.9677 12.8027Z" fill="black" />
    <path d="M21.9405 13.0898C21.9365 13.127 21.9322 13.1641 21.9277 13.2012C21.9321 13.1642 21.9364 13.127 21.9405 13.0898Z" fill="black" />
    <path d="M21.9971 11.7725C21.9987 11.8481 21.9999 11.9239 21.9999 11.9998C21.9999 11.9239 21.9987 11.8481 21.9971 11.7725Z" fill="black" />
    <path d="M21.9873 11.499C21.9908 11.5706 21.9935 11.6424 21.9955 11.7144C21.9935 11.6424 21.9909 11.5706 21.9873 11.499Z" fill="black" />
    <path d="M21.9955 12.2852C21.9935 12.3571 21.9908 12.4289 21.9873 12.5005C21.9909 12.4289 21.9935 12.3571 21.9955 12.2852Z" fill="black" />
    <path d="M21.9902 11.5619H10.3279L4.33744 5.57227C4.14381 5.77648 3.93393 6.06164 3.80412 6.26472L9.53297 11.9966L3.79932 17.7304C3.91283 17.9323 4.16014 18.2312 4.33377 18.4257L10.328 12.4314H21.9916C21.9978 12.2872 21.9998 12.1424 21.9998 11.9967C21.9997 11.8014 21.9943 11.6575 21.9902 11.5619Z" fill="#FFDA44" />
    <path d="M4.42896 14.1315V13.2939C5.26482 13.2939 5.94478 12.6139 5.94478 11.7781C5.94478 11.1867 5.46365 10.7056 4.87232 10.7056C4.46947 10.7056 4.1417 11.0334 4.1417 11.4363C4.1417 11.6939 4.35127 11.9035 4.60892 11.9035C4.75455 11.9035 4.87302 11.785 4.87302 11.6393H5.7106C5.7106 12.2469 5.21638 12.7411 4.60896 12.7411C3.88947 12.7411 3.3042 12.1557 3.3042 11.4364C3.3042 10.5716 4.00771 9.86816 4.87236 9.86816C5.92556 9.86816 6.78243 10.725 6.78243 11.7782C6.78239 13.0757 5.72665 14.1315 4.42896 14.1315Z" fill="#FFDA44" />
</svg>
