<svg xmlns="http://www.w3.org/2000/svg" viewBox="0 0 24 24">
    <path d="M12.0001 2C17.5229 2 22.0001 6.47719 22.0001 12C22.0001 17.5228 17.5229 22 12.0001 22C12.0001 21.5652 10.6958 12 10.6958 12L12.0001 2Z" fill="#F0F0F0" />
    <path d="M12 22C6.47719 22 2 17.5228 2 12C2 6.47719 6.47719 2 12 2" fill="#FFDA44" />
    <path d="M15.8295 10.7019L17.7088 13.1881C17.4127 13.6364 17.4143 14.2405 17.7568 14.6935C18.1911 15.2682 19.0091 15.3819 19.5838 14.9475C20.1585 14.5131 20.2722 13.6951 19.8378 13.1205C19.4954 12.6675 18.9146 12.5012 18.4025 12.6638L15.4736 8.78906L14.7799 9.31344L13.7393 10.0999L14.788 11.4872L15.8295 10.7019ZM18.5351 13.5601C18.7266 13.4153 18.9993 13.4532 19.1441 13.6447C19.2889 13.8363 19.2511 14.109 19.0595 14.2538C18.868 14.3986 18.5953 14.3607 18.4505 14.1691C18.3056 13.9776 18.3436 13.7049 18.5351 13.5601Z" fill="#ACABB1" />
    <path d="M19.0529 11.4873L20.1016 10.1L19.0611 9.31344L18.3674 8.78906L15.4385 12.6638C14.9264 12.5012 14.3456 12.6675 14.0032 13.1205C13.5687 13.6952 13.6825 14.5131 14.2571 14.9475C14.8318 15.3819 15.6498 15.2682 16.0842 14.6935C16.4266 14.2405 16.4282 13.6364 16.1321 13.1881L18.0114 10.7019L19.0529 11.4873ZM15.3905 14.1692C15.2457 14.3608 14.9731 14.3987 14.7815 14.2539C14.59 14.1091 14.5521 13.8364 14.6969 13.6448C14.8416 13.4533 15.1143 13.4154 15.3059 13.5602C15.4975 13.705 15.5353 13.9777 15.3905 14.1692Z" fill="#FFDA44" />
</svg>
