<svg xmlns="http://www.w3.org/2000/svg" viewBox="0 0 24 24">
    <path d="M21.0077 16.3474C21.6435 15.0327 22 13.5579 22 11.9996C22 10.4414 21.6435 8.96648 21.0077 7.6518L12 6.78223L2.99227 7.6518C2.35652 8.96648 2 10.4414 2 11.9996C2 13.5579 2.35652 15.0327 2.99227 16.3474L12 17.217L21.0077 16.3474Z" fill="#0052B4" />
    <path d="M11.9999 21.9998C15.9645 21.9998 19.3902 19.6926 21.0077 16.3477H2.99219C4.60969 19.6926 8.03531 21.9998 11.9999 21.9998Z" fill="#D80027" />
    <path d="M19.3188 13.9629L18.7906 14.3757L19.0199 15.0054L18.4641 14.6307L17.9359 15.0433L18.1206 14.399L17.5649 14.0241L18.2348 14.0008L18.4197 13.3564L18.649 13.9863L19.3188 13.9629Z" fill="#F0F0F0" />
    <path d="M17.9664 11.6209L17.6113 12.1893L18.0422 12.7027L17.3918 12.5407L17.0365 13.1091L16.9897 12.4404L16.3394 12.2782L16.9609 12.0271L16.9142 11.3584L17.345 11.872L17.9664 11.6209Z" fill="#F0F0F0" />
    <path d="M15.8945 9.88184L15.7552 10.5375L16.3356 10.8727L15.669 10.9429L15.5297 11.5984L15.257 10.9861L14.5903 11.0561L15.0885 10.6076L14.8159 9.99531L15.3964 10.3304L15.8945 9.88184Z" fill="#F0F0F0" />
    <path d="M13.3522 8.95605L13.4456 9.61984L14.1056 9.73617L13.5032 10.0302L13.5965 10.6939L13.1309 10.2117L12.5283 10.5055L12.8431 9.91363L12.3774 9.43152L13.0376 9.54789L13.3522 8.95605Z" fill="#F0F0F0" />
    <path d="M10.6474 8.95605L10.9622 9.54789L11.6222 9.43145L11.1567 9.91375L11.4712 10.5056L10.8688 10.2117L10.4031 10.6938L10.4965 10.0302L9.89404 9.73633L10.5542 9.61984L10.6474 8.95605Z" fill="#F0F0F0" />
    <path d="M8.1056 9.88184L8.60381 10.3304L9.18416 9.99531L8.91162 10.6078L9.40971 11.0563L8.74311 10.9861L8.47037 11.5984L8.33119 10.9428L7.66455 10.8728L8.24502 10.5376L8.1056 9.88184Z" fill="#F0F0F0" />
    <path d="M6.03359 11.6207L6.6552 11.8718L7.0859 11.3584L7.0393 12.0272L7.6607 12.2783L7.01035 12.4404L6.96352 13.1089L6.60844 12.5406L5.95801 12.7027L6.38887 12.1892L6.03359 11.6207Z" fill="#F0F0F0" />
    <path d="M4.68115 13.9629L5.35115 13.9862L5.58029 13.3564L5.76525 14.0008L6.43506 14.0242L5.87936 14.3991L6.06404 15.0434L5.53592 14.6307L4.98018 15.0054L5.20943 14.3756L4.68115 13.9629Z" fill="#F0F0F0" />
    <path d="M21.0077 7.65219C19.3902 4.30723 15.9645 2 11.9999 2C8.03531 2 4.60969 4.30723 2.99219 7.65219H21.0077Z" fill="#FFDA44" />
</svg>
