<svg xmlns="http://www.w3.org/2000/svg" viewBox="0 0 24 24">
    <path d="M19.0711 4.92893C22.9763 8.83417 22.9763 15.1658 19.0711 19.0711C15.1658 22.9763 8.83421 22.9763 4.92893 19.0711C1.02369 15.1658 1.02369 8.83421 4.92893 4.92893C8.83417 1.02369 15.1658 1.02369 19.0711 4.92893Z" fill="#F0F0F0" />
    <path d="M22.0005 12C22.0005 17.5228 17.5233 22 12.0005 22C6.47768 22 2.00049 17.5228 2.00049 12" fill="#496E2D" />
    <path d="M19.306 8.95906C18.9484 7.94488 17.9821 7.21777 16.8456 7.21777H14.6095C13.1687 7.21777 12.0008 8.38574 12.0008 9.82648C12.0008 10.2972 12.1261 10.7496 12.3442 11.1308C11.5138 11.124 10.7453 11.1366 10.2616 11.1308C10.2616 10.1247 10.2616 8.84309 10.2616 8.57492L10.3644 8.47219C10.8255 8.01102 10.6717 7.24242 10.6717 7.24242C10.6717 7.24242 9.90322 7.08871 9.44205 7.54988L8.90459 8.08734H8.3051C6.98439 8.08734 5.91381 9.15797 5.91381 10.4786H7.65295V12.4352C7.65295 12.7213 7.71064 12.9939 7.8149 13.2422L7.21814 13.7395H6.34857V12.8699H5.479V14.6091H9.39205V16.3482H8.52248V17.2178H10.2616V15.4786L11.0587 14.5221H12.9428L13.7399 15.4786V16.3482H12.8703V17.2178H16.3485V12.4351C16.3485 11.7148 16.9325 11.1308 17.6529 11.1308C17.6714 11.1308 17.6897 11.1314 17.7081 11.1322C17.6721 10.9928 17.6529 10.8467 17.6529 10.696C17.6529 9.76441 18.3855 9.00395 19.306 8.95906ZM14.6095 16.3482V14.5221H14.6819L15.479 15.4786V16.3482H14.6095Z" fill="#D80027" />
</svg>
