<svg xmlns="http://www.w3.org/2000/svg" viewBox="0 0 24 24">
    <path d="M2.99227 7.6518C2.35656 8.96648 2 10.4414 2 11.9996C2 13.5579 2.35656 15.0327 2.99227 16.3474L12 17.217L21.0077 16.3474C21.6434 15.0327 22 13.5579 22 11.9996C22 10.4414 21.6434 8.96648 21.0077 7.6518L12 6.78223L2.99227 7.6518Z" fill="#F0F0F0" />
    <path d="M2.99268 16.3477C4.6101 19.6926 8.03549 21.9998 12.0001 21.9998C15.9646 21.9998 19.39 19.6926 21.0074 16.3477H2.99268Z" fill="#496E2D" />
    <path d="M2.99268 7.65219H21.0074C19.39 4.30723 15.9647 2 12.0001 2C8.03545 2 4.6101 4.30723 2.99268 7.65219Z" fill="black" />
    <path d="M4.92893 4.92871C1.02369 8.83395 1.02369 15.1656 4.92893 19.0709C6.54271 17.4571 8.09478 15.905 12 11.9998L4.92893 4.92871Z" fill="#D80027" />
    <path d="M14.6086 11.9995C14.6086 10.5426 15.6325 9.32543 16.9999 9.02684C16.7897 8.98094 16.5717 8.95605 16.3477 8.95605C14.6668 8.95605 13.3042 10.3186 13.3042 11.9995C13.3042 13.6804 14.6668 15.043 16.3477 15.043C16.5716 15.043 16.7897 15.0181 16.9999 14.9722C15.6325 14.6736 14.6086 13.4565 14.6086 11.9995Z" fill="#D80027" />
    <path d="M17.1279 10.0439L17.5597 11.3726H18.9566L17.8264 12.1936L18.2581 13.5222L17.1279 12.7011L15.9978 13.5222L16.4296 12.1936L15.2993 11.3726H16.6962L17.1279 10.0439Z" fill="#D80027" />
</svg>
