<svg xmlns="http://www.w3.org/2000/svg" viewBox="0 0 24 24">
    <path d="M19.0711 4.92893C22.9763 8.83417 22.9763 15.1658 19.0711 19.0711C15.1658 22.9763 8.83421 22.9763 4.92893 19.0711C1.02369 15.1658 1.02369 8.83421 4.92893 4.92893C8.83417 1.02369 15.1658 1.02369 19.0711 4.92893Z" fill="#496E2D" />
    <path d="M15.9135 12H12.0005V22C13.1694 22 14.2912 21.7988 15.3338 21.4302L15.9135 12Z" fill="#D80027" />
    <path d="M18.6671 19.4529C20.7127 17.6218 22.0004 14.9614 22.0004 12H18.0874L18.6671 19.4529Z" fill="#FF9811" />
    <path d="M15.334 12V21.4302C16.5761 20.9911 17.7055 20.3138 18.6673 19.4529V12H15.334Z" fill="black" />
    <path d="M20.479 8.52191H17.8703C17.8703 8.04168 17.481 7.65234 17.0007 7.65234C16.5205 7.65234 16.1312 8.04168 16.1312 8.52191H13.5225C13.5225 9.00219 13.9408 9.39148 14.421 9.39148H14.392C14.392 9.87176 14.7813 10.2611 15.2616 10.2611C15.2616 10.7413 15.6509 11.1306 16.1312 11.1306H17.8703C18.3505 11.1306 18.7399 10.7413 18.7399 10.2611C19.2201 10.2611 19.6095 9.87176 19.6095 9.39148H19.5805C20.0607 9.39145 20.479 9.00215 20.479 8.52191Z" fill="#FF9811" />
</svg>
