<svg xmlns="http://www.w3.org/2000/svg" viewBox="0 0 24 24">
    <path d="M19.0711 4.92893C22.9763 8.83417 22.9763 15.1658 19.0711 19.0711C15.1658 22.9763 8.83421 22.9763 4.92893 19.0711C1.02369 15.1658 1.02369 8.83421 4.92893 4.92893C8.83417 1.02369 15.1658 1.02369 19.0711 4.92893Z" fill="#F0F0F0" />
    <path d="M21.0437 7.7266C20.5356 6.6534 19.8422 5.68531 19.0047 4.86324L12.0008 4.17383L4.99691 4.86328C4.97457 4.8852 4.95277 4.90762 4.93066 4.92977L7.72754 7.72664L12.0008 7.85715L21.0437 7.7266Z" fill="#FFDA44" />
    <path d="M4.93018 19.0703C4.96697 19.1071 5.00369 19.1439 5.04104 19.1802L12.0004 19.8261L18.9598 19.1802C19.8059 18.3599 20.5078 17.3917 21.023 16.3168L8.08736 15.9131C6.97436 17.0261 5.69061 18.3098 4.93018 19.0703Z" fill="#FFDA44" />
    <path d="M21.9014 10.5899L10.2617 10.2607L12.0009 11.9999C11.4857 12.515 10.7168 13.284 10.2617 13.739L21.8953 13.4533C21.9645 12.9788 22.0009 12.4936 22.0009 11.9999C22.0009 11.5212 21.9665 11.0507 21.9014 10.5899Z" fill="black" />
    <path d="M12.0005 2C9.27283 2 6.80072 3.09258 4.99658 4.86336H19.0044C17.2003 3.09258 14.7281 2 12.0005 2Z" fill="#6DA544" />
    <path d="M10.5909 10.5899H21.9014C21.7587 9.57902 21.4651 8.61676 21.0437 7.72656H7.72754L10.5909 10.5899Z" fill="#D80027" />
    <path d="M7.68408 16.3165H21.0235C21.4498 15.427 21.7481 14.4646 21.8954 13.4531H10.5474C9.43857 14.562 8.49881 15.5018 7.68408 16.3165Z" fill="#D80027" />
    <path d="M12.0008 21.9996C14.7061 21.9996 17.16 20.9249 18.9602 19.1797H5.0415C6.84166 20.9249 9.29557 21.9996 12.0008 21.9996Z" fill="#6DA544" />
    <path d="M5.57168 4.34082C5.34937 4.52762 5.13488 4.72344 4.92969 4.92855L12.0008 11.9996L4.92969 19.0707C5.13484 19.2759 5.34937 19.4717 5.57168 19.6585L13.2305 11.9996L5.57168 4.34082Z" fill="black" />
    <path d="M6.02121 9.3916L6.66867 11.3844H8.76418L7.06894 12.6161L7.71644 14.609L6.02121 13.3773L4.32594 14.609L4.97352 12.6161L3.27832 11.3844H5.37371L6.02121 9.3916Z" fill="#D80027" />
    <path d="M7.80219 12.1631L6.11477 11.5653C6.11477 11.5653 5.99008 10.3957 5.98254 10.356C5.92527 10.0543 5.66016 9.82617 5.3418 9.82617C4.98164 9.82617 4.68961 10.1182 4.68961 10.4784C4.68961 10.5381 4.69832 10.5956 4.71336 10.6506L4.24023 11.1269C4.24023 11.1269 4.80219 11.1269 5.08148 11.1269C5.08148 12.0001 4.42992 12.0001 4.42992 12.8696L4.79137 13.7392H6.96527L7.32762 12.8696H7.32746C7.36375 12.7862 7.38578 12.7002 7.39488 12.6142C7.70723 12.4879 7.80219 12.1631 7.80219 12.1631Z" fill="#FFDA44" />
</svg>
