<svg xmlns="http://www.w3.org/2000/svg" viewBox="0 0 24 24">
    <path d="M12.7837 3.43C13.4905 3.14911 14.2439 3.00325 15.0045 3C17.5478 3.00301 19.8132 4.608 20.6585 7.00585C21.5038 9.40369 20.7455 12.0738 18.7659 13.67C17.1586 15.0081 15.6512 15.1695 14.292 15.315C13.0711 15.4457 11.9698 15.5636 11.023 16.51C10.6797 16.8507 10.1258 16.8507 9.78255 16.51L9.70252 16.43L8.15194 18C7.89697 18.2656 7.80858 18.6497 7.92185 19C7.97542 19.1612 8.00244 19.3301 8.00188 19.5C8.00188 20.3284 7.33006 21 6.50132 21C5.67258 21 5.00075 20.3284 5.00075 19.5C4.99543 19.2261 4.77458 19.0053 4.50056 19C3.67183 19 3 18.3284 3 17.5C3 16.6716 3.67183 16 4.50056 16C4.67053 15.9994 4.83945 16.0265 5.00075 16.08C5.35114 16.1932 5.73543 16.1049 6.00113 15.85L7.57172 14.32L7.49169 14.24C7.15089 13.8969 7.15089 13.3431 7.49169 13C8.44449 12.0523 8.5617 10.9452 8.69163 9.71801C8.8359 8.35539 8.99584 6.84476 10.3328 5.24C10.9781 4.43363 11.823 3.80971 12.7837 3.43ZM17.4854 12.14C17.6081 12.0436 17.725 11.9401 17.8356 11.83C19.3991 10.267 19.3991 7.73297 17.8356 6.17C16.272 4.60703 13.737 4.60703 12.1735 6.17C12.0734 6.27 11.9834 6.37 11.8833 6.49C11.1102 7.46283 10.6873 8.66757 10.6829 9.91C10.629 11.1817 10.265 12.421 9.62249 13.52L10.4828 14.38C11.5822 13.7378 12.822 13.3739 14.0942 13.32C15.3251 13.3184 16.5196 12.9028 17.4854 12.14Z" fill="currentColor" fill-rule="evenodd" clip-rule="evenodd" />
</svg>
