<svg xmlns="http://www.w3.org/2000/svg" viewBox="0 0 24 24">
    <path d="M21 17H21.5C21.7761 17 22 17.2239 22 17.5V18.5C22 18.7761 21.7761 19 21.5 19H2.5C2.22386 19 2 18.7761 2 18.5V17.5C2 17.2239 2.22386 17 2.5 17H3V16C3.00217 11.418 6.44641 7.56911 11 7.06V5.5C11 5.22386 11.2239 5 11.5 5H12.5C12.7761 5 13 5.22386 13 5.5V7.06C17.5536 7.56911 20.9978 11.418 21 16V17ZM12 9C8.13401 9 5 12.134 5 16V17H19V16C19 12.134 15.866 9 12 9Z" fill="currentColor" fill-rule="evenodd" clip-rule="evenodd" />
</svg>
