<svg xmlns="http://www.w3.org/2000/svg" viewBox="0 0 24 24">
    <path d="M20.7557 3.48L20.4961 3.22C20.3582 3.08173 20.1719 3.0028 19.9768 3H19.7671L3.71884 7.72C3.27818 7.84831 2.98157 8.26083 2.99982 8.72V8.79C2.99982 12.32 11.1687 21 15.2332 21H15.3031C15.7617 21.0183 16.1736 20.7213 16.3018 20.28L20.9754 4.22C21.0443 3.95163 20.9598 3.66709 20.7557 3.48ZM14.8338 18C11.9876 16.85 7.2141 11.87 5.99575 9.14L13.0961 7.06C13.3652 7.72439 14.0663 8.10519 14.7692 7.96879C15.4721 7.8324 15.9804 7.21697 15.9822 6.5C15.992 6.41027 15.992 6.31973 15.9822 6.23L18.5287 5.48L14.8338 18ZM10.989 12C10.989 10.8954 11.8832 10 12.9863 10C14.0893 10 14.9835 10.8954 14.9835 12C14.9835 13.1046 14.0893 14 12.9863 14C11.8832 14 10.989 13.1046 10.989 12Z" fill="currentColor" fill-rule="evenodd" clip-rule="evenodd" />
</svg>
