<svg xmlns="http://www.w3.org/2000/svg" viewBox="0 0 24 24">
    <path d="M3.99854 11.9998C3.99854 11.8672 4.05338 11.7405 4.15005 11.6498L10.9401 4.85981C11.0339 4.76516 11.1617 4.71191 11.2951 4.71191C11.4284 4.71191 11.5562 4.76516 11.6501 4.85981L11.8501 5.05981C11.9477 5.15389 12.002 5.28423 12.0001 5.41981V8.99981H19.5001C19.7762 8.99981 20.0001 9.22367 20.0001 9.49981V14.4998C20.0001 14.776 19.7762 14.9998 19.5001 14.9998H12.0001V18.5798C12.002 18.7154 11.9477 18.8457 11.8501 18.9398L11.6501 19.1398C11.5562 19.2345 11.4284 19.2877 11.2951 19.2877C11.1617 19.2877 11.0339 19.2345 10.9401 19.1398L4.15005 12.3498C4.05338 12.2591 3.99854 12.1324 3.99854 11.9998ZM10.0001 13.4998C10.0001 13.2237 10.2239 12.9998 10.5001 12.9998H18.0001V10.9998H10.5001C10.2239 10.9998 10.0001 10.776 10.0001 10.4998V8.61981L6.62005 11.9998L10.0001 15.3798V13.4998Z" fill="currentColor" fill-rule="evenodd" clip-rule="evenodd" />
</svg>
