<svg xmlns="http://www.w3.org/2000/svg" viewBox="0 0 24 24">
    <path d="M4.85996 11.6501C4.76424 11.5547 4.71029 11.4252 4.70996 11.2901C4.71073 11.1579 4.76482 11.0317 4.85996 10.9401L11.65 4.15005C11.7407 4.05338 11.8674 3.99854 12 3.99854C12.1325 3.99854 12.2592 4.05338 12.35 4.15005L19.14 10.9401C19.2351 11.0317 19.2892 11.1579 19.29 11.2901C19.2896 11.4252 19.2357 11.5547 19.14 11.6501L18.94 11.8501C18.8459 11.9477 18.7155 12.002 18.58 12.0001H15V19.5001C15 19.7762 14.7761 20.0001 14.5 20.0001H9.49996C9.22382 20.0001 8.99996 19.7762 8.99996 19.5001V12.0001H5.41996C5.28438 12.002 5.15404 11.9477 5.05996 11.8501L4.85996 11.6501ZM10.5 10.0001C10.7761 10.0001 11 10.2239 11 10.5001V18.0001H13V10.5001C13 10.2239 13.2238 10.0001 13.5 10.0001H15.38L12 6.62005L8.61996 10.0001H10.5Z" fill="currentColor" fill-rule="evenodd" clip-rule="evenodd" />
</svg>
