<svg xmlns="http://www.w3.org/2000/svg" viewBox="0 0 24 24">
    <path d="M12.79 1.29L22.71 11.21C22.8947 11.3963 22.9989 11.6477 23 11.91V12.09C22.9989 12.3523 22.8947 12.6037 22.71 12.79L12.79 22.71C12.6037 22.8947 12.3523 22.9989 12.09 23H11.91C11.6477 22.9989 11.3963 22.8947 11.21 22.71L1.29 12.79C1.10526 12.6037 1.0011 12.3523 1 12.09V11.91C1.0011 11.6477 1.10526 11.3963 1.29 11.21L11.21 1.29C11.3963 1.10526 11.6477 1.0011 11.91 1H12.09C12.3523 1.0011 12.6037 1.10526 12.79 1.29ZM14.86 14.35L17.86 11.35C18.0426 11.1509 18.0382 10.8438 17.85 10.65L14.85 7.65C14.7071 7.50994 14.4946 7.46851 14.3096 7.54468C14.1246 7.62086 14.0028 7.79996 14 8V10H8C7.44772 10 7 10.4477 7 11V14.5C7 14.7761 7.22386 15 7.5 15H8.5C8.77614 15 9 14.7761 9 14.5V12H14V14C13.9988 14.2045 14.1221 14.3891 14.3115 14.4661C14.5009 14.5432 14.7181 14.4972 14.86 14.35Z" fill="currentColor" fill-rule="evenodd" clip-rule="evenodd" />
</svg>
