<svg xmlns="http://www.w3.org/2000/svg" viewBox="0 0 24 24">
    <path d="M19.93 11H21.5C21.7761 11 22 11.2239 22 11.5V12.5C22 12.7761 21.7761 13 21.5 13H19.93C19.8285 13.876 19.5782 14.7282 19.19 15.52L17.67 14C17.8974 13.3581 18.0091 12.6809 18 12C18 10.4087 17.3679 8.88258 16.2426 7.75736C15.1174 6.63214 13.5913 6 12 6C11.3191 5.99091 10.6419 6.10264 10 6.33L8.52 4.81C9.29935 4.42607 10.1377 4.17592 11 4.07V2.5C11 2.22386 11.2239 2 11.5 2H12.5C12.7761 2 13 2.22386 13 2.5V4.07C16.6202 4.52909 19.4709 7.37981 19.93 11ZM4.38 3.15C4.28927 3.05332 4.16259 2.99848 4.03 2.99848C3.89741 2.99848 3.77073 3.05332 3.68 3.15L3.15 3.68C3.05332 3.77073 2.99848 3.89741 2.99848 4.03C2.99848 4.16259 3.05332 4.28927 3.15 4.38L5.77 7C4.83769 8.14648 4.24838 9.5331 4.07 11H2.5C2.22386 11 2 11.2239 2 11.5V12.5C2 12.7761 2.22386 13 2.5 13H4.07C4.52909 16.6202 7.37981 19.4709 11 19.93V21.5C11 21.7761 11.2239 22 11.5 22H12.5C12.7761 22 13 21.7761 13 21.5V19.93C14.4669 19.7516 15.8535 19.1623 17 18.23L19.63 20.85C19.7207 20.9467 19.8474 21.0015 19.98 21.0015C20.1126 21.0015 20.2393 20.9467 20.33 20.85L20.86 20.32C20.9567 20.2293 21.0115 20.1026 21.0115 19.97C21.0115 19.8374 20.9567 19.7107 20.86 19.62L4.38 3.15ZM12 18C8.68629 18 6 15.3137 6 12C5.99782 10.7122 6.41561 9.4589 7.19 8.43L15.57 16.81C14.5411 17.5844 13.2878 18.0022 12 18Z" fill="currentColor" fill-rule="evenodd" clip-rule="evenodd" />
</svg>
