<svg xmlns="http://www.w3.org/2000/svg" viewBox="0 0 24 24">
    <path d="M20.9978 19.795C20.9978 19.6617 20.9445 19.5339 20.8499 19.44L17.6899 16.27L19.1099 14.85C19.2512 14.7058 19.2919 14.4909 19.2132 14.305C19.1345 14.1191 18.9517 13.9988 18.7499 14H14.4999C14.2281 14.0103 14.0101 14.2282 13.9999 14.5V18.75C13.9986 18.9544 14.122 19.1391 14.3114 19.2161C14.5008 19.2932 14.718 19.2472 14.8599 19.1L16.2799 17.68L19.4399 20.85C19.5338 20.9446 19.6616 20.9979 19.7949 20.9979C19.9282 20.9979 20.056 20.9446 20.1499 20.85L20.8499 20.15C20.9445 20.0561 20.9978 19.9283 20.9978 19.795Z" fill="currentColor" />
    <path d="M3.00195 19.795C3.00195 19.6617 3.0552 19.5339 3.14985 19.44L6.30985 16.27L4.88985 14.85C4.74855 14.7058 4.70778 14.4909 4.78651 14.305C4.86523 14.1191 5.048 13.9988 5.24985 14H9.49985C9.77163 14.0103 9.98959 14.2282 9.99985 14.5V18.75C10.0011 18.9544 9.87772 19.1391 9.68834 19.2161C9.49896 19.2932 9.28174 19.2472 9.13985 19.1L7.71985 17.68L4.55985 20.85C4.46597 20.9446 4.33817 20.9979 4.20485 20.9979C4.07153 20.9979 3.94374 20.9446 3.84985 20.85L3.14985 20.15C3.0552 20.0561 3.00195 19.9283 3.00195 19.795Z" fill="currentColor" />
    <path d="M19.7949 3.00208C19.6616 3.00208 19.5338 3.05532 19.4399 3.14997L16.2699 6.30997L14.8499 4.88997C14.7057 4.74867 14.4907 4.70791 14.3049 4.78663C14.119 4.86535 13.9987 5.04812 13.9999 5.24997V9.49997C14.0101 9.77175 14.2281 9.98971 14.4999 9.99997H18.7499C18.9543 10.0012 19.1389 9.87784 19.216 9.68846C19.2931 9.49908 19.2471 9.28186 19.0999 9.13997L17.6799 7.71997L20.8499 4.55997C20.9445 4.46609 20.9978 4.33829 20.9978 4.20497C20.9978 4.07166 20.9445 3.94386 20.8499 3.84997L20.1499 3.14997C20.056 3.05532 19.9282 3.00208 19.7949 3.00208Z" fill="currentColor" />
    <path d="M4.20485 3.00208C4.33817 3.00208 4.46597 3.05532 4.55985 3.14997L7.72985 6.30997L9.14985 4.88997C9.29401 4.74867 9.50898 4.70791 9.69486 4.78663C9.88073 4.86535 10.001 5.04812 9.99985 5.24997V9.49997C9.98959 9.77175 9.77163 9.98971 9.49985 9.99997H5.24985C5.0454 10.0012 4.86079 9.87784 4.78371 9.68846C4.70664 9.49908 4.75264 9.28186 4.89985 9.13997L6.31985 7.71997L3.14985 4.55997C3.0552 4.46609 3.00195 4.33829 3.00195 4.20497C3.00195 4.07166 3.0552 3.94386 3.14985 3.84997L3.84985 3.14997C3.94374 3.05532 4.07153 3.00208 4.20485 3.00208Z" fill="currentColor" />
</svg>
