<svg xmlns="http://www.w3.org/2000/svg" viewBox="0 0 24 24">
    <path d="M15.2195 3.34283L14.6747 4.601C14.5198 4.9583 14.4751 5.36168 14.5474 5.75029L15.183 9.19389C15.2775 9.73496 15.5183 10.2328 15.8738 10.6227L16.752 11.5868C16.9095 11.7578 16.9988 11.9904 17.0002 12.2332L16.9953 12.7692C16.9951 12.9765 16.932 13.1673 16.8258 13.3201L9.39742 5.89168L9.42972 5.71339C9.50061 5.32509 9.45447 4.92151 9.29824 4.56354L8.74893 3.303C8.62615 3.01957 8.64406 2.68739 8.79636 2.42301C8.94866 2.15864 9.21409 1.99898 9.49952 2.00007L14.4407 2.01076C14.737 1.99699 15.0181 2.1575 15.1787 2.43203C15.3392 2.70656 15.3547 3.05358 15.2195 3.34283Z" fill="currentColor" />
    <path d="M8.42974 10.1673L2.54474 4.28227C2.28912 4.02665 2.28912 3.61222 2.54474 3.3566L3.16185 2.73949C3.41747 2.48388 3.8319 2.48388 4.08752 2.73949L20.9749 19.6269C21.2305 19.8825 21.2305 20.2969 20.9749 20.5525L20.3578 21.1696C20.1022 21.4253 19.6877 21.4253 19.4321 21.1696L11.928 13.6656L7.85575 13.6536C7.39824 13.6511 7.02697 13.2435 7.0247 12.7412L7.00018 12.1857C7.00064 11.9429 7.08912 11.7108 7.24608 11.5404L8.12081 10.58C8.23643 10.4533 8.33976 10.3149 8.42974 10.1673Z" fill="currentColor" />
    <path d="M10.9672 20.0475C10.8362 19.7058 10.7695 19.3387 10.7711 18.9685L10.7644 15.1969L13.188 15.2538L13.1947 19.0125C13.1977 19.3827 13.1323 19.7495 13.0025 20.0906L12.3643 21.7232C12.2993 21.8913 12.1491 22.0003 11.9825 22.0001C11.8158 21.9996 11.6652 21.89 11.5996 21.7215L10.9672 20.0475Z" fill="currentColor" />
</svg>
