<svg xmlns="http://www.w3.org/2000/svg" viewBox="0 0 24 24">
    <path d="M18.8735 9.69396L20.3078 9.18396C20.6461 9.07517 20.901 8.79382 20.9769 8.44553C21.0529 8.09723 20.9384 7.73468 20.6764 7.49396L16.4929 3.29396C16.2516 3.05099 15.9031 2.94918 15.5696 3.02425C15.2361 3.09933 14.9643 3.34081 14.8494 3.66396L14.3414 5.10396C14.1973 5.51309 13.9247 5.86408 13.5645 6.10396L10.3771 8.23396C9.88072 8.57314 9.29412 8.75435 8.69371 8.75396H7.20957C6.94481 8.75243 6.69033 8.85678 6.50236 9.04396L6.09397 9.49396C5.70777 9.884 5.70777 10.5139 6.09397 10.904L13.1262 17.974C13.5147 18.3617 14.1422 18.3617 14.5307 17.974L14.949 17.564C15.1355 17.3752 15.2394 17.1198 15.2379 16.854V15.364C15.2375 14.7612 15.418 14.1723 15.7558 13.674L17.8774 10.474C18.1164 10.1124 18.466 9.8386 18.8735 9.69396ZM3.79306 18.484C3.94593 18.1088 4.17296 17.7686 4.46042 17.484L7.36894 14.564L9.38099 16.664L6.48244 19.574C6.19891 19.8626 5.86007 20.0905 5.48637 20.244L3.68349 20.964C3.49843 21.0388 3.28678 20.9955 3.14561 20.854C3.00466 20.7122 2.96155 20.4998 3.03605 20.314L3.79306 18.484Z" fill="currentColor" fill-rule="evenodd" clip-rule="evenodd" />
</svg>
