<svg xmlns="http://www.w3.org/2000/svg" viewBox="0 0 24 24">
    <path d="M12 4C6.48 4 2 7.13137 2 11.0031C2.13867 13.2436 3.44012 15.2479 5.43 16.2854C6.84947 17.1118 8.46791 17.5339 10.11 17.5059H11V19.5068C11.0028 19.7069 11.1246 19.8861 11.3096 19.9623C11.4946 20.0385 11.7072 19.9971 11.85 19.8569L14.85 16.8556C15.0406 16.6611 15.0406 16.3498 14.85 16.1553L11.85 13.154C11.7072 13.0139 11.4946 12.9724 11.3096 13.0486C11.1246 13.1249 11.0028 13.304 11 13.5042V15.505H10.11C8.83459 15.5325 7.57592 15.2108 6.47 14.5746C5.08269 13.8939 4.14768 12.5419 4 11.0031C4 8.29188 7.66 6.00088 12 6.00088C16.34 6.00088 20 8.29188 20 11.0031C19.866 12.4686 19.0007 13.7671 17.7 14.4546C17.5894 14.5245 17.5114 14.6357 17.4832 14.7634C17.455 14.8912 17.4791 15.0249 17.55 15.1349L18.08 15.9953C18.2294 16.2258 18.5344 16.2965 18.77 16.1553C20.6625 15.1098 21.8832 13.1627 22 11.0031C22 7.13137 17.52 4 12 4Z" fill="currentColor" />
</svg>
