<svg xmlns="http://www.w3.org/2000/svg" viewBox="0 0 24 24">
    <path d="M17.97 10.4311C17.8386 10.0295 17.583 9.67981 17.24 9.4324L17.21 9.42242C16.1569 8.66048 15.7152 7.30768 16.1162 6.07222C16.5172 4.83676 17.6696 4 18.97 4C20.2705 4 21.4228 4.83676 21.8238 6.07222C22.2248 7.30768 21.7832 8.66048 20.73 9.42242C20.3871 9.66982 20.1315 10.0195 20 10.4211L19.61 11.6795C19.5418 11.8811 19.3532 12.0175 19.14 12.019H18.86C18.6469 12.0175 18.4582 11.8811 18.39 11.6795L17.97 10.4311ZM11 13.5071C11.0026 11.343 9.46047 9.48441 7.33081 9.08489C5.20114 8.68536 3.0888 9.85838 2.30485 11.8759C1.52091 13.8934 2.28801 16.1824 4.13004 17.3221C4.53589 17.5616 4.84401 17.9365 5.00004 18.3807L5.31004 19.3195C5.45303 19.7443 5.86188 20.022 6.31004 19.9986H6.87004C7.31819 20.022 7.72704 19.7443 7.87004 19.3195L8.00004 18.3807C8.14589 17.9427 8.43919 17.5686 8.83004 17.3221C10.168 16.5134 10.9897 15.069 11 13.5071ZM6.50004 15.5045C5.39547 15.5045 4.50004 14.6102 4.50004 13.5071C4.50004 12.404 5.39547 11.5097 6.50004 11.5097C7.6046 11.5097 8.50004 12.404 8.50004 13.5071C8.50004 14.6102 7.6046 15.5045 6.50004 15.5045ZM19 6.01686C19.5523 6.01686 20 6.46399 20 7.01555C20 7.56712 19.5523 8.01425 19 8.01425C18.4478 8.01425 18 7.56712 18 7.01555C18 6.46399 18.4478 6.01686 19 6.01686ZM15.5 11.5796L16 12.009L21.73 18.1211C22.0027 18.4108 22.0773 18.8344 21.92 19.1997L21.84 19.3894C21.6835 19.7584 21.3213 19.9983 20.92 19.9986H10.14C9.97962 19.9974 9.82951 19.9195 9.73646 19.789C9.6434 19.6584 9.6187 19.4913 9.67004 19.3395L9.89004 18.6803C10.033 18.2555 10.4419 17.9779 10.89 18.0012H18.7L13.13 11.8592C12.8574 11.5695 12.7827 11.1459 12.94 10.7806L13.02 10.5909C13.1781 10.2291 13.5348 9.99425 13.93 9.99168H15.6C15.8122 9.99619 15.9994 10.1314 16.07 10.3312L16.38 11.25C16.4143 11.3228 16.4143 11.407 16.38 11.4797C16.3328 11.5426 16.2587 11.5796 16.18 11.5796H15.5Z" fill="currentColor" fill-rule="evenodd" clip-rule="evenodd" />
</svg>
