<svg xmlns="http://www.w3.org/2000/svg" viewBox="0 0 24 24">
    <path d="M11.9939 5.00008C16.3881 4.95492 20.3582 7.61654 21.9878 11.7001C22.0041 11.7994 22.0041 11.9007 21.9878 12.0001C21.9911 12.1131 21.9706 12.2255 21.9279 12.3301C20.2967 16.3813 16.3588 19.0253 11.9939 19.0001C7.62406 19.0221 3.68479 16.3692 2.05997 12.3101C2.01986 12.2117 1.99948 12.1063 2.00001 12.0001C2.00129 11.8875 2.02156 11.7759 2.05997 11.6701C3.69114 7.61885 7.629 4.97483 11.9939 5.00008ZM4.06875 12.0001C5.5333 15.0499 8.6124 16.9925 11.9939 17.0001C15.3754 16.9925 18.4545 15.0499 19.9191 12.0001C18.4596 8.94606 15.3771 7.00207 11.9939 7.00207C8.61076 7.00207 5.52824 8.94606 4.06875 12.0001ZM11.9939 10.0001C13.0978 10.0001 13.9927 10.8955 13.9927 12.0001C13.9927 13.1046 13.0978 14.0001 11.9939 14.0001C10.89 14.0001 9.99514 13.1046 9.99514 12.0001C9.99514 10.8955 10.89 10.0001 11.9939 10.0001ZM7.99636 12.0001C7.99636 9.79094 9.78613 8.00008 11.9939 8.00008C14.2017 8.00008 15.9915 9.79094 15.9915 12.0001C15.9915 14.2092 14.2017 16.0001 11.9939 16.0001C9.78613 16.0001 7.99636 14.2092 7.99636 12.0001Z" fill="currentColor" fill-rule="evenodd" clip-rule="evenodd" />
</svg>
