<svg xmlns="http://www.w3.org/2000/svg" viewBox="0 0 24 24">
    <path d="M20.12 5.12L16.59 1.59C16.2142 1.21196 15.703 0.999578 15.17 1H8.83C8.29696 0.999578 7.7858 1.21196 7.41 1.59L3.88 5.12C3.31723 5.68207 3.0007 6.44462 3 7.24V13.09C3.00185 15.5573 4.14207 17.8857 6.09 19.4L10.17 22.58C10.5218 22.853 10.9547 23.0008 11.4 23H12.6C13.0453 23.0008 13.4782 22.853 13.83 22.58L17.91 19.4C19.8579 17.8857 20.9981 15.5573 21 13.09V7.24C20.9993 6.44462 20.6828 5.68207 20.12 5.12ZM19 13.12C19.0079 14.9725 18.1497 16.7223 16.68 17.85L12.6 21H11.4L7.32 17.82C5.8503 16.6923 4.99206 14.9425 5 13.09V7.24C5.0011 6.97766 5.10526 6.72626 5.29 6.54L8.83 3H15.17L18.71 6.54C18.8947 6.72626 18.9989 6.97766 19 7.24V13.12ZM14.56 7.91L15.09 8.44C15.1867 8.53073 15.2415 8.65741 15.2415 8.79C15.2415 8.92259 15.1867 9.04927 15.09 9.14L13.24 11L15.09 12.86C15.1867 12.9507 15.2415 13.0774 15.2415 13.21C15.2415 13.3426 15.1867 13.4693 15.09 13.56L14.56 14.09C14.4693 14.1867 14.3426 14.2415 14.21 14.2415C14.0774 14.2415 13.9507 14.1867 13.86 14.09L12 12.24L10.14 14.09C10.0493 14.1867 9.92259 14.2415 9.79 14.2415C9.65741 14.2415 9.53073 14.1867 9.44 14.09L8.91 13.56C8.81332 13.4693 8.75848 13.3426 8.75848 13.21C8.75848 13.0774 8.81332 12.9507 8.91 12.86L10.76 11L8.91 9.14C8.81332 9.04927 8.75848 8.92259 8.75848 8.79C8.75848 8.65741 8.81332 8.53073 8.91 8.44L9.44 7.91C9.53073 7.81332 9.65741 7.75848 9.79 7.75848C9.92259 7.75848 10.0493 7.81332 10.14 7.91L12 9.76L13.86 7.91C13.9507 7.81332 14.0774 7.75848 14.21 7.75848C14.3426 7.75848 14.4693 7.81332 14.56 7.91Z" fill="currentColor" fill-rule="evenodd" clip-rule="evenodd" />
</svg>
