<svg xmlns="http://www.w3.org/2000/svg" viewBox="0 0 24 24">
    <path d="M2 12C2 6.47715 6.47715 2 12 2C14.6522 2 17.1957 3.05357 19.0711 4.92893C20.9464 6.8043 22 9.34784 22 12C22 17.5228 17.5228 22 12 22C6.47715 22 2 17.5228 2 12ZM4 12C4 16.4183 7.58172 20 12 20C14.1217 20 16.1566 19.1571 17.6569 17.6569C19.1571 16.1566 20 14.1217 20 12C20 7.58172 16.4183 4 12 4C7.58172 4 4 7.58172 4 12ZM7.5 14C7.22386 14 7 14.2239 7 14.5V15.5C7 15.7761 7.22386 16 7.5 16H16.5C16.7761 16 17 15.7761 17 15.5V14.5C17 14.2239 16.7761 14 16.5 14H7.5ZM12 5.99848C12.1326 5.99848 12.2593 6.05332 12.35 6.15L16.85 10.94C16.9447 11.0339 16.9979 11.1617 16.9979 11.295C16.9979 11.4283 16.9447 11.5561 16.85 11.65L16.65 11.85C16.5559 11.9477 16.4256 12.002 16.29 12H7.71C7.57441 12.002 7.44408 11.9477 7.35 11.85L7.15 11.65C7.05534 11.5561 7.0021 11.4283 7.0021 11.295C7.0021 11.1617 7.05534 11.0339 7.15 10.94L11.65 6.15C11.7407 6.05332 11.8674 5.99848 12 5.99848Z" fill="currentColor" fill-rule="evenodd" clip-rule="evenodd" />
</svg>
