<svg xmlns="http://www.w3.org/2000/svg" viewBox="0 0 24 24">
    <path d="M11.9893 11.6901C11.9878 11.4469 11.8684 11.2195 11.6689 11.0801L4.29133 5.86007C4.04815 5.70094 3.73368 5.70094 3.49051 5.86007L3.37038 5.92007C3.14136 6.05685 3.00081 6.30351 3 6.57007V17.4201C3.0128 17.6753 3.15157 17.9076 3.37038 18.0401L3.49051 18.1001C3.73516 18.2542 4.04667 18.2542 4.29133 18.1001L11.6689 12.9201C11.8684 12.7806 11.9878 12.5533 11.9893 12.3101V11.6901ZM14.3016 5.90007L21.6792 11.0801C21.8876 11.2255 22.0081 11.4663 21.9996 11.7201V12.3401C21.9981 12.5833 21.8787 12.8106 21.6792 12.9501L14.3016 18.1301C14.057 18.2842 13.7455 18.2842 13.5008 18.1301L13.3807 18.0701C13.1531 17.9319 13.0131 17.6861 13.0103 17.4201V6.61007C13.0111 6.34351 13.1517 6.09685 13.3807 5.96007L13.5008 5.90007C13.744 5.74094 14.0585 5.74094 14.3016 5.90007Z" fill="currentColor" fill-rule="evenodd" clip-rule="evenodd" />
</svg>
