<svg xmlns="http://www.w3.org/2000/svg" viewBox="0 0 24 24">
    <path d="M9.6981 18.0901L2.32034 12.9101C2.12087 12.7706 2.00146 12.5433 2 12.3001V11.6801C2.00146 11.4369 2.12087 11.2095 2.32034 11.0701L9.6981 5.86007C9.94129 5.70094 10.2558 5.70094 10.4989 5.86007L10.6191 5.92007C10.8467 6.05826 10.9867 6.30403 10.9895 6.57007V17.3801C10.9887 17.6466 10.8481 17.8933 10.6191 18.0301L10.4989 18.0901C10.2558 18.2492 9.94129 18.2492 9.6981 18.0901ZM12.0105 12.3001C12.012 12.5433 12.1314 12.7706 12.3309 12.9101L19.7086 18.1301C19.9518 18.2892 20.2663 18.2892 20.5095 18.1301L20.6296 18.0701C20.8586 17.9333 20.9992 17.6866 21 17.4201V6.61007C20.9972 6.34403 20.8572 6.09826 20.6296 5.96007L20.5095 5.90007C20.2663 5.74094 19.9518 5.74094 19.7086 5.90007L12.3309 11.0701C12.1314 11.2095 12.012 11.4369 12.0105 11.6801V12.3001Z" fill="currentColor" fill-rule="evenodd" clip-rule="evenodd" />
</svg>
