<svg xmlns="http://www.w3.org/2000/svg" viewBox="0 0 24 24">
    <path d="M10.0028 6.29L8.2821 4.57C8.87279 3.02746 10.3512 2.00647 12.0035 2C14.2135 2 16.0051 3.79086 16.0051 6V10C16.0069 10.6408 15.8524 11.2724 15.5549 11.84L14.0043 10.27C14.0093 10.1801 14.0093 10.0899 14.0043 10V6C14.0043 4.89543 13.1085 4 12.0035 4C10.8985 4 10.0028 4.89543 10.0028 6V6.29ZM19.0062 13.86C19.0555 13.7312 19.0555 13.5888 19.0062 13.46C18.9593 13.3283 18.8622 13.2205 18.7361 13.16L17.8358 12.74C17.6005 12.621 17.3132 12.7094 17.1855 12.94L17.1855 12.94C17.1155 13.06 17.0455 13.18 16.9655 13.3L18.396 14.73C18.6205 14.4553 18.8244 14.1645 19.0062 13.86ZM20.9985 19.97C20.9985 20.1026 20.9437 20.2293 20.847 20.32L20.3268 20.85C20.236 20.9467 20.1093 21.0015 19.9766 21.0015C19.844 21.0015 19.7173 20.9467 19.6265 20.85L15.795 17.03C14.9297 17.5032 13.9827 17.8086 13.0039 17.93V20H14.5045C14.7808 20 15.0047 20.2239 15.0047 20.5V21.5C15.0047 21.7761 14.7808 22 14.5045 22H9.50257C9.22632 22 9.00238 21.7761 9.00238 21.5V20.5C9.00238 20.2239 9.22632 20 9.50257 20H10.9531V17.93C8.42042 17.6002 6.19379 16.0904 4.95081 13.86C4.90155 13.7312 4.90155 13.5888 4.95081 13.46C4.99774 13.3283 5.09482 13.2205 5.22091 13.16L6.12126 12.74C6.35655 12.621 6.64386 12.7094 6.77151 12.94C8.2643 15.5794 11.4923 16.6907 14.2944 15.53L12.6938 13.93C12.4663 13.9741 12.2353 13.9975 12.0035 14C9.79354 14 8.00199 12.2091 8.00199 10V9.24L3.15011 4.38C3.0534 4.28927 2.99854 4.16259 2.99854 4.03C2.99854 3.89741 3.0534 3.77073 3.15011 3.68L3.68032 3.15C3.77109 3.05332 3.89782 2.99848 4.03045 2.99848C4.16309 2.99848 4.28982 3.05332 4.38059 3.15L20.847 19.62C20.9437 19.7107 20.9985 19.8374 20.9985 19.97Z" fill="currentColor" fill-rule="evenodd" clip-rule="evenodd" />
</svg>
