<svg xmlns="http://www.w3.org/2000/svg" viewBox="0 0 24 24">
    <path d="M4.38005 3.14998L20.8501 19.6121C20.9467 19.7028 21.0016 19.8294 21.0016 19.9619C21.0016 20.0944 20.9467 20.2211 20.8501 20.3118L20.3201 20.8415C20.2293 20.9381 20.1026 20.9929 19.9701 20.9929C19.8375 20.9929 19.7108 20.9381 19.6201 20.8415L15.0001 16.2337V17.4931C14.8505 19.5575 13.067 21.1173 11.0001 20.9914C8.93311 21.1173 7.14961 19.5575 7.00005 17.4931C7.14961 15.4287 8.93311 13.8689 11.0001 13.9948C11.6966 13.9933 12.3831 14.1614 13.0001 14.4845V14.2347L3.15005 4.37939C3.05338 4.2887 2.99854 4.16208 2.99854 4.02956C2.99854 3.89704 3.05338 3.77042 3.15005 3.67973L3.68005 3.14998C3.77079 3.05335 3.89747 2.99854 4.03005 2.99854C4.16264 2.99854 4.28932 3.05335 4.38005 3.14998ZM13.0001 9.28704L15.0001 11.2861V8.5374C15.0364 8.56237 15.0727 8.58785 15.1093 8.6135C15.2338 8.70079 15.3609 8.78999 15.5001 8.86724C16.3987 9.31506 16.9759 10.2228 17.0001 11.2261V11.496C17.0001 11.772 17.2239 11.9957 17.5001 11.9957H18.5001C18.7762 11.9957 19.0001 11.772 19.0001 11.496V10.2366C19.0038 8.47751 18.0072 6.86911 16.4301 6.08857C15.533 5.61864 14.9791 4.68184 15.0001 3.66973V3.49981C15.0001 3.2238 14.7762 3.00005 14.5001 3.00005H13.5001C13.2239 3.00005 13.0001 3.2238 13.0001 3.49981V9.28704Z" fill="currentColor" fill-rule="evenodd" clip-rule="evenodd" />
</svg>
