<svg xmlns="http://www.w3.org/2000/svg" viewBox="0 0 24 24">
    <path d="M18 10.2371V11.4966C18 11.7726 17.7761 11.9963 17.5 11.9963H16.5C16.2239 11.9963 16 11.7726 16 11.4966V11.2267C15.9758 10.2233 15.3986 9.31547 14.5 8.86762C14.32 8.76766 14.16 8.64771 14 8.53775V17.5341C13.8298 19.5827 12.0525 21.1194 10 20.9927C7.93306 21.1186 6.14956 19.5586 6 17.4941C6.14956 15.4296 7.93306 13.8697 10 13.9955C10.6966 13.9941 11.383 14.1622 12 14.4853V3.4998C12 3.22377 12.2239 3 12.5 3H13.5C13.7761 3 14 3.22377 14 3.4998V3.66973C13.9791 4.68191 14.5329 5.61878 15.43 6.08875C17.0072 6.86934 18.0037 8.47786 18 10.2371Z" fill="currentColor" />
</svg>
