<svg xmlns="http://www.w3.org/2000/svg" viewBox="0 0 24 24">
    <path d="M12 2C6.47715 2 2 6.47715 2 12C2 17.5228 6.47715 22 12 22C17.5228 22 22 17.5228 22 12C22 9.34784 20.9464 6.8043 19.0711 4.92893C17.1957 3.05357 14.6522 2 12 2ZM11 15.5C11 15.7761 10.7761 16 10.5 16H9.5C9.22386 16 9 15.7761 9 15.5V8.5C9 8.22386 9.22386 8 9.5 8H10.5C10.7761 8 11 8.22386 11 8.5V15.5ZM14.5 16C14.7761 16 15 15.7761 15 15.5V8.5C15 8.22386 14.7761 8 14.5 8H13.5C13.2239 8 13 8.22386 13 8.5V15.5C13 15.7761 13.2239 16 13.5 16H14.5Z" fill="currentColor" fill-rule="evenodd" clip-rule="evenodd" />
</svg>
