<svg xmlns="http://www.w3.org/2000/svg" viewBox="0 0 24 24">
    <path d="M7.61719 5.79976C7.70766 5.74632 7.8109 5.71867 7.91584 5.71976C8.24537 5.75796 8.56019 5.87827 8.83167 6.06976L17.6317 11.1898C17.8594 11.3265 17.9992 11.5732 18 11.8398V12.1198C17.9992 12.3863 17.8594 12.633 17.6317 12.7698L8.6724 17.9998C8.45525 18.1575 8.20178 18.2573 7.93575 18.2898C7.82317 18.291 7.7126 18.2598 7.61719 18.1998L7.36833 18.0598C7.14057 17.923 7.00081 17.6763 7 17.4098V6.58976C7.00081 6.3232 7.14057 6.07654 7.36833 5.93976L7.61719 5.79976ZM14.9638 11.9998L8.99095 8.47976V8.51976V15.5198L14.9638 11.9998Z" fill="currentColor" fill-rule="evenodd" clip-rule="evenodd" />
</svg>
