<svg xmlns="http://www.w3.org/2000/svg" viewBox="0 0 24 24">
    <path d="M12 2C6.47715 2 2 6.47715 2 12C2 17.5228 6.47715 22 12 22C17.5228 22 22 17.5228 22 12C22 9.34784 20.9464 6.8043 19.0711 4.92893C17.1957 3.05357 14.6522 2 12 2ZM12 20C7.58172 20 4 16.4183 4 12C4 7.58172 7.58172 4 12 4C16.4183 4 20 7.58172 20 12C20 14.1217 19.1571 16.1566 17.6569 17.6569C16.1566 19.1571 14.1217 20 12 20ZM9.38965 7.69666C9.62853 7.56579 9.91959 7.57472 10.15 7.72L16 11.36C16.2182 11.4997 16.3501 11.7409 16.3501 12C16.3501 12.2591 16.2182 12.5003 16 12.64L10.15 16.28C9.91959 16.4253 9.62853 16.4342 9.38965 16.3033C9.15076 16.1725 9.00161 15.9224 9 15.65V8.35C9.00161 8.07762 9.15076 7.82752 9.38965 7.69666Z" fill="currentColor" fill-rule="evenodd" clip-rule="evenodd" />
</svg>
