<svg xmlns="http://www.w3.org/2000/svg" viewBox="0 0 24 24">
    <path d="M7.76981 4.56346C7.63721 4.56508 7.51009 4.51055 7.41981 4.41331L6.70981 3.70262C6.61267 3.61226 6.5582 3.48502 6.55981 3.35228C6.55981 2.73168 9.13981 1 11.9998 1C14.6898 1 17.4398 2.64159 17.4398 3.35228C17.4414 3.48502 17.387 3.61226 17.2898 3.70262L16.5798 4.41331C16.4895 4.51055 16.3624 4.56508 16.2298 4.56346C16.0918 4.56346 15.9047 4.42883 15.6403 4.23863C15.0042 3.78108 13.9211 3.00194 11.9998 3.00194C10.0903 3.00194 9.0186 3.77153 8.37995 4.23016C8.10888 4.42482 7.91582 4.56346 7.76981 4.56346ZM8.99981 16.0146C8.99981 17.673 10.343 19.0175 11.9998 19.0175C13.6567 19.0175 14.9998 17.673 14.9998 16.0146V12.0107C14.9998 10.3522 13.6567 9.00778 11.9998 9.00778C10.343 9.00778 8.99981 10.3522 8.99981 12.0107V16.0146ZM10.9998 12.0107C10.9998 11.4579 11.4475 11.0097 11.9998 11.0097C12.5521 11.0097 12.9998 11.4579 12.9998 12.0107V16.0146C12.9998 16.5674 12.5521 17.0156 11.9998 17.0156C11.4475 17.0156 10.9998 16.5674 10.9998 16.0146V12.0107ZM13.0998 7.33615C13.2997 7.46605 13.5633 7.43672 13.7298 7.26608L14.4498 6.55539C14.5519 6.45239 14.6031 6.30946 14.5898 6.16502C14.5807 6.02048 14.5119 5.88628 14.3998 5.79466C12.9776 4.72695 11.022 4.72695 9.59981 5.79466C9.48776 5.88628 9.41891 6.02048 9.40981 6.16502C9.39651 6.30946 9.44777 6.45239 9.54981 6.55539L10.2698 7.26608C10.4363 7.43672 10.7 7.46605 10.8998 7.33615C11.5673 6.89616 12.4323 6.89616 13.0998 7.33615ZM17.8698 18.7072C17.9955 18.7703 18.0896 18.8826 18.1298 19.0175C18.1884 19.1576 18.1772 19.3173 18.0998 19.4479C16.8569 21.6432 14.5307 23 12.0098 23C9.48892 23 7.16274 21.6432 5.91981 19.4479C5.86462 19.3237 5.86462 19.1818 5.91981 19.0575C5.96003 18.9226 6.05411 18.8104 6.17981 18.7472L7.09981 18.3268C7.33286 18.2193 7.60942 18.3058 7.73981 18.527C8.63808 20.056 10.2778 20.9949 12.0498 20.9949C13.8219 20.9949 15.4615 20.056 16.3598 18.527C16.4902 18.3058 16.7668 18.2193 16.9998 18.3268L17.8698 18.7072Z" fill="currentColor" fill-rule="evenodd" clip-rule="evenodd" />
</svg>
