<svg xmlns="http://www.w3.org/2000/svg" viewBox="0 0 24 24">
    <path d="M17.8538 2.65308L20.8538 5.65053C21.0494 5.85213 21.045 6.17383 20.8438 6.36992L17.8438 9.36737C17.6997 9.50855 17.4847 9.54928 17.2988 9.47063C17.113 9.39197 16.9927 9.20936 16.9938 9.00768V7.00938H6.99384V11.5056C6.99384 11.7815 6.76998 12.0051 6.49384 12.0051H5.49384C5.21769 12.0051 4.99384 11.7815 4.99384 11.5056V7.00938C4.99384 5.90574 5.88927 5.01107 6.99384 5.01107H16.9938V3.01277C16.9884 2.80666 17.1102 2.61838 17.3006 2.53876C17.4909 2.45915 17.7107 2.50456 17.8538 2.65308ZM18.9938 17.0009V12.5047C18.9938 12.2288 18.77 12.0051 18.4938 12.0051H17.4938C17.2177 12.0051 16.9938 12.2288 16.9938 12.5047V17.0009H16.9338H6.99384V15.0026C6.99103 14.8027 6.86925 14.6238 6.68426 14.5476C6.49927 14.4715 6.28669 14.5129 6.14384 14.6529L3.14384 17.6503C2.95205 17.848 2.95205 18.1621 3.14384 18.3597L6.14384 21.3572C6.28799 21.4984 6.50297 21.5391 6.68884 21.4604C6.87472 21.3818 6.99502 21.1992 6.99384 20.9975V18.9992H16.9938C18.0984 18.9992 18.9938 18.1045 18.9938 17.0009Z" fill="currentColor" fill-rule="evenodd" clip-rule="evenodd" />
</svg>
