<svg xmlns="http://www.w3.org/2000/svg" viewBox="0 0 24 24">
    <path d="M12 1.52659V3C6.4772 3 2 7.47715 2 13C2 18.5228 6.47715 23 12 23C17.5228 23 22 18.5228 22 13C22 10.5179 21.0957 8.24695 19.5985 6.49875C19.4103 6.27894 19.074 6.28288 18.8785 6.49622L18.1951 7.24167C18.0196 7.4332 18.0213 7.72624 18.1862 7.92706C19.3196 9.30762 20 11.0744 20 13C20 17.4183 16.4183 21 12 21C7.58172 21 4 17.4183 4 13C4 8.58172 7.58172 5 12 5L12 6.47341C11.9984 6.57427 12.0442 6.67122 12.1265 6.7412L12.2952 6.88998C12.3743 6.96039 12.4821 7 12.5945 7C12.7069 7 12.8147 6.96039 12.8938 6.88998L15.8787 4.26408C16.0404 4.11693 16.0404 3.88307 15.8787 3.73592L12.8938 1.11002C12.8147 1.03961 12.7069 1 12.5945 1C12.4821 1 12.3743 1.03961 12.2952 1.11002L12.1265 1.2588C12.0442 1.32878 11.9984 1.42573 12 1.52659Z" fill="currentColor" />
    <path d="M8.51963 10.5H7.65982C7.47205 10.5 7.31982 10.3478 7.31982 10.16V9.34C7.31982 9.15222 7.47205 9 7.65982 9H9.97982C10.1676 9 10.3198 9.15223 10.3198 9.34001L10.3196 16.66C10.3196 16.8478 10.1674 17 9.97964 17H8.85963C8.67185 17 8.51963 16.8478 8.51963 16.66V10.5Z" fill="currentColor" />
    <path d="M13.8432 11.9286C15.3609 11.9286 16.677 12.8359 16.677 14.5585C16.677 16.2812 15.2779 17.2 13.7128 17.2C12.5277 17.2 11.4822 16.7365 10.9511 15.7562C10.8671 15.6012 10.9346 15.4123 11.0881 15.3254L11.8445 14.8969C12.0379 14.7874 12.2792 14.8878 12.4033 15.0722C12.6556 15.4467 13.076 15.6496 13.7128 15.6496C14.5665 15.6496 15.0408 15.2132 15.0408 14.5585C15.0408 13.9154 14.5665 13.4675 13.7603 13.4675H11.5981C11.404 13.4675 11.2467 13.3102 11.2467 13.1161V9.3485C11.2467 9.15603 11.4027 9 11.5952 9H15.9343C16.1284 9 16.2857 9.15734 16.2857 9.35143V10.1301C16.2857 10.3242 16.1284 10.4815 15.9343 10.4815H12.9073V11.9286H13.8432Z" fill="currentColor" />
</svg>
