<svg xmlns="http://www.w3.org/2000/svg" viewBox="0 0 24 24">
    <path d="M17.0019 17.94C15.9152 17.7974 14.9043 17.3062 14.1209 16.54L6.45826 8.88002C5.89599 8.31725 5.13318 8.00072 4.33753 8.00002H3.49724C3.221 8.00002 2.99707 7.77616 2.99707 7.50002V6.50002C2.99707 6.22388 3.221 6.00002 3.49724 6.00002H4.33753C5.66497 5.99765 6.93891 6.52288 7.87874 7.46002L10.9998 10.59L14.1209 7.46002C14.9043 6.69388 15.9152 6.2026 17.0019 6.06002V4.00002C17.0007 3.79817 17.121 3.6154 17.307 3.53667C17.4929 3.45795 17.708 3.49872 17.8522 3.64002L20.8532 6.64002C21.045 6.83783 21.045 7.15221 20.8532 7.35002L17.8522 10.35C17.7093 10.4901 17.4966 10.5315 17.3115 10.4553C17.1265 10.3792 17.0047 10.2001 17.0019 10V8.08002C16.4493 8.20361 15.9429 8.48096 15.5414 8.88002L12.4103 12L15.5414 15.12C15.9429 15.5191 16.4493 15.7964 17.0019 15.92V14C17.0007 13.7982 17.121 13.6154 17.307 13.5367C17.4929 13.458 17.708 13.4987 17.8522 13.64L20.8532 16.64C21.045 16.8378 21.045 17.1522 20.8532 17.35L17.8522 20.35C17.7093 20.4901 17.4966 20.5315 17.3115 20.4553C17.1265 20.3792 17.0047 20.2001 17.0019 20V17.94ZM7.87874 16.54L9.76939 14.64L8.35891 13.23L6.45826 15.12C5.89599 15.6828 5.13318 15.9993 4.33753 16H3.49724C3.221 16 2.99707 16.2239 2.99707 16.5V17.5C2.99707 17.7762 3.221 18 3.49724 18H4.33753C5.66497 18.0024 6.93891 17.4772 7.87874 16.54Z" fill="currentColor" fill-rule="evenodd" clip-rule="evenodd" />
</svg>
