<svg xmlns="http://www.w3.org/2000/svg" viewBox="0 0 24 24">
    <path d="M6.49 5.90011C6.73293 5.74098 7.04707 5.74098 7.29 5.90011L14.66 11.1101C14.8593 11.2495 14.9785 11.4769 14.98 11.7201V12.3401C14.9785 12.5833 14.8593 12.8107 14.66 12.9501L7.29 18.1301C7.04559 18.2842 6.73441 18.2842 6.49 18.1301L6.37 18.0701C6.14265 17.9319 6.00276 17.6861 6 17.4201V6.57011C6.0143 6.31792 6.15296 6.08932 6.37 5.96011L6.49 5.90011ZM18 17.5001V6.50011C18 6.22396 17.7761 6.00011 17.5 6.00011H16.5C16.2239 6.00011 16 6.22396 16 6.50011V17.5001C16 17.7762 16.2239 18.0001 16.5 18.0001H17.5C17.7761 18.0001 18 17.7762 18 17.5001Z" fill="currentColor" fill-rule="evenodd" clip-rule="evenodd" />
</svg>
