<svg xmlns="http://www.w3.org/2000/svg" viewBox="0 0 24 24">
    <path d="M8.82291 4.99979H20.4919C20.7677 4.99979 20.9914 5.22365 20.9914 5.49979V6.49979C20.9914 6.77594 20.7677 6.99979 20.4919 6.99979H8.82291C8.33634 8.37734 6.92904 9.20367 5.49033 8.95659C4.05163 8.70951 3 7.4609 3 5.99979C3 4.53868 4.05163 3.29007 5.49033 3.043C6.92904 2.79592 8.33634 3.62225 8.82291 4.99979ZM5.00653 5.99979C5.00653 6.55208 5.45382 6.99979 6.00558 6.99979C6.55734 6.99979 7.00463 6.55208 7.00463 5.99979C7.00463 5.44751 6.55734 4.99979 6.00558 4.99979C5.45382 4.99979 5.00653 5.44751 5.00653 5.99979ZM20.4919 10.9998H14.8172C14.387 9.81334 13.2609 9.02332 11.9999 9.02332C10.7389 9.02332 9.61279 9.81334 9.18257 10.9998H3.50795C3.23206 10.9998 3.00842 11.2237 3.00842 11.4998V12.4998C3.00842 12.7759 3.23206 12.9998 3.50795 12.9998H9.18257C9.61279 14.1862 10.7389 14.9763 11.9999 14.9763C13.2609 14.9763 14.387 14.1862 14.8172 12.9998H20.4919C20.7677 12.9998 20.9914 12.7759 20.9914 12.4998V11.4998C20.9914 11.2237 20.7677 10.9998 20.4919 10.9998ZM11.0008 11.9998C11.0008 12.5521 11.4481 12.9998 11.9999 12.9998C12.5517 12.9998 12.999 12.5521 12.999 11.9998C12.999 11.4475 12.5517 10.9998 11.9999 10.9998C11.4481 10.9998 11.0008 11.4475 11.0008 11.9998ZM17.9942 14.9998C16.7272 15.0034 15.5992 15.8041 15.1769 16.9998H3.50795C3.23206 16.9998 3.00842 17.2236 3.00842 17.4998V18.4998C3.00842 18.7759 3.23206 18.9998 3.50795 18.9998H15.1769C15.6853 20.4392 17.1926 21.2668 18.6786 20.9225C20.1646 20.5781 21.1552 19.1717 20.9799 17.6551C20.8047 16.1385 19.5195 14.9955 17.9942 14.9998ZM16.9952 17.9998C16.9952 18.5521 17.4425 18.9998 17.9942 18.9998C18.546 18.9998 18.9933 18.5521 18.9933 17.9998C18.9933 17.4475 18.546 16.9998 17.9942 16.9998C17.4425 16.9998 16.9952 17.4475 16.9952 17.9998Z" fill="currentColor" fill-rule="evenodd" clip-rule="evenodd" />
</svg>
