<svg xmlns="http://www.w3.org/2000/svg" viewBox="0 0 24 24">
    <path d="M14.9998 6.00578C15.0034 7.27283 15.8041 8.40076 16.9998 8.82311V20.4921C16.9998 20.7679 17.2236 20.9916 17.4998 20.9916H18.4998C18.7759 20.9916 18.9998 20.7679 18.9998 20.4921V8.82311C20.4392 8.31468 21.2668 6.80735 20.9225 5.32139C20.5781 3.83542 19.1717 2.8448 17.6551 3.02005C16.1385 3.1953 14.9955 4.48051 14.9998 6.00578ZM4.99979 15.1771V3.50814C4.99979 3.23226 5.22365 3.00862 5.49979 3.00862H6.49979C6.77594 3.00862 6.99979 3.23226 6.99979 3.50814V15.1771C8.37734 15.6637 9.20367 17.071 8.95659 18.5097C8.70951 19.9484 7.4609 21 5.99979 21C4.53868 21 3.29007 19.9484 3.043 18.5097C2.79592 17.071 3.62225 15.6637 4.99979 15.1771ZM5.99979 18.9935C6.55208 18.9935 6.99979 18.5462 6.99979 17.9944C6.99979 17.4427 6.55208 16.9954 5.99979 16.9954C5.44751 16.9954 4.99979 17.4427 4.99979 17.9944C4.99979 18.5462 5.44751 18.9935 5.99979 18.9935ZM10.9998 3.50814V9.18277C9.81334 9.61299 9.02332 10.7391 9.02332 12.0001C9.02332 13.2611 9.81334 14.3872 10.9998 14.8174V20.4921C10.9998 20.7679 11.2237 20.9916 11.4998 20.9916H12.4998C12.7759 20.9916 12.9998 20.7679 12.9998 20.4921V14.8174C14.1862 14.3872 14.9763 13.2611 14.9763 12.0001C14.9763 10.7391 14.1862 9.61299 12.9998 9.18277V3.50814C12.9998 3.23226 12.7759 3.00862 12.4998 3.00862H11.4998C11.2237 3.00862 10.9998 3.23226 10.9998 3.50814ZM11.9998 12.9992C12.5521 12.9992 12.9998 12.5519 12.9998 12.0001C12.9998 11.4483 12.5521 11.001 11.9998 11.001C11.4475 11.001 10.9998 11.4483 10.9998 12.0001C10.9998 12.5519 11.4475 12.9992 11.9998 12.9992ZM17.9998 7.00483C18.5521 7.00483 18.9998 6.55754 18.9998 6.00578C18.9998 5.45402 18.5521 5.00672 17.9998 5.00672C17.4475 5.00672 16.9998 5.45402 16.9998 6.00578C16.9998 6.55754 17.4475 7.00483 17.9998 7.00483Z" fill="currentColor" fill-rule="evenodd" clip-rule="evenodd" />
</svg>
