<svg xmlns="http://www.w3.org/2000/svg" viewBox="0 0 24 24">
    <path d="M15 19V5C15 4.44772 14.5523 4 14 4H13.41C13.1477 4.0011 12.8963 4.10526 12.71 4.29L8.88 8.12C8.31793 8.68277 7.55538 8.9993 6.76 9C5.78798 9 5 9.78798 5 10.76V13.24C5 14.212 5.78798 15 6.76 15C7.55538 15.0007 8.31793 15.3172 8.88 15.88L12.71 19.71C12.8963 19.8947 13.1477 19.9989 13.41 20H14C14.5523 20 15 19.5523 15 19ZM17.84 9.4C17.9817 9.41649 18.1111 9.4884 18.2 9.6V9.65C19.2667 11.0722 19.2667 13.0278 18.2 14.45C18.1034 14.5548 17.9675 14.6143 17.825 14.6143C17.6825 14.6143 17.5466 14.5548 17.45 14.45L16.73 13.73C16.5627 13.561 16.5376 13.2976 16.67 13.1C17.1096 12.4325 17.1096 11.5675 16.67 10.9C16.5376 10.7024 16.5627 10.439 16.73 10.27L17.45 9.55C17.5526 9.4466 17.6945 9.39201 17.84 9.4Z" fill="currentColor" fill-rule="evenodd" clip-rule="evenodd" />
</svg>
