<svg xmlns="http://www.w3.org/2000/svg" viewBox="0 0 24 24">
    <path d="M13 19V5C13 4.44772 12.5523 4 12 4H11.41C11.1477 4.0011 10.8963 4.10526 10.71 4.29L6.88 8.12C6.31793 8.68277 5.55538 8.9993 4.76 9C3.78798 9 3 9.78798 3 10.76V13.24C3 14.212 3.78798 15 4.76 15C5.55538 15.0007 6.31793 15.3172 6.88 15.88L10.71 19.71C10.8963 19.8947 11.1477 19.9989 11.41 20H12C12.5523 20 13 19.5523 13 19ZM18.88 11.12H20.5C20.7761 11.12 21 11.3439 21 11.62V12.38C21 12.6561 20.7761 12.88 20.5 12.88H18.88V14.5C18.88 14.7761 18.6561 15 18.38 15H17.62C17.3439 15 17.12 14.7761 17.12 14.5V12.88H15.5C15.2239 12.88 15 12.6561 15 12.38V11.62C15 11.3439 15.2239 11.12 15.5 11.12H17.12V9.5C17.12 9.22386 17.3439 9 17.62 9H18.38C18.6561 9 18.88 9.22386 18.88 9.5V11.12Z" fill="currentColor" fill-rule="evenodd" clip-rule="evenodd" />
</svg>
