<svg xmlns="http://www.w3.org/2000/svg" viewBox="0 0 24 24">
    <path d="M19.3201 19.8501L19.8501 19.3201C19.9467 19.2293 20.0016 19.1026 20.0016 18.9701C20.0016 18.8375 19.9467 18.7108 19.8501 18.6201L5.38005 4.15005C5.28932 4.05338 5.16264 3.99854 5.03005 3.99854C4.89747 3.99854 4.77079 4.05338 4.68005 4.15005L4.15005 4.68005C4.05338 4.77079 3.99854 4.89747 3.99854 5.03005C3.99854 5.16264 4.05338 5.28932 4.15005 5.38005L7.62005 8.86005C7.34123 8.94621 7.05181 8.99332 6.76005 9.00005C5.78803 9.00005 5.00005 9.78803 5.00005 10.7601V13.2401C5.00005 14.2121 5.78803 15.0001 6.76005 15.0001C7.55544 15.0008 8.31798 15.3173 8.88005 15.8801L12.7101 19.7101C12.8963 19.8948 13.1477 19.9989 13.4101 20.0001H14.0001C14.5523 20.0001 15.0001 19.5523 15.0001 19.0001V16.2401L18.6201 19.8501C18.7108 19.9467 18.8375 20.0016 18.9701 20.0016C19.1026 20.0016 19.2293 19.9467 19.3201 19.8501ZM14.0001 4.00005C14.5523 4.00005 15.0001 4.44777 15.0001 5.00005V11.2901L10.3601 6.64005L12.7101 4.29005C12.8963 4.10531 13.1477 4.00116 13.4101 4.00005H14.0001Z" fill="currentColor" fill-rule="evenodd" clip-rule="evenodd" />
</svg>
