<svg xmlns="http://www.w3.org/2000/svg" viewBox="0 0 24 24">
    <path d="M22 13.5042V14.5071C22 14.784 21.7761 15.0085 21.5 15.0085H20.82C19.8514 15.0272 19.0087 14.3468 18.82 13.3938L17.21 5.14986C17.1771 5.0651 17.0957 5.00929 17.005 5.00929C16.9143 5.00929 16.8329 5.0651 16.8 5.14986L14.17 19.1907C13.9716 20.2235 13.0853 20.9799 12.0371 21.0112C10.9888 21.0425 10.0593 20.3402 9.8 19.3211L7.26 9.1515C7.23734 9.05871 7.15524 8.99284 7.06 8.99103H6.87C6.78118 8.99304 6.70228 9.04843 6.67 9.13144L5.18 13.6345C4.90832 14.4555 4.14248 15.0093 3.28 15.0085H2.5C2.22386 15.0085 2 14.784 2 14.5071V13.5042C2 13.2272 2.22386 13.0027 2.5 13.0027H3.28L4.78 8.4996C5.07781 7.59535 5.92047 6.98476 6.87 6.9852H7.06C8.07144 6.98658 8.95286 7.67643 9.2 8.66007L11.74 18.8597C11.7627 18.9525 11.8448 19.0184 11.94 19.0202C12.1 19.0202 12.18 18.95 12.2 18.8497L14.83 4.80887C15.0306 3.76584 15.9408 3.01221 17 3.01221C18.0592 3.01221 18.9694 3.76584 19.17 4.80887L20.82 13.0027H21.5C21.7761 13.0027 22 13.2272 22 13.5042Z" fill="currentColor" />
</svg>
