<svg xmlns="http://www.w3.org/2000/svg" viewBox="0 0 24 24">
    <path d="M20.64 10.5058L19 9.99601V4.99852C19.0023 4.33514 18.7395 3.6983 18.27 3.2294L17.73 2.68967C17.2643 2.24476 16.6442 1.99756 16 2.00002H8.00001C7.33629 1.99773 6.69913 2.26038 6.23001 2.72965L5.69001 3.26938C5.24487 3.73484 4.99755 4.35463 5.00001 4.99852V9.99601L3.36001 10.4858C3.09993 10.5631 2.94904 10.8337 3.02001 11.0955L4.79001 17.6522C5.50211 17.8897 6.2494 18.0046 7.00001 17.992C8.42099 17.992 9.11338 17.7172 9.77205 17.4558C10.3696 17.2186 10.9393 16.9925 12 16.9925C13.068 16.9925 13.6543 17.2218 14.2654 17.4607C14.9302 17.7206 15.6243 17.992 17 17.992C17.75 18.0078 18.4973 17.8963 19.21 17.6622L21 11.1155C21.0363 10.9868 21.0183 10.8489 20.9504 10.7337C20.8824 10.6186 20.7703 10.5362 20.64 10.5058ZM17 9.40631L16.17 9.15643L12.57 8.07697C12.1981 7.96644 11.802 7.96644 11.43 8.07697L7.00001 9.40631V4.99852H17V9.40631ZM22 20.5008V19.5013C22.0033 19.3598 21.9464 19.2235 21.8435 19.1263C21.7405 19.0291 21.6012 18.9801 21.46 18.9915C20.4146 19.0595 19.8042 19.2977 19.2231 19.5245C18.609 19.7641 18.0275 19.991 17 19.991C15.9811 19.991 15.4002 19.7666 14.7889 19.5304C14.1103 19.2682 13.3942 18.9915 12 18.9915C10.5819 18.9915 9.82249 19.2777 9.11637 19.5438C8.50294 19.775 7.92977 19.991 7.00001 19.991C5.97576 19.991 5.39475 19.7656 4.78285 19.5281C4.19992 19.302 3.58895 19.0649 2.54001 19.0015C2.40062 18.9903 2.26291 19.038 2.1603 19.133C2.05769 19.2279 1.99956 19.3615 2.00001 19.5013V20.5008C1.99871 20.7584 2.19356 20.9747 2.45001 21.0005C3.19557 21.0605 3.68593 21.2525 4.19643 21.4525C4.87734 21.7192 5.59408 22 7.00001 22C8.43987 22 9.15395 21.7199 9.82611 21.4563C10.4237 21.2219 10.9881 21.0005 12 21.0005C13.0189 21.0005 13.5998 21.225 14.2111 21.4611C14.8898 21.7233 15.6058 22 17 22C18.3922 22 19.116 21.716 19.7971 21.4487C20.3146 21.2457 20.8074 21.0523 21.55 21.0005C21.8065 20.9747 22.0013 20.7584 22 20.5008Z" fill="currentColor" fill-rule="evenodd" clip-rule="evenodd" />
</svg>
