<svg xmlns="http://www.w3.org/2000/svg" viewBox="0 0 24 24">
    <path d="M20.85 10.46C20.9495 10.8182 21 11.1882 21 11.56V19C21 19.5523 20.5523 20 20 20H19C18.4477 20 18 19.5523 18 19V18H6.00001V19C6.00001 19.5523 5.5523 20 5.00001 20H4.00001C3.44773 20 3.00001 19.5523 3.00001 19V11.56C2.99912 11.1849 3.04959 10.8114 3.15001 10.45L4.59001 5.45C4.83314 4.59977 5.60576 4.01014 6.49001 4H17.49C18.3845 4.00256 19.1685 4.59874 19.41 5.46L20.85 10.46ZM6.51001 5.75C6.3989 5.75 6.30112 5.82333 6.27001 5.93L5.11001 10H18.89L17.75 5.93C17.7189 5.82333 17.6211 5.75 17.51 5.75H6.51001ZM8.00001 14C8.00001 14.5523 7.5523 15 7.00001 15H6.00001C5.44773 15 5.00001 14.5523 5.00001 14V13C5.00001 12.4477 5.44773 12 6.00001 12H7.00001C7.5523 12 8.00001 12.4477 8.00001 13V14ZM18 15C18.5523 15 19 14.5523 19 14V13C19 12.4477 18.5523 12 18 12H17C16.4477 12 16 12.4477 16 13V14C16 14.5523 16.4477 15 17 15H18Z" fill="currentColor" fill-rule="evenodd" clip-rule="evenodd" />
</svg>
