<svg xmlns="http://www.w3.org/2000/svg" viewBox="0 0 24 24">
    <path d="M20 4C21.1046 4 22 4.89543 22 6V16C22 16.5177 21.6067 16.9438 21.1025 16.9951L21 17H20C20 18.6569 18.6569 20 17 20C15.3431 20 14 18.6569 14 17H10C10 18.6569 8.65685 20 7 20C5.34315 20 4 18.6569 4 17H3C2.44772 17 2 16.5523 2 16V12C2 10.3431 3.34315 9 5 9H8V8C8 5.79086 9.79086 4 12 4H20ZM7 16C6.44772 16 6 16.4477 6 17C6 17.5523 6.44772 18 7 18C7.55228 18 8 17.5523 8 17C8 16.4477 7.55228 16 7 16ZM17 16C16.4477 16 16 16.4477 16 17C16 17.5523 16.4477 18 17 18C17.5523 18 18 17.5523 18 17C18 16.4477 17.5523 16 17 16ZM12 6C10.8954 6 10 6.89543 10 8V15H14.7686C15.3178 14.3876 16.1126 14 17 14C17.8874 14 18.6822 14.3876 19.2314 15H20V6H12ZM5 11C4.44772 11 4 11.4477 4 12V15H4.76855C5.31781 14.3876 6.11262 14 7 14C7.351 14 7.68694 14.0631 8 14.1738V11H5Z" fill="currentColor" fill-rule="evenodd" clip-rule="evenodd" />
</svg>
