<svg xmlns="http://www.w3.org/2000/svg" viewBox="0 0 24 24">
    <path d="M11 2.5C11 2.22386 10.7762 2 10.5 2H7.50001C7.22387 2 7.00001 2.22386 7.00001 2.5V4H11V2.5ZM19.41 7.46L20.85 12.46C20.9495 12.8182 21 13.1882 21 13.56V21C21 21.5523 20.5523 22 20 22H19C18.4477 22 18 21.5523 18 21V20H6.00001V21C6.00001 21.5523 5.5523 22 5.00001 22H4.00001C3.44773 22 3.00001 21.5523 3.00001 21V13.56C2.99912 13.1849 3.04959 12.8114 3.15001 12.45L4.59001 7.45C4.83314 6.59977 5.60576 6.01014 6.49001 6H17.49C18.3845 6.00256 19.1685 6.59874 19.41 7.46ZM6.51001 7.75C6.3989 7.75 6.30112 7.82333 6.27001 7.93L5.11001 12H18.89L17.75 7.93C17.7189 7.82333 17.6211 7.75 17.51 7.75H6.51001ZM8.00001 16C8.00001 16.5523 7.5523 17 7.00001 17H6.00001C5.44773 17 5.00001 16.5523 5.00001 16V15C5.00001 14.4477 5.44773 14 6.00001 14H7.00001C7.5523 14 8.00001 14.4477 8.00001 15V16ZM18 17C18.5523 17 19 16.5523 19 16V15C19 14.4477 18.5523 14 18 14H17C16.4477 14 16 14.4477 16 15V16C16 16.5523 16.4477 17 17 17H18ZM16.5 2C16.7762 2 17 2.22386 17 2.5V4H13V2.5C13 2.22386 13.2239 2 13.5 2H16.5Z" fill="currentColor" fill-rule="evenodd" clip-rule="evenodd" />
</svg>
