<svg xmlns="http://www.w3.org/2000/svg" viewBox="0 0 24 24">
    <path d="M9.00001 4H15V2.5C15 2.22386 14.7762 2 14.5 2H9.50001C9.22387 2 9.00001 2.22386 9.00001 2.5V4ZM21 13.56C21 13.1882 20.9495 12.8182 20.85 12.46L19.41 7.46C19.1685 6.59874 18.3845 6.00256 17.49 6H6.49001C5.60576 6.01014 4.83314 6.59977 4.59001 7.45L3.15001 12.45C3.04959 12.8114 2.99912 13.1849 3.00001 13.56V21C3.00001 21.5523 3.44773 22 4.00001 22H5.00001C5.5523 22 6.00001 21.5523 6.00001 21V20H18V21C18 21.5523 18.4477 22 19 22H20C20.5523 22 21 21.5523 21 21V13.56ZM6.27001 7.93C6.30112 7.82333 6.3989 7.75 6.51001 7.75H17.51C17.6211 7.75 17.7189 7.82333 17.75 7.93L18.89 12H5.11001L6.27001 7.93ZM7.00001 17C7.5523 17 8.00001 16.5523 8.00001 16V15C8.00001 14.4477 7.5523 14 7.00001 14H6.00001C5.44773 14 5.00001 14.4477 5.00001 15V16C5.00001 16.5523 5.44773 17 6.00001 17H7.00001ZM19 16C19 16.5523 18.5523 17 18 17H17C16.4477 17 16 16.5523 16 16V15C16 14.4477 16.4477 14 17 14H18C18.5523 14 19 14.4477 19 15V16Z" fill="currentColor" fill-rule="evenodd" clip-rule="evenodd" />
</svg>
