<svg xmlns="http://www.w3.org/2000/svg" viewBox="0 0 24 24">
    <path d="M19 4.5V6C19 7.10457 18.1046 8 17 8V10H18.5C18.7761 10 19 10.2239 19 10.5V12C19 13.1046 18.1046 14 17 14V16H18.5C18.7761 16 19 16.2239 19 16.5V18C19 19.1046 18.1046 20 17 20C17 21.1046 16.1046 22 15 22H9C7.89543 22 7 21.1046 7 20C5.89543 20 5 19.1046 5 18V16.5C5 16.2239 5.22386 16 5.5 16H7V14C5.89543 14 5 13.1046 5 12V10.5C5 10.2239 5.22386 10 5.5 10H7V8C5.89543 8 5 7.10457 5 6V4.5C5 4.22386 5.22386 4 5.5 4H7C7 2.89543 7.89543 2 9 2H15C16.1046 2 17 2.89543 17 4H18.5C18.7761 4 19 4.22386 19 4.5ZM10 18C10 19.1046 10.8954 20 12 20C13.1046 20 14 19.1046 14 18C14 16.8954 13.1046 16 12 16C10.8954 16 10 16.8954 10 18ZM12 14C10.8954 14 10 13.1046 10 12C10 10.8954 10.8954 10 12 10C13.1046 10 14 10.8954 14 12C14 13.1046 13.1046 14 12 14ZM10 6C10 7.10457 10.8954 8 12 8C12.5304 8 13.0391 7.78929 13.4142 7.41421C13.7893 7.03914 14 6.53043 14 6C14 4.89543 13.1046 4 12 4C10.8954 4 10 4.89543 10 6Z" fill="currentColor" fill-rule="evenodd" clip-rule="evenodd" />
</svg>
