<svg xmlns="http://www.w3.org/2000/svg" viewBox="0 0 24 24">
    <path d="M19.27 3.27001L18.73 2.73001C18.2707 2.27024 17.6499 2.00826 17 2.00001H7.00002C6.33631 1.99772 5.69915 2.26051 5.23002 2.73001L4.69002 3.27001C4.24488 3.73571 3.99756 4.3558 4.00002 5.00001V17C3.99773 17.6637 4.26051 18.3009 4.73002 18.77L5.27002 19.31C5.73571 19.7551 6.35581 20.0025 7.00002 20H8.00002L7.00002 21.62C6.95886 21.6989 6.96094 21.7935 7.00555 21.8705C7.05015 21.9475 7.13107 21.9964 7.22002 22H8.69002C8.96033 22.0035 9.21043 21.8573 9.34002 21.62L10.28 20H13.72L14.66 21.62C14.7896 21.8573 15.0397 22.0035 15.31 22H16.75C16.839 21.9964 16.9199 21.9475 16.9645 21.8705C17.0091 21.7935 17.0112 21.6989 16.97 21.62L16 20H17C17.6637 20.0023 18.3009 19.7395 18.77 19.27L19.31 18.73C19.7552 18.2643 20.0025 17.6442 20 17V5.00001C19.9918 4.35018 19.7298 3.72932 19.27 3.27001ZM6.00002 6.00001H11V12H6.00002V6.00001ZM6.00002 16V16.5C6.00002 17.3284 6.67159 18 7.50002 18H8.00002C8.5523 18 9.00002 17.5523 9.00002 17V16C9.00002 15.4477 8.5523 15 8.00002 15H7.00002C6.44773 15 6.00002 15.4477 6.00002 16ZM18 16.5C18 17.3284 17.3284 18 16.5 18H16C15.4477 18 15 17.5523 15 17V16C15 15.4477 15.4477 15 16 15H17C17.5523 15 18 15.4477 18 16V16.5ZM13 12H18V6.00001H13V12Z" fill="currentColor" fill-rule="evenodd" clip-rule="evenodd" />
</svg>
