<svg xmlns="http://www.w3.org/2000/svg" viewBox="0 0 24 24">
    <path d="M12 2C6.47715 2 2 6.47715 2 12C2 17.5228 6.47715 22 12 22C17.5228 22 22 17.5228 22 12C22 9.34784 20.9464 6.8043 19.0711 4.92893C17.1957 3.05357 14.6522 2 12 2ZM12 20C7.58172 20 4 16.4183 4 12C4 7.58172 7.58172 4 12 4C16.4183 4 20 7.58172 20 12C20 14.1217 19.1571 16.1566 17.6569 17.6569C16.1566 19.1571 14.1217 20 12 20ZM10.231 17C9.95485 17 9.73099 16.7761 9.73099 16.5V15.4529H8.47644C8.21331 15.4529 8 15.2396 8 14.9764C8 14.7133 8.21331 14.5 8.47644 14.5H9.73099V7H15.5C15.7761 7 16 7.22386 16 7.5V8.03305C16 8.30919 15.7761 8.53305 15.5 8.53305H11.4477V11.2757H15.134C15.4102 11.2757 15.634 11.4995 15.634 11.7757V12.2525C15.634 12.5286 15.4102 12.7525 15.134 12.7525H11.4477V14.5H13.3534C13.6165 14.5 13.8298 14.7133 13.8298 14.9764C13.8298 15.2396 13.6165 15.4529 13.3534 15.4529H11.4477V16.5C11.4477 16.7761 11.2239 17 10.9477 17H10.231Z" fill="currentColor" fill-rule="evenodd" clip-rule="evenodd" />
</svg>
