<svg xmlns="http://www.w3.org/2000/svg" viewBox="0 0 24 24">
    <path d="M12 2C6.47715 2 2 6.47715 2 12C2 17.5228 6.47715 22 12 22C17.5228 22 22 17.5228 22 12C22 9.34784 20.9464 6.8043 19.0711 4.92893C17.1957 3.05357 14.6522 2 12 2ZM12 20C7.58172 20 4 16.4183 4 12C4 7.58172 7.58172 4 12 4C16.4183 4 20 7.58172 20 12C20 14.1217 19.1571 16.1566 17.6569 17.6569C16.1566 19.1571 14.1217 20 12 20ZM15.6019 10.6033C15.8218 10.6033 16 10.7815 16 11.0014C16 11.2212 15.8218 11.3995 15.6019 11.3995H8.39808C8.17823 11.3995 8 11.2212 8 11.0014C8 10.7815 8.17823 10.6033 8.39808 10.6033H12.6489C13.2258 10.5347 13.5485 10.116 13.5485 9.64242C13.5485 8.88058 12.8755 8.41386 11.921 8.41386C11.2073 8.41386 10.6882 8.70805 10.4337 9.20823C10.327 9.41791 10.1326 9.58751 9.89733 9.58751H9.18552C8.89676 9.58751 8.66324 9.34087 8.73904 9.06224C9.07081 7.84265 10.2718 7 11.9554 7C13.8987 7 15.2378 8.09128 15.2378 9.51201C15.2378 9.93754 15.0592 10.3356 14.7983 10.6033H15.6019ZM13.7364 14.686C13.8321 14.4593 14.0318 14.2752 14.2779 14.2752H14.9505C15.2398 14.2752 15.4732 14.5223 15.4043 14.8032C15.0742 16.1489 13.8358 17 12.0172 17C9.98455 17 8.64549 15.895 8.64549 14.5017C8.64549 13.9801 8.90644 13.4859 9.31845 13.2045H8.40151C8.17976 13.2045 8 13.0248 8 12.803C8 12.5813 8.17976 12.4015 8.40151 12.4015H15.5985C15.8202 12.4015 16 12.5813 16 12.803C16 13.0248 15.8202 13.2045 15.5985 13.2045H11.6189C10.733 13.2869 10.3416 13.8428 10.3416 14.3919C10.3416 15.0439 11.0077 15.5861 12.0378 15.5861C12.8633 15.5861 13.4734 15.3087 13.7364 14.686Z" fill="currentColor" fill-rule="evenodd" clip-rule="evenodd" />
</svg>
