<svg xmlns="http://www.w3.org/2000/svg" viewBox="0 0 24 24">
    <path d="M12 2C6.47715 2 2 6.47715 2 12C2 17.5228 6.47715 22 12 22C17.5228 22 22 17.5228 22 12C22 9.34784 20.9464 6.8043 19.0711 4.92893C17.1957 3.05357 14.6522 2 12 2ZM12 20C7.58172 20 4 16.4183 4 12C4 7.58172 7.58172 4 12 4C16.4183 4 20 7.58172 20 12C20 14.1217 19.1571 16.1566 17.6569 17.6569C16.1566 19.1571 14.1217 20 12 20ZM16 12.1472C16 11.8711 15.7761 11.6472 15.5 11.6472H15.1866C14.9105 11.6472 14.6866 11.8711 14.6866 12.1472V12.2442C14.6866 13.4428 14.4551 14.3496 13.9921 14.9647C13.5 15.4999 12.869 15.6446 11.998 15.6536V12.1967L13.4299 11.5495C13.6089 11.4686 13.724 11.2903 13.724 11.0939V10.9837C13.724 10.6205 13.349 10.3785 13.018 10.5281L11.998 10.9891V9.95115L13.4299 9.30388C13.6089 9.22296 13.724 9.04472 13.724 8.84827V8.7381C13.724 8.3749 13.349 8.13288 13.018 8.28248L11.998 8.74356V7.49997C11.998 7.22384 11.7742 6.99999 11.4981 6.99997L11 6.99994C10.7239 6.99992 10.5 7.22379 10.5 7.49994V9.34048L9.27564 9.95522C9.10666 10.0401 9 10.213 9 10.4021V10.4907C9 10.8627 9.39186 11.1045 9.72436 10.9375L10.5 10.5481V11.5861L9.27564 12.2008C9.10666 12.2857 9 12.4586 9 12.6477V12.7363C9 13.1083 9.39186 13.3501 9.72435 13.1831L10.5 12.7937V14.8357V16.8778C10.9951 16.9592 11.6038 17 11.9705 17C12.7728 17 13.4764 16.8123 14.0815 16.4369C14.6912 16.0615 15.1611 15.521 15.4912 14.8155C15.8212 14.1054 15.9908 13.2754 16 12.3256V12.1472Z" fill="currentColor" fill-rule="evenodd" clip-rule="evenodd" />
</svg>
