<svg xmlns="http://www.w3.org/2000/svg" viewBox="0 0 24 24">
    <path d="M12 2C6.47715 2 2 6.47715 2 12C2 17.5228 6.47715 22 12 22C17.5228 22 22 17.5228 22 12C22 9.34784 20.9464 6.8043 19.0711 4.92893C17.1957 3.05357 14.6522 2 12 2ZM12 20C7.58172 20 4 16.4183 4 12C4 7.58172 7.58172 4 12 4C16.4183 4 20 7.58172 20 12C20 14.1217 19.1571 16.1566 17.6569 17.6569C16.1566 19.1571 14.1217 20 12 20ZM14.75 14.25H15.5C15.7723 14.2499 15.9946 14.4678 16 14.74V14.99C16 16.0946 15.1046 16.99 14 16.99H9.72C9.58017 16.9886 9.4468 16.9309 9.35 16.83L9.09 16.54C8.95775 16.3927 8.92266 16.1822 9 16C9.38013 15.2114 9.63325 14.3676 9.75 13.5C9.7492 13.3316 9.72907 13.1638 9.69 13H8.5C8.22386 13 8 12.7761 8 12.5V11.5C8 11.2239 8.22386 11 8.5 11H9.14C9.05494 10.6732 9.00796 10.3376 9 10C8.83431 8.34591 10.0409 6.87069 11.695 6.705C13.3491 6.53931 14.8243 7.74591 14.99 9.4C15.0178 9.54785 14.9814 9.70054 14.89 9.82C14.7912 9.93235 14.6496 9.99773 14.5 10H13.73C13.5078 10 13.3122 9.85333 13.25 9.64C13.0753 9.04092 12.4856 8.66242 11.8682 8.75314C11.2508 8.84386 10.7949 9.376 10.8 10C10.8246 10.3404 10.8918 10.6763 11 11H12.5C12.7761 11 13 11.2239 13 11.5V12.5C13 12.7761 12.7761 13 12.5 13H11.5C11.5102 13.1665 11.5102 13.3335 11.5 13.5C11.468 14.098 11.3467 14.6879 11.14 15.25H14C14.1381 15.25 14.25 15.1381 14.25 15V14.75C14.25 14.4739 14.4739 14.25 14.75 14.25Z" fill="currentColor" fill-rule="evenodd" clip-rule="evenodd" />
</svg>
