<svg xmlns="http://www.w3.org/2000/svg" viewBox="0 0 24 24">
    <path d="M12 2C6.47715 2 2 6.47715 2 12C2 17.5228 6.47715 22 12 22C17.5228 22 22 17.5228 22 12C22 9.34784 20.9464 6.8043 19.0711 4.92893C17.1957 3.05357 14.6522 2 12 2ZM12 20C7.58172 20 4 16.4183 4 12C4 7.58172 7.58172 4 12 4C16.4183 4 20 7.58172 20 12C20 14.1217 19.1571 16.1566 17.6569 17.6569C16.1566 19.1571 14.1217 20 12 20ZM15.0655 12.4571C14.4425 13.0571 13.6779 13.3571 12.7858 13.3571H10.7611V14.3143H13.7885C13.9542 14.3143 14.0885 14.4486 14.0885 14.6143V15.1286C14.0885 15.2943 13.9542 15.4286 13.7885 15.4286H10.7611V16.7C10.7611 16.8657 10.6267 17 10.4611 17H9.43274C9.26706 17 9.13274 16.8657 9.13274 16.7V15.4286H8.3C8.13431 15.4286 8 15.2943 8 15.1286V14.6143C8 14.4486 8.13431 14.3143 8.3 14.3143H9.13274V13.3571H8.3C8.13431 13.3571 8 13.2228 8 13.0571V12.1857C8 12.02 8.13431 11.8857 8.3 11.8857H9.13274V7.3C9.13274 7.13431 9.26706 7 9.43274 7H12.7858C13.6779 7 14.4425 7.31429 15.0655 7.94286C15.6885 8.55714 16 9.31429 16 10.2143C16 11.1 15.6885 11.8429 15.0655 12.4571ZM13.9044 9.02857C13.6071 8.7 13.2248 8.54286 12.7858 8.54286H10.7611V11.8857H12.7858C13.2248 11.8857 13.6071 11.7286 13.9044 11.4C14.2159 11.0714 14.3717 10.6857 14.3717 10.2143C14.3717 9.74286 14.2159 9.35714 13.9044 9.02857Z" fill="currentColor" fill-rule="evenodd" clip-rule="evenodd" />
</svg>
