<svg xmlns="http://www.w3.org/2000/svg" viewBox="0 0 24 24">
    <path d="M12 2C6.47715 2 2 6.47715 2 12C2 17.5228 6.47715 22 12 22C17.5228 22 22 17.5228 22 12C22 9.34784 20.9464 6.8043 19.0711 4.92893C17.1957 3.05357 14.6522 2 12 2ZM12 20C7.58172 20 4 16.4183 4 12C4 7.58172 7.58172 4 12 4C16.4183 4 20 7.58172 20 12C20 14.1217 19.1571 16.1566 17.6569 17.6569C16.1566 19.1571 14.1217 20 12 20ZM11.4078 7C13.0044 7 13.7184 7.85877 13.7184 9.86018V13.4837C13.7184 13.7598 13.4946 13.9837 13.2184 13.9837H13.0399C12.7638 13.9837 12.5399 13.7598 12.5399 13.4837V10.1938C12.5399 8.89496 12.1451 8.5472 11.0769 8.5472H9.20755V16.5C9.20755 16.7761 8.98369 17 8.70755 17H8.5C8.22386 17 8 16.7761 8 16.5V7H11.4078ZM16 7.5V13.9624C16 16.0916 15.3846 17 13.8578 17H10.2874V10.5163C10.2874 10.2402 10.5112 10.0163 10.7874 10.0163H10.9601C11.2362 10.0163 11.4601 10.2402 11.4601 10.5163V15.4528H13.4862C14.5486 15.4528 14.7925 15.1973 14.7925 13.7708V7.5C14.7925 7.22386 15.0163 7 15.2925 7H15.5C15.7761 7 16 7.22386 16 7.5Z" fill="currentColor" fill-rule="evenodd" clip-rule="evenodd" />
</svg>
