<svg xmlns="http://www.w3.org/2000/svg" viewBox="0 0 24 24">
    <path d="M20 11.5V10.5C20 10.2239 19.7761 10 19.5 10H13V6H17.5C17.7761 6 18 5.77614 18 5.5V4.5C18 4.22386 17.7761 4 17.5 4H6.5C6.22386 4 6 4.22386 6 4.5V5.5C6 5.77614 6.22386 6 6.5 6H11V10H4.5C4.22386 10 4 10.2239 4 10.5V11.5C4 11.7761 4.22386 12 4.5 12H19.5C19.7761 12 20 11.7761 20 11.5ZM11.5 19C11.2239 19 11 18.7761 11 18.5V14H13V18.5C13 18.7761 12.7761 19 12.5 19H11.5Z" fill="currentColor" fill-rule="evenodd" clip-rule="evenodd" />
    <path d="M16.1515 20.8015L16.6815 21.3315C16.7723 21.4282 16.8989 21.483 17.0315 21.483C17.1641 21.483 17.2908 21.4282 17.3815 21.3315L19.2415 19.4815L21.1015 21.3315C21.1923 21.4282 21.3189 21.483 21.4515 21.483C21.5841 21.483 21.7108 21.4282 21.8015 21.3315L22.3315 20.8015C22.4282 20.7108 22.483 20.5841 22.483 20.4515C22.483 20.3189 22.4282 20.1923 22.3315 20.1015L20.4815 18.2415L22.3315 16.3815C22.4282 16.2908 22.483 16.1641 22.483 16.0315C22.483 15.8989 22.4282 15.7723 22.3315 15.6815L21.8015 15.1515C21.7108 15.0548 21.5841 15 21.4515 15C21.3189 15 21.1923 15.0548 21.1015 15.1515L19.2415 17.0015L17.3815 15.1515C17.2908 15.0548 17.1641 15 17.0315 15C16.8989 15 16.7723 15.0548 16.6815 15.1515L16.1515 15.6815C16.0548 15.7723 16 15.8989 16 16.0315C16 16.1641 16.0548 16.2908 16.1515 16.3815L18.0015 18.2415L16.1515 20.1015C16.0548 20.1923 16 20.3189 16 20.4515C16 20.5841 16.0548 20.7108 16.1515 20.8015Z" fill="currentColor" />
</svg>
