<svg xmlns="http://www.w3.org/2000/svg" viewBox="0 0 24 24">
    <path d="M9 2.55556L8.42353 8H4.44444C4.19898 8 4 8.22386 4 8.5V9.5C4 9.77614 4.19898 10 4.44444 10H8.21176L7.78824 14H4.44444C4.19898 14 4 14.2239 4 14.5V15.5C4 15.7761 4.19898 16 4.44444 16H7.57647L7 21.4444C7 21.7513 7.22386 22 7.5 22H8.5C8.77614 22 9 21.7513 9 21.4444L9.57647 16H13.5765L13 21.4444C13 21.7513 13.2239 22 13.5 22H14.5C14.7761 22 15 21.7513 15 21.4444L15.5765 16H19.5556C19.801 16 20 15.7761 20 15.5V14.5C20 14.2239 19.801 14 19.5556 14H15.7882L16.2118 10H19.5556C19.801 10 20 9.77614 20 9.5V8.5C20 8.22386 19.801 8 19.5556 8H16.4235L17 2.55556C17 2.24873 16.7761 2 16.5 2H15.5C15.2239 2 15 2.24873 15 2.55556L14.4235 8H10.4235L11 2.55556C11 2.24873 10.7761 2 10.5 2H9.5C9.22386 2 9 2.24873 9 2.55556ZM14.2118 10H10.2118L9.78824 14H13.7882L14.2118 10Z" fill="currentColor" fill-rule="evenodd" clip-rule="evenodd" />
</svg>
