<svg xmlns="http://www.w3.org/2000/svg" viewBox="0 0 24 24">
    <path d="M16 11H20C20.5523 11 21 10.5523 21 10V4C21 3.44772 20.5523 3 20 3L16 3C15.4477 3 15 3.44772 15 4L15 10C15 10.5523 15.4477 11 16 11ZM13 4L13 10C13 10.5523 12.5523 11 12 11H4C3.44772 11 3 10.5523 3 10L3 4C3 3.44772 3.44772 3 4 3L12 3C12.5523 3 13 3.44772 13 4ZM9 20L9 14C9 13.4477 8.55229 13 8 13H4C3.44772 13 3 13.4477 3 14L3 20C3 20.5523 3.44772 21 4 21H8C8.55229 21 9 20.5523 9 20ZM21 14V20C21 20.5523 20.5523 21 20 21H12C11.4477 21 11 20.5523 11 20V14C11 13.4477 11.4477 13 12 13L20 13C20.5523 13 21 13.4477 21 14Z" fill="currentColor" fill-rule="evenodd" clip-rule="evenodd" />
</svg>
