<svg xmlns="http://www.w3.org/2000/svg" viewBox="0 0 24 24">
    <path d="M2.29883 3.40625L2.29883 2.28125C2.29883 2.12592 2.41688 2 2.5625 2H4.26758H5.39258H5.41016C5.4817 2 5.54659 2.03039 5.59409 2.07974C5.64343 2.12724 5.67383 2.19213 5.67383 2.26367V2.28123V2.28125V3.40625V3.40645L5.67383 9.3125H7.36133C7.50695 9.3125 7.625 9.43842 7.625 9.59375V10.7188C7.625 10.8741 7.50695 11 7.36133 11H5.39258H4.26758H2.26367C2.11805 11 2 10.8741 2 10.7188V9.59375C2 9.43842 2.11805 9.3125 2.26367 9.3125H3.98633L3.98633 3.6875H2.5625C2.41688 3.6875 2.29883 3.56158 2.29883 3.40625ZM21.3926 13H20.2676C20.1331 13 20.0207 13.0884 19.9929 13.2067L16.5001 17H16.5C16.4543 17 16.4113 17.0124 16.3739 17.0342C16.2919 17.0819 16.2363 17.1747 16.2363 17.2812V18.4062C16.2363 18.5616 16.3544 18.6875 16.5 18.6875H19.9863V21.7363C19.9863 21.882 20.1122 22 20.2676 22H21.3926C21.5479 22 21.6738 21.882 21.6738 21.7363V13.2637C21.6738 13.118 21.5479 13 21.3926 13ZM19.9863 17V15.6804L18.6607 17H19.9863ZM5.21213 18.233L6.06066 19.0815C6.17782 19.1987 6.37537 19.1911 6.5019 19.0646L18.7716 6.79485C18.8981 6.66832 18.9057 6.47077 18.7886 6.35361L17.9401 5.50508C17.8229 5.38793 17.6253 5.39553 17.4988 5.52206L5.22911 17.7918C5.10258 17.9183 5.09497 18.1158 5.21213 18.233Z" fill="currentColor" fill-rule="evenodd" clip-rule="evenodd" />
</svg>
