<svg xmlns="http://www.w3.org/2000/svg" viewBox="0 0 24 24">
    <path d="M20 11.5V10.5C20 10.2239 19.7761 10 19.5 10H13V6H17.5C17.7761 6 18 5.77614 18 5.5V4.5C18 4.22386 17.7761 4 17.5 4H6.5C6.22386 4 6 4.22386 6 4.5V5.5C6 5.77614 6.22386 6 6.5 6H11V10H4.5C4.22386 10 4 10.2239 4 10.5V11.5C4 11.7761 4.22386 12 4.5 12H19.5C19.7761 12 20 11.7761 20 11.5ZM11.5 19C11.2239 19 11 18.7761 11 18.5V14H13V18.5C13 18.7761 12.7761 19 12.5 19H11.5Z" fill="currentColor" fill-rule="evenodd" clip-rule="evenodd" />
</svg>
