<svg xmlns="http://www.w3.org/2000/svg" viewBox="0 0 24 24">
    <path d="M22.5 18H20.3936L19.4658 14.8984H15.4277L14.4844 18H12.5L16.3936 6H18.5986L22.5 18ZM15.8838 13.2432H19.0098L17.5186 8.25391H17.3896L15.8838 13.2432Z" fill="currentColor" />
    <path d="M6.56543 6C6.74937 6.00019 6.89844 6.15751 6.89844 6.35156V16H9.625C9.83198 16 9.9998 16.1491 10 16.333V17.667C9.9998 17.8509 9.83198 18 9.625 18H2.375C2.16802 18 2.0002 17.8509 2 17.667V16.333C2.0002 16.1491 2.16802 16 2.375 16H4.89844V8H2.85254C2.68027 7.99973 2.5402 7.85077 2.54004 7.66699V6.33301C2.5402 6.14923 2.68027 6.00027 2.85254 6H6.56543Z" fill="currentColor" />
</svg>
