<svg xmlns="http://www.w3.org/2000/svg" viewBox="0 0 24 24">
    <path d="M15.5 4H16.5C16.7761 4 17 4.22386 17 4.5V10C17 12.7614 14.7614 15 12 15C9.23858 15 7 12.7614 7 10V4.5C7 4.22386 7.22386 4 7.5 4H8.5C8.77614 4 9 4.22386 9 4.5V10C9 11.6569 10.3431 13 12 13C13.6569 13 15 11.6569 15 10V4.5C15 4.22386 15.2239 4 15.5 4ZM19 18.5V17.5C19 17.2239 18.7761 17 18.5 17H5.5C5.22386 17 5 17.2239 5 17.5V18.5C5 18.7761 5.22386 19 5.5 19H18.5C18.7761 19 19 18.7761 19 18.5Z" fill="currentColor" fill-rule="evenodd" clip-rule="evenodd" />
</svg>
