<svg xmlns="http://www.w3.org/2000/svg" viewBox="0 0 24 24">
    <path d="M3.5 3H20.5C20.7761 3 21 3.22386 21 3.5V4.5C21 4.77614 20.7761 5 20.5 5H3.5C3.22386 5 3 4.77614 3 4.5V3.5C3 3.22386 3.22386 3 3.5 3ZM15.4633 10.695C15.5421 10.5091 15.5013 10.2942 15.36 10.15L12.36 7.15C12.1622 6.95822 11.8478 6.95822 11.65 7.15L8.65 10.15C8.50994 10.2929 8.46851 10.5054 8.54468 10.6904C8.62086 10.8754 8.79996 10.9972 9 11H11V20.5C11 20.7761 11.2239 21 11.5 21H12.5C12.7761 21 13 20.7761 13 20.5V11H15C15.2019 11.0012 15.3846 10.8809 15.4633 10.695Z" fill="currentColor" fill-rule="evenodd" clip-rule="evenodd" />
</svg>
