<svg xmlns="http://www.w3.org/2000/svg" viewBox="0 0 24 24">
    <path d="M12.36 8.86C12.1622 9.05178 11.8478 9.05178 11.65 8.86L8.65 5.85C8.50994 5.70715 8.46851 5.49456 8.54468 5.30958C8.62086 5.12459 8.79996 5.00281 9 5H11V2.5C11 2.22386 11.2239 2 11.5 2H12.5C12.7761 2 13 2.22386 13 2.5V5H15C15.2063 4.99455 15.3947 5.1164 15.4744 5.30676C15.5541 5.49711 15.5087 5.71687 15.36 5.86L12.36 8.86ZM20.5 11H3.5C3.22386 11 3 11.2239 3 11.5V12.5C3 12.7761 3.22386 13 3.5 13H20.5C20.7761 13 21 12.7761 21 12.5V11.5C21 11.2239 20.7761 11 20.5 11ZM15.36 18.15C15.5013 18.2942 15.5421 18.5091 15.4633 18.695C15.3846 18.8809 15.2019 19.0012 15 19H13V21.5C13 21.7761 12.7761 22 12.5 22H11.5C11.2239 22 11 21.7761 11 21.5V19H9C8.79996 18.9972 8.62086 18.8754 8.54468 18.6904C8.46851 18.5054 8.50994 18.2929 8.65 18.15L11.65 15.15C11.8478 14.9582 12.1622 14.9582 12.36 15.15L15.36 18.15Z" fill="currentColor" fill-rule="evenodd" clip-rule="evenodd" />
</svg>
