<svg xmlns="http://www.w3.org/2000/svg" viewBox="0 0 24 24">
    <path d="M14 2V2.5C14 2.77614 13.7762 3 13.5 3H10.5C10.2239 3 10 2.77614 10 2.5V2C10 1.44772 10.4477 1 11 1H13C13.5523 1 14 1.44772 14 2ZM15.58 11.16L14.63 9.27C14.2174 8.4332 14.0019 7.51301 14 6.58V5.5C14 5.22386 13.7762 5 13.5 5H10.5C10.2239 5 10 5.22386 10 5.5V6.58C9.99817 7.51301 9.78266 8.4332 9.37003 9.27L8.42003 11.16C8.14164 11.7119 7.99772 12.3219 8.00003 12.94V22C8.00003 22.5523 8.44774 23 9.00003 23H15C15.5523 23 16 22.5523 16 22V12.94C16.0023 12.3219 15.8584 11.7119 15.58 11.16ZM13.5 20H10.5C10.2239 20 10 19.7761 10 19.5V14.5C10 14.2239 10.2239 14 10.5 14H13.5C13.7762 14 14 14.2239 14 14.5V19.5C14 19.7761 13.7762 20 13.5 20Z" fill="currentColor" fill-rule="evenodd" clip-rule="evenodd" />
</svg>
