<svg xmlns="http://www.w3.org/2000/svg" viewBox="0 0 24 24">
    <path d="M15.0045 3C14.2439 3.00325 13.4905 3.14911 12.7837 3.43C11.823 3.80971 10.9781 4.43363 10.3328 5.24C7.7918 8.29 9.50245 11 7.49169 13C7.15089 13.3431 7.15089 13.8969 7.49169 14.24L7.57172 14.32L6.00113 15.85C5.73543 16.1049 5.35114 16.1932 5.00075 16.08C4.83945 16.0265 4.67053 15.9994 4.50056 16C3.67183 16 3 16.6716 3 17.5C3 18.3284 3.67183 19 4.50056 19C4.77458 19.0053 4.99543 19.2261 5.00075 19.5C5.00075 20.3284 5.67258 21 6.50132 21C7.33006 21 8.00188 20.3284 8.00188 19.5C8.00244 19.3301 7.97542 19.1612 7.92185 19C7.80858 18.6497 7.89697 18.2656 8.15194 18L9.70252 16.43L9.78255 16.51C10.1258 16.8507 10.6797 16.8507 11.023 16.51C13.0238 14.51 15.7148 16.21 18.7659 13.67C20.7455 12.0738 21.5038 9.40369 20.6585 7.00585C19.8132 4.608 17.5478 3.00301 15.0045 3Z" fill="currentColor" />
</svg>
