<svg xmlns="http://www.w3.org/2000/svg" viewBox="0 0 24 24">
    <path d="M20.4961 3.22L20.7557 3.48C20.9598 3.66709 21.0443 3.95163 20.9754 4.22L16.3018 20.28C16.1736 20.7213 15.7617 21.0183 15.3031 21H15.2332C11.1687 21 2.99982 12.32 2.99982 8.79V8.72C2.98157 8.26083 3.27818 7.84831 3.71884 7.72L19.7671 3H19.9768C20.1719 3.0028 20.3582 3.08173 20.4961 3.22ZM7.99304 10.5C7.99304 11.3284 8.6637 12 9.49101 12C10.3183 12 10.989 11.3284 10.989 10.5C10.989 9.67157 10.3183 9 9.49101 9C8.6637 9 7.99304 9.67157 7.99304 10.5ZM13.9849 16C12.8818 16 11.9876 15.1046 11.9876 14C11.9876 12.8954 12.8818 12 13.9849 12C15.088 12 15.9822 12.8954 15.9822 14C15.9822 15.1046 15.088 16 13.9849 16ZM13.0961 7.06C13.3241 7.62743 13.8734 7.99937 14.4842 8C15.3115 8 15.9822 7.32843 15.9822 6.5C15.992 6.41027 15.992 6.31973 15.9822 6.23L13.0961 7.06Z" fill="currentColor" fill-rule="evenodd" clip-rule="evenodd" />
</svg>
