<svg xmlns="http://www.w3.org/2000/svg" viewBox="0 0 24 24">
    <path d="M13.5 3H10.5C10.2239 3 10 2.77614 10 2.5V2C10 1.44772 10.4477 1 11 1H13C13.5523 1 14 1.44772 14 2V2.5C14 2.77614 13.7761 3 13.5 3ZM16 10V7C16 5.89543 15.1046 5 14 5H10C8.89543 5 8 5.89543 8 7V10C8 10.5523 8.44772 11 9 11V12.94C8.44772 12.94 8 13.3877 8 13.94V22C8 22.5523 8.44772 23 9 23H15C15.5523 23 16 22.5523 16 22V13.94C16 13.3877 15.5523 12.94 15 12.94V11C15.5523 11 16 10.5523 16 10ZM13.5 19H10.5C10.2239 19 10 18.7761 10 18.5V15.5C10 15.2239 10.2239 15 10.5 15H13.5C13.7761 15 14 15.2239 14 15.5V18.5C14 18.7761 13.7761 19 13.5 19Z" fill="currentColor" fill-rule="evenodd" clip-rule="evenodd" />
</svg>
