<svg xmlns="http://www.w3.org/2000/svg" viewBox="0 0 24 24">
    <path d="M14 2V2.5C14 2.77614 13.7761 3 13.5 3H10.5C10.2239 3 10 2.77614 10 2.5V2C10 1.44772 10.4477 1 11 1H13C13.5523 1 14 1.44772 14 2ZM14 8V5.5C14 5.22386 13.7761 5 13.5 5H10.5C10.2239 5 10 5.22386 10 5.5V8C8.89543 8 8 8.89543 8 10V22C8 22.5523 8.44772 23 9 23H15C15.5523 23 16 22.5523 16 22V10C16 8.89543 15.1046 8 14 8ZM13.5 18H10.5C10.2239 18 10 17.7761 10 17.5V12.5C10 12.2239 10.2239 12 10.5 12H13.5C13.7761 12 14 12.2239 14 12.5V17.5C14 17.7761 13.7761 18 13.5 18Z" fill="currentColor" fill-rule="evenodd" clip-rule="evenodd" />
</svg>
