<svg xmlns="http://www.w3.org/2000/svg" viewBox="0 0 24 24">
    <path d="M20 10C20 5.58172 16.4183 2 12 2C7.58172 2 4 5.58172 4 10C4 13.7448 5.83051 15.2169 7.52961 16.5833C8.65265 17.4865 9.71829 18.3434 10.16 19.78L10.67 21.32C10.813 21.7454 11.2218 22.0234 11.67 22H12.23C12.6782 22.0234 13.087 21.7454 13.23 21.32L13.74 19.78C14.2178 18.3544 15.2945 17.4996 16.4226 16.604C18.151 15.2317 20 13.7637 20 10ZM12 4C8.68629 4 6 6.68629 6 10C6 12.8 7.18 13.74 8.82 15C10.1988 15.9318 11.2981 17.2212 12 18.73C12.7053 17.2233 13.8039 15.9348 15.18 15C16.82 13.74 18 12.8 18 10C18 6.68629 15.3137 4 12 4ZM15.09 8.14L13.24 10L15.09 11.86C15.1867 11.9507 15.2415 12.0774 15.2415 12.21C15.2415 12.3426 15.1867 12.4693 15.09 12.56L14.56 13.09C14.4693 13.1867 14.3426 13.2415 14.21 13.2415C14.0774 13.2415 13.9507 13.1867 13.86 13.09L12 11.24L10.14 13.09C10.0493 13.1867 9.92259 13.2415 9.79 13.2415C9.65741 13.2415 9.53073 13.1867 9.44 13.09L8.91 12.56C8.81332 12.4693 8.75848 12.3426 8.75848 12.21C8.75848 12.0774 8.81332 11.9507 8.91 11.86L10.76 10L8.91 8.14C8.81332 8.04927 8.75848 7.92259 8.75848 7.79C8.75848 7.65741 8.81332 7.53073 8.91 7.44L9.44 6.91C9.53073 6.81332 9.65741 6.75848 9.79 6.75848C9.92259 6.75848 10.0493 6.81332 10.14 6.91L12 8.76L13.86 6.91C13.9507 6.81332 14.0774 6.75848 14.21 6.75848C14.3426 6.75848 14.4693 6.81332 14.56 6.91L15.09 7.44C15.1867 7.53073 15.2415 7.65741 15.2415 7.79C15.2415 7.92259 15.1867 8.04927 15.09 8.14Z" fill="currentColor" fill-rule="evenodd" clip-rule="evenodd" />
</svg>
