<svg xmlns="http://www.w3.org/2000/svg" viewBox="0 0 24 24">
    <path d="M20.7041 7.5005L16.514 3.29067C16.3282 3.10549 16.0774 3.00109 15.8157 2.99999C15.3739 2.97378 14.9678 3.24311 14.8181 3.66153L14.3592 5.1049C14.2149 5.51499 13.9418 5.8668 13.581 6.10725L10.3886 8.24224C9.89149 8.58221 9.30397 8.76384 8.70262 8.76345H7.21616C6.95658 8.7511 6.70245 8.84101 6.50784 9.01404L6.09882 9.43502C5.71201 9.82597 5.71201 10.4574 6.09882 10.8483L13.152 17.9349C13.3403 18.1225 13.5952 18.2271 13.8604 18.2256C14.1221 18.2245 14.3729 18.1201 14.5587 17.9349L14.9777 17.5239C15.1644 17.3348 15.2685 17.0787 15.267 16.8123V15.3488C15.2666 14.7446 15.4474 14.1544 15.7858 13.6549L17.9107 10.4474C18.15 10.0849 18.5002 9.81053 18.9083 9.66556L20.3449 9.15437C20.6657 9.03652 20.9042 8.76195 20.9771 8.42664C21.0499 8.09133 20.9469 7.7419 20.7041 7.5005ZM16.544 8.88373L12.7031 14.6873L9.36106 11.3294L15.1373 7.47043L16.4941 6.10725L17.9007 7.52055L16.544 8.88373ZM3.7943 18.4761C3.94741 18.1001 4.17479 17.7591 4.46271 17.4738L7.37578 14.547L9.39098 16.6519L6.48789 19.5687C6.20392 19.858 5.86455 20.0864 5.49026 20.2403L3.68456 20.962C3.49921 21.0369 3.28723 20.9935 3.14584 20.8517C3.00467 20.7096 2.96149 20.4967 3.0361 20.3104L3.7943 18.4761Z" fill="currentColor" fill-rule="evenodd" clip-rule="evenodd" />
</svg>
