<svg xmlns="http://www.w3.org/2000/svg" viewBox="0 0 24 24">
    <path d="M14.64 10.66L19.55 11.2C19.8065 11.2258 20.0013 11.4423 20 11.7V12.3C20.0013 12.5577 19.8065 12.7742 19.55 12.8L14.64 13.34C14.4092 13.363 14.1936 13.4655 14.03 13.63L13.65 14.03C13.4892 14.195 13.3903 14.4105 13.37 14.64L12.79 21.54C12.7691 21.8004 12.5513 22.0008 12.29 22H11.71C11.4488 22.0008 11.2309 21.8004 11.21 21.54L10.63 14.64C10.6097 14.4105 10.5108 14.195 10.35 14.03L9.97001 13.63C9.80646 13.4655 9.59082 13.363 9.36001 13.34L4.45001 12.8C4.19356 12.7742 3.99871 12.5577 4.00001 12.3V11.7C3.99871 11.4423 4.19356 11.2258 4.45001 11.2L9.36001 10.66C9.59082 10.637 9.80646 10.5345 9.97001 10.37L10.35 9.97C10.5108 9.805 10.6097 9.58952 10.63 9.36L11.21 2.46C11.2309 2.19959 11.4488 1.99917 11.71 2H12.29C12.5513 1.99917 12.7691 2.19959 12.79 2.46L13.37 9.36C13.3903 9.58952 13.4892 9.805 13.65 9.97L14.03 10.37C14.1936 10.5345 14.4092 10.637 14.64 10.66ZM16.27 8.37L15.63 7.73C15.5257 7.63524 15.4663 7.50089 15.4663 7.36C15.4663 7.21911 15.5257 7.08476 15.63 6.99L17.19 5.7C17.3836 5.52684 17.6764 5.52684 17.87 5.7L18.28 6.11C18.4532 6.3036 18.4532 6.59641 18.28 6.79L17 8.34C16.9097 8.44497 16.7799 8.50779 16.6415 8.51347C16.5032 8.51916 16.3686 8.46721 16.27 8.37ZM7.00001 15.66L5.70001 17.19C5.52685 17.3836 5.52685 17.6764 5.70001 17.87L6.11001 18.28C6.3036 18.4532 6.59641 18.4532 6.79001 18.28L8.34001 17C8.44426 16.9052 8.5037 16.7709 8.5037 16.63C8.5037 16.4891 8.44426 16.3548 8.34001 16.26L7.70001 15.62C7.49485 15.4401 7.18334 15.4579 7.00001 15.66ZM17.19 18.29L15.66 17C15.4579 16.8167 15.4401 16.5052 15.62 16.3L16.26 15.66C16.3548 15.5557 16.4891 15.4963 16.63 15.4963C16.7709 15.4963 16.9052 15.5557 17 15.66L18.28 17.2C18.4532 17.3936 18.4532 17.6864 18.28 17.88L17.87 18.29C17.6764 18.4632 17.3836 18.4632 17.19 18.29ZM8.34001 7L6.81001 5.7C6.61641 5.52684 6.3236 5.52684 6.13001 5.7L5.72001 6.11C5.54685 6.3036 5.54685 6.59641 5.72001 6.79L7.00001 8.34C7.09477 8.44426 7.22912 8.5037 7.37001 8.5037C7.51089 8.5037 7.64524 8.44426 7.74001 8.34L8.38001 7.7C8.55991 7.49484 8.54211 7.18333 8.34001 7Z" fill="currentColor" fill-rule="evenodd" clip-rule="evenodd" />
</svg>
