<svg xmlns="http://www.w3.org/2000/svg" viewBox="0 0 24 24">
    <path d="M3.5 9H4.5C4.77614 9 5 8.77614 5 8.5V5H8.5C8.77614 5 9 4.77614 9 4.5V3.5C9 3.22386 8.77614 3 8.5 3H5C3.89543 3 3 3.89543 3 5V8.5C3 8.77614 3.22386 9 3.5 9ZM15.5 13H13V15.5C13 15.7761 12.7761 16 12.5 16H11.5C11.2239 16 11 15.7761 11 15.5V13H8.5C8.22386 13 8 12.7761 8 12.5V11.5C8 11.2239 8.22386 11 8.5 11H11V8.5C11 8.22386 11.2239 8 11.5 8H12.5C12.7761 8 13 8.22386 13 8.5V11H15.5C15.7761 11 16 11.2239 16 11.5V12.5C16 12.7761 15.7761 13 15.5 13ZM5 19H8.5C8.77614 19 9 19.2239 9 19.5V20.5C9 20.7761 8.77614 21 8.5 21H5C3.89543 21 3 20.1046 3 19V15.5C3 15.2239 3.22386 15 3.5 15H4.5C4.77614 15 5 15.2239 5 15.5V19ZM19 3H15.5C15.2239 3 15 3.22386 15 3.5V4.5C15 4.77614 15.2239 5 15.5 5H19V8.5C19 8.77614 19.2239 9 19.5 9H20.5C20.7761 9 21 8.77614 21 8.5V5C21 3.89543 20.1046 3 19 3ZM19.5 15H20.5C20.7761 15 21 15.2239 21 15.5V19C21 20.1046 20.1046 21 19 21H15.5C15.2239 21 15 20.7761 15 20.5V19.5C15 19.2239 15.2239 19 15.5 19H19V15.5C19 15.2239 19.2239 15 19.5 15Z" fill="currentColor" fill-rule="evenodd" clip-rule="evenodd" />
</svg>
