<svg xmlns="http://www.w3.org/2000/svg" viewBox="0 0 24 24">
    <path d="M12.0001 4.32998L10.9101 5.40998C10.5773 5.74952 10.2768 6.07523 9.98045 6.39651C9.84039 6.54832 9.70125 6.69915 9.56005 6.84998L8.14005 5.42998C8.59005 4.92998 9.05005 4.44998 9.50005 3.99998L11.3201 2.21998C11.4606 2.07928 11.6512 2.00015 11.8501 1.99998H12.1501C12.3433 1.98933 12.5332 2.05383 12.6801 2.17998L14.5001 3.99998C17.1401 6.63998 20.0001 10.19 20.0001 14C20.0059 14.9634 19.833 15.9196 19.4901 16.82L12.0001 9.32998V4.32998ZM20.8501 20.62L4.38005 4.14998C4.28932 4.0533 4.16264 3.99846 4.03005 3.99846C3.89747 3.99846 3.77079 4.0533 3.68005 4.14998L3.15005 4.67998C3.05338 4.77071 2.99854 4.89739 2.99854 5.02998C2.99854 5.16256 3.05338 5.28924 3.15005 5.37998L6.00005 8.21998C4.78934 9.91315 4.09471 11.9206 4.00005 14C4.00442 17.2014 5.91698 20.092 8.86183 21.3478C11.8067 22.6037 15.2166 21.983 17.5301 19.77L19.6201 21.85C19.7108 21.9467 19.8375 22.0015 19.9701 22.0015C20.1026 22.0015 20.2293 21.9467 20.3201 21.85L20.8501 21.32C20.9467 21.2292 21.0016 21.1026 21.0016 20.97C21.0016 20.8374 20.9467 20.7107 20.8501 20.62ZM12.0001 20C8.68635 20 6.00005 17.3137 6.00005 14C6.07028 12.4512 6.56876 10.9523 7.44005 9.66998L12.0001 14.24V20Z" fill="currentColor" fill-rule="evenodd" clip-rule="evenodd" />
</svg>
