<svg xmlns="http://www.w3.org/2000/svg" viewBox="0 0 24 24">
    <path d="M19.73 14H20.5C20.7761 14 21 14.2239 21 14.5V16C21 19.3137 18.3137 22 15 22H9C5.68629 22 3 19.3137 3 16V14.5C3 14.2239 3.22386 14 3.5 14H4.27C4.74199 13.9995 5.19893 14.166 5.56 14.47L10.91 19H11V13C7.68629 13 5 10.3137 5 7V3.5C5 3.22386 5.22386 3 5.5 3H5.88C6.27769 3.00035 6.65897 3.15862 6.94 3.44L8.5 5L11.28 2.22C11.4205 2.07931 11.6112 2.00018 11.81 2H12.19C12.3888 2.00018 12.5795 2.07931 12.72 2.22L15.5 5L17.06 3.44C17.341 3.15862 17.7223 3.00035 18.12 3H18.5C18.7761 3 19 3.22386 19 3.5V7C19 10.3137 16.3137 13 13 13V19H13.09L18.44 14.47C18.8011 14.166 19.258 13.9995 19.73 14Z" fill="currentColor" />
</svg>
