<svg xmlns="http://www.w3.org/2000/svg" viewBox="0 0 24 24">
    <path d="M22 5.00004H21.44C21.1471 4.99872 20.855 5.03229 20.57 5.10004L18.07 5.65004C16.0769 6.09228 14.0416 6.31693 12 6.32004C9.95839 6.31693 7.92314 6.09228 5.93 5.65004L3.43 5.10004C3.145 5.03229 2.85294 4.99872 2.56 5.00004H2C1.44772 5.00004 1 5.44775 1 6.00004V18C1 18.5523 1.44772 19 2 19H2.56C2.85294 19.0014 3.145 18.9678 3.43 18.9L5.93 18.35C9.93075 17.4568 14.0792 17.4568 18.08 18.35L20.57 18.9C20.855 18.9678 21.1471 19.0014 21.44 19H22C22.5523 19 23 18.5523 23 18V6.00004C23 5.44775 22.5523 5.00004 22 5.00004Z" fill="currentColor" />
</svg>
