<svg xmlns="http://www.w3.org/2000/svg" viewBox="0 0 24 24">
    <path d="M7 6.68762V17.2924C7.00974 17.7745 6.67312 18.1946 6.2 18.291L5.93 18.3509L3.43 18.9001C3.145 18.9678 2.85294 19.0013 2.56 19H2C1.44772 19 1 18.5529 1 18.0014V5.99861C1 5.44711 1.44772 5.00004 2 5.00004H2.56C2.85294 4.99872 3.145 5.03224 3.43 5.09989L5.93 5.64911L6.2 5.70902C6.66567 5.80394 7.0001 6.21303 7 6.68762ZM22 5.00004H21.44C21.1471 4.99872 20.855 5.03224 20.57 5.09989L18.07 5.64911L17.8 5.70902C17.3269 5.80536 16.9903 6.22552 17 6.70759V17.2924C16.9903 17.7745 17.3269 18.1946 17.8 18.291L18.08 18.3509L20.57 18.9001C20.855 18.9678 21.1471 19.0013 21.44 19H22C22.5523 19 23 18.5529 23 18.0014V5.99861C23 5.44711 22.5523 5.00004 22 5.00004ZM12.965 6.2832C13.2875 6.26572 13.61 6.24825 13.93 6.24825C14.2066 6.23044 14.4782 6.32808 14.68 6.51786C14.8832 6.70606 14.9991 6.97005 15 7.24682V16.7332C14.9991 17.01 14.8832 17.274 14.68 17.4622C14.4782 17.652 14.2066 17.7496 13.93 17.7318C13.29 17.6619 12.64 17.6619 12 17.6619C11.68 17.6619 11.3575 17.6794 11.035 17.6968C10.7125 17.7143 10.39 17.7318 10.07 17.7318C9.79338 17.7496 9.52177 17.652 9.32 17.4622C9.11678 17.274 9.00089 17.01 9 16.7332V7.24682C9.00089 6.97005 9.11678 6.70606 9.32 6.51786C9.52177 6.32808 9.79338 6.23044 10.07 6.24825C10.71 6.31815 11.36 6.31815 12 6.31815C12.32 6.31815 12.6425 6.30067 12.965 6.2832Z" fill="currentColor" fill-rule="evenodd" clip-rule="evenodd" />
</svg>
