<svg xmlns="http://www.w3.org/2000/svg" viewBox="0 0 24 24">
    <path d="M19 3V17C19 18.1046 18.1046 19 17 19H3C1.89543 19 1 18.1046 1 17V3C1 1.89543 1.89543 1 3 1H17C18.1046 1 19 1.89543 19 3ZM9 7.5C9 6.67157 8.32843 6 7.5 6C6.67157 6 6 6.67157 6 7.5C6 8.32843 6.67157 9 7.5 9C8.32843 9 9 8.32843 9 7.5ZM16 15.5C16 15.7761 15.7761 16 15.5 16H4.5C4.22386 16 4 15.7761 4 15.5V15.17C4.00071 15.0619 4.03572 14.9569 4.1 14.87L6.47 11.7C6.5665 11.5739 6.71622 11.5 6.875 11.5C7.03378 11.5 7.1835 11.5739 7.28 11.7L8.28 13.06C8.37471 13.182 8.52052 13.2534 8.675 13.2534C8.82948 13.2534 8.97529 13.182 9.07 13.06L11.36 10.18C11.4549 10.0617 11.5984 9.99289 11.75 9.99289C11.9016 9.99289 12.0451 10.0617 12.14 10.18L15.88 14.85C15.9513 14.9414 15.99 15.0541 15.99 15.17L16 15.5ZM21 19V5C22.1046 5 23 5.89543 23 7V19C23 21.2091 21.2091 23 19 23H7C5.89543 23 5 22.1046 5 21H19C20.1046 21 21 20.1046 21 19Z" fill="currentColor" fill-rule="evenodd" clip-rule="evenodd" />
</svg>
