<svg xmlns="http://www.w3.org/2000/svg" viewBox="0 0 24 24">
    <path d="M18 2H6C4.89543 2 4 2.89543 4 4V20C4 21.1046 4.89543 22 6 22H18C19.1046 22 20 21.1046 20 20V4C20 2.89543 19.1046 2 18 2ZM6 4.5C6 4.22386 6.22386 4 6.5 4H11.5C11.7761 4 12 4.22386 12 4.5V9.5C12.0021 9.686 11.9009 9.85782 11.7371 9.94601C11.5733 10.0342 11.3741 10.0242 11.22 9.92L9.28 8.62C9.10927 8.5109 8.89073 8.5109 8.72 8.62L6.78 9.92C6.6259 10.0242 6.4267 10.0342 6.26292 9.94601C6.09914 9.85782 5.99785 9.686 6 9.5V4.5ZM17.5 20C17.7761 20 18 19.7761 18 19.5V19.18C17.9993 19.0719 17.9643 18.9669 17.9 18.88L14.29 14.07C14.1953 13.948 14.0495 13.8766 13.895 13.8766C13.7405 13.8766 13.5947 13.948 13.5 14.07L11.5 16.64C11.4051 16.7583 11.2616 16.8271 11.11 16.8271C10.9584 16.8271 10.8149 16.7583 10.72 16.64L9.63 15.33C9.5351 15.2117 9.39165 15.1429 9.24 15.1429C9.08835 15.1429 8.9449 15.2117 8.85 15.33L6.11 18.86C6.0401 18.9483 6.00142 19.0574 6 19.17V19.5C6 19.7761 6.22386 20 6.5 20H17.5Z" fill="currentColor" fill-rule="evenodd" clip-rule="evenodd" />
</svg>
