<svg xmlns="http://www.w3.org/2000/svg" viewBox="0 0 24 24">
    <path d="M5 3H19C20.1046 3 21 3.89543 21 5V19C21 20.1046 20.1046 21 19 21H5C3.89543 21 3 20.1046 3 19V5C3 3.89543 3.89543 3 5 3ZM5 19H19V5H5V19ZM7.29 14.48C8.26236 14.9522 9.04776 15.7376 9.52 16.71C9.60772 16.8939 9.79644 17.0079 10 17C10.1891 16.9925 10.3585 16.8808 10.44 16.71C10.9122 15.7376 11.6976 14.9522 12.67 14.48C12.8695 14.4047 13.0012 14.2133 13 14C12.9925 13.8109 12.8808 13.6415 12.71 13.56C11.7437 13.0923 10.962 12.3142 10.49 11.35C10.4071 11.1468 10.2095 11.014 9.99 11.014C9.77053 11.014 9.57289 11.1468 9.49 11.35C9.01796 12.3142 8.23632 13.0923 7.27 13.56C7.10693 13.6469 7.00364 13.8153 7 14C6.99213 14.2036 7.10614 14.3923 7.29 14.48ZM14.68 10.81C14.3651 10.1598 13.8402 9.63486 13.19 9.32C13.0602 9.27025 12.9815 9.13781 13 9C12.9815 8.86219 13.0602 8.72975 13.19 8.68C13.8367 8.36846 14.3585 7.84667 14.67 7.2C14.7354 7.07829 14.8618 7.0017 15 7C15.1382 7.0017 15.2646 7.07829 15.33 7.2C15.6417 7.85484 16.1673 8.38391 16.82 8.7C16.9308 8.75909 17 8.87443 17 9C17.0066 9.14328 16.9226 9.27531 16.79 9.33C16.138 9.64223 15.6122 10.168 15.3 10.82C15.2409 10.9308 15.1256 11 15 11C14.8651 11.0058 14.7395 10.9313 14.68 10.81Z" fill="currentColor" fill-rule="evenodd" clip-rule="evenodd" />
</svg>
