<svg xmlns="http://www.w3.org/2000/svg" viewBox="0 0 24 24">
    <path d="M20 7H18.83C18.297 7.00042 17.7858 6.78804 17.41 6.41L15.88 4.88C15.3179 4.31723 14.5554 4.0007 13.76 4H10.24C9.44462 4.0007 8.68207 4.31723 8.12 4.88L6.59 6.41C6.2142 6.78804 5.70304 7.00042 5.17 7H4C2.89543 7 2 7.89543 2 9V18C2 19.1046 2.89543 20 4 20H20C21.1046 20 22 19.1046 22 18V9C22 7.89543 21.1046 7 20 7ZM11.59 10.5C10.5245 10.6975 9.75112 11.6264 9.75 12.71H10.56C10.653 12.7089 10.7389 12.7596 10.783 12.8415C10.8271 12.9233 10.8221 13.0229 10.77 13.1L9.23 15.4C9.18645 15.4715 9.10875 15.5152 9.025 15.5152C8.94125 15.5152 8.86355 15.4715 8.82 15.4L7.28 13.1C7.22791 13.0229 7.2229 12.9233 7.26699 12.8415C7.31109 12.7596 7.397 12.7089 7.49 12.71H8.25C8.2467 10.8642 9.58714 9.29041 11.41 9C11.5574 8.97301 11.709 9.01352 11.8233 9.11037C11.9376 9.20722 12.0025 9.35022 12 9.5V10C12.004 10.2445 11.8305 10.456 11.59 10.5ZM15.75 13.29H16.51C16.5997 13.2887 16.6819 13.2395 16.7253 13.1609C16.7687 13.0824 16.7667 12.9866 16.72 12.91L15.18 10.61C15.1364 10.5385 15.0588 10.4948 14.975 10.4948C14.8912 10.4948 14.8136 10.5385 14.77 10.61L13.23 12.91C13.1779 12.9871 13.1729 13.0867 13.217 13.1685C13.2611 13.2504 13.347 13.3011 13.44 13.3H14.25C14.2489 14.3836 13.4755 15.3125 12.41 15.51C12.1732 15.5533 12.0009 15.7593 12 16V16.5C11.9976 16.6498 12.0624 16.7928 12.1767 16.8896C12.291 16.9865 12.4426 17.027 12.59 17C14.4129 16.7096 15.7533 15.1358 15.75 13.29Z" fill="currentColor" fill-rule="evenodd" clip-rule="evenodd" />
</svg>
