<svg xmlns="http://www.w3.org/2000/svg" viewBox="0 0 24 24">
    <path d="M21 6C21 4.89543 20.1046 4 19 4H18V2.5C18 2.22386 17.7761 2 17.5 2H16.5C16.2239 2 16 2.22386 16 2.5V4H8V2.5C8 2.22386 7.77614 2 7.5 2H6.5C6.22386 2 6 2.22386 6 2.5V4H5C3.89543 4 3 4.89543 3 6V19C3 20.1046 3.89543 21 5 21H19C20.1046 21 21 20.1046 21 19V6ZM19 8V19H5V8H19ZM14.85 11.38L13.24 13L14.85 14.62C14.9467 14.7107 15.0015 14.8374 15.0015 14.97C15.0015 15.1026 14.9467 15.2293 14.85 15.32L14.32 15.85C14.2293 15.9467 14.1026 16.0015 13.97 16.0015C13.8374 16.0015 13.7107 15.9467 13.62 15.85L12 14.24L10.38 15.85C10.2893 15.9467 10.1626 16.0015 10.03 16.0015C9.89741 16.0015 9.77073 15.9467 9.68 15.85L9.15 15.32C9.05332 15.2293 8.99848 15.1026 8.99848 14.97C8.99848 14.8374 9.05332 14.7107 9.15 14.62L10.76 13L9.15 11.38C9.05332 11.2893 8.99848 11.1626 8.99848 11.03C8.99848 10.8974 9.05332 10.7707 9.15 10.68L9.68 10.15C9.77073 10.0533 9.89741 9.99848 10.03 9.99848C10.1626 9.99848 10.2893 10.0533 10.38 10.15L12 11.76L13.62 10.15C13.7107 10.0533 13.8374 9.99848 13.97 9.99848C14.1026 9.99848 14.2293 10.0533 14.32 10.15L14.85 10.68C14.9467 10.7707 15.0015 10.8974 15.0015 11.03C15.0015 11.1626 14.9467 11.2893 14.85 11.38Z" fill="currentColor" fill-rule="evenodd" clip-rule="evenodd" />
    <mask id="mask0_60_41" style="mask-type:luminance" maskUnits="userSpaceOnUse" x="3" y="2" width="18" height="19">
        <path d="M21 6C21 4.89543 20.1046 4 19 4H18V2.5C18 2.22386 17.7761 2 17.5 2H16.5C16.2239 2 16 2.22386 16 2.5V4H8V2.5C8 2.22386 7.77614 2 7.5 2H6.5C6.22386 2 6 2.22386 6 2.5V4H5C3.89543 4 3 4.89543 3 6V19C3 20.1046 3.89543 21 5 21H19C20.1046 21 21 20.1046 21 19V6ZM19 8V19H5V8H19ZM14.85 11.38L13.24 13L14.85 14.62C14.9467 14.7107 15.0015 14.8374 15.0015 14.97C15.0015 15.1026 14.9467 15.2293 14.85 15.32L14.32 15.85C14.2293 15.9467 14.1026 16.0015 13.97 16.0015C13.8374 16.0015 13.7107 15.9467 13.62 15.85L12 14.24L10.38 15.85C10.2893 15.9467 10.1626 16.0015 10.03 16.0015C9.89741 16.0015 9.77073 15.9467 9.68 15.85L9.15 15.32C9.05332 15.2293 8.99848 15.1026 8.99848 14.97C8.99848 14.8374 9.05332 14.7107 9.15 14.62L10.76 13L9.15 11.38C9.05332 11.2893 8.99848 11.1626 8.99848 11.03C8.99848 10.8974 9.05332 10.7707 9.15 10.68L9.68 10.15C9.77073 10.0533 9.89741 9.99848 10.03 9.99848C10.1626 9.99848 10.2893 10.0533 10.38 10.15L12 11.76L13.62 10.15C13.7107 10.0533 13.8374 9.99848 13.97 9.99848C14.1026 9.99848 14.2293 10.0533 14.32 10.15L14.85 10.68C14.9467 10.7707 15.0015 10.8974 15.0015 11.03C15.0015 11.1626 14.9467 11.2893 14.85 11.38Z" fill="white" fill-rule="evenodd" clip-rule="evenodd" />
    </mask>
    <g mask="url(#mask0_60_41)">
    </g>
</svg>
