<svg xmlns="http://www.w3.org/2000/svg" viewBox="0 0 24 24">
    <path d="M19 3H5C3.89543 3 3 3.89543 3 5V19C3 20.1046 3.89543 21 5 21H19C20.1046 21 21 20.1046 21 19V5C21 3.89543 20.1046 3 19 3ZM15.89 14.32L12.35 17.85C12.2593 17.9467 12.1326 18.0015 12 18.0015C11.8674 18.0015 11.7407 17.9467 11.65 17.85L8.11 14.32C7.91822 14.1222 7.91822 13.8078 8.11 13.61L8.32 13.4C8.41393 13.3095 8.53954 13.2592 8.67 13.26H10V9.5C10 9.22386 10.2239 9 10.5 9H13.5C13.7761 9 14 9.22386 14 9.5V13.26H15.33C15.4605 13.2592 15.5861 13.3095 15.68 13.4L15.89 13.61C16.0818 13.8078 16.0818 14.1222 15.89 14.32ZM5 7H19V5H5V7Z" fill="currentColor" fill-rule="evenodd" clip-rule="evenodd" />
</svg>
