<svg xmlns="http://www.w3.org/2000/svg" viewBox="0 0 24 24">
    <path d="M16.6047 4.67985L13.0611 1.14985C12.9671 1.0552 12.8392 1.00195 12.7057 1.00195C12.5723 1.00195 12.4443 1.0552 12.3504 1.14985L12.1502 1.34985C12.0524 1.44393 11.998 1.57427 12 1.70985V3.99985C9.14041 4.00278 6.49937 5.52873 5.07084 8.0034C3.64232 10.4781 3.6431 13.5259 5.0729 15.9999C5.15243 16.1346 5.28846 16.2264 5.44328 16.2499C5.59759 16.2711 5.75301 16.2193 5.86371 16.1099L6.59446 15.3799C6.75158 15.2246 6.78819 14.9848 6.68455 14.7899C6.22917 13.9304 5.99199 12.9723 5.99384 11.9999C5.99384 8.68614 8.68289 5.99985 12 5.99985V8.35985C11.998 8.49544 12.0524 8.62578 12.1502 8.71985L12.3504 8.91985C12.4443 9.01451 12.5723 9.06775 12.7057 9.06775C12.8392 9.06775 12.9671 9.01451 13.0611 8.91985L16.6047 5.38985C16.7967 5.19204 16.7967 4.87767 16.6047 4.67985ZM7.39528 18.6099L10.9389 15.0799C11.0329 14.9852 11.1608 14.932 11.2943 14.932C11.4277 14.932 11.5557 14.9852 11.6496 15.0799L11.8498 15.2799C11.9476 15.3739 12.002 15.5043 12 15.6399V17.9999C15.3171 17.9999 18.0062 15.3136 18.0062 11.9999C18.0062 11.0328 17.7654 10.0808 17.3054 9.22985C17.2051 9.03433 17.2414 8.7966 17.3955 8.63985L18.1363 7.89985C18.247 7.79037 18.4024 7.73862 18.5567 7.75985C18.7097 7.781 18.8454 7.86892 18.9271 7.99985C20.3569 10.4738 20.3577 13.5216 18.9292 15.9963C17.5006 18.471 14.8596 19.9969 12 19.9999V22.2899C12.002 22.4254 11.9476 22.5558 11.8498 22.6499L11.6496 22.8499C11.5557 22.9445 11.4277 22.9978 11.2943 22.9978C11.1608 22.9978 11.0329 22.9445 10.9389 22.8499L7.39528 19.3199C7.2033 19.122 7.2033 18.8077 7.39528 18.6099Z" fill="currentColor" fill-rule="evenodd" clip-rule="evenodd" />
</svg>
