<svg xmlns="http://www.w3.org/2000/svg" viewBox="0 0 24 24">
    <path d="M17.4856 21.8762C17.8037 21.6994 18.0007 21.3639 18 21V4C18 2.89543 17.1046 2 16 2H4C2.89543 2 2 2.89543 2 4V21C1.99927 21.3639 2.19626 21.6994 2.51436 21.8762C2.83245 22.0529 3.22143 22.0429 3.53 21.85L9.47 18.13C9.79427 17.9273 10.2057 17.9273 10.53 18.13L16.47 21.85C16.7786 22.0429 17.1676 22.0529 17.4856 21.8762ZM20 4H21C21.5523 4 22 4.44772 22 5V19C22 19.5523 21.5523 20 21 20H20V4Z" fill="currentColor" fill-rule="evenodd" clip-rule="evenodd" />
</svg>
