<svg xmlns="http://www.w3.org/2000/svg" viewBox="0 0 24 24">
    <path d="M7.5 2C7.77614 2 8 2.22386 8 2.5V4H16V2.5C16 2.22386 16.2239 2 16.5 2H17.5C17.7761 2 18 2.22386 18 2.5V4H19C20.1046 4 21 4.89543 21 6V19C21 20.1046 20.1046 21 19 21H5C3.89543 21 3 20.1046 3 19V6C3 4.89543 3.89543 4 5 4H6V2.5C6 2.22386 6.22386 2 6.5 2H7.5ZM5 8V19H19V8H5ZM12.3799 10.5C12.656 10.5 12.8799 10.7239 12.8799 11V12.6201H14.5C14.7761 12.6201 15 12.844 15 13.1201V13.8799C15 14.156 14.7761 14.3799 14.5 14.3799H12.8799V16C12.8799 16.2761 12.656 16.5 12.3799 16.5H11.6201C11.344 16.5 11.1201 16.2761 11.1201 16V14.3799H9.5C9.22386 14.3799 9 14.156 9 13.8799V13.1201C9 12.844 9.22386 12.6201 9.5 12.6201H11.1201V11C11.1201 10.7239 11.344 10.5 11.6201 10.5H12.3799Z" fill="currentColor" />
</svg>
