<svg xmlns="http://www.w3.org/2000/svg" viewBox="0 0 24 24">
    <path d="M5 3H19C20.1046 3 21 3.89543 21 5V19C21 20.1046 20.1046 21 19 21H5C3.89543 21 3 20.1046 3 19V5C3 3.89543 3.89543 3 5 3ZM10.73 15.35L16.35 9.73C16.5341 9.53685 16.5341 9.23315 16.35 9.04L15.82 8.51C15.6256 8.31943 15.3144 8.31943 15.12 8.51L10.38 13.25L8.88 11.76C8.78927 11.6633 8.66259 11.6085 8.53 11.6085C8.39741 11.6085 8.27073 11.6633 8.18 11.76L7.65 12.29C7.55534 12.3839 7.5021 12.5117 7.5021 12.645C7.5021 12.7783 7.55534 12.9061 7.65 13L10.03 15.35C10.1207 15.4467 10.2474 15.5015 10.38 15.5015C10.5126 15.5015 10.6393 15.4467 10.73 15.35Z" fill="currentColor" fill-rule="evenodd" clip-rule="evenodd" />
</svg>
