<svg xmlns="http://www.w3.org/2000/svg" viewBox="0 0 24 24">
    <path d="M20.5586 9.96672L20.043 9.6973C19.7359 9.53685 19.5561 9.19987 19.624 8.85591C19.632 8.8155 19.6403 8.77488 19.6489 8.73413C19.8946 7.56602 20.3874 6.46971 20.933 5.41159L21.8787 3.57715C22.1627 3.02634 21.9297 2.34633 21.3704 2.0938C20.888 1.87595 20.3181 2.0493 20.0204 2.49228C19.4553 3.33315 18.5594 4.62465 17.6146 5.94451C17.0735 6.70054 16.5827 7.13322 16.1673 7.3616C15.9701 7.47006 15.7343 7.44591 15.5348 7.34169L14.9708 7.04698C14.4482 6.77389 13.809 6.9116 13.4233 7.36212C13.1957 7.62791 12.9701 7.88364 12.7466 8.12965C12.6573 8.22795 12.6777 8.38481 12.7899 8.45487C15.1053 9.90092 18.1954 11.7632 20.5109 12.9797C20.6258 13.04 20.7661 12.9797 20.8028 12.8537C20.9571 12.3248 21.0893 11.8011 21.1969 11.2883C21.3093 10.7525 21.0381 10.2173 20.5586 9.96672Z" fill="currentColor" />
    <path d="M19.8681 15.4953C19.9532 15.2901 19.8642 15.0548 19.6678 14.956C17.3948 13.8126 14.3327 12.0491 11.3566 10.0137C11.1959 9.90385 10.9814 9.9208 10.8374 10.0524C7.61849 12.9958 4.96788 13.9191 3.30478 14.1473C2.41638 14.2691 2.30291 14.5768 2.62465 14.8285C3.52383 15.532 4.51291 16.2218 5.53748 16.8818C7.02755 16.8404 8.61982 16.648 9.70317 16.0977C9.23631 16.6609 8.42594 17.4162 7.39585 18.0269C8.00752 18.3883 8.62022 18.7363 9.22313 19.0677C11.0033 18.8047 14.2084 18.1875 15.757 16.7322C15.2754 17.8678 14.1251 19.6877 12.438 20.7356C13.399 21.2054 14.2603 21.6006 14.9567 21.9022C15.429 22.1067 15.9752 21.9854 16.3055 21.586C17.6792 19.9246 18.9334 17.7484 19.8681 15.4953Z" fill="currentColor" />
    <path d="M2 6.09059C2 6.55048 2.37288 6.92336 2.83277 6.92336C3.29267 6.92336 3.66555 6.55048 3.66555 6.09059C3.66555 5.63069 3.29267 5.25781 2.83277 5.25781C2.37288 5.25781 2 5.63069 2 6.09059Z" fill="currentColor" />
    <path d="M6.16387 9.42168C6.16387 10.3415 5.41811 11.0872 4.49832 11.0872C3.57853 11.0872 2.83277 10.3415 2.83277 9.42168C2.83277 8.50189 3.57853 7.75613 4.49832 7.75613C5.41811 7.75613 6.16387 8.50189 6.16387 9.42168Z" fill="currentColor" />
</svg>
