<svg xmlns="http://www.w3.org/2000/svg" viewBox="0 0 24 24">
    <path d="M11.8101 9.96306C11.6116 9.96075 11.4218 9.88194 11.2801 9.74306L7.15005 5.61306C7.0554 5.51917 7.00215 5.39137 7.00215 5.25806C7.00215 5.12474 7.0554 4.99694 7.15005 4.90306L7.86005 4.19306C7.95222 4.09899 8.07836 4.04598 8.21005 4.04598C8.34174 4.04598 8.46789 4.09899 8.56005 4.19306L12.0001 7.63306L15.4401 4.18306C15.5339 4.0884 15.6617 4.03516 15.7951 4.03516C15.9284 4.03516 16.0562 4.0884 16.1501 4.18306L16.8501 4.89306C16.9447 4.98694 16.998 5.11474 16.998 5.24806C16.998 5.38137 16.9447 5.50917 16.8501 5.60306L12.7201 9.74306C12.5795 9.88375 12.3889 9.96288 12.1901 9.96306H11.8101ZM17.0016 18.7531C17.0016 18.6205 16.9467 18.4938 16.8501 18.4031L12.7201 14.2531C12.5783 14.1142 12.3885 14.0354 12.1901 14.0331H11.8101C11.6112 14.0332 11.4206 14.1124 11.2801 14.2531L7.15005 18.4031C7.05338 18.4938 6.99854 18.6205 6.99854 18.7531C6.99854 18.8856 7.05338 19.0123 7.15005 19.1031L7.85005 19.8131C7.94394 19.9077 8.07174 19.961 8.20505 19.961C8.33837 19.961 8.46617 19.9077 8.56005 19.8131L12.0001 16.3631L15.4401 19.8131C15.6345 20.0036 15.9456 20.0036 16.1401 19.8131L16.8501 19.1031C16.9467 19.0123 17.0016 18.8856 17.0016 18.7531Z" fill="currentColor" fill-rule="evenodd" clip-rule="evenodd" />
</svg>
