<svg xmlns="http://www.w3.org/2000/svg" viewBox="0 0 24 24">
    <path d="M3.86816 2.88965C4.06341 2.6944 4.37993 2.69442 4.5752 2.88965L20.8389 19.1533C21.034 19.3486 21.0341 19.6651 20.8389 19.8604L20.1318 20.5674C19.9366 20.7625 19.6201 20.7625 19.4248 20.5674L17.9375 19.0801L17 20.6602L14.3291 20.6934L12 22L9.6709 20.6934L7 20.6602L5.63574 18.3643L3.33984 17L3.30664 14.3291L2 12L3.30664 9.6709L3.33984 7L4.91797 6.06055L3.16113 4.30371C2.96592 4.10846 2.96592 3.79193 3.16113 3.59668L3.86816 2.88965ZM12.2559 13.3984C12.0925 13.7309 12 14.1046 12 14.5C12 15.8806 13.1193 17 14.5 17C14.8951 17 15.2675 16.9055 15.5996 16.7422L14.6016 15.7441C14.5681 15.7472 14.5343 15.75 14.5 15.75C13.8097 15.75 13.25 15.1903 13.25 14.5C13.25 14.4655 13.252 14.4313 13.2549 14.3975L12.2559 13.3984ZM14.3291 3.30664L17 3.33984L18.3643 5.63574L20.6602 7L20.6934 9.6709L22 12L20.6934 14.3291L20.667 16.4346L14.4795 10.2471L15.8994 8.8291L15.1426 8.07129L13.7227 9.49023L7.56445 3.33203L9.6709 3.30664L12 2L14.3291 3.30664ZM8.07129 15.1426L8.82812 15.8994L11.792 12.9346L11.0352 12.1777L8.07129 15.1426ZM7.25586 8.39844C7.09246 8.73086 7 9.10459 7 9.5C7.00004 10.8806 8.11931 12 9.5 12C9.89509 12 10.2675 11.9055 10.5996 11.7422L9.60156 10.7441C9.56806 10.7472 9.53427 10.75 9.5 10.75C8.80964 10.75 8.25002 10.1903 8.25 9.5C8.25 9.46545 8.252 9.43128 8.25488 9.39746L7.25586 8.39844Z" fill="currentColor" />
</svg>
