<svg xmlns="http://www.w3.org/2000/svg" viewBox="0 0 24 24">
    <path d="M12 2C6.47715 2 2 6.47715 2 12C2 17.5228 6.47715 22 12 22C17.5228 22 22 17.5228 22 12C22 9.34784 20.9464 6.8043 19.0711 4.92893C17.1957 3.05357 14.6522 2 12 2ZM17 15.5C17 15.7761 16.7761 16 16.5 16H7.5C7.22386 16 7 15.7761 7 15.5V14.5C7 14.2239 7.22386 14 7.5 14H16.5C16.7761 14 17 14.2239 17 14.5V15.5ZM16.65 11.85L16.85 11.65C16.9447 11.5561 16.9979 11.4283 16.9979 11.295C16.9979 11.1617 16.9447 11.0339 16.85 10.94L12.35 6.15C12.2593 6.05332 12.1326 5.99848 12 5.99848C11.8674 5.99848 11.7407 6.05332 11.65 6.15L7.15 10.94C7.05534 11.0339 7.0021 11.1617 7.0021 11.295C7.0021 11.4283 7.05534 11.5561 7.15 11.65L7.35 11.85C7.44408 11.9477 7.57441 12.002 7.71 12H16.29C16.4256 12.002 16.5559 11.9477 16.65 11.85Z" fill="currentColor" fill-rule="evenodd" clip-rule="evenodd" />
</svg>
