<svg xmlns="http://www.w3.org/2000/svg" viewBox="0 0 24 24">
    <path d="M5.71 14.0001C5.57441 14.002 5.44408 13.9477 5.35 13.8501L5.15 13.6501C5.05534 13.5562 5.0021 13.4284 5.0021 13.2951C5.0021 13.1617 5.05534 13.0339 5.15 12.9401L11.65 6.15005C11.7407 6.05338 11.8674 5.99854 12 5.99854C12.1326 5.99854 12.2593 6.05338 12.35 6.15005L18.85 12.9401C18.9447 13.0339 18.9979 13.1617 18.9979 13.2951C18.9979 13.4284 18.9447 13.5562 18.85 13.6501L18.65 13.8501C18.5559 13.9477 18.4256 14.002 18.29 14.0001H5.71ZM19 17.5001V16.5001C19 16.2239 18.7761 16.0001 18.5 16.0001H5.5C5.22386 16.0001 5 16.2239 5 16.5001V17.5001C5 17.7762 5.22386 18.0001 5.5 18.0001H18.5C18.7761 18.0001 19 17.7762 19 17.5001Z" fill="currentColor" fill-rule="evenodd" clip-rule="evenodd" />
</svg>
