<svg xmlns="http://www.w3.org/2000/svg" viewBox="0 0 24 24">
    <path d="M21 6C21 4.89543 20.1046 4 19 4H18V2.5C18 2.22386 17.7761 2 17.5 2H16.5C16.2239 2 16 2.22386 16 2.5V4H8V2.5C8 2.22386 7.77614 2 7.5 2H6.5C6.22386 2 6 2.22386 6 2.5V4H5C3.89543 4 3 4.89543 3 6V19C3 20.1046 3.89543 21 5 21H19C20.1046 21 21 20.1046 21 19V6ZM19 19H5V8H19V19ZM10 14H8C7.44772 14 7 13.5523 7 13V11C7 10.4477 7.44772 10 8 10H10C10.5523 10 11 10.4477 11 11V13C11 13.5523 10.5523 14 10 14Z" fill="currentColor" fill-rule="evenodd" clip-rule="evenodd" />
</svg>
