<svg xmlns="http://www.w3.org/2000/svg" viewBox="0 0 24 24">
    <path d="M6 6.5V10C6 10.5523 5.55228 11 5 11H1.5C1.22386 11 1 10.7761 1 10.5V9.5C1 9.22386 1.22386 9 1.5 9H4V6.5C4 6.22386 4.22386 6 4.5 6H5.5C5.77614 6 6 6.22386 6 6.5ZM22.5 11H19C18.4477 11 18 10.5523 18 10V6.5C18 6.22386 18.2239 6 18.5 6H19.5C19.7761 6 20 6.22386 20 6.5V9H22.5C22.7761 9 23 9.22386 23 9.5V10.5C23 10.7761 22.7761 11 22.5 11ZM20 17.5V15H22.5C22.7761 15 23 14.7761 23 14.5V13.5C23 13.2239 22.7761 13 22.5 13H19C18.4477 13 18 13.4477 18 14V17.5C18 17.7761 18.2239 18 18.5 18H19.5C19.7761 18 20 17.7761 20 17.5ZM5.5 18H4.5C4.22386 18 4 17.7761 4 17.5V15H1.5C1.22386 15 1 14.7761 1 14.5V13.5C1 13.2239 1.22386 13 1.5 13H5C5.55228 13 6 13.4477 6 14V17.5C6 17.7761 5.77614 18 5.5 18Z" fill="currentColor" fill-rule="evenodd" clip-rule="evenodd" />
</svg>
