<svg xmlns="http://www.w3.org/2000/svg" viewBox="0 0 24 24">
    <path d="M9 3.5V8C9 8.55228 8.55228 9 8 9H3.5C3.22386 9 3 8.77614 3 8.5V7.5C3 7.22386 3.22386 7 3.5 7H7V3.5C7 3.22386 7.22386 3 7.5 3H8.5C8.77614 3 9 3.22386 9 3.5ZM20.5 9H16C15.4477 9 15 8.55228 15 8V3.5C15 3.22386 15.2239 3 15.5 3H16.5C16.7761 3 17 3.22386 17 3.5V7H20.5C20.7761 7 21 7.22386 21 7.5V8.5C21 8.77614 20.7761 9 20.5 9ZM17 20.5V17H20.5C20.7761 17 21 16.7761 21 16.5V15.5C21 15.2239 20.7761 15 20.5 15H16C15.4477 15 15 15.4477 15 16V20.5C15 20.7761 15.2239 21 15.5 21H16.5C16.7761 21 17 20.7761 17 20.5ZM8.5 21H7.5C7.22386 21 7 20.7761 7 20.5V17H3.5C3.22386 17 3 16.7761 3 16.5V15.5C3 15.2239 3.22386 15 3.5 15H8C8.55228 15 9 15.4477 9 16V20.5C9 20.7761 8.77614 21 8.5 21Z" fill="currentColor" fill-rule="evenodd" clip-rule="evenodd" />
</svg>
