<svg xmlns="http://www.w3.org/2000/svg" viewBox="0 0 24 24">
    <path d="M7 8C7 8.55228 6.55228 9 6 9H2.5C2.22386 9 2 8.77614 2 8.5V7.5C2 7.22386 2.22386 7 2.5 7H5V4.5C5 4.22386 5.22386 4 5.5 4H6.5C6.77614 4 7 4.22386 7 4.5V8ZM21.5 9H18C17.4477 9 17 8.55228 17 8V4.5C17 4.22386 17.2239 4 17.5 4H18.5C18.7761 4 19 4.22386 19 4.5V7H21.5C21.7761 7 22 7.22386 22 7.5V8.5C22 8.77614 21.7761 9 21.5 9ZM19 19.5V17H21.5C21.7761 17 22 16.7761 22 16.5V15.5C22 15.2239 21.7761 15 21.5 15H18C17.4477 15 17 15.4477 17 16V19.5C17 19.7761 17.2239 20 17.5 20H18.5C18.7761 20 19 19.7761 19 19.5ZM6.5 20H5.5C5.22386 20 5 19.7761 5 19.5V17H2.5C2.22386 17 2 16.7761 2 16.5V15.5C2 15.2239 2.22386 15 2.5 15H6C6.55228 15 7 15.4477 7 16V19.5C7 19.7761 6.77614 20 6.5 20Z" fill="currentColor" fill-rule="evenodd" clip-rule="evenodd" />
</svg>
