<svg xmlns="http://www.w3.org/2000/svg" viewBox="0 0 24 24">
    <path d="M7.5 6H8.5C8.77614 6 9 6.22386 9 6.5V17.5C9 17.7761 8.77614 18 8.5 18H7.5C7.22386 18 7 17.7761 7 17.5V6.5C7 6.22386 7.22386 6 7.5 6ZM17.07 17.85L17.78 17.15C17.8747 17.0561 17.9279 16.9283 17.9279 16.795C17.9279 16.6617 17.8747 16.5339 17.78 16.44L13.33 12L17.78 7.56C17.8741 7.46784 17.9271 7.34169 17.9271 7.21C17.9271 7.07831 17.8741 6.95216 17.78 6.86L17.07 6.15C16.9761 6.05534 16.8483 6.0021 16.715 6.0021C16.5817 6.0021 16.4539 6.05534 16.36 6.15L11.22 11.28C11.0811 11.4217 11.0023 11.6116 11 11.81V12.19C11.0002 12.3888 11.0793 12.5795 11.22 12.72L16.36 17.85C16.4539 17.9447 16.5817 17.9979 16.715 17.9979C16.8483 17.9979 16.9761 17.9447 17.07 17.85Z" fill="currentColor" fill-rule="evenodd" clip-rule="evenodd" />
</svg>
