<svg xmlns="http://www.w3.org/2000/svg" viewBox="0 0 24 24">
    <path d="M5.00003 7.41453L5.76003 2.83922C5.83926 2.35067 6.26464 1.99371 6.76003 2.00008H7.20003C7.66574 1.99912 8.12501 2.10868 8.54003 2.31976L10.25 3.1489C11.3548 3.68586 12.6453 3.68586 13.75 3.1489L15.46 2.31976C15.875 2.10868 16.3343 1.99912 16.8 2.00008H17.24C17.7354 1.99371 18.1608 2.35067 18.24 2.83922L19 7.41453C19.0237 7.56019 18.9816 7.70885 18.8852 7.82062C18.7887 7.93239 18.6477 7.99584 18.5 7.99393H5.50003C5.35232 7.99584 5.21133 7.93239 5.11488 7.82062C5.01842 7.70885 4.97638 7.56019 5.00003 7.41453ZM20.84 11.1407L20 10.2816C19.8113 10.0946 19.5558 9.99035 19.29 9.99188H4.71003C4.44423 9.99035 4.18875 10.0946 4.00003 10.2816L3.15003 11.1407C3.00997 11.2834 2.96854 11.4958 3.04471 11.6806C3.12089 11.8654 3.29999 11.987 3.50003 11.9898H20.5C20.7001 11.987 20.8792 11.8654 20.9553 11.6806C21.0315 11.4958 20.9901 11.2834 20.85 11.1407H20.84ZM13.8 15.6061C14.5512 14.5924 15.7375 13.9925 17 13.9878C19.2092 13.9878 21 15.7768 21 17.9837C21 20.1906 19.2092 21.9796 17 21.9796C14.7909 21.9796 13 20.1906 13 17.9837C13 17.432 12.5523 16.9847 12 16.9847C11.4477 16.9847 11 17.432 11 17.9837C11.0099 19.9454 9.59284 21.6241 7.65568 21.9456C5.71852 22.2671 3.83422 21.1363 3.20854 19.2769C2.58287 17.4174 3.4009 15.3792 5.13916 14.4666C6.87741 13.554 9.02177 14.0368 10.2 15.6061C11.2573 14.7793 12.7428 14.7793 13.8 15.6061ZM7.00003 19.9816C5.89546 19.9816 5.00003 19.0871 5.00003 17.9837C5.00003 16.8802 5.89546 15.9857 7.00003 15.9857C8.1046 15.9857 9.00003 16.8802 9.00003 17.9837C9.00003 19.0871 8.1046 19.9816 7.00003 19.9816ZM15 17.9837C15 19.0871 15.8955 19.9816 17 19.9816C18.1046 19.9816 19 19.0871 19 17.9837C19 16.8802 18.1046 15.9857 17 15.9857C15.8955 15.9857 15 16.8802 15 17.9837Z" fill="currentColor" fill-rule="evenodd" clip-rule="evenodd" />
</svg>
