<svg xmlns="http://www.w3.org/2000/svg" viewBox="0 0 24 24">
    <path d="M20.5898 3.29L20.7098 3.41C20.8925 3.60163 20.9961 3.85523 20.9998 4.12V12.07C21.0002 12.603 20.7879 13.1142 20.4098 13.49L13.1898 20.71C12.7998 21.0977 12.1699 21.0977 11.7798 20.71L3.28982 12.22C2.90209 11.83 2.90209 11.2 3.28982 10.81L10.5098 3.59C10.8856 3.21196 11.3968 2.99958 11.9298 3H19.8798C20.1446 3.00368 20.3982 3.10727 20.5898 3.29ZM13.9998 8C13.9998 9.10457 14.8952 10 15.9998 10C16.5302 10 17.039 9.78929 17.414 9.41421C17.7891 9.03914 17.9998 8.53043 17.9998 8C17.9998 6.89543 17.1044 6 15.9998 6C14.8952 6 13.9998 6.89543 13.9998 8Z" fill="currentColor" fill-rule="evenodd" clip-rule="evenodd" />
</svg>
