<svg xmlns="http://www.w3.org/2000/svg" viewBox="0 0 24 24">
    <path d="M20.5901 3.29L20.7101 3.41C20.8948 3.59626 20.9989 3.84766 21.0001 4.11V12C21.0111 12.5322 20.8096 13.0469 20.4401 13.43L13.0201 20.85C12.926 20.9477 12.7956 21.002 12.6601 21H12.4601C12.3245 21.002 12.1941 20.9477 12.1001 20.85L11.4101 20.16C11.2253 19.9737 11.1212 19.7223 11.1201 19.46V14.02C11.1163 13.7562 11.0085 13.5046 10.8201 13.32L10.7001 13.2C10.5154 13.0116 10.2638 12.9038 10.0001 12.9H4.54005C4.27771 12.8989 4.02631 12.7947 3.84005 12.61L3.15005 11.92C3.05239 11.8259 2.99809 11.6956 3.00005 11.56V11.36C2.99809 11.2244 3.05239 11.0941 3.15005 11L10.5901 3.58C10.965 3.20808 11.4719 2.99958 12.0001 3H19.8901C20.1524 3.00111 20.4038 3.10526 20.5901 3.29ZM13.9301 8.06C13.9301 9.16457 14.8255 10.06 15.9301 10.06C17.0346 10.06 17.9301 9.16457 17.9301 8.06C17.9301 6.95543 17.0346 6.06 15.9301 6.06C14.8255 6.06 13.9301 6.95543 13.9301 8.06Z" fill="currentColor" fill-rule="evenodd" clip-rule="evenodd" />
</svg>
