<svg xmlns="http://www.w3.org/2000/svg" viewBox="0 0 24 24">
    <path d="M18.9998 11.07V3.12C18.9961 2.85523 18.8925 2.60163 18.7098 2.41L18.5898 2.29C18.3982 2.10727 18.1446 2.00368 17.8798 2H9.92982C9.39677 1.99958 8.88561 2.21196 8.50982 2.59L1.28982 9.81C0.902093 10.2 0.902093 10.83 1.28982 11.22L9.77982 19.71C10.1699 20.0977 10.7998 20.0977 11.1898 19.71L18.4098 12.49C18.7879 12.1142 19.0002 11.603 18.9998 11.07ZM13.9998 9C12.8952 9 11.9998 8.10457 11.9998 7C11.9998 5.89543 12.8952 5 13.9998 5C15.1044 5 15.9998 5.89543 15.9998 7C15.9998 7.53043 15.7891 8.03914 15.414 8.41421C15.039 8.78929 14.5302 9 13.9998 9ZM22.5898 6.29L22.7098 6.41C22.8925 6.60163 22.9961 6.85523 22.9998 7.12V11.9C23.0009 12.9858 22.5605 14.0254 21.7798 14.78L14.7798 21.78C14.487 22.0725 14.0126 22.0725 13.7198 21.78L12.8298 20.89L20.4098 13.32C20.7879 12.9442 21.0002 12.433 20.9998 11.9V6H21.8798C22.1446 6.00368 22.3982 6.10727 22.5898 6.29Z" fill="currentColor" fill-rule="evenodd" clip-rule="evenodd" />
</svg>
