<svg xmlns="http://www.w3.org/2000/svg" viewBox="0 0 24 24">
    <path d="M9.36842 2C8.20572 2 7.26316 2.94256 7.26316 4.10526V7.26316H4.10526C2.94256 7.26316 2 8.20572 2 9.36842V19.8947C2 21.0574 2.94256 22 4.10526 22H14.6316C15.7943 22 16.7368 21.0574 16.7368 19.8947V16.7368H19.8947C21.0574 16.7368 22 15.7943 22 14.6316V4.10526C22 2.94256 21.0574 2 19.8947 2H9.36842ZM5.15789 9.36842H7.26316V14.6316C7.26316 15.7943 8.20572 16.7368 9.36842 16.7368H14.6316V18.8421C14.6316 19.4235 14.1603 19.8947 13.5789 19.8947H5.1579C4.57654 19.8947 4.10526 19.4235 4.10526 18.8421V10.4211C4.10526 9.8397 4.57654 9.36842 5.15789 9.36842ZM9.36842 7.26316H14.6316C15.7943 7.26316 16.7368 8.20572 16.7368 9.36842V14.6316H18.8421C19.4235 14.6316 19.8947 14.1603 19.8947 13.5789V5.15789C19.8947 4.57654 19.4235 4.10526 18.8421 4.10526H10.4211C9.8397 4.10526 9.36842 4.57654 9.36842 5.1579V7.26316Z" fill="currentColor" fill-rule="evenodd" clip-rule="evenodd" />
</svg>
