<svg xmlns="http://www.w3.org/2000/svg" viewBox="0 0 24 24">
    <path d="M21.861 12.3602L18.8607 15.3621C18.7175 15.5108 18.4978 15.5563 18.3074 15.4766C18.117 15.3968 17.9951 15.2083 18.0006 15.0019V13.0006H13V18.0037H15.0002C15.2021 18.0025 15.3849 18.1229 15.4636 18.3089C15.5424 18.4949 15.5016 18.71 15.3603 18.8542L12.3599 21.8561C12.1621 22.048 11.8477 22.048 11.6498 21.8561L8.6495 18.8542C8.50942 18.7113 8.46799 18.4986 8.54417 18.3135C8.62035 18.1284 8.79948 18.0065 8.99954 18.0037H10.9998V13.0006H5.99919V15.0019C5.99638 15.202 5.87459 15.3812 5.68958 15.4574C5.50457 15.5337 5.29195 15.4922 5.14909 15.3521L2.14874 12.3502C1.95693 12.1523 1.95693 11.8377 2.14874 11.6398L5.14909 8.63793C5.29326 8.49654 5.50826 8.45575 5.69416 8.53452C5.88005 8.61329 6.00037 8.79617 5.99919 8.99815V10.9994H10.9998V5.9963H8.99954C8.79948 5.99349 8.62035 5.87164 8.54417 5.68653C8.46799 5.50143 8.50942 5.28871 8.6495 5.14578L11.6498 2.14393C11.8477 1.95202 12.1621 1.95202 12.3599 2.14393L15.3603 5.14578C15.5016 5.29002 15.5424 5.50513 15.4636 5.69112C15.3849 5.87711 15.2021 5.99749 15.0002 5.9963H13V10.9994H18.0006V8.99815C17.9994 8.79617 18.1197 8.61329 18.3056 8.53452C18.4915 8.45575 18.7065 8.49654 18.8507 8.63793L21.851 11.6398C22.0522 11.8362 22.0567 12.1583 21.861 12.3602Z" fill="currentColor" />
</svg>
