<svg xmlns="http://www.w3.org/2000/svg" viewBox="0 0 24 24">
    <path d="M5 11V6H3.5C3.22386 6 3 5.77614 3 5.5V4.5C3 4.22386 3.22386 4 3.5 4H5C5 2.89543 5.89543 2 7 2H19C20.1046 2 21 2.89543 21 4V20C21 21.1046 20.1046 22 19 22H7C5.89543 22 5 21.1046 5 20H3.5C3.22386 20 3 19.7761 3 19.5V18.5C3 18.2239 3.22386 18 3.5 18H5V13H3.5C3.22386 13 3 12.7761 3 12.5V11.5C3 11.2239 3.22386 11 3.5 11H5ZM13.5 4C13.2239 4 13 4.22386 13 4.5V11.5C12.9979 11.686 13.0991 11.8578 13.2629 11.946C13.4267 12.0342 13.6259 12.0242 13.78 11.92L15.72 10.62C15.8907 10.5109 16.1093 10.5109 16.28 10.62L18.22 11.92C18.3741 12.0242 18.5733 12.0342 18.7371 11.946C18.9009 11.8578 19.0021 11.686 19 11.5V4.5C19 4.22386 18.7761 4 18.5 4H13.5Z" fill="currentColor" fill-rule="evenodd" clip-rule="evenodd" />
</svg>
