<svg xmlns="http://www.w3.org/2000/svg" viewBox="0 0 24 24">
    <path d="M18 3V19C18 19.5523 17.5523 20 17 20H16.41C16.1477 19.9989 15.8963 19.8947 15.71 19.71L12.71 16.76C11.5957 15.6442 10.0869 15.0119 8.51 15H5C3.34315 15 2 13.6569 2 12V10C2 8.34315 3.34315 7 5 7H8.51C10.1042 7.00125 11.6334 6.36799 12.76 5.24L15.76 2.29C15.9463 2.10526 16.1977 2.0011 16.46 2H17C17.5523 2 18 2.44772 18 3ZM21.2 13.4C21.7193 12.7076 22 11.8655 22 11C22.0109 10.1174 21.7297 9.25604 21.2 8.55C21.1111 8.4384 20.9817 8.36649 20.84 8.35C20.6945 8.34201 20.5526 8.3966 20.45 8.5L19.73 9.22C19.5627 9.38902 19.5376 9.65245 19.67 9.85C20.1096 10.5175 20.1096 11.3825 19.67 12.05C19.5376 12.2476 19.5627 12.511 19.73 12.68L20.45 13.4C20.5466 13.5048 20.6825 13.5643 20.825 13.5643C20.9675 13.5643 21.1034 13.5048 21.2 13.4ZM12 21.5V20.92C12.0188 20.6611 11.8364 20.4309 11.58 20.39L11.25 20.33C10.9206 20.277 10.6392 20.0632 10.5 19.76L10.08 17.01C9.58112 16.809 9.04785 16.7071 8.51 16.71H6.07C6.12308 17.0638 6.24541 17.4036 6.43 17.71L8.71 21.51C8.89006 21.8137 9.21693 21.9999 9.57 22H11.5C11.7761 22 12 21.7761 12 21.5ZM14.17 6.66L16 4.83V17.17L14.17 15.34C13.0356 14.2003 11.5811 13.433 10 13.14V8.86C11.5811 8.567 13.0356 7.79965 14.17 6.66Z" fill="currentColor" fill-rule="evenodd" clip-rule="evenodd" />
</svg>
