<svg xmlns="http://www.w3.org/2000/svg" viewBox="0 0 24 24">
    <path d="M16.5002 18H15.5002C15.224 18 15.0002 17.7761 15.0002 17.5V6.5C15.0002 6.22386 15.224 6 15.5002 6H16.5002C16.7763 6 17.0002 6.22386 17.0002 6.5V17.5C17.0002 17.7761 16.7763 18 16.5002 18ZM6.93016 6.15L6.22016 6.85C6.12551 6.94388 6.07227 7.07168 6.07227 7.205C6.07227 7.33832 6.12551 7.46612 6.22016 7.56L10.6702 12L6.22016 16.44C6.1261 16.5322 6.07309 16.6583 6.07309 16.79C6.07309 16.9217 6.1261 17.0478 6.22016 17.14L6.93016 17.85C7.02405 17.9447 7.15185 17.9979 7.28516 17.9979C7.41848 17.9979 7.54628 17.9447 7.64016 17.85L12.7802 12.72C12.919 12.5783 12.9979 12.3884 13.0002 12.19V11.81C13 11.6112 12.9209 11.4205 12.7802 11.28L7.64016 6.15C7.54628 6.05534 7.41848 6.0021 7.28516 6.0021C7.15185 6.0021 7.02405 6.05534 6.93016 6.15Z" fill="currentColor" fill-rule="evenodd" clip-rule="evenodd" />
</svg>
