<svg xmlns="http://www.w3.org/2000/svg" viewBox="0 0 24 24">
    <path d="M2.5 9H3.5C3.77614 9 4 8.77614 4 8.5V6H6.5C6.77614 6 7 5.77614 7 5.5V4.5C7 4.22386 6.77614 4 6.5 4H4C2.89543 4 2 4.89543 2 6V8.5C2 8.77614 2.22386 9 2.5 9ZM22 6V8.5C22 8.77614 21.7761 9 21.5 9H20.5C20.2239 9 20 8.77614 20 8.5V6H17.5C17.2239 6 17 5.77614 17 5.5V4.5C17 4.22386 17.2239 4 17.5 4H20C21.1046 4 22 4.89543 22 6ZM20.5 15H21.5C21.7761 15 22 15.2239 22 15.5V18C22 19.1046 21.1046 20 20 20H17.5C17.2239 20 17 19.7761 17 19.5V18.5C17 18.2239 17.2239 18 17.5 18H20V15.5C20 15.2239 20.2239 15 20.5 15ZM6.5 18H4V15.5C4 15.2239 3.77614 15 3.5 15H2.5C2.22386 15 2 15.2239 2 15.5V18C2 19.1046 2.89543 20 4 20H6.5C6.77614 20 7 19.7761 7 19.5V18.5C7 18.2239 6.77614 18 6.5 18ZM6 9.5C6 8.67157 6.67157 8 7.5 8C8.32843 8 9 8.67157 9 9.5C9 10.3284 8.32843 11 7.5 11C6.67157 11 6 10.3284 6 9.5Z" fill="currentColor" fill-rule="evenodd" clip-rule="evenodd" />
</svg>
