<svg xmlns="http://www.w3.org/2000/svg" viewBox="0 0 24 24">
    <path d="M9.29021 4.48021C9.06044 4.56655 8.80198 4.47333 8.68021 4.26021L8.19021 3.37021C8.13029 3.24012 8.13029 3.09031 8.19021 2.96021C8.23336 2.8196 8.34114 2.7081 8.48021 2.66021C9.16275 2.39402 9.87435 2.2094 10.6002 2.11021C10.743 2.0898 10.8879 2.12965 11.0002 2.22021C11.0943 2.33092 11.1379 2.47597 11.1202 2.62021V3.62021C11.1185 3.86413 10.941 4.07119 10.7002 4.11021C10.2203 4.19221 9.74853 4.31601 9.29021 4.48021ZM4.24021 5.70021C4.1484 5.81171 4.11167 5.95863 4.14021 6.10021C4.16294 6.24472 4.25166 6.3704 4.38021 6.44021L5.27021 7.00021C5.47762 7.12915 5.74877 7.08181 5.90021 6.89021C6.18302 6.54777 6.49777 6.23302 6.84021 5.95021C6.95464 5.88397 7.03668 5.77345 7.06696 5.64474C7.09725 5.51603 7.0731 5.38053 7.00021 5.27021L6.49021 4.38021C6.4204 4.25166 6.29472 4.16294 6.15021 4.14021C6.00863 4.11167 5.86171 4.1484 5.75021 4.24021C5.19256 4.66737 4.6859 5.15726 4.24021 5.70021ZM2.66021 8.43021C2.71582 8.28129 2.84438 8.17164 3.00021 8.14021C3.13031 8.08029 3.28012 8.08029 3.41021 8.14021L4.30021 8.65021C4.51684 8.76901 4.61115 9.03049 4.52021 9.26021C4.35601 9.71853 4.23221 10.1903 4.15021 10.6702C4.11119 10.911 3.90413 11.0885 3.66021 11.0902H2.66021C2.50748 11.1284 2.3457 11.0953 2.22021 11.0002C2.12965 10.8879 2.0898 10.743 2.11021 10.6002C2.2055 9.85737 2.39017 9.12876 2.66021 8.43021ZM13.4502 2.11021C13.306 2.08981 13.16 2.13334 13.0505 2.22941C12.9409 2.32548 12.8788 2.46453 12.8802 2.61021V3.61021C12.8762 3.85471 13.0497 4.06623 13.2902 4.11021C17.3235 4.76588 20.2144 8.35574 19.995 12.4361C19.7756 16.5164 16.5164 19.7756 12.4361 19.995C8.35574 20.2144 4.76588 17.3235 4.11021 13.2902C4.06623 13.0497 3.85471 12.8762 3.61021 12.8802H2.61021C2.46453 12.8788 2.32548 12.9409 2.22941 13.0505C2.13334 13.16 2.08981 13.306 2.11021 13.4502C2.85422 18.5452 7.34543 22.2424 12.4884 21.9936C17.6314 21.7448 21.7448 17.6314 21.9936 12.4884C22.2424 7.34543 18.5452 2.85422 13.4502 2.11021ZM6.00021 11.6102C6.00021 11.3341 6.22407 11.1102 6.50021 11.1102L11.1202 11.1202V6.50021C11.1202 6.22407 11.3441 6.00021 11.6202 6.00021H12.3802C12.6564 6.00021 12.8802 6.22407 12.8802 6.50021V12.3702C12.8749 12.6441 12.6541 12.8649 12.3802 12.8702H6.50021C6.22407 12.8702 6.00021 12.6464 6.00021 12.3702V11.6102Z" fill="currentColor" fill-rule="evenodd" clip-rule="evenodd" />
</svg>
