<svg xmlns="http://www.w3.org/2000/svg" viewBox="0 0 24 24">
    <path d="M21.9999 12C21.9999 16.9706 17.9704 21 12.9999 21C11.1523 21.0061 9.34868 20.4363 7.83985 19.37C7.7193 19.2831 7.64261 19.148 7.62985 19C7.61792 18.8559 7.66898 18.7136 7.76985 18.61L8.48985 17.88C8.65887 17.7127 8.9223 17.6876 9.11985 17.82C10.2661 18.5925 11.6176 19.0036 12.9999 19C16.8658 19 19.9999 15.866 19.9999 12C19.9999 8.13401 16.8658 5 12.9999 5C9.13386 5 5.99985 8.13401 5.99985 12H8.35985C8.49544 11.998 8.62578 12.0523 8.71985 12.15L8.91985 12.35C9.01451 12.4439 9.06775 12.5717 9.06775 12.705C9.06775 12.8383 9.01451 12.9661 8.91985 13.06L5.38985 16.6C5.19204 16.7918 4.87767 16.7918 4.67985 16.6L1.14985 13.06C1.0552 12.9661 1.00195 12.8383 1.00195 12.705C1.00195 12.5717 1.0552 12.4439 1.14985 12.35L1.34985 12.15C1.44393 12.0523 1.57427 11.998 1.70985 12H3.99985C3.99985 7.02944 8.02929 3 12.9999 3C17.9704 3 21.9999 7.02944 21.9999 12Z" fill="currentColor" />
</svg>
