<svg xmlns="http://www.w3.org/2000/svg" viewBox="0 0 24 24">
    <path d="M22.5 10H18.5L12.73 2.3C12.5864 2.11356 12.3653 2.00305 12.13 2H11.87C11.6347 2.00305 11.4136 2.11356 11.27 2.3L5.5 10H1.5C1.22386 10 1 10.2239 1 10.5V11.5C1 11.7761 1.22386 12 1.5 12H2L3.71 19.65C4.01148 21.0089 5.20813 21.982 6.6 22H17.4C18.8031 21.9959 20.016 21.0198 20.32 19.65L22 12H22.47C22.7461 12 22.97 11.7761 22.97 11.5V10.5C22.9705 10.2352 22.7644 10.0159 22.5 10ZM14.85 17.62C14.9467 17.7107 15.0015 17.8374 15.0015 17.97C15.0015 18.1026 14.9467 18.2293 14.85 18.32L14.32 18.85C14.2293 18.9467 14.1026 19.0015 13.97 19.0015C13.8374 19.0015 13.7107 18.9467 13.62 18.85L12 17.24L10.38 18.85C10.2893 18.9467 10.1626 19.0015 10.03 19.0015C9.89741 19.0015 9.77073 18.9467 9.68 18.85L9.15 18.32C9.05332 18.2293 8.99848 18.1026 8.99848 17.97C8.99848 17.8374 9.05332 17.7107 9.15 17.62L10.76 16L9.15 14.38C9.05332 14.2893 8.99848 14.1626 8.99848 14.03C8.99848 13.8974 9.05332 13.7707 9.15 13.68L9.68 13.15C9.77073 13.0533 9.89741 12.9985 10.03 12.9985C10.1626 12.9985 10.2893 13.0533 10.38 13.15L12 14.76L13.62 13.15C13.7107 13.0533 13.8374 12.9985 13.97 12.9985C14.1026 12.9985 14.2293 13.0533 14.32 13.15L14.85 13.68C14.9467 13.7707 15.0015 13.8974 15.0015 14.03C15.0015 14.1626 14.9467 14.2893 14.85 14.38L13.24 16L14.85 17.62ZM12 4.67L8 10H16L12 4.67Z" fill="currentColor" fill-rule="evenodd" clip-rule="evenodd" />
</svg>
