<svg xmlns="http://www.w3.org/2000/svg" viewBox="0 0 24 24">
    <path d="M16.6179 1.14293C16.8123 0.952357 17.1235 0.952357 17.3179 1.14293L17.8179 1.67293C17.9126 1.76681 17.9658 1.89461 17.9658 2.02793C17.9658 2.16125 17.9126 2.28905 17.8179 2.38293L12.1979 8.00293C12.1072 8.09961 11.9805 8.15445 11.8479 8.15445C11.7153 8.15445 11.5886 8.09961 11.4979 8.00293L9.1479 5.63293C9.05324 5.53904 9 5.41125 9 5.27793C9 5.14461 9.05324 5.01681 9.1479 4.92293L9.6779 4.39293C9.76863 4.29625 9.89531 4.24141 10.0279 4.24141C10.1605 4.24141 10.2872 4.29625 10.3779 4.39293L11.8779 5.88293L16.6179 1.14293ZM22 4.50002C22 4.22387 21.7761 4.00002 21.5 4.00002H20.5C20.2239 4.00002 20 4.22387 20 4.50002V5.00002C19.9968 5.47964 19.873 5.95076 19.64 6.37002L17.28 10.5C17.1236 10.7763 16.8452 10.9619 16.53 11H10.3C9.94489 10.9979 9.61755 10.8076 9.44 10.5L5.16 3.00002C4.80132 2.37875 4.13737 1.99717 3.42 2.00002H2.5C2.22386 2.00002 2 2.22387 2 2.50002V3.50002C2 3.77616 2.22386 4.00002 2.5 4.00002H3.42L7.7 11.49C7.77797 11.6155 7.86843 11.7328 7.97 11.84L6.11 15.54C5.99438 15.7626 5.99438 16.0275 6.11 16.25L6.33 16.63C6.4704 16.865 6.72633 17.0063 7 17H19.5C19.7761 17 20 16.7762 20 16.5V15.5C20 15.2239 19.7761 15 19.5 15H8.62L9.62 12.91C9.82904 12.9652 10.0439 12.9954 10.26 13H16.49C17.5357 12.979 18.4915 12.404 19 11.49L21.35 7.36002C21.7687 6.64346 21.9928 5.8299 22 5.00002V4.50002ZM6 20C6 18.8954 6.89543 18 8 18C9.10457 18 10 18.8954 10 20C10 21.1046 9.10457 22 8 22C6.89543 22 6 21.1046 6 20ZM18 22C19.1046 22 20 21.1046 20 20C20 18.8954 19.1046 18 18 18C16.8954 18 16 18.8954 16 20C16 21.1046 16.8954 22 18 22Z" fill="currentColor" fill-rule="evenodd" clip-rule="evenodd" />
</svg>
