<svg xmlns="http://www.w3.org/2000/svg" viewBox="0 0 24 24">
    <path d="M13.0107 2C13.5635 2.00011 14.0117 2.44779 14.0117 3V4.23047C15.3309 4.54211 16.5626 5.14676 17.6152 6L18.7266 4.83008C18.8205 4.73543 18.9485 4.68164 19.082 4.68164C19.2155 4.68166 19.3435 4.73545 19.4375 4.83008L20.1484 5.54004C20.339 5.73445 20.3391 6.04589 20.1484 6.24023L19.0166 7.37012C21.2132 10.1042 21.6205 13.8636 20.0605 17.0039C18.5005 20.1442 15.2571 22.0939 11.749 22C6.90005 21.8033 3.0546 17.8475 3 13C3.00233 8.80185 5.91033 5.16339 10.0078 4.23047V3C10.0078 2.44772 10.4559 2 11.0088 2H13.0107ZM12.0088 6C8.13886 6.00017 5.00195 9.13411 5.00195 13C5.00196 16.8659 8.13887 19.9998 12.0088 20C15.8788 20 19.0166 16.866 19.0166 13C19.0166 9.13401 15.8788 6 12.0088 6ZM12.5205 8.41992C12.6543 8.42215 12.7809 8.48044 12.8701 8.58008C12.9518 8.6811 12.9886 8.81177 12.9707 8.94043L12.6104 11.4199H14.501C14.777 11.42 15.0008 11.644 15.001 11.9199V12.1006C14.9979 12.1914 14.9737 12.2803 14.9307 12.3604L11.9307 17.2002C11.8505 17.3391 11.7005 17.4232 11.54 17.4199H11.5C11.3661 17.4177 11.2396 17.3596 11.1504 17.2598C11.0688 17.1588 11.032 17.0289 11.0498 16.9004L11.3896 14.4902H9.5C9.2238 14.4902 9.00001 14.2664 9 13.9902V13.8301C9.003 13.7393 9.02634 13.6503 9.06934 13.5703L12.0703 8.66016C12.1667 8.50556 12.3384 8.41379 12.5205 8.41992Z" fill="currentColor" />
</svg>
