<svg xmlns="http://www.w3.org/2000/svg" viewBox="0 0 24 24">
    <path d="M19 2H5C3.89543 2 3 2.89543 3 4V18C3 19.1046 3.89543 20 5 20H19C20.1046 20 21 19.1046 21 18V4C21 2.89543 20.1046 2 19 2ZM15.89 12.39L15.68 12.6C15.5861 12.6905 15.4605 12.7408 15.33 12.74H14V16.5C14 16.7761 13.7761 17 13.5 17H10.5C10.2239 17 10 16.7761 10 16.5V12.74H8.67C8.53954 12.7408 8.41393 12.6905 8.32 12.6L8.11 12.39C7.91822 12.1922 7.91822 11.8778 8.11 11.68L11.65 8.15C11.7407 8.05332 11.8674 7.99848 12 7.99848C12.1326 7.99848 12.2593 8.05332 12.35 8.15L15.89 11.68C16.0818 11.8778 16.0818 12.1922 15.89 12.39ZM5 6H19V4H5V6Z" fill="currentColor" fill-rule="evenodd" clip-rule="evenodd" />
</svg>
