<svg xmlns="http://www.w3.org/2000/svg" viewBox="0 0 24 24">
    <path d="M7.09326 4.45752C10.6519 2.14259 15.3457 2.62597 18.3569 5.61768L19.8481 4.12842C19.9423 4.03085 20.0729 3.97606 20.2085 3.97803H20.4985C20.7746 3.97825 20.9984 4.20211 20.9985 4.47803V9.47803C20.9984 9.75396 20.7746 9.97781 20.4985 9.97803H15.4946C15.2185 9.97782 14.9947 9.75396 14.9946 9.47803V9.18799C14.9927 9.05255 15.0474 8.92262 15.145 8.82861L16.9263 7.04834C15.6252 5.72672 13.8479 4.98085 11.9927 4.97803C8.18861 4.99204 5.09111 8.03768 5.01514 11.8384C4.93937 15.6391 7.91288 18.8056 11.7134 18.9712C15.5137 19.1366 18.7518 16.2405 19.0073 12.4478C19.0235 12.1838 19.2427 11.9778 19.5073 11.978H20.5083C20.6446 11.9822 20.7743 12.0398 20.8687 12.1382C20.9605 12.2386 21.0074 12.3725 20.9985 12.5083C20.7588 16.7448 17.5905 20.239 13.395 20.8931C9.19936 21.547 5.1166 19.1827 3.59717 15.2202C2.07794 11.2577 3.53457 6.7727 7.09326 4.45752ZM12.4995 7.50049C12.7757 7.50049 12.9995 7.72435 12.9995 8.00049V14.5005H14.4995C14.7757 14.5005 14.9995 14.7243 14.9995 15.0005V16.0005C14.9993 16.2764 14.7755 16.5005 14.4995 16.5005H9.49951C9.22368 16.5003 8.99975 16.2763 8.99951 16.0005V15.0005C8.99951 14.7245 9.22353 14.5007 9.49951 14.5005H10.9995V9.50049H9.49951C9.22368 9.5003 8.99975 9.27631 8.99951 9.00049V8.00049C8.99951 7.72446 9.22353 7.50068 9.49951 7.50049H12.4995Z" fill="currentColor" />
</svg>
