<svg xmlns="http://www.w3.org/2000/svg" viewBox="0 0 24 24">
    <path d="M4.37727 3.15005C4.28662 3.05338 4.16006 2.99854 4.0276 2.99854C3.89514 2.99854 3.76857 3.05338 3.67792 3.15005L3.14841 3.68005C3.05183 3.77079 2.99704 3.89747 2.99704 4.03005C2.99704 4.16264 3.05183 4.28932 3.14841 4.38005L5.99577 7.24005V19.0001C5.99577 20.1046 6.89037 21.0001 7.99392 21.0001H15.9865C17.0096 21.0063 17.8721 20.2379 17.9846 19.2201L19.6231 20.8501C19.7138 20.9467 19.8403 21.0016 19.9728 21.0016C20.1053 21.0016 20.2318 20.9467 20.3225 20.8501L20.852 20.3201C20.9486 20.2293 21.0034 20.1026 21.0034 19.9701C21.0034 19.8375 20.9486 19.7108 20.852 19.6201L4.37727 3.15005ZM15.9865 19.0001H7.99392V9.24005L15.9865 17.2401V19.0001ZM2.80804 7.02367C2.9341 7.06321 3.03883 7.15207 3.09846 7.27005L3.88773 8.75005C3.96058 8.89239 3.99827 9.05013 3.99763 9.21005V9.78005C4.0061 9.9417 3.97524 10.103 3.90771 10.2501L2.99855 12.0001L3.88773 13.7501C3.96058 13.8924 3.99827 14.0501 3.99763 14.2101V14.7801C3.99212 14.9416 3.94756 15.0995 3.86775 15.2401L3.09846 16.7301C2.96629 16.9728 2.66498 17.0659 2.41909 16.9401L1.52992 16.4801C1.28873 16.3517 1.19527 16.0532 1.32011 15.8101L1.99948 14.5001L1.11031 12.7401C1.03745 12.5977 0.999765 12.44 1.00041 12.2801V11.7001C0.996046 11.542 1.02675 11.3849 1.09032 11.2401L1.99948 9.49005L1.32011 8.19005C1.25806 8.07247 1.24642 7.93468 1.28787 7.80834C1.32932 7.68199 1.42029 7.57794 1.53991 7.52005L2.42908 7.06005C2.54532 6.99725 2.68199 6.98412 2.80804 7.02367ZM22.8701 11.2701L21.9809 9.49005L22.6603 8.19005C22.7224 8.07247 22.734 7.93468 22.6925 7.80834C22.6511 7.68199 22.5601 7.57794 22.4405 7.52005L21.5513 7.06005C21.4351 6.99725 21.2984 6.98412 21.1724 7.02367C21.0463 7.06321 20.9416 7.15207 20.882 7.27005L20.1127 8.75005C20.0398 8.89239 20.0021 9.05013 20.0028 9.21005V9.78005C20.0021 9.93998 20.0398 10.0977 20.1127 10.2401L20.9819 12.0001L20.0727 13.7601C19.9999 13.9024 19.9622 14.0601 19.9628 14.2201V14.7901C19.9622 14.95 19.9999 15.1077 20.0727 15.2501L20.842 16.7401C20.9742 16.9828 21.2755 17.0759 21.5214 16.9501L22.4105 16.4901C22.6517 16.3617 22.7452 16.0632 22.6203 15.8201L21.9809 14.5001L22.8901 12.7401C22.9629 12.5977 23.0006 12.44 23 12.2801V11.7001C22.9919 11.5389 22.9475 11.3816 22.8701 11.2401V11.2701ZM15.9865 12.2901V5.00005H8.70326L6.99484 3.28005C7.29626 3.09758 7.64166 3.00078 7.99392 3.00005H15.9865C17.09 3.00005 17.9846 3.89548 17.9846 5.00005V14.2901L15.9865 12.2901Z" fill="currentColor" fill-rule="evenodd" clip-rule="evenodd" />
</svg>
