<svg xmlns="http://www.w3.org/2000/svg" viewBox="0 0 24 24">
    <path d="M1 3H23C23.5523 3 24 3.44772 24 4V18C24 18.5523 23.5523 19 23 19H20L18 17H22V5H2V17H6L4 19H1C0.447715 19 0 18.5523 0 18V4C0 3.44772 0.447715 3 1 3ZM18.27 20.85L18.48 20.65C18.6718 20.4522 18.6718 20.1378 18.48 19.94L12.75 14.22C12.6095 14.0793 12.4188 14.0002 12.22 14H11.78C11.5812 14.0002 11.3905 14.0793 11.25 14.22L5.52 19.94C5.42534 20.0339 5.3721 20.1617 5.3721 20.295C5.3721 20.4283 5.42534 20.5561 5.52 20.65L5.73 20.85C5.82028 20.9471 5.9474 21.0016 6.08 21H17.92C18.0526 21.0016 18.1797 20.9471 18.27 20.85Z" fill="currentColor" fill-rule="evenodd" clip-rule="evenodd" />
</svg>
