<svg xmlns="http://www.w3.org/2000/svg" viewBox="0 0 24 24">
    <path d="M14.76 2C14.8979 2.00262 15.0292 2.05983 15.1248 2.15903C15.2205 2.25823 15.2727 2.3913 15.27 2.52894C15.2156 3.48579 14.8664 4.40251 14.27 5.15369C13.6532 5.95697 12.7581 6.5015 11.76 6.68064H11.68C11.5421 6.67802 11.4109 6.62081 11.3152 6.52161C11.2196 6.42241 11.1673 6.28934 11.17 6.1517C11.2086 5.19759 11.5599 4.2825 12.17 3.54691C12.8136 2.78912 13.6764 2.24875 14.64 2H14.76ZM15.62 8.66667C15.0934 8.66673 14.5725 8.77546 14.09 8.98603C13.3783 9.29262 12.6149 9.46194 11.84 9.48503C11.0198 9.46354 10.2101 9.2945 9.45001 8.98603C9.00687 8.79193 8.53299 8.67708 8.05001 8.64671C7.01202 8.74434 6.08849 9.34511 5.58001 10.2535C5.15661 11.0074 4.95553 11.8654 5.00001 12.7285C5.00001 16.3313 7.54001 19.7944 8.50001 19.9641C8.61001 19.9641 8.68001 19.9641 9.06001 19.7745C9.938 19.335 10.9078 19.1092 11.89 19.1158C12.8563 19.1087 13.81 19.3347 14.67 19.7745C15.02 19.9341 15.09 19.9641 15.22 19.9641C15.71 19.9042 16.7 18.6367 17.4 17.3892C15.979 16.1573 15.1682 14.3675 15.18 12.489C15.1485 11.1688 15.5604 9.87602 16.35 8.81637C16.1174 8.72384 15.8703 8.67316 15.62 8.66667ZM19.18 8.57685C19.18 8.12774 17.45 6.67066 15.62 6.67066C14.6568 6.67066 14.004 6.92198 13.4049 7.15263C12.8968 7.34822 12.4274 7.52894 11.84 7.52894C11.2296 7.52894 10.6896 7.33374 10.1248 7.12952C9.50519 6.90551 8.85558 6.67066 8.05001 6.67066C6.32762 6.76544 4.76661 7.71291 3.89001 9.19561C3.26846 10.2672 2.96015 11.491 3.00001 12.7285C3.00001 17.1098 6.15001 21.9601 8.47001 21.9601C9.07459 21.9601 9.48452 21.7852 9.92309 21.5982C10.4276 21.383 10.9699 21.1517 11.89 21.1517C12.8151 21.1517 13.341 21.3971 13.8271 21.6239C14.2448 21.8188 14.6331 22 15.22 22C17.74 22 19.84 17.02 19.84 16.9401C19.8382 16.7418 19.7211 16.5627 19.54 16.481C18.0631 15.6998 17.151 14.157 17.18 12.489C17.18 10.5593 18.1907 9.62316 18.7751 9.08178C19.0128 8.86158 19.18 8.7067 19.18 8.57685Z" fill="currentColor" fill-rule="evenodd" clip-rule="evenodd" />
</svg>
