<svg xmlns="http://www.w3.org/2000/svg" viewBox="0 0 24 24">
    <path d="M17.6501 16.23L13.4101 12L17.6501 7.77002C17.8418 7.5722 17.8418 7.25783 17.6501 7.06002L12.8801 2.29002C12.6913 2.10283 12.4359 1.99848 12.1701 2.00002H11.5001C11.2239 2.00002 11.0001 2.22387 11.0001 2.50002V9.59002L7.56005 6.15002C7.46617 6.05536 7.33837 6.00212 7.20505 6.00212C7.07174 6.00212 6.94394 6.05536 6.85005 6.15002L6.15005 6.86002C6.05338 6.95075 5.99854 7.07743 5.99854 7.21002C5.99854 7.3426 6.05338 7.46928 6.15005 7.56002L10.5801 12L6.15005 16.44C6.05338 16.5308 5.99854 16.6574 5.99854 16.79C5.99854 16.9226 6.05338 17.0493 6.15005 17.14L6.85005 17.85C6.94394 17.9447 7.07174 17.9979 7.20505 17.9979C7.33837 17.9979 7.46617 17.9447 7.56005 17.85L11.0001 14.41V21.5C11.0001 21.7762 11.2239 22 11.5001 22H12.1701C12.4359 22.0016 12.6913 21.8972 12.8801 21.71L17.6501 16.94C17.8418 16.7422 17.8418 16.4278 17.6501 16.23ZM13.0001 5.24002L15.1701 7.41002L13.0001 9.58002V5.24002ZM13.0001 14.42V18.76L15.1701 16.59L13.0001 14.42Z" fill="currentColor" fill-rule="evenodd" clip-rule="evenodd" />
</svg>
