<svg xmlns="http://www.w3.org/2000/svg" viewBox="0 0 24 24">
    <path d="M13.6501 7.77002L9.41005 12L13.6501 16.23C13.8418 16.4278 13.8418 16.7422 13.6501 16.94L8.88005 21.71C8.69134 21.8972 8.43586 22.0016 8.17005 22H7.50005C7.22391 22 7.00005 21.7762 7.00005 21.5V14.41L3.56005 17.85C3.46617 17.9447 3.33837 17.9979 3.20505 17.9979C3.07174 17.9979 2.94394 17.9447 2.85005 17.85L2.15005 17.14C2.05338 17.0493 1.99854 16.9226 1.99854 16.79C1.99854 16.6574 2.05338 16.5308 2.15005 16.44L6.58005 12L2.15005 7.56002C2.05338 7.46928 1.99854 7.3426 1.99854 7.21002C1.99854 7.07743 2.05338 6.95075 2.15005 6.86002L2.85005 6.15002C2.94394 6.05536 3.07174 6.00212 3.20505 6.00212C3.33837 6.00212 3.46617 6.05536 3.56005 6.15002L7.00005 9.59002V2.50002C7.00005 2.22387 7.22391 2.00002 7.50005 2.00002H8.17005C8.43586 1.99848 8.69134 2.10283 8.88005 2.29002L13.6501 7.06002C13.8418 7.25783 13.8418 7.5722 13.6501 7.77002ZM11.1701 7.41002L9.00005 5.24002V9.58002L11.1701 7.41002ZM9.00005 18.76V14.42L11.1701 16.59L9.00005 18.76ZM12.5001 11H13.5001C13.7762 11 14.0001 11.2239 14.0001 11.5V12.5C14.0001 12.7762 13.7762 13 13.5001 13H12.5001C12.2239 13 12.0001 12.7762 12.0001 12.5V11.5C12.0001 11.2239 12.2239 11 12.5001 11ZM17.5001 11H16.5001C16.2239 11 16.0001 11.2239 16.0001 11.5V12.5C16.0001 12.7762 16.2239 13 16.5001 13H17.5001C17.7762 13 18.0001 12.7762 18.0001 12.5V11.5C18.0001 11.2239 17.7762 11 17.5001 11ZM20.5001 11H21.5001C21.7762 11 22.0001 11.2239 22.0001 11.5V12.5C22.0001 12.7762 21.7762 13 21.5001 13H20.5001C20.2239 13 20.0001 12.7762 20.0001 12.5V11.5C20.0001 11.2239 20.2239 11 20.5001 11Z" fill="currentColor" fill-rule="evenodd" clip-rule="evenodd" />
</svg>
