<svg xmlns="http://www.w3.org/2000/svg" viewBox="0 0 24 24">
    <path d="M15.1699 7.41002L12.9999 5.24002V9.11002L10.9999 7.11002V2.50002C10.9999 2.22387 11.2237 2.00002 11.4999 2.00002H12.1699C12.4357 1.99848 12.6911 2.10283 12.8799 2.29002L17.6499 7.05002C17.8416 7.24783 17.8416 7.5622 17.6499 7.76002L14.6499 10.76L13.2399 9.35002L15.1699 7.41002ZM20.8499 20.15C20.9445 20.0561 20.9978 19.9283 20.9978 19.795C20.9978 19.6617 20.9445 19.5339 20.8499 19.44L4.55985 3.15002C4.46597 3.05536 4.33817 3.00212 4.20485 3.00212C4.07153 3.00212 3.94374 3.05536 3.84985 3.15002L3.14985 3.85002C3.0552 3.9439 3.00195 4.0717 3.00195 4.20502C3.00195 4.33834 3.0552 4.46613 3.14985 4.56002L10.5999 12L6.14985 16.44C6.05317 16.5308 5.99833 16.6574 5.99833 16.79C5.99833 16.9226 6.05317 17.0493 6.14985 17.14L6.84985 17.85C6.94374 17.9447 7.07153 17.9979 7.20485 17.9979C7.33817 17.9979 7.46597 17.9447 7.55985 17.85L10.9999 14.41V21.5C10.9999 21.7762 11.2237 22 11.4999 22H12.1699C12.4357 22.0016 12.6911 21.8972 12.8799 21.71L16.5899 18L19.4399 20.85C19.5337 20.9447 19.6615 20.9979 19.7949 20.9979C19.9282 20.9979 20.056 20.9447 20.1499 20.85L20.8499 20.15ZM12.9999 18.76V14.42L15.1699 16.59L12.9999 18.76Z" fill="currentColor" fill-rule="evenodd" clip-rule="evenodd" />
</svg>
