<svg xmlns="http://www.w3.org/2000/svg" viewBox="0 0 24 24">
    <path d="M16.4799 17.8998C16.3127 17.7287 16.0464 17.7034 15.8499 17.8398C14.7102 18.6002 13.3699 19.004 11.9999 18.9998C8.42215 18.979 5.43597 16.2636 5.07615 12.7039C4.71633 9.14431 7.0987 5.88624 10.5999 5.14984C10.8327 5.10231 10.9999 4.89747 10.9999 4.65984V2.65984C11.0047 2.51155 10.9376 2.37007 10.8199 2.27984C10.7118 2.18089 10.5645 2.1367 10.4199 2.15984C6.35283 2.83318 3.11577 5.93327 2.26732 9.96742C1.41888 14.0016 3.13296 18.143 6.58422 20.3975C10.0355 22.6521 14.5166 22.5577 17.8699 20.1598C17.9847 20.0694 18.0571 19.9355 18.0699 19.7898C18.0818 19.6457 18.0307 19.5035 17.9299 19.3998L16.4799 17.8998ZM12.9999 4.65984V2.65984C12.9951 2.51155 13.0621 2.37007 13.1799 2.27984C13.2879 2.18089 13.4352 2.1367 13.5799 2.15984C17.8501 2.84097 21.1987 6.18963 21.8799 10.4598C21.903 10.6045 21.8588 10.7518 21.7599 10.8598C21.6696 10.9776 21.5282 11.0446 21.3799 11.0398H19.3799C19.1422 11.0399 18.9374 10.8727 18.8899 10.6398C18.3354 7.86965 16.1701 5.70431 13.3999 5.14984C13.167 5.10231 12.9998 4.89747 12.9999 4.65984ZM19.3799 12.9998H21.3799C21.5452 12.9774 21.7098 13.0463 21.8099 13.1798C21.9088 13.2879 21.953 13.4352 21.9299 13.5798C21.6769 15.1236 21.0712 16.5883 20.1599 17.8598C20.073 17.9804 19.9379 18.0571 19.7899 18.0698C19.6457 18.0818 19.5035 18.0307 19.3999 17.9298L17.9499 16.4798C17.7826 16.3108 17.7575 16.0474 17.8899 15.8498C18.3845 15.1087 18.7246 14.2754 18.8899 13.3998C18.9374 13.167 19.1422 12.9998 19.3799 12.9998Z" fill="currentColor" fill-rule="evenodd" clip-rule="evenodd" />
</svg>
