<svg xmlns="http://www.w3.org/2000/svg" viewBox="0 0 24 24">
    <path d="M13.0001 10.5001V2.62007C12.9953 2.47179 13.0623 2.3303 13.1801 2.24007C13.2876 2.14047 13.4368 2.09943 13.5801 2.13007C17.8434 2.81391 21.1863 6.15681 21.8701 10.4201C21.9007 10.5634 21.8597 10.7126 21.7601 10.8201C21.6699 10.9378 21.5284 11.0049 21.3801 11.0001H13.5001C13.224 11.0001 13.0001 10.7762 13.0001 10.5001ZM21.3801 13.0001H13.5001C13.224 13.0001 13.0001 13.2239 13.0001 13.5001V21.3801C12.9953 21.5284 13.0623 21.6698 13.1801 21.7601C13.2876 21.8597 13.4368 21.9007 13.5801 21.8701C17.8434 21.1862 21.1863 17.8433 21.8701 13.5801C21.9007 13.4368 21.8597 13.2875 21.7601 13.1801C21.6699 13.0623 21.5284 12.9953 21.3801 13.0001ZM1.9873 12.0001C1.9873 7.09758 5.54134 2.918 10.3801 2.13007H10.4201C10.5504 2.11238 10.6819 2.15257 10.7801 2.24007C10.8979 2.3303 10.9649 2.47179 10.9601 2.62007V21.3801C10.9649 21.5284 10.8979 21.6698 10.7801 21.7601C10.6726 21.8597 10.5234 21.9007 10.3801 21.8701C5.54134 21.0821 1.9873 16.9026 1.9873 12.0001Z" fill="currentColor" fill-rule="evenodd" clip-rule="evenodd" />
</svg>
