<svg xmlns="http://www.w3.org/2000/svg" viewBox="0 0 24 24">
    <path d="M20.8699 10.8473C20.9608 10.7461 21.0076 10.6128 20.9999 10.4769C20.7417 6.45943 17.5437 3.25841 13.5299 3C13.3898 3.00026 13.256 3.05817 13.1599 3.16015C13.059 3.25704 13.0013 3.39053 12.9999 3.53049V4.53142C13.0147 4.78485 13.2167 4.98705 13.4699 5.00185C16.4229 5.22521 18.7714 7.57165 18.9999 10.527C19.0107 10.7955 19.2314 11.0076 19.4999 11.0074H20.4999C20.6397 11.006 20.7731 10.9483 20.8699 10.8473ZM17.4799 13.0093H18.4799C18.7561 13.0093 18.9799 13.2333 18.9799 13.5097C18.7032 17.789 15.1075 21.0905 10.8243 20.9981C6.54102 20.9057 3.09077 17.4523 2.99847 13.1651C2.90618 8.87782 6.2046 5.27882 10.4799 5.00185C10.616 4.9964 10.7483 5.04671 10.8465 5.14117C10.9446 5.23562 11 5.36604 10.9999 5.50232V6.50324C11.0007 6.76473 10.8003 6.98279 10.5399 7.00371C7.35983 7.24882 4.92713 9.94142 5.00225 13.133C5.07737 16.3246 7.63405 18.8995 10.8221 18.9944C14.0102 19.0894 16.7153 16.6712 16.9799 13.4897C16.9907 13.2212 17.2114 13.0091 17.4799 13.0093Z" fill="currentColor" fill-rule="evenodd" clip-rule="evenodd" />
</svg>
