<svg xmlns="http://www.w3.org/2000/svg" viewBox="0 0 24 24">
    <path d="M20 5V15C20 15.5523 19.5523 16 19 16H17C16.4477 16 16 15.5523 16 15V5C16 4.44772 16.4477 4 17 4H19C19.5523 4 20 4.44772 20 5ZM13 8C13.5523 8 14 8.44772 14 9V15C14 15.5523 13.5523 16 13 16H11C10.4477 16 10 15.5523 10 15V9C10 8.44772 10.4477 8 11 8H13ZM5 16H7C7.55228 16 8 15.5523 8 15V13C8 12.4477 7.55228 12 7 12H5C4.44772 12 4 12.4477 4 13V15C4 15.5523 4.44772 16 5 16ZM22 19.5V18.5C22 18.2239 21.7761 18 21.5 18H2.5C2.22386 18 2 18.2239 2 18.5V19.5C2 19.7761 2.22386 20 2.5 20H21.5C21.7761 20 22 19.7761 22 19.5Z" fill="currentColor" fill-rule="evenodd" clip-rule="evenodd" />
</svg>
