<svg xmlns="http://www.w3.org/2000/svg" viewBox="0 0 24 24">
    <path d="M4.3759 4.14986C4.28527 4.05331 4.15874 3.99854 4.02632 3.99854C3.8939 3.99854 3.76737 4.05331 3.67675 4.14986L3.14739 4.67918C3.05083 4.7698 2.99605 4.89632 2.99605 5.02874C2.99605 5.16115 3.05083 5.28767 3.14739 5.37829L6.19368 8.43438C6.06101 8.94309 5.99388 9.46666 5.99393 9.99238C3.23586 9.99238 1 12.2281 1 14.986C1 17.7439 3.23586 19.9796 5.99393 19.9796H17.48H17.7297L19.5974 21.8472C19.688 21.9438 19.8145 21.9985 19.947 21.9985C20.0794 21.9985 20.2059 21.9438 20.2965 21.8472L20.8259 21.3179C20.9225 21.2273 20.9772 21.1007 20.9772 20.9683C20.9772 20.8359 20.9225 20.7094 20.8259 20.6188L4.3759 4.14986ZM5.99393 17.9822C5.09405 17.9823 4.24174 17.5781 3.67254 16.8812C3.10334 16.1842 2.87752 15.2684 3.0575 14.3868C3.38345 12.9628 4.66317 11.9625 6.12377 11.9898H7.49211C7.76791 11.9898 7.9915 11.7663 7.9915 11.4905V10.2321L15.7421 17.9822H5.99393ZM11.9866 4.00005C14.9086 4.00301 17.4025 6.11274 17.8895 8.99366C20.0792 9.14295 21.9689 10.5835 22.6929 12.6553C23.4169 14.7271 22.8356 17.031 21.2154 18.5115L19.7971 17.0933C20.5492 16.4362 20.9792 15.4852 20.9757 14.4866C20.9703 12.6608 19.5605 11.1467 17.7396 11.0111L16.5711 10.9212C16.3412 10.9047 16.1539 10.7299 16.1216 10.5017L15.9219 9.34321C15.6913 7.95715 14.7494 6.79413 13.4415 6.28041C12.1336 5.76669 10.652 5.97782 9.53962 6.83642L8.12134 5.41824C9.19825 4.49773 10.5699 3.99447 11.9866 4.00005Z" fill="currentColor" fill-rule="evenodd" clip-rule="evenodd" />
</svg>
