<svg xmlns="http://www.w3.org/2000/svg" viewBox="0 0 24 24">
    <path d="M4.03 3.99854C4.16259 3.99854 4.28927 4.05331 4.38 4.14986L20.85 20.6188C20.9467 20.7094 21.0015 20.8359 21.0015 20.9683C21.0015 21.1007 20.9467 21.2273 20.85 21.3179L20.32 21.8472C20.2293 21.9438 20.1026 21.9985 19.97 21.9985C19.8374 21.9985 19.7107 21.9438 19.62 21.8472L17.75 19.9796H17.5H6C3.23858 19.9796 1 17.7439 1 14.986C1 12.2281 3.23858 9.99238 6 9.99238C6.00207 9.46944 6.07267 8.94901 6.21 8.44436L3.15 5.37829C3.05332 5.28767 2.99848 5.16115 2.99848 5.02874C2.99848 4.89632 3.05332 4.7698 3.15 4.67918L3.68 4.14986C3.77073 4.05331 3.89741 3.99854 4.03 3.99854ZM21.24 18.4815C22.3549 17.4505 22.9921 16.0041 23 14.4866C23.0129 11.604 20.7887 9.20366 17.91 8.99366C17.4224 6.11274 14.9255 4.00301 12 4.00005C10.5815 3.99447 9.20822 4.49773 8.13 5.41824L21.24 18.4815Z" fill="currentColor" fill-rule="evenodd" clip-rule="evenodd" />
</svg>
