<svg xmlns="http://www.w3.org/2000/svg" viewBox="0 0 24 24">
    <path d="M11.3991 4.02134C14.4649 3.76099 17.2204 5.90994 17.7509 8.97503C20.7599 9.08846 23.1083 11.6476 22.9961 14.691C22.884 17.7343 20.3538 20.1095 17.3448 19.9961H5.95297C3.21752 19.9961 1 17.7532 1 14.9865C1 12.2198 3.21752 9.97694 5.95297 9.97694C5.97079 6.86529 8.33339 4.28169 11.3991 4.02134ZM14.8698 14.9364C14.8698 14.8036 14.8155 14.6767 14.7197 14.5858L13.1249 12.9827L14.7197 11.3596C14.8155 11.2687 14.8698 11.1418 14.8698 11.0089C14.8698 10.8761 14.8155 10.7492 14.7197 10.6582L14.1947 10.1272C14.1048 10.0304 13.9793 9.97542 13.848 9.97542C13.7167 9.97542 13.5912 10.0304 13.5013 10.1272L11.8965 11.7403L10.2918 10.1272C10.2019 10.0304 10.0764 9.97542 9.94507 9.97542C9.81373 9.97542 9.68824 10.0304 9.59836 10.1272L9.07334 10.6582C8.97757 10.7492 8.92325 10.8761 8.92325 11.0089C8.92325 11.1418 8.97757 11.2687 9.07334 11.3596L10.6682 12.9827L9.07334 14.6058C8.97757 14.6967 8.92325 14.8236 8.92325 14.9565C8.92325 15.0893 8.97757 15.2162 9.07334 15.3071L9.59836 15.8381C9.68824 15.935 9.81373 15.99 9.94507 15.99C10.0764 15.99 10.2019 15.935 10.2918 15.8381L11.8965 14.2251L13.5013 15.8181C13.5912 15.915 13.7167 15.9699 13.848 15.9699C13.9793 15.9699 14.1048 15.915 14.1947 15.8181L14.7197 15.2871C14.8155 15.1962 14.8698 15.0693 14.8698 14.9364Z" fill="currentColor" fill-rule="evenodd" clip-rule="evenodd" />
</svg>
