<svg xmlns="http://www.w3.org/2000/svg" viewBox="0 0 24 24">
    <path d="M11.9995 4C14.9795 4 17.4455 6.174 17.9125 9.021C20.7565 9.233 22.9995 11.602 22.9995 14.5C22.9995 17.537 20.5365 20 17.4995 20H5.99951C3.23851 20 0.999512 17.761 0.999512 15C0.999512 12.239 3.23851 10 5.99951 10C5.99951 6.686 8.68651 4 11.9995 4ZM15.6815 12.598L15.8885 12.391C16.0835 12.196 16.0835 11.879 15.8885 11.684L12.3535 8.148C12.1555 7.95 11.8445 7.951 11.6465 8.148L8.11151 11.684C7.91551 11.879 7.91551 12.196 8.11151 12.391L8.31851 12.598C8.41151 12.692 8.53851 12.745 8.67151 12.745H9.99951V16.5C9.99951 16.776 10.2235 17 10.4995 17H13.4995C13.7765 17 13.9995 16.776 13.9995 16.5V12.745H15.3275C15.4605 12.745 15.5875 12.692 15.6815 12.598Z" fill="currentColor" fill-rule="evenodd" clip-rule="evenodd" />
</svg>
