<svg xmlns="http://www.w3.org/2000/svg" viewBox="0 0 24 24">
    <path d="M7.68852 18.9347C7.07082 17.8244 5.75011 15.4505 5.75011 11.75L5.79011 9.93C5.79011 8.2 7.09011 3.5 12.0001 3.5C12.2816 3.5003 12.5625 3.52371 12.8401 3.57C13.0765 3.60657 13.3048 3.46708 13.3801 3.24L13.5601 2.76C13.6249 2.62399 13.6249 2.46602 13.5601 2.33C13.4859 2.20101 13.3572 2.11271 13.2101 2.09C12.8096 2.02983 12.4051 1.99975 12.0001 2C9.91102 2.03157 7.92022 2.89255 6.46647 4.39319C5.01273 5.89384 4.21536 7.91096 4.25011 10V11.85C4.29358 13.8484 4.68265 15.8243 5.40011 17.69C6.02011 19.29 6.72011 20.37 7.10011 20.37C7.20067 20.3707 7.29881 20.3392 7.38011 20.28L7.80011 20C7.92729 19.9066 8.00173 19.7578 8.00011 19.6C8.00011 19.4948 7.87707 19.2736 7.68852 18.9347ZM15.2801 3C15.4136 2.93968 15.5666 2.93968 15.7001 3C18.1394 4.35561 19.6601 6.91939 19.6801 9.71V11.43C19.6748 11.7039 19.454 11.9247 19.1801 11.93H18.6801C18.404 11.93 18.1801 11.7061 18.1801 11.43V9.78C18.1794 7.54663 16.9756 5.48684 15.0301 4.39C14.8219 4.26908 14.7294 4.01688 14.8101 3.79L14.9901 3.3C15.0396 3.16322 15.1451 3.05407 15.2801 3ZM11.7501 9.75C11.474 9.75 11.2501 9.97386 11.2501 10.25V11.75C11.2497 12.7964 11.4429 13.8339 11.8201 14.81C11.8697 14.9444 11.9757 15.0504 12.1101 15.1C12.2436 15.1603 12.3966 15.1603 12.5301 15.1L12.9601 14.86C13.1805 14.7446 13.2795 14.4822 13.1901 14.25C12.8972 13.4595 12.7481 12.623 12.7501 11.78V10.28C12.7584 10.1423 12.7094 10.0073 12.6147 9.90689C12.52 9.80653 12.3881 9.74975 12.2501 9.75H11.7501ZM14.3401 16.26C15.0598 17.185 15.9978 17.9169 17.0701 18.39C17.319 18.4837 17.4477 18.7589 17.3601 19.01L17.1801 19.49C17.1333 19.6177 17.0364 19.7208 16.9119 19.7755C16.7873 19.8302 16.6459 19.8319 16.5201 19.78C15.1745 19.1952 13.9982 18.2803 13.1001 17.12C13.0126 17.0039 12.98 16.8555 13.0107 16.7134C13.0414 16.5713 13.1325 16.4496 13.2601 16.38L13.7101 16.13C13.9238 16.0146 14.1896 16.0694 14.3401 16.26ZM9.25011 11.93C9.22885 11.6742 9.00624 11.4827 8.75011 11.5H8.25011C7.98887 11.4992 7.77101 11.6996 7.75011 11.96C7.88011 17.96 12.4901 21.85 13.2801 21.85C13.4556 21.851 13.6188 21.7599 13.7101 21.61L13.9801 21.19C14.0278 21.1118 14.0521 21.0216 14.0501 20.93C14.0501 20.7936 13.7895 20.567 13.3898 20.2193C12.09 19.0891 9.31894 16.6793 9.25011 11.93ZM16.2501 11.75C16.2538 13.2631 17.1641 14.6265 18.5601 15.21C18.7418 15.2927 18.8617 15.4705 18.8701 15.67C18.879 15.7129 18.879 15.7571 18.8701 15.8L18.7401 16.28C18.6816 16.4973 18.4851 16.6487 18.2601 16.65C16.1457 15.9464 14.7273 13.9583 14.7501 11.73V9.73C14.8136 8.21674 13.6384 6.93851 12.1251 6.875C10.6119 6.81149 9.33363 7.98674 9.27011 9.5C9.25937 9.7683 9.03863 9.98022 8.77011 9.98H8.26011C8.13015 9.98268 8.00445 9.93361 7.91067 9.84359C7.8169 9.75356 7.76274 9.62997 7.76011 9.5C7.89725 7.25707 9.753 5.50636 12.0001 5.5C14.3941 5.56544 16.2894 7.54548 16.2501 9.94V11.75Z" fill="currentColor" fill-rule="evenodd" clip-rule="evenodd" />
</svg>
