<svg xmlns="http://www.w3.org/2000/svg" viewBox="0 0 24 24">
    <path d="M21 7.66014V8.00014C21.0008 9.06623 20.5761 10.0885 19.82 10.8401L17 13.6701C16.4739 14.1912 15.6261 14.1912 15.1 13.6701L15 13.5601C14.8094 13.3657 14.8094 13.0546 15 12.8601L18.44 9.42014C18.8071 9.03945 19.0084 8.52889 19 8.00014V7.66014C19.0004 7.12709 18.788 6.61593 18.41 6.24014L17.76 5.59014C17.3842 5.2121 16.873 4.99972 16.34 5.00014H16C15.467 4.99972 14.9558 5.2121 14.58 5.59014L11.14 9.00014C10.9456 9.19071 10.6344 9.19071 10.44 9.00014L10.33 8.89014C9.80889 8.364 9.80889 7.51628 10.33 6.99014L13.16 4.15014C13.9165 3.40505 14.9382 2.99133 16 3.00014H16.34C17.4012 2.9993 18.4192 3.42018 19.17 4.17014L19.83 4.83014C20.58 5.58093 21.0008 6.59895 21 7.66014ZM8.65 13.9401L13.94 8.65014C14.0339 8.55548 14.1617 8.50224 14.295 8.50224C14.4283 8.50224 14.5561 8.55548 14.65 8.65014L15.35 9.35014C15.4447 9.44402 15.4979 9.57182 15.4979 9.70514C15.4979 9.83846 15.4447 9.96625 15.35 10.0601L10.06 15.3501C9.96612 15.4448 9.83832 15.498 9.705 15.498C9.57168 15.498 9.44388 15.4448 9.35 15.3501L8.65 14.6501C8.55534 14.5563 8.5021 14.4285 8.5021 14.2951C8.5021 14.1618 8.55534 14.034 8.65 13.9401ZM13.56 15.0001C13.3656 14.8096 13.0544 14.8096 12.86 15.0001L9.43 18.4101C9.05177 18.7906 8.53651 19.0032 8 19.0001H7.66C7.12696 19.0006 6.6158 18.7882 6.24 18.4101L5.59 17.7601C5.21196 17.3843 4.99958 16.8732 5 16.3401V16.0001C4.99958 15.4671 5.21196 14.9559 5.59 14.5801L9.01 11.1401C9.20057 10.9457 9.20057 10.6346 9.01 10.4401L8.9 10.3301C8.37386 9.80903 7.52614 9.80903 7 10.3301L4.18 13.1601C3.42392 13.9117 2.99916 14.934 3 16.0001V16.3501C3.00182 17.4079 3.42249 18.4218 4.17 19.1701L4.83 19.8301C5.58079 20.5801 6.59882 21.001 7.66 21.0001H8C9.05344 21.0063 10.0668 20.5967 10.82 19.8601L13.67 17.0101C14.1911 16.484 14.1911 15.6363 13.67 15.1101L13.56 15.0001Z" fill="currentColor" fill-rule="evenodd" clip-rule="evenodd" />
</svg>
