<svg xmlns="http://www.w3.org/2000/svg" viewBox="0 0 24 24">
    <path d="M8.1567 6.12991L7.44978 5.41991C7.33842 5.31173 7.18601 5.25706 7.03161 5.26991C6.89291 5.27916 6.76375 5.34402 6.67317 5.44991C4.44228 8.06948 4.44228 11.9303 6.67317 14.5499C6.76375 14.6558 6.89291 14.7207 7.03161 14.7299C7.17242 14.7316 7.30827 14.6777 7.40996 14.5799L8.11688 13.8699C8.28789 13.6796 8.28789 13.3902 8.11688 13.1999C6.57941 11.346 6.57941 8.65382 8.11688 6.79991C8.29961 6.62004 8.31683 6.33034 8.1567 6.12991ZM17.3068 14.5499C17.2163 14.6558 17.0871 14.7207 16.9484 14.7299C16.8076 14.7316 16.6717 14.6777 16.57 14.5799L15.8631 13.8699C15.6921 13.6796 15.6921 13.3902 15.8631 13.1999C17.4006 11.346 17.4006 8.65382 15.8631 6.79991C15.6921 6.6096 15.6921 6.32022 15.8631 6.12991L16.57 5.41991C16.6814 5.31173 16.8338 5.25706 16.9882 5.26991C17.1269 5.27916 17.2561 5.34402 17.3467 5.44991C19.5661 8.07932 19.5492 11.9402 17.3068 14.5499ZM9.10497 10.6577C8.87892 9.65629 9.17852 8.60833 9.89911 7.87991C10.7639 6.99845 12.0789 6.74079 13.2102 7.23112C14.3415 7.72146 15.0569 8.85916 15.0117 10.0958C14.9664 11.3325 14.1697 12.4144 13.0056 12.8199V21.4999C13.0056 21.7761 12.7827 21.9999 12.5077 21.9999H11.5121C11.2371 21.9999 11.0143 21.7761 11.0143 21.4999V12.8199C10.0513 12.4748 9.33103 11.6591 9.10497 10.6577Z" fill="currentColor" fill-rule="evenodd" clip-rule="evenodd" />
</svg>
