<svg xmlns="http://www.w3.org/2000/svg" viewBox="0 0 24 24">
    <path d="M5 2H19C19.5523 2 20 2.44772 20 3V9C20 9.55228 19.5523 10 19 10H5C4.44772 10 4 9.55228 4 9V3C4 2.44772 4.44772 2 5 2ZM20 21V15C20 14.4477 19.5523 14 19 14H17V12.5C17 12.2239 16.7761 12 16.5 12H14.5C14.2239 12 14 12.2239 14 12.5V14H10V12.5C10 12.2239 9.77614 12 9.5 12H7.5C7.22386 12 7 12.2239 7 12.5V14H5C4.44772 14 4 14.4477 4 15V21C4 21.5523 4.44772 22 5 22H19C19.5523 22 20 21.5523 20 21Z" fill="currentColor" fill-rule="evenodd" clip-rule="evenodd" />
</svg>
