<svg xmlns="http://www.w3.org/2000/svg" viewBox="0 0 24 24">
    <path d="M5 3H19C20.1046 3 21 3.89543 21 5V19C21 20.1046 20.1046 21 19 21H5C3.89543 21 3 20.1046 3 19V5C3 3.89543 3.89543 3 5 3ZM8.5 18C8.77614 18 9 17.7761 9 17.5V12.5C9 12.2239 8.77614 12 8.5 12H7.5C7.22386 12 7 12.2239 7 12.5V17.5C7 17.7761 7.22386 18 7.5 18H8.5ZM13 17.5C13 17.7761 12.7761 18 12.5 18H11.5C11.2239 18 11 17.7761 11 17.5V6.5C11 6.22386 11.2239 6 11.5 6H12.5C12.7761 6 13 6.22386 13 6.5V17.5ZM16.5 18C16.7761 18 17 17.7761 17 17.5V10.5C17 10.2239 16.7761 10 16.5 10H15.5C15.2239 10 15 10.2239 15 10.5V17.5C15 17.7761 15.2239 18 15.5 18H16.5Z" fill="currentColor" fill-rule="evenodd" clip-rule="evenodd" />
</svg>
