<svg xmlns="http://www.w3.org/2000/svg" viewBox="0 0 24 24">
    <path d="M16.59 1.59L20.12 5.12C20.6828 5.68207 20.9993 6.44462 21 7.24V13.09C20.9981 15.5573 19.8579 17.8857 17.91 19.4L13.83 22.58C13.4782 22.853 13.0453 23.0008 12.6 23H11.4C10.9547 23.0008 10.5218 22.853 10.17 22.58L6.09 19.4C4.14207 17.8857 3.00185 15.5573 3 13.09V7.24C3.0007 6.44462 3.31723 5.68207 3.88 5.12L7.41 1.59C7.7858 1.21196 8.29696 0.999578 8.83 1H15.17C15.703 0.999578 16.2142 1.21196 16.59 1.59ZM16.68 17.85C18.1497 16.7223 19.0079 14.9725 19 13.12V12H12V3H8.83L5.29 6.54C5.10526 6.72626 5.0011 6.97766 5 7.24V12H12V21H12.6L16.68 17.85Z" fill="currentColor" fill-rule="evenodd" clip-rule="evenodd" />
</svg>
