<svg xmlns="http://www.w3.org/2000/svg" viewBox="0 0 24 24">
    <path d="M20.12 5.12C20.6828 5.68207 20.9993 6.44462 21 7.24V13.09C20.9981 15.5573 19.8579 17.8857 17.91 19.4L13.83 22.58C13.4782 22.853 13.0453 23.0008 12.6 23H11.4C10.9547 23.0008 10.5218 22.853 10.17 22.58L6.09 19.4C4.14207 17.8857 3.00185 15.5573 3 13.09V7.24C3.0007 6.44462 3.31723 5.68207 3.88 5.12L7.41 1.59C7.7858 1.21196 8.29696 0.999578 8.83 1H15.17C15.703 0.999578 16.2142 1.21196 16.59 1.59L20.12 5.12ZM10.73 14.86L16.35 9.24V9.23C16.5406 9.03558 16.5406 8.72442 16.35 8.53L15.82 8C15.6256 7.80943 15.3144 7.80943 15.12 8L10.38 12.73L8.88 11.24C8.78927 11.1433 8.66259 11.0885 8.53 11.0885C8.39741 11.0885 8.27073 11.1433 8.18 11.24L7.65 11.77C7.55534 11.8639 7.5021 11.9917 7.5021 12.125C7.5021 12.2583 7.55534 12.3861 7.65 12.48L10.03 14.86C10.1207 14.9567 10.2474 15.0115 10.38 15.0115C10.5126 15.0115 10.6393 14.9567 10.73 14.86Z" fill="currentColor" fill-rule="evenodd" clip-rule="evenodd" />
</svg>
