<svg xmlns="http://www.w3.org/2000/svg" viewBox="0 0 24 24">
    <path d="M4.48158 6.0479C6.09584 3.59395 8.8054 2.08291 11.7401 2.00005C14.7667 1.91039 17.6353 3.35079 19.3725 5.83254C21.1097 8.31428 21.4824 11.5042 20.3641 14.32C20.3117 14.4475 20.2091 14.5477 20.0804 14.5969C19.9518 14.6461 19.8086 14.64 19.6846 14.58L18.7752 14.15C18.5314 14.0407 18.4202 13.7559 18.5254 13.51C18.8392 12.7106 18.9985 11.8589 18.995 11C18.9959 9.10657 18.2302 7.29351 16.8726 5.97455C15.515 4.65559 13.6814 3.94324 11.7901 4.00005C9.89301 4.08509 8.10919 4.92758 6.83771 6.33902C5.56623 7.75046 4.91322 9.61304 5.02478 11.51C5.07418 12.1954 5.22575 12.8695 5.47447 13.51C5.57965 13.7559 5.46848 14.0407 5.22465 14.15L4.31528 14.58C4.19128 14.64 4.04805 14.6461 3.91941 14.5969C3.79077 14.5477 3.68814 14.4475 3.63575 14.32C2.55157 11.5898 2.86731 8.50185 4.48158 6.0479ZM11.9999 6.00005C9.24042 6.00005 7.0034 8.23862 7.0034 11V21.5C7.0034 21.7762 7.22711 22 7.50306 22H16.4968C16.7727 22 16.9964 21.7762 16.9964 21.5V11C16.9964 8.23862 14.7594 6.00005 11.9999 6.00005ZM14.9978 12C14.9978 13.6569 13.6556 15 11.9999 15C10.3442 15 9.00201 13.6569 9.00201 12V10C9.00201 9.44776 9.44941 9.00005 10.0013 9.00005H13.9985C14.5504 9.00005 14.9978 9.44776 14.9978 10V12Z" fill="currentColor" fill-rule="evenodd" clip-rule="evenodd" />
</svg>
