<svg xmlns="http://www.w3.org/2000/svg" viewBox="0 0 24 24">
    <path d="M14.5 14C16.9853 14 19 11.9853 19 9.5C19 7.01472 16.9853 5 14.5 5C12.0147 5 10 7.01472 10 9.5C10 11.9853 12.0147 14 14.5 14Z" fill="currentColor" />
    <path d="M22 9.5C22 12.8844 19.7583 15.7452 16.6787 16.6786C15.7454 19.7584 12.8845 22.0002 9.5 22.0002C5.35786 22.0002 2 18.6423 2 14.5002C2 11.1158 4.24169 8.25498 7.32127 7.32156C8.25461 4.24183 11.1155 2 14.5 2C18.6421 2 22 5.35786 22 9.5ZM14.5 15C17.5376 15 20 12.5376 20 9.5C20 6.46243 17.5376 4 14.5 4C11.4624 4 9 6.46243 9 9.5C9 12.5376 11.4624 15 14.5 15ZM4 14.5002C4 12.3626 5.21946 10.5098 7.00065 9.59958C7.0055 9.9722 7.03752 10.3383 7.09482 10.6959C5.83581 11.4936 5 12.8991 5 14.4999C5 16.9852 7.01472 18.9999 9.5 18.9999C11.1007 18.9999 12.5062 18.1641 13.3039 16.9051C13.6617 16.9625 14.0279 16.9945 14.4007 16.9994C13.4905 18.7807 11.6377 20.0002 9.5 20.0002C6.46243 20.0002 4 17.5378 4 14.5002Z" fill="currentColor" fill-rule="evenodd" clip-rule="evenodd" />
</svg>
