<svg xmlns="http://www.w3.org/2000/svg" viewBox="0 0 24 24">
    <path d="M19 5.76L22.11 8.87C22.6789 9.43287 22.9993 10.1997 23 11V17C23 18.6569 21.6569 20 20 20H15.24C14.4811 19.9996 13.7877 19.5697 13.45 18.89L13.28 18.55C13.1089 18.2105 12.7602 17.9974 12.38 18H11.62C11.2398 17.9974 10.8911 18.2105 10.72 18.55L10.55 18.89C10.2123 19.5697 9.51894 19.9996 8.76 20H4C2.34315 20 1 18.6569 1 17V11C1.00069 10.1997 1.32111 9.43287 1.89 8.87L5 5.76C6.12414 4.63446 7.64924 4.0014 9.24 4H14.76C16.3508 4.0014 17.8759 4.63446 19 5.76ZM9.24 6C8.18228 6.00181 7.16834 6.42249 6.42 7.17L5.59 8H18.41L17.58 7.17C16.8317 6.42249 15.8177 6.00181 14.76 6H9.24ZM21 17C21 17.5523 20.5523 18 20 18H15.24L14.79 17.11C14.4523 16.4303 13.7589 16.0004 13 16H11C10.2411 16.0004 9.54773 16.4303 9.21 17.11L8.76 18H4C3.44772 18 3 17.5523 3 17V11C3 10.4477 3.44772 10 4 10H20C20.5523 10 21 10.4477 21 11V17ZM5.5 12H18.5C18.7761 12 19 12.2239 19 12.5V13.5C19 13.7761 18.7761 14 18.5 14H5.5C5.22386 14 5 13.7761 5 13.5V12.5C5 12.2239 5.22386 12 5.5 12Z" fill="currentColor" fill-rule="evenodd" clip-rule="evenodd" />
</svg>
