<svg xmlns="http://www.w3.org/2000/svg" viewBox="0 0 24 24">
    <path d="M3.02982 2.99854C3.16241 2.99854 3.28909 3.05349 3.37982 3.15037L19.8298 19.6142C19.9265 19.7051 19.9813 19.832 19.9813 19.9649C19.9813 20.0978 19.9265 20.2247 19.8298 20.3156L19.2998 20.8467C19.2091 20.9436 19.0824 20.9985 18.9498 20.9985C18.8172 20.9985 18.6906 20.9436 18.5998 20.8467L11.7598 13.9926C9.61533 14.056 8.38541 14.8873 7.66339 15.3753C7.35852 15.5813 7.1442 15.7262 6.98982 15.7262C6.85246 15.7268 6.7214 15.6685 6.62982 15.5659L5.29982 14.0628C5.21916 13.9673 5.17331 13.8471 5.16982 13.7221C5.16982 13.2411 6.86982 12.0186 9.16982 11.3873L6.79982 9.0124C5.4132 9.63271 4.42126 10.3452 3.79082 10.798C3.40282 11.0767 3.15173 11.257 3.02982 11.257C2.89246 11.2577 2.7614 11.1993 2.66982 11.0967L1.34982 9.5936C1.26412 9.50522 1.2173 9.38613 1.21982 9.26292C1.21982 8.90218 2.53982 7.78989 4.53982 6.78784L2.14982 4.3829C2.05315 4.29198 1.9983 4.16504 1.9983 4.03218C1.9983 3.89932 2.05315 3.77238 2.14982 3.68146L2.67982 3.15037C2.77056 3.05349 2.89724 2.99854 3.02982 2.99854ZM14.6998 18.6221C14.7769 18.5292 14.8193 18.4123 14.8198 18.2915C14.8198 17.6201 13.0898 17.0289 11.9998 17.0289C10.9098 17.0289 9.17982 17.6101 9.20982 18.2915C9.21035 18.4123 9.25277 18.5292 9.32982 18.6221L10.3298 19.7845C10.4707 19.9464 10.6755 20.038 10.8898 20.035H13.1398C13.3541 20.038 13.5589 19.9464 13.6998 19.7845L14.6998 18.6221ZM11.9998 5.00417C10.7123 5.00763 9.4298 5.16575 8.17982 5.47514L10.7698 8.07047C11.1785 8.02947 11.5891 8.0094 11.9998 8.01035C16.3318 8.01035 18.9711 9.89884 20.2239 10.7952C20.6137 11.0741 20.8693 11.257 20.9998 11.257C21.1372 11.2577 21.2682 11.1993 21.3598 11.0967L22.6798 9.5936C22.7655 9.50522 22.8123 9.38613 22.8098 9.26292C22.7798 8.49133 17.8098 5.00417 11.9998 5.00417ZM13.8998 11.2069C16.6598 11.758 18.8098 13.2311 18.8098 13.7622C18.8063 13.8872 18.7605 14.0074 18.6798 14.1029L17.7898 15.1049L13.8998 11.2069Z" fill="currentColor" fill-rule="evenodd" clip-rule="evenodd" />
</svg>
