<svg xmlns="http://www.w3.org/2000/svg" viewBox="0 0 24 24">
    <path d="M18.4028 8.98518C19.402 8.98518 20.3013 9.68598 20.4012 10.6871L22 20.7986V20.9989C22 21.5995 21.6003 22 21.0008 22H2.8148C2.31518 22 1.91549 21.3993 2.01541 20.8987L3.61418 10.6871C3.7141 9.68598 4.61341 8.98518 5.61264 8.98518H9.40971C9.27037 8.91538 9.17961 8.79691 9.10356 8.69764C9.07053 8.65453 9.04027 8.61504 9.01002 8.58473C7.51118 6.88279 7.81094 4.48005 9.40971 2.97834C11.0085 1.47663 13.6065 1.77698 15.0054 3.3788C16.4043 4.98062 16.3044 7.58359 14.6057 8.98518H18.4028ZM14.0062 5.98176C14.0062 4.88051 13.1069 3.97948 12.0077 3.97948C10.9086 3.97948 10.0092 4.88051 10.0092 5.98176C10.0092 7.08302 10.9086 7.98404 12.0077 7.98404C13.1069 7.98404 14.0062 7.08302 14.0062 5.98176ZM4.21372 19.9977L5.61264 10.9875H18.5027L19.9016 19.9977H4.21372ZM12.0077 16.9943C13.1069 16.9943 14.0062 16.0933 14.0062 14.992C14.0062 13.8908 13.1069 12.9897 12.0077 12.9897C10.9086 12.9897 10.0092 13.8908 10.0092 14.992C10.0092 16.0933 10.9086 16.9943 12.0077 16.9943Z" fill="currentColor" fill-rule="evenodd" clip-rule="evenodd" />
</svg>
