<svg xmlns="http://www.w3.org/2000/svg" viewBox="0 0 24 24">
    <path d="M14 2C16.2091 2 18 3.79086 18 6V8.29297C19.8409 9.94091 21 12.3348 21 15C21 17.8278 20.5 22 17.6553 22H6.34473C3.72123 22 3 17.8278 3 15C3 12.3348 4.15912 9.94091 6 8.29297V6C6 3.79086 7.79086 2 10 2H14ZM12 8C8.13401 8 5 11.134 5 15C5 16.2935 5.17114 17.7843 5.56836 18.876C5.76631 19.4199 5.97397 19.7342 6.12793 19.8877C6.23971 19.9991 6.28535 20 6.34473 20H17.6553C17.7794 20 18.1208 20.0197 18.5029 18.9092C18.8737 17.8316 19 16.3493 19 15C19 11.134 15.866 8 12 8ZM10 4C8.89543 4 8 4.89543 8 6V6.9375C9.20516 6.33844 10.5628 6 12 6C13.4372 6 14.7948 6.33844 16 6.9375V6C16 4.89543 15.1046 4 14 4H10Z" fill="currentColor" />
</svg>
