<svg xmlns="http://www.w3.org/2000/svg" viewBox="0 0 24 24">
    <path d="M20.73 6.94009L20.59 6.69009C20.4052 6.40518 20.1549 6.1686 19.86 6.00009L15.14 3.27009C14.8362 3.09383 14.4913 3.00071 14.14 3.00009H13.86C13.5082 2.99677 13.1623 3.09017 12.86 3.27009L4.14 8.32009C3.83697 8.49534 3.58526 8.74706 3.41 9.05009L3.27 9.30009C3.09375 9.60392 3.00062 9.94883 3 10.3001V16.0601C3.00062 16.4113 3.09375 16.7562 3.27 17.0601L3.41 17.3101C3.58979 17.6096 3.84049 17.8603 4.14 18.0401L8.86 20.7301C9.16384 20.9063 9.50874 20.9995 9.86 21.0001H10.14C10.4918 21.0034 10.8377 20.91 11.14 20.7301L19.86 15.6801C20.163 15.5048 20.4147 15.2531 20.59 14.9501L20.73 14.7001C20.9063 14.3962 20.9994 14.0513 21 13.7001V7.94008C20.9994 7.58883 20.9063 7.24392 20.73 6.94009ZM13.86 5.00009H14.14L18 7.20009L10 11.8301L6 9.55009L13.86 5.00009ZM11 18.5001L18.86 14.0001L19 13.7001V8.93009L11 13.5701V18.5001Z" fill="currentColor" fill-rule="evenodd" clip-rule="evenodd" />
</svg>
