<svg xmlns="http://www.w3.org/2000/svg" viewBox="0 0 24 24">
    <path d="M21.24 8.16L17.09 3.65C16.7125 3.23731 16.1794 3.00158 15.62 3H7.38003C6.82069 3.00158 6.28758 3.23731 5.91003 3.65L1.76003 8.16C1.591 8.34595 1.49818 8.58872 1.50003 8.84V9.14C1.49957 9.37365 1.58095 9.60009 1.73003 9.78L10.73 20.64C10.9204 20.8685 11.2026 21.0005 11.5 21C11.7975 21.0005 12.0797 20.8685 12.27 20.64L14.3538 18.1255C14.8814 19.7908 16.4635 20.9999 18.3332 20.9999C20.6344 20.9999 22.4998 19.1683 22.4998 16.909C22.4998 14.7833 20.8485 13.0362 18.7366 12.837L21.27 9.78C21.4191 9.60009 21.5005 9.37365 21.5 9.14V8.84C21.5019 8.58872 21.4091 8.34595 21.24 8.16ZM10.68 17.47L4.03003 9.47C3.90024 9.41753 3.83756 9.26979 3.89003 9.14C3.94249 9.01021 4.09024 8.94753 4.22003 9H7.77003C8.22089 8.97794 8.63063 9.26066 8.77003 9.69L11.16 17.24C11.2235 17.3725 11.1676 17.5315 11.035 17.595C10.9025 17.6585 10.7435 17.6025 10.68 17.47ZM12.57 9H18.74C18.8388 8.9987 18.9276 8.93933 18.9665 8.8485C19.0055 8.75768 18.9872 8.65244 18.92 8.58L15.81 5.2C15.7626 5.14787 15.6955 5.11815 15.625 5.11815C15.5546 5.11815 15.4874 5.14787 15.44 5.2L12.38 8.58C12.3115 8.65377 12.294 8.76142 12.3355 8.85313C12.377 8.94485 12.4694 9.00273 12.57 9ZM16.2301 16.1802C16.0092 16.1802 15.8301 16.3593 15.8301 16.5802V17.2302C15.8301 17.4511 16.0092 17.6302 16.2301 17.6302H20.4301C20.651 17.6302 20.8301 17.4511 20.8301 17.2302V16.5802C20.8301 16.3593 20.651 16.1802 20.4301 16.1802H16.2301Z" fill="currentColor" fill-rule="evenodd" clip-rule="evenodd" />
</svg>
