<svg xmlns="http://www.w3.org/2000/svg" viewBox="0 0 24 24">
    <path d="M22 9.14V8.84C22.0019 8.58872 21.9091 8.34595 21.74 8.16L17.59 3.65C17.2125 3.23731 16.6794 3.00158 16.12 3H7.88003C7.32069 3.00158 6.78758 3.23731 6.41003 3.65L2.26003 8.16C2.091 8.34595 1.99818 8.58872 2.00003 8.84V9.14C1.99957 9.37365 2.08095 9.60009 2.23003 9.78L11.23 20.64C11.4204 20.8685 11.7026 21.0005 12 21C12.2975 21.0005 12.5797 20.8685 12.77 20.64L21.77 9.78C21.9191 9.60009 22.0005 9.37365 22 9.14ZM15.8047 6.6359L15.512 6.34316C15.3874 6.21835 15.2183 6.14816 15.042 6.148H14.705C14.5256 6.14578 14.3529 6.21616 14.2261 6.34316L13.4235 7.15485C13.339 7.24109 13.339 7.3791 13.4235 7.46534L14.6695 8.72945C14.7111 8.77144 14.7678 8.79505 14.8269 8.79505C14.886 8.79505 14.9427 8.77144 14.9843 8.72945L15.8047 7.92219C15.9317 7.79538 16.002 7.62263 15.9998 7.44316V7.10606C15.9996 6.92967 15.9295 6.76056 15.8047 6.6359ZM14.142 9.2529C14.2265 9.33914 14.2265 9.47715 14.142 9.56338L10.568 13.1517C10.4822 13.2382 10.3796 13.3062 10.2664 13.3513L8.34195 14.1319C8.25956 14.1651 8.16534 14.1459 8.10249 14.0831C8.01074 14.0246 7.97504 13.9081 8.01824 13.8081L8.78094 11.8831C8.82604 11.77 8.89397 11.6673 8.98048 11.5815L12.5589 8.00209C12.6006 7.96011 12.6572 7.93649 12.7164 7.93649C12.7755 7.93649 12.8322 7.96011 12.8738 8.00209L14.142 9.2529Z" fill="currentColor" fill-rule="evenodd" clip-rule="evenodd" />
</svg>
