<svg xmlns="http://www.w3.org/2000/svg" viewBox="0 0 24 24">
    <path d="M17.09 3.65L21.24 8.16C21.4091 8.34595 21.5019 8.58872 21.5 8.84V9.14C21.5005 9.37365 21.4191 9.60009 21.27 9.78L18.7366 12.837C20.8485 13.0362 22.4998 14.7833 22.4998 16.909C22.4998 19.1683 20.6344 20.9999 18.3332 20.9999C16.4635 20.9999 14.8814 19.7908 14.3538 18.1255L12.27 20.64C12.0797 20.8685 11.7975 21.0005 11.5 21C11.2026 21.0005 10.9204 20.8685 10.73 20.64L1.73003 9.78C1.58095 9.60009 1.49957 9.37365 1.50003 9.14V8.84C1.49818 8.58872 1.591 8.34595 1.76003 8.16L5.91003 3.65C6.28758 3.23731 6.82069 3.00158 7.38003 3H15.62C16.1794 3.00158 16.7125 3.23731 17.09 3.65ZM4.03003 9.47L10.68 17.47C10.7435 17.6025 10.9025 17.6585 11.035 17.595C11.1676 17.5315 11.2235 17.3725 11.16 17.24L8.77003 9.69C8.63063 9.26066 8.22089 8.97794 7.77003 9H4.22003C4.09024 8.94753 3.94249 9.01021 3.89003 9.14C3.83756 9.26979 3.90024 9.41753 4.03003 9.47ZM18.74 9H12.57C12.4694 9.00273 12.377 8.94485 12.3355 8.85313C12.294 8.76142 12.3115 8.65377 12.38 8.58L15.44 5.2C15.4874 5.14787 15.5546 5.11815 15.625 5.11815C15.6955 5.11815 15.7626 5.14787 15.81 5.2L18.92 8.58C18.9872 8.65244 19.0055 8.75768 18.9665 8.8485C18.9276 8.93933 18.8388 8.9987 18.74 9ZM17.5998 14.8636C17.5998 14.6376 17.7864 14.4545 18.0165 14.4545H18.6498C18.88 14.4545 19.0665 14.6376 19.0665 14.8636V16.189H20.4165C20.6466 16.189 20.8332 16.3722 20.8332 16.5981V17.2199C20.8332 17.4459 20.6466 17.629 20.4165 17.629H19.0665V18.9545C19.0665 19.1804 18.88 19.3635 18.6498 19.3635H18.0165C17.7864 19.3635 17.5998 19.1804 17.5998 18.9545V17.629H16.2498C16.0197 17.629 15.8332 17.4459 15.8332 17.2199V16.5981C15.8332 16.3722 16.0197 16.189 16.2498 16.189H17.5998V14.8636Z" fill="currentColor" fill-rule="evenodd" clip-rule="evenodd" />
</svg>
