<svg xmlns="http://www.w3.org/2000/svg" viewBox="0 0 24 24">
    <path d="M3.06055 3.14648C3.25579 2.95124 3.57231 2.95128 3.76758 3.14648L5.71875 5.09766V5.09668L16.9336 16.3115V16.3125L20.0312 19.4102C20.2264 19.6054 20.2265 19.922 20.0312 20.1172L19.3242 20.8242C19.129 21.0194 18.8124 21.0193 18.6172 20.8242L15.6523 17.8594L12.7705 21.3369C12.5802 21.5655 12.2974 21.6977 12 21.6973C11.7026 21.6977 11.4208 21.5654 11.2305 21.3369L2.23047 10.4775C2.08139 10.2976 1.99954 10.0706 2 9.83691V9.53711C1.99817 9.28598 2.09091 9.04332 2.25977 8.85742L4.36328 6.57031L2.35352 4.56055C2.15834 4.3653 2.15834 4.04876 2.35352 3.85352L3.06055 3.14648ZM4.71973 9.69727C4.59003 9.64499 4.44211 9.70727 4.38965 9.83691C4.33718 9.9667 4.40049 10.1145 4.53027 10.167L11.1797 18.167C11.2432 18.2995 11.4026 18.3555 11.5352 18.292C11.6675 18.2285 11.7234 18.0699 11.6602 17.9375L9.77539 11.9824L7.49023 9.69727H4.71973ZM16.1201 3.69727C16.6794 3.69886 17.2123 3.93498 17.5898 4.34766L21.7402 8.85742C21.9091 9.04332 22.0018 9.28595 22 9.53711V9.83691C22.0005 10.0706 21.9196 10.2976 21.7705 10.4775L18.0234 14.9971L6.95508 3.92871C7.23762 3.78004 7.55392 3.69821 7.87988 3.69727H16.1201ZM16.125 5.81543C16.0546 5.81544 15.9878 5.84537 15.9404 5.89746L12.8799 9.27734C12.8115 9.35111 12.7945 9.45914 12.8359 9.55078C12.8775 9.64217 12.9699 9.69999 13.0703 9.69727H19.2402C19.3389 9.6959 19.4279 9.63662 19.4668 9.5459C19.5057 9.45508 19.4871 9.34979 19.4199 9.27734L16.3096 5.89746C16.2622 5.84539 16.1954 5.81543 16.125 5.81543Z" fill="currentColor" />
</svg>
