<svg xmlns="http://www.w3.org/2000/svg" viewBox="0 0 24 24">
    <path d="M12 0.999883C10.8954 0.999883 10 1.89531 10 2.99988C10.0043 3.7101 10.3849 4.36478 11 4.71988V5.99988H8C5.79086 5.99988 4 7.79074 4 9.99988V11.9999C2.89543 11.9999 2 12.8953 2 13.9999C2 15.1045 2.89543 15.9999 4 15.9999V16.9999C4 19.209 5.79086 20.9999 8 20.9999H16C18.2091 20.9999 20 19.209 20 16.9999V15.9999C21.1046 15.9999 22 15.1045 22 13.9999C22 12.8953 21.1046 11.9999 20 11.9999V9.99988C20 7.79074 18.2091 5.99988 16 5.99988H13V4.71988C13.7038 4.30324 14.083 3.50008 13.9574 2.69192C13.8319 1.88375 13.227 1.23344 12.43 1.04988C12.2896 1.01357 12.1449 0.996742 12 0.999883ZM6 9.99988C6 8.89531 6.89543 7.99988 8 7.99988H16C17.1046 7.99988 18 8.89531 18 9.99988V16.9999C18 18.1045 17.1046 18.9999 16 18.9999H8C6.89543 18.9999 6 18.1045 6 16.9999V9.99988ZM9.5 9.99988C10.3284 9.99988 11 10.6715 11 11.4999C11 11.776 10.7761 11.9999 10.5 11.9999H8.5C8.22386 11.9999 8 11.776 8 11.4999C8 10.6715 8.67157 9.99988 9.5 9.99988ZM14.5 9.99988C13.6716 9.99988 13 10.6715 13 11.4999C13 11.776 13.2239 11.9999 13.5 11.9999H15.5C15.7761 11.9999 16 11.776 16 11.4999C16 10.6715 15.3284 9.99988 14.5 9.99988ZM9 14.9999C9 14.4476 9.44772 13.9999 10 13.9999H14C14.5523 13.9999 15 14.4476 15 14.9999C15 16.1045 14.1046 16.9999 13 16.9999H11C9.89543 16.9999 9 16.1045 9 14.9999Z" fill="currentColor" fill-rule="evenodd" clip-rule="evenodd" />
</svg>
