<svg xmlns="http://www.w3.org/2000/svg" viewBox="0 0 24 24">
    <path d="M12 1.99988C10.8954 1.99988 10 2.89531 10 3.99988C10.0043 4.7101 10.3849 5.36478 11 5.71988V6.99988H8C5.79086 6.99988 4 8.79074 4 10.9999V12.9999C2.89543 12.9999 2 13.8953 2 14.9999C2 16.1045 2.89543 16.9999 4 16.9999V17.9999C4 20.209 5.79086 21.9999 8 21.9999H16C18.2091 21.9999 20 20.209 20 17.9999V16.9999C21.1046 16.9999 22 16.1045 22 14.9999C22 13.8953 21.1046 12.9999 20 12.9999V10.9999C20 8.79074 18.2091 6.99988 16 6.99988H13V5.71988C13.7038 5.30324 14.083 4.50008 13.9574 3.69192C13.8319 2.88375 13.227 2.23344 12.43 2.04988C12.2896 2.01357 12.1449 1.99674 12 1.99988ZM6 10.9999C6 9.89531 6.89543 8.99988 8 8.99988H16C17.1046 8.99988 18 9.89531 18 10.9999V17.9999C18 19.1045 17.1046 19.9999 16 19.9999H8C6.89543 19.9999 6 19.1045 6 17.9999V10.9999ZM9.5 10.9999C10.3284 10.9999 11 11.6715 11 12.4999C11 12.776 10.7761 12.9999 10.5 12.9999H8.5C8.22386 12.9999 8 12.776 8 12.4999C8 11.6715 8.67157 10.9999 9.5 10.9999ZM14.5 10.9999C13.6716 10.9999 13 11.6715 13 12.4999C13 12.776 13.2239 12.9999 13.5 12.9999H15.5C15.7761 12.9999 16 12.776 16 12.4999C16 11.6715 15.3284 10.9999 14.5 10.9999ZM9 15.9999C9 15.4476 9.44772 14.9999 10 14.9999H14C14.5523 14.9999 15 15.4476 15 15.9999C15 17.1045 14.1046 17.9999 13 17.9999H11C9.89543 17.9999 9 17.1045 9 15.9999Z" fill="currentColor" fill-rule="evenodd" clip-rule="evenodd" />
</svg>
