<svg xmlns="http://www.w3.org/2000/svg" viewBox="0 0 24 24">
    <path d="M16.59 1.59L20.12 5.12C20.6828 5.68207 20.9993 6.44462 21 7.24V13.09C20.9981 15.5573 19.8579 17.8857 17.91 19.4L13.83 22.58C13.4782 22.853 13.0453 23.0008 12.6 23H11.4C10.9547 23.0008 10.5218 22.853 10.17 22.58L6.09 19.4C4.14207 17.8857 3.00185 15.5573 3 13.09V7.24C3.0007 6.44462 3.31723 5.68207 3.88 5.12L7.41 1.59C7.7858 1.21196 8.29696 0.999578 8.83 1H15.17C15.703 0.999578 16.2142 1.21196 16.59 1.59ZM14.37 11.82L16.37 10.12V10.14C16.5213 9.99648 16.57 9.7753 16.4929 9.58152C16.4158 9.38774 16.2285 9.26041 16.02 9.26L13.42 9.06L12.42 6.63C12.3415 6.44562 12.1604 6.32596 11.96 6.32596C11.7596 6.32596 11.5785 6.44562 11.5 6.63L10.5 9.06L7.9 9.26C7.70216 9.28246 7.53548 9.41801 7.47316 9.60712C7.41084 9.79623 7.46427 10.0043 7.61 10.14L9.61 11.84L9 14.38C8.94793 14.5785 9.02246 14.7887 9.18796 14.9101C9.35346 15.0314 9.57631 15.0393 9.75 14.93L12 13.56L14.26 14.93C14.4333 15.0325 14.6512 15.021 14.8128 14.9009C14.9744 14.7808 15.0482 14.5755 15 14.38L14.37 11.82Z" fill="currentColor" fill-rule="evenodd" clip-rule="evenodd" />
</svg>
