<svg xmlns="http://www.w3.org/2000/svg" viewBox="0 0 24 24">
    <path d="M20.12 5.12L16.59 1.59C16.2142 1.21196 15.703 0.999578 15.17 1H8.83C8.29696 0.999578 7.7858 1.21196 7.41 1.59L3.88 5.12C3.31723 5.68207 3.0007 6.44462 3 7.24V13.09C3.00185 15.5573 4.14207 17.8857 6.09 19.4L10.17 22.58C10.5218 22.853 10.9547 23.0008 11.4 23H12.6C13.0453 23.0008 13.4782 22.853 13.83 22.58L17.91 19.4C19.8579 17.8857 20.9981 15.5573 21 13.09V7.24C20.9993 6.44462 20.6828 5.68207 20.12 5.12ZM19 13.12C19.0079 14.9725 18.1497 16.7223 16.68 17.85L12.6 21H11.4L7.32 17.82C5.8503 16.6923 4.99206 14.9425 5 13.09V7.24C5.0011 6.97766 5.10526 6.72626 5.29 6.54L8.83 3H15.17L18.71 6.54C18.8947 6.72626 18.9989 6.97766 19 7.24V13.12ZM13.48 9.06L16.08 9.26C16.2796 9.27908 16.4495 9.41335 16.5142 9.60312C16.5789 9.7929 16.5264 10.003 16.38 10.14L14.38 11.84L14.99 14.38C15.0382 14.5755 14.9644 14.7808 14.8028 14.9009C14.6412 15.021 14.4233 15.0325 14.25 14.93L12 13.56L9.74 14.93C9.56669 15.0325 9.34882 15.021 9.18722 14.9009C9.02562 14.7808 8.95183 14.5755 9 14.38L9.67 11.84L7.67 10.14C7.52427 10.0043 7.47084 9.79623 7.53316 9.60712C7.59548 9.41801 7.76216 9.28246 7.96 9.26L10.56 9.06L11.56 6.63C11.6385 6.44562 11.8196 6.32596 12.02 6.32596C12.2204 6.32596 12.4015 6.44562 12.48 6.63L13.48 9.06Z" fill="currentColor" fill-rule="evenodd" clip-rule="evenodd" />
</svg>
