<svg xmlns="http://www.w3.org/2000/svg" viewBox="0 0 24 24">
    <path d="M2 12.019C2 6.486 6.486 2 12.02 2C17.219 2 21.494 5.961 21.99 11.031C22.049 11.629 21.837 12.221 21.413 12.644L12.645 21.413C12.267 21.791 11.755 22 11.227 22C11.162 22 11.097 21.997 11.031 21.99C5.962 21.494 2 17.22 2 12.019ZM4 12.019C4 7.598 7.598 4 12.02 4C15.734 4 18.867 6.496 19.77 9.98H17.981C13.57 9.98 9.981 13.569 9.981 17.98V19.771C6.498 18.869 4 15.735 4 12.019ZM11.981 19.246V17.98C11.981 14.672 14.672 11.98 17.981 11.98H19.249L11.981 19.246Z" fill="currentColor" fill-rule="evenodd" clip-rule="evenodd" />
</svg>
