<svg xmlns="http://www.w3.org/2000/svg" viewBox="0 0 24 24">
    <path d="M20.9999 12C20.9999 11.4477 20.5522 11 19.9999 11C19.4477 11.0001 18.9999 11.4478 18.9999 12C18.9999 12.5522 19.4477 12.9999 19.9999 13C20.5522 13 20.9999 12.5523 20.9999 12ZM17.9999 19C17.9999 18.4477 17.5522 18 16.9999 18C16.4477 18.0001 15.9999 18.4478 15.9999 19C15.9999 19.5522 16.4477 19.9999 16.9999 20C17.5522 20 17.9999 19.5523 17.9999 19ZM8.32611 10.0205C8.86681 9.9091 9.39509 10.2571 9.50677 10.7979C9.90681 12.7348 8.66144 14.6292 6.72455 15.0293C6.18368 15.141 5.65462 14.7928 5.54291 14.252C5.43131 13.7111 5.77944 13.182 6.32025 13.0703C7.17524 12.8935 7.72537 12.0572 7.54876 11.2021C7.43711 10.6613 7.78527 10.1322 8.32611 10.0205ZM10.9999 6C10.9999 4.89543 10.1045 4 8.99994 4C8.10611 4.00008 7.3492 4.58774 7.09369 5.39746C7.50411 5.6941 7.63169 6.25992 7.37298 6.70801C7.09677 7.18611 6.48498 7.34934 6.00677 7.07324C5.32997 6.68255 4.4649 6.91501 4.07416 7.5918C3.72353 8.19911 3.87473 8.95684 4.39837 9.38867C4.56559 9.32391 4.73783 9.26721 4.91498 9.21973C5.44843 9.07679 5.99662 9.39332 6.13959 9.92676C6.28253 10.4602 5.96602 11.0084 5.43255 11.1514C3.83484 11.5797 2.88723 13.2225 3.31537 14.8203C3.74368 16.4179 5.38562 17.3664 6.98334 16.9385C7.5168 16.7955 8.065 17.112 8.20794 17.6455C8.3507 18.1789 8.03429 18.7272 7.50091 18.8701C7.41157 18.8941 7.32179 18.9138 7.23236 18.9326C7.56776 19.5668 8.23309 19.9999 8.99994 20C10.1045 20 10.9999 19.1046 10.9999 18V6ZM17.9999 5C17.9999 4.44771 17.5522 4 16.9999 4C16.4477 4.0001 15.9999 4.44778 15.9999 5C15.9999 5.55222 16.4477 5.9999 16.9999 6C17.5522 6 17.9999 5.55229 17.9999 5ZM19.9999 5C19.9999 6.65685 18.6568 8 16.9999 8C16.9577 8 16.9158 7.99782 16.874 7.99609C16.4476 9.65923 14.9798 10.9052 13.206 10.9951L12.9999 11H17.1747C17.5869 9.83551 18.6943 9.00008 19.9999 9C21.6568 9 22.9999 10.3431 22.9999 12C22.9999 13.6569 21.6568 15 19.9999 15C18.6943 14.9999 17.5869 14.1645 17.1747 13H12.9999C14.8648 13 16.4309 14.2763 16.874 16.0029C16.9157 16.0012 16.9577 16 16.9999 16C18.6568 16 19.9999 17.3431 19.9999 19C19.9999 20.6569 18.6568 22 16.9999 22C15.3432 21.9999 13.9999 20.6568 13.9999 19C13.9999 18.1187 14.3821 17.3282 14.9872 16.7793C14.8773 15.7786 14.0299 15 12.9999 15V18C12.9999 20.2091 11.2091 22 8.99994 22C7.10556 21.9999 5.521 20.6837 5.10638 18.916C3.3567 18.5187 1.87947 17.1914 1.38275 15.3379C0.902737 13.5465 1.46096 11.7218 2.68744 10.501C1.7865 9.43225 1.60258 7.87221 2.34173 6.5918C2.9483 5.5412 4.0287 4.93475 5.15716 4.88672C5.63962 3.21917 7.17666 2.00008 8.99994 2C11.2091 2 12.9999 3.79086 12.9999 6V9L13.205 8.98926C14.141 8.894 14.8851 8.15364 14.9872 7.21973C14.3824 6.67088 13.9999 5.88111 13.9999 5C13.9999 3.34321 15.3432 2.0001 16.9999 2C18.6568 2 19.9999 3.34315 19.9999 5Z" fill="currentColor" />
</svg>
