<svg xmlns="http://www.w3.org/2000/svg" viewBox="0 0 24 24">
    <path d="M18 2C20.2091 2 22 3.79086 22 6V9.54102C21.3936 9.16253 20.7194 8.88241 20 8.72266V6C20 4.89543 19.1046 4 18 4H6C4.89543 4 4 4.89543 4 6V17.8799L4.45996 17.46C5.39947 16.5228 6.67301 15.9976 8 16H12.2461C12.3573 16.7121 12.5855 17.3856 12.9102 18H8C7.19856 17.9847 6.42394 18.2904 5.84961 18.8496L2.84961 21.8496C2.75794 21.9448 2.63212 21.9992 2.5 22C2.22386 22 2 21.7761 2 21.5V6C2 3.79086 3.79086 2 6 2H18ZM18.5 10C18.8115 10 19.097 10.1746 19.2383 10.4521C19.9436 11.9036 21.1165 13.0761 22.5684 13.7812C22.8211 13.9098 22.9857 14.1641 23 14.4473V14.5557C22.9856 14.8386 22.8209 15.0921 22.5684 15.2207C21.1068 15.9271 19.9264 17.1073 19.2197 18.5684C19.0911 18.821 18.837 18.9857 18.5537 19H18.4463C18.163 18.9857 17.9089 18.821 17.7803 18.5684C17.0736 17.1073 15.8932 15.9271 14.4316 15.2207C14.1791 15.0921 14.0144 14.8386 14 14.5557V14.4473C14.0143 14.1641 14.1789 13.9098 14.4316 13.7812C15.8835 13.0761 17.0564 11.9036 17.7617 10.4521C17.903 10.1746 18.1885 10 18.5 10ZM8.5 8.40332C8.67297 8.40332 8.83163 8.5002 8.91016 8.6543C9.30199 9.46086 9.95322 10.113 10.7598 10.5049C10.9003 10.5763 10.992 10.7176 11 10.875V10.9346C10.992 11.092 10.9003 11.2332 10.7598 11.3047C9.94788 11.6973 9.29295 12.3531 8.90039 13.165C8.82898 13.3054 8.68755 13.3962 8.53027 13.4043H8.46973C8.31245 13.3962 8.17102 13.3054 8.09961 13.165C7.70705 12.3531 7.05212 11.6973 6.24023 11.3047C6.09974 11.2332 6.00795 11.092 6 10.9346V10.875C6.00795 10.7176 6.09974 10.5763 6.24023 10.5049C7.04678 10.113 7.69801 9.46086 8.08984 8.6543C8.16837 8.5002 8.32703 8.40332 8.5 8.40332ZM14.4062 5.08105C14.5443 5.08285 14.6709 5.15961 14.7363 5.28125C15.0517 5.92833 15.5764 6.44975 16.2256 6.76074C16.343 6.82306 16.4139 6.94838 16.4062 7.08105C16.4129 7.22425 16.3288 7.35639 16.1963 7.41113C15.5443 7.72337 15.0183 8.24933 14.7061 8.90137C14.647 9.01196 14.5316 9.08096 14.4062 9.08105C14.2642 9.08184 14.1362 8.99423 14.0859 8.86133C13.7711 8.21115 13.2459 7.68595 12.5957 7.37109C12.4774 7.32445 12.4017 7.20815 12.4062 7.08105C12.3878 6.9433 12.466 6.81054 12.5957 6.76074C13.2423 6.44921 13.7646 5.92788 14.0762 5.28125C14.1416 5.15954 14.2681 5.08276 14.4062 5.08105Z" fill="currentColor" />
</svg>
