<svg xmlns="http://www.w3.org/2000/svg" viewBox="0 0 24 24">
    <path d="M19.0164 11.9857C19.0164 14.1917 17.2239 15.98 15.0127 15.98H6.00455C5.20238 15.9648 4.42744 16.2704 3.85259 16.8288L1.85077 18.826C1.75902 18.921 1.63269 18.975 1.50045 18.9757C1.22406 18.9757 1 18.7522 1 18.4765V5.99429C1 3.78831 2.79249 2 5.00364 2H15.0127C17.2239 2 19.0164 3.78831 19.0164 5.99429V11.9857ZM3.00182 5.99429V14.9815C3.86809 14.3333 4.92171 13.9829 6.00455 13.9829H15.0127C16.1183 13.9829 17.0146 13.0887 17.0146 11.9857V5.99429C17.0146 4.8913 16.1183 3.99715 15.0127 3.99715H5.00364C3.89807 3.99715 3.00182 4.8913 3.00182 5.99429ZM21.0182 5.99429V13.9829C21.0182 16.1889 19.2257 17.9772 17.0146 17.9772H5.00364C5.00364 19.0802 5.89989 19.9743 7.00546 19.9743H18.0155C18.815 19.9724 19.5824 20.2886 20.1474 20.8531L22.1492 22.8502C22.241 22.9452 22.3673 22.9992 22.4995 23C22.7759 23 23 22.7765 23 22.5007V7.99144C23.0001 6.8962 22.1159 6.00525 21.0182 5.99429ZM6.90256 5.3512C7.21769 5.99805 7.7424 6.51924 8.39135 6.83C8.50864 6.89227 8.5789 7.01717 8.5712 7.14974C8.57782 7.29291 8.49387 7.42483 8.36137 7.47948C7.70986 7.79146 7.18456 8.31676 6.87258 8.96827C6.81354 9.07897 6.69829 9.14812 6.57283 9.14812C6.43077 9.1489 6.30322 9.06122 6.25309 8.9283C5.93849 8.27865 5.41395 7.75411 4.7643 7.43951C4.64596 7.39296 4.56987 7.27682 4.57445 7.14974C4.55599 7.01205 4.63457 6.87971 4.7643 6.83C5.41044 6.51871 5.93181 5.99735 6.2431 5.3512C6.30849 5.22959 6.43476 5.15307 6.57283 5.15137C6.7109 5.15307 6.83716 5.22959 6.90256 5.3512ZM10.7929 11.175C10.3062 10.9419 9.91266 10.551 9.67631 10.0659C9.62726 9.97468 9.53256 9.91729 9.42901 9.91602C9.32546 9.91729 9.23076 9.97468 9.18171 10.0659C8.94824 10.5505 8.55722 10.9415 8.07261 11.175C7.97532 11.2123 7.91638 11.3115 7.93023 11.4148C7.92679 11.5101 7.98386 11.5972 8.07261 11.6321C8.55985 11.8681 8.95325 12.2615 9.18921 12.7487C9.22681 12.8484 9.32247 12.9142 9.42901 12.9136C9.52311 12.9136 9.60955 12.8617 9.65383 12.7787C9.88781 12.2901 10.2818 11.8961 10.7704 11.6621C10.8698 11.6211 10.9328 11.5222 10.9278 11.4148C10.9336 11.3154 10.8809 11.2217 10.7929 11.175ZM13.2016 10.5759C12.809 9.76393 12.1535 9.10847 11.3416 8.71589C11.2011 8.64444 11.1095 8.5033 11.1016 8.34589V8.28589C11.1095 8.12847 11.2011 7.98733 11.3416 7.91589C12.1482 7.52403 12.7997 6.87249 13.1916 6.06589C13.27 5.91161 13.4285 5.81445 13.6016 5.81445C13.7746 5.81445 13.9331 5.91161 14.0116 6.06589C14.4034 6.87249 15.055 7.52403 15.8616 7.91589C16.0021 7.98733 16.0936 8.12847 16.1016 8.28589V8.34589C16.0936 8.5033 16.0021 8.64444 15.8616 8.71589C15.0496 9.10847 14.3941 9.76393 14.0016 10.5759C13.9301 10.7164 13.789 10.8079 13.6316 10.8159H13.5716C13.4141 10.8079 13.273 10.7164 13.2016 10.5759Z" fill="currentColor" fill-rule="evenodd" clip-rule="evenodd" />
</svg>
