<svg xmlns="http://www.w3.org/2000/svg" viewBox="0 0 24 24">
    <path d="M18 10.3329C20.2091 10.3329 21.9999 12.1238 22 14.3329V15.6668C22.7364 15.6668 23.3331 16.2635 23.3331 16.9998V22.3329C23.3331 23.0692 22.7364 23.6668 22 23.6668H14C13.2637 23.6668 12.667 23.0692 12.667 22.3329V16.9998C12.667 16.2635 13.2637 15.6669 14 15.6668V14.3329C14.0002 12.1238 15.791 10.3329 18 10.3329ZM13.6123 8.52426C13.7452 8.52439 13.8723 8.57737 13.9659 8.67172L14.6651 9.34457C13.0582 10.421 12.0001 12.2535 12 14.3329C11.1904 14.941 10.667 15.9093 10.667 16.9998V18.3563L8.77836 20.2577C8.5855 20.4523 8.35415 20.6054 8.09965 20.7069L3.76957 22.4637C3.58421 22.5384 3.37191 22.4946 3.23051 22.3534C3.02432 22.2216 2.944 21.9599 3.04106 21.7352L4.75688 17.4041C4.85833 17.1496 5.01152 16.9184 5.2061 16.7254L13.2579 8.67172C13.3515 8.57726 13.4793 8.52426 13.6123 8.52426ZM17.3331 18.3329C16.965 18.333 16.667 18.6318 16.667 18.9998V20.3329C16.667 20.7009 16.965 20.9997 17.3331 20.9998H18.667C19.0351 20.9997 19.3331 20.7009 19.3331 20.3329V18.9998C19.3331 18.6318 19.0351 18.333 18.667 18.3329H17.3331ZM18 11.6668C16.5274 11.6669 15.3332 12.8602 15.3331 14.3329V15.6668H20.667V14.3329C20.6669 12.8602 19.4727 11.6668 18 11.6668ZM3.2559 5.38461C3.42487 5.02509 3.93637 5.02527 4.10551 5.38461L4.85161 6.97153C4.89808 7.07047 4.97732 7.15056 5.07622 7.19711L6.66313 7.94223C7.02286 8.11121 7.02286 8.62286 6.66313 8.79184L5.07622 9.53793C4.97751 9.58442 4.8981 9.66383 4.85161 9.76254L4.10551 11.3495C3.93653 11.7092 3.42488 11.7092 3.2559 11.3495L2.51079 9.76254C2.46423 9.66365 2.38414 9.58441 2.2852 9.53793L0.698286 8.79184C0.338947 8.6227 0.338758 8.11119 0.698286 7.94223L2.2852 7.19711C2.38425 7.15058 2.46426 7.07058 2.51079 6.97153L3.2559 5.38461ZM18.8448 4.49985C19.2416 4.5002 19.622 4.65848 19.9024 4.9393L20.5606 5.5975C20.8413 5.87797 20.9997 6.25921 21 6.6561V7.41391C21.005 7.81771 20.8463 8.20669 20.5606 8.49203L20.1768 8.74008C19.502 8.4773 18.7678 8.33285 18 8.33285C17.5241 8.33286 17.0611 8.3883 16.6172 8.49301L15.2032 7.46371C15.0132 7.26969 15.0131 6.95946 15.2032 6.76547L17.0088 4.9393C17.2941 4.65354 17.6833 4.49485 18.087 4.49985H18.8448ZM11.7022 1.6893C11.8208 1.43691 12.1793 1.43689 12.2979 1.6893L12.8213 2.80258C12.854 2.87208 12.91 2.92814 12.9795 2.96078L14.0928 3.48422C14.345 3.60288 14.345 3.96133 14.0928 4.07993L12.9795 4.60336C12.91 4.63601 12.854 4.69206 12.8213 4.76157L12.2979 5.87485C12.1793 6.12706 11.8209 6.127 11.7022 5.87485L11.1788 4.76157C11.1461 4.69206 11.0901 4.63601 11.0206 4.60336L9.90727 4.07993C9.65486 3.96136 9.65488 3.6028 9.90727 3.48422L11.0206 2.96078C11.0901 2.92814 11.1461 2.87208 11.1788 2.80258L11.7022 1.6893Z" fill="currentColor" fill-rule="evenodd" clip-rule="evenodd" />
</svg>
