<svg xmlns="http://www.w3.org/2000/svg" viewBox="0 0 24 24">
    <path d="M10.0999 7.76046C9.70727 6.9485 9.05181 6.29304 8.23985 5.90046C8.09936 5.82901 8.00781 5.68787 7.99985 5.53046V5.47046C8.00781 5.31304 8.09936 5.1719 8.23985 5.10046C9.04646 4.7086 9.69799 4.05706 10.0899 3.25046C10.1683 3.09618 10.3268 2.99902 10.4999 2.99902C10.6729 2.99902 10.8314 3.09618 10.9099 3.25046C11.3017 4.05706 11.9532 4.7086 12.7599 5.10046C12.9003 5.1719 12.9919 5.31304 12.9999 5.47046V5.53046C12.9919 5.68787 12.9003 5.82901 12.7599 5.90046C11.9479 6.29304 11.2924 6.9485 10.8999 7.76046C10.8284 7.90095 10.6873 7.9925 10.5299 8.00046H10.4699C10.3124 7.9925 10.1713 7.90095 10.0999 7.76046ZM5.26985 20.8505L16.8499 9.27046C16.9445 9.17657 16.9978 9.04878 16.9978 8.91546C16.9978 8.78214 16.9445 8.65434 16.8499 8.56046L15.4399 7.15046C15.346 7.0558 15.2182 7.00256 15.0849 7.00256C14.9515 7.00256 14.8237 7.0558 14.7299 7.15046L3.14985 18.7305C3.0552 18.8243 3.00195 18.9521 3.00195 19.0855C3.00195 19.2188 3.0552 19.3466 3.14985 19.4405L4.55985 20.8505C4.65374 20.9451 4.78153 20.9984 4.91485 20.9984C5.04817 20.9984 5.17597 20.9451 5.26985 20.8505ZM20.8199 4.68046C20.1704 4.36944 19.6452 3.84782 19.3299 3.20046C19.2644 3.07874 19.138 3.00216 18.9999 3.00046C18.8617 3.00216 18.7353 3.07874 18.6699 3.20046C18.3583 3.84712 17.8365 4.36891 17.1899 4.68046C17.06 4.73021 16.9814 4.86265 16.9999 5.00046C16.9953 5.12764 17.0714 5.24388 17.1899 5.29046C17.84 5.60531 18.365 6.13028 18.6799 6.78046C18.73 6.91348 18.8577 7.00124 18.9999 7.00046C19.1254 7.00046 19.2408 6.93125 19.2999 6.82046C19.6121 6.16842 20.1378 5.64269 20.7899 5.33046C20.9225 5.27577 21.0065 5.14374 20.9999 5.00046C21.0076 4.86778 20.9372 4.74278 20.8199 4.68046ZM18.0999 15.7605C17.7073 14.9485 17.0518 14.293 16.2399 13.9005C16.0994 13.829 16.0078 13.6879 15.9999 13.5305V13.4705C16.0078 13.313 16.0994 13.1719 16.2399 13.1005C17.0465 12.7086 17.698 12.0571 18.0899 11.2505C18.1683 11.0962 18.3268 10.999 18.4999 10.999C18.6729 10.999 18.8314 11.0962 18.9099 11.2505C19.3017 12.0571 19.9532 12.7086 20.7599 13.1005C20.9003 13.1719 20.9919 13.313 20.9999 13.4705V13.5305C20.9919 13.6879 20.9003 13.829 20.7599 13.9005C19.9479 14.293 19.2924 14.9485 18.8999 15.7605C18.8284 15.901 18.6873 15.9925 18.5299 16.0005H18.4699C18.3124 15.9925 18.1713 15.901 18.0999 15.7605Z" fill="currentColor" fill-rule="evenodd" clip-rule="evenodd" />
</svg>
