<svg xmlns="http://www.w3.org/2000/svg" viewBox="0 0 24 24">
    <path d="M12.298 1.68931C12.1794 1.4369 11.8204 1.4369 11.7018 1.68931L11.1787 2.80287C11.1461 2.87237 11.0901 2.92828 11.0206 2.96093L9.90708 3.48402C9.65467 3.60259 9.65467 3.96162 9.90708 4.08019L11.0206 4.60328C11.0901 4.63593 11.1461 4.69184 11.1787 4.76134L11.7018 5.8749C11.8204 6.12731 12.1794 6.12731 12.298 5.8749L12.8211 4.76134C12.8537 4.69184 12.9096 4.63593 12.9791 4.60328L14.0927 4.08019C14.3451 3.96162 14.3451 3.60259 14.0927 3.48402L12.9791 2.96093C12.9096 2.92828 12.8537 2.87237 12.8211 2.80287L12.298 1.68931ZM20.5609 5.5979L19.9024 4.93923C19.622 4.65841 19.2416 4.50046 18.8448 4.50011H18.0865C17.6829 4.49512 17.2943 4.65347 17.009 4.93923L15.2031 6.76555C15.013 6.95958 15.013 7.27011 15.2031 7.46414L18.0067 10.3084C18.1004 10.4029 18.2279 10.456 18.3609 10.456C18.4939 10.456 18.6214 10.4029 18.7151 10.3084L20.5609 8.49206C20.8465 8.20672 21.0049 7.81803 20.9999 7.41424V6.65577C20.9995 6.25888 20.8416 5.87837 20.5609 5.5979ZM16.8195 11.4859C17.0096 11.6799 17.0096 11.9904 16.8195 12.1844L8.7779 20.2582C8.58498 20.4529 8.35403 20.6057 8.09945 20.7073L3.76938 22.4637C3.58402 22.5384 3.37201 22.4952 3.23061 22.3539C3.02415 22.2222 2.94383 21.96 3.04105 21.7352L4.75711 17.4039C4.85859 17.1493 5.01142 16.9183 5.20608 16.7253L13.2576 8.67153C13.3513 8.57706 13.4788 8.52393 13.6118 8.52393C13.7448 8.52393 13.8723 8.57706 13.966 8.67153L16.8195 11.4859ZM4.10584 5.38503C3.93686 5.0253 3.4252 5.0253 3.25622 5.38503L2.51074 6.972C2.46421 7.07105 2.38453 7.15073 2.28548 7.19726L0.698505 7.94274C0.338779 8.11172 0.33878 8.62339 0.698505 8.79237L2.28548 9.53785C2.38453 9.58438 2.46421 9.66406 2.51074 9.76311L3.25622 11.3501C3.4252 11.7098 3.93686 11.7098 4.10584 11.3501L4.85133 9.76311C4.89785 9.66406 4.97753 9.58438 5.07658 9.53785L6.66356 8.79237C7.02328 8.62339 7.02328 8.11172 6.66356 7.94274L5.07658 7.19726C4.97753 7.15073 4.89785 7.07105 4.85133 6.972L4.10584 5.38503ZM20.6639 15.9541C20.7976 15.6696 21.2024 15.6696 21.3361 15.9541L21.9258 17.2095C21.9626 17.2879 22.0256 17.3509 22.104 17.3877L23.3593 17.9774C23.6439 18.1111 23.6439 18.5159 23.3593 18.6495L22.104 19.2392C22.0256 19.276 21.9626 19.3391 21.9258 19.4174L21.3361 20.6728C21.2024 20.9574 20.7976 20.9574 20.6639 20.6728L20.0742 19.4174C20.0374 19.3391 19.9744 19.276 19.896 19.2392L18.6407 18.6495C18.3561 18.5159 18.3561 18.1111 18.6407 17.9774L19.896 17.3877C19.9744 17.3509 20.0374 17.2879 20.0742 17.2095L20.6639 15.9541Z" fill="currentColor" fill-rule="evenodd" clip-rule="evenodd" />
</svg>
