<svg xmlns="http://www.w3.org/2000/svg" viewBox="0 0 24 25">
    <path d="M12 0.000296655C11.1163 0.000296655 10.4 0.716641 10.4 1.6003C10.4034 2.16847 10.7079 2.69221 11.2 2.9763V4.0003H8.8C7.03269 4.0003 5.6 5.43299 5.6 7.2003V8.8003C4.71634 8.8003 4 9.51664 4 10.4003C4 11.284 4.71634 12.0003 5.6 12.0003V12.8003C5.6 14.5676 7.03269 16.0003 8.8 16.0003H15.2C16.9673 16.0003 18.4 14.5676 18.4 12.8003V12.0003C19.2837 12.0003 20 11.284 20 10.4003C20 9.51664 19.2837 8.8003 18.4 8.8003V7.2003C18.4 5.43299 16.9673 4.0003 15.2 4.0003H12.8V2.9763C13.363 2.64298 13.6664 2.00046 13.566 1.35392C13.4655 0.70739 12.9816 0.187139 12.344 0.0402967C12.2317 0.0112436 12.116 -0.00221607 12 0.000296655ZM11.2924 8.58351C11.2924 7.58769 10.5749 6.78043 9.6897 6.78043C8.80453 6.78043 8.08696 7.58769 8.08696 8.58351C8.08696 8.91545 8.32615 9.18454 8.6212 9.18454H10.7582C11.0532 9.18454 11.2924 8.91545 11.2924 8.58351ZM12.7076 8.60695C12.7076 7.61113 13.4251 6.80386 14.3103 6.80386C15.1955 6.80386 15.913 7.61113 15.913 8.60695C15.913 8.93888 15.6739 9.20797 15.3788 9.20797H13.2418C12.9468 9.20797 12.7076 8.93888 12.7076 8.60695ZM14.1545 10.6398H9.88055C9.29044 10.6398 8.81205 11.1182 8.81205 11.7083C8.81205 12.8885 9.76882 13.8453 10.949 13.8453H13.086C14.2663 13.8453 15.223 12.8885 15.223 11.7083C15.223 11.1182 14.7446 10.6398 14.1545 10.6398ZM14.6101 18.0024H18.5001C18.643 17.9886 18.7853 18.0343 18.8933 18.1289C19.0012 18.2234 19.0652 18.3584 19.0701 18.5017V22.3857C19.0776 22.5904 18.9566 22.7781 18.767 22.856C18.5773 22.934 18.3591 22.8858 18.2201 22.7352L17.2201 21.7367C15.4688 23.6607 12.7927 24.4551 10.2731 23.7989C7.7536 23.1427 5.80705 21.1444 5.22006 18.6115C5.19227 18.4639 5.22863 18.3114 5.32006 18.1921C5.41341 18.0718 5.55758 18.0016 5.71006 18.0024H6.71006C6.92167 17.9967 7.11393 18.1247 7.19006 18.3219C7.68111 20.075 9.08889 21.4223 10.8639 21.8378C12.6389 22.2534 14.4998 21.6713 15.7201 20.3189L14.2601 18.8511C14.12 18.7085 14.0786 18.4962 14.1547 18.3115C14.2309 18.1268 14.41 18.0052 14.6101 18.0024Z" fill="currentColor" fill-rule="evenodd" clip-rule="evenodd" />
</svg>
