<svg xmlns="http://www.w3.org/2000/svg" viewBox="0 0 24 24">
    <path d="M18.8227 1.68C18.1732 1.36898 17.6481 0.847368 17.3327 0.2C17.2672 0.0782876 17.1409 0.00170183 17.0027 0C16.8645 0.00170183 16.7381 0.0782876 16.6727 0.2C16.3611 0.846667 15.8393 1.36846 15.1927 1.68C15.0628 1.72975 14.9842 1.86219 15.0027 2C14.9981 2.12718 15.0742 2.24342 15.1927 2.29C15.8429 2.60486 16.3678 3.12982 16.6827 3.78C16.7329 3.91303 16.8605 4.00079 17.0027 4C17.1282 4 17.2436 3.93079 17.3027 3.82C17.6149 3.16796 18.1406 2.64223 18.7927 2.33C18.9253 2.27531 19.0093 2.14328 19.0027 2C19.0104 1.86732 18.9401 1.74232 18.8227 1.68ZM11.0488 2.00037C9.94426 2.00037 9.04883 2.8958 9.04883 4.00037C9.05311 4.71059 9.43374 5.36527 10.0488 5.72037V7.00037H7.04883C4.83969 7.00037 3.04883 8.79123 3.04883 11.0004V13.0004C1.94426 13.0004 1.04883 13.8958 1.04883 15.0004C1.04883 16.1049 1.94426 17.0004 3.04883 17.0004V18.0004C3.04883 20.2095 4.83969 22.0004 7.04883 22.0004H15.0488C17.258 22.0004 19.0488 20.2095 19.0488 18.0004V17.0004C20.1534 17.0004 21.0488 16.1049 21.0488 15.0004C21.0488 13.8958 20.1534 13.0004 19.0488 13.0004V11.0004C19.0488 8.79123 17.258 7.00037 15.0488 7.00037H12.0488V5.72037C12.7526 5.30373 13.1318 4.50057 13.0063 3.6924C12.8807 2.88424 12.2758 2.23392 11.4788 2.05037C11.3385 2.01405 11.1938 1.99723 11.0488 2.00037ZM5.04883 11.0004C5.04883 9.8958 5.94426 9.00037 7.04883 9.00037H15.0488C16.1534 9.00037 17.0488 9.8958 17.0488 11.0004V18.0004C17.0488 19.1049 16.1534 20.0004 15.0488 20.0004H7.04883C5.94426 20.0004 5.04883 19.1049 5.04883 18.0004V11.0004ZM8.54883 11.0004C9.37726 11.0004 10.0488 11.6719 10.0488 12.5004C10.0488 12.7765 9.82497 13.0004 9.54883 13.0004H7.54883C7.27269 13.0004 7.04883 12.7765 7.04883 12.5004C7.04883 11.6719 7.7204 11.0004 8.54883 11.0004ZM13.5488 11.0004C12.7204 11.0004 12.0488 11.6719 12.0488 12.5004C12.0488 12.7765 12.2727 13.0004 12.5488 13.0004H14.5488C14.825 13.0004 15.0488 12.7765 15.0488 12.5004C15.0488 11.6719 14.3773 11.0004 13.5488 11.0004ZM8.04883 16.0004C8.04883 15.4481 8.49654 15.0004 9.04883 15.0004H13.0488C13.6011 15.0004 14.0488 15.4481 14.0488 16.0004C14.0488 17.1049 13.1534 18.0004 12.0488 18.0004H10.0488C8.94426 18.0004 8.04883 17.1049 8.04883 16.0004ZM21.1 8.76143C20.7074 7.94947 20.052 7.29402 19.24 6.90143C19.0995 6.82999 19.008 6.68885 19 6.53143V6.47143C19.008 6.31402 19.0995 6.17288 19.24 6.10143C20.0466 5.70958 20.6981 5.05804 21.09 4.25143C21.1685 4.09716 21.3269 4 21.5 4C21.6731 4 21.8315 4.09716 21.91 4.25143C22.3019 5.05804 22.9534 5.70958 23.76 6.10143C23.9005 6.17288 23.992 6.31402 24 6.47143V6.53143C23.992 6.68885 23.9005 6.82999 23.76 6.90143C22.948 7.29402 22.2926 7.94947 21.9 8.76143C21.8286 8.90193 21.6874 8.99348 21.53 9.00143H21.47C21.3126 8.99348 21.1714 8.90193 21.1 8.76143Z" fill="currentColor" fill-rule="evenodd" clip-rule="evenodd" />
</svg>
