<svg xmlns="http://www.w3.org/2000/svg" viewBox="0 0 24 24">
    <path d="M6.70996 17.9769C6.92157 17.9712 7.1143 18.1 7.19043 18.2972C7.68158 20.0501 9.08938 21.3973 10.8643 21.8128C12.639 22.2281 14.4995 21.6463 15.7197 20.2942L14.2598 18.8265C14.1197 18.6839 14.0782 18.4711 14.1543 18.2864C14.2305 18.1017 14.4103 17.9797 14.6104 17.9769H18.5C18.6429 17.963 18.7856 18.0093 18.8936 18.1038C19.0014 18.1984 19.0655 18.3336 19.0703 18.4769V22.3606C19.0778 22.5653 18.9563 22.7534 18.7666 22.8314C18.577 22.9091 18.3586 22.8607 18.2197 22.7103L17.2197 21.7112C15.4685 23.6351 12.7929 24.4298 10.2734 23.7737C7.7539 23.1176 5.80672 21.1192 5.21973 18.5862C5.19203 18.4387 5.22895 18.2865 5.32031 18.1673C5.41365 18.0469 5.55752 17.9761 5.70996 17.9769H6.70996ZM12 0.000297794C12.1225 -0.00233958 12.2447 0.0125866 12.3633 0.0432665C13.0369 0.19843 13.5482 0.747927 13.6543 1.43096C13.7603 2.11397 13.4395 2.79271 12.8447 3.14483V4.22686H15.3809C17.2479 4.22698 18.7617 5.74063 18.7617 7.60772V9.29815C19.6952 9.29831 20.4521 10.0551 20.4521 10.9886C20.452 11.9219 19.6951 12.6789 18.7617 12.679V13.5237C18.7617 15.3908 17.2479 16.9045 15.3809 16.9046H8.61914C6.75198 16.9046 5.23828 15.3909 5.23828 13.5237V12.679C4.3048 12.679 3.54801 11.922 3.54785 10.9886C3.54785 10.055 4.3047 9.29815 5.23828 9.29815V7.60772C5.23828 5.74056 6.75198 4.22686 8.61914 4.22686H11.1543V3.14483C10.6346 2.84466 10.3132 2.29091 10.3096 1.69073C10.3098 0.757318 11.0665 0.000297794 12 0.000297794ZM8.80273 6.23272C7.91978 6.23272 7.20319 6.94841 7.20312 7.83135V13.4271C7.20312 14.3101 7.91974 15.0257 8.80273 15.0257H15.1973C16.0803 15.0257 16.7969 14.3101 16.7969 13.4271V7.83135C16.7968 6.94841 16.0802 6.23272 15.1973 6.23272H8.80273ZM13.751 11.386C14.234 11.3863 14.625 11.778 14.625 12.261C14.6249 13.2273 13.8422 14.0108 12.876 14.011H11.126C10.1596 14.011 9.37606 13.2274 9.37598 12.261C9.37598 11.7778 9.76777 11.386 10.251 11.386H13.751ZM9.8125 7.88604C10.5372 7.88604 11.1248 8.47386 11.125 9.19854C11.125 9.44015 10.9291 9.63604 10.6875 9.63604H8.9375C8.69604 9.63587 8.5 9.44004 8.5 9.19854C8.50016 8.47394 9.08789 7.88617 9.8125 7.88604ZM14.1875 7.88604C14.9121 7.88617 15.4998 8.47394 15.5 9.19854C15.5 9.44004 15.304 9.63587 15.0625 9.63604H13.3125C13.0709 9.63604 12.875 9.44015 12.875 9.19854C12.8752 8.47386 13.4628 7.88604 14.1875 7.88604Z" fill="currentColor" fill-rule="evenodd" clip-rule="evenodd" />
</svg>
