<svg xmlns="http://www.w3.org/2000/svg" viewBox="0 0 24 24">
    <path d="M11.3892 8.81746C13.0461 9.61835 14.3836 10.9555 15.1847 12.6119C15.3305 12.8985 15.6185 13.0853 15.9397 13.1015H16.0622C16.3834 13.0853 16.6714 12.8985 16.8172 12.6119C17.6183 10.9555 18.9559 9.61835 20.6128 8.81746C20.8995 8.67172 21.0863 8.38379 21.1025 8.06265V7.94025C21.0863 7.61911 20.8995 7.33118 20.6128 7.18544C18.9668 6.38603 17.6373 5.05688 16.8376 3.41137C16.6775 3.09665 16.3542 2.89844 16.001 2.89844C15.6478 2.89844 15.3245 3.09665 15.1643 3.41137C14.3647 5.05688 13.0351 6.38603 11.3892 7.18544C11.1025 7.33118 10.9156 7.61911 10.8994 7.94025V8.06265C10.9156 8.38379 11.1025 8.67172 11.3892 8.81746ZM7.82268 5.67997C7.1732 5.36895 6.64806 4.84734 6.33268 4.19997C6.26723 4.07826 6.14086 4.00167 6.00268 3.99997C5.86449 4.00167 5.73813 4.07826 5.67268 4.19997C5.36113 4.84664 4.83934 5.36843 4.19268 5.67997C4.06284 5.72972 3.9842 5.86216 4.00268 5.99997C3.99809 6.12715 4.07424 6.24339 4.19268 6.28997C4.84285 6.60483 5.36782 7.12979 5.68268 7.77997C5.73285 7.913 5.8605 8.00075 6.00268 7.99997C6.12824 7.99997 6.24359 7.93076 6.30268 7.81997C6.61491 7.16793 7.14064 6.6422 7.79268 6.32997C7.92528 6.27528 8.00929 6.14325 8.00268 5.99997C8.01038 5.86729 7.94006 5.74229 7.82268 5.67997ZM10.1 19.7614C9.70742 18.9494 9.05196 18.294 8.24 17.9014C8.0995 17.83 8.00795 17.6888 8 17.5314V17.4714C8.00795 17.314 8.0995 17.1728 8.24 17.1014C9.04661 16.7095 9.69814 16.058 10.09 15.2514C10.1685 15.0971 10.3269 15 10.5 15C10.6731 15 10.8315 15.0971 10.91 15.2514C11.3019 16.058 11.9534 16.7095 12.76 17.1014C12.9005 17.1728 12.992 17.314 13 17.4714V17.5314C12.992 17.6888 12.9005 17.83 12.76 17.9014C11.948 18.294 11.2926 18.9494 10.9 19.7614C10.8286 19.9019 10.6874 19.9934 10.53 20.0014H10.47C10.3126 19.9934 10.1714 19.9019 10.1 19.7614Z" fill="currentColor" fill-rule="evenodd" clip-rule="evenodd" />
</svg>
