<svg xmlns="http://www.w3.org/2000/svg" viewBox="0 0 24 24">
    <path d="M4.76777 17.0607L16.7886 5.03985C16.9838 4.84458 16.9838 4.528 16.7886 4.33274L16.0815 3.62563C15.8862 3.43037 15.5696 3.43037 15.3744 3.62563L3.35355 15.6464C3.15829 15.8417 3.15829 16.1583 3.35355 16.3536L4.06066 17.0607C4.25592 17.2559 4.5725 17.2559 4.76777 17.0607ZM17.2602 10.3535L17.9673 11.0606C18.1626 11.2559 18.1005 11.6346 17.8286 11.9064L12.9064 16.8286C12.6346 17.1005 12.2559 17.1625 12.0607 16.9673L11.3536 16.2602C11.1583 16.0649 11.2204 15.6862 11.4922 15.4144L16.4144 10.4922C16.6863 10.2203 17.0649 10.1583 17.2602 10.3535Z" fill="currentColor" fill-rule="evenodd" clip-rule="evenodd" />
</svg>
