<svg xmlns="http://www.w3.org/2000/svg" viewBox="0 0 24 24">
    <path d="M11.5858 3.58579C12.3668 2.80474 13.6332 2.80474 14.4142 3.58579L20.9853 10.1569C21.7663 10.9379 21.7663 12.2042 20.9853 12.9853L14.4142 19.5564C13.6332 20.3374 12.3668 20.3374 11.5858 19.5563L9.0925 17.0631L10.5067 15.6488L13 18.1421L19.5711 11.5711L13 5L10.5067 7.49329L9.0925 6.07907L11.5858 3.58579ZM11.2676 10.5856C11.6134 9.98783 12.2597 9.58564 13 9.58564C14.1046 9.58564 15 10.4811 15 11.5856C15 12.6902 14.1046 13.5856 13 13.5856C12.2597 13.5856 11.6134 13.1834 11.2676 12.5856L2 12.5856V10.5856L11.2676 10.5856Z" fill="currentColor" fill-rule="evenodd" clip-rule="evenodd" />
</svg>
