<svg xmlns="http://www.w3.org/2000/svg" viewBox="0 0 24 24">
    <path d="M12.5 9H11.5C11.2239 9 11 8.77614 11 8.5V7.5C11 7.22386 11.2239 7 11.5 7H12.5C12.7761 7 13 7.22386 13 7.5V8.5C13 8.77614 12.7761 9 12.5 9ZM3.5 15H4.5C4.77614 15 5 15.2239 5 15.5V16.5C5 16.7761 4.77614 17 4.5 17H3.5C3.22386 17 3 16.7761 3 16.5V15.5C3 15.2239 3.22386 15 3.5 15ZM21 16.5V15.5C21 15.2239 20.7761 15 20.5 15H19.5C19.2239 15 19 15.2239 19 15.5V16.5C19 16.7761 19.2239 17 19.5 17H20.5C20.7761 17 21 16.7761 21 16.5ZM16.5 15H7.5C7.22386 15 7 15.2239 7 15.5V16.5C7 16.7761 7.22386 17 7.5 17H16.5C16.7761 17 17 16.7761 17 16.5V15.5C17 15.2239 16.7761 15 16.5 15ZM18 9.28C17.8022 9.08822 17.4878 9.08822 17.29 9.28L16.59 9.99C16.4953 10.0839 16.4421 10.2117 16.4421 10.345C16.4421 10.4783 16.4953 10.6061 16.59 10.7L17.29 11.4C17.3839 11.4947 17.5117 11.5479 17.645 11.5479C17.7783 11.5479 17.9061 11.4947 18 11.4L18.71 10.7C18.9018 10.5022 18.9018 10.1878 18.71 9.99L18 9.28ZM6.7 9.29L7.4 10C7.49466 10.0939 7.5479 10.2217 7.5479 10.355C7.5479 10.4883 7.49466 10.6161 7.4 10.71L6.7 11.41C6.60612 11.5047 6.47832 11.5579 6.345 11.5579C6.21168 11.5579 6.08388 11.5047 5.99 11.41L5.28 10.71C5.08822 10.5122 5.08822 10.1978 5.28 10L5.99 9.29C6.18781 9.09822 6.50219 9.09822 6.7 9.29Z" fill="currentColor" fill-rule="evenodd" clip-rule="evenodd" />
</svg>
