<svg xmlns="http://www.w3.org/2000/svg" viewBox="0 0 24 24">
    <path d="M10.33 4H21C21.5523 4 22 4.44772 22 5V19C22 19.5523 21.5523 20 21 20H10.33C9.79696 20.0004 9.2858 19.788 8.91 19.41L2.29 12.79C2.10526 12.6037 2.0011 12.3523 2 12.09V11.91C2.0011 11.6477 2.10526 11.3963 2.29 11.21L8.91 4.59C9.2858 4.21196 9.79696 3.99958 10.33 4ZM17.2415 14.21C17.2415 14.0774 17.1867 13.9507 17.09 13.86L15.24 12L17.09 10.14C17.1867 10.0493 17.2415 9.92259 17.2415 9.79C17.2415 9.65741 17.1867 9.53073 17.09 9.44L16.56 8.91C16.4693 8.81332 16.3426 8.75848 16.21 8.75848C16.0774 8.75848 15.9507 8.81332 15.86 8.91L14 10.76L12.14 8.91C12.0493 8.81332 11.9226 8.75848 11.79 8.75848C11.6574 8.75848 11.5307 8.81332 11.44 8.91L10.91 9.44C10.8133 9.53073 10.7585 9.65741 10.7585 9.79C10.7585 9.92259 10.8133 10.0493 10.91 10.14L12.76 12L10.91 13.86C10.8133 13.9507 10.7585 14.0774 10.7585 14.21C10.7585 14.3426 10.8133 14.4693 10.91 14.56L11.44 15.09C11.5307 15.1867 11.6574 15.2415 11.79 15.2415C11.9226 15.2415 12.0493 15.1867 12.14 15.09L14 13.24L15.86 15.09C15.9507 15.1867 16.0774 15.2415 16.21 15.2415C16.3426 15.2415 16.4693 15.1867 16.56 15.09L17.09 14.56C17.1867 14.4693 17.2415 14.3426 17.2415 14.21Z" fill="currentColor" fill-rule="evenodd" clip-rule="evenodd" />
</svg>
