<svg xmlns="http://www.w3.org/2000/svg" viewBox="0 0 24 24">
    <path d="M12.5 9H11.5C11.2239 9 11 8.77614 11 8.5V5.5C11 5.22386 11.2239 5 11.5 5H12.5C12.7761 5 13 5.22386 13 5.5V8.5C13 8.77614 12.7761 9 12.5 9ZM1.5 15H4.5C4.77614 15 5 15.2239 5 15.5V16.5C5 16.7761 4.77614 17 4.5 17H1.5C1.22386 17 1 16.7761 1 16.5V15.5C1 15.2239 1.22386 15 1.5 15ZM23 16.5V15.5C23 15.2239 22.7761 15 22.5 15H19.5C19.2239 15 19 15.2239 19 15.5V16.5C19 16.7761 19.2239 17 19.5 17H22.5C22.7761 17 23 16.7761 23 16.5ZM16.5 15H7.5C7.22386 15 7 15.2239 7 15.5V16.5C7 16.7761 7.22386 17 7.5 17H16.5C16.7761 17 17 16.7761 17 16.5V15.5C17 15.2239 16.7761 15 16.5 15ZM7.4 10L5.28 7.87C5.18927 7.77332 5.06259 7.71848 4.93 7.71848C4.79741 7.71848 4.67073 7.77332 4.58 7.87L3.87 8.58C3.77332 8.67073 3.71848 8.79741 3.71848 8.93C3.71848 9.06259 3.77332 9.18927 3.87 9.28L6 11.4C6.09388 11.4947 6.22168 11.5479 6.355 11.5479C6.48832 11.5479 6.61612 11.4947 6.71 11.4L7.41 10.7C7.59782 10.5029 7.59338 10.1917 7.4 10ZM19.42 7.87L20.13 8.58C20.23 8.67096 20.2869 8.79985 20.2869 8.935C20.2869 9.07015 20.23 9.19904 20.13 9.29L18.01 11.41C17.9161 11.5047 17.7883 11.5579 17.655 11.5579C17.5217 11.5579 17.3939 11.5047 17.3 11.41L16.6 10.71C16.5053 10.6161 16.4521 10.4883 16.4521 10.355C16.4521 10.2217 16.5053 10.0939 16.6 10L18.72 7.87C18.8107 7.77332 18.9374 7.71848 19.07 7.71848C19.2026 7.71848 19.3293 7.77332 19.42 7.87Z" fill="currentColor" fill-rule="evenodd" clip-rule="evenodd" />
</svg>
