<svg xmlns="http://www.w3.org/2000/svg" viewBox="0 0 24 24">
    <path d="M22 6.5V17.5C22 17.7761 21.7761 18 21.5 18H20.5C20.2239 18 20 17.7761 20 17.5V6.5C20 6.22386 20.2239 6 20.5 6H21.5C21.7761 6 22 6.22386 22 6.5ZM14.67 13H2.5C2.22386 13 2 12.7761 2 12.5V11.5C2 11.2239 2.22386 11 2.5 11H14.67L11.22 7.56C11.1259 7.46784 11.0729 7.34169 11.0729 7.21C11.0729 7.07831 11.1259 6.95216 11.22 6.86L11.93 6.15C12.0239 6.05534 12.1517 6.0021 12.285 6.0021C12.4183 6.0021 12.5461 6.05534 12.64 6.15L17.78 11.28C17.9189 11.4217 17.9977 11.6116 18 11.81V12.19C17.9998 12.3888 17.9207 12.5795 17.78 12.72L12.64 17.85C12.5461 17.9447 12.4183 17.9979 12.285 17.9979C12.1517 17.9979 12.0239 17.9447 11.93 17.85L11.22 17.15C11.1253 17.0561 11.0721 16.9283 11.0721 16.795C11.0721 16.6617 11.1253 16.5339 11.22 16.44L14.67 13Z" fill="currentColor" fill-rule="evenodd" clip-rule="evenodd" />
</svg>
