<svg xmlns="http://www.w3.org/2000/svg" viewBox="0 0 24 24">
    <path d="M12 2C6.47715 2 2 6.47715 2 12C2 17.5228 6.47715 22 12 22C17.5228 22 22 17.5228 22 12C22 9.34784 20.9464 6.8043 19.0711 4.92893C17.1957 3.05357 14.6522 2 12 2ZM12 20C7.58172 20 4 16.4183 4 12C4 7.58172 7.58172 4 12 4C16.4183 4 20 7.58172 20 12C20 14.1217 19.1571 16.1566 17.6569 17.6569C16.1566 19.1571 14.1217 20 12 20ZM11 10.5C11 10.7761 10.7761 11 10.5 11H7.5C7.22386 11 7 10.7761 7 10.5V10C7 8.89543 7.89543 8 9 8C10.1046 8 11 8.89543 11 10V10.5ZM15 8C13.8954 8 13 8.89543 13 10V10.5C13 10.7761 13.2239 11 13.5 11H16.5C16.7761 11 17 10.7761 17 10.5V10C17 8.89543 16.1046 8 15 8ZM8 16.43C8.28554 14.4459 9.99557 12.9796 12 13C13.9741 13.0194 15.6388 14.476 15.92 16.43C15.9417 16.5746 15.8977 16.7212 15.8 16.83C15.7049 16.9403 15.5656 17.0026 15.42 17H8.5C8.35436 17.0026 8.2151 16.9403 8.12 16.83C8.02234 16.7212 7.97834 16.5746 8 16.43Z" fill="currentColor" fill-rule="evenodd" clip-rule="evenodd" />
</svg>
