<svg xmlns="http://www.w3.org/2000/svg" viewBox="0 0 24 24">
    <path d="M12 2C6.47715 2 2 6.47715 2 12C2 17.5228 6.47715 22 12 22C17.5228 22 22 17.5228 22 12C22 9.34784 20.9464 6.8043 19.0711 4.92893C17.1957 3.05357 14.6522 2 12 2ZM12 20C7.58172 20 4 16.4183 4 12C4 7.58172 7.58172 4 12 4C16.4183 4 20 7.58172 20 12C20 14.1217 19.1571 16.1566 17.6569 17.6569C16.1566 19.1571 14.1217 20 12 20ZM13 10C13 8.89543 13.8954 8 15 8C16.1046 8 17 8.89543 17 10V10.5C17 10.7761 16.7761 11 16.5 11H13.5C13.2239 11 13 10.7761 13 10.5V10ZM10.5 11C10.7761 11 11 10.7761 11 10.5V10C11 8.89543 10.1046 8 9 8C7.89543 8 7 8.89543 7 10V10.5C7 10.7761 7.22386 11 7.5 11H10.5ZM7.54 15.29C8.57318 13.8553 10.232 13.0036 12 13C13.7662 13.0013 15.4247 13.8491 16.46 15.28C16.5407 15.3928 16.5697 15.5345 16.54 15.67C16.5094 15.8086 16.4224 15.9282 16.3 16L15.43 16.51C15.2109 16.6326 14.9351 16.5774 14.78 16.38C14.125 15.5031 13.0946 14.9867 12 14.9867C10.9054 14.9867 9.87505 15.5031 9.22 16.38C9.06487 16.5774 8.78913 16.6326 8.57 16.51L7.7 16C7.57976 15.9305 7.49309 15.8149 7.46 15.68C7.43027 15.5445 7.45934 15.4028 7.54 15.29Z" fill="currentColor" fill-rule="evenodd" clip-rule="evenodd" />
</svg>
