<svg xmlns="http://www.w3.org/2000/svg" viewBox="0 0 24 24">
    <path d="M18.0002 1.5C18.0002 1.22386 18.2241 1 18.5002 1H19.5002C19.7764 1 20.0002 1.22386 20.0002 1.5V7H21.0002C21.1841 7.03538 21.3317 7.17245 21.3806 7.35319C21.4295 7.53392 21.3712 7.72673 21.2302 7.85L19.2302 9.85C19.1606 9.92147 19.065 9.96179 18.9652 9.96179C18.8654 9.96179 18.7699 9.92147 18.7002 9.85L16.7002 7.85C16.5589 7.70585 16.5181 7.49087 16.5969 7.30499C16.6756 7.11912 16.8584 6.99881 17.0602 7H18.0002V1.5ZM18.0002 14.47C17.9899 13.6717 17.6709 12.9084 17.1102 12.34L14.3802 9.62C13.9985 9.24097 13.5218 8.97157 13.0002 8.84V10.5C13.0002 10.7761 12.7764 11 12.5002 11C12.2241 11 12.0002 10.7761 12.0002 10.5V3C12.0002 2.44772 11.5525 2 11.0002 2C10.4479 2 10.0002 2.44772 10.0002 3V10.5C10.0002 10.7761 9.77636 11 9.50022 11C9.22408 11 9.00022 10.7761 9.00022 10.5V4C9.00022 3.44772 8.5525 3 8.00022 3C7.44793 3 7.00022 3.44772 7.00022 4V15L4.11022 12.15C3.59078 11.6598 2.80014 11.5974 2.21022 12C1.98763 12.1626 1.93449 12.4726 2.09022 12.7L3.60022 14.85C4.13203 15.6117 4.41604 16.4099 4.69025 17.1806C5.02447 18.12 5.34414 19.0184 6.08022 19.76L8.46022 22.09C9.02229 22.6528 9.78484 22.9693 10.5802 22.97H13.1702C13.9656 22.9693 14.7281 22.6528 15.2902 22.09C16.0082 21.3695 16.5313 20.4782 16.8102 19.5L17.8102 16.11C17.9384 15.6647 18.0024 15.2034 18.0002 14.74V14.47Z" fill="currentColor" fill-rule="evenodd" clip-rule="evenodd" />
</svg>
