<svg xmlns="http://www.w3.org/2000/svg" viewBox="0 0 24 24">
    <path d="M13.5002 4.97001C13.2241 4.97001 13.0002 4.74615 13.0002 4.47001V3.50001C13.0002 3.22386 13.2241 3.00001 13.5002 3.00001H19.0002V2.10001C19.0045 1.89841 19.1272 1.71826 19.3132 1.6404C19.4992 1.56253 19.7136 1.60158 19.8602 1.74001L21.8602 3.74001C21.9317 3.80965 21.972 3.90521 21.972 4.00501C21.972 4.1048 21.9317 4.20036 21.8602 4.27001L19.8602 6.27001C19.7136 6.40843 19.4992 6.44748 19.3132 6.36961C19.1272 6.29175 19.0045 6.11161 19.0002 5.91001V4.97001H13.5002ZM18.0002 14.74V14.47C17.9899 13.6717 17.6709 12.9084 17.1102 12.34L14.3802 9.62001C13.8157 9.05478 13.0491 8.73805 12.2502 8.74001H10.0002V10.5C10.0002 10.7761 9.77636 11 9.50022 11C9.22408 11 9.00022 10.7761 9.00022 10.5V4.00001C9.00022 3.44772 8.5525 3.00001 8.00022 3.00001C7.44793 3.00001 7.00022 3.44772 7.00022 4.00001V15L4.11022 12.15C3.59078 11.6598 2.80014 11.5974 2.21022 12C1.98763 12.1626 1.93449 12.4726 2.09022 12.7L3.60022 14.85C4.13203 15.6117 4.41604 16.4099 4.69025 17.1806C5.02447 18.12 5.34414 19.0184 6.08022 19.76L8.46022 22.09C9.02229 22.6528 9.78484 22.9693 10.5802 22.97H13.1702C13.9656 22.9693 14.7281 22.6528 15.2902 22.09C16.0082 21.3695 16.5313 20.4782 16.8102 19.5L17.8102 16.11C17.9384 15.6647 18.0024 15.2034 18.0002 14.74Z" fill="currentColor" fill-rule="evenodd" clip-rule="evenodd" />
</svg>
