<svg xmlns="http://www.w3.org/2000/svg" viewBox="0 0 24 24">
    <path d="M21.9998 5.5V15.41C22.004 16.462 21.7316 17.4965 21.2098 18.41L18.5798 23C18.2211 23.6213 17.5572 24.0028 16.8398 24H12.6998C12.2453 23.9996 11.8044 23.8445 11.4498 23.56L7.72983 20.56C7.25348 20.1722 6.8358 19.7175 6.48983 19.21L5.56983 17.83C5.19222 17.2796 4.63854 16.874 3.99983 16.68L2.65983 16.23L2.29983 16.11C2.10818 16.0298 1.98796 15.8374 1.99983 15.63V15.49C1.99982 15.0931 2.15817 14.7126 2.43977 14.4329C2.72137 14.1531 3.10293 13.9973 3.49983 14H4.33983C4.77453 13.9967 5.20686 14.0642 5.61983 14.2L7.99983 15V2.5C7.99983 1.67157 8.6714 1 9.49983 1C10.3283 1 10.9998 1.67157 10.9998 2.5V10.5C10.9998 10.7761 11.2237 11 11.4998 11C11.776 11 11.9998 10.7761 11.9998 10.5V9C11.9998 8.44772 12.4475 8 12.9998 8H16.9998C17.5521 8 17.9998 8.44772 17.9998 9V10.5C17.9998 10.7761 18.2237 11 18.4998 11C18.776 11 18.9998 10.7761 18.9998 10.5V5.5C18.9998 4.67157 19.6714 4 20.4998 4C21.3283 4 21.9998 4.67157 21.9998 5.5Z" fill="currentColor" />
</svg>
