<svg xmlns="http://www.w3.org/2000/svg" viewBox="0 0 24 24">
    <path d="M12.9992 10.329V10.0086C12.9992 8.90243 13.8938 8.00573 14.9975 8.00573H16.1765C16.6631 9.38523 18.0705 10.2127 19.5094 9.9653C20.9483 9.71788 22 8.46749 22 7.0043C22 5.54112 20.9483 4.29073 19.5094 4.0433C18.0705 3.79588 16.6631 4.62338 16.1765 6.00288H14.9975C13.037 6.00783 11.3696 7.43728 11.0608 9.37767C11.771 9.54206 12.4341 9.86752 12.9992 10.329ZM21.9916 17.0185C21.9803 15.5645 20.9317 14.3272 19.5018 14.081C18.0719 13.8347 16.6713 14.6502 16.1765 16.0171H14.9975C13.8938 16.0171 12.9992 15.1204 12.9992 14.0143C12.9948 13.2731 12.7172 12.5598 12.2198 12.0114C11.6549 11.3784 10.8491 11.0146 10.0017 11.01H7.82352C7.33689 9.63049 5.92945 8.80299 4.4906 9.05041C3.05174 9.29784 2 10.5482 2 12.0114C2 13.4746 3.05174 14.725 4.4906 14.9724C5.92945 15.2198 7.33689 14.3923 7.82352 13.0128H10.0017C10.5535 13.0128 11.0008 13.4612 11.0008 14.0143C11.0008 16.2265 12.7902 18.0199 14.9975 18.0199H16.1765C16.6713 19.3869 18.0719 20.2023 19.5018 19.9561C20.9317 19.7099 21.9803 18.4726 21.9916 17.0185ZM5.00589 13.0128C4.45407 13.0128 4.00674 12.5645 4.00674 12.0114C4.00674 11.4583 4.45407 11.01 5.00589 11.01C5.55771 11.01 6.00505 11.4583 6.00505 12.0114C6.00505 12.5645 5.55771 13.0128 5.00589 13.0128ZM17.9949 17.0185C17.9949 17.5716 18.4423 18.0199 18.9941 18.0199C19.5459 18.0199 19.9933 17.5716 19.9933 17.0185C19.9933 16.4655 19.5459 16.0171 18.9941 16.0171C18.4423 16.0171 17.9949 16.4655 17.9949 17.0185ZM19.9933 7.0043C19.9933 6.45123 19.5459 6.00288 18.9941 6.00288C18.4423 6.00288 17.9949 6.45123 17.9949 7.0043C17.9949 7.55737 18.4423 8.00573 18.9941 8.00573C19.5459 8.00573 19.9933 7.55737 19.9933 7.0043Z" fill="currentColor" fill-rule="evenodd" clip-rule="evenodd" />
</svg>
