<svg xmlns="http://www.w3.org/2000/svg" viewBox="0 0 24 24">
    <path d="M19 2H5C4.44772 2 4 2.44772 4 3V9C4 9.55228 4.44772 10 5 10H19C19.5523 10 20 9.55228 20 9V3C20 2.44772 19.5523 2 19 2ZM17 12.5V14H19C19.5523 14 20 14.4477 20 15V21C20 21.5523 19.5523 22 19 22H5C4.44772 22 4 21.5523 4 21V15C4 14.4477 4.44772 14 5 14H7V12.5C7 12.2239 7.22386 12 7.5 12H9.5C9.77614 12 10 12.2239 10 12.5V14H14V12.5C14 12.2239 14.2239 12 14.5 12H16.5C16.7761 12 17 12.2239 17 12.5ZM6 20H18V16H6V20ZM6 8H18V4H6V8Z" fill="currentColor" fill-rule="evenodd" clip-rule="evenodd" />
</svg>
