<svg xmlns="http://www.w3.org/2000/svg" viewBox="0 0 24 24">
    <path d="M10.874 13C10.4299 14.7252 8.86384 16 7 16C4.79086 16 3 14.2091 3 12C3 9.79086 4.79086 8 7 8C8.86384 8 10.4299 9.27477 10.874 11L13.126 11C13.5701 9.27477 15.1362 8 17 8C19.2091 8 21 9.79086 21 12C21 14.2091 19.2091 16 17 16C15.1362 16 13.5701 14.7252 13.126 13L10.874 13ZM17 14C18.1046 14 19 13.1046 19 12C19 10.8954 18.1046 10 17 10C15.8954 10 15 10.8954 15 12C15 13.1046 15.8954 14 17 14Z" fill="currentColor" fill-rule="evenodd" clip-rule="evenodd" />
</svg>
