<svg xmlns="http://www.w3.org/2000/svg" viewBox="0 0 24 24">
    <path d="M20.1 7.4L16.6 3.9C16 3.3 15.3 3 14.5 3H9.5C8.7 3 7.9 3.3 7.4 3.9L3.9 7.4C3.3 8 3 8.7 3 9.5V14.5C3 15.3 3.3 16.1 3.9 16.6L7.4 20.1C8 20.7 8.7 21 9.5 21H14.5C15.3 21 16.1 20.7 16.6 20.1L20.1 16.6C20.7 16 21 15.3 21 14.5V9.5C21 8.7 20.7 7.9 20.1 7.4ZM5 14.5V9.5C5 9.2 5.1 9 5.3 8.8L8.8 5.3C9 5.1 9.2 5 9.5 5H14.5C14.8 5 15 5.1 15.2 5.3L16.3 6.4L6.4 16.3L5.2 15.2C5.1 15 5 14.8 5 14.5ZM18.7 15.2C18.9 15 19 14.8 19 14.5V9.5C19 9.2 18.9 9 18.7 8.8L17.6 7.7L7.7 17.6L8.8 18.7C9 18.9 9.2 19 9.5 19H14.5C14.8 19 15 18.9 15.2 18.7L18.7 15.2Z" fill="currentColor" fill-rule="evenodd" clip-rule="evenodd" />
</svg>
