<svg xmlns="http://www.w3.org/2000/svg" viewBox="0 0 24 24">
    <path d="M8.71985 12.1502L8.91985 12.3504C9.01451 12.4443 9.06775 12.5723 9.06775 12.7057C9.06775 12.8392 9.01451 12.9671 8.91985 13.0611L5.38985 16.6047C5.19204 16.7967 4.87767 16.7967 4.67985 16.6047L1.14985 13.0611C1.0552 12.9671 1.00195 12.8392 1.00195 12.7057C1.00195 12.5723 1.0552 12.4443 1.14985 12.3504L1.34985 12.1502C1.44393 12.0524 1.57427 11.998 1.70985 12H3.99985C4.00278 9.14041 5.52873 6.49937 8.0034 5.07084C10.4781 3.64232 13.5259 3.6431 15.9999 5.0729C16.1384 5.1502 16.2342 5.28658 16.2599 5.44328C16.2811 5.59759 16.2293 5.75301 16.1199 5.86371L15.3799 6.60447C15.2231 6.75858 14.9854 6.79488 14.7899 6.69456C13.9329 6.23139 12.9737 5.99048 11.9999 5.99384C8.68614 5.99384 5.99985 8.68289 5.99985 12H8.35985C8.49544 11.998 8.62578 12.0524 8.71985 12.1502ZM22.6499 11.8498L22.8499 11.6496C22.9445 11.5557 22.9978 11.4277 22.9978 11.2943C22.9978 11.1608 22.9445 11.0329 22.8499 10.9389L19.3199 7.39528C19.122 7.2033 18.8077 7.2033 18.6099 7.39528L15.0799 10.9389C14.9852 11.0329 14.932 11.1608 14.932 11.2943C14.932 11.4277 14.9852 11.5557 15.0799 11.6496L15.2799 11.8498C15.3739 11.9476 15.5043 12.002 15.6399 12H17.9999C17.9999 13.5929 17.3677 15.1206 16.2425 16.247C15.1173 17.3734 13.5912 18.0062 11.9999 18.0062C11.0308 18.0064 10.0764 17.7692 9.21985 17.3154C9.02488 17.2118 8.78509 17.2484 8.62985 17.4055L7.89985 18.1363C7.79037 18.247 7.73862 18.4024 7.75985 18.5567C7.781 18.7097 7.86892 18.8454 7.99985 18.9271C10.4738 20.3569 13.5216 20.3577 15.9963 18.9292C18.471 17.5006 19.9969 14.8596 19.9999 12H22.2899C22.4254 12.002 22.5558 11.9476 22.6499 11.8498Z" fill="currentColor" fill-rule="evenodd" clip-rule="evenodd" />
</svg>
