<svg xmlns="http://www.w3.org/2000/svg" viewBox="0 0 24 24">
    <path d="M5 3H19C20.1046 3 21 3.89543 21 5V19C21 20.1046 20.1046 21 19 21H5C3.89543 21 3 20.1046 3 19V5C3 3.89543 3.89543 3 5 3ZM15.2415 14.21C15.2415 14.0774 15.1867 13.9507 15.09 13.86L13.24 12L15.09 10.14C15.1867 10.0493 15.2415 9.92259 15.2415 9.79C15.2415 9.65741 15.1867 9.53073 15.09 9.44L14.56 8.91C14.4693 8.81332 14.3426 8.75848 14.21 8.75848C14.0774 8.75848 13.9507 8.81332 13.86 8.91L12 10.76L10.14 8.91C10.0493 8.81332 9.92259 8.75848 9.79 8.75848C9.65741 8.75848 9.53073 8.81332 9.44 8.91L8.91 9.44C8.81332 9.53073 8.75848 9.65741 8.75848 9.79C8.75848 9.92259 8.81332 10.0493 8.91 10.14L10.76 12L8.91 13.86C8.81332 13.9507 8.75848 14.0774 8.75848 14.21C8.75848 14.3426 8.81332 14.4693 8.91 14.56L9.44 15.09C9.53073 15.1867 9.65741 15.2415 9.79 15.2415C9.92259 15.2415 10.0493 15.1867 10.14 15.09L12 13.24L13.86 15.09C13.9507 15.1867 14.0774 15.2415 14.21 15.2415C14.3426 15.2415 14.4693 15.1867 14.56 15.09L15.09 14.56C15.1867 14.4693 15.2415 14.3426 15.2415 14.21Z" fill="currentColor" fill-rule="evenodd" clip-rule="evenodd" />
</svg>
