<svg xmlns="http://www.w3.org/2000/svg" viewBox="0 0 24 24">
    <path d="M3.62777 12.7452C5.23672 11.5559 7.46933 11.7536 8.84862 13.2076L18.8098 3.15054C18.9033 3.05253 19.0329 2.99802 19.1676 2.99999H19.4559C19.7305 2.99999 19.953 3.22468 19.953 3.50184V5.00738C19.9523 5.8057 19.6376 6.57106 19.0782 7.13521L14.1075 12.1537L15.1514 13.2076C16.5307 11.7536 18.7633 11.5559 20.3722 12.7452C21.9812 13.9345 22.4689 16.143 21.5127 17.9097C20.5564 19.6764 18.4521 20.4549 16.5917 19.7302C14.7313 19.0054 13.6902 17.0016 14.1573 15.0443H13.1631C12.9023 15.0432 12.6524 14.9387 12.4672 14.7532L12 14.2815L11.5328 14.7532C11.3476 14.9387 11.0977 15.0432 10.8369 15.0443H9.84275C10.3098 17.0016 9.26871 19.0054 7.40832 19.7302C5.54793 20.4549 3.44355 19.6764 2.48735 17.9097C1.53114 16.143 2.01882 13.9345 3.62777 12.7452ZM19.6059 17.1687C20.1356 16.374 20.0353 15.3122 19.3665 14.6328C18.9953 14.2558 18.4912 14.0429 17.9647 14.0406C17.016 14.0366 16.1966 14.7099 16.0079 15.6487C15.8191 16.5874 16.3136 17.53 17.1889 17.8998C18.0641 18.2696 19.0762 17.9634 19.6059 17.1687ZM4.63354 17.4632C4.06614 16.9726 3.81899 16.2023 3.9937 15.469C4.16841 14.7357 4.73549 14.1632 5.4618 13.9868C6.18811 13.8104 6.95106 14.0599 7.43697 14.6328C8.00437 15.1234 8.25152 15.8937 8.07681 16.627C7.9021 17.3603 7.33501 17.9328 6.6087 18.1092C5.88239 18.2856 5.11944 18.0361 4.63354 17.4632ZM4.83236 2.99999C4.96715 2.99802 5.09672 3.05253 5.19025 3.15054L10.7673 8.7913L8.65974 10.9191L4.92183 7.13521C4.36237 6.57106 4.0477 5.8057 4.047 5.00738V3.50184C4.047 3.22468 4.26955 2.99999 4.54407 2.99999H4.83236Z" fill="currentColor" fill-rule="evenodd" clip-rule="evenodd" />
</svg>
