<svg xmlns="http://www.w3.org/2000/svg" viewBox="0 0 24 24">
    <path d="M3.19061 8.42217C3.16278 8.57002 3.19919 8.72271 3.29075 8.84217C3.3905 8.97151 3.54821 9.04276 3.71136 9.03217H4.7128C4.92472 9.03787 5.11726 8.90969 5.1935 8.71217C5.68526 6.9564 7.09508 5.60707 8.87265 5.19089C10.6502 4.77471 12.5138 5.35765 13.7358 6.71217L12.2737 8.18217C12.1335 8.32502 12.092 8.5376 12.1682 8.72259C12.2445 8.90758 12.4239 9.02936 12.6242 9.03217H16.5599C16.8321 9.0219 17.0503 8.80395 17.0606 8.53217V4.64217C17.0681 4.43719 16.947 4.24923 16.7571 4.17114C16.5671 4.09304 16.3486 4.14134 16.2094 4.29217L15.208 5.29217C13.4541 3.36526 10.7742 2.56965 8.251 3.22683C5.72781 3.88401 3.77845 5.88536 3.19061 8.42217ZM16.8703 15.4722L20.8761 19.4722C21.0487 19.6691 21.04 19.9657 20.8561 20.1522L20.1551 20.8522C20.0611 20.9468 19.9331 21.0001 19.7996 21.0001C19.6661 21.0001 19.5381 20.9468 19.4441 20.8522L15.4383 16.8522C15.3275 16.7414 15.2269 16.621 15.1378 16.4922L14.3868 15.4922C11.51 17.7866 7.34585 17.4678 4.85301 14.7622L3.85156 15.7622C3.71236 15.913 3.49381 15.9613 3.30387 15.8832C3.11394 15.8051 2.99281 15.6171 3.00033 15.4122V11.5322C3.01061 11.2604 3.22888 11.0424 3.50105 11.0322H7.39668C7.61477 11.0113 7.82114 11.1344 7.90606 11.3361C7.99097 11.5378 7.93472 11.7712 7.76721 11.9122L6.3051 13.3822C7.52717 14.7367 9.3907 15.3196 11.1683 14.9034C12.9459 14.4873 14.3557 13.1379 14.8474 11.3822C14.9097 11.1688 15.1056 11.0222 15.3281 11.0222H16.3296C16.4823 11.0214 16.6266 11.0916 16.7201 11.2122C16.8117 11.3316 16.8481 11.4843 16.8203 11.6322C16.5765 12.6575 16.1041 13.6146 15.4383 14.4322L16.4397 15.1222C16.5961 15.2221 16.7406 15.3395 16.8703 15.4722Z" fill="currentColor" fill-rule="evenodd" clip-rule="evenodd" />
</svg>
