<svg xmlns="http://www.w3.org/2000/svg" viewBox="0 0 24 24">
    <path d="M21 2H3C1.89543 2 1 2.89543 1 4V14C1 15.1046 1.89543 16 3 16H21C22.1046 16 23 15.1046 23 14V4C23 2.89543 22.1046 2 21 2ZM11 4.5C11 4.22386 11.2239 4 11.5 4H12.5C12.7761 4 13 4.22386 13 4.5V5.5C13 5.77614 12.7761 6 12.5 6H11.5C11.2239 6 11 5.77614 11 5.5V4.5ZM11.5 8C11.2239 8 11 8.22386 11 8.5V9.5C11 9.77614 11.2239 10 11.5 10H12.5C12.7761 10 13 9.77614 13 9.5V8.5C13 8.22386 12.7761 8 12.5 8H11.5ZM7 4.5C7 4.22386 7.22386 4 7.5 4H8.5C8.77614 4 9 4.22386 9 4.5V5.5C9 5.77614 8.77614 6 8.5 6H7.5C7.22386 6 7 5.77614 7 5.5V4.5ZM7.5 8C7.22386 8 7 8.22386 7 8.5V9.5C7 9.77614 7.22386 10 7.5 10H8.5C8.77614 10 9 9.77614 9 9.5V8.5C9 8.22386 8.77614 8 8.5 8H7.5ZM5 9.5C5 9.77614 4.77614 10 4.5 10H3.5C3.22386 10 3 9.77614 3 9.5V8.5C3 8.22386 3.22386 8 3.5 8H4.5C4.77614 8 5 8.22386 5 8.5V9.5ZM4.5 6C4.77614 6 5 5.77614 5 5.5V4.5C5 4.22386 4.77614 4 4.5 4H3.5C3.22386 4 3 4.22386 3 4.5V5.5C3 5.77614 3.22386 6 3.5 6H4.5ZM17 13.5C17 13.7761 16.7761 14 16.5 14H7.5C7.22386 14 7 13.7761 7 13.5V12.5C7 12.2239 7.22386 12 7.5 12H16.5C16.7761 12 17 12.2239 17 12.5V13.5ZM16.5 10C16.7761 10 17 9.77614 17 9.5V8.5C17 8.22386 16.7761 8 16.5 8H15.5C15.2239 8 15 8.22386 15 8.5V9.5C15 9.77614 15.2239 10 15.5 10H16.5ZM17 5.5C17 5.77614 16.7761 6 16.5 6H15.5C15.2239 6 15 5.77614 15 5.5V4.5C15 4.22386 15.2239 4 15.5 4H16.5C16.7761 4 17 4.22386 17 4.5V5.5ZM20.5 10C20.7761 10 21 9.77614 21 9.5V8.5C21 8.22386 20.7761 8 20.5 8H19.5C19.2239 8 19 8.22386 19 8.5V9.5C19 9.77614 19.2239 10 19.5 10H20.5ZM21 5.5C21 5.77614 20.7761 6 20.5 6H19.5C19.2239 6 19 5.77614 19 5.5V4.5C19 4.22386 19.2239 4 19.5 4H20.5C20.7761 4 21 4.22386 21 4.5V5.5ZM14.59 18C14.7226 17.9984 14.8497 18.0529 14.94 18.15L15.15 18.35C15.2447 18.4439 15.2979 18.5717 15.2979 18.705C15.2979 18.8383 15.2447 18.9661 15.15 19.06L12.35 21.85C12.2593 21.9467 12.1326 22.0015 12 22.0015C11.8674 22.0015 11.7407 21.9467 11.65 21.85L8.85 19.06C8.65822 18.8622 8.65822 18.5478 8.85 18.35L9.06 18.15C9.15028 18.0529 9.2774 17.9984 9.41 18H14.59Z" fill="currentColor" fill-rule="evenodd" clip-rule="evenodd" />
</svg>
