<svg xmlns="http://www.w3.org/2000/svg" viewBox="0 0 24 24">
    <path d="M13.6832 4.50508C13.6832 3.67385 13.0315 3 12.2276 3C11.4237 3 10.7721 3.67385 10.7721 4.50508C10.7721 5.33631 11.4237 6.01016 12.2276 6.01016C13.0315 6.01016 13.6832 5.33631 13.6832 4.50508Z" fill="currentColor" />
    <path d="M6.85496 5.26337C7.65884 5.26337 8.31051 5.93722 8.31051 6.76845C8.31051 7.59969 7.65884 8.27353 6.85496 8.27353C6.05109 8.27353 5.39941 7.59969 5.39941 6.76845C5.39941 5.93722 6.05109 5.26337 6.85496 5.26337Z" fill="currentColor" />
    <path d="M6.40073 12.2981C6.40073 11.327 5.63945 10.5398 4.70036 10.5398C3.76128 10.5398 3 11.327 3 12.2981C3 13.2691 3.76128 14.0563 4.70036 14.0563C5.63945 14.0563 6.40073 13.2691 6.40073 12.2981Z" fill="currentColor" />
    <path d="M9.04304 17.8698C9.04304 16.622 8.06474 15.6104 6.85795 15.6104C5.65115 15.6104 4.67285 16.622 4.67285 17.8698C4.67285 19.1177 5.65115 20.1293 6.85795 20.1293C8.06474 20.1293 9.04304 19.1177 9.04304 17.8698Z" fill="currentColor" />
    <path d="M17.6006 5.26337C18.4044 5.26337 19.0561 5.93722 19.0561 6.76845C19.0561 7.59969 18.4044 8.27353 17.6006 8.27353C16.7967 8.27353 16.145 7.59969 16.145 6.76845C16.145 5.93722 16.7967 5.26337 17.6006 5.26337Z" fill="currentColor" />
    <path d="M21.0001 12.2982C21.0001 11.6049 20.4566 11.0429 19.7862 11.0429C19.1158 11.0429 18.5723 11.6049 18.5723 12.2982C18.5723 12.9914 19.1158 13.5534 19.7862 13.5534C20.4566 13.5534 21.0001 12.9914 21.0001 12.2982Z" fill="currentColor" />
    <path d="M17.601 16.8627C18.1374 16.8627 18.5722 17.3123 18.5722 17.8669C18.5722 18.4215 18.1374 18.8711 17.601 18.8711C17.0647 18.8711 16.6299 18.4215 16.6299 17.8669C16.6299 17.3123 17.0647 16.8627 17.601 16.8627Z" fill="currentColor" />
    <path d="M13.2496 20.1966C13.2496 19.753 12.9018 19.3933 12.4727 19.3933C12.0436 19.3933 11.6958 19.753 11.6958 20.1966C11.6958 20.6403 12.0436 21 12.4727 21C12.9018 21 13.2496 20.6403 13.2496 20.1966Z" fill="currentColor" />
</svg>
