<svg xmlns="http://www.w3.org/2000/svg" viewBox="0 0 24 24">
    <path d="M19.0001 6.9922V4.9961C19.0001 3.89369 18.1046 3.00001 17.0001 3.00001H7.00005C6.91346 2.99511 6.82665 2.99511 6.74005 3.00001L8.74005 4.9961H17.0001V6.9922H10.7101L18.7101 14.9766H20.5001C20.7762 14.9766 21.0001 14.7532 21.0001 14.4776V8.9883C21.0001 7.88588 20.1046 6.9922 19.0001 6.9922ZM4.03005 2.99849C4.16264 2.99849 4.28932 3.05323 4.38005 3.14971L20.8501 19.6175C20.9467 19.7081 21.0016 19.8345 21.0016 19.9668C21.0016 20.0992 20.9467 20.2256 20.8501 20.3161L20.3201 20.8451C20.2293 20.9416 20.1026 20.9963 19.9701 20.9963C19.8375 20.9963 19.7108 20.9416 19.6201 20.8451L18.7401 19.9668C18.3814 20.5869 17.7174 20.9677 17.0001 20.9649H7.00005C5.89548 20.9649 5.00005 20.0712 5.00005 18.9688V14.9766H3.50005C3.22391 14.9766 3.00005 14.7532 3.00005 14.4776V8.9883C3.00005 7.88588 3.89548 6.9922 5.00005 6.9922V6.23368L3.15005 4.37731C3.05338 4.28676 2.99854 4.16032 2.99854 4.028C2.99854 3.89567 3.05338 3.76924 3.15005 3.67868L3.68005 3.14971C3.77079 3.05323 3.89747 2.99849 4.03005 2.99849ZM7.00005 18.9688H17.0001V18.2103L11.7601 12.9805H7.00005V18.9688ZM18.5001 10.9844C18.7762 10.9844 19.0001 10.761 19.0001 10.4854V9.48732C19.0001 9.21172 18.7762 8.9883 18.5001 8.9883H17.5001C17.2239 8.9883 17.0001 9.21172 17.0001 9.48732V10.4854C17.0001 10.761 17.2239 10.9844 17.5001 10.9844H18.5001Z" fill="currentColor" fill-rule="evenodd" clip-rule="evenodd" />
</svg>
