<svg xmlns="http://www.w3.org/2000/svg" viewBox="0 0 24 24">
    <path d="M11.4801 7.99997C14.0514 7.95906 16.5462 8.87499 18.4801 10.57L20.9001 8.14997C20.9819 8.06411 21.0921 8.01082 21.2101 7.99997H21.5001C21.7763 7.99997 22.0001 8.22383 22.0001 8.49997V15.5C22.0001 15.7761 21.7763 16 21.5001 16H14.5001C14.224 16 14.0001 15.7761 14.0001 15.5V15.21C13.9982 15.0744 14.0525 14.944 14.1501 14.85L16.6701 12.33C15.2154 11.1176 13.3736 10.4682 11.4801 10.5C7.81014 10.5 4.79014 12.73 4.48014 15.55C4.45961 15.8011 4.25203 15.9957 4.00014 16H2.50014C2.3603 16.0004 2.22666 15.9423 2.13166 15.8397C2.03665 15.7371 1.98895 15.5994 2.00014 15.46C2.33014 11.29 6.45014 7.99997 11.4801 7.99997Z" fill="currentColor" />
</svg>
