<svg xmlns="http://www.w3.org/2000/svg" viewBox="0 0 24 24">
    <path d="M18.73 6.69001L13.41 12L18.72 17.32L20.14 15.9C20.2829 15.7599 20.4954 15.7185 20.6804 15.7947C20.8654 15.8709 20.9872 16.05 20.99 16.25V20.5C20.9797 20.7718 20.7618 20.9897 20.49 21H16.25C16.0482 21.0012 15.8654 20.8809 15.7867 20.695C15.7079 20.5091 15.7487 20.2942 15.89 20.15L17.31 18.73L12 13.41L6.68001 18.72L8.10001 20.14C8.24007 20.2829 8.2815 20.4954 8.20533 20.6804C8.12915 20.8654 7.95005 20.9872 7.75001 20.99H3.50001C3.22823 20.9797 3.01028 20.7618 3.00001 20.49V16.25C2.99882 16.0482 3.11913 15.8654 3.305 15.7867C3.49088 15.7079 3.70586 15.7487 3.85001 15.89L5.27001 17.31L10.59 12L5.28001 6.68001L3.86001 8.10001C3.71812 8.24722 3.5009 8.29322 3.31152 8.21615C3.12214 8.13908 2.99877 7.95447 3.00001 7.75001V3.50001C3.01028 3.22823 3.22823 3.01028 3.50001 3.00001H7.75001C7.95186 2.99882 8.13463 3.11913 8.21336 3.305C8.29208 3.49088 8.25131 3.70586 8.11001 3.85001L6.69001 5.27001L12 10.59L17.32 5.28001L15.9 3.86001C15.7528 3.71812 15.7068 3.5009 15.7839 3.31152C15.8609 3.12214 16.0456 2.99877 16.25 3.00001H20.5C20.7718 3.01028 20.9897 3.22823 21 3.50001V7.75001C21.0012 7.95186 20.8809 8.13463 20.695 8.21336C20.5091 8.29208 20.2942 8.25131 20.15 8.11001L18.73 6.69001Z" fill="currentColor" />
</svg>
