<svg xmlns="http://www.w3.org/2000/svg" viewBox="0 0 24 24">
    <path d="M16.17 3C16.703 2.99958 17.2142 3.21196 17.59 3.59L20.41 6.41C20.788 6.7858 21.0004 7.29696 21 7.83V19C21 20.1046 20.1046 21 19 21H5C3.89543 21 3 20.1046 3 19V5C3 3.89543 3.89543 3 5 3H16.17ZM9 5V6.5C9 6.77614 9.22386 7 9.5 7H14.5C14.7761 7 15 6.77614 15 6.5V5H9ZM17 19H7V11.5C7 11.2239 7.22386 11 7.5 11H16.5C16.7761 11 17 11.2239 17 11.5V19ZM9.5 15H14.5C14.7761 15 15 15.2239 15 15.5V16.5C15 16.7761 14.7761 17 14.5 17H9.5C9.22386 17 9 16.7761 9 16.5V15.5C9 15.2239 9.22386 15 9.5 15Z" fill="currentColor" fill-rule="evenodd" clip-rule="evenodd" />
</svg>
