<svg xmlns="http://www.w3.org/2000/svg" viewBox="0 0 24 24">
    <path d="M12.9999 21C17.9704 21 21.9999 16.9706 21.9999 12C21.9999 7.02944 17.9704 3 12.9999 3C8.02929 3 3.99985 7.02944 3.99985 12H1.70985C1.57427 11.998 1.44393 12.0523 1.34985 12.15L1.14985 12.35C1.0552 12.4439 1.00195 12.5717 1.00195 12.705C1.00195 12.8383 1.0552 12.9661 1.14985 13.06L4.67985 16.6C4.87767 16.7918 5.19204 16.7918 5.38985 16.6L8.91985 13.06C9.01451 12.9661 9.06775 12.8383 9.06775 12.705C9.06775 12.5717 9.01451 12.4439 8.91985 12.35L8.71985 12.15C8.62578 12.0523 8.49544 11.998 8.35985 12H5.99985C5.99985 8.13401 9.13386 5 12.9999 5C16.8658 5 19.9999 8.13401 19.9999 12C19.9999 15.866 16.8658 19 12.9999 19C11.6176 19.0036 10.2661 18.5925 9.11985 17.82C8.9223 17.6876 8.65887 17.7127 8.48985 17.88L7.76985 18.61C7.66898 18.7136 7.61792 18.8559 7.62985 19C7.64261 19.148 7.7193 19.2831 7.83985 19.37C9.34868 20.4363 11.1523 21.0061 12.9999 21ZM12.9999 10C14.1044 10 14.9999 10.8954 14.9999 12C14.9999 13.1046 14.1044 14 12.9999 14C11.8953 14 10.9999 13.1046 10.9999 12C10.9999 10.8954 11.8953 10 12.9999 10Z" fill="currentColor" fill-rule="evenodd" clip-rule="evenodd" />
</svg>
