<svg xmlns="http://www.w3.org/2000/svg" viewBox="0 0 24 24">
    <path d="M9 18.5V17.5C9 17.2239 8.77614 17 8.5 17H3.5C3.22386 17 3 17.2239 3 17.5V18.5C3 18.7761 3.22386 19 3.5 19H8.5C8.77614 19 9 18.7761 9 18.5ZM15 11.5V12.5C15 12.7761 14.7761 13 14.5 13H3.5C3.22386 13 3 12.7761 3 12.5V11.5C3 11.2239 3.22386 11 3.5 11H14.5C14.7761 11 15 11.2239 15 11.5ZM20.5 5H3.5C3.22386 5 3 5.22386 3 5.5V6.5C3 6.77614 3.22386 7 3.5 7H20.5C20.7761 7 21 6.77614 21 6.5V5.5C21 5.22386 20.7761 5 20.5 5Z" fill="currentColor" fill-rule="evenodd" clip-rule="evenodd" />
</svg>
