<svg xmlns="http://www.w3.org/2000/svg" viewBox="0 0 24 24">
    <path d="M10 5H20.5C20.6326 5 20.7598 5.05268 20.8536 5.14645C20.9473 5.24021 21 5.36739 21 5.5V6.5C21 6.77614 20.7761 7 20.5 7H10C7.23858 7 5 9.23858 5 12C5 14.7614 7.23858 17 10 17V15C9.99881 14.7981 10.1191 14.6154 10.305 14.5367C10.4909 14.4579 10.7058 14.4987 10.85 14.64L13.85 17.64C14.0418 17.8378 14.0418 18.1522 13.85 18.35L10.85 21.35C10.7071 21.4901 10.4946 21.5315 10.3096 21.4553C10.1246 21.3791 10.0028 21.2 10 21V19C6.13401 19 3 15.866 3 12C3 8.13401 6.13401 5 10 5ZM7.5 11H20.5C20.7761 11 21 11.2239 21 11.5V12.5C21 12.7761 20.7761 13 20.5 13H7.5C7.22386 13 7 12.7761 7 12.5V11.5C7 11.2239 7.22386 11 7.5 11ZM20.5 17H16.5C16.2239 17 16 17.2239 16 17.5V18.5C16 18.7761 16.2239 19 16.5 19H20.5C20.7761 19 21 18.7761 21 18.5V17.5C21 17.2239 20.7761 17 20.5 17Z" fill="currentColor" fill-rule="evenodd" clip-rule="evenodd" />
</svg>
