<svg xmlns="http://www.w3.org/2000/svg" viewBox="0 0 24 24">
    <path d="M16.0049 7.99805H17.0049C17.281 7.99805 17.5049 8.22198 17.5049 8.4982V18.003H19.5049C19.7049 18.0058 19.884 18.1276 19.9602 18.3127C20.0364 18.4977 19.995 18.7103 19.8549 18.8532L16.8549 21.8542C16.6571 22.046 16.3427 22.046 16.1449 21.8542L13.1449 18.8532C13.0036 18.709 12.9628 18.494 13.0416 18.3081C13.1203 18.1221 13.303 18.0018 13.5049 18.003H15.5049V8.4982C15.5049 8.22198 15.7288 7.99805 16.0049 7.99805Z" fill="currentColor" />
    <path d="M7.0049 15.998H8.0049C8.28105 15.998 8.5049 15.7741 8.5049 15.4979V5.99312H10.5049C10.7049 5.9903 10.884 5.86849 10.9602 5.68344C11.0364 5.4984 10.995 5.28575 10.8549 5.14285L7.8549 2.14193C7.65709 1.95009 7.34272 1.95009 7.1449 2.14193L4.1449 5.14285C4.0036 5.28705 3.96283 5.5021 4.04156 5.68803C4.12028 5.87396 4.30305 5.9943 4.5049 5.99312H6.5049L6.5049 15.4979C6.5049 15.7741 6.72876 15.998 7.0049 15.998Z" fill="currentColor" />
</svg>
