<svg xmlns="http://www.w3.org/2000/svg" viewBox="0 0 24 24">
    <path d="M4.38334 3.15005L20.8459 19.6201C20.9439 19.7094 21.0005 19.8353 21.0024 19.9679C21.0043 20.1005 20.9513 20.2279 20.8559 20.3201L20.3262 20.8501C20.2355 20.9467 20.1088 21.0016 19.9763 21.0016C19.8438 21.0016 19.7172 20.9467 19.6265 20.8501L16.9977 18.2301C16.0042 19.0098 14.8391 19.5412 13.5992 19.7801C13.4514 19.8078 13.2988 19.7715 13.1794 19.6801C13.0671 19.5813 13.0017 19.4396 12.9995 19.2901V18.2901C13.0009 18.0596 13.1566 17.8588 13.3793 17.8001C14.1662 17.619 14.9078 17.2786 15.5583 16.8001L7.20207 8.43005C5.24625 11.0237 5.7361 14.7081 8.30157 16.7001L9.85087 15.1501C9.94491 15.0524 10.0752 14.9981 10.2107 15.0001H10.5006C10.7766 15.0001 11.0004 15.2239 11.0004 15.5001V20.5001C11.0004 20.7762 10.7766 21.0001 10.5006 21.0001H5.50283C5.22682 21.0001 5.00306 20.7762 5.00306 20.5001V20.2101C5.00109 20.0745 5.05538 19.9441 5.15299 19.8501L6.87222 18.1201C3.55016 15.3261 3.0622 10.3911 5.77271 7.00005L3.15389 4.38005C3.05726 4.28932 3.00244 4.16264 3.00244 4.03005C3.00244 3.89747 3.05726 3.77079 3.15389 3.68005L3.68365 3.15005C3.77435 3.05338 3.90097 2.99854 4.0335 2.99854C4.16602 2.99854 4.29265 3.05338 4.38334 3.15005ZM13.4992 9.00005H13.7891C13.9246 9.00202 14.0549 8.94771 14.1489 8.85005L15.6982 7.30005C17.7136 8.86805 18.5159 11.5407 17.6973 13.9601L19.2267 15.4901C20.8229 12.188 19.9701 8.22301 17.1576 5.87005L18.8768 4.15005C18.9635 4.05104 19.0067 3.9213 18.9968 3.79005V3.50005C18.9968 3.22391 18.773 3.00005 18.497 3.00005H13.4992C13.2232 3.00005 12.9995 3.22391 12.9995 3.50005V8.50005C12.9995 8.7762 13.2232 9.00005 13.4992 9.00005ZM10.0508 6.34005L8.52147 4.81005C9.11714 4.5153 9.74893 4.30013 10.4006 4.17005C10.5484 4.14227 10.701 4.17862 10.8204 4.27005C10.9327 4.36883 10.9981 4.51048 11.0004 4.66005V5.66005C10.9989 5.89048 10.8432 6.09132 10.6205 6.15005C10.5256 6.18505 10.4306 6.21505 10.3357 6.24505L10.3357 6.24505C10.2407 6.27505 10.1457 6.30505 10.0508 6.34005Z" fill="currentColor" fill-rule="evenodd" clip-rule="evenodd" />
</svg>
