<svg xmlns="http://www.w3.org/2000/svg" viewBox="0 0 24 24">
    <path d="M12 1.70985C12.002 1.57427 11.9476 1.44393 11.8498 1.34985L11.6496 1.14985C11.5557 1.0552 11.4277 1.00195 11.2943 1.00195C11.1608 1.00195 11.0329 1.0552 10.9389 1.14985L7.39528 4.67985C7.2033 4.87767 7.2033 5.19204 7.39528 5.38985L10.9389 8.91985C11.0329 9.01451 11.1608 9.06775 11.2943 9.06775C11.4277 9.06775 11.5557 9.01451 11.6496 8.91985L11.8498 8.71985C11.9476 8.62578 12.002 8.49544 12 8.35985V5.99985C15.3171 5.99985 18.0062 8.68614 18.0062 11.9999C18.0064 12.9689 17.7692 13.9233 17.3154 14.7799C17.2118 14.9748 17.2484 15.2146 17.4055 15.3699L18.1363 16.0999C18.247 16.2093 18.4024 16.2611 18.5567 16.2399C18.7097 16.2187 18.8454 16.1308 18.9271 15.9999C20.3569 13.5259 20.3577 10.4781 18.9292 8.0034C17.5006 5.52873 14.8596 4.00278 12 3.99985V1.70985ZM12.7057 14.932C12.8392 14.932 12.9671 14.9852 13.0611 15.0799L16.6047 18.6099C16.7967 18.8077 16.7967 19.122 16.6047 19.3199L13.0611 22.8499C12.9671 22.9445 12.8392 22.9978 12.7057 22.9978C12.5723 22.9978 12.4443 22.9445 12.3504 22.8499L12.1502 22.6499C12.0524 22.5558 11.998 22.4254 12 22.2899V19.9999C9.14041 19.9969 6.49937 18.471 5.07084 15.9963C3.64232 13.5216 3.6431 10.4738 5.0729 7.99985C5.1502 7.86129 5.28658 7.76555 5.44328 7.73985C5.59759 7.71862 5.75301 7.77037 5.86371 7.87985L6.60447 8.61985C6.75858 8.7766 6.79488 9.01433 6.69456 9.20985C6.23139 10.0668 5.99048 11.026 5.99384 11.9999C5.99384 15.3136 8.68289 17.9999 12 17.9999V15.6399C11.998 15.5043 12.0524 15.3739 12.1502 15.2799L12.3504 15.0799C12.4443 14.9852 12.5723 14.932 12.7057 14.932Z" fill="currentColor" fill-rule="evenodd" clip-rule="evenodd" />
</svg>
