<svg xmlns="http://www.w3.org/2000/svg" viewBox="0 0 24 24">
    <path d="M12 3C11.8674 3 11.7407 3.05484 11.65 3.15152L5.86 8.94152C5.76534 9.0354 5.7121 9.1632 5.7121 9.29652C5.7121 9.42984 5.76534 9.55763 5.86 9.65152L6.06 9.85152C6.15408 9.94918 6.28441 10.0035 6.42 10.0015H9V15.5015C9 15.7777 9.22386 16.0015 9.5 16.0015H14.5C14.7761 16.0015 15 15.7777 15 15.5015V10.0015H17.58C17.7156 10.0035 17.8459 9.94918 17.94 9.85152L18.14 9.65152C18.2347 9.55763 18.2879 9.42984 18.2879 9.29652C18.2879 9.1632 18.2347 9.0354 18.14 8.94152L12.35 3.15152C12.2593 3.05484 12.1326 3 12 3ZM19 19.5V18.5C19 18.2239 18.7761 18 18.5 18H5.5C5.22386 18 5 18.2239 5 18.5V19.5C5 19.7761 5.22386 20 5.5 20H18.5C18.7761 20 19 19.7761 19 19.5Z" fill="currentColor" fill-rule="evenodd" clip-rule="evenodd" />
</svg>
