<svg xmlns="http://www.w3.org/2000/svg" viewBox="0 0 24 24">
    <path d="M7.99343 3H15.986C17.0896 3 17.9842 3.89543 17.9842 5V19C17.9842 20.1046 17.0896 21 15.986 21H7.99343C6.88988 21 5.99528 20.1046 5.99528 19V5C5.99528 3.89543 6.88988 3 7.99343 3ZM7.99343 19H15.986V5H7.99343V19ZM3.11795 7.27C3.05832 7.15202 2.95359 7.06316 2.82754 7.02362C2.70149 6.98407 2.56482 6.99719 2.44857 7.06L1.5594 7.52C1.43979 7.57788 1.34881 7.68194 1.30736 7.80828C1.26592 7.93463 1.27755 8.07241 1.3396 8.19L1.99899 9.49L1.08984 11.24C1.02627 11.3848 0.995557 11.5419 0.999919 11.7V12.28C0.999276 12.4399 1.03696 12.5977 1.10982 12.74L1.99899 14.5L1.31962 15.81C1.19478 16.0532 1.28824 16.3516 1.52943 16.48L2.4186 16.94C2.6645 17.0659 2.9658 16.9727 3.09797 16.73L3.86726 15.24C3.94707 15.0994 3.99163 14.9416 3.99714 14.78V14.21C3.99778 14.0501 3.96009 13.8923 3.88724 13.75L2.99806 12L3.90722 10.25C3.97475 10.1029 4.00561 9.94164 3.99714 9.78V9.21C3.99778 9.05008 3.96009 8.89233 3.88724 8.75L3.11795 7.27ZM21.9804 9.49L22.8696 11.27V11.24C22.947 11.3816 22.9914 11.5388 22.9995 11.7V12.28C23.0001 12.4399 22.9625 12.5977 22.8896 12.74L21.9804 14.5L22.6199 15.82C22.7447 16.0632 22.6512 16.3616 22.4101 16.49L21.5209 16.95C21.275 17.0759 20.9737 16.9827 20.8415 16.74L20.0722 15.25C19.9994 15.1077 19.9617 14.9499 19.9623 14.79V14.22C19.9617 14.0601 19.9994 13.9023 20.0722 13.76L20.9814 12L20.1122 10.24C20.0393 10.0977 20.0016 9.93992 20.0023 9.78V9.21C20.0016 9.05008 20.0393 8.89233 20.1122 8.75L20.8815 7.27C20.9411 7.15202 21.0458 7.06316 21.1719 7.02362C21.2979 6.98407 21.4346 6.99719 21.5508 7.06L22.44 7.52C22.5596 7.57788 22.6506 7.68194 22.6921 7.80828C22.7335 7.93463 22.7219 8.07241 22.6598 8.19L21.9804 9.49Z" fill="currentColor" fill-rule="evenodd" clip-rule="evenodd" />
</svg>
