<svg xmlns="http://www.w3.org/2000/svg" viewBox="0 0 24 24">
    <path d="M18 2H6C4.89543 2 4 2.89543 4 4V20C4 21.1046 4.89543 22 6 22H10.0952C9.50984 21.4257 9.02488 20.7495 8.66908 20H6V4H18V10.6691C18.7495 11.0249 19.4257 11.5098 20 12.0952V4C20 2.89543 19.1046 2 18 2Z" fill="currentColor" />
    <path d="M12.9576 10.2983C12.8801 10.1226 12.7044 10 12.5 10H8.5C8.22386 10 8 10.2239 8 10.5V11.5C8 11.7761 8.22386 12 8.5 12H10.0951C10.8886 11.2214 11.8667 10.6303 12.9576 10.2983Z" fill="currentColor" />
    <path d="M15.5 8H8.5C8.22386 8 8 7.77614 8 7.5V6.5C8 6.22386 8.22386 6 8.5 6H15.5C15.7761 6 16 6.22386 16 6.5V7.5C16 7.77614 15.7761 8 15.5 8Z" fill="currentColor" />
    <path d="M17.7661 21.1658C16.9739 21.6929 16.0228 22 15 22C12.2386 22 10 19.7614 10 17C10 14.2386 12.2386 12 15 12C17.7614 12 20 14.2386 20 17C20 18.0207 19.6942 18.9699 19.1692 19.7611L20.8626 21.4574C21.0495 21.6538 21.045 21.9639 20.8527 22.155L20.1563 22.8525C20.0629 22.9468 19.9358 22.9999 19.8031 22.9999C19.6705 22.9999 19.5434 22.9468 19.45 22.8525L17.7661 21.1658ZM18 17C18 18.6569 16.6569 20 15 20C13.3431 20 12 18.6569 12 17C12 15.3431 13.3431 14 15 14C16.6569 14 18 15.3431 18 17Z" fill="currentColor" fill-rule="evenodd" clip-rule="evenodd" />
    <path d="M15 17H11V16L13 13H15V17Z" fill="currentColor" />
</svg>
