<svg xmlns="http://www.w3.org/2000/svg" viewBox="0 0 24 24">
    <path d="M21.8498 20.1524L21.1498 20.8521C21.0559 20.9468 20.9281 21 20.7948 21C20.6615 21 20.5337 20.9468 20.4398 20.8521L16.4398 16.8535C16.3292 16.7428 16.2287 16.6224 16.1398 16.4936L15.3898 15.4939C14.1408 16.4817 12.5923 17.0141 10.9998 17.0034C9.96062 17.0019 8.93518 16.7662 7.99979 16.3137C7.85723 16.2623 7.74647 16.1479 7.69979 16.0038C7.67359 15.8432 7.7256 15.6798 7.83979 15.5639L8.59979 14.8042C8.74278 14.6651 8.95377 14.6221 9.13979 14.6942C11.175 15.5094 13.5041 14.9041 14.8844 13.2012C16.2647 11.4983 16.3741 9.09504 15.1543 7.27376C13.9346 5.45248 11.6702 4.63807 9.56926 5.26504C7.46837 5.89202 6.02116 7.8141 5.99979 10.0058H7.74979C7.94982 10.0086 8.12893 10.1303 8.2051 10.3153C8.28127 10.5002 8.23985 10.7127 8.09979 10.8555L5.35979 13.6046C5.16197 13.7963 4.8476 13.7963 4.64979 13.6046L1.89979 10.8555C1.75848 10.7114 1.71772 10.4965 1.79644 10.3107C1.87516 10.1249 2.05793 10.0046 2.25979 10.0058H3.99979C3.99645 6.92625 6.00742 4.2065 8.95341 3.30623C11.8994 2.40597 15.0879 3.53681 16.8076 6.09185C18.5272 8.64688 18.3739 12.0255 16.4298 14.4143L17.4298 15.1041C17.586 15.204 17.7302 15.3214 17.8598 15.454L21.8598 19.4526C22.0476 19.6497 22.0432 19.9608 21.8498 20.1524Z" fill="currentColor" />
</svg>
