<svg xmlns="http://www.w3.org/2000/svg" viewBox="0 0 24 24">
    <path d="M12 22C17.5228 22 22 17.5228 22 12C22 6.47715 17.5228 2 12 2C6.47715 2 2 6.47715 2 12C2 17.5228 6.47715 22 12 22ZM12.4406 16.555C12.5239 16.555 12.6038 16.5217 12.6625 16.4626L16.9062 12.2188C16.9667 12.1621 17.0009 12.083 17.0009 12.0001C17.0009 11.9172 16.9667 11.838 16.9062 11.7813L12.6625 7.53759C12.6038 7.47843 12.5239 7.44515 12.4406 7.44515C12.3573 7.44515 12.2774 7.47843 12.2188 7.53759L12.0938 7.66259C12.0327 7.72138 11.9988 7.80285 12 7.88759V10.1251H7.3125C7.13991 10.1251 7 10.265 7 10.4376V13.5626C7 13.7352 7.13991 13.8751 7.3125 13.8751H12V16.1126C11.9988 16.1973 12.0327 16.2788 12.0938 16.3376L12.2188 16.4626C12.2774 16.5217 12.3573 16.555 12.4406 16.555Z" fill="currentColor" fill-rule="evenodd" clip-rule="evenodd" />
</svg>
