<svg xmlns="http://www.w3.org/2000/svg" viewBox="0 0 24 24">
    <path d="M4.85981 13.06C4.76516 12.9661 4.71191 12.8383 4.71191 12.705C4.71191 12.5717 4.76516 12.4439 4.85981 12.35L5.05981 12.15C5.15389 12.0523 5.28423 11.998 5.41981 12H8.99981V4.5C8.99981 4.22386 9.22367 4 9.49981 4H14.4998C14.776 4 14.9998 4.22386 14.9998 4.5V12H18.5798C18.7154 11.998 18.8457 12.0523 18.9398 12.15L19.1398 12.35C19.2345 12.4439 19.2877 12.5717 19.2877 12.705C19.2877 12.8383 19.2345 12.9661 19.1398 13.06L12.3498 19.85C12.2591 19.9467 12.1324 20.0015 11.9998 20.0015C11.8672 20.0015 11.7405 19.9467 11.6498 19.85L4.85981 13.06Z" fill="currentColor" />
</svg>
