<svg xmlns="http://www.w3.org/2000/svg" viewBox="0 0 24 24">
    <path d="M19.1398 10.9401C19.2345 11.0339 19.2877 11.1617 19.2877 11.2951C19.2877 11.4284 19.2345 11.5562 19.1398 11.6501L18.9398 11.8501C18.8457 11.9477 18.7154 12.002 18.5798 12.0001H14.9998V19.5001C14.9998 19.7762 14.776 20.0001 14.4998 20.0001H9.49981C9.22367 20.0001 8.99981 19.7762 8.99981 19.5001V12.0001H5.41981C5.28423 12.002 5.15389 11.9477 5.05981 11.8501L4.85981 11.6501C4.76516 11.5562 4.71191 11.4284 4.71191 11.2951C4.71191 11.1617 4.76516 11.0339 4.85981 10.9401L11.6498 4.15005C11.7405 4.05338 11.8672 3.99854 11.9998 3.99854C12.1324 3.99854 12.2591 4.05338 12.3498 4.15005L19.1398 10.9401Z" fill="currentColor" />
</svg>
