<svg xmlns="http://www.w3.org/2000/svg" viewBox="0 0 24 24">
    <path d="M12.993 18.0037H14.993C15.1948 18.0025 15.3776 18.1229 15.4563 18.3089C15.5351 18.4949 15.4943 18.71 15.353 18.8542L12.353 21.8561C12.1552 22.048 11.8408 22.048 11.643 21.8561L8.64299 18.8542C8.50293 18.7113 8.4615 18.4986 8.53767 18.3135C8.61385 18.1284 8.79295 18.0065 8.99299 18.0037H10.993V5.9963H8.99299C8.79295 5.99349 8.61385 5.87164 8.53767 5.68653C8.4615 5.50143 8.50293 5.28871 8.64299 5.14578L11.643 2.14393C11.8408 1.95202 12.1552 1.95202 12.353 2.14393L15.353 5.14578C15.4943 5.29002 15.5351 5.50513 15.4563 5.69112C15.3776 5.87711 15.1948 5.99749 14.993 5.9963H12.993V18.0037Z" fill="currentColor" />
</svg>
