<svg xmlns="http://www.w3.org/2000/svg" viewBox="0 0 24 24">
    <path d="M12.4999 2C12.776 2 12.9999 2.22386 12.9999 2.5V18.67L17.4399 14.22C17.5337 14.1253 17.6615 14.0721 17.7949 14.0721C17.9282 14.0721 18.056 14.1253 18.1499 14.22L18.8499 14.93C18.9445 15.0239 18.9978 15.1517 18.9978 15.285C18.9978 15.4183 18.9445 15.5461 18.8499 15.64L12.7199 21.78C12.5793 21.9207 12.3887 21.9998 12.1899 22H11.8099C11.6114 21.9977 11.4216 21.9189 11.2799 21.78L5.14985 15.64C5.0552 15.5461 5.00195 15.4183 5.00195 15.285C5.00195 15.1517 5.0552 15.0239 5.14985 14.93L5.85985 14.22C5.95202 14.1259 6.07816 14.0729 6.20985 14.0729C6.34154 14.0729 6.46769 14.1259 6.55985 14.22L10.9999 18.67V2.5C10.9999 2.22386 11.2237 2 11.4999 2H12.4999Z" fill="currentColor" />
</svg>
