<svg xmlns="http://www.w3.org/2000/svg" viewBox="0 0 24 24">
    <path d="M12 22C17.5228 22 22 17.5228 22 12C22 6.47715 17.5228 2 12 2C6.47715 2 2 6.47715 2 12C2 17.5228 6.47715 22 12 22ZM16.5554 11.5601C16.5554 11.4768 16.5221 11.3969 16.463 11.3382L12.2192 7.09447C12.1625 7.03405 12.0833 6.99977 12.0005 6.99977C11.9176 6.99977 11.8384 7.03405 11.7817 7.09447L7.53797 11.3382C7.47881 11.3969 7.44554 11.4768 7.44554 11.5601C7.44554 11.6434 7.47881 11.7233 7.53797 11.782L7.66297 11.907C7.72177 11.968 7.80323 12.002 7.88797 12.0007H10.1255V16.6882C10.1255 16.8608 10.2654 17.0007 10.438 17.0007H13.563C13.7356 17.0007 13.8755 16.8608 13.8755 16.6882V12.0007H16.113C16.1977 12.002 16.2792 11.968 16.338 11.907L16.463 11.782C16.5221 11.7233 16.5554 11.6434 16.5554 11.5601Z" fill="currentColor" fill-rule="evenodd" clip-rule="evenodd" />
</svg>
