<svg xmlns="http://www.w3.org/2000/svg" viewBox="0 0 24 24">
    <path d="M12 22C17.5228 22 22 17.5228 22 12C22 6.47715 17.5228 2 12 2C6.47715 2 2 6.47715 2 12C2 17.5228 6.47715 22 12 22ZM7.44531 12.4402C7.44531 12.5235 7.47859 12.6034 7.53775 12.662L11.7815 16.9058C11.8382 16.9662 11.9174 17.0005 12.0002 17.0005C12.0831 17.0005 12.1623 16.9662 12.219 16.9058L16.4627 12.662C16.5219 12.6034 16.5552 12.5235 16.5552 12.4402C16.5552 12.3568 16.5219 12.277 16.4627 12.2183L16.3377 12.0933C16.279 12.0323 16.1975 11.9983 16.1127 11.9995H13.8752V7.31204C13.8752 7.13945 13.7353 6.99954 13.5627 6.99954H10.4377C10.2652 6.99954 10.1252 7.13945 10.1252 7.31204V11.9995H7.88775C7.80301 11.9983 7.72155 12.0323 7.66275 12.0933L7.53775 12.2183C7.47859 12.277 7.44531 12.3568 7.44531 12.4402Z" fill="currentColor" fill-rule="evenodd" clip-rule="evenodd" />
</svg>
