<svg xmlns="http://www.w3.org/2000/svg" viewBox="0 0 24 24">
    <path d="M17.499 19.999C17.7752 19.999 17.999 19.7752 17.999 19.499L17.999 18.499C17.999 18.2229 17.7752 17.999 17.499 17.999L12.999 17.999L12.999 5.32902L16.439 8.76902C16.5312 8.86309 16.6573 8.91609 16.789 8.91609C16.9207 8.91609 17.0469 8.86309 17.139 8.76902L17.849 8.05902C17.9437 7.96514 17.9969 7.83734 17.9969 7.70402C17.9969 7.5707 17.9437 7.44291 17.849 7.34902L12.719 2.21902C12.5773 2.08014 12.3874 2.00133 12.189 1.99902L11.809 1.99902C11.6102 1.9992 11.4195 2.07833 11.279 2.21902L6.14902 7.35902C6.05437 7.45291 6.00112 7.5807 6.00112 7.71402C6.00112 7.84734 6.05437 7.97514 6.14902 8.06902L6.84902 8.77902C6.94291 8.87368 7.0707 8.92692 7.20402 8.92692C7.33734 8.92692 7.46514 8.87368 7.55902 8.77902L10.999 5.32902L10.999 17.999C10.999 19.1036 11.8945 19.999 12.999 19.999L17.499 19.999Z" fill="currentColor" />
</svg>
