<svg xmlns="http://www.w3.org/2000/svg" viewBox="0 0 24 24">
    <path d="M13.06 19.1398C12.9661 19.2345 12.8383 19.2877 12.705 19.2877C12.5717 19.2877 12.4439 19.2345 12.35 19.1398L12.15 18.9398C12.0523 18.8457 11.998 18.7154 12 18.5798V14.9998H4.5C4.22386 14.9998 4 14.776 4 14.4998V9.49981C4 9.22367 4.22386 8.99981 4.5 8.99981H12V5.41981C11.998 5.28423 12.0523 5.15389 12.15 5.05981L12.35 4.85981C12.4439 4.76516 12.5717 4.71191 12.705 4.71191C12.8383 4.71191 12.9661 4.76516 13.06 4.85981L19.85 11.6498C19.9467 11.7405 20.0015 11.8672 20.0015 11.9998C20.0015 12.1324 19.9467 12.2591 19.85 12.3498L13.06 19.1398Z" fill="currentColor" />
</svg>
