<svg xmlns="http://www.w3.org/2000/svg" viewBox="0 0 24 24">
    <path d="M2 12C2 6.47715 6.47715 2 12 2C14.6522 2 17.1957 3.05357 19.0711 4.92893C20.9464 6.8043 22 9.34784 22 12C22 17.5228 17.5228 22 12 22C6.47715 22 2 17.5228 2 12ZM12.36 13.85L15.36 10.85C15.5013 10.7058 15.5421 10.4909 15.4633 10.305C15.3846 10.1191 15.2019 9.99881 15 10H9C8.79996 10.0028 8.62086 10.1246 8.54468 10.3096C8.46851 10.4946 8.50994 10.7071 8.65 10.85L11.65 13.85C11.8478 14.0418 12.1622 14.0418 12.36 13.85Z" fill="currentColor" fill-rule="evenodd" clip-rule="evenodd" />
</svg>
