<svg xmlns="http://www.w3.org/2000/svg" viewBox="0 0 24 24">
    <path d="M12 2C6.47715 2 2 6.47715 2 12C2 17.5228 6.47715 22 12 22C17.5228 22 22 17.5228 22 12C22 9.34784 20.9464 6.8043 19.0711 4.92893C17.1957 3.05357 14.6522 2 12 2ZM12 4C16.4183 4 20 7.58172 20 12C20 16.4183 16.4183 20 12 20C7.58172 20 4 16.4183 4 12C4 7.58172 7.58172 4 12 4ZM8.53665 10.305C8.61538 10.1191 8.79815 9.99881 9 10H15C15.2 10.0028 15.3791 10.1246 15.4553 10.3096C15.5315 10.4946 15.4901 10.7071 15.35 10.85L12.35 13.85C12.1522 14.0418 11.8378 14.0418 11.64 13.85L8.64 10.85C8.4987 10.7058 8.45793 10.4909 8.53665 10.305Z" fill="currentColor" fill-rule="evenodd" clip-rule="evenodd" />
</svg>
