<svg xmlns="http://www.w3.org/2000/svg" viewBox="0 0 24 24">
    <path d="M12 2C6.47715 2 2 6.47715 2 12C2 17.5228 6.47715 22 12 22C17.5228 22 22 17.5228 22 12C22 9.34784 20.9464 6.8043 19.0711 4.92893C17.1957 3.05357 14.6522 2 12 2ZM12 4C16.4183 4 20 7.58172 20 12C20 16.4183 16.4183 20 12 20C7.58172 20 4 16.4183 4 12C4 7.58172 7.58172 4 12 4ZM12.695 8.53665C12.8809 8.61538 13.0012 8.79815 13 9V15C12.9972 15.2 12.8754 15.3791 12.6904 15.4553C12.5054 15.5315 12.2929 15.4901 12.15 15.35L9.15 12.35C8.95822 12.1522 8.95822 11.8378 9.15 11.64L12.15 8.64C12.2942 8.4987 12.5091 8.45793 12.695 8.53665Z" fill="currentColor" fill-rule="evenodd" clip-rule="evenodd" />
</svg>
