<svg xmlns="http://www.w3.org/2000/svg" viewBox="0 0 24 24">
    <path d="M12 2C17.5228 2 22 6.47715 22 12C22 17.5228 17.5228 22 12 22C6.47715 22 2 17.5228 2 12C2 6.47715 6.47715 2 12 2ZM9.15 12.36L12.15 15.36C12.2942 15.5013 12.5091 15.5421 12.695 15.4633C12.8809 15.3846 13.0012 15.2019 13 15V9C12.9972 8.79996 12.8754 8.62086 12.6904 8.54468C12.5054 8.46851 12.2929 8.50994 12.15 8.65L9.15 11.65C8.95822 11.8478 8.95822 12.1622 9.15 12.36Z" fill="currentColor" fill-rule="evenodd" clip-rule="evenodd" />
</svg>
