<svg xmlns="http://www.w3.org/2000/svg" viewBox="0 0 24 24">
    <path d="M12 2C6.47715 2 2 6.47715 2 12C2 17.5228 6.47715 22 12 22C17.5228 22 22 17.5228 22 12C22 9.34784 20.9464 6.8043 19.0711 4.92893C17.1957 3.05357 14.6522 2 12 2ZM12 4C16.4183 4 20 7.58172 20 12C20 16.4183 16.4183 20 12 20C7.58172 20 4 16.4183 4 12C4 7.58172 7.58172 4 12 4ZM11.305 15.4633C11.1191 15.3846 10.9988 15.2019 11 15V9C11.0028 8.79996 11.1246 8.62086 11.3096 8.54468C11.4946 8.46851 11.7071 8.50994 11.85 8.65L14.85 11.65C15.0418 11.8478 15.0418 12.1622 14.85 12.36L11.85 15.36C11.7058 15.5013 11.4909 15.5421 11.305 15.4633Z" fill="currentColor" fill-rule="evenodd" clip-rule="evenodd" />
</svg>
