<svg xmlns="http://www.w3.org/2000/svg" viewBox="0 0 24 24">
    <path d="M12 2C6.47715 2 2 6.47715 2 12C2 17.5228 6.47715 22 12 22C17.5228 22 22 17.5228 22 12C22 9.34784 20.9464 6.8043 19.0711 4.92893C17.1957 3.05357 14.6522 2 12 2ZM12 4C16.4183 4 20 7.58172 20 12C20 16.4183 16.4183 20 12 20C7.58172 20 4 16.4183 4 12C4 7.58172 7.58172 4 12 4ZM15.4633 12.695C15.3846 12.8809 15.2019 13.0012 15 13H9C8.79996 12.9972 8.62086 12.8754 8.54468 12.6904C8.46851 12.5054 8.50994 12.2929 8.65 12.15L11.65 9.15C11.8478 8.95822 12.1622 8.95822 12.36 9.15L15.36 12.15C15.5013 12.2942 15.5421 12.5091 15.4633 12.695Z" fill="currentColor" fill-rule="evenodd" clip-rule="evenodd" />
</svg>
