<svg xmlns="http://www.w3.org/2000/svg" viewBox="0 0 24 24">
    <path d="M22 12C22 17.5228 17.5228 22 12 22C9.34784 22 6.8043 20.9464 4.92893 19.0711C3.05357 17.1957 2 14.6522 2 12C2 6.47715 6.47715 2 12 2C17.5228 2 22 6.47715 22 12ZM11.64 9.15L8.64 12.15C8.4987 12.2942 8.45793 12.5091 8.53665 12.695C8.61538 12.8809 8.79815 13.0012 9 13H15C15.2 12.9972 15.3791 12.8754 15.4553 12.6904C15.5315 12.5054 15.4901 12.2929 15.35 12.15L12.35 9.15C12.1522 8.95822 11.8378 8.95822 11.64 9.15Z" fill="currentColor" fill-rule="evenodd" clip-rule="evenodd" />
</svg>
