<svg xmlns="http://www.w3.org/2000/svg" viewBox="0 0 24 24">
    <path d="M3.92005 17.17C3.82617 17.2647 3.69837 17.3179 3.56505 17.3179C3.43174 17.3179 3.30394 17.2647 3.21005 17.17L2.15005 16.11C2.05338 16.0193 1.99854 15.8926 1.99854 15.76C1.99854 15.6274 2.05338 15.5007 2.15005 15.41L11.3401 6.22C11.4806 6.07931 11.6712 6.00018 11.8701 6H12.1301C12.3289 6.00018 12.5195 6.07931 12.6601 6.22L21.8501 15.41C21.9467 15.5007 22.0016 15.6274 22.0016 15.76C22.0016 15.8926 21.9467 16.0193 21.8501 16.11L20.7901 17.17C20.6962 17.2647 20.5684 17.3179 20.4351 17.3179C20.3017 17.3179 20.1739 17.2647 20.0801 17.17L12.0001 9.09L3.92005 17.17Z" fill="currentColor" />
</svg>
