<svg xmlns="http://www.w3.org/2000/svg" viewBox="0 0 24 24">
    <path d="M5.22765 7.00195C5.09271 7.00195 4.96336 7.0552 4.86833 7.14985L4.1497 7.84985C4.05389 7.94374 4 8.07153 4 8.20485C4 8.33817 4.05389 8.46597 4.1497 8.55985L7.64166 11.9999L4.1497 15.4399C4.05449 15.532 4.00084 15.6582 4.00084 15.7899C4.00084 15.9215 4.05449 16.0477 4.1497 16.1399L4.86833 16.8499C4.96336 16.9445 5.09271 16.9978 5.22765 16.9978C5.36259 16.9978 5.49194 16.9445 5.58697 16.8499L9.77732 12.7199C9.9179 12.5781 9.99767 12.3883 10 12.1899V11.8099C9.99982 11.611 9.91973 11.4204 9.77732 11.2799L5.58697 7.14985C5.49194 7.0552 5.36259 7.00195 5.22765 7.00195ZM20 15.7949C20 15.9282 19.9461 16.056 19.8503 16.1499L19.1317 16.8499C19.0366 16.9445 18.9073 16.9978 18.7723 16.9978C18.6374 16.9978 18.5081 16.9445 18.413 16.8499L14.2227 12.7199C14.0803 12.5793 14.0002 12.3887 14 12.1899V11.8099C14.0023 11.6114 14.0821 11.4216 14.2227 11.2799L18.4029 7.14985C18.4979 7.0552 18.6273 7.00195 18.7622 7.00195C18.8972 7.00195 19.0265 7.0552 19.1215 7.14985L19.8402 7.85985C19.9354 7.95202 19.989 8.07816 19.989 8.20985C19.989 8.34154 19.9354 8.46769 19.8402 8.55985L16.3583 11.9999L19.8503 15.4399C19.9461 15.5337 20 15.6615 20 15.7949Z" fill="currentColor" fill-rule="evenodd" clip-rule="evenodd" />
</svg>
