<svg xmlns="http://www.w3.org/2000/svg" viewBox="0 0 24 24">
    <path d="M19.6368 2.92869C19.7344 2.83106 19.8927 2.83106 19.9903 2.92869L21.051 3.98935C21.1486 4.08698 21.1486 4.24527 21.051 4.34291L16.5396 8.85425L19.9951 8.84923C20.1284 8.84868 20.2565 8.9014 20.3507 8.99567C20.445 9.08994 20.4977 9.21796 20.4972 9.35128L20.4901 10.3483C20.4907 10.4816 20.4379 10.6096 20.3437 10.7039C20.2494 10.7982 20.1214 10.8509 19.9881 10.8503L14.1403 10.8574C13.9414 10.8575 13.7507 10.7787 13.61 10.6382L13.3413 10.3695C13.2026 10.2276 13.1241 10.0376 13.1221 9.83918L13.1221 3.99848C13.1215 3.86516 13.1742 3.73715 13.2685 3.64288C13.3628 3.54861 13.4908 3.49589 13.6241 3.49643L14.6282 3.49643C14.7599 3.49509 14.8866 3.54681 14.9797 3.63993C15.0728 3.73304 15.1245 3.85973 15.1232 3.99141L15.1232 7.4423L19.6368 2.92869Z" fill="currentColor" />
    <path d="M10.865 20.0118C10.8692 20.1443 10.8184 20.2726 10.7246 20.3664C10.6309 20.4601 10.5025 20.5109 10.37 20.5067H9.36589C9.09366 20.504 8.87364 20.284 8.87092 20.0118L8.87594 16.556L4.36146 21.0705C4.26383 21.1681 4.10554 21.1681 4.00791 21.0705L2.94725 20.0098C2.84962 19.9122 2.84962 19.7539 2.94725 19.6563L7.46165 15.1419L4.00602 15.1469C3.87271 15.1474 3.74469 15.0947 3.65042 15.0004C3.55615 14.9062 3.50343 14.7781 3.50398 14.6448L3.51105 13.6478C3.50685 13.5153 3.55765 13.3869 3.6514 13.2932C3.74515 13.1994 3.87351 13.1486 4.00603 13.1528L9.86087 13.1387C10.0597 13.1386 10.2505 13.2174 10.3912 13.3579L10.6599 13.6266C10.7986 13.7685 10.8771 13.9585 10.8791 14.1569L10.865 20.0118Z" fill="currentColor" />
</svg>
