<svg xmlns="http://www.w3.org/2000/svg" viewBox="0 0 24 24">
    <path d="M9.29505 7.71191C9.16174 7.71191 9.03394 7.76516 8.94005 7.85981L5.15005 11.6498C5.05338 11.7405 4.99854 11.8672 4.99854 11.9998C4.99854 12.1324 5.05338 12.2591 5.15005 12.3498L8.94005 16.1398C9.03394 16.2345 9.16174 16.2877 9.29505 16.2877C9.42837 16.2877 9.55617 16.2345 9.65005 16.1398L9.85005 15.9398C9.94771 15.8457 10.002 15.7154 10.0001 15.5798V8.41981C10.002 8.28423 9.94771 8.15389 9.85005 8.05981L9.65005 7.85981C9.55617 7.76516 9.42837 7.71191 9.29505 7.71191ZM14.7051 16.2877C14.8384 16.2877 14.9662 16.2345 15.0601 16.1398L18.8501 12.3498C18.9467 12.2591 19.0016 12.1324 19.0016 11.9998C19.0016 11.8672 18.9467 11.7405 18.8501 11.6498L15.0601 7.85981C14.9662 7.76516 14.8384 7.71191 14.7051 7.71191C14.5717 7.71191 14.4439 7.76516 14.3501 7.85981L14.1501 8.05981C14.0524 8.15389 13.9981 8.28423 14.0001 8.41981V15.5798C13.9981 15.7154 14.0524 15.8457 14.1501 15.9398L14.3501 16.1398C14.4439 16.2345 14.5717 16.2877 14.7051 16.2877Z" fill="currentColor" fill-rule="evenodd" clip-rule="evenodd" />
</svg>
