<svg xmlns="http://www.w3.org/2000/svg" viewBox="0 0 24 24">
    <path d="M14.359 11.0342C14.2614 11.1318 14.1031 11.1318 14.0055 11.0342L12.9448 9.97353C12.8472 9.8759 12.8472 9.71761 12.9448 9.61998L17.4562 5.10864L14.0007 5.11365C13.8674 5.1142 13.7393 5.06148 13.6451 4.96721C13.5508 4.87294 13.4981 4.74492 13.4986 4.61161L13.5057 3.61459C13.5052 3.48127 13.5579 3.35325 13.6521 3.25898C13.7464 3.16471 13.8744 3.11199 14.0077 3.11254L19.8555 3.10547C20.0544 3.10534 20.2451 3.18419 20.3858 3.32467L20.6545 3.59337C20.7932 3.7353 20.8717 3.92529 20.8738 4.1237V9.9644C20.8743 10.0977 20.8216 10.2257 20.7273 10.32C20.633 10.4143 20.505 10.467 20.3717 10.4665H19.3676C19.2359 10.4678 19.1092 10.4161 19.0161 10.323C18.923 10.2298 18.8713 10.1032 18.8726 9.97148V6.52059L14.359 11.0342Z" fill="currentColor" />
    <path d="M3.13816 14.0205C3.13396 13.8879 3.18476 13.7596 3.27851 13.6658C3.37226 13.5721 3.50062 13.5213 3.63314 13.5255H4.63723C4.90946 13.5282 5.12948 13.7482 5.13221 14.0205L5.12719 17.4762L9.64167 12.9618C9.7393 12.8641 9.89759 12.8641 9.99522 12.9618L11.0559 14.0224C11.1535 14.12 11.1535 14.2783 11.0559 14.376L6.54148 18.8904L9.9971 18.8854C10.1304 18.8848 10.2584 18.9375 10.3527 19.0318C10.447 19.1261 10.4997 19.2541 10.4991 19.3874L10.4921 20.3844C10.4963 20.5169 10.4455 20.6453 10.3517 20.739C10.258 20.8328 10.1296 20.8836 9.9971 20.8794L4.14226 20.8935C3.94341 20.8937 3.75266 20.8148 3.61193 20.6743L3.34323 20.4056C3.20456 20.2637 3.12603 20.0737 3.12402 19.8753L3.13816 14.0205Z" fill="currentColor" />
</svg>
