<svg xmlns="http://www.w3.org/2000/svg" viewBox="0 0 24 24">
    <path d="M7.00195 7.71238C7.00195 7.84563 7.0552 7.97335 7.14985 8.06718L7.84985 8.77679C7.94374 8.87139 8.07153 8.92461 8.20485 8.92461C8.33817 8.92461 8.46597 8.87139 8.55985 8.77679L11.9999 5.32871L15.4399 8.77679C15.532 8.8708 15.6582 8.92378 15.7899 8.92378C15.9215 8.92378 16.0477 8.8708 16.1399 8.77679L16.8499 8.06718C16.9445 7.97335 16.9978 7.84563 16.9978 7.71238C16.9978 7.57914 16.9445 7.45141 16.8499 7.35758L12.7199 3.21988C12.5781 3.08107 12.3883 3.0023 12.1899 3H11.8099C11.611 3.00017 11.4204 3.07926 11.2799 3.21988L7.14985 7.35758C7.0552 7.45141 7.00195 7.57914 7.00195 7.71238ZM15.7949 15.0654C15.9282 15.0654 16.056 15.1186 16.1499 15.2132L16.8499 15.9328C16.9445 16.0266 16.9978 16.1544 16.9978 16.2876C16.9978 16.4209 16.9445 16.5486 16.8499 16.6424L12.7199 20.7801C12.5793 20.9207 12.3887 20.9998 12.1899 21H11.8099C11.6114 20.9977 11.4216 20.9189 11.2799 20.7801L7.14985 16.6424C7.0552 16.5486 7.00195 16.4209 7.00195 16.2876C7.00195 16.1544 7.0552 16.0266 7.14985 15.9328L7.85985 15.2232C7.95202 15.1292 8.07816 15.0762 8.20985 15.0762C8.34154 15.0762 8.46769 15.1292 8.55985 15.2232L11.9999 18.6613L15.4399 15.2132C15.5337 15.1186 15.6615 15.0654 15.7949 15.0654Z" fill="currentColor" fill-rule="evenodd" clip-rule="evenodd" />
</svg>
