<svg xmlns="http://www.w3.org/2000/svg" viewBox="0 0 24 24">
    <path d="M16.9978 5.22765C16.9978 5.09271 16.9445 4.96336 16.8499 4.86833L16.1499 4.1497C16.056 4.05389 15.9282 4 15.7949 4C15.6615 4 15.5337 4.05389 15.4399 4.1497L11.9999 7.64166L8.55985 4.1497C8.46769 4.05449 8.34154 4.00084 8.20985 4.00084C8.07816 4.00084 7.95202 4.05449 7.85985 4.1497L7.14985 4.86833C7.0552 4.96336 7.00195 5.09271 7.00195 5.22765C7.00195 5.36259 7.0552 5.49194 7.14985 5.58697L11.2799 9.77732C11.4216 9.9179 11.6114 9.99767 11.8099 10H12.1899C12.3887 9.99982 12.5793 9.91973 12.7199 9.77732L16.8499 5.58697C16.9445 5.49194 16.9978 5.36259 16.9978 5.22765ZM8.20485 20C8.07153 20 7.94374 19.9461 7.84985 19.8503L7.14985 19.1317C7.0552 19.0366 7.00195 18.9073 7.00195 18.7723C7.00195 18.6374 7.0552 18.5081 7.14985 18.413L11.2799 14.2227C11.4204 14.0803 11.611 14.0002 11.8099 14H12.1899C12.3883 14.0023 12.5781 14.0821 12.7199 14.2227L16.8499 18.4029C16.9445 18.4979 16.9978 18.6273 16.9978 18.7622C16.9978 18.8972 16.9445 19.0265 16.8499 19.1215L16.1399 19.8402C16.0477 19.9354 15.9215 19.989 15.7899 19.989C15.6582 19.989 15.532 19.9354 15.4399 19.8402L11.9999 16.3583L8.55985 19.8503C8.46597 19.9461 8.33817 20 8.20485 20Z" fill="currentColor" fill-rule="evenodd" clip-rule="evenodd" />
</svg>
