<svg xmlns="http://www.w3.org/2000/svg" viewBox="0 0 24 24">
    <path d="M3.5 3C3.22386 3 3 3.22386 3 3.5V14C3 15.1046 3.89543 16 5 16H17.67L14.22 19.44C14.1253 19.5339 14.0721 19.6617 14.0721 19.795C14.0721 19.9283 14.1253 20.0561 14.22 20.15L14.93 20.85C15.0239 20.9447 15.1517 20.9979 15.285 20.9979C15.4183 20.9979 15.5461 20.9447 15.64 20.85L20.78 15.72C20.9207 15.5795 20.9998 15.3888 21 15.19V14.81C20.9977 14.6116 20.9189 14.4217 20.78 14.28L15.64 9.15C15.5461 9.05534 15.4183 9.0021 15.285 9.0021C15.1517 9.0021 15.0239 9.05534 14.93 9.15L14.22 9.86C14.1259 9.95216 14.0729 10.0783 14.0729 10.21C14.0729 10.3417 14.1259 10.4678 14.22 10.56L17.67 14H5V3.5C5 3.22386 4.77614 3 4.5 3H3.5Z" fill="currentColor" />
</svg>
