<svg xmlns="http://www.w3.org/2000/svg" viewBox="0 0 24 24">
    <path d="M14.9691 2.70994C15.3601 2.31782 15.3601 1.68206 14.9691 1.28994C14.5781 0.897819 13.9441 0.897819 13.5531 1.28994L9.56439 5.28994C10.0927 5.78274 10.4256 6.45042 10.5017 7.16994L14.9691 2.70994ZM3.50154 14.2399V18.3399C3.49657 18.4132 3.49657 18.4867 3.50154 18.5599L2.87331 17.9399C2.26615 17.2823 1.95282 16.4046 2.00577 15.5099V11.4099C2.00577 10.3678 2.41677 9.50616 2.84715 8.60391C3.20141 7.86121 3.56881 7.091 3.73089 6.16994L4.17962 3.57994C4.23008 3.3099 4.48835 3.13128 4.75798 3.17994C5.35309 3.26419 5.84012 3.69745 5.99448 4.27994C6.02457 4.41494 6.02457 4.55494 5.99448 4.68994L4.99731 10.5399C4.05334 11.5413 3.51942 12.8621 3.50154 14.2399ZM18.2997 15.0899L20.294 13.0899H20.2442C20.6352 12.6978 21.2692 12.6978 21.6602 13.0899C22.0512 13.4821 22.0512 14.1178 21.6602 14.5099L16.4848 19.6899C16.1561 20.0196 15.7837 20.3023 15.3779 20.5299L12.2967 22.2499C11.4075 22.7403 10.4096 22.9982 9.39487 22.9999H9.34501C8.55187 22.9992 7.79147 22.6827 7.23099 22.1199L5.87482 20.7699C5.26403 20.1139 4.94704 19.2361 4.99731 18.3399V14.2399C4.99731 13.1897 5.41471 12.3106 5.8487 11.3965C6.19985 10.6569 6.56187 9.89444 6.72243 8.99994L7.17116 6.39994C7.22162 6.1299 7.47989 5.95128 7.74952 5.99994C8.45668 6.12058 8.97692 6.73065 8.98602 7.44994V11.6599L16.5446 4.11994C16.7976 3.86628 17.1663 3.76722 17.5118 3.86006C17.8573 3.95291 18.1272 4.22356 18.2198 4.57006C18.3124 4.91657 18.2136 5.28628 17.9606 5.53994L13.3138 10.1899C13.1183 10.386 13.1183 10.7039 13.3138 10.8999C13.5093 11.096 13.8263 11.096 14.0218 10.8999L19.3168 5.58994C19.504 5.40063 19.7589 5.29414 20.0248 5.29414C20.2907 5.29414 20.5456 5.40063 20.7328 5.58994C21.1194 5.97998 21.1194 6.6099 20.7328 6.99994L15.4378 12.2899C15.3434 12.3838 15.2903 12.5116 15.2903 12.6449C15.2903 12.7783 15.3434 12.9061 15.4378 12.9999C15.6316 13.1905 15.9419 13.1905 16.1358 12.9999L20.294 8.84994C20.4813 8.66063 20.7361 8.55414 21.002 8.55414C21.2679 8.55414 21.5228 8.66063 21.71 8.84994C22.0967 9.23998 22.0967 9.8699 21.71 10.2599L17.6017 14.3799C17.5073 14.4738 17.4542 14.6016 17.4542 14.7349C17.4542 14.8683 17.5073 14.9961 17.6017 15.0899C17.7955 15.2805 18.1058 15.2805 18.2997 15.0899Z" fill="currentColor" fill-rule="evenodd" clip-rule="evenodd" />
</svg>
