<svg xmlns="http://www.w3.org/2000/svg" viewBox="0 0 24 24">
    <path d="M22.0002 4.50003C22.0002 4.77617 21.7764 5.00003 21.5002 5.00003H16.0002V5.94003C15.9688 6.12748 15.8358 6.28192 15.6551 6.34076C15.4744 6.3996 15.2759 6.35307 15.1402 6.22003L13.1402 4.17003C13.0687 4.10039 13.0284 4.00482 13.0284 3.90503C13.0284 3.80524 13.0687 3.70967 13.1402 3.64003L15.1402 1.64003C15.2868 1.5016 15.5013 1.46256 15.6873 1.54042C15.8733 1.61828 15.9959 1.79843 16.0002 2.00003V3.00003H21.5002C21.7764 3.00003 22.0002 3.22389 22.0002 3.50003V4.50003ZM17.0002 14.74V14.47C16.9899 13.6717 16.6709 12.9084 16.1102 12.34L13.3802 9.62003C12.9985 9.241 12.5218 8.9716 12.0002 8.84003V10.5C12.0002 10.7762 11.7764 11 11.5002 11C11.2241 11 11.0002 10.7762 11.0002 10.5V3.00003C11.0002 2.44775 10.5525 2.00003 10.0002 2.00003C9.44793 2.00003 9.00022 2.44775 9.00022 3.00003V10.5C9.00022 10.7762 8.77636 11 8.50022 11C8.22408 11 8.00022 10.7762 8.00022 10.5V4.00003C8.00022 3.44775 7.5525 3.00003 7.00022 3.00003C6.44793 3.00003 6.00022 3.44775 6.00022 4.00003V15L3.11022 12.15C2.59078 11.6599 1.80014 11.5974 1.21022 12C0.98763 12.1626 0.934485 12.4726 1.09022 12.7L2.60022 14.85C3.13203 15.6117 3.41604 16.4099 3.69025 17.1806C4.02447 18.12 4.34414 19.0185 5.08022 19.76L7.46022 22.09C8.02229 22.6528 8.78484 22.9693 9.58022 22.97H12.1702C12.9656 22.9693 13.7281 22.6528 14.2902 22.09C15.0082 21.3695 15.5313 20.4783 15.8102 19.5L16.8102 16.11C16.9384 15.6647 17.0024 15.2034 17.0002 14.74Z" fill="currentColor" fill-rule="evenodd" clip-rule="evenodd" />
</svg>
