<svg xmlns="http://www.w3.org/2000/svg" viewBox="0 0 24 24">
    <path d="M20.9998 13.74V15.41C21.004 16.462 20.7316 17.4965 20.2098 18.41L17.5798 23C17.2211 23.6213 16.5572 24.0028 15.8398 24H11.6998C11.2453 23.9996 10.8044 23.8445 10.4498 23.56L7.35983 20.37C7.11182 20.1106 6.88759 19.8295 6.68983 19.53L5.56983 17.86C5.19723 17.2983 4.64295 16.8817 3.99983 16.68L2.65983 16.23L2.29983 16.11C2.10818 16.0298 1.98796 15.8374 1.99983 15.63V15.49C1.99982 15.0931 2.15817 14.7126 2.43977 14.4329C2.72137 14.1531 3.10293 13.9973 3.49983 14H4.33983C4.77453 13.9967 5.20686 14.0642 5.61983 14.2L7.99983 15V2.5C7.99983 1.67157 8.6714 1 9.49983 1C10.3283 1 10.9998 1.67157 10.9998 2.5V10.5C10.9998 10.7761 11.2237 11 11.4998 11C11.776 11 11.9998 10.7761 11.9998 10.5V8H15.2598C16.0552 8.0007 16.8178 8.31723 17.3798 8.88L20.1198 11.62C20.6826 12.1821 20.9991 12.9446 20.9998 13.74Z" fill="currentColor" />
</svg>
