<svg xmlns="http://www.w3.org/2000/svg" viewBox="0 0 24 24">
    <path d="M20.0002 7.99999H21.0002C21.1878 8.02726 21.3439 8.15829 21.4032 8.33836C21.4625 8.51843 21.4149 8.71656 21.2802 8.84999L19.2802 10.85C19.2106 10.9215 19.115 10.9618 19.0152 10.9618C18.9154 10.9618 18.8199 10.9215 18.7502 10.85L16.7002 8.84999C16.5589 8.70584 16.5181 8.49086 16.5969 8.30499C16.6756 8.11911 16.8584 7.99881 17.0602 7.99999H18.0002V3.99999H17.1802C16.9784 4.00118 16.7956 3.88087 16.7169 3.695C16.6381 3.50912 16.6789 3.29414 16.8202 3.14999L18.8202 1.14999C18.8899 1.07852 18.9854 1.03821 19.0852 1.03821C19.185 1.03821 19.2806 1.07852 19.3502 1.14999L21.3502 3.14999C21.5011 3.28899 21.5493 3.50723 21.4713 3.69689C21.3932 3.88655 21.2052 4.0075 21.0002 3.99999H20.0002V7.99999ZM18.0002 14.74V14.47C17.9899 13.6717 17.6709 12.9084 17.1102 12.34L14.3802 9.61999C13.8157 9.05477 13.0491 8.73804 12.2502 8.73999H10.0002V10.5C10.0002 10.7761 9.77636 11 9.50022 11C9.22408 11 9.00022 10.7761 9.00022 10.5V3.99999C9.00022 3.44771 8.5525 2.99999 8.00022 2.99999C7.44793 2.99999 7.00022 3.44771 7.00022 3.99999V15L4.11022 12.15C3.59078 11.6598 2.80014 11.5974 2.21022 12C1.98763 12.1626 1.93449 12.4726 2.09022 12.7L3.60022 14.85C4.13203 15.6117 4.41604 16.4099 4.69025 17.1806C5.02447 18.12 5.34414 19.0184 6.08022 19.76L8.46022 22.09C9.02229 22.6528 9.78484 22.9693 10.5802 22.97H13.1702C13.9656 22.9693 14.7281 22.6528 15.2902 22.09C16.0082 21.3695 16.5313 20.4782 16.8102 19.5L17.8102 16.11C17.9384 15.6647 18.0024 15.2034 18.0002 14.74Z" fill="currentColor" fill-rule="evenodd" clip-rule="evenodd" />
</svg>
