<svg xmlns="http://www.w3.org/2000/svg" viewBox="0 0 24 24">
    <path d="M19.8902 1.72003L21.8902 3.72003C21.9753 3.79469 22.0216 3.90422 22.0157 4.01729C22.0099 4.13037 21.9526 4.23454 21.8602 4.30003L19.8602 6.30003C19.7136 6.43845 19.4992 6.4775 19.3132 6.39963C19.1272 6.32177 19.0045 6.14162 19.0002 5.94003V5.00003H15.0002V5.94003C14.9611 6.12084 14.8254 6.2653 14.6474 6.31557C14.4693 6.36583 14.2781 6.3137 14.1502 6.18003L12.1502 4.18003C12.0117 4.0305 12.0117 3.79955 12.1502 3.65003L14.1502 1.65003C14.2892 1.49919 14.5075 1.4509 14.6971 1.52899C14.8868 1.60709 15.0077 1.79505 15.0002 2.00003V3.00003H19.0302V2.08003C19.0345 1.87843 19.1572 1.69828 19.3432 1.62042C19.5292 1.54255 19.7436 1.5816 19.8902 1.72003ZM18.0002 14.74V14.47C17.9899 13.6717 17.6709 12.9084 17.1102 12.34L14.3802 9.62003C13.8157 9.0548 13.0491 8.73807 12.2502 8.74003H10.0002V10.5C10.0002 10.7762 9.77636 11 9.50022 11C9.22408 11 9.00022 10.7762 9.00022 10.5V4.00003C9.00022 3.44774 8.5525 3.00003 8.00022 3.00003C7.44793 3.00003 7.00022 3.44774 7.00022 4.00003V15L4.11022 12.15C3.59078 11.6599 2.80014 11.5974 2.21022 12C1.98763 12.1626 1.93449 12.4726 2.09022 12.7L3.60022 14.85C4.13203 15.6117 4.41604 16.4099 4.69025 17.1806C5.02447 18.12 5.34414 19.0185 6.08022 19.76L8.46022 22.09C9.02229 22.6528 9.78484 22.9693 10.5802 22.97H13.1702C13.9656 22.9693 14.7281 22.6528 15.2902 22.09C16.0082 21.3695 16.5313 20.4782 16.8102 19.5L17.8102 16.11C17.9384 15.6647 18.0024 15.2034 18.0002 14.74Z" fill="currentColor" fill-rule="evenodd" clip-rule="evenodd" />
</svg>
