<svg xmlns="http://www.w3.org/2000/svg" viewBox="0 0 24 24">
    <path d="M11.49 24C10.6946 23.9993 9.93207 23.6828 9.37 23.12L5.75 19.5C4.63931 18.55 3.9999 17.1616 4 15.7V14C4 12.8954 4.89543 12 6 12V13.65C6.00036 14.2295 6.25209 14.7804 6.69 15.16L7 15.47V2.5C7 1.67157 7.67157 1 8.5 1C9.32843 1 10 1.67157 10 2.5V10.5C10 10.7761 10.2239 11 10.5 11C10.7761 11 11 10.7761 11 10.5V8H14.26C15.0554 8.0007 15.8179 8.31723 16.38 8.88L19.12 11.62C19.6828 12.1821 19.9993 12.9446 20 13.74V15.41C20.0042 16.462 19.7318 17.4965 19.21 18.41L16.58 23C16.2213 23.6213 15.5574 24.0028 14.84 24H11.49Z" fill="currentColor" />
</svg>
