<svg xmlns="http://www.w3.org/2000/svg" viewBox="0 0 24 24">
    <path d="M20.8902 1.72003L22.8902 3.72003C22.9753 3.79469 23.0216 3.90422 23.0157 4.01729C23.0099 4.13037 22.9526 4.23454 22.8602 4.30003L20.8602 6.30003C20.7136 6.43845 20.4992 6.4775 20.3132 6.39963C20.1272 6.32177 20.0045 6.14162 20.0002 5.94003V5.00003H16.0002V5.94003C15.9611 6.12084 15.8254 6.2653 15.6474 6.31557C15.4693 6.36583 15.2781 6.3137 15.1502 6.18003L13.1502 4.18003C13.0117 4.0305 13.0117 3.79955 13.1502 3.65003L15.1502 1.65003C15.2892 1.49919 15.5075 1.4509 15.6971 1.52899C15.8868 1.60709 16.0077 1.79505 16.0002 2.00003V3.00003H20.0302V2.08003C20.0345 1.87843 20.1572 1.69828 20.3432 1.62042C20.5292 1.54255 20.7436 1.5816 20.8902 1.72003ZM17.0002 14.74V14.47C16.9899 13.6717 16.6709 12.9084 16.1102 12.34L13.3802 9.62003C12.9985 9.241 12.5218 8.97159 12.0002 8.84003V10.5C12.0002 10.7762 11.7764 11 11.5002 11C11.2241 11 11.0002 10.7762 11.0002 10.5V3.00003C11.0002 2.44774 10.5525 2.00003 10.0002 2.00003C9.44793 2.00003 9.00022 2.44774 9.00022 3.00003V10.5C9.00022 10.7762 8.77636 11 8.50022 11C8.22408 11 8.00022 10.7762 8.00022 10.5V4.00003C8.00022 3.44774 7.5525 3.00003 7.00022 3.00003C6.44793 3.00003 6.00022 3.44774 6.00022 4.00003V15L3.11022 12.15C2.59078 11.6599 1.80014 11.5974 1.21022 12C0.98763 12.1626 0.934485 12.4726 1.09022 12.7L2.60022 14.85C3.13203 15.6117 3.41604 16.4099 3.69025 17.1806C4.02447 18.12 4.34414 19.0185 5.08022 19.76L7.46022 22.09C8.02229 22.6528 8.78484 22.9693 9.58022 22.97H12.1702C12.9656 22.9693 13.7281 22.6528 14.2902 22.09C15.0082 21.3695 15.5313 20.4782 15.8102 19.5L16.8102 16.11C16.9384 15.6647 17.0024 15.2034 17.0002 14.74Z" fill="currentColor" fill-rule="evenodd" clip-rule="evenodd" />
</svg>
