<svg xmlns="http://www.w3.org/2000/svg" viewBox="0 0 24 24">
    <path d="M13.5002 4.97001C13.2241 4.97001 13.0002 4.74615 13.0002 4.47001V3.50001C13.0002 3.22386 13.2241 3.00001 13.5002 3.00001H19.0002V2.10001C19.0045 1.89841 19.1272 1.71826 19.3132 1.6404C19.4992 1.56253 19.7136 1.60158 19.8602 1.74001L21.8602 3.74001C21.9317 3.80965 21.972 3.90521 21.972 4.00501C21.972 4.1048 21.9317 4.20036 21.8602 4.27001L19.8602 6.27001C19.7136 6.40843 19.4992 6.44748 19.3132 6.36961C19.1272 6.29175 19.0045 6.11161 19.0002 5.91001V4.97001H13.5002ZM17.0002 14.74V14.47C16.9899 13.6717 16.6709 12.9084 16.1102 12.34L13.3802 9.62001C12.9985 9.24098 12.5218 8.97157 12.0002 8.84001V10.5C12.0002 10.7761 11.7764 11 11.5002 11C11.2241 11 11.0002 10.7761 11.0002 10.5V3.00001C11.0002 2.44772 10.5525 2.00001 10.0002 2.00001C9.44793 2.00001 9.00022 2.44772 9.00022 3.00001V10.5C9.00022 10.7761 8.77636 11 8.50022 11C8.22408 11 8.00022 10.7761 8.00022 10.5V4.00001C8.00022 3.44772 7.5525 3.00001 7.00022 3.00001C6.44793 3.00001 6.00022 3.44772 6.00022 4.00001V15L3.11022 12.15C2.59078 11.6598 1.80014 11.5974 1.21022 12C0.98763 12.1626 0.934485 12.4726 1.09022 12.7L2.60022 14.85C3.13203 15.6117 3.41604 16.4099 3.69025 17.1806C4.02447 18.12 4.34414 19.0184 5.08022 19.76L7.46022 22.09C8.02229 22.6528 8.78484 22.9693 9.58022 22.97H12.1702C12.9656 22.9693 13.7281 22.6528 14.2902 22.09C15.0082 21.3695 15.5313 20.4782 15.8102 19.5L16.8102 16.11C16.9384 15.6647 17.0024 15.2034 17.0002 14.74Z" fill="currentColor" fill-rule="evenodd" clip-rule="evenodd" />
</svg>
