<svg xmlns="http://www.w3.org/2000/svg" viewBox="0 0 24 24">
    <path d="M22.0002 4.50003C22.0002 4.77617 21.7764 5.00003 21.5002 5.00003H16.0002V5.94003C15.9688 6.12748 15.8358 6.28192 15.6551 6.34076C15.4744 6.3996 15.2759 6.35307 15.1402 6.22003L13.1402 4.17003C13.0687 4.10039 13.0284 4.00482 13.0284 3.90503C13.0284 3.80524 13.0687 3.70967 13.1402 3.64003L15.1402 1.64003C15.2868 1.5016 15.5013 1.46256 15.6873 1.54042C15.8733 1.61828 15.9959 1.79843 16.0002 2.00003V3.00003H21.5002C21.7764 3.00003 22.0002 3.22389 22.0002 3.50003V4.50003ZM18.0002 14.74V14.47C17.9899 13.6717 17.6709 12.9084 17.1102 12.34L14.3802 9.62003C13.8157 9.05481 13.0491 8.73807 12.2502 8.74003H10.0002V10.5C10.0002 10.7762 9.77636 11 9.50022 11C9.22408 11 9.00022 10.7762 9.00022 10.5V4.00003C9.00022 3.44775 8.5525 3.00003 8.00022 3.00003C7.44793 3.00003 7.00022 3.44775 7.00022 4.00003V15L4.11022 12.15C3.59078 11.6599 2.80014 11.5974 2.21022 12C1.98763 12.1626 1.93449 12.4726 2.09022 12.7L3.60022 14.85C4.13203 15.6117 4.41604 16.4099 4.69025 17.1806C5.02447 18.12 5.34414 19.0185 6.08022 19.76L8.46022 22.09C9.02229 22.6528 9.78484 22.9693 10.5802 22.97H13.1702C13.9656 22.9693 14.7281 22.6528 15.2902 22.09C16.0082 21.3695 16.5313 20.4783 16.8102 19.5L17.8102 16.11C17.9384 15.6647 18.0024 15.2034 18.0002 14.74Z" fill="currentColor" fill-rule="evenodd" clip-rule="evenodd" />
</svg>
