<svg xmlns="http://www.w3.org/2000/svg" viewBox="0 0 24 24">
    <path d="M19.3102 10.85L21.3102 8.84999C21.4466 8.71247 21.4912 8.50858 21.4249 8.32664C21.3585 8.14471 21.1931 8.01745 21.0002 7.99999H20.0002V3.99999H21.0002C21.1841 3.96461 21.3317 3.82754 21.3806 3.64681C21.4295 3.46607 21.3712 3.27326 21.2302 3.14999L19.2302 1.14999C19.1606 1.07852 19.065 1.03821 18.9652 1.03821C18.8654 1.03821 18.7699 1.07852 18.7002 1.14999L16.7002 3.14999C16.5589 3.29414 16.5181 3.50912 16.5969 3.695C16.6756 3.88087 16.8584 4.00118 17.0602 3.99999H18.0002V7.99999H17.0602C16.8638 8.01037 16.6917 8.13497 16.6205 8.31834C16.5493 8.50171 16.5922 8.70979 16.7302 8.84999L18.7802 10.85C18.8499 10.9215 18.9454 10.9618 19.0452 10.9618C19.145 10.9618 19.2406 10.9215 19.3102 10.85ZM13.0002 8.83999C13.5218 8.97156 13.9985 9.24097 14.3802 9.61999L17.1102 12.34C17.6709 12.9084 17.9899 13.6717 18.0002 14.47V14.74C17.9988 15.2144 17.928 15.686 17.7902 16.14L16.7902 19.53C16.5113 20.5082 15.9882 21.3995 15.2702 22.12C14.7081 22.6828 13.9456 22.9993 13.1502 23H10.5802C9.78484 22.9993 9.02229 22.6828 8.46022 22.12L6.08022 19.76C5.34414 19.0184 5.02447 18.12 4.69025 17.1806C4.41604 16.4099 4.13203 15.6117 3.60022 14.85L2.09022 12.7C1.93449 12.4726 1.98763 12.1626 2.21022 12C2.80014 11.5974 3.59078 11.6598 4.11022 12.15L7.00022 15V3.99999C7.00022 3.44771 7.44793 2.99999 8.00022 2.99999C8.5525 2.99999 9.00022 3.44771 9.00022 3.99999V10.5C9.00022 10.7761 9.22408 11 9.50022 11C9.77636 11 10.0002 10.7761 10.0002 10.5V2.99999C10.0002 2.44771 10.4479 1.99999 11.0002 1.99999C11.5525 1.99999 12.0002 2.44771 12.0002 2.99999V10.5C12.0002 10.7761 12.2241 11 12.5002 11C12.7764 11 13.0002 10.7761 13.0002 10.5V8.83999Z" fill="currentColor" fill-rule="evenodd" clip-rule="evenodd" />
</svg>
