<svg xmlns="http://www.w3.org/2000/svg" viewBox="0 0 24 24">
    <path d="M21 5.5V15.41C21.0042 16.462 20.7318 17.4965 20.21 18.41L17.58 23C17.2213 23.6213 16.5574 24.0028 15.84 24H10.48C9.52152 23.989 8.59886 23.6341 7.88001 23L3.75001 19.5C2.63932 18.55 1.99991 17.1616 2.00001 15.7V10C1.9979 9.48104 2.39314 9.0467 2.91001 9C3.45586 8.97541 3.988 9.17522 4.38277 9.55299C4.77754 9.93076 5.00056 10.4536 5.00001 11V13.65C5.00037 14.2295 5.2521 14.7804 5.69001 15.16L6.00001 15.43V2.5C6.00001 1.67157 6.67158 1 7.50001 1C8.32844 1 9.00001 1.67157 9.00001 2.5V10.5C9.00001 10.7761 9.22387 11 9.50001 11C9.77615 11 10 10.7761 10 10.5V1.5C10 0.671573 10.6716 0 11.5 0C12.3284 0 13 0.671573 13 1.5V10.5C13 10.7761 13.2239 11 13.5 11C13.7762 11 14 10.7761 14 10.5V2.5C14 1.67157 14.6716 1 15.5 1C16.3284 1 17 1.67157 17 2.5V10.5C17 10.7761 17.2239 11 17.5 11C17.7762 11 18 10.7761 18 10.5V5.5C18 4.67157 18.6716 4 19.5 4C20.3284 4 21 4.67157 21 5.5Z" fill="currentColor" />
</svg>
