<svg xmlns="http://www.w3.org/2000/svg" viewBox="0 0 24 24">
    <path d="M20 12.74V15.41C20.0042 16.462 19.7318 17.4965 19.21 18.41L16.58 23C16.2213 23.6213 15.5574 24.0028 14.84 24H11.49C10.6946 23.9993 9.93207 23.6828 9.37 23.12L5.75 19.5C4.63931 18.55 3.9999 17.1616 4 15.7V14C4 12.8954 4.89543 12 6 12V13.65C6.00036 14.2295 6.25209 14.7804 6.69 15.16L7 15.47V10C7 9.46957 7.21071 8.96086 7.58579 8.58579C7.96086 8.21071 8.46957 8 9 8H10V10.5C10 10.7761 10.2239 11 10.5 11C10.7761 11 11 10.7761 11 10.5V1.5C11 0.671573 11.6716 0 12.5 0C13.3284 0 14 0.671573 14 1.5V10.5C14 10.7761 14.2239 11 14.5 11C14.7761 11 15 10.7761 15 10.5V8H15.48C16.1958 8.05021 16.8699 8.35533 17.38 8.86L19.12 10.6C19.6877 11.167 20.0046 11.9377 20 12.74Z" fill="currentColor" />
</svg>
