<svg xmlns="http://www.w3.org/2000/svg" viewBox="0 0 24 24">
    <path d="M19.9609 5.90444L18.155 12.6587C18.0673 12.9847 18.0203 13.3203 18.0154 13.6579V22.0008C18.0154 22.5527 17.5687 23 17.0177 23H10.9816C10.4306 23 9.98395 22.5527 9.98395 22.0008V21.8909C9.98329 21.3423 9.6853 20.8373 9.20575 20.5721L5.99318 18.8335C5.02663 18.3025 4.32246 17.3948 4.04768 16.3256L3.04998 12.329C2.91366 11.832 3.17726 11.3126 3.65858 11.13C4.1786 10.964 4.74384 11.0185 5.22265 11.2809C5.70146 11.5433 6.05204 11.9907 6.19271 12.5189L6.49202 13.6279C6.58565 13.9771 6.86038 14.2484 7.21036 14.3373L8.39761 14.6371C9.32424 14.8712 10.2865 14.4145 10.6923 13.548L10.9318 13.0384C11.3711 12.0993 11.0201 10.9797 10.1236 10.4606L9.80436 10.2807C9.35263 9.98848 8.80223 9.89121 8.27789 10.011L4.88574 11.0101C4.3689 11.1493 3.81716 11.0018 3.43835 10.6232C3.05954 10.2446 2.91122 9.69229 3.04925 9.17443C3.18728 8.65656 3.5907 8.25179 4.10754 8.11257L8.29785 6.98353C9.06575 6.77688 9.8842 6.88473 10.5726 7.28327L11.2311 7.67294C11.3851 7.7851 11.5894 7.79968 11.7577 7.71052C11.926 7.62136 12.029 7.44402 12.0231 7.25342C12.0172 7.06281 11.9034 6.8922 11.7299 6.81367L10.0837 5.81451L9.07605 3.01688C8.92123 2.60073 8.95866 2.13725 9.17825 1.75144C9.39784 1.36562 9.77698 1.0972 10.2134 1.01856C10.9466 0.90495 11.6588 1.32206 11.9195 2.01772L14.3139 8.62214C14.4129 8.87372 14.6938 9.00076 14.9477 8.90879C15.2016 8.81681 15.3364 8.53921 15.2518 8.28243L13.9747 4.83534V2.5173C13.9747 1.68957 14.6447 1.01856 15.4713 1.01856C16.2978 1.01856 16.9678 1.68957 16.9678 2.5173V7.51308C16.9678 7.78899 17.1911 8.01266 17.4666 8.01266C17.7421 8.01266 17.9655 7.78899 17.9655 7.51308V4.10596C18.2546 4.01536 18.5644 4.01536 18.8534 4.10596C19.6501 4.30329 20.1425 5.10293 19.9609 5.90444Z" fill="currentColor" />
</svg>
