<svg xmlns="http://www.w3.org/2000/svg" viewBox="0 0 24 24">
    <path d="M11.49 24C10.6946 23.9993 9.93207 23.6828 9.37 23.12L5.75 19.5C4.63931 18.55 3.9999 17.1616 4 15.7V14C4 12.8955 4.89543 12 6 12V13.65C6.00036 14.2296 6.25209 14.7804 6.69 15.16L7 15.47V10.76L5.66 3.14004C5.53368 2.59903 5.71673 2.03251 6.13573 1.66769C6.55472 1.30288 7.14104 1.19953 7.65953 1.39909C8.17801 1.59865 8.54373 2.06844 8.61 2.62004L10.02 10.62C10.0595 10.859 10.2678 11.0333 10.51 11.03C10.743 11.0284 10.9412 10.8598 10.98 10.63L12.39 2.63004C12.4563 2.07844 12.822 1.60865 13.3405 1.40909C13.859 1.20953 14.4453 1.31288 14.8643 1.67769C15.2833 2.04251 15.4663 2.60903 15.34 3.15004L14.48 8.00004C15.1958 8.05025 15.8699 8.35537 16.38 8.86004L19.12 11.6C19.6877 12.167 20.0046 12.9377 20 13.74V15.41C20.0042 16.462 19.7318 17.4966 19.21 18.41L16.58 23C16.2213 23.6213 15.5574 24.0029 14.84 24H11.49Z" fill="currentColor" />
</svg>
