<svg xmlns="http://www.w3.org/2000/svg" viewBox="0 0 24 24">
    <path d="M16.4992 4H15.4994C15.2233 4 14.9995 3.77614 14.9995 3.5V1.5C14.9995 1.22386 15.2233 1 15.4994 1H16.4992C16.7752 1 16.999 1.22386 16.999 1.5V3.5C16.999 3.77614 16.7752 4 16.4992 4ZM14.4418 15.735C14.4418 15.6017 14.495 15.4739 14.5896 15.38L18.7086 11.26C19.0962 10.87 19.0962 10.24 18.7086 9.85C18.5209 9.66069 18.2654 9.5542 17.9988 9.5542C17.7322 9.5542 17.4767 9.66069 17.289 9.85L13.17 13.97C12.9756 14.1606 12.6645 14.1606 12.4702 13.97C12.3755 13.8761 12.3223 13.7483 12.3223 13.615C12.3223 13.4817 12.3755 13.3539 12.4702 13.26L17.7789 7.95C18.1665 7.55996 18.1665 6.93004 17.7789 6.54C17.5911 6.35069 17.3356 6.2442 17.069 6.2442C16.8025 6.2442 16.5469 6.35069 16.3592 6.54L11.0505 11.85C10.9237 11.9768 10.7389 12.0264 10.5657 11.9799C10.3925 11.9335 10.2572 11.7982 10.2108 11.6249C10.1644 11.4517 10.2139 11.2668 10.3407 11.14L14.7796 6.71C14.9689 6.52223 15.0753 6.26664 15.0753 6C15.0753 5.73336 14.9689 5.47777 14.7796 5.29C14.3897 4.90228 13.7599 4.90228 13.3699 5.29L6.13173 12.53V11.94C6.13131 11.4119 6.33976 10.905 6.71159 10.53L7.8813 9.36C8.46062 8.77212 8.46062 7.82788 7.8813 7.24C7.68354 7.04822 7.36924 7.04822 7.17148 7.24L3.17247 11.24C2.4227 11.9908 2.00192 13.0088 2.00276 14.07V19.34C1.95236 20.2361 2.27017 21.1139 2.88254 21.77L4.29219 23.12C4.85412 23.6828 5.61648 23.9993 6.41166 24C7.42933 24.0009 8.43049 23.7428 9.32094 23.25L12.4102 21.53C12.8169 21.3024 13.1904 21.0197 13.5199 20.69L18.7086 15.51C18.9622 15.2563 19.0613 14.8866 18.9684 14.5401C18.8756 14.1936 18.605 13.923 18.2586 13.8301C17.9122 13.7373 17.5426 13.8363 17.289 14.09L15.2895 16.09C15.0951 16.2806 14.784 16.2806 14.5896 16.09C14.495 15.9961 14.4418 15.8683 14.4418 15.735ZM21.298 3.4L20.5982 2.7C20.5043 2.60534 20.3765 2.5521 20.2432 2.5521C20.11 2.5521 19.9822 2.60534 19.8883 2.7L18.4687 4.11C18.2769 4.30781 18.2769 4.62219 18.4687 4.82L19.1785 5.53C19.3763 5.72178 19.6906 5.72178 19.8883 5.53L21.298 4.11C21.3926 4.01612 21.4458 3.88832 21.4458 3.755C21.4458 3.62168 21.3926 3.49388 21.298 3.4ZM20.4982 7H22.4977C22.7738 7 22.9976 7.22386 22.9976 7.5V8.5C22.9976 8.77614 22.7738 9 22.4977 9H20.4982C20.2221 9 19.9983 8.77614 19.9983 8.5V7.5C19.9983 7.22386 20.2221 7 20.4982 7Z" fill="currentColor" fill-rule="evenodd" clip-rule="evenodd" />
</svg>
