<svg xmlns="http://www.w3.org/2000/svg" viewBox="0 0 24 24">
    <path d="M9 14H4C2.89543 14 2 13.1046 2 12V9.16C2.00152 8.39621 2.14741 7.63959 2.43 6.93L3.5 4.26C3.8019 3.50194 4.53404 3.00329 5.35 3H11.59C12.4941 3.00065 13.361 3.36035 14 4C14.639 4.63965 15.5059 4.99935 16.41 5H17V12.95H16.11C15.419 12.9486 14.7762 13.304 14.41 13.89L13.19 15.89C12.7394 16.6087 12.0749 17.1683 11.29 17.49L10.86 17.66C10.3165 17.8786 9.89615 18.3245 9.71 18.88L9.11 20.66C9.04181 20.8619 8.85312 20.9984 8.64 21H8.5C8.09869 21 7.71409 20.8393 7.43221 20.5536C7.15032 20.268 6.99465 19.8813 7 19.48V19.11C6.98039 18.4162 7.13511 17.7285 7.45 17.11L9 14ZM19.5 4C19.2239 4 19 4.22386 19 4.5V13.5C19 13.7761 19.2239 14 19.5 14H21.5C21.7761 14 22 13.7761 22 13.5V4.5C22 4.22386 21.7761 4 21.5 4H19.5Z" fill="currentColor" fill-rule="evenodd" clip-rule="evenodd" />
</svg>
