<svg xmlns="http://www.w3.org/2000/svg" viewBox="0 0 24 24">
    <path d="M23 4.07V8.18C22.9927 8.69286 22.7886 9.18332 22.43 9.55L20.71 11.31C20.3261 11.7201 19.8724 12.0587 19.37 12.31L18.6 12.7C18.2125 12.8975 17.8975 13.2125 17.7 13.6L17.28 14.45C17.1089 14.7895 16.7602 15.0026 16.38 15H16C15.4477 15 15 14.5523 15 14V13.65C14.9997 13.218 15.0707 12.7889 15.21 12.38L16 10H12.5C11.6716 10 11 9.32843 11 8.5V5.94C11.007 5.31941 11.1612 4.70934 11.45 4.16L12.45 2.11C12.7877 1.43034 13.4811 1.0004 14.24 1H19.09C19.683 1.00405 20.2624 1.17754 20.76 1.5L22.11 2.41C22.665 2.78026 22.9988 3.40286 23 4.07ZM3.29 12.66L1.57 14.42C1.20417 14.7941 0.999543 15.2967 1 15.82V19.93C1.00124 20.5971 1.33504 21.2197 1.89 21.59L3.24 22.5C3.73762 22.8225 4.31705 22.9959 4.91 23H9.76C10.5297 23.0111 11.2375 22.5794 11.58 21.89L12.58 19.84C12.8584 19.2881 13.0023 18.6781 13 18.06V15.5C13 14.6716 12.3284 14 11.5 14H8L8.79 11.62C8.92933 11.2111 9.00028 10.782 9 10.35V10C9 9.44771 8.55229 9 8 9H7.62C7.24641 8.99156 6.89928 9.19212 6.72 9.52L6.3 10.37C6.10252 10.7575 5.78748 11.0725 5.4 11.27L4.63 11.66C4.12761 11.9113 3.67388 12.2499 3.29 12.66Z" fill="currentColor" fill-rule="evenodd" clip-rule="evenodd" />
</svg>
