<svg xmlns="http://www.w3.org/2000/svg" viewBox="0 0 24 24">
    <path d="M19 19H22.5C22.7761 19 23 19.2239 23 19.5V20.5C23 20.7761 22.7761 21 22.5 21H1.5C1.22386 21 1 20.7761 1 20.5V19.5C1 19.2239 1.22386 19 1.5 19H5V4C5 3.44772 5.44772 3 6 3H18C18.5523 3 19 3.44772 19 4V19ZM16.5 5H7.5C7.22386 5 7 5.22386 7 5.5V19H17V5.5C17 5.22386 16.7761 5 16.5 5ZM15.5 11H14.5C14.2239 11 14 10.7761 14 10.5V9.5C14 9.22386 14.2239 9 14.5 9H15.5C15.7761 9 16 9.22386 16 9.5V10.5C16 10.7761 15.7761 11 15.5 11ZM8.5 11H9.5C9.77614 11 10 10.7761 10 10.5V9.5C10 9.22386 9.77614 9 9.5 9H8.5C8.22386 9 8 9.22386 8 9.5V10.5C8 10.7761 8.22386 11 8.5 11ZM10 12.5V13.5C10 13.7761 9.77614 14 9.5 14H8.5C8.22386 14 8 13.7761 8 13.5V12.5C8 12.2239 8.22386 12 8.5 12H9.5C9.77614 12 10 12.2239 10 12.5ZM15.5 12H14.5C14.2239 12 14 12.2239 14 12.5V13.5C14 13.7761 14.2239 14 14.5 14H15.5C15.7761 14 16 13.7761 16 13.5V12.5C16 12.2239 15.7761 12 15.5 12ZM15.5 8H14.5C14.2239 8 14 7.77614 14 7.5V6.5C14 6.22386 14.2239 6 14.5 6H15.5C15.7761 6 16 6.22386 16 6.5V7.5C16 7.77614 15.7761 8 15.5 8ZM10 7.5V6.5C10 6.22386 9.77614 6 9.5 6H8.5C8.22386 6 8 6.22386 8 6.5V7.5C8 7.77614 8.22386 8 8.5 8H9.5C9.77614 8 10 7.77614 10 7.5ZM12.5 11H11.5C11.2239 11 11 10.7761 11 10.5V9.5C11 9.22386 11.2239 9 11.5 9H12.5C12.7761 9 13 9.22386 13 9.5V10.5C13 10.7761 12.7761 11 12.5 11ZM12.5 12H11.5C11.2239 12 11 12.2239 11 12.5V13.5C11 13.7761 11.2239 14 11.5 14H12.5C12.7761 14 13 13.7761 13 13.5V12.5C13 12.2239 12.7761 12 12.5 12ZM8.5 16H15.5C15.7761 16 16 16.2239 16 16.5V17.5C16 17.7761 15.7761 18 15.5 18H8.5C8.22386 18 8 17.7761 8 17.5V16.5C8 16.2239 8.22386 16 8.5 16ZM11.5 8H12.5C12.7761 8 13 7.77614 13 7.5V6.5C13 6.22386 12.7761 6 12.5 6H11.5C11.2239 6 11 6.22386 11 6.5V7.5C11 7.77614 11.2239 8 11.5 8Z" fill="currentColor" fill-rule="evenodd" clip-rule="evenodd" />
</svg>
