<svg xmlns="http://www.w3.org/2000/svg" viewBox="0 0 24 24">
    <path d="M6 2H18C19.1046 2 20 2.89543 20 4V20C20 21.1046 19.1046 22 18 22H6C4.89543 22 4 21.1046 4 20V4C4 2.89543 4.89543 2 6 2ZM6 20H18V4H6V20ZM8.5 17H9.5C9.77614 17 10 16.7761 10 16.5V14H13C14.6569 14 16 12.6569 16 11V10C16 8.34315 14.6569 7 13 7H8.5C8.22386 7 8 7.22386 8 7.5V16.5C8 16.7761 8.22386 17 8.5 17ZM13 9H10V12H13C13.5523 12 14 11.5523 14 11V10C14 9.44772 13.5523 9 13 9Z" fill="currentColor" fill-rule="evenodd" clip-rule="evenodd" />
</svg>
