<svg xmlns="http://www.w3.org/2000/svg" viewBox="0 0 24 24">
    <path d="M18.0037 11V9.00002C18.0025 8.79817 18.1229 8.6154 18.3089 8.53667C18.4949 8.45795 18.71 8.49872 18.8542 8.64002L21.8561 11.64C22.048 11.8378 22.048 12.1522 21.8561 12.35L18.8542 15.35C18.7113 15.4901 18.4986 15.5315 18.3135 15.4553C18.1284 15.3792 18.0065 15.2001 18.0037 15V13H5.9963V15C5.99349 15.2001 5.87164 15.3792 5.68653 15.4553C5.50143 15.5315 5.28871 15.4901 5.14578 15.35L2.14393 12.35C1.95202 12.1522 1.95202 11.8378 2.14393 11.64L5.14578 8.64002C5.29002 8.49872 5.50513 8.45795 5.69112 8.53667C5.87711 8.6154 5.99749 8.79817 5.9963 9.00002V11H18.0037Z" fill="currentColor" />
</svg>
