<svg xmlns="http://www.w3.org/2000/svg" viewBox="0 0 24 24">
    <path d="M12.5 4H11.5C11.2 4 11 3.8 11 3.5V3V2.5C11 2.2 11.2 2 11.5 2H12.5C12.8 2 13 2.2 13 2.5V3V3.5C13 3.8 12.8 4 12.5 4ZM13 6.5C13 6.2 12.8 6 12.5 6H11.5C11.2 6 11 6.2 11 6.5V7V7.5C11 7.8 11.2 8 11.5 8H12.5C12.8 8 13 7.8 13 7.5V7V6.5ZM18.8 14.9L18.1 14.2C18 14.1 17.9 14.1 17.7 14.1C17.65 14.1 17.575 14.125 17.5 14.15L17.5 14.15C17.425 14.175 17.35 14.2 17.3 14.2L13 18.7V12V10.5C13 10.2 12.8 10 12.5 10H11.5C11.2 10 11 10.2 11 10.5V18.7L6.6 14.2C6.5 14.1 6.4 14.1 6.2 14.1C6.1 14.1 5.9 14.2 5.9 14.2L5.2 14.9C5.1 15 5 15.2 5 15.3C5 15.35 5.025 15.425 5.05 15.5C5.075 15.575 5.1 15.65 5.1 15.7L11.2 21.8C11.4 21.9 11.6 22 11.8 22H12.2C12.4 22 12.6 21.9 12.7 21.8L18.8 15.7C18.9 15.6 18.9 15.5 18.9 15.3C18.9 15.1 18.9 15 18.8 14.9Z" fill="currentColor" fill-rule="evenodd" clip-rule="evenodd" />
</svg>
