<svg xmlns="http://www.w3.org/2000/svg" viewBox="0 0 24 24">
    <path d="M16.2877 9.29505C16.2877 9.16174 16.2345 9.03394 16.1398 8.94005L12.3498 5.15005C12.2591 5.05338 12.1324 4.99854 11.9998 4.99854C11.8672 4.99854 11.7405 5.05338 11.6498 5.15005L7.85981 8.94005C7.76516 9.03394 7.71191 9.16174 7.71191 9.29505C7.71191 9.42837 7.76516 9.55617 7.85981 9.65005L8.05981 9.85005C8.15389 9.94771 8.28423 10.002 8.41981 10.0001H15.5798C15.7154 10.002 15.8457 9.94771 15.9398 9.85005L16.1398 9.65005C16.2345 9.55617 16.2877 9.42837 16.2877 9.29505ZM7.71191 14.7051C7.71191 14.8384 7.76516 14.9662 7.85981 15.0601L11.6498 18.8501C11.7405 18.9467 11.8672 19.0016 11.9998 19.0016C12.1324 19.0016 12.2591 18.9467 12.3498 18.8501L16.1398 15.0601C16.2345 14.9662 16.2877 14.8384 16.2877 14.7051C16.2877 14.5717 16.2345 14.4439 16.1398 14.3501L15.9398 14.1501C15.8457 14.0524 15.7154 13.9981 15.5798 14.0001H8.41981C8.28423 13.9981 8.15389 14.0524 8.05981 14.1501L7.85981 14.3501C7.76516 14.4439 7.71191 14.5717 7.71191 14.7051Z" fill="currentColor" fill-rule="evenodd" clip-rule="evenodd" />
</svg>
