<svg xmlns="http://www.w3.org/2000/svg" viewBox="0 0 24 24">
    <path d="M16.2877 8.29505C16.2877 8.16174 16.2345 8.03394 16.1398 7.94005L12.3498 4.15005C12.2591 4.05338 12.1324 3.99854 11.9998 3.99854C11.8672 3.99854 11.7405 4.05338 11.6498 4.15005L7.85981 7.94005C7.76516 8.03394 7.71191 8.16174 7.71191 8.29505C7.71191 8.42837 7.76516 8.55617 7.85981 8.65005L8.05981 8.85005C8.15389 8.94771 8.28423 9.00202 8.41981 9.00005H15.5798C15.7154 9.00202 15.8457 8.94771 15.9398 8.85005L16.1398 8.65005C16.2345 8.55617 16.2877 8.42837 16.2877 8.29505ZM7.71191 15.7051C7.71191 15.8384 7.76516 15.9662 7.85981 16.0601L11.6498 19.8501C11.7405 19.9467 11.8672 20.0016 11.9998 20.0016C12.1324 20.0016 12.2591 19.9467 12.3498 19.8501L16.1398 16.0601C16.2345 15.9662 16.2877 15.8384 16.2877 15.7051C16.2877 15.5717 16.2345 15.4439 16.1398 15.3501L15.9398 15.1501C15.8457 15.0524 15.7154 14.9981 15.5798 15.0001H8.41981C8.28423 14.9981 8.15389 15.0524 8.05981 15.1501L7.85981 15.3501C7.76516 15.4439 7.71191 15.5717 7.71191 15.7051Z" fill="currentColor" fill-rule="evenodd" clip-rule="evenodd" />
</svg>
