<svg xmlns="http://www.w3.org/2000/svg" viewBox="0 0 24 24">
    <path d="M6.83003 3.92005C6.73537 3.82617 6.68213 3.69837 6.68213 3.56505C6.68213 3.43174 6.73537 3.30394 6.83003 3.21005L7.89003 2.15005C7.98076 2.05338 8.10744 1.99854 8.24003 1.99854C8.37261 1.99854 8.49929 2.05338 8.59003 2.15005L17.78 11.3401C17.9207 11.4806 17.9999 11.6712 18 11.8701V12.1301C17.9999 12.3289 17.9207 12.5195 17.78 12.6601L8.59003 21.8501C8.49929 21.9467 8.37261 22.0016 8.24003 22.0016C8.10744 22.0016 7.98076 21.9467 7.89003 21.8501L6.83003 20.7901C6.73537 20.6962 6.68213 20.5684 6.68213 20.4351C6.68213 20.3017 6.73537 20.1739 6.83003 20.0801L14.91 12.0001L6.83003 3.92005Z" fill="currentColor" />
</svg>
