<svg xmlns="http://www.w3.org/2000/svg" viewBox="0 0 24 24">
    <path d="M20.5 3H19.5C19.2239 3 19 3.22386 19 3.5V14H6.33L9.77 10.56C9.86406 10.4678 9.91707 10.3417 9.91707 10.21C9.91707 10.0783 9.86406 9.95216 9.77 9.86L9.06 9.15C8.96612 9.05534 8.83832 9.0021 8.705 9.0021C8.57168 9.0021 8.44388 9.05534 8.35 9.15L3.22 14.28C3.08112 14.4217 3.0023 14.6116 3 14.81V15.19C3.00018 15.3888 3.07931 15.5795 3.22 15.72L8.36 20.85C8.45388 20.9447 8.58168 20.9979 8.715 20.9979C8.84832 20.9979 8.97612 20.9447 9.07 20.85L9.78 20.15C9.87466 20.0561 9.9279 19.9283 9.9279 19.795C9.9279 19.6617 9.87466 19.5339 9.78 19.44L6.33 16H19C20.1046 16 21 15.1046 21 14V3.5C21 3.22386 20.7761 3 20.5 3Z" fill="currentColor" />
</svg>
