<svg xmlns="http://www.w3.org/2000/svg" viewBox="0 0 24 24">
    <path d="M6.72 7.00005H17.28C17.4405 6.99772 17.5906 6.91992 17.685 6.79007C17.7795 6.66023 17.8072 6.4935 17.76 6.34005C17.4848 5.3919 16.9799 4.52632 16.29 3.82005L16.93 2.76005C17.0229 2.60643 17.0268 2.41492 16.9402 2.25766C16.8536 2.10041 16.6897 2.00129 16.5102 1.99766C16.3307 1.99403 16.1629 2.08643 16.07 2.24005L15.52 3.15005C13.4284 1.64792 10.6116 1.64792 8.52 3.15005L7.97 2.24005C7.87711 2.08643 7.70932 1.99403 7.52983 1.99766C7.35035 2.00129 7.18643 2.10041 7.09983 2.25766C7.01324 2.41492 7.01711 2.60643 7.11 2.76005L7.75 3.82005C7.04562 4.52195 6.52674 5.3879 6.24 6.34005C6.19276 6.4935 6.22054 6.66023 6.31497 6.79007C6.4094 6.91992 6.55946 6.99772 6.72 7.00005ZM13.72 4.00005C14.1342 4.00005 14.47 4.33584 14.47 4.75005C14.47 5.16427 14.1342 5.50005 13.72 5.50005C13.3058 5.50005 12.97 5.16427 12.97 4.75005C12.9726 4.54671 13.0566 4.3529 13.2032 4.21195C13.3498 4.07101 13.5467 3.99468 13.75 4.00005H13.72ZM10.97 4.75005C10.97 4.33584 10.6342 4.00005 10.22 4.00005H10.25C10.0467 3.99468 9.84976 4.07101 9.70318 4.21195C9.55659 4.3529 9.47261 4.54671 9.47 4.75005C9.47 5.16427 9.80579 5.50005 10.22 5.50005C10.6342 5.50005 10.97 5.16427 10.97 4.75005ZM6.5 8.00005H17.5C17.7761 8.00005 18 8.22391 18 8.50005V16.0001C18 16.5523 17.5523 17.0001 17 17.0001H16V21.0001C16 21.5523 15.5523 22.0001 15 22.0001C14.4477 22.0001 14 21.5523 14 21.0001V17.0001H10V21.0001C10 21.5523 9.55228 22.0001 9 22.0001C8.44772 22.0001 8 21.5523 8 21.0001V17.0001H7C6.44772 17.0001 6 16.5523 6 16.0001V8.50005C6 8.22391 6.22386 8.00005 6.5 8.00005ZM19 10.0001C19 9.44777 19.4477 9.00005 20 9.00005C20.5523 9.00005 21 9.44777 21 10.0001V15.0001C21 15.5523 20.5523 16.0001 20 16.0001C19.4477 16.0001 19 15.5523 19 15.0001V10.0001ZM3 10.0001C3 9.44777 3.44772 9.00005 4 9.00005C4.55228 9.00005 5 9.44777 5 10.0001V15.0001C5 15.5523 4.55228 16.0001 4 16.0001C3.44772 16.0001 3 15.5523 3 15.0001V10.0001Z" fill="currentColor" fill-rule="evenodd" clip-rule="evenodd" />
</svg>
