<svg xmlns="http://www.w3.org/2000/svg" viewBox="0 0 24 24">
    <path d="M11.3462 6.56506C11.4594 6.66487 11.6104 6.71054 11.76 6.69021C12.7611 6.50561 13.6566 5.95259 14.27 5.14021C14.8664 4.38752 15.2156 3.46897 15.27 2.51021C15.2745 2.35134 15.2046 2.19945 15.0811 2.09945C14.9576 1.99945 14.7945 1.96275 14.64 2.00021C13.6751 2.25217 12.8121 2.79722 12.17 3.56021C11.5599 4.29728 11.2086 5.2142 11.17 6.17021C11.1686 6.32116 11.2329 6.46525 11.3462 6.56506ZM18.7025 9.22574C18.1109 9.7809 17.18 10.6545 17.18 12.5102C17.1661 14.1672 18.076 15.694 19.54 16.4702C19.7211 16.552 19.8382 16.7315 19.84 16.9302C19.84 17.0002 17.74 22.0002 15.22 22.0002C14.6683 22.0002 14.3006 21.8264 13.8979 21.6359C13.41 21.4053 12.8705 21.1502 11.89 21.1502C10.9236 21.1502 10.3828 21.398 9.88507 21.626C9.46094 21.8203 9.06815 22.0002 8.47001 22.0002C6.15001 22.0002 3.00001 17.1402 3.00001 12.7502C2.96015 11.5102 3.26846 10.2839 3.89001 9.21021C4.76661 7.72454 6.32762 6.77518 8.05001 6.68021C8.86168 6.68021 9.52612 6.91911 10.1546 7.14508C10.7186 7.34785 11.2536 7.54021 11.84 7.54021C12.3999 7.54021 12.8517 7.3649 13.3473 7.17258C13.9495 6.93894 14.6163 6.68021 15.62 6.68021C17.45 6.68021 19.18 8.00021 19.18 8.59021C19.18 8.77768 18.9781 8.96718 18.7025 9.22574Z" fill="currentColor" fill-rule="evenodd" clip-rule="evenodd" />
</svg>
