<svg xmlns="http://www.w3.org/2000/svg" viewBox="0 0 24 24">
    <path d="M12 2C6.47715 2 2 6.47715 2 12C2 17.5228 6.47715 22 12 22C17.5228 22 22 17.5228 22 12C22 9.34784 20.9464 6.8043 19.0711 4.92893C17.1957 3.05357 14.6522 2 12 2ZM20 12C18.8548 11.6562 17.6657 11.481 16.47 11.48C15.7586 11.4895 15.0494 11.5598 14.35 11.69C14.1 11.08 13.84 10.49 13.56 9.9C15.2046 9.07832 16.7042 7.9941 18 6.69C19.2979 8.15324 20.0101 10.0441 20 12ZM12.87 8.58C14.3538 7.83569 15.7051 6.85259 16.87 5.67C15.475 4.59193 13.763 4.00484 12 4C11.3527 4.00261 10.708 4.08319 10.08 4.24C11.123 5.61081 12.0559 7.062 12.87 8.58ZM8.62 4.76C9.7038 6.158 10.6704 7.64304 11.51 9.2C9.75354 9.88589 7.88561 10.2419 6 10.25C5.40851 10.2435 4.81774 10.2068 4.23 10.14C4.79821 7.77197 6.41409 5.79169 8.62 4.76ZM4 11.62V12C4.00464 13.9731 4.73829 15.875 6.06 17.34C7.61601 14.8096 10.0405 12.9326 12.88 12.06C12.67 11.54 12.43 11.04 12.19 10.54L12.19 10.54C10.2224 11.3333 8.12151 11.744 6 11.75C5.3313 11.7477 4.66337 11.7043 4 11.62ZM7.18 18.37C8.55169 15.9963 10.7814 14.239 13.41 13.46C14.1131 15.403 14.6125 17.4138 14.9 19.46C12.3151 20.4769 9.38658 20.0672 7.18 18.38V18.37ZM14.89 13.12C15.5282 14.9444 16.0034 16.8217 16.31 18.73C18.1461 17.5574 19.4245 15.6867 19.85 13.55C18.76 13.1869 17.6188 13.0012 16.47 13C15.9412 13.0048 15.4134 13.0449 14.89 13.12Z" fill="currentColor" fill-rule="evenodd" clip-rule="evenodd" />
</svg>
