<svg xmlns="http://www.w3.org/2000/svg" viewBox="0 0 24 24">
    <path d="M3 10.5C3 5.811 6.81 2 11.5 2C16.19 2 20 5.811 20 10.5C20 16.58 16.5 20.28 11.66 21.97C11.34 22.09 11 21.84 11 21.5V18.99C6.54 18.73 3 15.02 3 10.5ZM10.75 11.75C10.75 13.201 9.72 14.412 8.35 14.689C8.203 14.72 8.05 14.683 7.934 14.587C7.817 14.492 7.75 14.35 7.75 14.2V13.687C7.75 13.459 7.904 13.26 8.125 13.203C8.771 13.036 9.25 12.449 9.25 11.75H7.5C7.224 11.75 7 11.526 7 11.25V8.5C7 8.224 7.224 8 7.5 8H10.25C10.526 8 10.75 8.224 10.75 8.5V11.75ZM16 11.75C16 13.201 14.97 14.412 13.6 14.689C13.453 14.72 13.3 14.683 13.184 14.587C13.067 14.492 13 14.35 13 14.2V13.687C13 13.459 13.154 13.26 13.375 13.203C14.021 13.036 14.5 12.449 14.5 11.75H12.75C12.474 11.75 12.25 11.526 12.25 11.25V8.5C12.25 8.224 12.474 8 12.75 8H15.5C15.776 8 16 8.224 16 8.5V11.75Z" fill="currentColor" fill-rule="evenodd" clip-rule="evenodd" />
</svg>
