<svg xmlns="http://www.w3.org/2000/svg" viewBox="0 0 24 24">
    <path d="M17.1016 2.03223C19.7951 2.03223 22.001 4.23725 22.001 6.92773V17.0723C22.001 19.7658 19.7951 21.9678 17.1016 21.9678H6.89551C4.20519 21.9676 2.00098 19.7657 2.00098 17.0723V6.92773C2.00098 4.23738 4.20519 2.03244 6.89551 2.03223H17.1016ZM12.4961 9.45312C12.0107 9.4532 11.5769 9.56973 11.1953 9.80176C10.8108 10.0247 10.5118 10.339 10.292 10.748C10.0813 11.1481 9.97364 11.6061 9.97363 12.1191C9.97363 12.6322 10.0813 13.0938 10.292 13.5C10.5027 13.8936 10.8138 14.2203 11.1953 14.4492C11.5769 14.6721 12.0107 14.7851 12.4961 14.7852V14.7822C12.9236 14.7822 13.3059 14.6937 13.6357 14.5166C13.9686 14.3334 14.2405 14.113 14.4512 13.8564L14.6895 14.6846H15.541V9.55371H14.6895L14.4512 10.3818C14.2405 10.1254 13.9685 9.90855 13.6357 9.73145C13.3059 9.54821 12.9236 9.45312 12.4961 9.45312ZM2.97754 9.55371V14.6846H4.06738V10.876H4.22656L5.51562 14.6846H6.48047L7.83008 10.876H7.98926V14.6846H9.0791V9.55371H7.3418L6.10156 13.0752H5.94336L4.75195 9.55371H2.97754ZM16.418 9.55371L17.8652 12.0615L16.2285 14.6846H17.5205L18.6992 12.7422H18.8887L19.9912 14.6846H21.3193L19.6826 11.9912L21.1328 9.55371H19.8721L18.8574 11.2793H18.6719L17.7061 9.55371H16.418ZM12.7744 10.4697C13.2569 10.4697 13.6481 10.6261 13.9443 10.9346C14.2495 11.2369 14.4023 11.6337 14.4023 12.1191C14.4023 12.6047 14.2497 13.005 13.9443 13.3135C13.6481 13.6158 13.2569 13.7686 12.7744 13.7686C12.2982 13.7685 11.9106 13.6156 11.6113 13.3135C11.3151 13.005 11.165 12.6047 11.165 12.1191C11.165 11.6336 11.3151 11.2369 11.6113 10.9346C11.9106 10.6262 12.298 10.4697 12.7744 10.4697Z" fill="currentColor" />
</svg>
