<svg xmlns="http://www.w3.org/2000/svg" viewBox="0 0 24 24">
    <path d="M12.2167 21.9444C10.2517 21.9444 9.3389 21.6556 7.75647 20.4996C6.74937 21.8002 3.57927 22.812 3.43967 21.0776C3.43967 19.7781 3.14924 18.6832 2.82893 17.4782C2.43664 16.0018 2.00049 14.3594 2.00049 11.9725C2.00049 6.2813 6.65071 2 12.1648 2C17.6776 2 22.0005 6.48946 22.0005 12.028C22.0005 17.5658 17.5397 21.9446 12.2164 21.9446L12.2167 21.9444ZM12.2962 6.92082C9.61344 6.77978 7.51996 8.64844 7.0583 11.5735C6.67563 13.996 7.35369 16.9477 7.93338 17.0962C8.20705 17.1661 8.90741 16.5974 9.33861 16.1639C10.049 16.626 10.8635 16.9843 11.7692 17.0314C14.5236 17.1763 16.9641 15.0125 17.1087 12.2472C17.2534 9.48185 15.0509 7.06583 12.2964 6.92082H12.2962Z" fill="currentColor" fill-rule="evenodd" clip-rule="evenodd" />
</svg>
