<svg xmlns="http://www.w3.org/2000/svg" viewBox="0 0 24 24">
    <path d="M20 9.01402C20 13.2124 17.59 16.028 14 16.028C12.7329 16.0992 11.4936 15.638 10.58 14.7555L9.92 17.8717C9.74631 18.6287 9.46689 19.3573 9.09 20.0361L8.09 21.8196C8.02757 21.9322 7.90855 22.0015 7.78 22C7.7036 21.9996 7.63093 21.9669 7.58 21.9098C7.52949 21.8552 7.50099 21.7838 7.5 21.7094L7.58 19.7054C7.60151 19.2474 7.65834 18.7918 7.75 18.3427L9.18 11.7194C9.05402 10.9679 8.99379 10.2069 9 9.44488C9 8.87374 9.09 6.00801 10.79 6.00801C11.1735 5.99199 11.5427 6.15478 11.79 6.44889C12.1142 6.97023 12.1911 7.60873 12 8.19238L11.24 11.7495C11.3032 12.4186 11.63 13.0348 12.148 13.4617C12.6661 13.8887 13.3326 14.091 14 14.024C16.95 14.024 18 11.4389 18 9.01402C18 6.10821 15.48 4.00401 12 4.00401C8.69 4.00401 6 6.24849 6 9.01402C6.01537 10.0761 6.42541 11.0944 7.15 11.8697C7.25846 11.9888 7.30311 12.1529 7.27 12.3106L7 13.483C6.96669 13.6636 6.8355 13.8105 6.66 13.8637C6.48704 13.9174 6.29861 13.8712 6.17 13.7435C4.82006 12.5392 4.03342 10.8248 4 9.01402C4 5.14629 7.59 2 12 2C16.41 2 20 5.00601 20 9.01402Z" fill="currentColor" />
</svg>
