<svg xmlns="http://www.w3.org/2000/svg" viewBox="0 0 24 24">
    <path d="M19.5061 9.00002C20.8834 9.00002 21.9999 10.1193 21.9999 11.5C22.0062 12.2939 21.636 13.0437 21.0024 13.52C21.0123 13.6799 21.0123 13.8402 21.0024 14C21.0024 17.31 17.0122 20 12.0245 20C7.03681 20 3.04665 17.31 3.04665 14C3.03676 13.8402 3.03676 13.6799 3.04665 13.52C2.15601 12.8865 1.78264 11.7441 2.12661 10.705C2.47058 9.666 3.45119 8.97406 4.54296 9.00002C5.08652 9.00567 5.61282 9.19209 6.03927 9.53002C7.68451 8.58105 9.53862 8.05539 11.436 8.00002L12.0744 4.22002C12.2196 3.38338 12.943 2.77201 13.7902 2.77002C13.9554 2.77297 14.1195 2.79649 14.279 2.84002L17.4312 3.76002C18.0228 3.00862 19.0626 2.78283 19.9114 3.22148C20.7602 3.66012 21.1799 4.64017 20.9125 5.55915C20.6451 6.47813 19.7656 7.07833 18.8147 6.99077C17.8638 6.90321 17.1081 6.15245 17.0122 5.20002L13.8799 4.24002H13.8101C13.6887 4.23907 13.5859 4.3293 13.5707 4.45002L12.9522 8.00002C14.7345 8.10496 16.4671 8.62911 18.0098 9.53002C18.4362 9.19209 18.9625 9.00567 19.5061 9.00002ZM8.53312 11C7.70673 11 7.03681 11.6716 7.03681 12.5C7.03681 13.3284 7.70673 14 8.53312 14C9.35951 14 10.0294 13.3284 10.0294 12.5C10.0294 11.6716 9.35951 11 8.53312 11ZM15.2266 16.94C15.1913 17.0767 15.101 17.1926 14.9772 17.26C13.1318 18.2467 10.9172 18.2467 9.07179 17.26C8.94806 17.1926 8.85776 17.0767 8.82241 16.94C8.79355 16.8014 8.82237 16.6569 8.90221 16.54L9.1915 16.13C9.34029 15.9301 9.61513 15.8742 9.82992 16C11.2167 16.6696 12.8323 16.6696 14.2191 16C14.4412 15.8803 14.7178 15.9496 14.8575 16.16L15.1468 16.57C15.2188 16.6789 15.2473 16.811 15.2266 16.94ZM14.0196 12.5C14.0196 13.3284 14.6895 14 15.5159 14C16.3423 14 17.0122 13.3284 17.0122 12.5C17.0122 11.6716 16.3423 11 15.5159 11C14.6895 11 14.0196 11.6716 14.0196 12.5Z" fill="currentColor" fill-rule="evenodd" clip-rule="evenodd" />
</svg>
