<svg xmlns="http://www.w3.org/2000/svg" viewBox="0 0 24 24">
    <path d="M13.2827 19.9969C12.8031 20.7997 12.4108 21.639 12.1057 22.5148C11.9109 23.1397 11.7887 23.7444 11.7569 23.9372V20.6903C11.8005 18.4278 12.6724 16.4938 14.0673 14.5598C14.5469 13.8665 15.1027 13.2005 15.6585 12.5346C16.2143 11.8686 16.7701 11.2027 17.2496 10.5093C17.3804 10.5823 17.4676 10.6553 17.5548 10.7283C17.8599 10.9837 17.9907 11.4216 18.0343 11.823C18.0779 12.2244 18.0779 12.6623 17.9907 13.1002C17.8599 13.9395 17.2932 14.7058 16.7265 15.4356C16.1598 16.2019 15.5495 16.9317 14.9392 17.6615C14.5905 18.0264 14.3289 18.3913 14.0673 18.7927C13.8639 19.0603 13.6992 19.3279 13.5345 19.5955C13.4522 19.7293 13.3699 19.8631 13.2827 19.9969ZM11.7569 23.9744C11.7458 24.021 11.746 24.0034 11.7569 23.9372V23.9744ZM5.56671 12.2609C5.34874 12.6623 5.13078 13.0637 5 13.5016V12.0784C5 11.2756 5.04359 10.3634 5.13078 9.52409C5.30515 8.17393 6.2206 6.96974 7.09246 5.83852C8.66181 3.79504 10.4491 1.86103 12.2364 0V4.7438C10.7979 6.05747 9.44648 7.44412 8.13869 8.86726C7.4848 9.56058 6.91809 10.3269 6.35138 11.0932C6.08983 11.4581 5.82828 11.8595 5.56673 12.2609L5.56671 12.2609ZM6.8674 12.1509C7.21615 12.2604 7.65208 12.2969 8.17519 12.1144C9.1862 11.7889 10.0238 10.9989 10.7498 10.3141C10.8377 10.2312 10.924 10.1498 11.0087 10.071C11.406 9.69094 11.8032 9.26393 12.2112 8.82534C13.3703 7.57932 14.6164 6.23986 16.1963 5.61908C19.4158 4.34249 19.0539 8.99299 18.9109 10.8304C18.9067 10.8838 18.9028 10.9348 18.8991 10.9832C18.8119 10.7643 18.6811 10.5818 18.5067 10.3994C18.2888 10.1804 18.0272 10.0345 17.7221 9.96148C17.5913 9.92499 17.4169 9.8885 17.2861 9.8885H17.0682H16.8502C16.1963 9.99797 15.7168 10.2534 15.2808 10.5453C14.409 11.1292 13.6679 11.786 12.9704 12.4793C12.2729 13.1727 11.5754 13.866 10.878 14.5228C10.1805 15.1797 9.43939 15.873 8.61112 16.3474C8.17519 16.5663 7.73926 16.7488 7.30333 16.7123C6.82381 16.6758 6.43148 16.4568 6.21351 16.1284C5.99555 15.8 5.90836 15.3986 5.90836 14.9607C5.90836 14.5228 5.99555 14.0849 6.08273 13.6835C6.21351 13.2821 6.43148 12.8807 6.64944 12.4793C6.69303 12.4246 6.72573 12.3699 6.75842 12.3151C6.79112 12.2604 6.82381 12.2057 6.8674 12.1509Z" fill="currentColor" fill-rule="evenodd" clip-rule="evenodd" />
</svg>
