<svg xmlns="http://www.w3.org/2000/svg" viewBox="0 0 24 24">
    <path d="M19.9674 3C20.4884 3.01541 20.9828 3.2349 21.3449 3.61158C21.8565 4.10193 22.089 4.81743 21.9638 5.51649L19.3385 19.1516C19.2235 19.786 18.8214 20.3306 18.2505 20.6254L17.9211 20.7959C17.2348 21.1332 16.4171 21.0476 15.8149 20.5753L12.7404 18.139L11.1533 19.6429C10.8334 19.9503 10.4082 20.1226 9.96544 20.1241C9.84611 20.1389 9.72542 20.1389 9.60609 20.1241C8.97159 19.9801 8.46615 19.4994 8.28846 18.8709L6.99081 14.4696L2.68857 13.0258C2.26001 12.8861 1.97779 12.4753 1.99982 12.0233V11.3716C1.96783 10.9379 2.21777 10.533 2.6187 10.369L19.1888 3.16041C19.435 3.05507 19.6998 3.00052 19.9674 3ZM17.5717 19.3221C17.7282 19.2374 17.8382 19.0864 17.8712 18.911L20.4565 5.27587C20.4943 5.07697 20.4349 4.87191 20.2968 4.72444C20.2013 4.61334 20.0636 4.54782 19.9175 4.54398C19.8584 4.52991 19.7969 4.52991 19.7378 4.54398L3.49711 11.6222L7.99899 13.1662C8.13476 13.2311 8.29244 13.2311 8.42821 13.1662L15.9746 8.38387C16.1207 8.31643 16.2937 8.35781 16.3938 8.48413C16.465 8.55116 16.5018 8.64716 16.4937 8.74481C16.4902 8.84432 16.447 8.93826 16.3739 9.00548C15.2359 9.96796 13.3294 11.6523 10.1451 14.66C10.0434 14.7564 9.98566 14.8906 9.9854 15.031V18.5701C10.0358 18.5674 10.0844 18.55 10.1251 18.52L12.3411 16.4246C12.5263 16.2598 12.8048 16.2598 12.99 16.4246L16.7432 19.4323C16.8241 19.5017 16.9264 19.5406 17.0327 19.5426C17.1055 19.5429 17.1774 19.5257 17.2423 19.4925L17.5717 19.3221Z" fill="currentColor" fill-rule="evenodd" clip-rule="evenodd" />
</svg>
