<svg xmlns="http://www.w3.org/2000/svg" viewBox="0 0 24 24">
    <path d="M4.8 3H19.2C20.1918 3.00546 20.9945 3.80816 21 4.8V19.2C20.9945 20.1918 20.1918 20.9945 19.2 21H4.8C3.80816 20.9945 3.00546 20.1918 3 19.2V4.8C3.00546 3.80816 3.80816 3.00546 4.8 3ZM11.23 18C12.5633 18 14.19 16.7733 16.11 14.32C17.97 11.98 18.9133 10.1333 18.94 8.78C19.08 7 18.39 6 16.94 6C15.2031 5.93151 13.6468 7.06561 13.18 8.74C13.1314 8.81985 13.1314 8.92015 13.18 9C13.236 9.06686 13.3262 9.09432 13.41 9.07C13.6039 9.02758 13.8015 9.00414 14 9C14.72 9 15 9.43 14.91 10.22C14.7306 10.9804 14.3895 11.6932 13.91 12.31C13.31 13.23 12.91 13.69 12.57 13.69C12.23 13.69 11.88 12.98 11.57 11.57C11.46 11.15 11.23 9.97 11 8.39C10.77 6.81 10.09 6.07 9 6.18C8.21234 6.40266 7.49797 6.83059 6.93 7.42C6.4173 7.92401 5.8895 8.3525 5.33348 8.80391C5.24964 8.87197 5.16516 8.94056 5.08 9.01C4.94778 9.14268 4.94778 9.35732 5.08 9.49L5.33 9.81C5.44165 9.95711 5.65032 9.98819 5.8 9.88C6.05418 9.68109 6.33751 9.52256 6.64 9.41C7.13 9.41 7.58 10.16 8 11.65L9.14 15.76C9.71 17.25 10.41 18 11.23 18Z" fill="currentColor" fill-rule="evenodd" clip-rule="evenodd" />
</svg>
