<svg xmlns="http://www.w3.org/2000/svg" viewBox="0 0 24 24">
    <path d="M17.103 16.0902C14.4924 19.3635 12.2824 21.0002 10.4729 21.0002C9.35124 21.0002 8.3998 20.0002 7.62863 18.0002L6.07627 12.5302C5.5054 10.5302 4.89447 9.53016 4.22345 9.53016C3.81238 9.6796 3.42717 9.89215 3.08172 10.1602C2.87747 10.2962 2.60276 10.2527 2.45076 10.0602L2.11024 9.64016C2.03087 9.5491 1.99147 9.43002 2.00088 9.30967C2.0103 9.18932 2.06775 9.0778 2.16032 9.00016C3.0016 8.31016 3.82284 7.60016 4.62406 6.90016C5.41158 6.10432 6.39657 5.53148 7.4784 5.24016C8.96065 5.08016 9.87871 6.06349 10.2326 8.19016C10.6031 10.4602 10.8635 11.8702 11.0138 12.4302C11.4344 14.3102 11.9051 15.2502 12.4259 15.2502C12.8365 15.2502 13.4274 14.6402 14.2487 13.4102C14.8742 12.5868 15.3148 11.6387 15.5406 10.6302C15.6508 9.58016 15.2101 9.00016 14.2487 9.00016C13.9788 9.00449 13.7101 9.03802 13.4475 9.10016C13.3272 9.13968 13.195 9.09969 13.117 9.00016C13.0346 8.92368 12.9969 8.81066 13.0168 8.70016C14.0183 6.16016 15.7409 4.94016 18.2047 5.00016C20.2077 5.06016 21.1091 6.30016 20.9889 8.71016C20.9388 10.5102 19.6269 13.0002 17.103 16.0902Z" fill="currentColor" />
</svg>
