<svg xmlns="http://www.w3.org/2000/svg" viewBox="0 0 24 24">
    <path d="M21.9827 17.4273C22.0209 17.5611 21.9951 17.705 21.9129 17.8172C21.8313 17.9288 21.702 17.9955 21.5638 17.9971H18.5716C18.1982 17.9978 17.8557 17.7896 17.6839 17.4573C17.2917 16.6782 16.7877 15.9608 16.1878 15.3283C15.9839 15.1111 15.6973 14.9912 15.3999 14.9984H15.0009C14.7345 14.9898 14.4769 15.0952 14.2927 15.2883C14.106 15.4769 14.002 15.7323 14.0035 15.998V16.9975C14.0035 17.5496 13.5569 17.9971 13.0061 17.9971H11.9488C6.75238 17.9971 2.45357 8.84122 2.03466 7.61178C1.97495 7.47028 1.99325 7.3078 2.08293 7.1832C2.17262 7.0586 2.32069 6.98993 2.47352 7.00206H5.46573C5.84131 7.0032 6.18441 7.21568 6.35342 7.55181C7.0299 8.82262 7.80353 10.039 8.66739 11.1902C8.86058 11.4483 9.19693 11.5536 9.50239 11.4516C9.80785 11.3495 10.0139 11.063 10.0139 10.7404V8.47139C10.0014 7.90148 9.66961 7.38724 9.15612 7.14199C9.08856 7.10226 9.04254 7.03405 9.03092 6.95641C9.01929 6.87877 9.04332 6.80003 9.09628 6.74218C9.70452 6.22015 10.4912 5.95499 11.2906 6.00251H12.5074C13.3337 6.00251 14.0035 6.67378 14.0035 7.50183V10.0007C14.0035 10.5527 14.4501 11.0002 15.0009 11.0002C15.329 11.0053 15.6385 10.8483 15.8287 10.5804C16.5168 9.62988 17.1304 8.62733 17.664 7.58179C17.8346 7.24244 18.1825 7.0294 18.5616 7.03204H21.5538C21.6832 7.03269 21.8045 7.09459 21.8812 7.19896C21.9578 7.30334 21.9807 7.43789 21.9428 7.5618C21.3266 9.22674 20.5058 10.8082 19.4992 12.2697C19.3169 12.5494 19.3413 12.9163 19.559 13.1693C20.6077 14.4107 21.4283 15.8287 21.9827 17.3574V17.4273Z" fill="currentColor" />
</svg>
