<svg xmlns="http://www.w3.org/2000/svg" viewBox="0 0 24 24">
    <path d="M3.09583 7.4517C4.80197 4.10682 8.23613 2.00121 11.9873 2.00004C16.2681 1.98817 20.0805 4.70927 21.4653 8.76509C22.8501 12.8209 21.4994 17.3094 18.1073 19.924C14.7151 22.5386 10.0359 22.6979 6.47422 20.32L3.62781 21.24C3.44708 21.2945 3.25107 21.2445 3.11845 21.11C2.98347 20.9775 2.93681 20.7789 2.9986 20.6L3.89747 17.86C1.69931 14.8166 1.38969 10.7966 3.09583 7.4517ZM15.8024 17.53C16.6484 17.3902 17.3842 16.8709 17.7999 16.12C17.9503 15.6788 17.9746 15.2043 17.8698 14.75C17.8059 14.6403 17.6417 14.564 17.385 14.4447C17.361 14.4335 17.3362 14.422 17.3105 14.41C17.2291 14.372 17.0644 14.2919 16.8622 14.1935C16.3203 13.93 15.5094 13.5356 15.3131 13.47C15.055 13.3453 14.7445 13.4359 14.594 13.68C14.3557 14.0295 14.0955 14.3635 13.815 14.68C13.6279 14.8596 13.3489 14.9035 13.1158 14.79C12.2489 14.4597 11.4525 13.9677 10.7688 13.34C10.136 12.755 9.59099 12.0814 9.15084 11.34C9.01926 11.1311 9.07162 10.8559 9.27069 10.71C9.3469 10.6119 9.42607 10.5287 9.50498 10.4457C9.57085 10.3764 9.63653 10.3074 9.70015 10.23C9.83293 10.0945 9.94409 9.93939 10.0297 9.77004C10.1051 9.59313 10.0864 9.39007 9.97979 9.23004C9.90988 9.07004 9.29066 7.56004 9.09091 7.07004C8.89117 6.58004 8.74136 6.58004 8.45172 6.58004H8.12214C7.75634 6.57303 7.40079 6.70119 7.1234 6.94004C6.4568 7.57259 6.09315 8.46102 6.12466 9.38004C6.22334 10.4739 6.63611 11.5159 7.31316 12.38C8.54698 14.2742 10.2735 15.7955 12.3069 16.78C14.594 17.73 15.2831 17.64 15.8024 17.53Z" fill="currentColor" fill-rule="evenodd" clip-rule="evenodd" />
</svg>
