<svg xmlns="http://www.w3.org/2000/svg" viewBox="0 0 24 24">
    <path d="M18.5399 4.33992L19.9999 4.48992C21.7284 4.68529 23.0264 6.16064 22.9999 7.89992V16.0999C23.0264 17.8392 21.7284 19.3146 19.9999 19.5099L18.5999 19.6599C14.2315 20.1099 9.82835 20.1099 5.45991 19.6599L3.99991 19.5099C2.27143 19.3146 0.973464 17.8392 0.999909 16.0999V7.89992C0.973464 6.16064 2.27143 4.68529 3.99991 4.48992L5.39991 4.33992C9.76835 3.88995 14.1715 3.88995 18.5399 4.33992ZM11.1099 15.2199L14.9999 12.6199H15.0599C15.2695 12.4833 15.3959 12.2501 15.3959 11.9999C15.3959 11.7497 15.2695 11.5165 15.0599 11.3799L11.1699 8.77992C10.9402 8.62469 10.6437 8.60879 10.3987 8.73859C10.1538 8.86839 10.0004 9.12271 9.99991 9.39992V14.5999C10.0128 14.858 10.1576 15.0913 10.3832 15.2173C10.6088 15.3433 10.8834 15.3443 11.1099 15.2199Z" fill="currentColor" fill-rule="evenodd" clip-rule="evenodd" />
</svg>
