<svg xmlns="http://www.w3.org/2000/svg" viewBox="0 0 24 24">
    <path d="M4 4H20C21.1046 4 22 4.89543 22 6V8.5C22 9.32843 21.3284 10 20.5 10C20.2239 10 20 9.77614 20 9.5V6H18V18C18 19.1046 17.1046 20 16 20H8C6.89543 20 6 19.1046 6 18V6H4V9.5C4 9.63261 3.94732 9.75979 3.85355 9.85355C3.75979 9.94732 3.63261 10 3.5 10C2.67157 10 2 9.32843 2 8.5V6C2 4.89543 2.89543 4 4 4ZM13.5 18C13.7761 18 14 17.7761 14 17.5V6.5C14 6.22386 13.7761 6 13.5 6H11.5C11.2239 6 11 6.22386 11 6.5V17.5C11 17.7761 11.2239 18 11.5 18H13.5Z" fill="currentColor" fill-rule="evenodd" clip-rule="evenodd" />
</svg>
