<svg xmlns="http://www.w3.org/2000/svg" viewBox="0 0 24 24">
    <path d="M12 2C6.47715 2 2 6.47715 2 12C2 17.5228 6.47715 22 12 22C17.5228 22 22 17.5228 22 12C22 9.34784 20.9464 6.8043 19.0711 4.92893C17.1957 3.05357 14.6522 2 12 2ZM12 20C7.58172 20 4 16.4183 4 12C4 7.58172 7.58172 4 12 4C16.4183 4 20 7.58172 20 12C20 14.1217 19.1571 16.1566 17.6569 17.6569C16.1566 19.1571 14.1217 20 12 20ZM15.5 10V10.88C15.4982 11.1447 15.4438 11.4065 15.34 11.65C15.7564 12.0258 15.9959 12.5591 16 13.12V14C16 15.1046 15.1046 16 14 16H13V17.5C13 17.7761 12.7761 18 12.5 18H11.5C11.2239 18 11 17.7761 11 17.5V16H8.5C8.22386 16 8 15.7761 8 15.5V14.75C8 14.4739 8.22386 14.25 8.5 14.25H8.75C8.88807 14.25 9 14.1381 9 14V10C9 9.86193 8.88807 9.75 8.75 9.75H8.5C8.22386 9.75 8 9.52614 8 9.25V8.5C8 8.22386 8.22386 8 8.5 8H11V6.5C11 6.22386 11.2239 6 11.5 6H12.5C12.7761 6 13 6.22386 13 6.5V8H13.5C14.6046 8 15.5 8.89543 15.5 10ZM10.75 9.75H13.75V11.12H10.75V9.75ZM10.75 12.88V14.25H14.25V12.88H10.75Z" fill="currentColor" fill-rule="evenodd" clip-rule="evenodd" />
</svg>
