<svg xmlns="http://www.w3.org/2000/svg" viewBox="0 0 24 24">
    <path d="M12 2C6.47715 2 2 6.47715 2 12C2 17.5228 6.47715 22 12 22C17.5228 22 22 17.5228 22 12C22 9.34784 20.9464 6.8043 19.0711 4.92893C17.1957 3.05357 14.6522 2 12 2ZM14 16C15.1046 16 16 15.1046 16 14V13.12C15.9959 12.5591 15.7564 12.0258 15.34 11.65C15.4438 11.4065 15.4982 11.1447 15.5 10.88V10C15.5 8.89543 14.6046 8 13.5 8H13V6.5C13 6.22386 12.7761 6 12.5 6H11.5C11.2239 6 11 6.22386 11 6.5V8H8.5C8.22386 8 8 8.22386 8 8.5V9.25C8 9.52614 8.22386 9.75 8.5 9.75H8.75C8.88807 9.75 9 9.86193 9 10V14C9 14.1381 8.88807 14.25 8.75 14.25H8.5C8.22386 14.25 8 14.4739 8 14.75V15.5C8 15.7761 8.22386 16 8.5 16H11V17.5C11 17.7761 11.2239 18 11.5 18H12.5C12.7761 18 13 17.7761 13 17.5V16H14ZM10.75 12.88V14.25H14.25V12.88H10.75ZM10.75 11.12V9.75H13.75V11.12H10.75Z" fill="currentColor" fill-rule="evenodd" clip-rule="evenodd" />
</svg>
