<svg xmlns="http://www.w3.org/2000/svg" viewBox="0 0 24 24">
    <path d="M12 2C6.47715 2 2 6.47715 2 12C2 17.5228 6.47715 22 12 22C17.5228 22 22 17.5228 22 12C22 9.34784 20.9464 6.8043 19.0711 4.92893C17.1957 3.05357 14.6522 2 12 2ZM12 20C7.58172 20 4 16.4183 4 12C4 7.58172 7.58172 4 12 4C16.4183 4 20 7.58172 20 12C20 14.1217 19.1571 16.1566 17.6569 17.6569C16.1566 19.1571 14.1217 20 12 20ZM6 11.45C6.25687 8.54555 8.56463 6.24622 11.47 6C11.6131 5.99112 11.7531 6.0441 11.8545 6.14549C11.9559 6.24687 12.0089 6.3869 12 6.53V7.53C11.9913 7.77456 11.8035 7.97518 11.56 8C9.68169 8.19741 8.19741 9.68169 8 11.56C7.97395 11.8148 7.75605 12.0066 7.5 12H6.5C6.36017 11.9986 6.2268 11.9409 6.13 11.84C6.03879 11.7312 5.99232 11.5918 6 11.45Z" fill="currentColor" fill-rule="evenodd" clip-rule="evenodd" />
</svg>
