<svg xmlns="http://www.w3.org/2000/svg" viewBox="0 0 24 24">
    <path d="M13.3333 4.33333V3.66667C13.3333 3.29848 13.0349 3 12.6667 3H11.3333C10.9651 3 10.6667 3.29848 10.6667 3.66667V4.33333C9.19391 4.33333 8 5.52724 8 7V8.08C8.002 8.87535 8.35891 9.62829 8.97333 10.1333L13.5467 13.9067C13.627 13.9653 13.6722 14.0607 13.6667 14.16V15.3333H10.3333V14C10.3333 13.6318 10.0349 13.3333 9.66667 13.3333H8.66667C8.29848 13.3333 8 13.6318 8 14V15C8 16.4728 9.19391 17.6667 10.6667 17.6667V18.3333C10.6667 18.7015 10.9651 19 11.3333 19H12.6667C13.0349 19 13.3333 18.7015 13.3333 18.3333V17.6667C14.8061 17.6667 16 16.4728 16 15V13.92C15.998 13.1247 15.6411 12.3717 15.0267 11.8667L10.4533 8.09333C10.373 8.0347 10.3278 7.93933 10.3333 7.84V6.66667H13.6667V8C13.6667 8.36819 13.9651 8.66667 14.3333 8.66667H15.3333C15.7015 8.66667 16 8.36819 16 8V7C16 5.52724 14.8061 4.33333 13.3333 4.33333Z" fill="currentColor" />
</svg>
