<svg xmlns="http://www.w3.org/2000/svg" viewBox="0 0 24 24">
    <path d="M2 12C2 6.47715 6.47715 2 12 2C14.6522 2 17.1957 3.05357 19.0711 4.92893C20.9464 6.8043 22 9.34784 22 12C22 17.5228 17.5228 22 12 22C6.47715 22 2 17.5228 2 12ZM4 12C4 16.4183 7.58172 20 12 20C14.1217 20 16.1566 19.1571 17.6569 17.6569C19.1571 16.1566 20 14.1217 20 12C20 7.58172 16.4183 4 12 4C7.58172 4 4 7.58172 4 12ZM12.46 6.24C12.3619 6.08215 12.1856 5.9902 12 6C11.825 6.00092 11.6627 6.09152 11.57 6.24L8.15 11.79C8.11354 11.8495 8.10254 11.9212 8.11946 11.9889C8.13639 12.0566 8.17983 12.1146 8.24 12.15L11.76 14C11.91 14.08 12.09 14.08 12.24 14L15.76 12.11C15.8202 12.0746 15.8636 12.0166 15.8805 11.9489C15.8975 11.8812 15.8865 11.8095 15.85 11.75L12.46 6.24ZM8.49 14L11.76 15.74C11.91 15.82 12.09 15.82 12.24 15.74L15.51 14C15.527 13.9823 15.5505 13.9722 15.575 13.9722C15.5995 13.9722 15.623 13.9823 15.64 14C15.6683 14.0387 15.6683 14.0913 15.64 14.13L12.46 17.83C12.3641 17.9392 12.2254 18.0013 12.08 18H11.92C11.7746 18.0013 11.6359 17.9392 11.54 17.83L8.36 14.13C8.33166 14.0913 8.33166 14.0387 8.36 14C8.37698 13.9823 8.40046 13.9722 8.425 13.9722C8.44954 13.9722 8.47302 13.9823 8.49 14Z" fill="currentColor" fill-rule="evenodd" clip-rule="evenodd" />
</svg>
