<svg xmlns="http://www.w3.org/2000/svg" viewBox="0 0 24 24">
    <path d="M12 2C6.47715 2 2 6.47715 2 12C2 17.5228 6.47715 22 12 22C17.5228 22 22 17.5228 22 12C22 9.34784 20.9464 6.8043 19.0711 4.92893C17.1957 3.05357 14.6522 2 12 2ZM15.64 14.13L12.46 17.83C12.3641 17.9392 12.2254 18.0013 12.08 18H11.92C11.7746 18.0013 11.6359 17.9392 11.54 17.83L8.36 14.13C8.33166 14.0913 8.33166 14.0387 8.36 14C8.37698 13.9823 8.40046 13.9722 8.425 13.9722C8.44954 13.9722 8.47302 13.9823 8.49 14L11.76 15.76C11.91 15.84 12.09 15.84 12.24 15.76L15.51 14C15.527 13.9823 15.5505 13.9722 15.575 13.9722C15.5995 13.9722 15.623 13.9823 15.64 14C15.6683 14.0387 15.6683 14.0913 15.64 14.13ZM12.24 14L15.76 12.13V12.15C15.875 12.0666 15.9017 11.9062 15.82 11.79L12.43 6.24C12.3373 6.09152 12.175 6.00092 12 6C11.8144 5.9902 11.6381 6.08215 11.54 6.24L8.15 11.79C8.11354 11.8495 8.10254 11.9212 8.11946 11.9889C8.13639 12.0566 8.17983 12.1146 8.24 12.15L11.76 14C11.91 14.08 12.09 14.08 12.24 14Z" fill="currentColor" fill-rule="evenodd" clip-rule="evenodd" />
</svg>
