<svg xmlns="http://www.w3.org/2000/svg" viewBox="0 0 24 24">
    <path d="M2 12C2 6.47715 6.47715 2 12 2C14.6522 2 17.1957 3.05357 19.0711 4.92893C20.9464 6.8043 22 9.34784 22 12C22 17.5228 17.5228 22 12 22C6.47715 22 2 17.5228 2 12ZM13.81 11.12C13.7653 11.0465 13.686 11.0012 13.6 11H8.92C9.34906 9.68218 10.5644 8.77969 11.95 8.75C12.6731 8.74168 13.3778 8.97776 13.95 9.42C14.1511 9.57218 14.4341 9.55074 14.61 9.37L15.14 8.83C15.2466 8.7337 15.3021 8.59314 15.29 8.45C15.2782 8.30917 15.2096 8.17919 15.1 8.09C13.7396 7.01318 11.9181 6.71861 10.2876 7.3117C8.65713 7.9048 7.45065 9.30078 7.1 11H6.5C6.22386 11 6 11.2239 6 11.5V12.5C6 12.7761 6.22386 13 6.5 13H7.1C7.44183 14.7174 8.6572 16.1308 10.304 16.7261C11.9508 17.3214 13.789 17.0119 15.15 15.91C15.2596 15.8208 15.3282 15.6908 15.34 15.55C15.3521 15.4069 15.2966 15.2663 15.19 15.17L14.66 14.63C14.4841 14.4493 14.2011 14.4278 14 14.58C13.4278 15.0222 12.7231 15.2583 12 15.25C10.5959 15.2416 9.35499 14.335 8.92 13H12.53C12.8121 12.9983 13.0701 12.8404 13.2 12.59L13.81 11.36C13.8509 11.2852 13.8509 11.1948 13.81 11.12Z" fill="currentColor" fill-rule="evenodd" clip-rule="evenodd" />
</svg>
