<svg xmlns="http://www.w3.org/2000/svg" viewBox="0 0 24 24">
    <path d="M12 2C6.47715 2 2 6.47715 2 12C2 17.5228 6.47715 22 12 22C17.5228 22 22 17.5228 22 12C22 9.34784 20.9464 6.8043 19.0711 4.92893C17.1957 3.05357 14.6522 2 12 2ZM12 20C7.58172 20 4 16.4183 4 12C4 7.58172 7.58172 4 12 4C16.4183 4 20 7.58172 20 12C20 14.1217 19.1571 16.1566 17.6569 17.6569C16.1566 19.1571 14.1217 20 12 20ZM14 9.42C13.4278 8.97776 12.7231 8.74168 12 8.75C10.5959 8.75845 9.35499 9.66497 8.92 11H13.6C13.6895 10.9977 13.7735 11.0435 13.82 11.12C13.8609 11.1948 13.8609 11.2852 13.82 11.36L13.21 12.59C13.0801 12.8404 12.8221 12.9983 12.54 13H8.92C9.34906 14.3178 10.5644 15.2203 11.95 15.25C12.6731 15.2583 13.3778 15.0222 13.95 14.58C14.1511 14.4278 14.4341 14.4493 14.61 14.63L15.14 15.17C15.2466 15.2663 15.3021 15.4069 15.29 15.55C15.2782 15.6908 15.2096 15.8208 15.1 15.91C13.7396 16.9868 11.9181 17.2814 10.2876 16.6883C8.65713 16.0952 7.45065 14.6992 7.1 13H6.5C6.22386 13 6 12.7761 6 12.5V11.5C6 11.2239 6.22386 11 6.5 11H7.1C7.44183 9.28259 8.6572 7.86916 10.304 7.27386C11.9508 6.67856 13.789 6.98814 15.15 8.09C15.2596 8.17919 15.3282 8.30917 15.34 8.45C15.3521 8.59314 15.2966 8.7337 15.19 8.83L14.66 9.37C14.4841 9.55074 14.2011 9.57218 14 9.42Z" fill="currentColor" fill-rule="evenodd" clip-rule="evenodd" />
</svg>
