<svg xmlns="http://www.w3.org/2000/svg" viewBox="0 0 24 24">
    <path d="M17 7C17 4.23858 14.7614 2 12 2C9.2386 2 7.00002 4.23858 7.00002 7C7.00002 9.76142 9.2386 12 12 12C14.7614 12 17 9.76142 17 7ZM12 4C10.3432 4 9.00002 5.34315 9.00002 7C9.00002 8.65685 10.3432 10 12 10C13.6569 10 15 8.65685 15 7C15 5.34315 13.6569 4 12 4ZM4.24002 12.3L9.54002 15.48C10.4442 16.0209 10.9984 16.9964 11 18.05V21C11 21.5523 10.5523 22 10 22H6.00002C5.44774 22 5.00002 21.5523 5.00002 21V20.2C4.98095 19.9221 4.84685 19.6648 4.63002 19.49L0.940024 16.49C0.343374 16.0192 -0.00333252 15.3 2.41507e-05 14.54V7C2.41507e-05 6.44772 0.447739 6 1.00002 6C1.55231 6 2.00002 6.44772 2.00002 7V11.57C1.72714 11.7627 1.49869 12.0116 1.33002 12.3C0.980282 12.8645 0.878976 13.5483 1.05002 14.19C1.20733 14.8358 1.61829 15.391 2.19002 15.73L5.78002 17.86C5.95371 17.9693 6.17657 17.9614 6.34207 17.8401C6.50756 17.7187 6.58209 17.5085 6.53002 17.31C6.49252 17.1827 6.41101 17.0728 6.30002 17L2.70002 14.87C2.35909 14.6646 2.11379 14.3321 2.01814 13.9457C1.92248 13.5593 1.98432 13.1508 2.19002 12.81C2.37308 12.5051 2.6611 12.2776 3.00002 12.17C3.15706 12.1135 3.32317 12.0864 3.49002 12.09C3.75485 12.0877 4.01492 12.1605 4.24002 12.3ZM24 14.53V7C24 6.44772 23.5523 6 23 6C22.4477 6 22 6.44772 22 7V11.58C22.8386 12.1614 23.2354 13.1971 23 14.19C22.8236 14.8334 22.3943 15.378 21.81 15.7L18.22 17.86C18.0463 17.9693 17.8235 17.9614 17.658 17.8401C17.4925 17.7187 17.418 17.5085 17.47 17.31C17.5075 17.1827 17.589 17.0728 17.7 17L21.3 14.87C21.641 14.6646 21.8863 14.3321 21.9819 13.9457C22.0776 13.5593 22.0157 13.1508 21.81 12.81C21.627 12.5051 21.339 12.2776 21 12.17C20.843 12.1135 20.6769 12.0864 20.51 12.09C20.2452 12.0877 19.9851 12.1605 19.76 12.3L14.46 15.48C13.5558 16.0209 13.0016 16.9964 13 18.05V21C13 21.5523 13.4477 22 14 22H18C18.5523 22 19 21.5523 19 21V20.25C19.002 19.9509 19.1377 19.6684 19.37 19.48L23.06 16.48C23.6567 16.0092 24.0034 15.29 24 14.53ZM20.64 11.1H21.01V7.75L20.86 7.49C20.5824 7.02341 19.9831 6.86361 19.51 7.13C19.0434 7.40765 18.8836 8.00689 19.15 8.48L20.64 11.1ZM4.52002 7.14C4.98662 7.41765 5.14642 8.01689 4.88002 8.49L3.37002 11.14H3.00002V7.75L3.17002 7.5C3.44767 7.0334 4.04691 6.87361 4.52002 7.14Z" fill="currentColor" fill-rule="evenodd" clip-rule="evenodd" />
</svg>
