<svg xmlns="http://www.w3.org/2000/svg" viewBox="0 0 24 24">
    <path d="M12 2C6.47715 2 2 6.47715 2 12C2 17.5228 6.47715 22 12 22C17.5228 22 22 17.5228 22 12C22 9.34784 20.9464 6.8043 19.0711 4.92893C17.1957 3.05357 14.6522 2 12 2ZM12 20C7.58172 20 4 16.4183 4 12C4 7.58172 7.58172 4 12 4C16.4183 4 20 7.58172 20 12C20 14.1217 19.1571 16.1566 17.6569 17.6569C16.1566 19.1571 14.1217 20 12 20ZM12.35 15.25H15.7C15.7742 15.2515 15.8439 15.2858 15.8903 15.3438C15.9366 15.4017 15.9549 15.4773 15.94 15.55L15.73 16.6C15.6825 16.8328 15.4776 17 15.24 17H9.3C9.2258 16.9985 9.15608 16.9642 9.10972 16.9062C9.06336 16.8483 9.04514 16.7727 9.06 16.7L9.7 13.48L8.32 13.87C8.2448 13.8879 8.16552 13.8715 8.10368 13.8251C8.04183 13.7787 8.00384 13.7072 8 13.63V12.63C8 12.4078 8.14667 12.2122 8.36 12.15L10.07 11.66L10.92 7.4C10.9675 7.16717 11.1724 6.99995 11.41 7H13.7C13.7836 6.99773 13.8628 7.03741 13.911 7.10574C13.9593 7.17406 13.9701 7.26198 13.94 7.34L13.25 10.79L14.68 10.38C14.7552 10.3621 14.8345 10.3785 14.8963 10.4249C14.9582 10.4713 14.9962 10.5428 15 10.62V11.62C15 11.8422 14.8533 12.0378 14.64 12.1L12.88 12.61L12.35 15.25Z" fill="currentColor" fill-rule="evenodd" clip-rule="evenodd" />
</svg>
