<svg xmlns="http://www.w3.org/2000/svg" viewBox="0 0 24 24">
    <path d="M12 7.105C13.271 5.808 15.04 5 17 5C20.866 5 24 8.134 24 12C24 15.866 20.866 19 17 19C15.04 19 13.271 18.192 12 16.895C10.729 18.192 8.96 19 7 19C3.134 19 0 15.866 0 12C0 8.134 3.134 5 7 5C8.96 5 10.729 5.808 12 7.105ZM13.21 15.223C14.128 16.301 15.477 17 17 17C19.757 17 22 14.757 22 12C22 9.243 19.757 7 17 7C15.477 7 14.128 7.699 13.21 8.776C13.712 9.742 14 10.837 14 12C14 13.163 13.712 14.258 13.21 15.223Z" fill="currentColor" fill-rule="evenodd" clip-rule="evenodd" />
</svg>
