<svg xmlns="http://www.w3.org/2000/svg" viewBox="0 0 24 24">
    <path d="M15.1962 20.4755C14.945 19.9836 15.1402 19.3813 15.6321 19.1301C15.8815 19.0028 16.1233 18.8628 16.3568 18.7108C16.8198 18.4096 17.4392 18.5407 17.7404 19.0036C18.0417 19.4665 17.9106 20.0859 17.4477 20.3872C17.1559 20.577 16.8535 20.7522 16.5415 20.9114C16.0496 21.1626 15.4473 20.9674 15.1962 20.4755Z" fill="currentColor" />
    <path d="M19.0035 17.7405C18.5406 17.4392 18.4096 16.8198 18.7108 16.3569C18.8628 16.1234 19.0028 15.8815 19.1301 15.6321C19.3812 15.1402 19.9836 14.9451 20.4755 15.1962C20.9674 15.4473 21.1625 16.0497 20.9114 16.5415C20.7521 16.8535 20.577 17.1559 20.3871 17.4477C20.0859 17.9106 19.4664 18.0417 19.0035 17.7405Z" fill="currentColor" />
    <path d="M20.9364 13.4698C20.3848 13.4414 19.9608 12.9712 19.9892 12.4197C19.9964 12.2808 20 12.1409 20 12C20 11.8592 19.9964 11.7193 19.9892 11.5804C19.9608 11.0288 20.3848 10.5587 20.9364 10.5302C21.4879 10.5018 21.9581 10.9258 21.9866 11.4774C21.9955 11.6506 22 11.8248 22 12C22 12.1752 21.9955 12.3495 21.9866 12.5227C21.9581 13.0742 21.4879 13.4983 20.9364 13.4698Z" fill="currentColor" />
    <path d="M20.4755 8.80386C19.9836 9.055 19.3812 8.85982 19.1301 8.36794C19.0028 8.11857 18.8628 7.8767 18.7108 7.64319C18.4096 7.18028 18.5406 6.56083 19.0035 6.2596C19.4664 5.95838 20.0859 6.08945 20.3871 6.55235C20.577 6.84416 20.7521 7.14657 20.9114 7.45851C21.1625 7.9504 20.9674 8.55273 20.4755 8.80386Z" fill="currentColor" />
    <path d="M17.7404 4.99649C17.4392 5.45939 16.8198 5.59046 16.3568 5.28924C16.1233 5.13728 15.8815 4.99723 15.6321 4.86992C15.1402 4.61878 14.945 4.01645 15.1962 3.52456C15.4473 3.03268 16.0496 2.83751 16.5415 3.08864C16.8535 3.2479 17.1559 3.42302 17.4477 3.61291C17.9106 3.91413 18.0417 4.53358 17.7404 4.99649Z" fill="currentColor" />
    <path d="M12.2383 21.9714C12.1619 21.9901 12.0821 22 12 22C6.47715 22 2 17.5228 2 12C2 6.47715 6.47715 2 12 2C12.0821 2 12.1619 2.0099 12.2383 2.02857C12.4897 2.00964 12.7437 2 13 2V2.99969L13 22C12.7437 22 12.4897 21.9904 12.2383 21.9714Z" fill="currentColor" />
</svg>
