<svg xmlns="http://www.w3.org/2000/svg" viewBox="0 0 24 24">
    <path d="M2 12C2 6.47715 6.47715 2 12 2C14.6522 2 17.1957 3.05357 19.0711 4.92893C20.9464 6.8043 22 9.34784 22 12C22 17.5228 17.5228 22 12 22C6.47715 22 2 17.5228 2 12ZM14 17C15.1046 17 16 16.1046 16 15V14.75C16 14.4739 15.7761 14.25 15.5 14.25H14.75C14.4739 14.25 14.25 14.4739 14.25 14.75V15C14.25 15.1381 14.1381 15.25 14 15.25H11.14C11.3467 14.6879 11.468 14.098 11.5 13.5C11.5102 13.3335 11.5102 13.1665 11.5 13H12.5C12.7761 13 13 12.7761 13 12.5V11.5C13 11.2239 12.7761 11 12.5 11H10.95C10.8418 10.6763 10.7746 10.3404 10.75 10C10.7449 9.376 11.2008 8.84386 11.8182 8.75314C12.4356 8.66242 13.0253 9.04092 13.2 9.64C13.2622 9.85333 13.4578 10 13.68 10H14.45C14.5996 9.99773 14.7412 9.93235 14.84 9.82C14.9314 9.70054 14.9678 9.54785 14.94 9.4C14.6333 7.88956 13.232 6.85728 11.6985 7.01217C10.165 7.16707 8.99845 8.45874 9 10C9.00872 10.3343 9.0557 10.6664 9.14 10.99H8.5C8.22386 10.99 8 11.2139 8 11.49V12.49C8 12.7661 8.22386 12.99 8.5 12.99H9.73C9.76907 13.1538 9.7892 13.3216 9.79 13.49C9.66164 14.3633 9.39497 15.2106 9 16C8.90737 16.1773 8.92692 16.3923 9.05 16.55L9.31 16.84C9.4068 16.9409 9.54017 16.9986 9.68 17H14Z" fill="currentColor" fill-rule="evenodd" clip-rule="evenodd" />
</svg>
