<svg xmlns="http://www.w3.org/2000/svg" viewBox="0 0 24 24">
    <path d="M13.4698 2.02724C12.8327 1.92105 12.1835 2.12909 11.7268 2.58581L1.84799 12.4646C1.06694 13.2457 1.06695 14.512 1.84799 15.2931L8.91906 22.3641C9.70011 23.1452 10.9664 23.1452 11.7475 22.3641L21.6263 12.4853C22.083 12.0286 22.2911 11.3794 22.1849 10.7423L21.1747 4.68138C21.0342 3.83843 20.3737 3.17788 19.5307 3.03739L13.4698 2.02724ZM15.283 8.9291C16.0641 9.71015 17.3304 9.71015 18.1115 8.9291C18.8925 8.14805 18.8925 6.88172 18.1115 6.10067C17.3304 5.31962 16.0641 5.31962 15.283 6.10067C14.502 6.88172 14.502 8.14805 15.283 8.9291ZM6.79774 13.1717C7.18827 12.7812 7.82143 12.7812 8.21195 13.1717L11.0404 16.0002C11.4309 16.3907 11.4309 17.0239 11.0404 17.4144C10.6499 17.8049 10.0167 17.8049 9.62617 17.4144L6.79774 14.586C6.40722 14.1954 6.40722 13.5623 6.79774 13.1717ZM11.0404 10.3433C10.6499 9.95279 10.0167 9.95279 9.62617 10.3433C9.23564 10.7338 9.23564 11.367 9.62617 11.7575L12.4546 14.586C12.8451 14.9765 13.4783 14.9765 13.8688 14.586C14.2593 14.1954 14.2593 13.5623 13.8688 13.1717L11.0404 10.3433Z" fill="currentColor" fill-rule="evenodd" clip-rule="evenodd" />
</svg>
