<svg xmlns="http://www.w3.org/2000/svg" viewBox="0 0 24 24">
    <path d="M12 2C6.47715 2 2 6.47715 2 12C2 17.5228 6.47715 22 12 22C17.5228 22 22 17.5228 22 12C22 9.34784 20.9464 6.8043 19.0711 4.92893C17.1957 3.05357 14.6522 2 12 2ZM12 20C7.58172 20 4 16.4183 4 12C4 7.58172 7.58172 4 12 4C16.4183 4 20 7.58172 20 12C20 14.1217 19.1571 16.1566 17.6569 17.6569C16.1566 19.1571 14.1217 20 12 20ZM9.5 8.23563C9.22386 8.23563 9 8.01178 9 7.73563V7.5C9 7.22386 9.22386 7 9.5 7H11.597C11.975 7 12.332 7.0431 12.661 7.11494H15.5797C15.8118 7.11494 16 7.3031 16 7.5352C16 7.7673 15.8118 7.95546 15.5797 7.95546H14.18C14.551 8.35776 14.782 8.89655 14.845 9.55747H15.5797C15.8118 9.55747 16 9.74563 16 9.97773C16 10.2098 15.8118 10.398 15.5797 10.398H14.831C14.649 11.6839 13.676 13.0201 11.667 13.0776H11.282L14.4265 16.1419C14.7477 16.455 14.5261 17 14.0775 17H13.1393C13.0078 17 12.8815 16.9482 12.7879 16.8557L9.1486 13.2603C9.05352 13.1664 9 13.0383 9 12.9046V12.227C9 11.9509 9.22386 11.727 9.5 11.727H11.149C12.276 11.727 12.913 11.2601 13.06 10.398H9.42026C9.18816 10.398 9 10.2098 9 9.97773C9 9.74563 9.18816 9.55747 9.42026 9.55747H13.06C12.899 8.71695 12.234 8.23563 11.114 8.23563H9.5Z" fill="currentColor" fill-rule="evenodd" clip-rule="evenodd" />
</svg>
