<svg xmlns="http://www.w3.org/2000/svg" viewBox="0 0 24 24">
    <path d="M12 2C6.47715 2 2 6.47715 2 12C2 17.5228 6.47715 22 12 22C17.5228 22 22 17.5228 22 12C22 9.34784 20.9464 6.8043 19.0711 4.92893C17.1957 3.05357 14.6522 2 12 2ZM12 20C7.58172 20 4 16.4183 4 12C4 7.58172 7.58172 4 12 4C16.4183 4 20 7.58172 20 12C20 14.1217 19.1571 16.1566 17.6569 17.6569C16.1566 19.1571 14.1217 20 12 20ZM16 7.41135C16 7.63853 15.8158 7.8227 15.5887 7.8227H8.41135C8.18417 7.8227 8 7.63853 8 7.41135C8 7.18417 8.18417 7 8.41135 7H15.5887C15.8158 7 16 7.18417 16 7.41135ZM12.9509 16.5C12.9509 16.7761 12.7271 17 12.4509 17H11.5415C11.2654 17 11.0415 16.7761 11.0415 16.5V10.1702H8.5C8.22386 10.1702 8 9.94636 8 9.67021V9.40071C8 9.12457 8.22386 8.90071 8.5 8.90071H15.5C15.7761 8.90071 16 9.12457 16 9.40071V9.67021C16 9.94636 15.7761 10.1702 15.5 10.1702H12.9509V16.5Z" fill="currentColor" fill-rule="evenodd" clip-rule="evenodd" />
</svg>
