<svg xmlns="http://www.w3.org/2000/svg" viewBox="0 0 24 24">
    <path d="M12 2C6.47715 2 2 6.47715 2 12C2 17.5228 6.47715 22 12 22C17.5228 22 22 17.5228 22 12C22 9.34784 20.9464 6.8043 19.0711 4.92893C17.1957 3.05357 14.6522 2 12 2ZM12 20C7.58172 20 4 16.4183 4 12C4 7.58172 7.58172 4 12 4C16.4183 4 20 7.58172 20 12C20 14.1217 19.1571 16.1566 17.6569 17.6569C16.1566 19.1571 14.1217 20 12 20ZM9.17343 14.8114C9.17343 14.6395 9.27824 14.485 9.43795 14.4215L11.1268 13.7498V12.5239L9.74991 13.0765C9.47394 13.1873 9.17343 12.9841 9.17343 12.6867C9.17343 12.5152 9.27778 12.3608 9.437 12.2969L11.1268 11.6187V8.51105H8.5C8.22386 8.51105 8 8.28719 8 8.01105V7.5C8 7.22386 8.22386 7 8.5 7H15.5C15.7761 7 16 7.22386 16 7.5V8.01105C16 8.28719 15.7761 8.51105 15.5 8.51105H12.8732V10.9273L14.2501 10.3746C14.5261 10.2639 14.8266 10.4671 14.8266 10.7645C14.8266 10.936 14.7222 11.0904 14.563 11.1543L12.8732 11.8325V13.0513L14.2545 12.5019C14.5288 12.3929 14.8266 12.5949 14.8266 12.8901C14.8266 13.0607 14.7228 13.2141 14.5645 13.2777L12.8732 13.9565V16.5C12.8732 16.7761 12.6493 17 12.3732 17H11.6268C11.3507 17 11.1268 16.7761 11.1268 16.5V14.6479L9.7493 15.2008C9.47362 15.3114 9.17343 15.1085 9.17343 14.8114Z" fill="currentColor" fill-rule="evenodd" clip-rule="evenodd" />
</svg>
