<svg xmlns="http://www.w3.org/2000/svg" viewBox="0 0 24 24">
    <path d="M12 2C6.47715 2 2 6.47715 2 12C2 17.5228 6.47715 22 12 22C17.5228 22 22 17.5228 22 12C22 9.34784 20.9464 6.8043 19.0711 4.92893C17.1957 3.05357 14.6522 2 12 2ZM12 20C7.58172 20 4 16.4183 4 12C4 7.58172 7.58172 4 12 4C16.4183 4 20 7.58172 20 12C20 14.1217 19.1571 16.1566 17.6569 17.6569C16.1566 19.1571 14.1217 20 12 20ZM14.1726 7.38011L12.0115 11.5536L9.85319 7.38547C9.73057 7.14867 9.48617 7 9.21951 7C8.67388 7 8.33011 7.58748 8.5974 8.06316L10.8096 12H9.29617C9.02003 12 8.79617 12.2239 8.79617 12.5C8.79617 12.7761 9.02003 13 9.29617 13H10.0134H11.2306V14H10.0134L9.34082 13.9651C9.0447 13.9497 8.79617 14.1857 8.79617 14.4822C8.79617 14.7682 9.028 15 9.31398 15H10.0134H11.2306V16.2612C11.2306 16.6692 11.5614 17 11.9694 17C12.3774 17 12.7081 16.6692 12.7081 16.2612V15H14.6885C14.9647 15 15.1885 14.7761 15.1885 14.5C15.1885 14.2239 14.9647 14 14.6885 14H12.7081V13H14.6885C14.9647 13 15.1885 12.7761 15.1885 12.5C15.1885 12.2239 14.9647 12 14.6885 12H13.1904L15.4109 8.0484C15.6745 7.57932 15.3355 7 14.7974 7C14.5345 7 14.2935 7.14661 14.1726 7.38011Z" fill="currentColor" fill-rule="evenodd" clip-rule="evenodd" />
</svg>
