<svg xmlns="http://www.w3.org/2000/svg" viewBox="0 0 24 24">
    <path d="M21.85 21.0001L21.32 21.5301C21.1256 21.7206 20.8144 21.7206 20.62 21.5301L17.43 18.3401C17.0637 18.7464 16.5469 18.9849 16 19.0001H4C2.89543 19.0001 2 18.1046 2 17.0001V7.00005C2 5.89548 2.89543 5.00005 4 5.00005L2.44 3.38005C2.34332 3.28932 2.28848 3.16264 2.28848 3.03005C2.28848 2.89747 2.34332 2.77079 2.44 2.68005L3 2.15005C3.09073 2.05338 3.21741 1.99854 3.35 1.99854C3.48259 1.99854 3.60927 2.05338 3.7 2.15005L21.85 20.3301C22.0218 20.5204 22.0218 20.8097 21.85 21.0001ZM18 14.0001L9 5.00005H16C17.1046 5.00005 18 5.89548 18 7.00005V10.0001L20.71 7.29005C20.8963 7.10531 21.1477 7.00116 21.41 7.00005H21.5C21.7761 7.00005 22 7.22391 22 7.50005V16.5001C22 16.7762 21.7761 17.0001 21.5 17.0001H21.41C21.1477 16.9989 20.8963 16.8948 20.71 16.7101L18 14.0001ZM8.17 9.12005L9.85 10.7201L9.81 10.7601C9.72426 10.8357 9.61433 10.8783 9.5 10.8801H5.5C5.22386 10.8801 5 10.6562 5 10.3801V9.62005C5 9.34391 5.22386 9.12005 5.5 9.12005H8.17Z" fill="currentColor" fill-rule="evenodd" clip-rule="evenodd" />
</svg>
