<svg xmlns="http://www.w3.org/2000/svg" viewBox="0 0 24 24">
    <path d="M1.5 2H22.5C23.3284 2 24 2.67157 24 3.5V8H22V4H2V14H14V22H7.5C7.22386 22 7 21.7761 7 21.5V20.5C7 20.2239 7.22386 20 7.5 20H7.74C8.50614 20.0072 9.20909 19.5762 9.55 18.89L10 18H1.5C0.671573 18 0 17.3284 0 16.5V3.5C0 2.67157 0.671573 2 1.5 2ZM22 10H18C16.8954 10 16 10.8954 16 12V20C16 21.1046 16.8954 22 18 22H22C23.1046 22 24 21.1046 24 20V12C24 10.8954 23.1046 10 22 10ZM22 20H18V12H22V20Z" fill="currentColor" fill-rule="evenodd" clip-rule="evenodd" />
</svg>
