<svg xmlns="http://www.w3.org/2000/svg" viewBox="0 0 24 24">
    <path d="M2 12C2 6.47715 6.47715 2 12 2C14.6522 2 17.1957 3.05357 19.0711 4.92893C20.9464 6.8043 22 9.34784 22 12C22 17.5228 17.5228 22 12 22C6.47715 22 2 17.5228 2 12ZM11.8466 19.8308C11.9447 19.7365 12.0001 19.6061 12 19.47L11.98 16.49C11.987 16.2319 11.7963 16.0109 11.54 15.98C10.8103 15.8837 10.1197 15.5936 9.54 15.14C9.3464 14.9668 9.0536 14.9668 8.86 15.14L6.73 17.27C6.62902 17.3645 6.57172 17.4967 6.57172 17.635C6.57172 17.7733 6.62902 17.9055 6.73 18C8.05339 19.1615 9.72301 19.854 11.48 19.97C11.616 19.9754 11.7484 19.9252 11.8466 19.8308ZM12 14C10.8954 14 10 13.1046 10 12C10 10.8954 10.8954 10 12 10C13.1046 10 14 10.8954 14 12C14 13.1046 13.1046 14 12 14ZM15.16 8.84L17.29 6.71C17.4751 6.51017 17.4662 6.19893 17.27 6.01C15.9506 4.8376 14.2806 4.13443 12.52 4.01C12.384 4.00455 12.2516 4.05482 12.1534 4.14918C12.0553 4.24355 11.9999 4.37385 12 4.51V7.51C12.0051 7.77464 12.2155 7.98946 12.48 8C13.2097 8.09632 13.9003 8.38637 14.48 8.84C14.6736 9.01316 14.9664 9.01316 15.16 8.84Z" fill="currentColor" fill-rule="evenodd" clip-rule="evenodd" />
</svg>
