<svg xmlns="http://www.w3.org/2000/svg" viewBox="0 0 24 24">
    <path d="M19 3V8C19.5523 8 20 8.44772 20 9V14.34C20.0008 15.4012 19.58 16.4192 18.83 17.17L18.17 17.83C17.938 18.0639 17.6756 18.2657 17.39 18.43C16.5557 18.8804 16.0257 19.7423 16 20.69V21C16 21.5523 15.5523 22 15 22H9C8.44772 22 8 21.5523 8 21V20.69C7.97431 19.7423 7.44426 18.8804 6.61 18.43C6.32438 18.2657 6.06205 18.0639 5.83 17.83L5.17 17.17C4.42005 16.4192 3.99917 15.4012 4 14.34V9C4 8.44772 4.44772 8 5 8V3C5 2.44772 5.44772 2 6 2H18C18.5523 2 19 2.44772 19 3ZM17 4H7V8H9V6.5C9 6.22386 9.22386 6 9.5 6H10.5C10.7761 6 11 6.22386 11 6.5V8H13V6.5C13 6.22386 13.2239 6 13.5 6H14.5C14.7761 6 15 6.22386 15 6.5V8H17V4Z" fill="currentColor" fill-rule="evenodd" clip-rule="evenodd" />
</svg>
