<svg xmlns="http://www.w3.org/2000/svg" viewBox="0 0 24 24">
    <path d="M22.4 9.61L21.57 6.27C21.2352 4.9356 20.0357 3.99992 18.66 4H15.81C15.6195 4.00194 15.4459 4.10993 15.36 4.28L15.14 4.72C15.0541 4.89007 14.8805 4.99806 14.69 5H9.31C9.11947 4.99806 8.94592 4.89007 8.86 4.72L8.64 4.28C8.55408 4.10993 8.38053 4.00194 8.19 4H5.34C3.96425 3.99992 2.76477 4.9356 2.43 6.27L1.6 9.61C1.2013 11.1958 0.999775 12.8248 1 14.46V18C1 19.1046 1.89543 20 3 20H3.63C5.11295 20.0199 6.3879 18.9532 6.63 17.49L6.9 15.84C6.97923 15.3509 7.40461 14.9936 7.9 15H16.2C16.6954 14.9936 17.1208 15.3509 17.2 15.84L17.47 17.49C17.7121 18.9532 18.987 20.0199 20.47 20H21C22.1046 20 23 19.1046 23 18V14.46C23.0002 12.8248 22.7987 11.1958 22.4 9.61ZM6.5 12C5.11929 12 4 10.8807 4 9.5C4 8.11929 5.11929 7 6.5 7C7.88071 7 9 8.11929 9 9.5C9 10.163 8.73661 10.7989 8.26777 11.2678C7.79893 11.7366 7.16304 12 6.5 12ZM20.5 10.88C20.7761 10.88 21 10.6561 21 10.38V9.62C21 9.34386 20.7761 9.12 20.5 9.12H18.88V7.5C18.88 7.22386 18.6561 7 18.38 7H17.62C17.3439 7 17.12 7.22386 17.12 7.5V9.12H15.5C15.2239 9.12 15 9.34386 15 9.62V10.38C15 10.6561 15.2239 10.88 15.5 10.88H17.12V12.5C17.12 12.7761 17.3439 13 17.62 13H18.38C18.6561 13 18.88 12.7761 18.88 12.5V10.88H20.5Z" fill="currentColor" fill-rule="evenodd" clip-rule="evenodd" />
</svg>
