<svg xmlns="http://www.w3.org/2000/svg" viewBox="0 0 24 24">
    <path d="M1 7C1 5.89543 1.89543 5 3 5H21C22.1046 5 23 5.89543 23 7V17C23 18.1046 22.1046 19 21 19H3C1.89543 19 1 18.1046 1 17V7ZM11.5 7C11.2239 7 11 7.22386 11 7.5V8.5C11 8.77614 11.2239 9 11.5 9H12.5C12.7761 9 13 8.77614 13 8.5V7.5C13 7.22386 12.7761 7 12.5 7H11.5ZM11 11.5C11 11.2239 11.2239 11 11.5 11H12.5C12.7761 11 13 11.2239 13 11.5V12.5C13 12.7761 12.7761 13 12.5 13H11.5C11.2239 13 11 12.7761 11 12.5V11.5ZM7.5 7C7.22386 7 7 7.22386 7 7.5V8.5C7 8.77614 7.22386 9 7.5 9H8.5C8.77614 9 9 8.77614 9 8.5V7.5C9 7.22386 8.77614 7 8.5 7H7.5ZM7 11.5C7 11.2239 7.22386 11 7.5 11H8.5C8.77614 11 9 11.2239 9 11.5V12.5C9 12.7761 8.77614 13 8.5 13H7.5C7.22386 13 7 12.7761 7 12.5V11.5ZM4.5 13C4.77614 13 5 12.7761 5 12.5V11.5C5 11.2239 4.77614 11 4.5 11H3.5C3.22386 11 3 11.2239 3 11.5V12.5C3 12.7761 3.22386 13 3.5 13H4.5ZM5 8.5C5 8.77614 4.77614 9 4.5 9H3.5C3.22386 9 3 8.77614 3 8.5V7.5C3 7.22386 3.22386 7 3.5 7H4.5C4.77614 7 5 7.22386 5 7.5V8.5ZM16.5 17C16.7761 17 17 16.7761 17 16.5V15.5C17 15.2239 16.7761 15 16.5 15H7.5C7.22386 15 7 15.2239 7 15.5V16.5C7 16.7761 7.22386 17 7.5 17H16.5ZM17 12.5C17 12.7761 16.7761 13 16.5 13H15.5C15.2239 13 15 12.7761 15 12.5V11.5C15 11.2239 15.2239 11 15.5 11H16.5C16.7761 11 17 11.2239 17 11.5V12.5ZM16.5 9C16.7761 9 17 8.77614 17 8.5V7.5C17 7.22386 16.7761 7 16.5 7H15.5C15.2239 7 15 7.22386 15 7.5V8.5C15 8.77614 15.2239 9 15.5 9H16.5ZM21 12.5C21 12.7761 20.7761 13 20.5 13H19.5C19.2239 13 19 12.7761 19 12.5V11.5C19 11.2239 19.2239 11 19.5 11H20.5C20.7761 11 21 11.2239 21 11.5V12.5ZM20.5 9C20.7761 9 21 8.77614 21 8.5V7.5C21 7.22386 20.7761 7 20.5 7H19.5C19.2239 7 19 7.22386 19 7.5V8.5C19 8.77614 19.2239 9 19.5 9H20.5Z" fill="currentColor" fill-rule="evenodd" clip-rule="evenodd" />
</svg>
