<svg xmlns="http://www.w3.org/2000/svg" viewBox="0 0 24 24">
    <path d="M20.5 10C20.7761 10 21 9.77614 21 9.5V8.5C21 8.22386 20.7761 8 20.5 8H19V7C19 5.89543 18.1046 5 17 5H16V3.5C16 3.22386 15.7761 3 15.5 3H14.5C14.2239 3 14 3.22386 14 3.5V5H10V3.5C10 3.22386 9.77614 3 9.5 3H8.5C8.22386 3 8 3.22386 8 3.5V5H7C5.89543 5 5 5.89543 5 7V8H3.5C3.22386 8 3 8.22386 3 8.5V9.5C3 9.77614 3.22386 10 3.5 10H5V14H3.5C3.22386 14 3 14.2239 3 14.5V15.5C3 15.7761 3.22386 16 3.5 16H5V17C5 18.1046 5.89543 19 7 19H8V20.5C8 20.7761 8.22386 21 8.5 21H9.5C9.77614 21 10 20.7761 10 20.5V19H14V20.5C14 20.7761 14.2239 21 14.5 21H15.5C15.7761 21 16 20.7761 16 20.5V19H17C18.1046 19 19 18.1046 19 17V16H20.5C20.7761 16 21 15.7761 21 15.5V14.5C21 14.2239 20.7761 14 20.5 14H19V10H20.5ZM17 17H7V7H17V17ZM13.5 14H10.5C10.2239 14 10 13.7761 10 13.5V10.5C10 10.2239 10.2239 10 10.5 10H13.5C13.7761 10 14 10.2239 14 10.5V13.5C14 13.7761 13.7761 14 13.5 14Z" fill="currentColor" fill-rule="evenodd" clip-rule="evenodd" />
</svg>
