<svg xmlns="http://www.w3.org/2000/svg" viewBox="0 0 24 24">
    <path d="M2 5C2 4.44772 2.44775 4 3 4H21C21.5522 4 22 4.44772 22 5V16C22 16.5523 21.5522 17 21 17H15V19H16.5C16.7761 19 17 19.2239 17 19.5V20.5C17 20.7761 16.7761 21 16.5 21H7.5C7.22388 21 7 20.7761 7 20.5V19.5C7 19.2239 7.22388 19 7.5 19H9V17H3C2.44775 17 2 16.5523 2 16V5ZM4 15V6H20V15H4Z" fill="currentColor" fill-rule="evenodd" clip-rule="evenodd" />
    <path d="M15.3536 9.56066C15.5488 9.3654 15.5488 9.04882 15.3536 8.85355L14.6464 8.14645C14.4512 7.95118 14.1346 7.95118 13.9393 8.14645L11.8536 10.2322C11.6583 10.4275 11.3417 10.4275 11.1464 10.2322L10.5607 9.64645C10.3654 9.45118 10.0488 9.45118 9.85355 9.64645L9.14645 10.3536C8.95118 10.5488 8.95118 10.8654 9.14645 11.0607L11.1464 13.0607C11.3417 13.2559 11.6583 13.2559 11.8536 13.0607L15.3536 9.56066Z" fill="currentColor" />
</svg>
