<svg xmlns="http://www.w3.org/2000/svg" viewBox="0 0 24 24">
    <path d="M12.6572 2C12.3861 2.61157 12.2344 3.28795 12.2344 4C12.2344 4.29455 12.2611 4.5829 12.3105 4.86328H7C6.44772 4.86328 6 5.29118 6 5.81836V19.1816C6 19.7088 6.44772 20.1367 7 20.1367H15C15.5523 20.1367 16 19.7088 16 19.1816V8.79883C16.3768 8.89079 16.7707 8.94141 17.1758 8.94141C17.4567 8.94138 17.7318 8.91519 18 8.87012V20.1367C17.9998 21.7181 16.6567 23 15 23H7C5.34327 23 4.0002 21.7181 4 20.1367V4.86328C4.0002 3.2819 5.34327 2 7 2H12.6572ZM17.1758 1C18.8324 1.00026 20.1758 2.34331 20.1758 4C20.1758 5.65669 18.8324 6.99974 17.1758 7C15.5189 7 14.1758 5.65685 14.1758 4C14.1758 2.34315 15.5189 1 17.1758 1Z" fill="currentColor" />
</svg>
