<svg xmlns="http://www.w3.org/2000/svg" viewBox="0 0 24 24">
    <path d="M15.78 2.37394L8 7.00187H22C22.5523 7.00187 23 7.44938 23 8.00142V19.9961C23 20.5481 22.5523 20.9956 22 20.9956H2C1.44772 20.9956 1 20.5481 1 19.9961V8.00142C1 7.44938 1.44772 7.00187 2 7.00187H4.4L15 1.06452C15.1178 0.996136 15.2582 0.977729 15.3897 1.01341C15.5212 1.04909 15.6329 1.13588 15.7 1.25444L15.95 1.69424C16.0883 1.92923 16.0127 2.23164 15.78 2.37394ZM3 13.9987C3 16.7589 5.23858 18.9965 8 18.9965C10.7614 18.9965 13 16.7589 13 13.9987C13 11.2385 10.7614 9.00097 8 9.00097C5.23858 9.00097 3 11.2385 3 13.9987ZM20 18.4967C20 18.7727 19.7761 18.9965 19.5 18.9965H16.5C16.2239 18.9965 16 18.7727 16 18.4967V17.4972C16 17.2212 16.2239 16.9974 16.5 16.9974H19.5C19.7761 16.9974 20 17.2212 20 17.4972V18.4967ZM19.5 14.9983C19.7761 14.9983 20 14.7745 20 14.4985V13.499C20 13.2229 19.7761 12.9992 19.5 12.9992H16.5C16.2239 12.9992 16 13.2229 16 13.499V14.4985C16 14.7745 16.2239 14.9983 16.5 14.9983H19.5ZM20 10.5003C20 10.7763 19.7761 11.0001 19.5 11.0001H16.5C16.2239 11.0001 16 10.7763 16 10.5003V9.50075C16 9.22473 16.2239 9.00097 16.5 9.00097H19.5C19.7761 9.00097 20 9.22473 20 9.50075V10.5003ZM6 13.9987C6 12.8947 6.89543 11.9996 8 11.9996C9.10457 11.9996 10 12.8947 10 13.9987C10 15.1028 9.10457 15.9978 8 15.9978C6.89543 15.9978 6 15.1028 6 13.9987Z" fill="currentColor" fill-rule="evenodd" clip-rule="evenodd" />
</svg>
