<svg xmlns="http://www.w3.org/2000/svg" viewBox="0 0 24 24">
    <path d="M15 1H9C7.89543 1 7 1.89543 7 3V21C7 22.1046 7.89543 23 9 23H15C16.1046 23 17 22.1046 17 21V3C17 1.89543 16.1046 1 15 1ZM11 20.5C11 20.7761 10.7761 21 10.5 21H9.5C9.22386 21 9 20.7761 9 20.5V19.5C9 19.2239 9.22386 19 9.5 19H10.5C10.7761 19 11 19.2239 11 19.5V20.5ZM10.5 17C10.7761 17 11 16.7761 11 16.5V15.5C11 15.2239 10.7761 15 10.5 15H9.5C9.22386 15 9 15.2239 9 15.5V16.5C9 16.7761 9.22386 17 9.5 17H10.5ZM15 20.5C15 20.7761 14.7761 21 14.5 21H13.5C13.2239 21 13 20.7761 13 20.5V19.5C13 19.2239 13.2239 19 13.5 19H14.5C14.7761 19 15 19.2239 15 19.5V20.5ZM14.5 17C14.7761 17 15 16.7761 15 16.5V15.5C15 15.2239 14.7761 15 14.5 15H13.5C13.2239 15 13 15.2239 13 15.5V16.5C13 16.7761 13.2239 17 13.5 17H14.5ZM15 12.5C15 12.7761 14.7761 13 14.5 13H9.5C9.22386 13 9 12.7761 9 12.5V11.5C9 11.2239 9.22386 11 9.5 11H14.5C14.7761 11 15 11.2239 15 11.5V12.5ZM9 6C9 7.65685 10.3431 9 12 9C12.7956 9 13.5587 8.68393 14.1213 8.12132C14.6839 7.55871 15 6.79565 15 6C15 4.34315 13.6569 3 12 3C10.3431 3 9 4.34315 9 6Z" fill="currentColor" fill-rule="evenodd" clip-rule="evenodd" />
</svg>
