<svg xmlns="http://www.w3.org/2000/svg" viewBox="0 0 24 24">
    <path d="M19 3V11C19.5523 11 20 11.4477 20 12V17.34C20.0008 18.4012 19.58 19.4192 18.83 20.17L18.17 20.83C17.4192 21.58 16.4012 22.0008 15.34 22H8.66C7.59882 22.0008 6.58079 21.58 5.83 20.83L5.17 20.17C4.42005 19.4192 3.99917 18.4012 4 17.34V12C4 11.4477 4.44772 11 5 11V3C5 2.44772 5.44772 2 6 2H18C18.5523 2 19 2.44772 19 3ZM17 4H7V11H17V4ZM10.5 6H9.5C9.22386 6 9 6.22386 9 6.5V7.5C9 7.77614 9.22386 8 9.5 8H10.5C10.7761 8 11 7.77614 11 7.5V6.5C11 6.22386 10.7761 6 10.5 6ZM13.5 6H14.5C14.7761 6 15 6.22386 15 6.5V7.5C15 7.77614 14.7761 8 14.5 8H13.5C13.2239 8 13 7.77614 13 7.5V6.5C13 6.22386 13.2239 6 13.5 6Z" fill="currentColor" fill-rule="evenodd" clip-rule="evenodd" />
</svg>
