<svg xmlns="http://www.w3.org/2000/svg" viewBox="0 0 24 24">
    <path d="M18 9.5082V12.5115C17.9996 13.119 17.7237 13.6935 17.25 14.0732L13 17.497V21.5014C13 21.7778 12.7761 22.002 12.5 22.002H11.5C11.2239 22.002 11 21.7778 11 21.5014V19.4992L6.75 16.0955C6.27627 15.7157 6.00038 15.1413 6 14.5337V11.5304C6 11.254 6.22386 11.0299 6.5 11.0299H7.5C7.77614 11.0299 8 11.254 8 11.5304V14.5337L11 16.9364V6.77519H9.82C9.5431 6.77923 9.28712 6.62816 9.15658 6.38366C9.02604 6.13915 9.04279 5.84215 9.2 5.61391L11.38 2.3303C11.5197 2.12489 11.7518 2.00195 12 2.00195C12.2482 2.00195 12.4803 2.12489 12.62 2.3303L14.8 5.61391C14.9572 5.84215 14.974 6.13915 14.8434 6.38366C14.7129 6.62816 14.4569 6.77923 14.18 6.77519H13V14.9342L16 12.5315V9.52822C16 9.25177 16.2239 9.02767 16.5 9.02767H17.5C17.7685 9.02745 17.9893 9.2396 18 9.5082Z" fill="currentColor" />
</svg>
