<svg xmlns="http://www.w3.org/2000/svg" viewBox="0 0 24 24">
    <path d="M12 2C6.47715 2 2 6.47715 2 12C2 17.5228 6.47715 22 12 22C17.5228 22 22 17.5228 22 12C22 9.34784 20.9464 6.8043 19.0711 4.92893C17.1957 3.05357 14.6522 2 12 2ZM12 19.47C12.0001 19.6061 11.9447 19.7365 11.8466 19.8308C11.7484 19.9252 11.616 19.9754 11.48 19.97C9.72301 19.854 8.05339 19.1615 6.73 18C6.62902 17.9055 6.57172 17.7733 6.57172 17.635C6.57172 17.4967 6.62902 17.3645 6.73 17.27L7.44 16.56C7.63315 16.3759 7.93685 16.3759 8.13 16.56C9.08108 17.3835 10.267 17.8873 11.52 18C11.7845 18.0105 11.9949 18.2254 12 18.49V19.47ZM8 12C8 14.2091 9.79086 16 12 16C13.0609 16 14.0783 15.5786 14.8284 14.8284C15.5786 14.0783 16 13.0609 16 12C16 9.79086 14.2091 8 12 8C9.79086 8 8 9.79086 8 12ZM17.29 6.71L16.58 7.42C16.3869 7.60413 16.0831 7.60413 15.89 7.42C14.9309 6.59985 13.7377 6.10296 12.48 6C12.2229 5.99016 12.0152 5.78683 12 5.53V4.53C11.9999 4.39385 12.0553 4.26355 12.1534 4.16918C12.2516 4.07482 12.384 4.02455 12.52 4.03C14.2806 4.15443 15.9506 4.8576 17.27 6.03C17.4536 6.2165 17.4623 6.51303 17.29 6.71ZM11 12C11 11.4477 11.4477 11 12 11C12.5523 11 13 11.4477 13 12C13 12.5523 12.5523 13 12 13C11.4477 13 11 12.5523 11 12Z" fill="currentColor" fill-rule="evenodd" clip-rule="evenodd" />
</svg>
