<svg xmlns="http://www.w3.org/2000/svg" viewBox="0 0 24 24">
    <path d="M15.8602 6.16008C17.8209 7.45615 19.0003 9.64971 19.0002 12.0001C19.0048 14.3466 17.8333 16.5394 15.8802 17.8401L15.1602 22.1601C15.081 22.6491 14.6556 23.0065 14.1602 23.0001H9.86019C9.36479 23.0065 8.93941 22.6491 8.86019 22.1601L8.14019 17.8401C6.1792 16.5442 4.99951 14.3506 4.99951 12.0001C4.99951 9.64958 6.1792 7.45599 8.14019 6.16008L8.85019 1.84008C8.92941 1.35103 9.35479 0.993708 9.85019 1.00008H14.1402C14.6356 0.993708 15.061 1.35103 15.1402 1.84008L15.8602 6.16008ZM12.0002 7.00008C9.23876 7.00008 7.00019 9.23866 7.00019 12.0001C7.00019 13.3262 7.52697 14.5979 8.46465 15.5356C9.40233 16.4733 10.6741 17.0001 12.0002 17.0001C14.7616 17.0001 17.0002 14.7615 17.0002 12.0001C17.0002 9.23866 14.7616 7.00008 12.0002 7.00008Z" fill="currentColor" fill-rule="evenodd" clip-rule="evenodd" />
</svg>
