<svg xmlns="http://www.w3.org/2000/svg" viewBox="0 0 24 24">
    <path d="M6 2H18C20.2091 2 22 3.79086 22 6V14C22 16.2091 20.2091 18 18 18H8C7.19856 17.9847 6.42433 18.2908 5.85 18.85L2.85 21.85C2.75833 21.9451 2.63212 21.9992 2.5 22C2.22386 22 2 21.7761 2 21.5V6C2 3.79086 3.79086 2 6 2ZM18 16C19.1046 16 20 15.1046 20 14V6C20 4.89543 19.1046 4 18 4H6C4.89543 4 4 4.89543 4 6V17.88L4.46 17.46C5.39951 16.5229 6.67301 15.9976 8 16H18ZM12.5 12H11.5C11.2239 12 11 12.2239 11 12.5V13.5C11 13.7761 11.2239 14 11.5 14H12.5C12.7761 14 13 13.7761 13 13.5V12.5C13 12.2239 12.7761 12 12.5 12ZM12.56 10H11.5H11.47C11.3428 10.0009 11.2353 9.90624 11.22 9.78L10.82 6.56C10.8028 6.41735 10.8477 6.27417 10.9434 6.16698C11.0391 6.05979 11.1763 5.99896 11.32 6H12.71C12.8537 5.99896 12.9909 6.05979 13.0866 6.16698C13.1823 6.27417 13.2272 6.41735 13.21 6.56L12.81 9.78C12.7947 9.90624 12.6872 10.0009 12.56 10Z" fill="currentColor" fill-rule="evenodd" clip-rule="evenodd" />
</svg>
