<svg xmlns="http://www.w3.org/2000/svg" viewBox="0 0 24 24">
    <path d="M19.71 15.71L18.88 14.88C18.3172 14.3179 18.0007 13.5554 18 12.76V10C18 8.70178 17.5789 7.43858 16.8 6.4L15.9 5.2C15.3334 4.44458 14.4443 4 13.5 4H13V2.5C13 2.22386 12.7761 2 12.5 2H11.5C11.2239 2 11 2.22386 11 2.5V4H10.5C9.55573 4 8.66656 4.44458 8.1 5.2L7.2 6.4C6.42107 7.43858 6 8.70178 6 10V12.76C5.9993 13.5554 5.68277 14.3179 5.12 14.88L4.29 15.71C4.10526 15.8963 4.0011 16.1477 4 16.41V17C4 17.5523 4.44772 18 5 18H19C19.5523 18 20 17.5523 20 17V16.41C19.9989 16.1477 19.8947 15.8963 19.71 15.71ZM16 16H8V10C8 9.13452 8.28071 8.29238 8.8 7.6L9.7 6.4C9.88885 6.14819 10.1852 6 10.5 6H13.5C13.8148 6 14.1111 6.14819 14.3 6.4L15.2 7.6C15.7193 8.29238 16 9.13452 16 10V16ZM12 22C13.1046 22 14 21.1046 14 20H10C10 21.1046 10.8954 22 12 22Z" fill="currentColor" fill-rule="evenodd" clip-rule="evenodd" />
</svg>
