<svg xmlns="http://www.w3.org/2000/svg" viewBox="0 0 24 24">
    <path d="M18.8798 14.88C18.317 14.3179 18.0005 13.5554 17.9998 12.76V10C17.9998 8.70178 17.5787 7.43858 16.7998 6.4L15.8998 5.2C15.3332 4.44458 14.444 4 13.4998 4H12.9998V2.5C12.9998 2.22386 12.7759 2 12.4998 2H11.4998C11.2236 2 10.9998 2.22386 10.9998 2.5V4H10.4998C9.5555 4 8.66634 4.44458 8.09978 5.2L7.19978 6.4C6.42084 7.43858 5.99978 8.70178 5.99978 10V12.76C5.99908 13.5554 5.68255 14.3179 5.11978 14.88L4.28978 15.71C4.10503 15.8963 4.00088 16.1477 3.99978 16.41V17C3.99978 17.5523 4.44749 18 4.99978 18H18.9998C19.5521 18 19.9998 17.5523 19.9998 17V16.41C19.9987 16.1477 19.8945 15.8963 19.7098 15.71L18.8798 14.88ZM15.9998 16H7.99978V10C7.99978 9.13452 8.28049 8.29238 8.79978 7.6L9.69978 6.4C9.88863 6.14819 10.185 6 10.4998 6H13.4998C13.8145 6 14.1109 6.14819 14.2998 6.4L15.1998 7.6C15.7191 8.29238 15.9998 9.13452 15.9998 10V16ZM13.9998 20C13.9998 21.1046 13.1043 22 11.9998 22C10.8952 22 9.99978 21.1046 9.99978 20H13.9998ZM5.58978 5.21C5.70907 5.05475 5.68242 4.83262 5.52978 4.71L4.52978 3.93C4.44617 3.86047 4.33785 3.82797 4.22978 3.84C4.1351 3.86112 4.05251 3.91858 3.99978 4C2.80781 5.58596 2.11192 7.48923 1.99978 9.47C1.98974 9.60792 2.04095 9.74327 2.13978 9.84C2.23135 9.94239 2.36241 10.0006 2.49978 10H3.49978C3.76626 9.99523 3.98414 9.78607 3.99978 9.52C4.10385 7.96023 4.65595 6.46367 5.58978 5.21ZM19.7298 3.84C19.8386 3.85194 19.937 3.91026 19.9998 4C21.1875 5.58824 21.8829 7.4902 21.9998 9.47C21.9979 9.60777 21.9444 9.73981 21.8498 9.84C21.7567 9.94035 21.6266 9.99818 21.4898 10H20.4898C20.2251 9.99492 20.0103 9.78447 19.9998 9.52C19.8811 7.95503 19.3115 6.45798 18.3598 5.21C18.2405 5.05475 18.2671 4.83262 18.4198 4.71L19.4198 3.93C19.508 3.86181 19.6188 3.82964 19.7298 3.84Z" fill="currentColor" fill-rule="evenodd" clip-rule="evenodd" />
</svg>
