<svg xmlns="http://www.w3.org/2000/svg" viewBox="0 0 24 24">
    <path d="M20.12 5.12C20.6828 5.68207 20.9993 6.44462 21 7.24V13.09C20.9981 15.5573 19.8579 17.8857 17.91 19.4L13.83 22.58C13.4782 22.853 13.0453 23.0008 12.6 23H11.4C10.9547 23.0008 10.5218 22.853 10.17 22.58L6.09 19.4C4.14207 17.8857 3.00185 15.5573 3 13.09V7.24C3.0007 6.44462 3.31723 5.68207 3.88 5.12L7.41 1.59C7.7858 1.21196 8.29696 0.999578 8.83 1H15.17C15.703 0.999578 16.2142 1.21196 16.59 1.59L20.12 5.12ZM16.68 17.82C18.1497 16.6923 19.0079 14.9425 19 13.09V7.24C18.9989 6.97766 18.8947 6.72626 18.71 6.54L15.17 3H8.83L5.29 6.54C5.10526 6.72626 5.0011 6.97766 5 7.24V13.09C4.99206 14.9425 5.8503 16.6923 7.32 17.82L11.4 21H12.6L16.68 17.82ZM12.5 14H11.5C11.2239 14 11 14.2239 11 14.5V15.5C11 15.7761 11.2239 16 11.5 16H12.5C12.7761 16 13 15.7761 13 15.5V14.5C13 14.2239 12.7761 14 12.5 14ZM11.32 8H12.68C12.8237 7.99896 12.9609 8.05979 13.0566 8.16698C13.1523 8.27417 13.1972 8.41735 13.18 8.56L12.78 11.78C12.7647 11.9062 12.6572 12.0009 12.53 12H11.47C11.3428 12.0009 11.2353 11.9062 11.22 11.78L10.82 8.56C10.8028 8.41735 10.8477 8.27417 10.9434 8.16698C11.0391 8.05979 11.1763 7.99896 11.32 8Z" fill="currentColor" fill-rule="evenodd" clip-rule="evenodd" />
</svg>
