<svg xmlns="http://www.w3.org/2000/svg" viewBox="0 0 24 24">
    <path d="M18 2H6C4.89543 2 4 2.89543 4 4V20C4 21.1046 4.89543 22 6 22H12.76C13.5554 21.9993 14.3179 21.6828 14.88 21.12L19.12 16.88C19.6828 16.3179 19.9993 15.5554 20 14.76V4C20 2.89543 19.1046 2 18 2ZM18 14H13C12.4477 14 12 14.4477 12 15V20H6V4H18V14ZM10.4873 12.8762C10.3635 12.8762 10.2452 12.825 10.1605 12.7347L7.9381 10.5217C7.84972 10.434 7.8 10.3147 7.8 10.1902C7.8 10.0657 7.84972 9.9464 7.9381 9.85873L8.433 9.36384C8.51772 9.27356 8.63602 9.22235 8.75982 9.22235C8.88363 9.22235 9.00192 9.27356 9.08664 9.36384L10.4873 10.7552L14.9134 6.32909C15.0949 6.15114 15.3855 6.15114 15.567 6.32909L16.0619 6.82398C16.1503 6.91165 16.2 7.03098 16.2 7.15547C16.2 7.27996 16.1503 7.39929 16.0619 7.48696L10.8141 12.7347C10.7294 12.825 10.6111 12.8762 10.4873 12.8762Z" fill="currentColor" fill-rule="evenodd" clip-rule="evenodd" />
</svg>
