<svg xmlns="http://www.w3.org/2000/svg" viewBox="0 0 24 24">
    <path d="M18 2H10.83C10.297 1.99958 9.7858 2.21196 9.41 2.59L4.59 7.41C4.21196 7.7858 3.99958 8.29696 4 8.83V20C4 21.1046 4.89543 22 6 22H18C19.1046 22 20 21.1046 20 20V4C20 2.89543 19.1046 2 18 2ZM5.82 9L11 3.82V8C11 8.55229 10.5523 9 10 9H5.82ZM12.88 15.88H14.5C14.7761 15.88 15 15.6561 15 15.38V14.62C15 14.3439 14.7761 14.12 14.5 14.12H12.88V12.5C12.88 12.2239 12.6561 12 12.38 12H11.62C11.3439 12 11.12 12.2239 11.12 12.5V14.12H9.5C9.22386 14.12 9 14.3439 9 14.62V15.38C9 15.6561 9.22386 15.88 9.5 15.88H11.12V17.5C11.12 17.7761 11.3439 18 11.62 18H12.38C12.6561 18 12.88 17.7761 12.88 17.5V15.88Z" fill="currentColor" fill-rule="evenodd" clip-rule="evenodd" />
</svg>
