<svg xmlns="http://www.w3.org/2000/svg" viewBox="0 0 24 24">
    <path d="M18 2H10.83C10.297 1.99958 9.7858 2.21196 9.41 2.59L4.59 7.41C4.21196 7.7858 3.99958 8.29696 4 8.83V20C4 21.1046 4.89543 22 6 22H18C19.1046 22 20 21.1046 20 20V4C20 2.89543 19.1046 2 18 2ZM5.82 9L11 3.82V8C11 8.55229 10.5523 9 10 9H5.82ZM9.40537 14.1255C9.18446 14.1255 9.00537 14.3046 9.00537 14.5255V15.475C9.00537 15.6959 9.18446 15.875 9.40537 15.875H14.6002C14.8211 15.875 15.0002 15.6959 15.0002 15.475V14.5255C15.0002 14.3046 14.8211 14.1255 14.6002 14.1255H9.40537Z" fill="currentColor" fill-rule="evenodd" clip-rule="evenodd" />
</svg>
