<svg xmlns="http://www.w3.org/2000/svg" viewBox="0 0 24 24">
    <path d="M8.83 1H15C16.1046 1 17 1.89543 17 3V17C17 18.1046 16.1046 19 15 19H4C2.89543 19 2 18.1046 2 17V7.83C1.99958 7.29696 2.21196 6.7858 2.59 6.41L7.41 1.59C7.7858 1.21196 8.29696 0.999578 8.83 1ZM9 2.82L3.82 8H8C8.55229 8 9 7.55229 9 7V2.82ZM14 13.5C14 13.7761 13.7761 14 13.5 14H5.5C5.22386 14 5 13.7761 5 13.5V12.5C5 12.2239 5.22386 12 5.5 12H13.5C13.7761 12 14 12.2239 14 12.5V13.5ZM19 19V5C20.1046 5 21 5.89543 21 7V19C21 21.2091 19.2091 23 17 23H8C6.89543 23 6 22.1046 6 21H17C18.1046 21 19 20.1046 19 19Z" fill="currentColor" fill-rule="evenodd" clip-rule="evenodd" />
</svg>
