<svg xmlns="http://www.w3.org/2000/svg" viewBox="0 0 24 24">
    <path d="M6 22C4.89543 22 4 21.1046 4 20V8.83C3.99958 8.29696 4.21196 7.7858 4.59 7.41L9.41 2.59C9.7858 2.21196 10.297 1.99958 10.83 2H18C19.1046 2 20 2.89543 20 4V20C20 21.1046 19.1046 22 18 22H6ZM12.5 18C12.7761 18 13 17.7761 13 17.5V16.5C13 16.2239 12.7761 16 12.5 16H7.5C7.22386 16 7 16.2239 7 16.5V17.5C7 17.7761 7.22386 18 7.5 18H12.5ZM17 13.5C17 13.7761 16.7761 14 16.5 14H7.5C7.22386 14 7 13.7761 7 13.5V12.5C7 12.2239 7.22386 12 7.5 12H16.5C16.7761 12 17 12.2239 17 12.5V13.5ZM11 3.82L5.82 9H10C10.5523 9 11 8.55229 11 8V3.82Z" fill="currentColor" fill-rule="evenodd" clip-rule="evenodd" />
</svg>
