<svg xmlns="http://www.w3.org/2000/svg" viewBox="0 0 24 24">
    <path d="M14.41 6H20C21.1046 6 22 6.89543 22 8V18C22 19.1046 21.1046 20 20 20H4C2.89543 20 2 19.1046 2 18V6C2 4.89543 2.89543 4 4 4H11.59C11.8523 4.0011 12.1037 4.10526 12.29 4.29L13.71 5.71C13.8963 5.89474 14.1477 5.9989 14.41 6ZM10.7371 14.946C10.9009 14.8578 11.0021 14.686 11 14.5V7.5C11 7.22386 10.7761 7 10.5 7H5.5C5.22386 7 5 7.22386 5 7.5V14.5C4.99785 14.686 5.09914 14.8578 5.26292 14.946C5.4267 15.0342 5.6259 15.0242 5.78 14.92L7.72 13.62C7.89073 13.5109 8.10927 13.5109 8.28 13.62L10.22 14.92C10.3741 15.0242 10.5733 15.0342 10.7371 14.946Z" fill="currentColor" fill-rule="evenodd" clip-rule="evenodd" />
</svg>
