<svg xmlns="http://www.w3.org/2000/svg" viewBox="0 0 24 24">
    <path d="M14.41 6H20C21.1046 6 22 6.89543 22 8V18C22 19.1046 21.1046 20 20 20H4C2.89543 20 2 19.1046 2 18V6C2 4.89543 2.89543 4 4 4H11.59C11.8523 4.0011 12.1037 4.10526 12.29 4.29L13.71 5.71C13.8963 5.89474 14.1477 5.9989 14.41 6ZM20 18V8H14.41C13.6181 7.99666 12.8596 7.68033 12.3 7.12L11.17 6H4V18H20ZM12 14.5V15.5C12 15.7761 11.7761 16 11.5 16H6.5C6.22386 16 6 15.7761 6 15.5V14.5C6 14.2239 6.22386 14 6.5 14H11.5C11.7761 14 12 14.2239 12 14.5ZM14 11.5V10.5C14 10.2239 13.7761 10 13.5 10H6.5C6.22386 10 6 10.2239 6 10.5V11.5C6 11.7761 6.22386 12 6.5 12H13.5C13.7761 12 14 11.7761 14 11.5Z" fill="currentColor" fill-rule="evenodd" clip-rule="evenodd" />
</svg>
