<svg xmlns="http://www.w3.org/2000/svg" viewBox="0 0 24 24">
    <path d="M12 1C10.8954 1 9.99999 1.89543 9.99999 3C9.99999 4.10457 10.8954 5 12 5C13.1046 5 14 4.10457 14 3C14 1.89543 13.1046 1 12 1ZM20.5931 4.23584C20.712 4.29622 20.8012 4.40244 20.84 4.53L21.16 5.47C21.246 5.73492 21.1035 6.01984 20.84 6.11L16.55 7.54C16.0444 7.70359 15.5259 7.82403 15 7.9V22.5C15 22.7761 14.7761 23 14.5 23H13.5C13.2238 23 13 22.7761 13 22.5V15H11V22.5C11 22.7761 10.7761 23 10.5 23H9.49999C9.22384 23 8.99999 22.7761 8.99999 22.5V7.9C8.47319 7.82879 7.95424 7.70826 7.44999 7.54L3.15999 6.11C2.89645 6.01984 2.75399 5.73492 2.83999 5.47L3.15999 4.53C3.19882 4.40244 3.28796 4.29622 3.40684 4.23584C3.52572 4.17545 3.66408 4.16612 3.78999 4.21L8.07999 5.64C8.79256 5.87781 9.53878 5.99936 10.29 6H13.7C14.4546 6.00044 15.2042 5.87887 15.92 5.64L20.21 4.21C20.3359 4.16612 20.4743 4.17545 20.5931 4.23584Z" fill="currentColor" fill-rule="evenodd" clip-rule="evenodd" />
</svg>
