<svg xmlns="http://www.w3.org/2000/svg" viewBox="0 0 24 24">
    <path d="M12 1C10.8954 1 10 1.89543 10 3C10 4.10457 10.8954 5 12 5C13.1046 5 14 4.10457 14 3C14 1.89543 13.1046 1 12 1ZM14.64 6.59L15.41 7.36C15.788 7.7358 16.0004 8.24696 16 8.78V13.5C16 13.7761 15.7761 14 15.5 14H15V22.5C15 22.7761 14.7761 23 14.5 23H13.5C13.2239 23 13 22.7761 13 22.5V15H11V22.5C11 22.7761 10.7761 23 10.5 23H9.5C9.22386 23 9 22.7761 9 22.5V14H8.5C8.22386 14 8 13.7761 8 13.5V8.78C7.99958 8.24696 8.21196 7.7358 8.59 7.36L9.36 6.59C9.7358 6.21196 10.247 5.99958 10.78 6H13.22C13.753 5.99958 14.2642 6.21196 14.64 6.59Z" fill="currentColor" fill-rule="evenodd" clip-rule="evenodd" />
</svg>
