<svg xmlns="http://www.w3.org/2000/svg" viewBox="0 0 24 24">
    <path d="M13 4.5C13 4.77614 12.7761 5 12.5 5H9.5C9.22386 5 9 4.77614 9 4.5V3C9 1.89543 9.89543 1 11 1C12.1046 1 13 1.89543 13 3V4.5ZM11 7C9.34315 7 8 8.34315 8 10V16.5C8 16.7761 8.22386 17 8.5 17H10V22.5C10 22.7761 10.2239 23 10.5 23H12.5C12.7761 23 13 22.7761 13 22.5V17H15.5C15.7761 17 16 16.7761 16 16.5V13C15.9964 11.7317 15.1957 10.6027 14 10.18V10.11C14.0299 9.29547 13.7271 8.50384 13.1612 7.91721C12.5953 7.33058 11.8151 6.99945 11 7Z" fill="currentColor" fill-rule="evenodd" clip-rule="evenodd" />
</svg>
