<svg xmlns="http://www.w3.org/2000/svg" viewBox="0 0 24 24">
    <path d="M11.9999 1C10.8953 1 9.9999 1.89543 9.9999 3C9.9999 4.10457 10.8953 5 11.9999 5C13.1045 5 13.9999 4.10457 13.9999 3C13.9999 1.89543 13.1045 1 11.9999 1ZM15.6699 7.44L19.4499 12C19.6094 12.2097 19.5787 12.5072 19.3799 12.68L18.6199 13.32C18.4062 13.4961 18.091 13.4694 17.9099 13.26L14.9999 9.76V22.5C14.9999 22.7761 14.776 23 14.4999 23H13.4999C13.2238 23 12.9999 22.7761 12.9999 22.5V15H10.9999V22.5C10.9999 22.7761 10.776 23 10.4999 23H9.4999C9.22376 23 8.9999 22.7761 8.9999 22.5V9.76L6.0899 13.28C5.90876 13.4894 5.59362 13.5161 5.3799 13.34L4.6199 12.7C4.40861 12.5253 4.37738 12.2131 4.5499 12L8.3299 7.44C9.09133 6.52584 10.2202 5.99807 11.4099 6H12.5899C13.7796 5.99807 14.9085 6.52584 15.6699 7.44Z" fill="currentColor" fill-rule="evenodd" clip-rule="evenodd" />
</svg>
