<svg xmlns="http://www.w3.org/2000/svg" viewBox="0 0 24 24">
    <path d="M17.5 4C16.1193 4 15 5.11929 15 6.5C15.0055 7.87844 16.1216 8.99452 17.5 9C18.8807 9 20 7.88071 20 6.5C20 5.11929 18.8807 4 17.5 4ZM19.1923 15.5333C19.7832 15.3018 20.4028 15.059 21.46 15C21.5994 14.9888 21.7371 15.0365 21.8397 15.1315C21.9423 15.2265 22.0005 15.3602 22 15.5V16.5C22.0013 16.7577 21.8065 16.9742 21.55 17C20.8155 17.0598 20.3254 17.2509 19.8141 17.4502C19.128 17.7177 18.4038 18 17 18C15.6243 18 14.9302 17.7285 14.2654 17.4684C13.6543 17.2294 13.068 17 12 17C10.9393 17 10.3696 17.2262 9.77205 17.4635C9.11338 17.7251 8.42099 18 7.00001 18C5.60547 18 4.889 17.7172 4.21298 17.4504C3.6965 17.2465 3.20362 17.052 2.45001 17C2.19356 16.9742 1.99871 16.7577 2.00001 16.5V15.5C1.99956 15.3602 2.05769 15.2265 2.1603 15.1315C2.26291 15.0365 2.40062 14.9888 2.54001 15C3.57006 15.0671 4.14793 15.2994 4.7047 15.5233C5.31007 15.7666 5.89048 16 7.00001 16C8.00691 16 8.58698 15.7765 9.19871 15.5409C9.88103 15.278 10.6027 15 12 15C13.3927 15 14.1059 15.2762 14.7827 15.5383C15.3938 15.7749 15.9752 16 17 16C18.0013 16 18.5815 15.7727 19.1923 15.5333ZM21.46 19C20.4028 19.059 19.7832 19.3018 19.1923 19.5333C18.5815 19.7727 18.0013 20 17 20C15.9752 20 15.3938 19.7749 14.7827 19.5383C14.1059 19.2762 13.3927 19 12 19C10.6027 19 9.88103 19.278 9.19871 19.5409C8.58698 19.7765 8.00691 20 7.00001 20C5.89048 20 5.31007 19.7666 4.7047 19.5233C4.14793 19.2994 3.57006 19.0671 2.54001 19C2.40062 18.9888 2.26291 19.0365 2.1603 19.1315C2.05769 19.2265 1.99956 19.3602 2.00001 19.5V20.5C1.99871 20.7577 2.19356 20.9742 2.45001 21C3.20362 21.052 3.6965 21.2465 4.21298 21.4504C4.889 21.7172 5.60547 22 7.00001 22C8.42099 22 9.11338 21.7251 9.77205 21.4635C10.3696 21.2262 10.9393 21 12 21C13.068 21 13.6543 21.2294 14.2654 21.4684C14.9302 21.7285 15.6243 22 17 22C18.4038 22 19.128 21.7177 19.8141 21.4502C20.3254 21.2509 20.8155 21.0598 21.55 21C21.8065 20.9742 22.0013 20.7577 22 20.5V19.5C22.0005 19.3602 21.9423 19.2265 21.8397 19.1315C21.7371 19.0365 21.5994 18.9888 21.46 19ZM8.61001 7.5H5.50001C5.22386 7.5 5.00001 7.27614 5.00001 7V5.5C5.00001 5.22386 5.22386 5 5.50001 5H8.41001C9.75865 4.99217 11.0533 5.52949 12 6.49L19 13.49C18.3761 13.7972 17.6949 13.9709 17 14C16.4041 14 15.9401 13.8288 15.3961 13.628C14.6254 13.3436 13.6941 13 12 13C10.296 13 9.34989 13.3477 8.57335 13.633C8.03287 13.8316 7.57454 14 7.00001 14C6.69966 14.005 6.40009 13.968 6.11001 13.89L11 9L10 8.09C9.63157 7.71926 9.13263 7.50748 8.61001 7.5Z" fill="currentColor" fill-rule="evenodd" clip-rule="evenodd" />
</svg>
