<svg xmlns="http://www.w3.org/2000/svg" viewBox="0 0 24 24">
    <path d="M14.9998 3C14.9998 4.10457 14.1044 5 12.9998 5C11.8952 5 10.9998 4.10457 10.9998 3C10.9998 1.89543 11.8952 1 12.9998 1C14.1044 1 14.9998 1.89543 14.9998 3ZM18.9998 10.2474V11.2516C18.9998 11.4024 18.9324 11.5452 18.8161 11.6405C18.6998 11.7359 18.5469 11.7738 18.3998 11.7436L16.2598 11.3118C15.6022 11.1719 15.0084 10.8192 14.5698 10.3077L13.5698 9.18308L12.7598 13.8924L14.2098 15.2781C14.4942 15.5507 14.6953 15.899 14.7898 16.2822L16.0598 22.3974C16.0939 22.5456 16.0577 22.7014 15.9619 22.8192C15.866 22.937 15.7213 23.0037 15.5698 22.9998H14.5698C14.3307 23.0039 14.1237 22.8342 14.0798 22.5982L12.9398 17.0454C12.8993 16.8374 12.7943 16.6476 12.6398 16.5031L9.30979 13.3502C9.06479 13.1188 8.95207 12.7792 9.00979 12.4465L9.64979 8.72118L8.38979 9.56464C8.19065 9.69692 8.04522 9.89638 7.97979 10.127L7.25979 12.6674C7.19757 12.8816 7.00201 13.0289 6.77979 13.0289H5.77979C5.62241 13.0289 5.47422 12.9545 5.37979 12.8281C5.28536 12.7016 5.25572 12.5379 5.29979 12.3862L6.15979 9.2132C6.29571 8.74895 6.594 8.34959 6.99979 8.08858L8.86979 6.83342C9.68838 6.28962 10.6483 5.99977 11.6298 6H12.1398C13.0218 5.9995 13.8594 6.3888 14.4298 7.06437L16.0998 9.01238C16.2455 9.18802 16.4466 9.30845 16.6698 9.35378L18.5998 9.73535C18.8402 9.78441 19.0096 10.0013 18.9998 10.2474ZM9.41979 15.84V15.95C9.38963 16.1314 9.31004 16.3009 9.18979 16.44L6.45979 19.51C6.26922 19.7044 6.26922 20.0156 6.45979 20.21L7.21979 20.88C7.31852 20.9678 7.44854 21.012 7.58033 21.0026C7.71213 20.9932 7.83454 20.931 7.91979 20.83L10.8098 17.55C10.8685 17.4878 10.922 17.4209 10.9698 17.35L9.41979 15.84Z" fill="currentColor" fill-rule="evenodd" clip-rule="evenodd" />
</svg>
