<svg xmlns="http://www.w3.org/2000/svg" viewBox="0 0 24 24">
    <path d="M15 4.5C15 3.39543 15.8954 2.5 17 2.5C18.1046 2.5 19 3.39543 19 4.5C19 5.60457 18.1046 6.5 17 6.5C15.8954 6.5 15 5.60457 15 4.5ZM16.12 9.84C16.407 9.21989 16.3575 8.49618 15.9888 7.92088C15.6202 7.34557 14.9833 6.99831 14.3 7H10.53C9.36421 6.99919 8.30351 7.67383 7.80999 8.73L7.07999 10.29C7.00786 10.4458 7.02074 10.6278 7.11411 10.7719C7.20749 10.916 7.36828 11.0021 7.53999 11H8.63999C8.83498 11.0037 9.01283 10.8891 9.08999 10.71L9.61999 9.58C9.78403 9.22555 10.1394 8.99903 10.53 9H12.1L10.16 13.15C9.86679 13.7743 9.91594 14.5056 10.29 15.085C10.6641 15.6644 11.3104 16.0102 12 16H16.5C16.7761 16 17 16.2239 17 16.5V21.5C17 21.7761 17.2239 22 17.5 22H18.5C18.7761 22 19 21.7761 19 21.5V16C19 14.8954 18.1046 14 17 14H14.18L16.12 9.84ZM7.0666 17.5081C7.31249 18.9392 8.54799 19.9887 9.99999 20C11.6568 20 13 18.6569 13 17H15C14.9995 19.6311 12.9599 21.8117 10.3347 21.9878C7.70943 22.1639 5.39689 20.2753 5.04493 17.6678C4.69297 15.0603 6.42203 12.6262 8.99999 12.1V14.18C7.63503 14.6753 6.82071 16.077 7.0666 17.5081Z" fill="currentColor" fill-rule="evenodd" clip-rule="evenodd" />
</svg>
