<svg xmlns="http://www.w3.org/2000/svg" viewBox="0 0 24 24">
    <path d="M13.9921 4.5C13.9921 4.77614 13.7691 5 13.4941 5H10.5061C10.231 5 10.0081 4.77614 10.0081 4.5V3C10.0081 1.89543 10.8999 1 12.0001 1C13.1002 1 13.9921 1.89543 13.9921 3V4.5ZM14.9881 22.5V17H16.502C16.6587 17 16.8063 16.9259 16.9004 16.8C16.9944 16.6741 17.024 16.5111 16.9801 16.36L14.4602 7.71C14.3287 7.27272 13.9187 6.9805 13.4642 7H10.6156C10.1611 6.9805 9.75114 7.27272 9.61961 7.71L7.02004 16.36C6.97501 16.5145 7.00685 16.6814 7.10557 16.8082C7.20429 16.9351 7.35782 17.0065 7.51804 17H9.01205V22.5C9.01205 22.7761 9.23501 23 9.51005 23H10.5061C10.7811 23 11.0041 22.7761 11.0041 22.5V17H12.9961V22.5C12.9961 22.7761 13.219 23 13.4941 23H14.4901C14.7651 23 14.9881 22.7761 14.9881 22.5Z" fill="currentColor" fill-rule="evenodd" clip-rule="evenodd" />
</svg>
