<svg xmlns="http://www.w3.org/2000/svg" viewBox="0 0 24 24">
    <path d="M14.9999 2C16.8231 2 18.3591 3.21922 18.8417 4.88672C19.9707 4.93432 21.0513 5.54078 21.6581 6.5918C22.3976 7.87251 22.2129 9.43219 21.3115 10.501C22.5384 11.7218 23.0972 13.5461 22.6171 15.3379C22.1203 17.1918 20.6427 18.5191 18.8925 18.916C18.4778 20.6836 16.8943 22 14.9999 22C13.8047 21.9999 12.7329 21.4747 11.9999 20.6436C11.267 21.4747 10.1952 22 8.99994 22C7.10556 21.9999 5.521 20.6837 5.10638 18.916C3.3567 18.5187 1.87947 17.1914 1.38275 15.3379C0.902737 13.5465 1.46096 11.7218 2.68744 10.501C1.7865 9.43225 1.60258 7.87221 2.34173 6.5918C2.9483 5.5412 4.0287 4.93475 5.15716 4.88672C5.63962 3.21912 7.17672 2.00008 8.99994 2C10.1949 2 11.267 2.52468 11.9999 3.35547C12.7329 2.52462 13.8049 2.00005 14.9999 2ZM10.9999 6C10.9999 4.89543 10.1045 4 8.99994 4C8.10572 4.00008 7.34892 4.58831 7.09369 5.39844C7.50374 5.69517 7.63159 6.26009 7.37298 6.70801C7.09677 7.18611 6.48498 7.34934 6.00677 7.07324C5.32997 6.68255 4.4649 6.91501 4.07416 7.5918C3.72353 8.19911 3.87473 8.95684 4.39837 9.38867C4.56559 9.32391 4.73783 9.26721 4.91498 9.21973C5.44843 9.07679 5.99662 9.39332 6.13959 9.92676C6.28253 10.4602 5.96602 11.0084 5.43255 11.1514C3.83484 11.5797 2.88723 13.2225 3.31537 14.8203C3.74368 16.4179 5.38562 17.3664 6.98334 16.9385C7.5168 16.7955 8.065 17.112 8.20794 17.6455C8.3507 18.1789 8.03429 18.7272 7.50091 18.8701C7.41157 18.8941 7.32179 18.9138 7.23236 18.9326C7.56776 19.5668 8.23309 19.9999 8.99994 20C10.1045 20 10.9999 19.1046 10.9999 18V6ZM8.32611 10.0205C8.86683 9.90907 9.39607 10.2571 9.50775 10.7979C9.90767 12.7347 8.6614 14.6293 6.72455 15.0293C6.18368 15.141 5.65462 14.7928 5.54291 14.252C5.43132 13.7112 5.77944 13.182 6.32025 13.0703C7.17527 12.8936 7.72538 12.0572 7.54876 11.2021C7.43711 10.6613 7.78527 10.1322 8.32611 10.0205ZM14.5429 10.7979C14.6546 10.257 15.1837 9.9088 15.7245 10.0205C16.2653 10.1322 16.6135 10.6614 16.5019 11.2021C16.3253 12.0573 16.8752 12.8937 17.7304 13.0703C18.2711 13.1821 18.6184 13.7112 18.5068 14.252C18.3951 14.7927 17.8668 15.1407 17.3261 15.0293C15.3892 14.6293 14.1429 12.7347 14.5429 10.7979ZM12.9999 18C12.9999 19.1045 13.8955 19.9999 14.9999 20C15.7666 20 16.431 19.5665 16.7665 18.9326C16.6775 18.9138 16.588 18.894 16.499 18.8701C15.9657 18.7272 15.6492 18.1788 15.7919 17.6455C15.9349 17.1121 16.4831 16.7956 17.0165 16.9385C18.6144 17.3666 20.2572 16.4181 20.6855 14.8203C21.1136 13.2224 20.1652 11.5795 18.5673 11.1514C18.0339 11.0084 17.7174 10.4602 17.8603 9.92676C18.0032 9.39329 18.5514 9.07678 19.0849 9.21973C19.2621 9.26719 19.4343 9.32392 19.6015 9.38867C20.1252 8.95694 20.2772 8.19915 19.9267 7.5918C19.5359 6.91498 18.6699 6.68248 17.9931 7.07324C17.515 7.34912 16.9041 7.18584 16.6279 6.70801C16.3692 6.26001 16.496 5.69415 16.9062 5.39746C16.6506 4.58782 15.8939 4 14.9999 4C13.8955 4.0001 12.9999 4.89549 12.9999 6V18Z" fill="currentColor" />
</svg>
