<svg xmlns="http://www.w3.org/2000/svg" viewBox="0 0 24 24">
    <path d="M12.9994 20.5898C12.9983 20.8522 12.8941 21.1038 12.7094 21.29L12.2894 21.71C12.1032 21.8947 11.8515 21.9989 11.5892 22H10.4096C10.1472 21.9989 9.89562 21.8947 9.70936 21.71L9.28944 21.29C9.10471 21.1038 9.00051 20.8522 8.9994 20.5898V20H12.9994V20.5898ZM10.9994 2C11.1605 2 11.3205 2.00686 11.4789 2.01758L10.5404 4.02832C8.08391 4.30157 6.14948 6.30697 5.9994 8.80957C5.93541 10.536 6.7675 12.1733 8.1996 13.1396C8.87767 13.5946 9.40351 14.2429 9.70936 15H12.2894C12.5883 14.2417 13.1116 13.5923 13.7894 13.1396C14.4635 12.6832 14.9976 12.0834 15.3705 11.4023L17.9066 10.1123C17.6001 12.0058 16.5276 13.7101 14.9096 14.7998C14.3411 15.1693 13.9983 15.8024 13.9994 16.4805V17C13.9994 17.5523 13.5516 17.9999 12.9994 18H8.9994C8.44718 17.9999 7.9994 17.5522 7.9994 17V16.3486C7.97499 15.6971 7.63296 15.095 7.07948 14.7402C5.09357 13.3993 3.93148 11.1355 3.9994 8.74023C4.18543 5.04383 7.17986 2.11013 10.8793 2H10.9994ZM21.1752 6.70215C21.3131 6.70398 21.4389 6.78084 21.5043 6.90234C21.8194 7.54911 22.3446 8.07012 22.9935 8.38086C23.1106 8.4431 23.1808 8.56783 23.1732 8.7002C23.1798 8.84336 23.0958 8.97563 22.9633 9.03027C22.3118 9.34226 21.787 9.86804 21.475 10.5195C21.416 10.63 21.3004 10.6991 21.1752 10.6992C21.0332 10.7 20.9051 10.6123 20.8549 10.4795C20.5403 9.82991 20.0161 9.30485 19.3666 8.99023C19.2483 8.94369 19.1716 8.82727 19.1762 8.7002C19.1579 8.56264 19.237 8.43052 19.3666 8.38086C20.0125 8.0696 20.5338 7.54829 20.8451 6.90234C20.9105 6.78073 21.0371 6.70385 21.1752 6.70215ZM15.9994 0.467773C16.2763 0.467773 16.5301 0.623408 16.6557 0.870117C17.2826 2.16029 18.3251 3.2023 19.6156 3.8291C19.8403 3.94332 19.9866 4.16925 19.9994 4.4209V4.51758C19.9866 4.76923 19.8403 4.99515 19.6156 5.10938C18.3166 5.73727 17.2682 6.78542 16.64 8.08398C16.5257 8.30871 16.2991 8.45505 16.0473 8.46777H15.9516C15.6997 8.45504 15.4741 8.30871 15.3598 8.08398C14.7316 6.78527 13.6823 5.73731 12.3832 5.10938C12.1586 4.99512 12.0122 4.76918 11.9994 4.51758V4.4209C12.0122 4.16931 12.1586 3.94335 12.3832 3.8291C13.6738 3.20231 14.7162 2.16031 15.3432 0.870117C15.4687 0.6234 15.7225 0.467834 15.9994 0.467773Z" fill="currentColor" fill-rule="evenodd" clip-rule="evenodd" />
</svg>
