<svg xmlns="http://www.w3.org/2000/svg" viewBox="0 0 24 24">
    <path d="M9.80008 2.20031C9.80008 0.985336 10.785 0.000407882 12 0.000407882C12.1594 -0.00304695 12.3186 0.0154592 12.473 0.0554054C13.3496 0.257305 14.015 0.972616 14.1531 1.86156C14.2911 2.7505 13.874 3.63393 13.0999 4.09222V5.50015H16.3998C18.8297 5.50015 20.7996 7.47001 20.7996 9.89995V12.0999C22.0145 12.0999 22.9995 13.0848 22.9995 14.2997C22.9995 15.5147 22.0145 16.4996 20.7996 16.4996V17.5996C20.7996 20.0295 18.8297 21.9994 16.3998 21.9994H7.60018C5.17024 21.9994 3.20039 20.0295 3.20039 17.5996V16.4996C1.98542 16.4996 1.00049 15.5147 1.00049 14.2997C1.00049 13.0848 1.98542 12.0999 3.20039 12.0999V9.89995C3.20039 7.47001 5.17024 5.50015 7.60018 5.50015H10.9V4.09222C10.2235 3.70162 9.8048 2.98151 9.80008 2.20031ZM8.70013 8.80013C9.9151 8.80013 10.9 9.90818 10.9 11.275C10.9 11.7306 10.5717 12.1 10.1667 12.1H7.23353C6.82854 12.1 6.50023 11.7306 6.50023 11.275C6.50023 9.90818 7.48516 8.80013 8.70013 8.80013ZM15.2998 8.80013C14.0849 8.80013 13.0999 9.90818 13.0999 11.275C13.0999 11.7306 13.4282 12.1 13.8332 12.1H16.7664C17.1714 12.1 17.4997 11.7306 17.4997 11.275C17.4997 9.90818 16.5148 8.80013 15.2998 8.80013ZM7.60018 15.7665C7.60018 14.9565 8.2568 14.2999 9.06678 14.2999H14.9332C15.7432 14.2999 16.3998 14.9565 16.3998 15.7665C16.3998 17.3864 15.0865 18.6997 13.4666 18.6997H10.5334C8.91342 18.6997 7.60018 17.3864 7.60018 15.7665Z" fill="currentColor" fill-rule="evenodd" clip-rule="evenodd" />
</svg>
