<svg xmlns="http://www.w3.org/2000/svg" viewBox="0 0 24 24">
    <path d="M17 6C17 4.89543 16.1046 4 15 4H14V3C14 2.44772 13.5523 2 13 2H11C10.4477 2 10 2.44772 10 3V4H9C7.89543 4 7 4.89543 7 6V20C7 21.1046 7.89543 22 9 22H15C16.1046 22 17 21.1046 17 20V6ZM13 16.5C13 16.7761 12.7761 17 12.5 17H11.5C11.2239 17 11 16.7761 11 16.5V15.5C11 15.2239 11.2239 15 11.5 15H12.5C12.7761 15 13 15.2239 13 15.5V16.5ZM12.53 13C12.6572 13.0009 12.7647 12.9062 12.78 12.78L13.18 9.56C13.1972 9.41735 13.1523 9.27417 13.0566 9.16698C12.9609 9.05979 12.8237 8.99896 12.68 9H11.32C11.1763 8.99896 11.0391 9.05979 10.9434 9.16698C10.8477 9.27417 10.8028 9.41735 10.82 9.56L11.22 12.78C11.2353 12.9062 11.3428 13.0009 11.47 13H12.53Z" fill="currentColor" fill-rule="evenodd" clip-rule="evenodd" />
</svg>
