<svg xmlns="http://www.w3.org/2000/svg" viewBox="0 0 24 24">
    <path d="M18 2H6C3.79086 2 2 3.79086 2 6V21.5C2 21.7761 2.22386 22 2.5 22C2.63212 21.9992 2.75833 21.9451 2.85 21.85L5.85 18.85C6.42433 18.2908 7.19856 17.9847 8 18H18C20.2091 18 22 16.2091 22 14V6C22 3.79086 20.2091 2 18 2ZM13 13.5C13 13.7761 12.7761 14 12.5 14H11.5C11.2239 14 11 13.7761 11 13.5V12.5C11 12.2239 11.2239 12 11.5 12H12.5C12.7761 12 13 12.2239 13 12.5V13.5ZM12.53 10C12.6572 10.0009 12.7647 9.90624 12.78 9.78L13.18 6.56C13.1972 6.41735 13.1523 6.27417 13.0566 6.16698C12.9609 6.05979 12.8237 5.99896 12.68 6H11.32C11.1763 5.99896 11.0391 6.05979 10.9434 6.16698C10.8477 6.27417 10.8028 6.41735 10.82 6.56L11.22 9.78C11.2353 9.90624 11.3428 10.0009 11.47 10H12.53Z" fill="currentColor" fill-rule="evenodd" clip-rule="evenodd" />
</svg>
