<svg xmlns="http://www.w3.org/2000/svg" viewBox="0 0 24 24">
    <path d="M19.71 15.71L18.88 14.88C18.3172 14.3179 18.0007 13.5554 18 12.76V10C18 8.70178 17.5789 7.43858 16.8 6.4L15.9 5.2C15.3334 4.44458 14.4443 4 13.5 4H13V2.5C13 2.22386 12.7761 2 12.5 2H11.5C11.2239 2 11 2.22386 11 2.5V4H10.5C9.55573 4 8.66656 4.44458 8.1 5.2L7.2 6.4C6.42107 7.43858 6 8.70178 6 10V12.76C5.9993 13.5554 5.68277 14.3179 5.12 14.88L4.29 15.71C4.10526 15.8963 4.0011 16.1477 4 16.41V17C4 17.5523 4.44772 18 5 18H19C19.5523 18 20 17.5523 20 17V16.41C19.9989 16.1477 19.8947 15.8963 19.71 15.71ZM14.5 11.88H12.88V13.5C12.88 13.7761 12.6561 14 12.38 14H11.62C11.3439 14 11.12 13.7761 11.12 13.5V11.88H9.5C9.22386 11.88 9 11.6561 9 11.38V10.62C9 10.3439 9.22386 10.12 9.5 10.12H11.12V8.5C11.12 8.22386 11.3439 8 11.62 8H12.38C12.6561 8 12.88 8.22386 12.88 8.5V10.12H14.5C14.7761 10.12 15 10.3439 15 10.62V11.38C15 11.6561 14.7761 11.88 14.5 11.88ZM14 20C14 21.1046 13.1046 22 12 22C10.8954 22 10 21.1046 10 20H14Z" fill="currentColor" fill-rule="evenodd" clip-rule="evenodd" />
</svg>
