<svg xmlns="http://www.w3.org/2000/svg" viewBox="0 0 24 24">
    <path d="M18.88 14.88L19.71 15.71C19.8947 15.8963 19.9989 16.1477 20 16.41V17C20 17.5523 19.5523 18 19 18H5C4.44772 18 4 17.5523 4 17V16.41C4.0011 16.1477 4.10526 15.8963 4.29 15.71L5.12 14.88C5.68277 14.3179 5.9993 13.5554 6 12.76V10C6 8.70178 6.42107 7.43858 7.2 6.4L8.1 5.2C8.66656 4.44458 9.55573 4 10.5 4H11V2.5C11 2.22386 11.2239 2 11.5 2H12.5C12.7761 2 13 2.22386 13 2.5V4H13.5C14.4443 4 15.3334 4.44458 15.9 5.2L16.8 6.4C17.5789 7.43858 18 8.70178 18 10V12.76C18.0007 13.5554 18.3172 14.3179 18.88 14.88ZM12.5 15C12.7761 15 13 14.7761 13 14.5V13.5C13 13.2239 12.7761 13 12.5 13H11.5C11.2239 13 11 13.2239 11 13.5V14.5C11 14.7761 11.2239 15 11.5 15H12.5ZM12.78 10.78C12.7647 10.9062 12.6572 11.0009 12.53 11H11.47C11.3428 11.0009 11.2353 10.9062 11.22 10.78L10.82 7.56C10.8028 7.41735 10.8477 7.27417 10.9434 7.16698C11.0391 7.05979 11.1763 6.99896 11.32 7H12.68C12.8237 6.99896 12.9609 7.05979 13.0566 7.16698C13.1523 7.27417 13.1972 7.41735 13.18 7.56L12.78 10.78ZM14 20C14 21.1046 13.1046 22 12 22C10.8954 22 10 21.1046 10 20H14Z" fill="currentColor" fill-rule="evenodd" clip-rule="evenodd" />
</svg>
