<svg xmlns="http://www.w3.org/2000/svg" viewBox="0 0 24 24">
    <path d="M18.0255 10C18.0255 8.70178 17.6037 7.43858 16.8233 6.4L15.9217 5.2C15.3541 4.44458 14.4633 4 13.5173 4H13.0164V2.5C13.0164 2.22386 12.7921 2 12.5155 2H11.5137C11.237 2 11.0128 2.22386 11.0128 2.5V4H10.5119C9.98114 4.00461 9.46168 4.15325 9.00912 4.43L18.0255 13.43V10ZM14.0182 20C14.0182 21.1046 13.1212 22 12.0146 22C10.908 22 10.0109 21.1046 10.0109 20H14.0182ZM5.38252 3.32L20.8807 18.79C21.0507 18.9895 21.0376 19.2862 20.8507 19.47L20.3197 20C20.1249 20.1906 19.8132 20.1906 19.6184 20L17.6148 18H5.00182C4.44853 18 4 17.5523 4 17V16.41C4.00111 16.1477 4.10545 15.8963 4.29053 15.71L5.12204 14.88C5.68584 14.3179 6.00295 13.5554 6.00365 12.76V10C6.00937 9.00513 6.26789 8.02797 6.75501 7.16L4.15027 4.56C4.05544 4.46612 4.0021 4.33832 4.0021 4.205C4.0021 4.07168 4.05544 3.94388 4.15027 3.85L4.68124 3.32C4.87602 3.12943 5.18774 3.12943 5.38252 3.32Z" fill="currentColor" fill-rule="evenodd" clip-rule="evenodd" />
</svg>
