<svg xmlns="http://www.w3.org/2000/svg" viewBox="0 0 24 24">
    <path d="M18 11.4233C14.8849 10.9423 12.5 8.2495 12.5 4.99971C12.5 4.11214 12.6779 3.26612 13 2.49536C12.9976 2.22122 12.7747 1.99971 12.5 1.99971H11.5C11.2239 1.99971 11 2.22357 11 2.49971V3.99971H10.5C9.55573 3.99971 8.66656 4.4443 8.1 5.19971L7.2 6.39971C6.42107 7.43829 6 8.70149 6 9.99971V12.7597C5.9993 13.5551 5.68277 14.3176 5.12 14.8797L4.29 15.7097C4.10526 15.896 4.0011 16.1474 4 16.4097V16.9997C4 17.552 4.44772 17.9997 5 17.9997H19C19.5523 17.9997 20 17.552 20 16.9997V16.4097C19.9989 16.1474 19.8947 15.896 19.71 15.7097L18.88 14.8797C18.3172 14.3176 18.0007 13.5551 18 12.7597V11.4233Z" fill="currentColor" />
    <path d="M14 19.9997C14 21.1043 13.1046 21.9997 12 21.9997C10.8954 21.9997 10 21.1043 10 19.9997H14Z" fill="currentColor" />
    <path d="M18.938 9.16338C21.1128 9.16338 22.8759 7.38885 22.8759 5.19985C22.8759 3.01086 21.1128 1.23633 18.938 1.23633C16.7631 1.23633 15 3.01086 15 5.19985C15 7.38885 16.7631 9.16338 18.938 9.16338Z" fill="currentColor" fill-rule="evenodd" clip-rule="evenodd" />
</svg>
