<svg xmlns="http://www.w3.org/2000/svg" viewBox="0 0 24 24">
    <path d="M21.5 6H20.5C20.2239 6 20 6.22386 20 6.5V17C20 17.5523 19.5523 18 19 18C18.4477 18 18 17.5523 18 17V6C18 4.89543 17.1046 4 16 4H4C2.89543 4 2 4.89543 2 6V17C2 18.6569 3.34315 20 5 20H19C20.6569 20 22 18.6569 22 17V6.5C22 6.22386 21.7761 6 21.5 6ZM15 15.5C15 15.7761 14.7761 16 14.5 16H5.5C5.22386 16 5 15.7761 5 15.5V14.5C5 14.2239 5.22386 14 5.5 14H14.5C14.7761 14 15 14.2239 15 14.5V15.5ZM14.5 12C14.7761 12 15 11.7761 15 11.5V8.5C15 8.22386 14.7761 8 14.5 8H5.5C5.22386 8 5 8.22386 5 8.5V11.5C5 11.7761 5.22386 12 5.5 12H14.5Z" fill="currentColor" fill-rule="evenodd" clip-rule="evenodd" />
</svg>
