<svg xmlns="http://www.w3.org/2000/svg" viewBox="0 0 24 24">
    <path d="M10 19V5C10 4.44772 9.55228 4 9 4H3C2.44772 4 2 4.44772 2 5V19C2 19.5523 2.44772 20 3 20H9C9.55228 20 10 19.5523 10 19ZM13 13H15C15.5523 13 16 13.4477 16 14V19C16 19.5523 15.5523 20 15 20H13C12.4477 20 12 19.5523 12 19V14C12 13.4477 12.4477 13 13 13ZM21 13H19C18.4477 13 18 13.4477 18 14V19C18 19.5523 18.4477 20 19 20H21C21.5523 20 22 19.5523 22 19V14C22 13.4477 21.5523 13 21 13ZM13 4H21C21.5523 4 22 4.44772 22 5V10C22 10.5523 21.5523 11 21 11H13C12.4477 11 12 10.5523 12 10V5C12 4.44772 12.4477 4 13 4Z" fill="currentColor" fill-rule="evenodd" clip-rule="evenodd" />
</svg>
