<svg xmlns="http://www.w3.org/2000/svg" viewBox="0 0 24 24">
    <path d="M3.5 18H20.5C20.7761 18 21 18.2239 21 18.5V19.5C21 19.7761 20.7761 20 20.5 20H3.5C3.22386 20 3 19.7761 3 19.5V18.5C3 18.2239 3.22386 18 3.5 18ZM3.5 14H20.5C20.7761 14 21 14.2239 21 14.5V15.5C21 15.7761 20.7761 16 20.5 16H3.5C3.22386 16 3 15.7761 3 15.5V14.5C3 14.2239 3.22386 14 3.5 14ZM20.5 10H3.5C3.22386 10 3 10.2239 3 10.5V11.5C3 11.7761 3.22386 12 3.5 12H20.5C20.7761 12 21 11.7761 21 11.5V10.5C21 10.2239 20.7761 10 20.5 10ZM3.5 4H20.5C20.7761 4 21 4.22386 21 4.5V7.5C21 7.77614 20.7761 8 20.5 8H3.5C3.22386 8 3 7.77614 3 7.5V4.5C3 4.22386 3.22386 4 3.5 4Z" fill="currentColor" fill-rule="evenodd" clip-rule="evenodd" />
</svg>
