<svg xmlns="http://www.w3.org/2000/svg" viewBox="0 0 24 24">
    <path d="M20.5 18H3.5C3.22386 18 3 18.2239 3 18.5V19.5C3 19.7761 3.22386 20 3.5 20H20.5C20.7761 20 21 19.7761 21 19.5V18.5C21 18.2239 20.7761 18 20.5 18ZM20.5 14H3.5C3.22386 14 3 14.2239 3 14.5V15.5C3 15.7761 3.22386 16 3.5 16H20.5C20.7761 16 21 15.7761 21 15.5V14.5C21 14.2239 20.7761 14 20.5 14ZM3.5 4H20.5C20.7761 4 21 4.22386 21 4.5V11.5C21 11.7761 20.7761 12 20.5 12H3.5C3.22386 12 3 11.7761 3 11.5V4.5C3 4.22386 3.22386 4 3.5 4Z" fill="currentColor" fill-rule="evenodd" clip-rule="evenodd" />
</svg>
