<svg xmlns="http://www.w3.org/2000/svg" viewBox="0 0 24 24">
    <path d="M3.5 14H20.5C20.7761 14 21 14.2239 21 14.5V19.5C21 19.7761 20.7761 20 20.5 20H3.5C3.22386 20 3 19.7761 3 19.5V14.5C3 14.2239 3.22386 14 3.5 14ZM20.5 10H3.5C3.22386 10 3 10.2239 3 10.5V11.5C3 11.7761 3.22386 12 3.5 12H20.5C20.7761 12 21 11.7761 21 11.5V10.5C21 10.2239 20.7761 10 20.5 10ZM20.5 4H3.5C3.22386 4 3 4.22386 3 4.5V7.5C3 7.77614 3.22386 8 3.5 8H20.5C20.7761 8 21 7.77614 21 7.5V4.5C21 4.22386 20.7761 4 20.5 4Z" fill="currentColor" fill-rule="evenodd" clip-rule="evenodd" />
</svg>
