<svg xmlns="http://www.w3.org/2000/svg" viewBox="0 0 24 24">
    <path d="M4.78626 8.53765C4.65386 8.81303 4.3818 9 4.07625 9H2.79862C2.62981 9 2.50962 8.83601 2.5657 8.67678C3.93563 4.78753 7.64241 2 12.0003 2C17.5231 2 22.0003 6.47715 22.0003 12C22.0003 17.5228 17.5231 22 12.0003 22C7.64241 22 3.93563 19.2125 2.56571 15.3232C2.50962 15.164 2.62981 15 2.79862 15H4.07625C4.3818 15 4.65386 15.187 4.78626 15.4623C6.07707 18.1469 8.82226 20 12.0003 20C16.4185 20 20.0003 16.4183 20.0003 12C20.0003 7.58172 16.4185 4 12.0003 4C8.82226 4 6.07707 5.85308 4.78626 8.53765Z" fill="currentColor" />
    <path d="M11.3537 7.64645C11.5489 7.45118 11.8655 7.45118 12.0608 7.64645L15.7072 11.2929C16.0978 11.6834 16.0978 12.3166 15.7072 12.7071L12.0608 16.3536C11.8655 16.5488 11.5489 16.5488 11.3537 16.3536L10.6466 15.6464C10.4513 15.4512 10.4513 15.1346 10.6466 14.9393L12.586 12.9999H7.50005C7.22391 12.9999 7.00005 12.7761 7.00005 12.4999V11.4999C7.00005 11.2238 7.22391 10.9999 7.50005 10.9999H12.5858L10.6466 9.06066C10.4513 8.8654 10.4513 8.54882 10.6466 8.35355L11.3537 7.64645Z" fill="currentColor" />
</svg>
