<svg xmlns="http://www.w3.org/2000/svg" viewBox="0 0 24 24">
    <path d="M20.6969 3.73426L20.2672 3.30457C20.0371 3.06662 19.704 2.95809 19.3779 3.01477L13.8819 4.01407C12.9505 4.18104 12.112 4.68202 11.5236 5.42307L9.36522 8.20112C8.09889 7.74733 6.68534 8.19265 5.90775 9.29035L3.08982 13.2875C2.93527 13.5117 2.98859 13.8183 3.20973 13.977L3.61943 14.2668C4.27124 14.7231 5.07771 14.9016 5.86117 14.7629C6.64463 14.6242 7.34082 14.1797 7.79637 13.5274L8.42591 12.638L11.3338 15.5459L10.4444 16.1755C9.79211 16.6311 9.34765 17.3273 9.20895 18.1108C9.07025 18.8942 9.24869 19.7007 9.70497 20.3526L9.99476 20.7623C10.1535 20.9834 10.4601 21.0367 10.6843 20.8822L14.6813 18.0642C15.779 17.2866 16.2243 15.873 15.7705 14.6066L18.5185 12.4481C19.2758 11.8772 19.7982 11.0491 19.9874 10.1198L20.9867 4.62364C21.0434 4.29748 20.9349 3.96442 20.6969 3.73426ZM16.5499 9.57015C16.1214 9.99923 15.4766 10.1278 14.9162 9.89592C14.3559 9.66402 13.9905 9.11733 13.9905 8.5109C13.9905 7.90446 14.3559 7.35778 14.9162 7.12588C15.4766 6.89398 16.1214 7.02256 16.5499 7.45165C16.8331 7.73138 16.9925 8.11285 16.9925 8.5109C16.9925 8.90894 16.8331 9.29042 16.5499 9.57015ZM7.96415 17.2397C7.96415 17.1065 7.91094 16.9788 7.81635 16.885L7.11687 16.1855C7.02305 16.0909 6.89535 16.0377 6.76213 16.0377C6.62891 16.0377 6.5012 16.0909 6.40739 16.1855L3.14978 19.4432C3.05519 19.537 3.00199 19.6647 3.00199 19.7979C3.00199 19.9312 3.05519 20.0589 3.14978 20.1527L3.84926 20.8522C3.94308 20.9468 4.07078 21 4.204 21C4.33723 21 4.46493 20.9468 4.55874 20.8522L7.81635 17.5945C7.91094 17.5007 7.96415 17.373 7.96415 17.2397Z" fill="currentColor" fill-rule="evenodd" clip-rule="evenodd" />
</svg>
