<svg xmlns="http://www.w3.org/2000/svg" viewBox="0 0 24 24">
    <path d="M5 3.5C5 3.22386 5.22386 3 5.5 3H6.5C6.77614 3 7 3.22386 7 3.5V20.5C7 20.7761 6.77614 21 6.5 21H5.5C5.22386 21 5 20.7761 5 20.5V3.5Z" fill="currentColor" />
    <path d="M11 3.5C11 3.22386 11.2239 3 11.5 3H12.5C12.7761 3 13 3.22386 13 3.5V20.5C13 20.7761 12.7761 21 12.5 21H11.5C11.2239 21 11 20.7761 11 20.5V3.5Z" fill="currentColor" />
    <path d="M17 3.5C17 3.22386 17.2239 3 17.5 3H18.5C18.7761 3 19 3.22386 19 3.5V20.5C19 20.7761 18.7761 21 18.5 21H17.5C17.2239 21 17 20.7761 17 20.5V3.5Z" fill="currentColor" />
</svg>
