<svg xmlns="http://www.w3.org/2000/svg" viewBox="0 0 24 24">
    <path d="M10.9993 5.9963H8.99805C8.79789 5.99349 8.61868 5.87164 8.54246 5.68653C8.46624 5.50143 8.50769 5.28871 8.64784 5.14578L11.6496 2.14393C11.8476 1.95202 12.1621 1.95202 12.3601 2.14393L15.3619 5.14578C15.5033 5.29002 15.5441 5.50513 15.4653 5.69112C15.3865 5.87711 15.2036 5.99749 15.0017 5.9963H13.0005V8.49784C13.0005 8.77415 12.7765 8.99815 12.5002 8.99815H11.4996C11.2232 8.99815 10.9993 8.77415 10.9993 8.49784V5.9963ZM8.99805 12.5003V11.4997C8.99805 11.2234 8.77406 10.9994 8.49775 10.9994H5.99624V8.99815C5.99743 8.79617 5.87705 8.61329 5.69106 8.53452C5.50508 8.45575 5.28997 8.49654 5.14573 8.63793L2.14392 11.6398C1.95203 11.8377 1.95203 12.1523 2.14392 12.3502L5.14573 15.3521C5.28867 15.4922 5.50138 15.5337 5.68648 15.4574C5.87158 15.3812 5.99343 15.202 5.99624 15.0019V13.0006H8.49775C8.77406 13.0006 8.99805 12.7766 8.99805 12.5003ZM15.0017 18.0037H13.0005V15.5022C13.0005 15.2258 12.7765 15.0019 12.5002 15.0019H11.4996C11.2232 15.0019 10.9993 15.2258 10.9993 15.5022V18.0037H8.99805C8.79789 18.0065 8.61868 18.1284 8.54246 18.3135C8.46624 18.4986 8.50769 18.7113 8.64784 18.8542L11.6496 21.8561C11.8476 22.048 12.1621 22.048 12.3601 21.8561L15.3619 18.8542C15.5033 18.71 15.5441 18.4949 15.4653 18.3089C15.3865 18.1229 15.2036 18.0025 15.0017 18.0037ZM18.864 8.64793L21.8658 11.6498C22.0485 11.849 22.0441 12.1563 21.8558 12.3502L18.854 15.3521C18.711 15.4922 18.4983 15.5337 18.3132 15.4574C18.1281 15.3812 18.0063 15.202 18.0035 15.0019V13.0006H15.502C15.2257 13.0006 15.0017 12.7766 15.0017 12.5003V11.4997C15.0017 11.2234 15.2257 10.9994 15.502 10.9994H18.0035V8.99815C18.0022 8.79357 18.1257 8.60884 18.3152 8.53172C18.5047 8.4546 18.722 8.50063 18.864 8.64793Z" fill="currentColor" fill-rule="evenodd" clip-rule="evenodd" />
</svg>
