<svg xmlns="http://www.w3.org/2000/svg" viewBox="0 0 24 24">
    <path d="M5 5V19H19V15.5C19 15.2239 19.2239 15 19.5 15H20.5C20.7761 15 21 15.2239 21 15.5V20C21 20.5523 20.5523 21 20 21H4C3.44772 21 3 20.5523 3 20V4C3 3.44772 3.44772 3 4 3H8.5C8.77614 3 9 3.22386 9 3.5V4.5C9 4.77614 8.77614 5 8.5 5H5Z" fill="currentColor" />
    <path d="M12.4999 3C12.2237 3 11.9999 3.22386 11.9999 3.5V4.5C11.9999 4.77614 12.2237 5 12.4999 5H17.5858L11.4038 11.182C11.2085 11.3773 11.2085 11.6939 11.4038 11.8891L12.1109 12.5962C12.3061 12.7915 12.6227 12.7915 12.818 12.5962L18.9999 6.41436V11.5C18.9999 11.7761 19.2237 12 19.4999 12H20.4999C20.776 12 20.9999 11.7761 20.9999 11.5V4C20.9999 3.44772 20.5521 3 19.9999 3H12.4999Z" fill="currentColor" />
</svg>
