<svg xmlns="http://www.w3.org/2000/svg" viewBox="0 0 24 24">
    <path d="M6.84355 17.8543L6.14473 17.1507C5.95176 16.9565 5.95176 16.6415 6.14473 16.4472L14.6246 7.99105L8.41212 7.99808C8.28036 7.99863 8.15384 7.94617 8.06068 7.85238C7.96751 7.75858 7.91541 7.63121 7.91595 7.49856L7.92294 6.50656C7.9224 6.37391 7.9745 6.24654 8.06767 6.15274C8.16083 6.05895 8.28735 6.00649 8.4191 6.00704L16.9937 6C17.1902 5.99988 17.3787 6.07833 17.5178 6.2181L17.7833 6.48545C17.9204 6.62667 17.998 6.81569 18 7.01311L17.993 15.6457C17.9935 15.7783 17.9414 15.9057 17.8482 15.9995C17.7551 16.0933 17.6286 16.1457 17.4968 16.1452H16.5045C16.3743 16.1465 16.2491 16.0951 16.1571 16.0024C16.0651 15.9098 16.014 15.7837 16.0153 15.6527L16.0223 9.39815L7.54238 17.8543C7.3494 18.0486 7.03653 18.0486 6.84355 17.8543Z" fill="currentColor" />
</svg>
