<svg xmlns="http://www.w3.org/2000/svg" viewBox="0 0 24 24">
    <g clip-path="url(#clip0_8446_31)">
        <circle cx="12" cy="12" r="11.5" fill="white" stroke="#C7CDD4"/>
        <path fill="#965EEB" d="M8.95707 8.60848C9.9994 8.60848 10.8443 7.76353 10.8443 6.72123C10.8443 5.67894 9.9994 4.83398 8.95707 4.83398C7.91478 4.83398 7.06982 5.67894 7.06982 6.72123C7.06982 7.76353 7.91478 8.60848 8.95707 8.60848Z"/>
        <path fill="#00AAFF" d="M15.5699 11.968C17.8379 11.968 19.6765 10.1294 19.6765 7.86142C19.6765 5.59344 17.8379 3.75488 15.5699 3.75488C13.3019 3.75488 11.4634 5.59344 11.4634 7.86142C11.4634 10.1294 13.3019 11.968 15.5699 11.968Z"/>
        <path fill="#04E061" d="M7.99494 19.3629C10.7848 19.3629 13.0465 17.1012 13.0465 14.3113C13.0465 11.5215 10.7848 9.25977 7.99494 9.25977C5.20503 9.25977 2.94336 11.5215 2.94336 14.3113C2.94336 17.1012 5.20503 19.3629 7.99494 19.3629Z"/>
        <path fill="#FF4053" d="M16.7505 18.7276C18.4354 18.7276 19.8013 17.3617 19.8013 15.6768C19.8013 13.9919 18.4354 12.626 16.7505 12.626C15.0656 12.626 13.6997 13.9919 13.6997 15.6768C13.6997 17.3617 15.0656 18.7276 16.7505 18.7276Z"/>
    </g>
    <defs>
        <clipPath id="clip0_8446_31">
            <rect width="24" height="24" fill="white"/>
        </clipPath>
    </defs>
</svg>
