<svg xmlns="http://www.w3.org/2000/svg" viewBox="0 0 24 24">
    <circle cx="12" cy="12" r="12" fill="white"/>
    <path fill="#E51B24" d="M21.0418 17.0246C20.9266 16.9314 20.9084 15.7642 20.8093 15.1546C20.6482 14.1609 18.4326 14.7441 17.7664 13.6781C17.5978 13.4077 17.2707 12.3824 17.3544 11.6152C17.3701 11.4726 17.3969 11.4164 17.4836 11.4164C17.7455 11.4164 18.2632 12.5575 18.6845 13.0407C18.8223 13.198 18.9992 13.2446 19.1175 13.2771C19.907 13.4916 20.4799 13.6068 21.0685 13.8028C21.688 14.0101 21.7816 14.3737 21.8265 14.5337C21.8981 14.7876 21.8745 15.8365 21.3801 16.8169C21.2828 17.0095 21.1367 17.1007 21.0418 17.0246ZM19.4435 17.0517C19.4326 17.1531 19.4027 17.2518 19.3685 17.3467C19.3157 17.504 19.2224 17.6517 19.1079 17.7764C18.8666 18.0478 18.5529 18.2178 18.1957 18.2623C18.1497 18.2699 18.1038 18.2699 18.0537 18.2699C18.0098 18.2746 17.9612 18.2699 17.9145 18.2699C17.8847 18.2699 17.8552 18.2623 17.8189 18.2623C17.8021 18.2592 17.7788 18.2524 17.7565 18.2524C17.7459 18.2486 17.7315 18.2442 17.716 18.2397C17.6622 18.2335 17.6163 18.2178 17.5717 18.2051C17.4209 18.1605 17.2879 18.0934 17.1644 18.0057C17.063 17.9357 16.9632 17.8401 16.882 17.7418C16.7232 17.5547 16.6132 17.3309 16.5724 17.0822C16.5556 17.017 16.5522 16.9533 16.5487 16.882C16.534 16.5843 16.6132 16.3197 16.7486 16.0894C16.9049 15.8211 17.1644 15.6183 17.4435 15.5168C17.4925 15.4959 17.5491 15.4781 17.6026 15.4713C17.8631 15.4212 18.2279 15.4521 18.5114 15.5607C18.678 15.6111 18.8244 15.7087 18.9605 15.8211C19.3198 16.1162 19.5152 16.5562 19.4435 17.0517ZM14.4915 16.9136C14.4188 17.3268 14.1785 17.7092 13.8295 17.9597C13.5703 18.1427 13.271 18.2606 12.9241 18.2719H12.776C12.2874 18.2486 11.851 18.0341 11.5377 17.6356C11.2929 17.3196 11.1925 17.0109 11.1472 16.6291C11.1232 16.2358 11.249 15.8955 11.4595 15.6118C11.5661 15.4651 11.7084 15.3352 11.851 15.2348C11.9018 15.2023 11.9635 15.1659 12.0108 15.1409C12.1421 15.0631 12.2964 15.0066 12.4465 14.9754C12.5552 14.9552 12.6652 14.9346 12.7863 14.9346C13.1767 14.9305 13.5264 15.0402 13.8178 15.2509C13.9597 15.3482 14.0941 15.4819 14.1987 15.6241C14.2559 15.7005 14.3087 15.7855 14.3492 15.876C14.4311 16.0339 14.4825 16.2125 14.5089 16.4023C14.5319 16.5723 14.5203 16.7566 14.4915 16.9136ZM10.0142 12.5901C9.93876 13.0033 9.78312 14.2092 9.76049 14.9754C9.73889 15.8657 9.79134 16.9917 9.35664 16.5387C9.08101 16.2508 8.83521 15.6827 8.75568 15.0902C8.67546 14.4981 8.38234 12.3855 8.88423 10.6869C8.99531 10.3123 9.34945 9.95733 10.1383 9.89051C12.0471 9.73083 13.4664 9.72501 15.151 10.0392C15.4874 10.1019 16.2806 10.2633 16.6519 10.4902C16.7561 10.5536 16.7191 10.6454 16.5727 10.6876C15.1606 11.0933 13.2772 10.8774 11.5637 11.1337C10.7879 11.2499 10.199 11.5795 10.0142 12.5901ZM11.9943 0C5.53166 0 0.2625 5.10443 0 11.5C1.83037 10.543 3.49721 11.2245 4.31611 11.9777C5.3427 12.9214 5.44596 14.2678 5.32381 15.5141C7.57239 15.2108 8.25344 17.7397 8.20126 18.4186C8.17997 18.69 8.15988 18.7218 8.0944 18.7595C8.06763 18.7749 7.96437 18.7935 7.88093 18.7571C7.87637 18.6269 7.84479 18.4885 7.77688 18.3466C7.72371 18.2359 7.66896 18.1273 7.6115 18.0221C7.3936 17.5256 6.95853 16.9256 6.36568 16.6792C6.19588 16.5873 6.01079 16.5116 5.80578 16.4561C5.41462 16.3502 4.99171 16.4431 4.61074 16.5428C4.4349 16.5887 4.26081 16.6411 4.08484 16.6877C4.01172 16.7066 3.93698 16.7176 3.86266 16.7299C3.74349 16.587 3.64692 16.4174 3.66797 16.2669C3.8474 16.0394 4.05711 15.8602 4.25838 15.742C4.37758 14.8921 4.10037 12.8334 1.93589 12.8519C1.30369 12.8574 0.629699 13.2429 0.150123 13.9659C1.08929 19.6584 6.03397 24 11.9943 24C18.6242 24 24 18.6273 24 12C24 5.37239 18.6242 0 11.9943 0Z"/>
</svg>
