<svg xmlns="http://www.w3.org/2000/svg" viewBox="0 0 24 24">
    <g clip-path="url(#clip0_7227_35)">
        <mask id="mask0_7227_35" width="24" height="24" x="0" y="0" maskUnits="userSpaceOnUse" style="mask-type:alpha">
            <path fill="black" d="M0 12C0 5.37258 5.37258 0 12 0C18.6274 0 24 5.37258 24 12C24 18.6274 18.6274 24 12 24C5.37258 24 0 18.6274 0 12Z"/>
        </mask>
        <g mask="url(#mask0_7227_35)">
            <path fill="black" d="M0 12C0 5.37258 5.37258 0 12 0C18.6274 0 24 5.37258 24 12C24 18.6274 18.6274 24 12 24C5.37258 24 0 18.6274 0 12Z"/>
            <path fill="white" fill-rule="evenodd" d="M11.6404 0C11.58 4.86464 11.2479 7.5988 9.42336 9.42334C7.5988 11.2479 4.86464 11.58 0 11.6404V12.3596C4.86464 12.42 7.59882 12.7521 9.42336 14.5767C11.2479 16.4012 11.58 19.1354 11.6404 24H12.3596C12.42 19.1354 12.7521 16.4012 14.5767 14.5766C16.4012 12.7521 19.1354 12.42 24 12.3596V11.6404C19.1354 11.5799 16.4012 11.2479 14.5766 9.42334C12.7521 7.5988 12.42 4.86462 12.3596 0H11.6404Z" clip-rule="evenodd"/>
        </g>
    </g>
    <defs>
        <clipPath id="clip0_7227_35">
            <rect width="24" height="24" fill="white"/>
        </clipPath>
    </defs>
</svg>
