<svg xmlns="http://www.w3.org/2000/svg" viewBox="0 0 24 24">
    <path fill="url(#paint0_radial_2653_2655)" d="M12 0C5.241 0 0 4.953 0 11.64C0 15.138 1.434 18.162 3.768 20.25C3.963 20.424 4.083 20.67 4.089 20.934L4.155 23.07C4.176 23.751 4.878 24.195 5.502 23.919L7.884 22.869C8.085 22.779 8.313 22.764 8.526 22.821C9.621 23.121 10.785 23.283 12 23.283C18.759 23.283 24 18.33 24 11.643C24 4.956 18.759 0 12 0Z"/>
    <path fill="white" d="M4.79413 15.0451L8.31913 9.45309C8.88013 8.56209 10.0801 8.34309 10.9231 8.97309L13.7281 11.0761C13.9861 11.2681 14.3401 11.2681 14.5951 11.0731L18.3811 8.19909C18.8851 7.81509 19.5451 8.42109 19.2091 8.95809L15.6811 14.5471C15.1201 15.4381 13.9201 15.6571 13.0771 15.0271L10.2721 12.9241C10.0141 12.7321 9.66013 12.7321 9.40513 12.9271L5.61913 15.8011C5.11513 16.1851 4.45513 15.5821 4.79413 15.0451Z"/>
    <defs>
        <radialGradient id="paint0_radial_2653_2655" cx="0" cy="0" r="1" gradientTransform="translate(4.62 23.8669) scale(26.16 26.1599)" gradientUnits="userSpaceOnUse">
            <stop stop-color="#0099FF"/>
            <stop offset="0.61" stop-color="#A033FF"/>
            <stop offset="0.935" stop-color="#FF5280"/>
            <stop offset="1" stop-color="#FF7061"/>
        </radialGradient>
    </defs>
</svg>
