<svg xmlns="http://www.w3.org/2000/svg" viewBox="0 0 25 24">
    <path fill="url(#paint0_radial_4273_424)" fill-rule="evenodd" d="M11.3545 0C4.91024 0.304294 0 5.15228 0 11.6248C0 15.1228 1.43401 18.1468 3.76799 20.2348C3.963 20.4088 4.083 20.6548 4.08901 20.9188L4.155 23.0548C4.176 23.7358 4.87801 24.1798 5.502 23.9038L7.884 22.8538C8.08499 22.7638 8.31301 22.7488 8.52601 22.8058C9.4256 23.0523 10.3718 23.2056 11.3545 23.2525V0Z" clip-rule="evenodd"/>
    <path fill="white" fill-rule="evenodd" d="M11.3547 9.28142L10.9231 8.95788C10.0801 8.32788 8.88013 8.54688 8.31915 9.43788L4.79413 15.0299C4.45514 15.5669 5.11514 16.1699 5.61914 15.7859L9.40515 12.9119C9.66013 12.7169 10.0141 12.7169 10.2721 12.9089L11.3547 13.7205V9.28142Z" clip-rule="evenodd"/>
    <path fill="url(#paint1_radial_4273_424)" fill-rule="evenodd" d="M12.6748 23.2132C15.5068 23.2129 18.2567 23.2092 18.5277 23.1953C19.3133 23.1584 19.7696 23.0971 20.274 22.9668C21.665 22.6079 22.8167 21.6651 23.4434 20.3723C23.7585 19.7223 23.9184 19.0902 23.9907 18.1729C24.0064 17.9729 24.013 14.7843 24.013 11.6C24.013 8.41513 24.0059 5.23243 23.9902 5.03242C23.917 4.10032 23.7571 3.47356 23.4318 2.81111C23.1648 2.26881 22.8685 1.86383 22.4381 1.44974C21.6701 0.716206 20.7309 0.269797 19.6117 0.108378L19.5818 0.104041C19.0645 0.0291262 18.9096 0.00668432 16.1866 0.00195312H12.6748V23.2132Z" clip-rule="evenodd"/>
    <path fill="url(#paint2_radial_4273_424)" fill-rule="evenodd" d="M12.6748 23.2132C15.5068 23.2129 18.2567 23.2092 18.5277 23.1953C19.3133 23.1584 19.7696 23.0971 20.274 22.9668C21.665 22.6079 22.8167 21.6651 23.4434 20.3723C23.7585 19.7223 23.9184 19.0902 23.9907 18.1729C24.0064 17.9729 24.013 14.7843 24.013 11.6C24.013 8.41513 24.0059 5.23243 23.9902 5.03242C23.917 4.10032 23.7571 3.47356 23.4318 2.81111C23.1648 2.26881 22.8685 1.86383 22.4381 1.44974C21.6701 0.716206 20.7309 0.269797 19.6117 0.108378L19.5818 0.104041C19.0645 0.0291262 18.9096 0.00668432 16.1866 0.00195312H12.6748V23.2132Z" clip-rule="evenodd"/>
    <path fill="white" fill-rule="evenodd" d="M12.6748 20.1791C14.7543 20.1782 15.058 20.1673 15.9352 20.1273C16.8476 20.0855 17.4711 19.9411 18.0164 19.7291C18.58 19.5102 19.0574 19.2167 19.5337 18.7399C20.0104 18.2635 20.3033 17.7853 20.5229 17.2218C20.7336 16.6766 20.8782 16.0536 20.921 15.1415C20.9621 14.2273 20.9728 13.9358 20.9728 11.6081C20.9728 9.28035 20.9621 8.98822 20.921 8.07396C20.8782 7.16152 20.7336 6.53868 20.5229 5.99371C20.3033 5.43001 20.0104 4.9518 19.5337 4.4754C19.0569 3.99862 18.5802 3.70578 18.0159 3.48706C17.4695 3.27511 16.8463 3.13063 15.9339 3.08884C15.0569 3.04895 14.7534 3.03794 12.6748 3.03711V4.58168C14.7147 4.58237 14.9997 4.59154 15.8662 4.63092C16.7019 4.66915 17.1554 4.80876 17.4576 4.9261C17.8575 5.08143 18.1427 5.26714 18.4425 5.56714C18.7425 5.86711 18.9282 6.15283 19.0839 6.55279C19.2012 6.85455 19.341 7.30813 19.379 8.14381C19.4201 9.04731 19.429 9.31872 19.429 11.6061C19.429 13.8935 19.4201 14.165 19.379 15.0685C19.3408 15.9041 19.2012 16.3577 19.0839 16.6594C18.9285 17.0594 18.7425 17.3443 18.4425 17.6441C18.1425 17.944 17.8577 18.1298 17.4576 18.2851C17.1558 18.403 16.7019 18.5422 15.8662 18.5804C14.9999 18.6198 14.7147 18.6297 12.6748 18.6304V20.1791ZM12.6748 16.0005C14.9788 15.8602 16.8037 13.9476 16.8037 11.6081C16.8037 9.26861 14.9787 7.35522 12.6748 7.21478V8.76386C14.125 8.90077 15.2599 10.1218 15.2599 11.6081C15.2599 13.0942 14.125 14.3154 12.6748 14.4523V16.0005ZM15.9495 7.03296C15.9495 6.46494 16.4101 6.00478 16.978 6.00478V6.00441C17.5458 6.00441 18.0064 6.46512 18.0064 7.03296C18.0064 7.60078 17.5458 8.06149 16.978 8.06149C16.4101 8.06149 15.9495 7.60078 15.9495 7.03296Z" clip-rule="evenodd"/>
    <defs>
        <radialGradient id="paint0_radial_4273_424" cx="0" cy="0" r="1" gradientTransform="translate(4.62 23.8541) scale(26.1504 26.1503)" gradientUnits="userSpaceOnUse">
            <stop stop-color="#0099FF"/>
            <stop offset="0.6098" stop-color="#A033FF"/>
            <stop offset="0.9348" stop-color="#FF5280"/>
            <stop offset="1" stop-color="#FF7061"/>
        </radialGradient>
        <radialGradient id="paint1_radial_4273_424" cx="0" cy="0" r="1" gradientTransform="translate(6.96313 25.0009) rotate(-90) scale(23.0041 21.4008)" gradientUnits="userSpaceOnUse">
            <stop stop-color="#FFDD55"/>
            <stop offset="0.1" stop-color="#FFDD55"/>
            <stop offset="0.5" stop-color="#FF543E"/>
            <stop offset="1" stop-color="#C837AB"/>
        </radialGradient>
        <radialGradient id="paint2_radial_4273_424" cx="0" cy="0" r="1" gradientTransform="translate(-3.09284 1.67405) rotate(78.678) scale(10.283 42.3966)" gradientUnits="userSpaceOnUse">
            <stop stop-color="#3771C8"/>
            <stop offset="0.128" stop-color="#3771C8"/>
            <stop offset="1" stop-color="#6600FF" stop-opacity="0"/>
        </radialGradient>
    </defs>
</svg>
