<svg xmlns="http://www.w3.org/2000/svg" viewBox="0 0 24 24">
    <circle cx="12" cy="12" r="11.5" fill="white" stroke="#C7CDD4"/>
    <path fill="#E3E3E3" d="M17.2348 16.6152H6.75036C6.34381 16.6152 6.00146 16.2835 6.00146 15.8663V8.29182C6.00146 7.88532 6.33311 7.54297 6.75036 7.54297H17.2348C17.6413 7.54297 17.9837 7.87462 17.9837 8.29182V15.8663C17.9837 16.2835 17.652 16.6152 17.2348 16.6152Z"/>
    <path fill="#231F20" d="M7.49954 16.6153L11.9821 13.01L12.0142 12.8174L7.39254 9.49023L7.38184 16.4549L7.49954 16.6153Z" opacity="0.1"/>
    <path fill="#D54B3D" d="M6.75036 16.6152C6.33311 16.6152 6.00146 16.2836 6.00146 15.8663V8.28116C6.00146 7.86396 6.33311 7.78906 6.75036 7.78906C7.16761 7.78906 7.49926 7.87466 7.49926 8.28116V16.6152H6.75036Z"/>
    <path fill="#D72B27" fill-rule="evenodd" d="M6.00146 8.28116C6.00146 7.87466 6.33311 7.78906 6.75036 7.78906C7.16761 7.78906 7.49926 7.86396 7.49926 8.28116V16.6152H6.75036C6.33311 16.6152 6.00146 16.2836 6.00146 15.8663V8.28116ZM7.3922 8.28158C7.3922 8.05693 7.2852 7.89648 6.7503 7.89648C6.2154 7.89648 6.1084 8.04623 6.1084 8.28158V15.8667C6.1084 16.2198 6.39725 16.5086 6.7503 16.5086H7.3922V8.28158Z" clip-rule="evenodd"/>
    <path fill="#D54B3D" d="M17.2347 16.6152H16.4858V8.25981C16.4858 7.84256 16.8175 7.78906 17.2347 7.78906C17.6519 7.78906 17.9836 7.84256 17.9836 8.25981V15.877C17.9836 16.2836 17.6519 16.6152 17.2347 16.6152Z"/>
    <path fill="#D72B27" fill-rule="evenodd" d="M16.4858 8.25981C16.4858 7.84256 16.8175 7.78906 17.2347 7.78906C17.6519 7.78906 17.9836 7.84256 17.9836 8.25981V15.877C17.9836 16.2943 17.6519 16.6259 17.2347 16.6259H16.4858V8.25981ZM17.8766 8.26023C17.8766 7.99273 17.7161 7.89648 17.2347 7.89648C16.7532 7.89648 16.5928 7.98203 16.5928 8.26023V16.5193H17.2347C17.5877 16.5193 17.8766 16.2305 17.8766 15.8774V8.26023Z" clip-rule="evenodd"/>
    <path fill="url(#paint0_linear_2655_606)" d="M14.0256 16.6145L6.06445 8.59161L6.4832 8.76191L12.025 12.7524L17.984 8.38281V15.8763C17.984 16.2829 17.6523 16.6145 17.2351 16.6145H14.0256Z"/>
    <path fill="#D54B3D" d="M11.9823 13.0094L6.32286 8.90126C5.99121 8.65521 5.89496 8.18446 6.14101 7.85281C6.38706 7.52116 6.86851 7.44626 7.21086 7.69231L11.993 11.1693L16.8073 7.64956C17.1389 7.40346 17.6097 7.47836 17.8557 7.82071C18.1018 8.15236 18.0269 8.62311 17.6845 8.86916L11.9823 13.0094Z"/>
    <path fill="#D72B27" fill-rule="evenodd" d="M16.7962 7.6391C16.9246 7.5428 17.085 7.5 17.2348 7.5C17.4702 7.5 17.6948 7.607 17.8446 7.82095C18.08 8.1633 18.0051 8.62335 17.6735 8.8694L11.9819 13.0203L6.3225 8.9015C5.99085 8.6554 5.8946 8.1847 6.12995 7.85305C6.2797 7.6498 6.5151 7.5428 6.75045 7.5428C6.91095 7.5428 7.0714 7.5856 7.1998 7.68185L11.9819 11.1588L16.7962 7.6391ZM17.7594 7.87487C17.631 7.70367 17.4384 7.60742 17.2352 7.60742C17.0961 7.60742 16.9677 7.65022 16.85 7.72507L12.0465 11.2449L11.9823 11.2876L11.9181 11.2449L7.14664 7.77857C7.03964 7.69297 6.90059 7.65022 6.76149 7.65022C6.54754 7.65022 6.34424 7.75717 6.22659 7.91767C6.02329 8.19582 6.09819 8.60237 6.38704 8.81632L11.9823 12.8817L17.6203 8.77352C17.8985 8.55957 17.9627 8.16372 17.7594 7.87487Z" clip-rule="evenodd"/>
    <defs>
        <linearGradient id="paint0_linear_2655_606" x1="6.0649" x2="17.9878" y1="16.6155" y2="16.6155" gradientUnits="userSpaceOnUse">
            <stop stop-opacity="0.1"/>
            <stop offset="1" stop-opacity="0.2"/>
        </linearGradient>
    </defs>
</svg>
