<svg xmlns="http://www.w3.org/2000/svg" viewBox="0 0 24 24">
    <path d="M23.9999 12.273C24.0009 11.4552 23.9303 10.6389 23.789 9.83301H12.2427V14.4546H18.8559C18.7205 15.1928 18.4341 15.8964 18.0139 16.5231C17.5936 17.1499 17.0482 17.6867 16.4106 18.1013V21.1012H20.3574C22.6684 19.0129 23.9999 15.9246 23.9999 12.273Z" fill="#4285F4" />
    <path d="M12.2434 24.0001C15.5475 24.0001 18.3295 22.9368 20.3582 21.1035L16.4113 18.1035C15.3128 18.8335 13.898 19.2502 12.2434 19.2502C9.04992 19.2502 6.33934 17.1402 5.37007 14.2969H1.3042V17.3885C2.32325 19.376 3.88584 21.0467 5.81753 22.2142C7.74923 23.3817 9.97399 24 12.2434 24.0001Z" fill="#34A853" />
    <path d="M5.36958 14.2963C4.85716 12.8064 4.85716 11.1929 5.36958 9.70297V6.61133H1.30372C0.446459 8.28324 0 10.1285 0 11.9996C0 13.8708 0.446459 15.716 1.30372 17.3879L5.36958 14.2963Z" fill="#FBBC04" />
    <path d="M12.2434 4.75075C13.9895 4.72279 15.6766 5.36937 16.9402 6.55073L20.4347 3.12576C18.2188 1.0859 15.2833 -0.0340108 12.2434 0.000787306C9.97399 0.00088868 7.74923 0.619207 5.81753 1.78671C3.88584 2.95421 2.32325 4.62495 1.3042 6.6124L5.37007 9.70404C6.33934 6.86073 9.04992 4.75075 12.2434 4.75075Z" fill="#EA4335" />
</svg>
