<svg xmlns="http://www.w3.org/2000/svg" viewBox="0 0 24 24">
    <circle cx="12" cy="12" r="12" fill="url(#paint0_linear_2655_605)"/>
    <path fill="white" d="M12.0002 5.25651C9.23538 5.25651 6.60993 5.01076 5.60712 7.58239C5.19289 8.64452 5.25305 10.0239 5.25305 11.9991C5.25305 13.7322 5.19746 15.3612 5.60712 16.415C6.60765 18.9881 9.25441 18.7416 11.9986 18.7416C14.6462 18.7416 17.3759 19.017 18.3909 16.415C18.8059 15.3422 18.745 13.9833 18.745 11.9991C18.745 9.36503 18.8904 7.66456 17.612 6.38787C16.3175 5.09445 14.567 5.25651 11.9971 5.25651H12.0002ZM11.3956 6.47156C17.1627 6.46243 17.8968 5.82181 17.4917 14.7213C17.3478 17.8689 14.9492 17.5235 12.0009 17.5235C6.62516 17.5235 6.47059 17.3698 6.47059 11.996C6.47059 6.55982 6.897 6.47461 11.3956 6.47004V6.47156ZM15.6018 7.59076C15.1548 7.59076 14.7924 7.95292 14.7924 8.39953C14.7924 8.84614 15.1548 9.2083 15.6018 9.2083C16.0487 9.2083 16.4112 8.84614 16.4112 8.39953C16.4112 7.95292 16.0487 7.59076 15.6018 7.59076ZM12.0002 8.53648C10.0867 8.53648 8.53562 10.0871 8.53562 11.9991C8.53562 13.911 10.0867 15.4609 12.0002 15.4609C13.9137 15.4609 15.464 13.911 15.464 11.9991C15.464 10.0871 13.9137 8.53648 12.0002 8.53648ZM12.0002 9.75154C14.9736 9.75154 14.9774 14.2466 12.0002 14.2466C9.02751 14.2466 9.02294 9.75154 12.0002 9.75154Z"/>
    <defs>
        <linearGradient id="paint0_linear_2655_605" x1="1.6114" x2="23.849" y1="22.4364" y2="3.18621" gradientUnits="userSpaceOnUse">
            <stop stop-color="#FFDD55"/>
            <stop offset="0.5" stop-color="#FF543E"/>
            <stop offset="1" stop-color="#C837AB"/>
        </linearGradient>
    </defs>
</svg>
