<svg xmlns="http://www.w3.org/2000/svg" viewBox="0 0 24 24">
    <circle cx="12" cy="12" r="12" fill="#0177B5"/>
    <path fill="white" d="M15.516 18H17.9993L18 13.6009C18 11.4419 17.5346 9.78329 15.0185 9.78329C13.8076 9.78329 12.9971 10.4481 12.6638 11.078H12.6317V9.98554H10.2462V18H12.7295V14.0341C12.7295 12.9885 12.9272 11.9773 14.222 11.9773C15.4971 11.9773 15.516 13.1733 15.516 14.1026V18Z"/>
    <path fill="white" d="M6 7.44375C6 8.24086 6.64213 8.8889 7.44148 8.8889C8.23734 8.8889 8.88366 8.24086 8.88366 7.44375C8.88366 6.64734 8.23803 6 7.44148 6C6.64283 6 6 6.64734 6 7.44375Z"/>
    <path fill="white" d="M6.19634 18H8.68662V9.98554H6.19634V18Z"/>
</svg>
