<svg xmlns="http://www.w3.org/2000/svg" viewBox="0 0 24 24">
    <path d="M0 12C0 5.37258 5.37258 0 12 0C18.6274 0 24 5.37258 24 12C24 18.6274 18.6274 24 12 24C5.37258 24 0 18.6274 0 12Z" fill="#005FF9" />
    <path d="M5 11.9801C5 8.13128 8.14012 5 11.9999 5C15.8597 5 18.9998 8.13128 18.9998 11.9801C18.9998 12.5254 18.9543 12.9668 18.8524 13.4098L18.8509 13.4172C18.8506 13.4185 18.8 13.6227 18.7721 13.7119C18.5991 14.2636 18.2859 14.7231 17.8662 15.0408C17.4593 15.3488 16.9547 15.5186 16.4455 15.5186C16.3826 15.5186 16.3193 15.516 16.2572 15.511C15.5341 15.4531 14.8983 15.0737 14.5084 14.4686C13.8379 15.141 12.9482 15.5109 11.9999 15.5109C10.0476 15.5109 8.45921 13.927 8.45921 11.9801C8.45921 10.0333 10.0476 8.44947 11.9999 8.44947C13.9522 8.44947 15.5406 10.0333 15.5406 11.9801V13.1183C15.5435 13.7824 15.9904 14.0538 16.3722 14.0846C16.7521 14.1138 17.2576 13.8932 17.4337 13.173C17.5206 12.7781 17.5647 12.3766 17.5647 11.9801C17.5647 8.92035 15.0683 6.43106 11.9999 6.43106C8.93147 6.43106 6.43515 8.92035 6.43515 11.9801C6.43515 15.0399 8.93147 17.5293 11.9999 17.5293C13.068 17.5293 14.1068 17.2251 15.004 16.6495L15.02 16.6392L15.963 17.7325L15.9428 17.7463C14.7774 18.5405 13.414 18.9604 11.9999 18.9604C8.14012 18.9604 5 15.829 5 11.9801ZM12 14.08C13.161 14.08 14.1055 13.1381 14.1055 11.9803C14.1055 10.8226 13.161 9.88078 12 9.88078C10.8389 9.88078 9.89444 10.8226 9.89444 11.9803C9.89444 13.1381 10.8389 14.08 12 14.08Z" fill="#FF9E00" fill-rule="evenodd" clip-rule="evenodd" />
</svg>
