<svg xmlns="http://www.w3.org/2000/svg" viewBox="0 0 24 24">
    <circle cx="12" cy="12" r="12" fill="#3F4AE9"/>
    <circle cx="12" cy="12" r="12" fill="url(#paint0_radial_max)"/>
    <circle cx="12" cy="12" r="12" fill="url(#paint1_radial_max)"/>
    <circle cx="12" cy="12" r="12" fill="url(#paint2_radial_max)"/>
    <circle cx="12" cy="12" r="12" fill="url(#paint3_radial_max)"/>
    <path fill="white" fill-rule="evenodd" d="M12.1612 19.4572C10.6891 19.4572 10.005 19.2414 8.81589 18.378C8.06374 19.3493 5.68194 20.1083 5.57808 18.8097C5.57808 17.8349 5.36318 17.0111 5.11963 16.1118C4.82951 15.0039 4.5 13.77 4.5 11.9822C4.5 7.71231 7.98853 4.5 12.1218 4.5C16.2586 4.5 19.5 7.87058 19.5 12.0218C19.5138 16.1087 16.2304 19.4354 12.1612 19.4572ZM12.222 8.19074C10.2092 8.08642 8.64039 9.48573 8.29297 11.68C8.00644 13.4966 8.51503 15.7089 8.94841 15.824C9.15615 15.8744 9.67907 15.4499 10.005 15.1226C10.5439 15.4965 11.1715 15.7211 11.8245 15.7737C13.9102 15.8744 15.6923 14.2797 15.8323 12.1872C15.9139 10.0904 14.308 8.31433 12.222 8.19433L12.222 8.19074Z" clip-rule="evenodd"/>
    <defs>
        <radialGradient id="paint0_radial_max" cx="0" cy="0" r="1" gradientTransform="translate(0 0) rotate(45) scale(24)" gradientUnits="userSpaceOnUse">
            <stop stop-color="#425EFD"/>
            <stop offset="0.55" stop-color="#425EFD" stop-opacity="0.55"/>
            <stop offset="0.72" stop-color="#425EFD" stop-opacity="0"/>
        </radialGradient>
        <radialGradient id="paint1_radial_max" cx="0" cy="0" r="1" gradientTransform="translate(24 0) rotate(135) scale(24)" gradientUnits="userSpaceOnUse">
            <stop stop-color="#854AE6"/>
            <stop offset="0.55" stop-color="#854AE6" stop-opacity="0.55"/>
            <stop offset="0.72" stop-color="#854AE6" stop-opacity="0"/>
        </radialGradient>
        <radialGradient id="paint2_radial_max" cx="0" cy="0" r="1" gradientTransform="translate(0 24) rotate(-45) scale(24)" gradientUnits="userSpaceOnUse">
            <stop stop-color="#41C5FD"/>
            <stop offset="0.55" stop-color="#41C5FD" stop-opacity="0.55"/>
            <stop offset="0.72" stop-color="#41C5FD" stop-opacity="0"/>
        </radialGradient>
        <radialGradient id="paint3_radial_max" cx="0" cy="0" r="1" gradientTransform="translate(24 24) rotate(-135) scale(24)" gradientUnits="userSpaceOnUse">
            <stop stop-color="#9F5EDC"/>
            <stop offset="0.55" stop-color="#9F5EDC" stop-opacity="0.55"/>
            <stop offset="0.72" stop-color="#9F5EDC" stop-opacity="0"/>
        </radialGradient>
    </defs>
</svg>
