<svg xmlns="http://www.w3.org/2000/svg" viewBox="0 0 24 24">
    <path d="M0 12C0 5.37258 5.37258 0 12 0C18.6274 0 24 5.37258 24 12C24 18.6274 18.6274 24 12 24C5.37258 24 0 18.6274 0 12Z" fill="#F68634" />
    <path d="M13.2979 14.7204L15.0912 16.4517C15.4586 16.8055 15.4586 17.3803 15.0912 17.7345C14.7242 18.0888 14.1294 18.0888 13.7628 17.7345L11.9996 16.0333L10.2379 17.7345C10.0542 17.9115 9.81352 18.0001 9.57282 18.0001C9.33251 18.0001 9.0922 17.9115 8.90851 17.7345C8.54151 17.3803 8.54151 16.8059 8.90812 16.4517L10.7016 14.7204C10.0487 14.5768 9.41889 14.327 8.83883 13.9757C8.39985 13.7086 8.26799 13.1488 8.54458 12.7247C8.8204 12.3001 9.40046 12.1722 9.8402 12.4394C11.1535 13.2368 12.8453 13.237 14.1593 12.4394C14.5991 12.1722 15.1789 12.3001 15.4553 12.7247C15.7319 13.1485 15.5997 13.7086 15.1607 13.9757C14.5806 14.3274 13.9509 14.5768 13.2979 14.7204Z" fill="white" />
    <path d="M8.78369 9.09679C8.78369 10.804 10.2225 12.1927 11.9917 12.1927C13.7612 12.1927 15.1996 10.804 15.1996 9.09679C15.1996 7.38905 13.7612 6 11.9917 6C10.2225 6 8.78369 7.38905 8.78369 9.09679ZM13.3201 9.09641C13.3201 8.38938 12.7243 7.81445 11.9918 7.81445C11.2599 7.81445 10.6636 8.38938 10.6636 9.09641C10.6636 9.80289 11.2599 10.3782 11.9918 10.3782C12.7243 10.3782 13.3201 9.80289 13.3201 9.09641Z" fill="white" fill-rule="evenodd" clip-rule="evenodd" />
</svg>
