<svg xmlns="http://www.w3.org/2000/svg" viewBox="0 0 24 24">
    <path d="M12 24C18.6274 24 24 18.6274 24 12C24 5.37258 18.6274 0 12 0C5.37258 0 0 5.37258 0 12C0 18.6274 5.37258 24 12 24Z" fill="#E0676B" />
    <path d="M8.65741 13.8832H14.2572V14.6566H8.65741V13.8832ZM8.65741 11.9499H15.8573V12.7233H8.65811L8.65741 11.9499ZM8.65741 10.0173H15.4574V10.7906H8.65811L8.65741 10.0173ZM15.636 17.0513L15.3293 18.6817C15.3166 18.7499 15.2853 18.8134 15.2385 18.8659C15.1918 18.9183 15.1314 18.9576 15.0635 18.9797C14.9957 19.0018 14.923 19.006 14.853 18.9916C14.783 18.9773 14.7182 18.9451 14.6655 18.8983L12.5815 17.0513H7.60005C7.17574 17.0511 6.76886 16.8882 6.46884 16.5983C6.16881 16.3084 6.00018 15.9153 6 15.5053V8.54665C6 8.13657 6.16855 7.74328 6.4686 7.45324C6.76865 7.16321 7.17562 7.00018 7.60005 7H16.4C16.8244 7.00018 17.2314 7.16321 17.5314 7.45324C17.8314 7.74328 18 8.13657 18 8.54665V15.5059C17.9996 15.9158 17.8309 16.3088 17.5309 16.5985C17.2309 16.8883 16.8241 17.0511 16.4 17.0513H15.636Z" fill="white" fill-rule="evenodd" clip-rule="evenodd" />
</svg>
