<svg xmlns="http://www.w3.org/2000/svg" viewBox="0 0 24 24">
    <circle cx="12" cy="12" r="11.5" fill="#0072C6" stroke="#0072C6"/>
    <path fill="white" d="M13.7587 7.96826V10.7068L14.727 11.3093C14.762 11.3169 14.7982 11.3169 14.8332 11.3093L18.9965 8.53226C18.9934 8.39749 18.9436 8.26785 18.8553 8.16515C18.7671 8.06244 18.6458 7.99292 18.5118 7.96826H13.7587Z"/>
    <path fill="white" d="M13.7587 11.7286L14.6416 12.3286C14.683 12.3536 14.7304 12.3667 14.7788 12.3667C14.8272 12.3667 14.8747 12.3536 14.916 12.3286C14.7644 12.4191 18.996 9.63965 18.996 9.63965V14.6726C19.007 14.7746 18.9954 14.8778 18.9619 14.9748C18.9284 15.0719 18.8739 15.1606 18.8022 15.2347C18.7305 15.3087 18.6433 15.3664 18.5467 15.4036C18.4501 15.4408 18.3464 15.4567 18.2429 15.4501H13.7582L13.7587 11.7286Z"/>
    <path fill="white" d="M9.18817 10.4658C9.04147 10.4651 8.89732 10.5037 8.77098 10.5775C8.64464 10.6513 8.54083 10.7575 8.47054 10.8848C8.27855 11.2225 8.18643 11.6068 8.20471 11.9938C8.18476 12.3801 8.277 12.7639 8.47054 13.0998C8.54053 13.222 8.64179 13.3238 8.76414 13.3949C8.88649 13.4661 9.02561 13.5041 9.16753 13.5053C9.30944 13.5064 9.44916 13.4705 9.57263 13.4013C9.69611 13.332 9.79899 13.2319 9.87094 13.1108C10.0624 12.7764 10.1527 12.3946 10.1312 12.0108C10.1531 11.615 10.0658 11.2208 9.87852 10.8703C9.8116 10.7471 9.71192 10.6443 9.59026 10.573C9.4686 10.5017 9.32957 10.4647 9.18817 10.4658Z"/>
    <path fill="white" d="M5 6.5775V17.291L13.2376 19V5L5 6.5775ZM10.5127 13.7455C10.3586 13.9604 10.1537 14.1348 9.91582 14.2534C9.67798 14.372 9.41443 14.4313 9.14814 14.426C8.88855 14.4306 8.63169 14.373 8.39939 14.2583C8.1671 14.1436 7.96626 13.975 7.81394 13.767C7.45269 13.268 7.27198 12.6631 7.30098 12.05C7.27025 11.4068 7.45423 10.7715 7.82455 10.242C7.9806 10.023 8.18871 9.84528 8.43055 9.7246C8.67239 9.60392 8.94052 9.54396 9.21131 9.55C9.46902 9.54488 9.72406 9.60243 9.95404 9.71759C10.184 9.83276 10.3819 10.002 10.5303 10.2105C10.888 10.7203 11.0656 11.3326 11.0357 11.9525C11.0672 12.591 10.8832 13.2218 10.5127 13.7455Z"/>
</svg>
