<svg xmlns="http://www.w3.org/2000/svg" viewBox="0 0 24 24">
    <path d="M0 4C0 1.79086 1.79086 0 4 0H20C22.2091 0 24 1.79086 24 4V20C24 22.2091 22.2091 24 20 24H4C1.79086 24 0 22.2091 0 20V4Z" fill="#005BFF" />
    <path d="M19.9895 23.9997H3.69482L4.35313 18.5639V16.7583L4.56003 12.4699L6.34686 9.06549L16.6353 7.10938L23.9895 16.1564V19.9997C23.9895 22.2088 22.1986 23.9997 19.9895 23.9997Z" fill="#F91155" />
    <path d="M10.0237 4.9402C4.34639 6.42339 0.610782 10.9379 1.67953 15.0288C2.74828 19.1197 8.21469 21.2302 13.892 19.747C19.5692 18.2638 23.3049 13.7493 22.2361 9.65838C21.1674 5.5675 15.7009 3.457 10.0237 4.9402ZM12.9911 16.2987C9.07171 17.3227 5.59507 16.0072 5.10799 14.1428C4.6209 12.2784 7.00988 9.43052 10.9293 8.40658C14.8487 7.38263 18.3253 8.69808 18.8124 10.5625C19.2995 12.4269 16.9194 15.2724 12.9911 16.2987Z" fill="white" />
</svg>
