<svg xmlns="http://www.w3.org/2000/svg" viewBox="0 0 24 24">
    <circle cx="12" cy="12" r="12" fill="#28A8EA"/>
    <path fill="white" fill-rule="evenodd" d="M8.98747 11.7702C8.53341 11.4616 8.15455 11.049 7.88056 10.5646C7.61579 10.053 7.48507 9.47902 7.50135 8.89932C7.48119 8.16367 7.72453 7.44611 8.18485 6.88383C8.66312 6.31917 9.27785 5.89528 9.96654 5.65533C10.7157 5.38246 11.505 5.24543 12.2995 5.25042C12.8195 5.24533 13.3388 5.28641 13.8519 5.37326C14.2189 5.43176 14.5794 5.52781 14.928 5.65991C15.2482 5.77177 15.5374 5.96226 15.7704 6.21495C15.9422 6.42276 16.0347 6.68804 16.0306 6.96117C16.0368 7.10298 16.0158 7.24469 15.9689 7.37819C15.922 7.51169 15.85 7.63437 15.7572 7.73915C15.6692 7.83573 15.5624 7.91202 15.4438 7.96298C15.3253 8.014 15.1976 8.03849 15.0691 8.0349C14.8924 8.03355 14.7179 7.9932 14.5576 7.91654C14.1628 7.73427 13.756 7.58075 13.3403 7.45708C12.9576 7.35307 12.5631 7.30258 12.1673 7.30694C11.6518 7.28723 11.1419 7.42151 10.6986 7.69365C10.5114 7.81092 10.3582 7.97796 10.255 8.17729C10.1519 8.37657 10.1025 8.60082 10.1121 8.82657C10.1093 9.12263 10.2185 9.40824 10.4164 9.62271C10.6517 9.87441 10.9297 10.0795 11.2367 10.2278C11.5807 10.4039 12.0938 10.6374 12.7758 10.9285C12.8514 10.9532 12.9252 10.9836 12.9964 11.0196C13.662 11.2911 14.3001 11.6294 14.9016 12.0296C15.3767 12.3492 15.7773 12.7734 16.0747 13.2717C16.3673 13.7951 16.5139 14.3919 16.498 14.996C16.5226 15.7359 16.3171 16.4645 15.9114 17.0752C15.4984 17.6534 14.9271 18.0908 14.2709 18.331C13.4803 18.6223 12.6449 18.7626 11.8056 18.745C10.6522 18.7869 9.50415 18.5631 8.44513 18.0899C8.17411 17.9655 7.93647 17.775 7.75271 17.5348C7.60042 17.3148 7.52147 17.0497 7.52777 16.7795C7.52016 16.6369 7.54264 16.4943 7.59366 16.3616C7.64468 16.2289 7.72297 16.1091 7.82319 16.0106C8.03356 15.8205 8.30675 15.7212 8.58614 15.7331C8.89713 15.7375 9.20259 15.8186 9.47698 15.9697C9.81792 16.1457 10.087 16.2776 10.2841 16.3656C10.5092 16.4628 10.7425 16.539 10.9809 16.593C11.2749 16.6596 11.5752 16.6916 11.8761 16.6885C12.4081 16.7276 12.9376 16.5818 13.38 16.2746C13.5457 16.1408 13.6781 15.9683 13.7663 15.7713C13.8545 15.5743 13.8959 15.3585 13.8871 15.1416C13.8878 14.8339 13.7742 14.5376 13.5697 14.3135C13.2994 14.0263 12.9831 13.7893 12.6347 13.6129C12.2231 13.3885 11.6438 13.1155 10.8971 12.794C10.229 12.5194 9.58925 12.1764 8.98747 11.7702Z" clip-rule="evenodd"/>
</svg>
