<svg xmlns="http://www.w3.org/2000/svg" viewBox="0 0 24 25">
    <circle cx="12" cy="12" r="11.5" fill="white" stroke="#C7CDD4"/>
    <path fill="#E01E5A" d="M8.52117 14.5829C8.52117 15.2767 7.9544 15.8434 7.26059 15.8434C6.56678 15.8434 6 15.2767 6 14.5829C6 13.889 6.56678 13.3223 7.26059 13.3223H8.52117V14.5829Z"/>
    <path fill="#E01E5A" d="M9.15625 14.5829C9.15625 13.889 9.72303 13.3223 10.4168 13.3223C11.1106 13.3223 11.6774 13.889 11.6774 14.5829V17.7392C11.6774 18.433 11.1106 18.9998 10.4168 18.9998C9.72303 18.9998 9.15625 18.433 9.15625 17.7392V14.5829Z"/>
    <path fill="#36C5F0" d="M10.4168 9.52117C9.72303 9.52117 9.15625 8.9544 9.15625 8.26059C9.15625 7.56678 9.72303 7 10.4168 7C11.1106 7 11.6774 7.56678 11.6774 8.26059V9.52117H10.4168Z"/>
    <path fill="#36C5F0" d="M10.4169 10.1562C11.1108 10.1562 11.6775 10.723 11.6775 11.4168C11.6775 12.1106 11.1108 12.6774 10.4169 12.6774H7.26059C6.56678 12.6774 6 12.1106 6 11.4168C6 10.723 6.56678 10.1562 7.26059 10.1562H10.4169Z"/>
    <path fill="#2EB67D" d="M15.479 11.4168C15.479 10.723 16.0458 10.1562 16.7396 10.1562C17.4334 10.1562 18.0002 10.723 18.0002 11.4168C18.0002 12.1106 17.4334 12.6774 16.7396 12.6774H15.479V11.4168Z"/>
    <path fill="#2EB67D" d="M14.8434 11.4169C14.8434 12.1108 14.2767 12.6775 13.5829 12.6775C12.889 12.6775 12.3223 12.1108 12.3223 11.4169V8.26059C12.3223 7.56678 12.889 7 13.5829 7C14.2767 7 14.8434 7.56678 14.8434 8.26059V11.4169Z"/>
    <path fill="#ECB22E" d="M13.5829 16.4785C14.2767 16.4785 14.8434 17.0453 14.8434 17.7391C14.8434 18.4329 14.2767 18.9997 13.5829 18.9997C12.889 18.9997 12.3223 18.4329 12.3223 17.7391V16.4785H13.5829Z"/>
    <path fill="#ECB22E" d="M13.5829 15.8434C12.889 15.8434 12.3223 15.2767 12.3223 14.5829C12.3223 13.889 12.889 13.3223 13.5829 13.3223H16.7392C17.433 13.3223 17.9998 13.889 17.9998 14.5829C17.9998 15.2767 17.433 15.8434 16.7392 15.8434H13.5829Z"/>
</svg>
