<svg xmlns="http://www.w3.org/2000/svg" viewBox="0 0 24 24">
    <circle cx="12" cy="12" r="12" fill="#FEA530"/>
    <path fill="white" fill-rule="evenodd" d="M8.25 6.375H15.75C17.1307 6.375 18.25 7.49429 18.25 8.875V13.875C18.25 15.2557 17.1307 16.375 15.75 16.375H9.5C8.9991 16.3654 8.5152 16.5568 8.15625 16.9062L6.28125 18.7812C6.22395 18.8407 6.14507 18.8745 6.0625 18.875C5.88991 18.875 5.75 18.7351 5.75 18.5625V8.875C5.75 7.49429 6.86929 6.375 8.25 6.375ZM9.8125 12C9.98509 12 10.125 11.8601 10.125 11.6875V11.0625C10.125 10.8899 9.98509 10.75 9.8125 10.75H9.1875C9.01491 10.75 8.875 10.8899 8.875 11.0625V11.6875C8.875 11.8601 9.01491 12 9.1875 12H9.8125ZM12.625 11.0625C12.625 11.2351 12.4851 11.375 12.3125 11.375H11.6875C11.5149 11.375 11.375 11.2351 11.375 11.0625V10.4375C11.375 10.2649 11.5149 10.125 11.6875 10.125H12.3125C12.4851 10.125 12.625 10.2649 12.625 10.4375V11.0625ZM14.8125 12C14.9851 12 15.125 11.8601 15.125 11.6875V11.0625C15.125 10.8899 14.9851 10.75 14.8125 10.75H14.1875C14.0149 10.75 13.875 10.8899 13.875 11.0625V11.6875C13.875 11.8601 14.0149 12 14.1875 12H14.8125Z" clip-rule="evenodd"/>
</svg>
