<svg xmlns="http://www.w3.org/2000/svg" viewBox="0 0 24 24">
    <path fill="url(#paint0_linear_2653_2588)" d="M12 24C18.6274 24 24 18.6274 24 12C24 5.3726 18.6274 0 12 0C5.3726 0 0 5.3726 0 12C0 18.6274 5.3726 24 12 24Z"/>
    <path fill="white" d="M4.46931 12.5872C5.8721 11.8145 7.438 11.1696 8.9011 10.5214C11.4182 9.45968 13.9453 8.41638 16.4979 7.44508C16.9945 7.27958 17.8869 7.11773 17.9744 7.85373C17.9265 8.89553 17.7294 9.93123 17.5942 10.9669C17.251 13.2445 16.8544 15.5143 16.4677 17.7844C16.3344 18.5406 15.3872 18.932 14.7811 18.4481C13.3245 17.4642 11.8567 16.4899 10.4187 15.4832C9.94765 15.0046 10.3844 14.3172 10.8051 13.9754C12.0048 12.7931 13.2771 11.7886 14.4141 10.5452C14.7208 9.80458 13.8146 10.4288 13.5157 10.62C11.8733 11.7518 10.2711 12.9527 8.53955 13.9474C7.65505 14.4343 6.62415 14.0182 5.74005 13.7465C4.94734 13.4183 3.78573 13.0877 4.46923 12.5872L4.46931 12.5872Z"/>
    <defs>
        <linearGradient id="paint0_linear_2653_2588" x1="9.0014" x2="3.0014" y1="1.0008" y2="15" gradientUnits="userSpaceOnUse">
            <stop stop-color="#37AEE2"/>
            <stop offset="1" stop-color="#1E96C8"/>
        </linearGradient>
    </defs>
</svg>
