<svg xmlns="http://www.w3.org/2000/svg" viewBox="0 0 24 24">
    <path d="M12 0C18.6274 0 24 5.37258 24 12C24 18.6274 18.6274 24 12 24C5.37258 24 0 18.6274 0 12C0 5.37258 5.37258 0 12 0Z" fill="#7F4DA0" />
    <path d="M15.1969 10.4794C15.1386 10.0053 14.9928 9.63298 14.734 9.3032C14.398 8.87856 13.9685 8.62428 13.3326 8.47344C12.9183 8.3729 12.7509 8.38445 12.601 8.52134C12.4614 8.6496 12.4341 8.90672 12.5408 9.07322C12.6158 9.19407 12.7024 9.23737 12.9431 9.28462C13.2637 9.34359 13.4852 9.42014 13.6867 9.53536C14.1144 9.78233 14.3136 10.1688 14.3349 10.7945C14.3449 11.0882 14.3703 11.1786 14.4729 11.2828C14.6631 11.4732 15.0015 11.4362 15.1451 11.2082C15.1978 11.1223 15.2058 11.085 15.2114 10.8855C15.215 10.762 15.2097 10.5781 15.1969 10.4794Z" fill="white" />
    <path d="M16.8721 11.0139C16.7877 9.56117 16.2195 8.39242 15.2026 7.57011C14.6296 7.10805 13.9371 6.79033 13.178 6.63581C12.8999 6.58055 12.3879 6.53576 12.3001 6.56138C12.2172 6.58511 12.1 6.67485 12.0477 6.75601C11.9925 6.84402 11.98 7.04052 12.0271 7.15419C12.1032 7.3442 12.2448 7.41133 12.6411 7.44601C13.2522 7.49947 13.8824 7.71415 14.3586 8.03198C14.9023 8.39384 15.3345 8.88879 15.614 9.4704C15.8556 9.97012 16.0042 10.6903 16.0001 11.3352C15.9987 11.5684 16.0347 11.7001 16.1285 11.7964C16.2701 11.9445 16.4765 11.9769 16.6586 11.8785C16.8605 11.7724 16.9077 11.586 16.8721 11.0139Z" fill="white" />
    <path d="M18.7261 16.6079C18.6976 16.5249 18.6313 16.3968 18.584 16.3233C18.2855 15.8727 16.6822 14.6179 15.8817 14.2075C15.4246 13.9727 15.0859 13.8945 14.8349 13.968C14.5649 14.0439 14.4228 14.1696 13.9704 14.7317C13.7881 14.9571 13.601 15.1682 13.5512 15.2014C13.4281 15.2868 13.1865 15.3556 13.016 15.3556C12.6205 15.3532 11.9029 15.097 11.351 14.7602C10.9224 14.4993 10.3729 14.032 9.95136 13.5695C9.45398 13.0263 9.11535 12.5472 8.8477 12.0064C8.50194 11.3114 8.41431 10.8868 8.55876 10.5761C8.59429 10.4978 8.64167 10.4148 8.66296 10.3887C8.68429 10.365 8.90692 10.1824 9.1532 9.98313C9.63637 9.59889 9.71451 9.51113 9.80451 9.24784C9.91819 8.91338 9.88742 8.57183 9.71215 8.22791C9.57715 7.96699 9.22427 7.39773 8.9685 7.03009C8.62982 6.54624 7.78669 5.51207 7.61851 5.37209C7.31537 5.12543 6.927 5.08271 6.49829 5.24878C6.04597 5.42431 5.19808 6.10742 4.83571 6.58418C4.50888 7.01586 4.3834 7.32183 4.36443 7.72506C4.34787 8.05711 4.37628 8.19469 4.55154 8.61928C5.92281 11.9495 7.96903 14.6084 10.7803 16.7194C12.2486 17.8224 13.7715 18.662 15.3512 19.2361C16.2724 19.5705 16.6727 19.5871 17.144 19.312C17.3429 19.1933 17.8356 18.6881 18.1103 18.3205C18.565 17.7085 18.7332 17.4263 18.7805 17.2009C18.8137 17.0468 18.7876 16.7787 18.7261 16.6079Z" fill="white" />
    <path d="M18.5778 11.3473C18.5475 10.5255 18.4091 9.85152 18.1207 9.10006C17.8358 8.36086 17.5476 7.8785 17.0032 7.22609C16.4885 6.61438 16.0888 6.26511 15.4547 5.87632C14.5702 5.33462 13.4937 4.97615 12.2873 4.82539C11.8759 4.7727 11.7828 4.77646 11.6566 4.86068C11.412 5.02022 11.4153 5.41816 11.6606 5.57531C11.7418 5.6253 11.8139 5.64351 12.143 5.68659C12.6482 5.7546 12.973 5.8187 13.3585 5.92387C14.87 6.33706 16.0324 7.18163 16.8094 8.43536C17.4597 9.48036 17.7297 10.5254 17.6914 11.8602C17.678 12.3114 17.6877 12.3908 17.7567 12.4992C17.8888 12.7013 18.2371 12.7413 18.4158 12.5736C18.527 12.4714 18.548 12.3947 18.5699 12.0085C18.5804 11.807 18.5826 11.5096 18.5778 11.3473Z" fill="white" />
</svg>
