<svg xmlns="http://www.w3.org/2000/svg" viewBox="0 0 24 24">
    <path d="M0 12C0 5.37258 5.37258 0 12 0C18.6274 0 24 5.37258 24 12C24 18.6274 18.6274 24 12 24C5.37258 24 0 18.6274 0 12Z" fill="#31AFD8" />
    <path d="M18.7929 9.68081C18.7288 11.0825 17.7499 13.0014 15.856 15.4376C13.8983 17.9814 12.2417 19.2539 10.8872 19.2539C10.0474 19.2539 9.33722 18.4796 8.75686 16.9298C8.36945 15.5092 7.98238 14.0887 7.5948 12.6681C7.16373 11.1192 6.70176 10.3439 6.20725 10.3439C6.09948 10.3439 5.72253 10.5705 5.07708 11.0219L4.3999 10.1494C5.11062 9.52521 5.81154 8.90085 6.50116 8.27565C7.44901 7.457 8.16105 7.02608 8.63531 6.98274C9.75551 6.87497 10.4453 7.64082 10.7042 9.28028C10.984 11.0494 11.1778 12.1496 11.2864 12.5801C11.6099 14.0479 11.9654 14.781 12.3534 14.781C12.6545 14.781 13.1075 14.3051 13.7113 13.3526C14.3139 12.4008 14.637 11.6765 14.6805 11.1786C14.7667 10.3572 14.4436 9.94533 13.7113 9.94533C13.3666 9.94533 13.011 10.0247 12.6454 10.1815C13.3533 7.86383 14.7053 6.73814 16.7009 6.80241C18.1805 6.84575 18.8784 7.80521 18.7929 9.68081Z" fill="#FFFFFE" />
</svg>
