<svg xmlns="http://www.w3.org/2000/svg" viewBox="0 0 24 24">
    <g clip-path="url(#clip0_2653_2031)">
        <path fill="#0077FF" d="M0 11.52C0 6.0894 0 3.37413 1.68707 1.68707C3.37413 0 6.0894 0 11.52 0H12.48C17.9106 0 20.6259 0 22.313 1.68707C24 3.37413 24 6.0894 24 11.52V12.48C24 17.9106 24 20.6259 22.313 22.313C20.6259 24 17.9106 24 12.48 24H11.52C6.0894 24 3.37413 24 1.68707 22.313C0 20.6259 0 17.9106 0 12.48V11.52Z"/>
        <path fill="white" d="M12.7702 17.2908C7.30024 17.2908 4.18029 13.5408 4.05029 7.30078H6.79029C6.88029 11.8808 8.90024 13.8208 10.5002 14.2208V7.30078H13.0803V11.2508C14.6603 11.0808 16.3201 9.28078 16.8801 7.30078H19.4602C19.0302 9.74078 17.2302 11.5408 15.9502 12.2808C17.2302 12.8808 19.2803 14.4508 20.0603 17.2908H17.2202C16.6102 15.3908 15.0903 13.9208 13.0803 13.7208V17.2908H12.7702Z"/>
    </g>
    <defs>
        <clipPath id="clip0_2653_2031">
            <rect width="24" height="24" fill="white" rx="12"/>
        </clipPath>
    </defs>
</svg>
