<svg xmlns="http://www.w3.org/2000/svg" viewBox="0 0 24 24">
    <path d="M0 12C0 5.37258 5.37258 0 12 0C18.6274 0 24 5.37258 24 12C24 18.6274 18.6274 24 12 24C5.37258 24 0 18.6274 0 12Z" fill="#45B035" />
    <path d="M15.3616 9.64761C15.282 9.64321 15.202 9.64241 15.1212 9.64241C12.2476 9.64241 9.9164 11.5952 9.9164 14.0052C9.9164 14.3996 9.9808 14.7816 10.098 15.1452C9.9708 15.1516 9.8428 15.1568 9.714 15.1568C9.0824 15.1568 8.4736 15.0712 7.906 14.9132C7.8736 14.9036 7.8088 14.8852 7.8088 14.8852L5.7432 15.9372L6.2952 14.208L6.2428 14.1748C4.8792 13.3016 4 11.926 4 10.3784C4 7.73921 6.558 5.59961 9.714 5.59961C12.5724 5.59961 14.9408 7.35441 15.3616 9.64761ZM7.7257 9.50956C7.2825 9.50956 6.9233 9.16116 6.9233 8.73236C6.9233 8.30316 7.2825 7.95596 7.7257 7.95596C8.1689 7.95596 8.5289 8.30316 8.5289 8.73236C8.5289 9.16116 8.1689 9.50956 7.7257 9.50956ZM11.7024 7.95596C12.1456 7.95596 12.5044 8.30316 12.5044 8.73236C12.5044 9.16116 12.1456 9.50956 11.7024 9.50956C11.2588 9.50956 10.9004 9.16116 10.9004 8.73236C10.9004 8.30316 11.2588 7.95596 11.7024 7.95596Z" fill="white" fill-rule="evenodd" clip-rule="evenodd" />
    <path d="M15.1648 18.0705C12.4984 18.0705 10.3364 16.2629 10.3364 14.0329C10.3364 11.8037 12.4984 9.99609 15.1648 9.99609C17.83 9.99609 19.9912 11.8037 19.9912 14.0329C19.9912 15.3409 19.248 16.5029 18.0964 17.2405L18.052 17.2681L18.5184 18.7297L16.774 17.8401C16.774 17.8401 16.7192 17.8565 16.6916 17.8637C16.2124 17.9977 15.698 18.0705 15.1648 18.0705ZM12.8066 12.6419C12.8066 12.2803 13.1106 11.9863 13.4846 11.9863C13.8594 11.9863 14.163 12.2803 14.163 12.6419C14.163 13.0051 13.8594 13.2995 13.4846 13.2995C13.1106 13.2995 12.8066 13.0051 12.8066 12.6419ZM16.166 12.6419C16.166 12.2803 16.4692 11.9863 16.8436 11.9863C17.2184 11.9863 17.5216 12.2803 17.5216 12.6419C17.5216 13.0051 17.2184 13.2995 16.8436 13.2995C16.4692 13.2995 16.166 13.0051 16.166 12.6419Z" fill="white" fill-rule="evenodd" clip-rule="evenodd" />
</svg>
