<svg xmlns="http://www.w3.org/2000/svg" viewBox="0 0 24 24">
    <path d="M12 24C18.6274 24 24 18.6274 24 12C24 5.37258 18.6274 0 12 0C5.37258 0 0 5.37258 0 12C0 18.6274 5.37258 24 12 24Z" fill="#25D366" />
    <path d="M12.3957 18.6767H12.3928C11.1985 18.6762 10.0251 18.3766 8.98287 17.8081L5.2002 18.8004L6.2125 15.1028C5.58806 14.0207 5.25948 12.7931 5.26002 11.5355C5.26159 7.60124 8.4626 4.40039 12.3957 4.40039C14.3045 4.40121 16.0961 5.14432 17.4433 6.4931C18.7905 7.8418 19.532 9.63456 19.5313 11.5411C19.5297 15.4745 16.3299 18.675 12.3957 18.6767ZM9.15819 16.5162L9.37476 16.6447C10.2853 17.1851 11.3292 17.471 12.3934 17.4714H12.3958C15.6647 17.4714 18.3252 14.8108 18.3265 11.5406C18.3271 9.95585 17.7108 8.46579 16.5911 7.34474C15.4713 6.2237 13.9822 5.60602 12.3981 5.60547C9.12672 5.60547 6.46614 8.2658 6.46484 11.5358C6.46438 12.6564 6.77794 13.7478 7.37162 14.6921L7.51264 14.9165L6.9135 17.105L9.15819 16.5162ZM15.7465 13.0774C15.8708 13.1375 15.9548 13.1781 15.9907 13.2379C16.0352 13.3123 16.0352 13.6692 15.8867 14.0858C15.7381 14.5022 15.0258 14.8824 14.6832 14.9335C14.376 14.9795 13.9873 14.9986 13.5602 14.8629C13.3013 14.7807 12.9692 14.671 12.5438 14.4873C10.8723 13.7656 9.74278 12.1456 9.52929 11.8394C9.51433 11.8179 9.50387 11.8029 9.49804 11.7951L9.4966 11.7932C9.40224 11.6673 8.77002 10.8238 8.77002 9.95074C8.77002 9.12948 9.17344 8.69901 9.35913 8.50086C9.37186 8.48729 9.38356 8.4748 9.39403 8.46336C9.55746 8.28486 9.75063 8.24023 9.86948 8.24023C9.98833 8.24023 10.1073 8.24133 10.2112 8.24655C10.224 8.24719 10.2374 8.24712 10.2511 8.24703C10.355 8.24643 10.4846 8.24567 10.6124 8.55261C10.6615 8.67074 10.7334 8.84587 10.8093 9.03057C10.9627 9.40407 11.1322 9.81674 11.1621 9.87646C11.2066 9.96571 11.2364 10.0698 11.1769 10.1888C11.168 10.2067 11.1598 10.2235 11.1519 10.2396C11.1072 10.3308 11.0744 10.3978 10.9986 10.4862C10.9688 10.521 10.9381 10.5585 10.9073 10.596C10.8459 10.6707 10.7846 10.7454 10.7312 10.7986C10.6419 10.8875 10.549 10.984 10.653 11.1625C10.757 11.341 11.1148 11.9248 11.6449 12.3976C12.2146 12.9058 12.7098 13.1206 12.9608 13.2295C13.0099 13.2507 13.0496 13.268 13.0787 13.2825C13.2569 13.3718 13.3609 13.3569 13.4649 13.2379C13.569 13.1189 13.9106 12.7173 14.0295 12.5388C14.1483 12.3604 14.2672 12.3901 14.4306 12.4496C14.5941 12.5091 15.4707 12.9404 15.649 13.0297C15.6838 13.0471 15.7163 13.0628 15.7465 13.0774Z" fill="#FDFDFD" fill-rule="evenodd" clip-rule="evenodd" />
</svg>
