<svg xmlns="http://www.w3.org/2000/svg" viewBox="0 0 24 24">
    <path d="M12 24C18.6274 24 24 18.6274 24 12C24 5.37258 18.6274 0 12 0C5.37258 0 0 5.37258 0 12C0 18.6274 5.37258 24 12 24Z" fill="#25D366" />
    <path d="M17.3145 6.68965C15.9045 5.2784 14.0292 4.50079 12.0313 4.5C7.91468 4.5 4.56428 7.84915 4.56262 11.9658C4.56208 13.2817 4.90599 14.5662 5.55957 15.6984L4.5 19.5674L8.45924 18.5292C9.55013 19.124 10.7783 19.4374 12.0283 19.438H12.0314C16.1476 19.438 19.4983 16.0884 19.5 11.9717C19.5008 9.97675 18.7247 8.10086 17.3145 6.68962V6.68963V6.68965ZM12.0314 18.177H12.0288C10.915 18.1766 9.82244 17.8774 8.86933 17.312L8.64264 17.1775L6.29317 17.7937L6.92028 15.5037L6.77265 15.2689C6.15126 14.2808 5.82306 13.1388 5.82356 11.9663C5.82491 8.54472 8.60966 5.761 12.0338 5.761C13.6918 5.76163 15.2504 6.408 16.4225 7.58097C17.5945 8.75392 18.2396 10.3131 18.239 11.9713C18.2376 15.3931 15.4529 18.177 12.0314 18.177Z" fill="white" fill-rule="evenodd" clip-rule="evenodd" />
    <path d="M9.52741 15.5819C9.57997 15.6136 9.68795 15.6136 9.93561 15.6134C10.9866 15.6125 11.8944 15.6092 12.5401 15.6092C15.5535 15.6092 15.4743 12.4369 14.0653 12.0411C14.2717 11.6755 15.212 10.9887 14.6304 9.56908C14.0554 8.16535 11.5825 8.4839 9.89121 8.48473C9.26542 8.48481 9.35899 8.94722 9.3622 9.66617C9.36734 10.8049 9.36312 13.8873 9.36236 15.2198C9.3622 15.4899 9.44371 15.5314 9.52741 15.5819ZM10.8313 14.4194C11.1158 14.4194 11.787 14.4194 12.3623 14.4184C13.0138 14.4174 13.5939 14.1127 13.5794 13.4641C13.5688 12.8532 13.1623 12.6527 12.5982 12.5967C12.0608 12.6018 11.4462 12.6018 10.8313 12.6018V14.4194H10.8313ZM10.8313 11.3748C11.9648 11.3593 12.4021 11.4205 13.0209 11.2655C13.4461 11.0241 13.6319 10.1289 13.0233 9.8249C12.6005 9.61366 11.3511 9.68593 10.8313 9.70759V11.3748V11.3748Z" fill="white" fill-rule="evenodd" clip-rule="evenodd" />
</svg>
