<svg xmlns="http://www.w3.org/2000/svg" viewBox="0 0 24 24">
    <path d="M12 24C18.6274 24 24 18.6274 24 12C24 5.37258 18.6274 0 12 0C5.37258 0 0 5.37258 0 12C0 18.6274 5.37258 24 12 24Z" fill="#303030" />
    <path d="M12.3957 18.6767H12.3928C11.1985 18.6762 10.0251 18.3766 8.98287 17.8081L5.2002 18.8004L6.2125 15.1028C5.58806 14.0207 5.25948 12.7931 5.26002 11.5355C5.26159 7.60124 8.4626 4.40039 12.3957 4.40039C14.3045 4.40121 16.0961 5.14432 17.4433 6.4931C18.7905 7.8418 19.532 9.63456 19.5313 11.5411C19.5297 15.4745 16.3299 18.675 12.3957 18.6767ZM9.15819 16.5162L9.37476 16.6447C10.2853 17.1851 11.3292 17.471 12.3934 17.4714H12.3958C15.6647 17.4714 18.3252 14.8108 18.3265 11.5406C18.3271 9.95585 17.7108 8.46579 16.5911 7.34474C15.4713 6.2237 13.9822 5.60602 12.3981 5.60547C9.12672 5.60547 6.46614 8.2658 6.46484 11.5358C6.46438 12.6564 6.77794 13.7478 7.37162 14.6921L7.51264 14.9165L6.9135 17.105L9.15819 16.5162ZM15.7463 13.0774C15.8707 13.1376 15.9547 13.1781 15.9905 13.238C16.0351 13.3123 16.0351 13.6693 15.8866 14.0858C15.7379 14.5023 15.0257 14.8824 14.6831 14.9336C14.3759 14.9795 13.9872 14.9987 13.5601 14.8629C13.3011 14.7808 12.9691 14.6711 12.5437 14.4874C10.8722 13.7656 9.74264 12.1456 9.52916 11.8394C9.5142 11.818 9.50374 11.803 9.49791 11.7952L9.49647 11.7933C9.40211 11.6674 8.76989 10.8238 8.76989 9.95081C8.76989 9.12954 9.17331 8.69907 9.359 8.50093C9.37172 8.48735 9.38342 8.47487 9.3939 8.46343C9.55733 8.28493 9.7505 8.2403 9.86935 8.2403C9.9882 8.2403 10.1072 8.2414 10.2111 8.24662C10.2239 8.24726 10.2372 8.24718 10.251 8.2471C10.3549 8.24649 10.4844 8.24573 10.6122 8.55267C10.6614 8.6708 10.7333 8.84593 10.8092 9.03064C10.9626 9.40414 11.1321 9.81681 11.1619 9.87653C11.2065 9.96578 11.2362 10.0699 11.1768 10.1889C11.1679 10.2067 11.1596 10.2236 11.1517 10.2397C11.1071 10.3308 11.0743 10.3979 10.9985 10.4863C10.9687 10.5211 10.9379 10.5586 10.9071 10.5961C10.8458 10.6708 10.7845 10.7455 10.7311 10.7987C10.6418 10.8876 10.5489 10.984 10.6529 11.1625C10.7569 11.341 11.1147 11.9249 11.6448 12.3977C12.2145 12.9059 12.7097 13.1207 12.9607 13.2295C13.0097 13.2508 13.0494 13.268 13.0786 13.2826C13.2568 13.3719 13.3608 13.3569 13.4648 13.238C13.5688 13.119 13.9105 12.7174 14.0294 12.5389C14.1482 12.3605 14.2671 12.3902 14.4305 12.4496C14.594 12.5092 15.4705 12.9405 15.6488 13.0297C15.6836 13.0471 15.7162 13.0629 15.7463 13.0774Z" fill="#FDFDFD" fill-rule="evenodd" clip-rule="evenodd" />
</svg>
