<svg xmlns="http://www.w3.org/2000/svg" viewBox="0 0 24 24">
    <g clip-path="url(#clip0_8426_86)">
        <path fill="url(#paint0_linear_8426_86)" d="M24 12C24 5.37258 18.6274 0 12 0C5.37258 0 0 5.37258 0 12C0 18.6274 5.37258 24 12 24C18.6274 24 24 18.6274 24 12Z"/>
        <path fill="white" fill-rule="evenodd" d="M1.56006 8.7959H3.60006L5.23206 13.0559L6.86406 8.7959H8.28006L9.91206 13.0559L11.5441 8.7959H13.5961L10.6561 16.4399H9.37206L7.57806 11.9639L5.78406 16.4399H4.50006L1.56006 8.7959Z" clip-rule="evenodd"/>
        <path fill="white" d="M15.9232 9.15039C16.5717 8.72523 17.3471 8.47773 18.1803 8.47773C20.4566 8.47799 22.3018 10.324 22.3018 12.6004C22.3015 14.8765 20.4564 16.7216 18.1803 16.7219C15.9039 16.7219 14.0579 14.8767 14.0576 12.6004V5.16016H15.9232V9.15039ZM18.1803 10.3621C16.9443 10.3621 15.942 11.3644 15.942 12.6004C15.9422 13.8362 16.9444 14.8375 18.1803 14.8375C19.4159 14.8372 20.4171 13.836 20.4174 12.6004C20.4174 11.3645 19.4161 10.3624 18.1803 10.3621Z"/>
    </g>
    <defs>
        <linearGradient id="paint0_linear_8426_86" x1="19.86" x2="4.74" y1="2.34" y2="21.66" gradientUnits="userSpaceOnUse">
            <stop stop-color="#EC3FDB"/>
            <stop offset="0.451923" stop-color="#BA26E8"/>
            <stop offset="1" stop-color="#7E08F7"/>
        </linearGradient>
        <clipPath id="clip0_8426_86">
            <rect width="24" height="24" fill="white"/>
        </clipPath>
    </defs>
</svg>
