<svg xmlns="http://www.w3.org/2000/svg" viewBox="0 0 24 24">
    <path d="M11.9998 0.386719C18.4202 0.386719 23.6262 5.59262 23.6262 12.013C23.6262 18.4334 18.4202 23.6393 11.9998 23.6393C5.57944 23.6393 0.373535 18.4334 0.373535 12.013C0.373535 5.59262 5.57944 0.386719 11.9998 0.386719Z" fill="#FC3F1D" />
    <path d="M13.6142 18.9744H16.0432V5.02539H12.5092C8.95594 5.02217 7.08748 6.84875 7.08748 9.53868C7.08748 11.6874 8.11191 12.9502 9.93849 14.2549L6.76855 18.9712H9.39728L12.928 13.6912L11.7039 12.8697C10.2188 11.8678 9.49714 11.085 9.49714 9.39694C9.49714 7.91184 10.5409 6.90674 12.5286 6.90674H13.611L13.6142 18.9744Z" fill="white" />
</svg>
