<svg xmlns="http://www.w3.org/2000/svg" viewBox="0 0 24 24">
    <circle cx="12" cy="12" r="12" fill="url(#paint0_linear_2761_23)"/>
    <path fill="white" d="M19 14.3961C19 15.3711 18.4638 16.2753 17.5916 16.769L13.4476 19.12C13.0079 19.3689 12.5085 19.5 12 19.5C11.4915 19.5 10.9921 19.3689 10.5524 19.12L6.4084 16.7703C5.98087 16.5293 5.62578 16.1831 5.37863 15.7665C5.13148 15.3498 5.00092 14.8773 5 14.3961V9.60392C5 8.62886 5.5362 7.7247 6.4084 7.23103L10.5524 4.87996C10.9921 4.63109 11.4915 4.5 12 4.5C12.5085 4.5 13.0079 4.63109 13.4476 4.87996L17.5916 7.22967C18.0191 7.47074 18.3742 7.8169 18.6214 8.23355C18.8685 8.65019 18.9991 9.12273 19 9.60392V14.3961ZM17.5048 10.2803C17.5046 10.2478 17.4956 10.2159 17.4786 10.1879C17.4616 10.1598 17.4373 10.1367 17.4082 10.1208C17.3792 10.1048 17.3464 10.0963 17.313 10.0963C17.2796 10.0963 17.2468 10.1048 17.2178 10.1208L13.7458 12.0505C12.9912 12.5346 12.49 13.3405 12.49 14.1042V16.634C12.49 16.7608 12.5348 16.8794 12.5964 16.9831C12.6606 17.0903 12.7526 17.1792 12.8631 17.241C12.9737 17.3027 13.099 17.3351 13.2264 17.3349C13.378 17.3386 13.5273 17.2977 13.6548 17.2176L15.9158 15.9603C17.2794 15.2102 17.4558 14.9402 17.502 13.5437L17.5048 10.2803ZM9.7992 11.4518L7.5732 10.2108C7.40983 10.1201 7.21643 10.0956 7.03468 10.1426C6.85294 10.1895 6.6974 10.3041 6.6016 10.4617C6.52367 10.5842 6.48606 10.7269 6.4938 10.8708V13.5178C6.5008 14.8461 6.6898 15.1311 7.8462 15.8225L10.7162 17.4222C10.7449 17.4384 10.7775 17.4469 10.8107 17.4469C10.8439 17.4469 10.8765 17.4384 10.9052 17.4222C10.9339 17.4064 10.9577 17.3834 10.9742 17.3556C10.9907 17.3277 10.9993 17.2961 10.999 17.264V13.4769C10.943 12.6219 10.4726 11.8268 9.7992 11.4518ZM15.892 9.2589C15.9745 9.21299 16.0468 9.15159 16.1048 9.07827C16.1627 9.00494 16.2052 8.92113 16.2297 8.83171C16.2542 8.74229 16.2602 8.64903 16.2474 8.55732C16.2346 8.46562 16.2033 8.37729 16.1552 8.29747C16.0815 8.16806 15.9692 8.06346 15.8332 7.99745L13.5792 6.74418C12.217 5.98322 11.8684 5.98185 10.5902 6.65008L7.653 8.28656V8.28792C7.62405 8.3044 7.60008 8.32803 7.58351 8.35642C7.56695 8.38482 7.55837 8.41697 7.55866 8.44963C7.55894 8.48229 7.56807 8.5143 7.58513 8.54242C7.60219 8.57054 7.62657 8.59377 7.6558 8.60976L11.1446 10.534C11.9608 10.9213 12.9324 10.9227 13.6198 10.5354L15.8934 9.2589H15.892Z"/>
    <defs>
        <linearGradient id="paint0_linear_2761_23" x1="0" x2="24" y1="12" y2="12" gradientUnits="userSpaceOnUse">
            <stop stop-color="#8200FF"/>
            <stop offset="1" stop-color="#00BCC3"/>
        </linearGradient>
    </defs>
</svg>
