<svg xmlns="http://www.w3.org/2000/svg" viewBox="0 0 24 24">
    <path d="M0 12C0 5.37258 5.37258 0 12 0C18.6274 0 24 5.37258 24 12C24 18.6274 18.6274 24 12 24C5.37258 24 0 18.6274 0 12Z" fill="#FF0000" />
    <path d="M18.1326 9.03622C17.9854 8.47072 17.5517 8.02541 17.0009 7.87427C16.0028 7.59961 12.0001 7.59961 12.0001 7.59961C12.0001 7.59961 7.99741 7.59961 6.99922 7.87427C6.44846 8.02541 6.01472 8.47072 5.86752 9.03622C5.6001 10.0611 5.6001 12.1996 5.6001 12.1996C5.6001 12.1996 5.6001 14.338 5.86752 15.363C6.01472 15.9285 6.44846 16.3738 6.99922 16.525C7.99741 16.7996 12.0001 16.7996 12.0001 16.7996C12.0001 16.7996 16.0028 16.7996 17.0009 16.525C17.5517 16.3738 17.9854 15.9285 18.1326 15.363C18.4001 14.338 18.4001 12.1996 18.4001 12.1996C18.4001 12.1996 18.4001 10.0611 18.1326 9.03622Z" fill="white" />
    <path d="M10.7998 14.4004V10.4004L13.9998 12.4005L10.7998 14.4004Z" fill="#FF0000" />
</svg>
