<svg xmlns="http://www.w3.org/2000/svg" viewBox="0 0 24 24">
    <path d="M22.6602 3.63208L22.9402 2.86141C23.0741 2.49614 22.9844 2.08628 22.7102 1.8105L22.1902 1.29005C21.9147 1.01557 21.5051 0.925785 21.1402 1.05985L20.3702 1.34009C19.8179 1.53868 19.316 1.85646 18.9002 2.2709L14.5802 6.59464L9.2302 5.52371L18.4802 14.7817L17.4102 9.42709L21.7302 5.10335C22.1443 4.68714 22.4618 4.18484 22.6602 3.63208ZM3.03019 1.99914C3.16278 1.99914 3.28946 2.05403 3.3802 2.15079L21.8402 20.6368C21.9369 20.7276 21.9917 20.8544 21.9917 20.9871C21.9917 21.1198 21.9369 21.2466 21.8402 21.3374L21.3102 21.8678C21.2195 21.9646 21.0928 22.0195 20.9602 22.0195C20.8276 22.0195 20.7009 21.9646 20.6102 21.8678L19.3802 20.6468C19.2924 20.9347 19.1343 21.1961 18.9202 21.4075L18.7502 21.5776C18.6627 21.6717 18.5385 21.7229 18.4102 21.7177C18.2428 21.7178 18.0874 21.6306 18.0002 21.4875L15.8002 17.0637L12.6702 13.931L9.67019 16.4432L10.1102 21.6477C10.1066 21.9019 10.0065 22.1452 9.8302 22.3282L9.30019 22.8587C9.19036 22.9681 9.03453 23.0176 8.88177 22.9918C8.729 22.966 8.59807 22.868 8.5302 22.7286L6.1102 17.8844L1.2702 15.4623C1.13093 15.3944 1.03298 15.2633 1.00719 15.1104C0.981401 14.9575 1.03093 14.8016 1.1402 14.6916L1.6702 14.1612C1.85307 13.9847 2.09619 13.8845 2.3502 13.8809L7.4802 14.3113L10.0502 11.3087L6.93019 8.18602L2.5302 6.00413C2.38418 5.91502 2.29657 5.75489 2.3002 5.58376C2.295 5.45532 2.34614 5.33101 2.4402 5.24347L2.6102 5.07332C2.82138 4.85905 3.08258 4.70082 3.3702 4.61292L2.1502 3.38186C2.05352 3.29105 1.99868 3.16426 1.99868 3.03156C1.99868 2.89886 2.05352 2.77206 2.1502 2.68125L2.6802 2.15079C2.77093 2.05403 2.89761 1.99914 3.03019 1.99914Z" fill="currentColor" fill-rule="evenodd" clip-rule="evenodd" />
</svg>
