<svg xmlns="http://www.w3.org/2000/svg" viewBox="0 0 24 24">
    <path d="M5.5 5H8.5C8.776 5 9 4.776 9 4.5V3.5C9 3.224 8.776 3 8.5 3H5.5C5.224 3 5 3.224 5 3.5V4.5C5 4.776 5.224 5 5.5 5ZM19 18C17.346 18 16 16.654 16 15C16 14.042 16.46 13.196 17.162 12.646L17.881 14.804C17.982 15.11 18.27 15.316 18.592 15.316H19.674C19.912 15.316 20.081 15.082 20.006 14.855L19.056 12.005C20.684 12.036 22 13.365 22 15C22 16.654 20.654 18 19 18ZM9.899 14H10.382L12.882 9H8.962C8.914 9.301 8.82 9.596 8.684 9.869L8.075 11.085C8.989 11.804 9.659 12.818 9.899 14ZM6.617 14L7.156 12.923C7.449 13.227 7.671 13.594 7.815 14H6.617ZM12.171 14.895C11.831 15.576 11.146 16 10.382 16H5.809C5.285 16 4.809 15.734 4.533 15.289C4.258 14.844 4.232 14.298 4.467 13.83L5.363 12.037C5.33429 12.0334 5.30563 12.0294 5.27695 12.0254C5.18576 12.0127 5.09433 12 5 12C3.346 12 2 13.346 2 15C2 16.654 3.346 18 5 18C5.883 18 6.67 17.609 7.22 17H9.578C8.806 18.764 7.049 20 5 20C2.238 20 0 17.761 0 15C0 12.238 2.238 10 5 10C5.448 10 5.874 10.078 6.288 10.188L6.895 8.975C6.964 8.837 7 8.682 7 8.528V8.25C7 7.561 7.561 7 8.25 7H15.279L15.161 6.646C15.034 6.263 15.099 5.843 15.333 5.518C15.567 5.194 15.946 5 16.347 5H19C20.449 5 21.661 6.032 21.939 7.399C21.97 7.547 21.932 7.7 21.837 7.816C21.742 7.932 21.6 8 21.45 8H20.414C20.202 8 20.014 7.867 19.943 7.667C19.806 7.279 19.435 7 19 7H17.387L18.407 10.06C18.4565 10.054 18.5058 10.0472 18.555 10.0404C18.7017 10.0202 18.848 10 19 10C21.762 10 24 12.238 24 15C24 17.761 21.762 20 19 20C16.238 20 14 17.761 14 15C14 13.15 15.016 11.554 16.509 10.688L15.946 9H15.118L12.171 14.895Z" fill="currentColor" fill-rule="evenodd" clip-rule="evenodd" />
</svg>
