<svg xmlns="http://www.w3.org/2000/svg" viewBox="0 0 24 24">
    <path d="M18.73 2.73001L19.27 3.27001C19.7298 3.72932 19.9918 4.35018 20 5.00001V21C20 21.5523 19.5523 22 19 22H18C17.4477 22 17 21.5523 17 21V20H7.00002V21C7.00002 21.5523 6.5523 22 6.00002 22H5.00002C4.44773 22 4.00002 21.5523 4.00002 21V5.00001C3.99756 4.3558 4.24488 3.73571 4.69002 3.27001L5.23002 2.73001C5.69915 2.26051 6.33631 1.99772 7.00002 2.00001H17C17.6499 2.00826 18.2707 2.27024 18.73 2.73001ZM8.00002 18C8.5523 18 9.00002 17.5523 9.00002 17V16C9.00002 15.4477 8.5523 15 8.00002 15H7.00002C6.44773 15 6.00002 15.4477 6.00002 16V17C6.00002 17.5523 6.44773 18 7.00002 18H8.00002ZM18 17C18 17.5523 17.5523 18 17 18H16C15.4477 18 15 17.5523 15 17V16C15 15.4477 15.4477 15 16 15H17C17.5523 15 18 15.4477 18 16V17ZM6.00002 12H18V6.00001H6.00002V12Z" fill="currentColor" fill-rule="evenodd" clip-rule="evenodd" />
</svg>
