<svg xmlns="http://www.w3.org/2000/svg" viewBox="0 0 24 24">
    <path d="M3.16854 2.44541C3.4749 1.98588 4.09577 1.8617 4.55529 2.16806L7.55529 4.16806C7.83349 4.35352 8.00059 4.66575 8.00059 5.00011V16.1707C8.85296 16.472 9.52851 17.1476 9.82978 18H18.0005C18.5528 18 19.0005 18.4477 19.0005 19C19.0005 19.5523 18.5528 20 18.0005 20H9.82978C9.41795 21.1652 8.30671 22 7.00049 22C5.34363 22 4.00049 20.6569 4.00049 19C4.00049 17.6937 4.83535 16.5825 6.00059 16.1707V5.53529L3.44589 3.83216C2.98637 3.5258 2.86219 2.90493 3.16854 2.44541ZM7.00059 18.0001L6.99035 18.0001C6.44273 18.0055 6.00049 18.4511 6.00049 19C6.00049 19.5523 6.4482 20 7.00049 20C7.55277 20 8.00049 19.5523 8.00049 19C8.00049 18.4511 7.5583 18.0056 7.01074 18.0001L7.00059 18.0001Z" fill="currentColor" fill-rule="evenodd" clip-rule="evenodd" />
    <path d="M9.00049 7C9.00049 5.89543 9.89592 5 11.0005 5H19.0005C20.1051 5 21.0005 5.89543 21.0005 7V15C21.0005 16.1046 20.1051 17 19.0005 17H11.0005C9.89592 17 9.00049 16.1046 9.00049 15V7ZM13.0005 7H11.0005V15H19.0005V7H17.0005V10H13.0005V7Z" fill="currentColor" fill-rule="evenodd" clip-rule="evenodd" />
</svg>
