<svg xmlns="http://www.w3.org/2000/svg" viewBox="0 0 24 24">
    <path d="M17.62 10H19C21.761 10 24 12.238 24 15C24 17.762 21.761 20 19 20C16.239 20 14 17.762 14 15C14 13.869 14.39 12.838 15.022 12L13 12.003C13 13.897 11.679 15.476 9.91 15.89C9.91 15.892 9.909 15.895 9.908 15.896C9.618 15.964 9.314 16 9.003 16H7.815H4.5C4.224 16 4 15.779 4 15.503V14.503C4 14.227 4.224 14.003 4.5 14.003H7.816C7.403 12.84 6.303 12 5 12C3.346 12 2 13.346 2 15C2 16.654 3.346 18 5 18C5.881 18 6.664 17.609 7.209 17H9.555C8.783 18.761 7.046 20 5 20C2.239 20 0 17.762 0 15C0 12.238 2.239 10 5 10H15.383L13.665 6.56C13.494 6.217 13.143 6 12.76 6H10.5C10.224 6 10 5.776 10 5.5V4.5C10 4.224 10.224 4 10.5 4H12.764C13.901 4 14.941 4.643 15.45 5.66L17.62 10ZM16 15C16 16.654 17.346 18 19 18C20.654 18 22 16.654 22 15C22 13.346 20.654 12 19 12C18.9001 12 18.8042 12.0136 18.7079 12.0273C18.6847 12.0306 18.6614 12.0339 18.638 12.037L20.027 14.813C20.081 14.922 20.075 15.051 20.012 15.154C19.948 15.258 19.835 15.32 19.714 15.32H18.504C18.22 15.32 17.96 15.159 17.833 14.905L16.843 12.924C16.324 13.463 16 14.193 16 15Z" fill="currentColor" fill-rule="evenodd" clip-rule="evenodd" />
</svg>
