<svg xmlns="http://www.w3.org/2000/svg" viewBox="0 0 24 24">
    <path d="M18.73 2.73001L19.27 3.27001C19.7298 3.72932 19.9918 4.35018 20 5.00001V17C20.0025 17.6442 19.7552 18.2643 19.31 18.73L18.77 19.27C18.3009 19.7395 17.6637 20.0023 17 20H16L16.97 21.62C17.0112 21.6989 17.0091 21.7935 16.9645 21.8705C16.9199 21.9475 16.839 21.9964 16.75 22H15.31C15.0397 22.0035 14.7896 21.8573 14.66 21.62L13.72 20H10.28L9.34002 21.62C9.21043 21.8573 8.96033 22.0035 8.69002 22H7.22002C7.13107 21.9964 7.05015 21.9475 7.00555 21.8705C6.96094 21.7935 6.95886 21.6989 7.00002 21.62L8.00002 20H7.00002C6.35581 20.0025 5.73571 19.7551 5.27002 19.31L4.73002 18.77C4.26051 18.3009 3.99773 17.6637 4.00002 17V5.00001C3.99756 4.3558 4.24488 3.73571 4.69002 3.27001L5.23002 2.73001C5.69915 2.26051 6.33631 1.99772 7.00002 2.00001H17C17.6499 2.00826 18.2707 2.27024 18.73 2.73001ZM6.00002 16V16.5C6.00002 17.3284 6.67159 18 7.50002 18H8.00002C8.5523 18 9.00002 17.5523 9.00002 17V16C9.00002 15.4477 8.5523 15 8.00002 15H7.00002C6.44773 15 6.00002 15.4477 6.00002 16ZM18 16.5C18 17.3284 17.3284 18 16.5 18H16C15.4477 18 15 17.5523 15 17V16C15 15.4477 15.4477 15 16 15H17C17.5523 15 18 15.4477 18 16V16.5ZM6.00002 12H18V6.00001H6.00002V12Z" fill="currentColor" fill-rule="evenodd" clip-rule="evenodd" />
</svg>
