<svg xmlns="http://www.w3.org/2000/svg" viewBox="0 0 24 24">
    <path d="M16 2C16.5523 2 17 2.44772 17 3V4H7.00002V3C7.00002 2.44772 7.44773 2 8.00002 2H16ZM19.27 7.27L18.73 6.73C18.2707 6.27023 17.6499 6.00825 17 6H7.00002C6.33631 5.99771 5.69915 6.26049 5.23002 6.73L4.69002 7.27C4.24488 7.73569 3.99756 8.35579 4.00002 9V21C4.00002 21.5523 4.44773 22 5.00002 22H6.00002C6.5523 22 7.00002 21.5523 7.00002 21V20H17V21C17 21.5523 17.4477 22 18 22H19C19.5523 22 20 21.5523 20 21V9C19.9918 8.35017 19.7298 7.72931 19.27 7.27ZM9.00002 17C9.00002 17.5523 8.5523 18 8.00002 18H7.00002C6.44773 18 6.00002 17.5523 6.00002 17V16C6.00002 15.4477 6.44773 15 7.00002 15H8.00002C8.5523 15 9.00002 15.4477 9.00002 16V17ZM17 18C17.5523 18 18 17.5523 18 17V16C18 15.4477 17.5523 15 17 15H16C15.4477 15 15 15.4477 15 16V17C15 17.5523 15.4477 18 16 18H17ZM18 12H6.00002V9H18V12Z" fill="currentColor" fill-rule="evenodd" clip-rule="evenodd" />
</svg>
