<svg xmlns="http://www.w3.org/2000/svg" viewBox="0 0 24 24">
    <path d="M20 4H4C2.89543 4 2 4.89543 2 6V18C2 19.1046 2.89543 20 4 20H20C21.1046 20 22 19.1046 22 18V6C22 4.89543 21.1046 4 20 4ZM4 10.5V8.5C4 8.22386 4.22386 8 4.5 8H15.5C15.7761 8 16 8.22386 16 8.5V10.5C16 10.7761 15.7761 11 15.5 11H4.5C4.22386 11 4 10.7761 4 10.5ZM19.5 16C19.7761 16 20 15.7761 20 15.5V13.5C20 13.2239 19.7761 13 19.5 13H8.5C8.22386 13 8 13.2239 8 13.5V15.5C8 15.7761 8.22386 16 8.5 16H19.5Z" fill="currentColor" fill-rule="evenodd" clip-rule="evenodd" />
</svg>
