<svg xmlns="http://www.w3.org/2000/svg" viewBox="0 0 24 24">
    <path d="M17 4.00004C19.7614 4.00004 22 6.23862 22 9.00004C22.0044 10.0826 21.653 11.1366 21 12V18C21 19.1046 20.1046 20 19 20H4C2.89543 20 2 19.1046 2 18V7.00004C2 5.89547 2.89543 5.00004 4 5.00004H14C14.8634 4.347 15.9174 3.99565 17 4.00004ZM4 7.00004H12.42C12.1421 7.63015 11.9991 8.31139 12 9.00004C12.0026 9.33574 12.0361 9.67048 12.1 10H4V7.00004ZM4 13V18H19V13.58C17.3528 14.3162 15.435 14.0937 14 13H4ZM19.098 6.59989C19.2281 6.4667 19.4363 6.4667 19.5664 6.59989L19.901 6.97029C19.9644 7.0359 20 7.12521 20 7.21838C20 7.31156 19.9644 7.40087 19.901 7.46648L16.1401 11.3941C16.0793 11.4617 15.9946 11.5 15.9058 11.5C15.8171 11.5 15.7323 11.4617 15.6716 11.3941L14.099 9.7378C14.0356 9.67218 14 9.58287 14 9.4897C14 9.39653 14.0356 9.30721 14.099 9.2416L14.4537 8.8712C14.5144 8.80364 14.5992 8.76531 14.6879 8.76531C14.7766 8.76531 14.8614 8.80364 14.9221 8.8712L15.9259 9.91251L19.098 6.59989Z" fill="currentColor" fill-rule="evenodd" clip-rule="evenodd" />
</svg>
