<svg xmlns="http://www.w3.org/2000/svg" viewBox="0 0 24 24">
    <path d="M2 12C2 6.47715 6.47715 2 12 2C14.6522 2 17.1957 3.05357 19.0711 4.92893C20.9464 6.8043 22 9.34784 22 12C22 17.5228 17.5228 22 12 22C6.47715 22 2 17.5228 2 12ZM15.24 17C15.4776 17 15.6825 16.8328 15.73 16.6L15.94 15.55C15.9549 15.4773 15.9366 15.4017 15.8903 15.3438C15.8439 15.2858 15.7742 15.2515 15.7 15.25H12.35L12.88 12.61L14.64 12.1C14.8533 12.0378 15 11.8422 15 11.62V10.62C14.9962 10.5428 14.9582 10.4713 14.8963 10.4249C14.8345 10.3785 14.7552 10.3621 14.68 10.38L13.25 10.79L13.94 7.34C13.9549 7.26729 13.9366 7.19173 13.8903 7.13378C13.8439 7.07582 13.7742 7.04147 13.7 7.04H11.41C11.1724 7.03995 10.9675 7.20717 10.92 7.44L10.07 11.7L8.36 12.19C8.14667 12.2522 8 12.4478 8 12.67V13.67C8.00384 13.7472 8.04183 13.8187 8.10368 13.8651C8.16552 13.9115 8.2448 13.9279 8.32 13.91L9.7 13.52L9.06 16.7C9.04514 16.7727 9.06336 16.8483 9.10972 16.9062C9.15608 16.9642 9.2258 16.9985 9.3 17H15.24Z" fill="currentColor" fill-rule="evenodd" clip-rule="evenodd" />
</svg>
