<svg xmlns="http://www.w3.org/2000/svg" viewBox="0 0 24 24">
    <path d="M21 4H3C2.44772 4 2 4.44772 2 5V19C2 19.5523 2.44772 20 3 20H21C21.5523 20 22 19.5523 22 19V5C22 4.44772 21.5523 4 21 4ZM8 18C8 15.7909 6.20914 14 4 14V10C6.20914 10 8 8.20914 8 6H16C16 8.20914 17.7909 10 20 10V14C17.7909 14 16 15.7909 16 18H8ZM9 12C9 10.3431 10.3431 9 12 9C13.6569 9 15 10.3431 15 12C15 13.6569 13.6569 15 12 15C10.3431 15 9 13.6569 9 12Z" fill="currentColor" fill-rule="evenodd" clip-rule="evenodd" />
</svg>
