<svg xmlns="http://www.w3.org/2000/svg" viewBox="0 0 24 24">
    <path d="M17.6421 6.9023C17.1808 9.8255 14.6724 11.977 11.7278 11.9749H8.5463C8.17796 11.9708 7.863 12.2404 7.80827 12.6065L7.05028 17.3584C6.99555 17.7245 6.68059 17.994 6.31225 17.9899H4.50706C4.35856 17.9955 4.21559 17.9329 4.11856 17.8198C4.02153 17.7067 3.98098 17.5553 4.00838 17.4085L6.35214 2.84218C6.43116 2.3519 6.85541 1.99369 7.34949 2.00008H14.3309C15.343 2.00128 16.3048 2.44395 16.9669 3.21337C17.629 3.98279 17.9263 5.00319 17.7817 6.01008L17.6421 6.9023ZM19.8263 10.9123L19.9659 10.0201C20.0942 9.11069 19.8574 8.18735 19.3076 7.45368C18.5975 11.0974 15.4217 13.7267 11.7278 13.7293H10.0323C9.71536 13.7338 9.43562 13.9387 9.3342 14.2406L8.2072 21.4185C8.18022 21.5635 8.21953 21.7131 8.31427 21.8258C8.409 21.9385 8.54913 22.0024 8.6959 21.9999H10.5011C10.8701 22.0005 11.186 21.7338 11.2491 21.3684L11.9971 16.6165C12.0558 16.2526 12.3684 15.9851 12.7351 15.9849H13.8721C16.8317 16.0068 19.3627 13.8506 19.8263 10.9123Z" fill="currentColor" fill-rule="evenodd" clip-rule="evenodd" />
</svg>
