<svg xmlns="http://www.w3.org/2000/svg" viewBox="0 0 24 24">
    <path d="M21 9.98545C21 8.87954 20.1046 7.98302 19 7.98302H15.45C15.806 7.37558 15.9957 6.68488 16 5.98059H19C19 4.87468 18.1046 3.97817 17 3.97817H15.45C14.7319 2.75275 13.4191 2 12 2C10.5809 2 9.26812 2.75275 8.55 3.97817H6C4.34315 3.97817 3 5.32294 3 6.98181V19.9976C3 21.1035 3.89543 22 5 22H19C20.1046 22 21 21.1035 21 19.9976V9.98545ZM12 3.97817C13.1046 3.97817 14 4.87468 14 5.98059C14 7.0865 13.1046 7.98302 12 7.98302C10.8954 7.98302 10 7.0865 10 5.98059C10 4.87468 10.8954 3.97817 12 3.97817ZM6 5.98059C5.44772 5.98059 5 6.42885 5 6.98181C5 7.53476 5.44772 7.98302 6 7.98302H8.55C8.19399 7.37558 8.00428 6.68488 8 5.98059H6ZM19 17.9951H12C11.4477 17.9951 11 17.5469 11 16.9939V12.9891C11 12.4361 11.4477 11.9879 12 11.9879H19V17.9951ZM13.5 15.9927C13.2239 15.9927 13 15.7686 13 15.4921V14.4909C13 14.2144 13.2239 13.9903 13.5 13.9903H14.5C14.7761 13.9903 15 14.2144 15 14.4909V15.4921C15 15.7686 14.7761 15.9927 14.5 15.9927H13.5Z" fill="currentColor" fill-rule="evenodd" clip-rule="evenodd" />
</svg>
