<svg xmlns="http://www.w3.org/2000/svg" viewBox="0 0 24 24">
    <path d="M20.9576 4.70011L14.3523 19.4101C14.1901 19.7718 13.83 20.0032 13.4344 20.0001H10.0719C9.61096 20.0172 9.19839 19.7153 9.07416 19.2701L5.77156 7.36011C5.54085 6.5216 4.95838 5.82472 4.17513 5.45011C3.52457 5.1511 2.85843 4.88739 2.1796 4.66011C2.07507 4.62628 2.00313 4.53015 2 4.42011V4.25011C2 4.11204 2.11168 4.00011 2.24944 4.00011H7.90677C8.90454 4.00011 9.67282 4.27011 9.90231 5.33011L11.4888 12.8401L11.9278 15.1401L16.2082 4.62011C16.3626 4.24331 16.7297 3.99807 17.1361 4.00011H20.4587C20.6342 3.98509 20.8047 4.06398 20.9071 4.20768C21.0095 4.35137 21.0287 4.53855 20.9576 4.70011Z" fill="currentColor" />
</svg>
