<svg xmlns="http://www.w3.org/2000/svg" viewBox="0 0 24 24">
    <path d="M14 4H15C16.1046 4 17 4.89543 17 6V20C17 21.1046 16.1046 22 15 22H9C7.89543 22 7 21.1046 7 20V6C7 4.89543 7.89543 4 9 4H10V3C10 2.44772 10.4477 2 11 2H13C13.5523 2 14 2.44772 14 3V4ZM14.93 11.94C14.9731 11.8599 14.997 11.7709 15 11.68V11.5C15 11.2239 14.7761 11 14.5 11H12.61L12.97 8.52C12.9878 8.39134 12.9516 8.26103 12.87 8.16C12.7808 8.06019 12.6539 8.00218 12.52 8C12.3379 7.99387 12.1664 8.08536 12.07 8.24L9.07 13.15C9.02694 13.2301 9.00298 13.3191 9 13.41V13.57C9 13.8461 9.22386 14.07 9.5 14.07H11.39L11.05 16.48C11.0322 16.6087 11.0684 16.739 11.15 16.84C11.2392 16.9398 11.3661 16.9978 11.5 17H11.54C11.7004 17.0032 11.8498 16.9189 11.93 16.78L14.93 11.94Z" fill="currentColor" fill-rule="evenodd" clip-rule="evenodd" />
</svg>
