<svg xmlns="http://www.w3.org/2000/svg" viewBox="0 0 24 24">
    <path d="M3 4.65039H21C21.1933 4.65039 21.3496 4.8067 21.3496 5V5.34961H3.34961V17.6504H9.84961V19.3496H1C0.8067 19.3496 0.650391 19.1933 0.650391 19V18.6504H2.65039V5C2.65039 4.8067 2.8067 4.65039 3 4.65039ZM15.9814 15.3496H20.0967C20.6039 15.3496 21.0682 15.6343 21.2988 16.0859L22.6787 18.791C22.7975 19.0239 22.6286 19.2998 22.3672 19.2998H13.6602C13.3965 19.2998 13.2273 19.0192 13.3506 18.7861L14.7881 16.0693C15.022 15.6271 15.4812 15.3496 15.9814 15.3496ZM18.0752 8.89941C19.1657 8.89968 20.0498 9.7844 20.0498 10.875C20.0497 11.9655 19.1657 12.8493 18.0752 12.8496C16.9845 12.8496 16.0997 11.9657 16.0996 10.875C16.0996 9.78424 16.9844 8.89941 18.0752 8.89941Z" fill="currentColor" stroke="currentColor" stroke-width="1.3" />
</svg>
