<svg xmlns="http://www.w3.org/2000/svg" viewBox="0 0 24 24">
    <path d="M12.4999 5H11.4999C11.2237 5 10.9999 4.77614 10.9999 4.5V1.5C10.9999 1.22386 11.2237 1 11.4999 1H12.4999C12.776 1 12.9999 1.22386 12.9999 1.5V4.5C12.9999 4.77614 12.776 5 12.4999 5ZM16.9999 10.5C16.9999 10.2239 16.776 10 16.4999 10H7.49985C7.22371 10 6.99985 10.2239 6.99985 10.5V12.17C6.99943 12.703 7.21181 13.2142 7.58985 13.59L8.70985 14.71C8.8946 14.8963 8.99875 15.1477 8.99985 15.41V22.5C8.99985 22.7761 9.22371 23 9.49985 23H14.4999C14.776 23 14.9999 22.7761 14.9999 22.5V15.41C15.001 15.1477 15.1051 14.8963 15.2899 14.71L16.4099 13.59C16.7879 13.2142 17.0003 12.703 16.9999 12.17V10.5ZM12.9999 18.5C12.9999 18.7761 12.776 19 12.4999 19H11.4999C11.2237 19 10.9999 18.7761 10.9999 18.5V17.5C10.9999 17.2239 11.2237 17 11.4999 17H12.4999C12.776 17 12.9999 17.2239 12.9999 17.5V18.5ZM19.8499 4.85L19.1499 4.15C19.056 4.05534 18.9282 4.0021 18.7949 4.0021C18.6615 4.0021 18.5337 4.05534 18.4399 4.15L16.3199 6.27C16.2232 6.36073 16.1683 6.48741 16.1683 6.62C16.1683 6.75259 16.2232 6.87927 16.3199 6.97L17.0299 7.68C17.1206 7.77668 17.2473 7.83152 17.3799 7.83152C17.5124 7.83152 17.6391 7.77668 17.7299 7.68L19.8499 5.56C19.9445 5.46612 19.9978 5.33832 19.9978 5.205C19.9978 5.07168 19.9445 4.94388 19.8499 4.85ZM5.55985 4.15L7.67985 6.27C7.78663 6.3612 7.84812 6.49458 7.84812 6.635C7.84812 6.77542 7.78663 6.9088 7.67985 7L6.96985 7.68C6.87912 7.77668 6.75244 7.83152 6.61985 7.83152C6.48727 7.83152 6.36059 7.77668 6.26985 7.68L4.14985 5.56C4.0552 5.46612 4.00195 5.33832 4.00195 5.205C4.00195 5.07168 4.0552 4.94388 4.14985 4.85L4.84985 4.15C4.94374 4.05534 5.07153 4.0021 5.20485 4.0021C5.33817 4.0021 5.46597 4.05534 5.55985 4.15Z" fill="currentColor" fill-rule="evenodd" clip-rule="evenodd" />
</svg>
