<svg xmlns="http://www.w3.org/2000/svg" viewBox="0 0 24 24">
    <path d="M19 8V3C19 2.44772 18.5523 2 18 2H6C5.44772 2 5 2.44772 5 3V8C4.44772 8 4 8.44772 4 9V14.34C3.99917 15.4012 4.42005 16.4192 5.17 17.17L5.83 17.83C6.06205 18.0639 6.32438 18.2657 6.61 18.43C7.44426 18.8804 7.97431 19.7423 8 20.69V21C8 21.5523 8.44772 22 9 22H15C15.5523 22 16 21.5523 16 21V20.69C16.0257 19.7423 16.5557 18.8804 17.39 18.43C17.6756 18.2657 17.938 18.0639 18.17 17.83L18.83 17.17C19.58 16.4192 20.0008 15.4012 20 14.34V9C20 8.44772 19.5523 8 19 8ZM7 4H17V8H15V6.5C15 6.22386 14.7761 6 14.5 6H13.5C13.2239 6 13 6.22386 13 6.5V8H11V6.5C11 6.22386 10.7761 6 10.5 6H9.5C9.22386 6 9 6.22386 9 6.5V8H7V4ZM17.41 15.76C17.788 15.3842 18.0004 14.873 18 14.34V10H6V14.34C6.01269 14.8804 6.24355 15.3926 6.64 15.76L7.29 16.41C7.40606 16.5269 7.53722 16.6278 7.68 16.71C8.90666 17.4043 9.75791 18.6114 10 20H14.05C14.2921 18.6114 15.1433 17.4043 16.37 16.71C16.5128 16.6278 16.6439 16.5269 16.76 16.41L17.41 15.76Z" fill="currentColor" fill-rule="evenodd" clip-rule="evenodd" />
</svg>
