<svg xmlns="http://www.w3.org/2000/svg" viewBox="0 0 24 24">
    <path d="M1.5 2H22.5C23.3284 2 24 2.67157 24 3.5V16.5C24 17.3284 23.3284 18 22.5 18H14L14.45 18.89C14.7877 19.5697 15.4811 19.9996 16.24 20H16.5C16.7761 20 17 20.2239 17 20.5V21.5C17 21.7761 16.7761 22 16.5 22H7.5C7.22386 22 7 21.7761 7 21.5V20.5C7 20.2239 7.22386 20 7.5 20H7.76C8.51894 19.9996 9.21227 19.5697 9.55 18.89L10 18H1.5C0.671573 18 0 17.3284 0 16.5V3.5C0 2.67157 0.671573 2 1.5 2ZM2 14H22V4H2V14Z" fill="currentColor" fill-rule="evenodd" clip-rule="evenodd" />
</svg>
