<svg xmlns="http://www.w3.org/2000/svg" viewBox="0 0 24 24">
    <path d="M13 7H21C22.1046 7 23 7.89543 23 9V19C23 20.1046 22.1046 21 21 21H3C1.89543 21 1 20.1046 1 19V9C1 7.89543 1.89543 7 3 7H11V5.5C11 4.67157 11.6716 4 12.5 4H13V3.5C13 3.22386 13.2239 3 13.5 3H14.5C14.7761 3 15 3.22386 15 3.5V4.5C15 5.32843 14.3284 6 13.5 6H13V7ZM11.5 9C11.2239 9 11 9.22386 11 9.5V10.5C11 10.7761 11.2239 11 11.5 11H12.5C12.7761 11 13 10.7761 13 10.5V9.5C13 9.22386 12.7761 9 12.5 9H11.5ZM11 13.5C11 13.2239 11.2239 13 11.5 13H12.5C12.7761 13 13 13.2239 13 13.5V14.5C13 14.7761 12.7761 15 12.5 15H11.5C11.2239 15 11 14.7761 11 14.5V13.5ZM7.5 9C7.22386 9 7 9.22386 7 9.5V10.5C7 10.7761 7.22386 11 7.5 11H8.5C8.77614 11 9 10.7761 9 10.5V9.5C9 9.22386 8.77614 9 8.5 9H7.5ZM7 13.5C7 13.2239 7.22386 13 7.5 13H8.5C8.77614 13 9 13.2239 9 13.5V14.5C9 14.7761 8.77614 15 8.5 15H7.5C7.22386 15 7 14.7761 7 14.5V13.5ZM4.5 15C4.77614 15 5 14.7761 5 14.5V13.5C5 13.2239 4.77614 13 4.5 13H3.5C3.22386 13 3 13.2239 3 13.5V14.5C3 14.7761 3.22386 15 3.5 15H4.5ZM5 10.5C5 10.7761 4.77614 11 4.5 11H3.5C3.22386 11 3 10.7761 3 10.5V9.5C3 9.22386 3.22386 9 3.5 9H4.5C4.77614 9 5 9.22386 5 9.5V10.5ZM16.5 19C16.7761 19 17 18.7761 17 18.5V17.5C17 17.2239 16.7761 17 16.5 17H7.5C7.22386 17 7 17.2239 7 17.5V18.5C7 18.7761 7.22386 19 7.5 19H16.5ZM17 14.5C17 14.7761 16.7761 15 16.5 15H15.5C15.2239 15 15 14.7761 15 14.5V13.5C15 13.2239 15.2239 13 15.5 13H16.5C16.7761 13 17 13.2239 17 13.5V14.5ZM16.5 11C16.7761 11 17 10.7761 17 10.5V9.5C17 9.22386 16.7761 9 16.5 9H15.5C15.2239 9 15 9.22386 15 9.5V10.5C15 10.7761 15.2239 11 15.5 11H16.5ZM21 14.5C21 14.7761 20.7761 15 20.5 15H19.5C19.2239 15 19 14.7761 19 14.5V13.5C19 13.2239 19.2239 13 19.5 13H20.5C20.7761 13 21 13.2239 21 13.5V14.5ZM20.5 11C20.7761 11 21 10.7761 21 10.5V9.5C21 9.22386 20.7761 9 20.5 9H19.5C19.2239 9 19 9.22386 19 9.5V10.5C19 10.7761 19.2239 11 19.5 11H20.5Z" fill="currentColor" fill-rule="evenodd" clip-rule="evenodd" />
</svg>
