<svg xmlns="http://www.w3.org/2000/svg" viewBox="0 0 24 24">
    <path d="M14.39 12.0953L13.8526 12.6327C13.6574 12.8279 13.3408 12.8279 13.1455 12.6327L12 11.4871L10.8545 12.6327C10.6592 12.8279 10.3426 12.8279 10.1474 12.6327L9.60998 12.0953C9.41472 11.9 9.41472 11.5834 9.60998 11.3882L10.7555 10.2426L9.60998 9.09713C9.41472 8.90187 9.41472 8.58528 9.60998 8.39002L10.1474 7.85262C10.3426 7.65736 10.6592 7.65736 10.8545 7.85262L12 8.99813L13.1455 7.85262C13.3408 7.65736 13.6574 7.65736 13.8526 7.85262L14.39 8.39002C14.5853 8.58528 14.5853 8.90187 14.39 9.09713L13.2445 10.2426L14.39 11.3882C14.5853 11.5834 14.5853 11.9 14.39 12.0953Z" fill="currentColor" />
    <path d="M2 5C2 4.44772 2.44775 4 3 4H21C21.5522 4 22 4.44772 22 5V16C22 16.5523 21.5522 17 21 17H15V19H16.5C16.7761 19 17 19.2239 17 19.5V20.5C17 20.7761 16.7761 21 16.5 21H7.5C7.22388 21 7 20.7761 7 20.5V19.5C7 19.2239 7.22388 19 7.5 19H9V17H3C2.44775 17 2 16.5523 2 16V5ZM4 15V6H20V15H4Z" fill="currentColor" fill-rule="evenodd" clip-rule="evenodd" />
</svg>
