<svg xmlns="http://www.w3.org/2000/svg" viewBox="0 0 24 24">
    <path d="M13 5V6.09C15.8846 6.57759 17.997 9.07448 18 12V16C18 19.3137 15.3137 22 12 22C8.68629 22 6 19.3137 6 16V12C6.00296 9.07448 8.1154 6.57759 11 6.09V4.5C11 3.67157 11.6716 3 12.5 3H13V2.5C13 2.22386 13.2239 2 13.5 2H14.5C14.7761 2 15 2.22386 15 2.5V3.5C15 4.32843 14.3284 5 13.5 5H13ZM12.5 13C12.7761 13 13 12.7761 13 12.5V10.5C13 10.2239 12.7761 10 12.5 10H11.5C11.2239 10 11 10.2239 11 10.5V12.5C11 12.7761 11.2239 13 11.5 13H12.5Z" fill="currentColor" fill-rule="evenodd" clip-rule="evenodd" />
</svg>
