<svg xmlns="http://www.w3.org/2000/svg" viewBox="0 0 24 24">
    <path d="M14 1H6C4.34315 1 3 2.34315 3 4V20C3 21.6569 4.34315 23 6 23H14C15.6569 23 17 21.6569 17 20V4C17 2.34315 15.6569 1 14 1ZM15 20C15 20.5523 14.5523 21 14 21H6C5.44772 21 5 20.5523 5 20V4C5 3.44772 5.44772 3 6 3C6.55228 3 7 3.44772 7 4C7 4.55228 7.44772 5 8 5H12C12.5523 5 13 4.55228 13 4C13 3.44772 13.4477 3 14 3C14.5523 3 15 3.44772 15 4V20ZM19 4H20C20.5523 4 21 4.44772 21 5V19C21 19.5523 20.5523 20 20 20H19V4Z" fill="currentColor" fill-rule="evenodd" clip-rule="evenodd" />
</svg>
