<svg xmlns="http://www.w3.org/2000/svg" viewBox="0 0 24 24">
    <path d="M15.9283 14.0933C15.9755 14.0461 16.0014 13.9817 16 13.915V8.5H8V13.91C7.99862 13.9767 8.02452 14.0411 8.07171 14.0883C8.11889 14.1355 8.18328 14.1614 8.25 14.16C8.32642 14.1612 8.39883 14.1259 8.445 14.065L9.98 12.095C10.0281 12.0364 10.0993 12.0017 10.175 12C10.2502 11.9991 10.3219 12.0322 10.37 12.09L11.11 12.965C11.1566 13.022 11.2264 13.0551 11.3 13.055C11.3785 13.0542 11.4523 13.0173 11.5 12.955L12.925 11.1C12.9734 11.0389 13.047 11.0032 13.125 11.0032C13.203 11.0032 13.2766 11.0389 13.325 11.1L15.55 14.065C15.5961 14.1293 15.6709 14.1667 15.75 14.165C15.8167 14.1664 15.8811 14.1405 15.9283 14.0933ZM10.75 11C11.1642 11 11.5 10.6642 11.5 10.25C11.5 9.83579 11.1642 9.5 10.75 9.5C10.3358 9.5 10 9.83579 10 10.25C10 10.6642 10.3358 11 10.75 11Z" fill="currentColor" fill-rule="evenodd" clip-rule="evenodd" />
    <path d="M8 1H16C17.6569 1 19 2.34315 19 4V20C19 21.6569 17.6569 23 16 23H8C6.34315 23 5 21.6569 5 20V4C5 2.34315 6.34315 1 8 1ZM8 7.5H16C16.5523 7.5 17 7.94772 17 8.5V14.5C17 15.0523 16.5523 15.5 16 15.5H13.455C13.3238 15.5006 13.1981 15.5526 13.105 15.645L12.36 16.39C12.2897 16.4603 12.1944 16.4999 12.095 16.5H11.905C11.8056 16.4999 11.7103 16.4603 11.64 16.39L10.895 15.645C10.8019 15.5526 10.6762 15.5006 10.545 15.5H8C7.44772 15.5 7 15.0523 7 14.5V8.5C7 7.94772 7.44772 7.5 8 7.5Z" fill="currentColor" fill-rule="evenodd" clip-rule="evenodd" />
</svg>
