<svg xmlns="http://www.w3.org/2000/svg" viewBox="0 0 24 24">
    <path d="M20 8.5V9.5C20 9.77614 19.7761 10 19.5 10H19V12.34C19.0008 13.4012 18.58 14.4192 17.83 15.17L15.88 17.17C15.3706 17.6594 14.7048 17.9533 14 18V21.5C14 21.7761 13.7761 22 13.5 22H10.5C10.2239 22 10 21.7761 10 21.5V18C9.29123 17.9451 8.62498 17.6404 8.12 17.14L6.17 15.14C5.42736 14.3966 5.00708 13.3908 5 12.34V10H4.5C4.22386 10 4 9.77614 4 9.5V8.5C4 8.22386 4.22386 8 4.5 8H7V2.5C7 2.22386 7.22386 2 7.5 2H8.5C8.77614 2 9 2.22386 9 2.5V8H15V2.5C15 2.22386 15.2239 2 15.5 2H16.5C16.7761 2 17 2.22386 17 2.5V8H19.5C19.7761 8 20 8.22386 20 8.5Z" fill="currentColor" />
</svg>
