<svg xmlns="http://www.w3.org/2000/svg" viewBox="0 0 24 24">
    <path d="M21 12H19.85L19.77 6.49C19.7595 6.22 19.5402 6.00509 19.27 6H18.72C18.4498 6.00509 18.2305 6.22 18.22 6.49L18.14 12H5.9L5.77 2.49C5.75945 2.22 5.54015 2.00509 5.27 2H4.72C4.44985 2.00509 4.23055 2.22 4.22 2.49L4.09 12H3C2.44772 12 2 12.4477 2 13V19C2 19.5523 2.44772 20 3 20H21C21.5523 20 22 19.5523 22 19V13C22 12.4477 21.5523 12 21 12ZM10 16.5C10 16.7761 9.77614 17 9.5 17H4.5C4.22386 17 4 16.7761 4 16.5V15.5C4 15.2239 4.22386 15 4.5 15H9.5C9.77614 15 10 15.2239 10 15.5V16.5ZM19.5 17C19.7761 17 20 16.7761 20 16.5V15.5C20 15.2239 19.7761 15 19.5 15H18.5C18.2239 15 18 15.2239 18 15.5V16.5C18 16.7761 18.2239 17 18.5 17H19.5Z" fill="currentColor" fill-rule="evenodd" clip-rule="evenodd" />
</svg>
