<svg xmlns="http://www.w3.org/2000/svg" viewBox="0 0 24 24">
    <path d="M19.0001 4V15.29L7.41005 3.64L8.41005 2.59C8.78585 2.21196 9.29701 1.99958 9.83005 2H17.0001C18.1046 2 19.0001 2.89543 19.0001 4ZM20.8501 20.32C20.9467 20.2293 21.0016 20.1026 21.0016 19.97C21.0016 19.8374 20.9467 19.7107 20.8501 19.62L4.38005 3.15C4.28932 3.05332 4.16264 2.99848 4.03005 2.99848C3.89747 2.99848 3.77079 3.05332 3.68005 3.15L3.15005 3.68C3.05338 3.77073 2.99854 3.89741 2.99854 4.03C2.99854 4.16259 3.05338 4.28927 3.15005 4.38L4.88005 6.12L3.59005 7.41C3.21201 7.7858 2.99963 8.29696 3.00005 8.83V20C3.00005 21.1046 3.89548 22 5.00005 22H17.0001C18.0241 22.0062 18.8874 21.2379 19.0001 20.22L19.6401 20.85C19.7308 20.9467 19.8575 21.0015 19.9901 21.0015C20.1226 21.0015 20.2493 20.9467 20.3401 20.85L20.8501 20.32ZM8.00005 18.5C8.00005 18.7761 7.7762 19 7.50005 19H6.50005C6.22391 19 6.00005 18.7761 6.00005 18.5V16.5C6.00005 16.2239 6.22391 16 6.50005 16H7.50005C7.7762 16 8.00005 16.2239 8.00005 16.5V18.5ZM7.50005 14C7.7762 14 8.00005 13.7761 8.00005 13.5V11.5C8.00005 11.2239 7.7762 11 7.50005 11H6.50005C6.22391 11 6.00005 11.2239 6.00005 11.5V13.5C6.00005 13.7761 6.22391 14 6.50005 14H7.50005ZM12.0001 18.5C12.0001 18.7761 11.7762 19 11.5001 19H10.5001C10.2239 19 10.0001 18.7761 10.0001 18.5V17.5C10.0001 17.2239 10.2239 17 10.5001 17H11.5001C11.7762 17 12.0001 17.2239 12.0001 17.5V18.5ZM10.5001 15H11.5001C11.7762 15 12.0001 14.7761 12.0001 14.5V13.29L10.0501 11.29C10.017 11.355 9.99983 11.427 10.0001 11.5V14.5C10.0001 14.7761 10.2239 15 10.5001 15ZM16.0001 18.5C16.0001 18.7761 15.7762 19 15.5001 19H14.5001C14.2239 19 14.0001 18.7761 14.0001 18.5V16.5C14.0001 16.2239 14.2239 16 14.5001 16H14.7601L16.0001 17.24V18.5Z" fill="currentColor" fill-rule="evenodd" clip-rule="evenodd" />
</svg>
