<svg xmlns="http://www.w3.org/2000/svg" viewBox="0 0 24 24">
    <path d="M18 2H10.83C10.297 1.99958 9.7858 2.21196 9.41 2.59L4.59 7.41C4.21196 7.7858 3.99958 8.29696 4 8.83V20C4 21.1046 4.89543 22 6 22H18C19.1046 22 20 21.1046 20 20V4C20 2.89543 19.1046 2 18 2ZM9 18.5C9 18.7761 8.77614 19 8.5 19H7.5C7.22386 19 7 18.7761 7 18.5V16.5C7 16.2239 7.22386 16 7.5 16H8.5C8.77614 16 9 16.2239 9 16.5V18.5ZM8.5 14C8.77614 14 9 13.7761 9 13.5V11.5C9 11.2239 8.77614 11 8.5 11H7.5C7.22386 11 7 11.2239 7 11.5V13.5C7 13.7761 7.22386 14 7.5 14H8.5ZM13 18.5C13 18.7761 12.7761 19 12.5 19H11.5C11.2239 19 11 18.7761 11 18.5V17.5C11 17.2239 11.2239 17 11.5 17H12.5C12.7761 17 13 17.2239 13 17.5V18.5ZM12.5 15C12.7761 15 13 14.7761 13 14.5V11.5C13 11.2239 12.7761 11 12.5 11H11.5C11.2239 11 11 11.2239 11 11.5V14.5C11 14.7761 11.2239 15 11.5 15H12.5ZM17 18.5C17 18.7761 16.7761 19 16.5 19H15.5C15.2239 19 15 18.7761 15 18.5V16.5C15 16.2239 15.2239 16 15.5 16H16.5C16.7761 16 17 16.2239 17 16.5V18.5ZM16.5 14C16.7761 14 17 13.7761 17 13.5V11.5C17 11.2239 16.7761 11 16.5 11H15.5C15.2239 11 15 11.2239 15 11.5V13.5C15 13.7761 15.2239 14 15.5 14H16.5Z" fill="currentColor" fill-rule="evenodd" clip-rule="evenodd" />
</svg>
