<svg xmlns="http://www.w3.org/2000/svg" viewBox="0 0 24 24">
    <path d="M7 2H17C18.1046 2 19 2.89543 19 4V20C19 21.1046 18.1046 22 17 22H7C5.89543 22 5 21.1046 5 20V4C5 2.89543 5.89543 2 7 2ZM14 6C14 4.89543 13.1046 4 12 4C10.8954 4 10 4.89543 10 6C10 7.10457 10.8954 8 12 8C13.1046 8 14 7.10457 14 6ZM12 20C9.23858 20 7 17.7614 7 15C7 12.2386 9.23858 10 12 10C14.7614 10 17 12.2386 17 15C17 17.7614 14.7614 20 12 20ZM10 15C10 13.8954 10.8954 13 12 13C13.1046 13 14 13.8954 14 15C14 16.1046 13.1046 17 12 17C10.8954 17 10 16.1046 10 15Z" fill="currentColor" fill-rule="evenodd" clip-rule="evenodd" />
</svg>
