<svg xmlns="http://www.w3.org/2000/svg" viewBox="0 0 24 24">
    <path d="M23.19 3.52C23.3818 3.71781 23.3818 4.03219 23.19 4.23L20.49 7H21C22.1046 7 23 7.89543 23 9V20C23 21.1046 22.1046 22 21 22H3C1.89543 22 1 21.1046 1 20V9C1 7.89543 1.89543 7 3 7H17.17L17.25 1.49C17.2605 1.22 17.4798 1.00509 17.75 1H18.27C18.5402 1.00509 18.7595 1.22 18.77 1.49L18.83 6.37L22.13 3.16C22.3244 2.96943 22.6356 2.96943 22.83 3.16L23.19 3.52ZM16 20C16.5523 20 17 19.5523 17 19V10C17 9.44771 16.5523 9 16 9H4C3.44772 9 3 9.44771 3 10V19C3 19.5523 3.44772 20 4 20H16ZM21 14.5C21 14.7761 20.7761 15 20.5 15H19.5C19.2239 15 19 14.7761 19 14.5V13.5C19 13.2239 19.2239 13 19.5 13H20.5C20.7761 13 21 13.2239 21 13.5V14.5ZM21 9.5C21 9.22386 20.7761 9 20.5 9H19.5C19.2239 9 19 9.22386 19 9.5V10.5C19 10.7761 19.2239 11 19.5 11H20.5C20.7761 11 21 10.7761 21 10.5V9.5Z" fill="currentColor" fill-rule="evenodd" clip-rule="evenodd" />
</svg>
