<svg xmlns="http://www.w3.org/2000/svg" viewBox="0 0 24 24">
    <path d="M15.14 1.84008L15.68 5.08008C17.0379 5.3961 17.9991 6.60591 18 8.00008V16.0001C18.0045 17.3371 17.1236 18.5157 15.84 18.8901L15.3 22.1601C15.2208 22.6491 14.7954 23.0065 14.3 23.0001H10C9.50461 23.0065 9.07923 22.6491 9 22.1601L8.41 18.9401C7.00903 18.6591 6.00067 17.429 6 16.0001V8.00008C6.00089 6.60591 6.96212 5.3961 8.32 5.08008L8.85 1.84008C8.92923 1.35103 9.35461 0.993708 9.85 1.00008H14.14C14.6354 0.993708 15.0608 1.35103 15.14 1.84008ZM15 17.0001C15.5523 17.0001 16 16.5524 16 16.0001V8.00008C16 7.4478 15.5523 7.00008 15 7.00008H9C8.44772 7.00008 8 7.4478 8 8.00008V16.0001C8 16.5524 8.44772 17.0001 9 17.0001H15Z" fill="currentColor" fill-rule="evenodd" clip-rule="evenodd" />
</svg>
