<svg xmlns="http://www.w3.org/2000/svg" viewBox="0 0 24 24">
    <path d="M11 20V13H13V17C13 17.5523 13.4477 18 14 18H18C18.5523 18 19 17.5523 19 17V13H20.5C20.7761 13 21 12.7761 21 12.5V11.5C21 11.2239 20.7761 11 20.5 11H19V7C19 6.44772 18.5523 6 18 6H14C13.4477 6 13 6.44772 13 7V11H11V4C11 3.44772 10.5523 3 10 3H6C5.44772 3 5 3.44772 5 4V11H3.5C3.22386 11 3 11.2239 3 11.5V12.5C3 12.7761 3.22386 13 3.5 13H5V20C5 20.5523 5.44772 21 6 21H10C10.5523 21 11 20.5523 11 20Z" fill="currentColor" />
</svg>
