<svg xmlns="http://www.w3.org/2000/svg" viewBox="0 0 24 24">
    <path d="M7.5 2H8.5C8.77614 2 9 2.22386 9 2.5V5H7V2.5C7 2.22386 7.22386 2 7.5 2ZM5 7H2.5C2.22386 7 2 7.22386 2 7.5V8.5C2 8.77614 2.22386 9 2.5 9H5V7ZM9 22C7.89543 22 7 21.1046 7 20V7.5C7 7.22386 7.22386 7 7.5 7H14.76C15.5554 7.0007 16.3179 7.31723 16.88 7.88L21.12 12.12C21.6828 12.6821 21.9993 13.4446 22 14.24V20C22 21.1046 21.1046 22 20 22H9ZM9 20H20V15H15C14.4477 15 14 14.5523 14 14V9H9V20Z" fill="currentColor" fill-rule="evenodd" clip-rule="evenodd" />
</svg>
