<svg xmlns="http://www.w3.org/2000/svg" viewBox="0 0 24 24">
    <path d="M20 7H18.83C18.297 7.00042 17.7858 6.78804 17.41 6.41L15.88 4.88C15.3179 4.31723 14.5554 4.0007 13.76 4H10.24C9.44462 4.0007 8.68207 4.31723 8.12 4.88L6.59 6.41C6.2142 6.78804 5.70304 7.00042 5.17 7H4C2.89543 7 2 7.89543 2 9V18C2 19.1046 2.89543 20 4 20H20C21.1046 20 22 19.1046 22 18V9C22 7.89543 21.1046 7 20 7ZM12 17C9.79086 17 8 15.2091 8 13C8 10.7909 9.79086 9 12 9C14.2091 9 16 10.7909 16 13C16 14.0609 15.5786 15.0783 14.8284 15.8284C14.0783 16.5786 13.0609 17 12 17ZM12.41 10.75C12.8019 11.5566 13.4534 12.2081 14.26 12.6C14.4099 12.6765 14.5031 12.8317 14.5 13C14.4864 13.1641 14.3822 13.3069 14.23 13.37C13.418 13.7626 12.7626 14.418 12.37 15.23C12.2986 15.3705 12.1574 15.462 12 15.47H11.97C11.8126 15.462 11.6714 15.3705 11.6 15.23C11.2074 14.418 10.552 13.7626 9.74 13.37C9.5995 13.2986 9.50795 13.1574 9.5 13C9.49692 12.8317 9.59009 12.6765 9.74 12.6C10.5466 12.2081 11.1981 11.5566 11.59 10.75C11.6685 10.5957 11.8269 10.4986 12 10.4986C12.1731 10.4986 12.3315 10.5957 12.41 10.75Z" fill="currentColor" fill-rule="evenodd" clip-rule="evenodd" />
</svg>
