<svg xmlns="http://www.w3.org/2000/svg" viewBox="0 0 24 24">
    <path d="M18 8.5C18 8.22386 18.2239 8 18.5 8H19.5C19.7761 8 20 7.77614 20 7.5V6.5C20 6.22386 19.7761 6 19.5 6H16C16 4.89543 15.1046 4 14 4H13V3C13 2.44772 12.5523 2 12 2H8C7.44772 2 7 2.44772 7 3V4H6C4.89543 4 4 4.89543 4 6V20C4 21.1046 4.89543 22 6 22H14C15.1046 22 16 21.1046 16 20H19.5C19.7761 20 20 19.7761 20 19.5V18.5C20 18.2239 19.7761 18 19.5 18H18.5C18.2239 18 18 17.7761 18 17.5V16.5C18 16.2239 18.2239 16 18.5 16H19.5C19.7761 16 20 15.7761 20 15.5V10.5C20 10.2239 19.7761 10 19.5 10H18.5C18.2239 10 18 9.77614 18 9.5V8.5ZM16 8.5V9.5C16 9.77614 15.7761 10 15.5 10H12.5C12.2239 10 12 9.77614 12 9.5V8.5C12 8.22386 12.2239 8 12.5 8H15.5C15.7761 8 16 8.22386 16 8.5ZM8.5 10H9.5C9.77614 10 10 9.77614 10 9.5V8.5C10 8.22386 9.77614 8 9.5 8H8.5C8.22386 8 8 8.22386 8 8.5V9.5C8 9.77614 8.22386 10 8.5 10ZM10 16.5V17.5C10 17.7761 9.77614 18 9.5 18H8.5C8.22386 18 8 17.7761 8 17.5V16.5C8 16.2239 8.22386 16 8.5 16H9.5C9.77614 16 10 16.2239 10 16.5ZM12 17.5C12 17.7761 12.2239 18 12.5 18H15.5C15.7761 18 16 17.7761 16 17.5V16.5C16 16.2239 15.7761 16 15.5 16H12.5C12.2239 16 12 16.2239 12 16.5V17.5Z" fill="currentColor" fill-rule="evenodd" clip-rule="evenodd" />
</svg>
