<svg xmlns="http://www.w3.org/2000/svg" viewBox="0 0 24 24">
    <path d="M21.5 16H21V6C21 4.89543 20.1046 4 19 4H13V2.5C13 2.22386 12.7761 2 12.5 2H11.5C11.2239 2 11 2.22386 11 2.5V4H5C3.89543 4 3 4.89543 3 6V16H2.5C2.22386 16 2 16.2239 2 16.5V17.5C2 17.7761 2.22386 18 2.5 18H7.31L5.14 21.1C5.05078 21.2258 5.00195 21.3758 5 21.53V21.75C5 21.8881 5.11193 22 5.25 22H6.43C6.75722 21.9995 7.06348 21.8389 7.25 21.57L9.75 18H14.25L16.75 21.57C16.9365 21.8389 17.2428 21.9995 17.57 22H18.75C18.8881 22 19 21.8881 19 21.75V21.53C18.998 21.3758 18.9492 21.2258 18.86 21.1L16.69 18H21.5C21.7761 18 22 17.7761 22 17.5V16.5C22 16.2239 21.7761 16 21.5 16ZM19 15.36C19 15.7135 18.7135 16 18.36 16C18.1665 15.996 17.9842 15.9085 17.86 15.76L14.19 11.19C14.0951 11.0717 13.9516 11.0029 13.8 11.0029C13.6484 11.0029 13.5049 11.0717 13.41 11.19L11.12 14.07C11.0253 14.192 10.8795 14.2634 10.725 14.2634C10.5705 14.2634 10.4247 14.192 10.33 14.07L9.33 12.71C9.2335 12.5839 9.08378 12.51 8.925 12.51C8.76622 12.51 8.6165 12.5839 8.52 12.71L6.29 15.71C6.14836 15.8989 5.92607 16.01 5.69 16.01C5.51002 16.0241 5.33245 15.9616 5.20104 15.8378C5.06964 15.714 4.99662 15.5405 5 15.36V6H19V15.36ZM11 9.5C11 10.3284 10.3284 11 9.5 11C8.67157 11 8 10.3284 8 9.5C8 8.67157 8.67157 8 9.5 8C10.3284 8 11 8.67157 11 9.5Z" fill="currentColor" fill-rule="evenodd" clip-rule="evenodd" />
</svg>
