<svg xmlns="http://www.w3.org/2000/svg" viewBox="0 0 24 24">
    <path d="M21.5 16C21.7761 16 22 16.2239 22 16.5V17.5C22 17.7761 21.7761 18 21.5 18H16.69L18.86 21.1C18.9492 21.2258 18.998 21.3758 19 21.53V21.75C19 21.8881 18.8881 22 18.75 22H17.57C17.2428 21.9995 16.9365 21.8389 16.75 21.57L14.25 18H9.75L7.25 21.57C7.06348 21.8389 6.75722 21.9995 6.43 22H5.25C5.11193 22 5 21.8881 5 21.75V21.53C5.00195 21.3758 5.05078 21.2258 5.14 21.1L7.31 18H2.5C2.22386 18 2 17.7761 2 17.5V16.5C2 16.2239 2.22386 16 2.5 16H3V6C3 4.89543 3.89543 4 5 4H11V2.5C11 2.22386 11.2239 2 11.5 2H12.5C12.7761 2 13 2.22386 13 2.5V4H19C20.1046 4 21 4.89543 21 6V16H21.5ZM5 16H19V6H5V16Z" fill="currentColor" fill-rule="evenodd" clip-rule="evenodd" />
</svg>
