<svg xmlns="http://www.w3.org/2000/svg" viewBox="0 0 24 24">
    <path d="M19.7099 3.28939L20.7099 4.28729C20.9072 4.48528 21.0124 4.75674 20.9999 5.03571V6.16334C20.9987 6.42513 20.8946 6.676 20.7099 6.86187L17.2299 10.3346L18.6499 11.7416C18.8404 11.9356 18.8404 12.2461 18.6499 12.4401L17.9399 13.1486C17.846 13.2431 17.7182 13.2962 17.5849 13.2962C17.4515 13.2962 17.3237 13.2431 17.2299 13.1486L16.5299 12.4401L8.82985 20.1239C8.45406 20.5012 7.9429 20.7131 7.40985 20.7127C7.19203 20.7103 6.97599 20.6732 6.76985 20.6029L5.30985 20.104L4.55985 20.8524C4.46597 20.9469 4.33817 21 4.20485 21C4.07153 21 3.94374 20.9469 3.84985 20.8524L3.14985 20.1539C3.0552 20.0602 3.00195 19.9327 3.00195 19.7996C3.00195 19.6666 3.0552 19.5391 3.14985 19.4454L3.89985 18.6969L3.39985 17.24C3.15395 16.5195 3.34013 15.7222 3.87985 15.1843L11.5799 7.50052L10.8699 6.80199C10.7752 6.70831 10.722 6.58078 10.722 6.44774C10.722 6.3147 10.7752 6.18717 10.8699 6.09349L11.5799 5.38498C11.7743 5.19481 12.0854 5.19481 12.2799 5.38498L13.6899 6.80199L17.1699 3.28939C17.3561 3.10503 17.6075 3.0011 17.8699 3H19.0099C19.2722 3.0011 19.5236 3.10503 19.7099 3.28939ZM5.39985 16.4816L7.52985 18.6071L15.1099 11.0231L12.9999 8.9375L5.39985 16.4816Z" fill="currentColor" fill-rule="evenodd" clip-rule="evenodd" />
</svg>
