<svg xmlns="http://www.w3.org/2000/svg" viewBox="0 0 24 24">
    <path d="M11.85 2.00001H12.15C12.3433 1.98936 12.5332 2.05386 12.68 2.18001L14.5 4.00001C17.14 6.64001 20 10.19 20 14C20 18.4183 16.4183 22 12 22C7.58172 22 4 18.4183 4 14C4 10.19 6.86 6.64001 9.5 4.00001L11.32 2.22001C11.4605 2.07931 11.6512 2.00018 11.85 2.00001ZM13.09 5.41001L12 4.33001L10.91 5.41001C7.61 8.72001 6 11.53 6 14C6 17.3137 8.68629 20 12 20C15.3137 20 18 17.3137 18 14C18 11.53 16.39 8.72001 13.09 5.41001Z" fill="currentColor" fill-rule="evenodd" clip-rule="evenodd" />
</svg>
