<svg xmlns="http://www.w3.org/2000/svg" viewBox="0 0 24 24">
    <path d="M12.0001 4.33001L10.9101 5.41001C10.5773 5.74955 10.2768 6.07526 9.98045 6.39654C9.84039 6.54835 9.70125 6.69918 9.56005 6.85001L8.14005 5.43001C8.59005 4.93001 9.05005 4.45001 9.50005 4.00001L11.3201 2.22001C11.4606 2.07931 11.6512 2.00018 11.8501 2.00001H12.1501C12.3433 1.98936 12.5332 2.05386 12.6801 2.18001L14.5001 4.00001C17.1401 6.64001 20.0001 10.19 20.0001 14C20.001 14.95 19.8281 15.8922 19.4901 16.78L17.8801 15.17C17.9606 14.7852 18.0008 14.3931 18.0001 14C18.0001 11.53 16.3901 8.72001 13.0901 5.41001L12.0001 4.33001ZM20.8501 20.62L4.38005 4.15001C4.28932 4.05333 4.16264 3.99849 4.03005 3.99849C3.89747 3.99849 3.77079 4.05333 3.68005 4.15001L3.15005 4.68001C3.05338 4.77074 2.99854 4.89742 2.99854 5.03001C2.99854 5.16259 3.05338 5.28927 3.15005 5.38001L6.00005 8.22001C4.78934 9.91318 4.09471 11.9207 4.00005 14C4.00442 17.2015 5.91698 20.092 8.86183 21.3479C11.8067 22.6037 15.2166 21.983 17.5301 19.77L19.6201 21.85C19.7108 21.9467 19.8375 22.0015 19.9701 22.0015C20.1026 22.0015 20.2293 21.9467 20.3201 21.85L20.8501 21.32C20.9467 21.2293 21.0016 21.1026 21.0016 20.97C21.0016 20.8374 20.9467 20.7107 20.8501 20.62ZM12.0001 20C8.68635 20 6.00005 17.3137 6.00005 14C6.07028 12.4513 6.56876 10.9523 7.44005 9.67001L16.1101 18.35C15.0006 19.404 13.5303 19.9943 12.0001 20Z" fill="currentColor" fill-rule="evenodd" clip-rule="evenodd" />
</svg>
