<svg xmlns="http://www.w3.org/2000/svg" viewBox="0 0 24 24">
    <path d="M9.20439 3.58551C10.4116 5.17811 10.2459 7.41247 8.81677 8.81209L19.8498 19.7729C19.9475 19.8665 20.0019 19.9961 19.9999 20.131V20.4194C19.9999 20.6941 19.7758 20.9167 19.4994 20.9167H17.9976C17.2056 20.924 16.4427 20.6201 15.8751 20.0713L9.86801 14.1035L8.81677 15.1479C10.2671 16.5279 10.4643 18.7616 9.27799 20.3714C8.09165 21.9812 5.88865 22.4691 4.12637 21.5124C2.36409 20.5557 1.58756 18.4503 2.31049 16.5889C3.03342 14.7276 5.03224 13.686 6.98461 14.1533V13.1586C6.98572 12.8977 7.08999 12.6476 7.27496 12.4624L7.74551 11.9949L7.27496 11.5274C7.08999 11.3422 6.98572 11.0921 6.98461 10.8312V9.83656C5.03875 10.3241 3.03011 9.30554 2.28604 7.45398C1.54197 5.60242 2.29223 3.48962 4.04105 2.51175C5.78986 1.53389 7.99719 1.99292 9.20439 3.58551ZM4.86552 19.5748C5.65824 20.1048 6.71744 20.0045 7.3951 19.3353C7.77113 18.9639 7.98356 18.4596 7.98579 17.9329C7.98982 16.9836 7.31818 16.1638 6.38177 15.975C5.44536 15.7861 4.50512 16.2809 4.13629 17.1566C3.76745 18.0323 4.0728 19.0449 4.86552 19.5748ZM7.3951 7.39972C6.90574 7.96741 6.13738 8.21468 5.40592 8.03988C4.67445 7.86508 4.10334 7.29771 3.92739 6.57103C3.75144 5.84435 4.00035 5.08102 4.57177 4.59486C5.06113 4.02717 5.82949 3.7799 6.56095 3.9547C7.29242 4.1295 7.86353 4.69687 8.03948 5.42355C8.21543 6.15023 7.96652 6.91356 7.3951 7.39972ZM17.9976 3.0134H19.4994C19.7758 3.0134 19.9999 3.23605 19.9999 3.51071V3.79916C20.0019 3.93401 19.9475 4.06365 19.8498 4.15722L13.222 10.7317L11.0995 8.62311L15.8751 3.88867C16.4378 3.32892 17.2013 3.01409 17.9976 3.0134ZM19.4994 10.9704H18.4982C18.2217 10.9704 17.9976 11.1931 17.9976 11.4678V12.4624C17.9976 12.737 18.2217 12.9597 18.4982 12.9597H19.4994C19.7758 12.9597 19.9999 12.737 19.9999 12.4624V11.4678C19.9999 11.1931 19.7758 10.9704 19.4994 10.9704ZM15.9952 11.4678V12.4624C15.9952 12.737 15.7711 12.9597 15.4946 12.9597L13.4923 10.9704H15.4946C15.7711 10.9704 15.9952 11.1931 15.9952 11.4678Z" fill="currentColor" fill-rule="evenodd" clip-rule="evenodd" />
</svg>
