<svg xmlns="http://www.w3.org/2000/svg" viewBox="0 0 24 24">
    <path d="M20.5 19H16.31L14.31 21H20.5C20.7761 21 21 20.7761 21 20.5V19.5C21 19.2238 20.7761 19 20.5 19Z" fill="currentColor" />
    <path d="M14.7324 3.58999L20.3692 9.23999C20.7646 9.6115 20.9923 10.1283 20.9998 10.6715C21.0073 11.2147 20.7941 11.7376 20.4091 12.12L12.3779 20.12C11.8172 20.6828 11.0564 20.9993 10.2629 21H7.98827C7.19475 20.9993 6.43399 20.6828 5.87324 20.12L3.87794 18.12C3.31649 17.5579 3.0007 16.7954 3 16V13.76C3.01384 12.9574 3.34803 12.1938 3.92782 11.64L11.909 3.58999C12.2833 3.21444 12.7912 3.00342 13.3207 3.00342C13.8503 3.00342 14.3582 3.21444 14.7324 3.58999ZM10.223 19C10.4847 18.9989 10.7355 18.8947 10.9214 18.71L13.9742 15.61L8.37735 9.99999L5.28463 13.06C5.10032 13.2463 4.99641 13.4977 4.99531 13.76V16C4.99641 16.2672 5.1042 16.5229 5.2946 16.71L7.28991 18.71C7.47574 18.8947 7.72654 18.9989 7.98827 19H10.223Z" fill="currentColor" fill-rule="evenodd" clip-rule="evenodd" />
</svg>
