<svg xmlns="http://www.w3.org/2000/svg" viewBox="0 0 24 24">
    <path d="M5 3H19C20.1046 3 21 3.89543 21 5V19C21 20.1046 20.1046 21 19 21H5C3.89543 21 3 20.1046 3 19V5C3 3.89543 3.89543 3 5 3ZM17.5 16.88C17.7761 16.88 18 16.6561 18 16.38V15.62C18 15.3439 17.7761 15.12 17.5 15.12H12.5C12.2239 15.12 12 15.3439 12 15.62V16.38C12 16.6561 12.2239 16.88 12.5 16.88H17.5ZM5 19V5H19L5 19ZM8.12 9.88H6.5C6.22386 9.88 6 9.65614 6 9.38V8.62C6 8.34386 6.22386 8.12 6.5 8.12H8.12V6.5C8.12 6.22386 8.34386 6 8.62 6H9.38C9.65614 6 9.88 6.22386 9.88 6.5V8.12H11.5C11.7761 8.12 12 8.34386 12 8.62V9.38C12 9.65614 11.7761 9.88 11.5 9.88H9.88V11.5C9.88 11.7761 9.65614 12 9.38 12H8.62C8.34386 12 8.12 11.7761 8.12 11.5V9.88Z" fill="currentColor" fill-rule="evenodd" clip-rule="evenodd" />
</svg>
