<svg xmlns="http://www.w3.org/2000/svg" viewBox="0 0 24 24">
    <path d="M18.0201 9.55378C18.1556 9.79268 18.1556 10.0853 18.0201 10.3242L16.5101 12.8054L10.3201 6.6023L12.9201 2.36018C13.0574 2.13813 13.2991 2.00214 13.5601 2H13.7601C13.9001 2.00026 14.0339 2.05815 14.1301 2.16008C14.2257 2.26241 14.273 2.40078 14.2601 2.54027L13.6901 9.0035H17.2601C17.5191 9.00348 17.7603 9.13546 17.9001 9.35368L18.0201 9.55378ZM19.3201 19.8589L19.8501 19.3287C19.9467 19.2379 20.0016 19.1111 20.0016 18.9785C20.0016 18.8458 19.9467 18.7191 19.8501 18.6283L5.38005 4.15108C5.28932 4.05435 5.16264 3.99948 5.03005 3.99948C4.89747 3.99948 4.77079 4.05435 4.68005 4.15108L4.15005 4.68134C4.05338 4.77212 3.99854 4.89886 3.99854 5.03152C3.99854 5.16417 4.05338 5.29091 4.15005 5.38169L8.45005 9.65383L6.00005 13.6558C5.86454 13.8947 5.86454 14.1873 6.00005 14.4262L6.09005 14.6263C6.22434 14.8591 6.47146 15.0036 6.74005 15.0065H10.3101L9.73005 21.4597C9.7171 21.5992 9.76442 21.7376 9.86005 21.8399C9.95618 21.9419 10.09 21.9997 10.2301 22H10.4301C10.6911 21.9979 10.9327 21.8619 11.0701 21.6398L14.6201 15.8569L18.6201 19.8589C18.7108 19.9557 18.8375 20.0105 18.9701 20.0105C19.1026 20.0105 19.2293 19.9557 19.3201 19.8589Z" fill="currentColor" fill-rule="evenodd" clip-rule="evenodd" />
</svg>
