<svg xmlns="http://www.w3.org/2000/svg" viewBox="0 0 24 24">
    <path d="M19.42 14H21C21.5523 14 22 14.4477 22 15V19C22 19.5523 21.5523 20 21 20H17C16.4477 20 16 19.5523 16 19V18H8V19C8 19.5523 7.55228 20 7 20H3C2.44772 20 2 19.5523 2 19V15C2 14.4477 2.44772 14 3 14H4.58L5.38 10H5C4.44772 10 4 9.55228 4 9V5C4 4.44772 4.44772 4 5 4H9C9.55228 4 10 4.44772 10 5V6H14V5C14 4.44772 14.4477 4 15 4H19C19.5523 4 20 4.44772 20 5V9C20 9.55228 19.5523 10 19 10H18.62L19.42 14ZM18 6H16V8H18V6ZM6 6H8V8H6V6ZM4 16V18H6V16H4ZM16 15V16H8V15C8 14.4477 7.55228 14 7 14H6.62L7.42 10H9C9.55228 10 10 9.55228 10 9V8H14V9C14 9.55228 14.4477 10 15 10H16.58L17.38 14H17C16.4477 14 16 14.4477 16 15ZM18 16V18H20V16H18Z" fill="currentColor" fill-rule="evenodd" clip-rule="evenodd" />
</svg>
