<svg xmlns="http://www.w3.org/2000/svg" viewBox="0 0 24 24">
    <path d="M3 6H5.5C5.77614 6 6 6.22386 6 6.5V7.5C6 7.77614 5.77614 8 5.5 8H3V10.5C3 10.7761 2.77614 11 2.5 11H1.5C1.22386 11 1 10.7761 1 10.5V8C1 6.89543 1.89543 6 3 6ZM23 10.5V8C23 6.89543 22.1046 6 21 6H18.5C18.2239 6 18 6.22386 18 6.5V7.5C18 7.77614 18.2239 8 18.5 8H21V10.5C21 10.7761 21.2239 11 21.5 11H22.5C22.7761 11 23 10.7761 23 10.5ZM22.5 13H21.5C21.2239 13 21 13.2239 21 13.5V16H18.5C18.2239 16 18 16.2239 18 16.5V17.5C18 17.7761 18.2239 18 18.5 18H21C22.1046 18 23 17.1046 23 16V13.5C23 13.2239 22.7761 13 22.5 13ZM3 16H5.5C5.77614 16 6 16.2239 6 16.5V17.5C6 17.7761 5.77614 18 5.5 18H3C1.89543 18 1 17.1046 1 16V13.5C1 13.2239 1.22386 13 1.5 13H2.5C2.77614 13 3 13.2239 3 13.5V16Z" fill="currentColor" fill-rule="evenodd" clip-rule="evenodd" />
</svg>
