<svg xmlns="http://www.w3.org/2000/svg" viewBox="0 0 24 24">
    <path d="M19 3H5C3.89543 3 3 3.89543 3 5V19C3 20.1046 3.89543 21 5 21H19C20.1046 21 21 20.1046 21 19V5C21 3.89543 20.1046 3 19 3ZM19 5V12H17V10.25C17 10.1119 16.8881 10 16.75 10H15.25C15.1119 10 15 10.1119 15 10.25V12H13V10.25C13 10.1119 12.8881 10 12.75 10H11.25C11.1119 10 11 10.1119 11 10.25V12H9V10.25C9 10.1119 8.88807 10 8.75 10H7.25C7.11193 10 7 10.1119 7 10.25V12H5V5H19ZM7 12V14H9V12H7ZM11 12V14H13V12H11ZM15 12V14H17V12H15Z" fill="currentColor" fill-rule="evenodd" clip-rule="evenodd" />
</svg>
