<svg xmlns="http://www.w3.org/2000/svg" viewBox="0 0 24 24">
    <path d="M8 5C6.89543 5 6 5.89543 6 7C6 8.10457 6.89543 9 8 9C9.10457 9 10 8.10457 10 7C10 5.89543 9.10457 5 8 5ZM15.8 8.73L21.8 16.73C21.9298 16.9031 22 17.1136 22 17.33V18.25C21.9946 18.662 21.662 18.9946 21.25 19H2.75C2.33804 18.9946 2.00539 18.662 2 18.25V17.34C2.00069 17.1191 2.07453 16.9045 2.21 16.73L6.46 11.24C6.60235 11.0626 6.81753 10.9593 7.045 10.9593C7.27247 10.9593 7.48765 11.0626 7.63 11.24L9.82 13.9C9.9149 14.0183 10.0584 14.0871 10.21 14.0871C10.3616 14.0871 10.5051 14.0183 10.6 13.9L14.6 8.73C14.744 8.5448 14.9654 8.43648 15.2 8.43648C15.4346 8.43648 15.656 8.5448 15.8 8.73Z" fill="currentColor" fill-rule="evenodd" clip-rule="evenodd" />
</svg>
