<svg xmlns="http://www.w3.org/2000/svg" viewBox="0 0 24 24">
    <path d="M16.5 6H15.67C15.2427 5.99743 14.861 6.26664 14.72 6.67L11.4 16.34C11.3487 16.492 11.3734 16.6594 11.4664 16.79C11.5595 16.9207 11.7096 16.9988 11.87 17H12.5C12.7761 17 13 17.2239 13 17.5V18.5C13 18.7761 12.7761 19 12.5 19H7.5C7.22386 19 7 18.7761 7 18.5V17.5C7 17.2239 7.22386 17 7.5 17H8.33C8.75729 17.0026 9.139 16.7334 9.28 16.33L12.6 6.66C12.6519 6.50634 12.6261 6.33705 12.5307 6.20587C12.4353 6.0747 12.2822 5.99795 12.12 6H11.5C11.2239 6 11 5.77614 11 5.5V4.5C11 4.22386 11.2239 4 11.5 4H16.5C16.7761 4 17 4.22386 17 4.5V5.5C17 5.77614 16.7761 6 16.5 6Z" fill="currentColor" />
</svg>
