<svg xmlns="http://www.w3.org/2000/svg" viewBox="0 0 24 24">
    <path d="M10.67 3C11.203 2.99958 11.7142 3.21196 12.09 3.59L19.71 11.21C19.8947 11.3963 19.9989 11.6477 20 11.91V12.09C19.9989 12.3523 19.8947 12.6037 19.71 12.79L12.09 20.41C11.7142 20.788 11.203 21.0004 10.67 21H4C3.44772 21 3 20.5523 3 20V18.51C3.00149 18.1881 3.1578 17.8867 3.42 17.7L6.74 15.33C7.53233 14.7659 8.00199 13.8526 8 12.88V11.12C8.00199 10.1474 7.53233 9.23413 6.74 8.67L3.42 6.3C3.1578 6.11332 3.00149 5.81186 3 5.49V4C3 3.44772 3.44772 3 4 3H10.67Z" fill="currentColor" />
</svg>
