<svg xmlns="http://www.w3.org/2000/svg" viewBox="0 0 24 24">
    <path d="M19.58 6.3L16.26 8.67C15.4677 9.23413 14.998 10.1474 15 11.12V12.88C14.998 13.8526 15.4677 14.7659 16.26 15.33L19.58 17.7C19.8422 17.8867 19.9985 18.1881 20 18.51V20C20 20.5523 19.5523 21 19 21H5C4.44772 21 4 20.5523 4 20V18.51C4.00149 18.1881 4.1578 17.8867 4.42 17.7L7.74 15.33C8.53233 14.7659 9.00199 13.8526 9 12.88V11.12C9.00199 10.1474 8.53233 9.23413 7.74 8.67L4.42 6.3C4.1578 6.11332 4.00149 5.81186 4 5.49V4C4 3.44772 4.44772 3 5 3H19C19.5523 3 20 3.44772 20 4V5.49C19.9985 5.81186 19.8422 6.11332 19.58 6.3Z" fill="currentColor" />
</svg>
