<svg xmlns="http://www.w3.org/2000/svg" viewBox="0 0 24 24">
    <path d="M19 3C19.5523 3 20 3.44772 20 4V5.49C19.9985 5.81186 19.8422 6.11332 19.58 6.3L16.26 8.67C15.4677 9.23413 14.998 10.1474 15 11.12V12.88C14.998 13.8526 15.4677 14.7659 16.26 15.33L19.58 17.7C19.8422 17.8867 19.9985 18.1881 20 18.51V20C20 20.5523 19.5523 21 19 21H12.33C11.797 21.0004 11.2858 20.788 10.91 20.41L3.29 12.79C3.10526 12.6037 3.0011 12.3523 3 12.09V11.91C3.0011 11.6477 3.10526 11.3963 3.29 11.21L10.91 3.59C11.2858 3.21196 11.797 2.99958 12.33 3H19Z" fill="currentColor" />
</svg>
