<svg xmlns="http://www.w3.org/2000/svg" viewBox="0 0 24 24">
    <path d="M12 2C6.49 2 2 6 2 11C2.05616 13.907 3.55588 16.5952 6 18.17C5.91148 19.2077 5.04145 20.0038 4 20H2.5C2.22386 20 2 20.2239 2 20.5V21.5C2 21.7761 2.22386 22 2.5 22H4C5.41328 21.9844 6.7134 21.2241 7.42 20C8.912 21.3239 11.158 21.3239 12.65 20C17.86 19.69 22 15.79 22 11C22 6 17.51 2 12 2ZM11.72 18H11C10.4477 18 10 18.4477 10 19C9.09369 19.0055 8.29698 18.4008 8.05844 17.5264C7.8199 16.652 8.19916 15.7266 8.98269 15.271C9.76622 14.8155 10.7581 14.9438 11.4 15.5837C12.0418 16.2236 12.1731 17.2151 11.72 18ZM10.9837 13.2146C13.0033 13.7378 14.2816 15.7253 13.92 17.78C17.41 17 20 14.28 20 11C20 7.14 16.41 4 12 4C7.59 4 4 7.14 4 11C4.03173 12.8311 4.82976 14.565 6.2 15.78C6.88155 13.8082 8.9641 12.6914 10.9837 13.2146Z" fill="currentColor" fill-rule="evenodd" clip-rule="evenodd" />
</svg>
