<svg xmlns="http://www.w3.org/2000/svg" viewBox="0 0 24 24">
    <path d="M4.03005 2.99847C4.16264 2.99847 4.28932 3.05332 4.38005 3.14999L20.8501 19.62C20.9467 19.7107 21.0016 19.8374 21.0016 19.97C21.0016 20.1026 20.9467 20.2293 20.8501 20.32L20.3201 20.85C20.2293 20.9467 20.1026 21.0015 19.9701 21.0015C19.8375 21.0015 19.7108 20.9467 19.6201 20.85L16.9101 18.15L13.1101 20.74C12.8626 20.9092 12.5698 20.9998 12.2701 21H11.7301C11.4303 20.9998 11.1375 20.9092 10.8901 20.74L3.22005 15.49C3.08237 15.3991 2.99968 15.245 3.00005 15.08V14.92C2.99968 14.755 3.08237 14.6009 3.22005 14.51L5.33005 13.06L7.06005 14.27L6.00005 15L11.8901 19H12.1101L15.4701 16.71L13.3401 14.58L13.1101 14.74C12.8626 14.9092 12.5698 14.9998 12.2701 15H11.7301C11.4303 14.9998 11.1375 14.9092 10.8901 14.74L3.22005 9.48999C3.08237 9.39908 2.99968 9.24498 3.00005 9.07999V8.91999C2.99968 8.755 3.08237 8.6009 3.22005 8.50999L5.63005 6.86999L3.15005 4.37999C3.05338 4.28926 2.99854 4.16258 2.99854 4.02999C2.99854 3.89741 3.05338 3.77073 3.15005 3.67999L3.68005 3.14999C3.77079 3.05332 3.89747 2.99847 4.03005 2.99847ZM21.0001 8.91999V9.07999C21.0004 9.24498 20.9177 9.39908 20.7801 9.48999L16.2801 12.57L8.56005 4.84999L10.8901 3.25999C11.1375 3.0908 11.4303 3.00018 11.7301 2.99999H12.2701C12.5698 3.00018 12.8626 3.0908 13.1101 3.25999L20.7801 8.50999C20.9177 8.60091 21.0004 8.755 21.0001 8.91999ZM18.6701 13.06L17.5401 13.83L19.8401 16.13L20.7801 15.49C20.9177 15.3991 21.0004 15.245 21.0001 15.08V14.92C21.0004 14.755 20.9177 14.6009 20.7801 14.51L18.6701 13.06Z" fill="currentColor" fill-rule="evenodd" clip-rule="evenodd" />
</svg>
