<svg xmlns="http://www.w3.org/2000/svg" viewBox="0 0 24 24">
    <path d="M16.65 8.16C17.3579 8.32933 18.0335 8.61306 18.65 9C18.7955 9.08245 18.8901 9.23216 18.9022 9.39894C18.9142 9.56572 18.8421 9.72748 18.71 9.83L17.98 10.56C17.8151 10.7168 17.5662 10.7454 17.37 10.63C17.0518 10.4511 16.7169 10.3037 16.37 10.19L16 10.11V14.04C16 15.1446 15.1046 16.04 14 16.04H10.1C10.18 16.16 10.18 16.29 10.18 16.41C10.2937 16.7569 10.4411 17.0918 10.62 17.41C10.7354 17.6062 10.7068 17.8551 10.55 18.02L9.82 18.75C9.70916 18.8607 9.55282 18.9131 9.39764 18.8915C9.24245 18.8699 9.10637 18.7768 9.03 18.64C8.64306 18.0235 8.35933 17.3479 8.19 16.64L8.17226 16.5664C8.12686 16.379 8.08 16.1856 8.08 16H4C2.89543 16 2 15.1046 2 14V4C2 2.89543 2.89543 2 4 2H14.01C15.1146 2 16.01 2.89543 16.01 4V8.05C16.0899 8.06141 16.1712 8.08006 16.2529 8.09879C16.3859 8.12929 16.5199 8.16 16.65 8.16ZM14 4H4V14H8C8.14678 13.0571 8.48726 12.1548 9 11.35C9.59564 10.4205 10.4004 9.6431 11.35 9.08C12.1548 8.56726 13.0571 8.22678 14 8.08V4ZM21.32 16H20.32C20.0921 16.0025 19.8947 16.1587 19.84 16.38C19.7263 16.7269 19.5789 17.0618 19.4 17.38C19.2846 17.5762 19.3132 17.8251 19.47 17.99L20.2 18.72C20.3108 18.8307 20.4672 18.8831 20.6224 18.8615C20.7775 18.8399 20.9136 18.7468 20.99 18.61C21.3769 17.9935 21.6607 17.3179 21.83 16.61C21.8645 16.4579 21.826 16.2984 21.726 16.1788C21.6259 16.0591 21.4758 15.993 21.32 16ZM12.62 19.37C12.9382 19.5489 13.2731 19.6963 13.62 19.81C13.8604 19.8589 14.0298 20.0749 14.02 20.32V21.32C14.0191 21.4751 13.9464 21.6209 13.823 21.7149C13.6997 21.8089 13.5397 21.8403 13.39 21.8C12.6821 21.6307 12.0065 21.3469 11.39 20.96C11.2532 20.8836 11.1601 20.7476 11.1385 20.5924C11.1169 20.4372 11.1693 20.2808 11.28 20.17L12.01 19.44C12.1749 19.2832 12.4238 19.2546 12.62 19.37ZM19.81 13.62C19.8647 13.8413 20.0621 13.9975 20.29 14H21.29C21.4451 13.9991 21.5909 13.9264 21.6849 13.803C21.7789 13.6797 21.8103 13.5197 21.77 13.37C21.6007 12.6621 21.3169 11.9865 20.93 11.37C20.8536 11.2332 20.7176 11.1401 20.5624 11.1185C20.4072 11.0969 20.2508 11.1493 20.14 11.26L19.41 11.99C19.2532 12.1549 19.2246 12.4038 19.34 12.6C19.5305 12.9234 19.6879 13.2651 19.81 13.62ZM17.39 19.37C17.5862 19.2546 17.8351 19.2832 18 19.44L18.75 20.14C18.8607 20.2508 18.9131 20.4072 18.8915 20.5624C18.8699 20.7176 18.7768 20.8536 18.64 20.93C18.0235 21.3169 17.3479 21.6007 16.64 21.77C16.4903 21.8103 16.3303 21.7789 16.207 21.6849C16.0836 21.5909 16.0109 21.4451 16.01 21.29V20.29C16.0125 20.0621 16.1687 19.8647 16.39 19.81C16.7369 19.6963 17.0718 19.5489 17.39 19.37Z" fill="currentColor" fill-rule="evenodd" clip-rule="evenodd" />
</svg>
