<svg xmlns="http://www.w3.org/2000/svg" viewBox="0 0 24 24">
    <path d="M2.29883 3.66667L2.29883 2.33333C2.29883 2.14924 2.41688 2 2.5625 2H4.33333H5.41016H5.66667C5.85076 2 6 2.11805 6 2.26367L6 9H7.36133C7.50695 9 7.625 9.14924 7.625 9.33333V10.6667C7.625 10.8508 7.50695 11 7.36133 11H5.66667H4.33333H2.26367C2.11805 11 2 10.8508 2 10.6667V9.33333C2 9.14924 2.11805 9 2.26367 9H4L4 4H2.5625C2.41688 4 2.29883 3.85076 2.29883 3.66667ZM21.1042 13H19.7708C19.6157 13 19.4853 13.0839 19.4481 13.1974C19.4246 13.216 19.4015 13.2387 19.3789 13.2663L16.2636 17L16.2635 17.0017C16.2238 17.0063 16.1865 17.0199 16.1531 17.0405C16.0619 17.0971 16 17.207 16 17.3333V18.6667C16 18.8508 16.1314 19 16.2936 19H19.4375V21.7363C19.4375 21.882 19.5867 22 19.7708 22H21.1042C21.2883 22 21.4375 21.882 21.4375 21.7363V19H21.7064C21.8686 19 22 18.8508 22 18.6667V17.3333C22 17.1492 21.8686 17 21.7064 17H21.4375V13.2637C21.4375 13.118 21.2883 13 21.1042 13ZM19.4375 17V15.9547L18.5812 17H19.4375ZM11 11.3333V12.6667C11 12.8508 11.0322 13 11.072 13H14.928C14.9678 13 15 12.8508 15 12.6667V11.3333C15 11.1492 14.9678 11 14.928 11H11.072C11.0322 11 11 11.1492 11 11.3333Z" fill="currentColor" fill-rule="evenodd" clip-rule="evenodd" />
</svg>
