<svg xmlns="http://www.w3.org/2000/svg" viewBox="0 0 24 24">
    <path d="M7 5.66667V4.33333C7 4.14924 7.20987 4 7.46875 4H11.3333H12.5312H12.6667C12.7503 4 12.8267 4.04329 12.8852 4.11479C12.9567 4.17331 13 4.24973 13 4.33333V4.46875V5.66667C13 5.66671 13 5.66676 13 5.6668L13 18H16.5312C16.7901 18 17 18.1492 17 18.3333V19.6667C17 19.8508 16.7901 20 16.5312 20H12.6667H11.3333H7.46875C7.20987 20 7 19.8508 7 19.6667V18.3333C7 18.1492 7.20987 18 7.46875 18H11L11 6H7.46875C7.20987 6 7 5.85076 7 5.66667Z" fill="currentColor" fill-rule="evenodd" clip-rule="evenodd" />
</svg>
