<svg xmlns="http://www.w3.org/2000/svg" viewBox="0 0 24 24">
    <path d="M2 12.55V14.31C2.00035 14.7077 2.15862 15.089 2.44 15.37L8.63 21.56C8.91103 21.8414 9.29231 21.9996 9.69 22H10.45C10.8477 21.9996 11.229 21.8414 11.51 21.56L19.84 13.23C20.2277 12.84 20.2277 12.21 19.84 11.82L10.19 2.15C10.0946 2.05428 9.96513 2.00033 9.83 2C9.69812 2.00188 9.57232 2.05579 9.48 2.15L8.77 2.85C8.57822 3.04781 8.57822 3.36219 8.77 3.56L9.57 4.36L2.44 11.49C2.15862 11.771 2.00035 12.1523 2 12.55ZM11 5.78L17.19 12H4.76L11 5.78ZM19.54 16H19.48C19.3793 15.9968 19.2829 16.0413 19.22 16.12C19.1899 16.1529 19.1587 16.1868 19.1266 16.2219C18.3467 17.0718 17 18.5396 17 19.5C17 20.8807 18.1193 22 19.5 22C20.8807 22 22 20.8807 22 19.5C22 18.5838 20.7064 17.1431 19.9251 16.2731C19.8707 16.2125 19.8188 16.1547 19.77 16.1C19.7095 16.0377 19.6268 16.0018 19.54 16Z" fill="currentColor" fill-rule="evenodd" clip-rule="evenodd" />
</svg>
