<svg xmlns="http://www.w3.org/2000/svg" viewBox="0 0 24 24">
    <path d="M22 5.00004H21.44C21.1471 4.99872 20.855 5.03229 20.57 5.10004L18.07 5.65004C16.0769 6.09228 14.0416 6.31693 12 6.32004C9.95839 6.31693 7.92314 6.09228 5.93 5.65004L3.43 5.10004C3.145 5.03229 2.85294 4.99872 2.56 5.00004H2C1.44772 5.00004 1 5.44775 1 6.00004V18C1 18.5523 1.44772 19 2 19H2.56C2.85294 19.0014 3.145 18.9678 3.43 18.9L5.93 18.35C9.93075 17.4568 14.0792 17.4568 18.08 18.35L20.57 18.9C20.855 18.9678 21.1471 19.0014 21.44 19H22C22.5523 19 23 18.5523 23 18V6.00004C23 5.44775 22.5523 5.00004 22 5.00004ZM21 16C21.0001 16.226 20.897 16.4396 20.72 16.58C20.5429 16.7215 20.3119 16.7765 20.09 16.73L19.63 16.63C19.1614 16.5254 18.7461 16.2556 18.46 15.87L16.07 12.7C15.9756 12.5741 15.8274 12.5 15.67 12.5C15.5126 12.5 15.3644 12.5741 15.27 12.7L14.27 14.06C14.1753 14.1821 14.0295 14.2535 13.875 14.2535C13.7205 14.2535 13.5747 14.1821 13.48 14.06L11.17 11.18C11.0751 11.0618 10.9316 10.9929 10.78 10.9929C10.6284 10.9929 10.4849 11.0618 10.39 11.18L8.09 14.07C7.99327 14.1923 7.84592 14.2637 7.69 14.2637C7.53408 14.2637 7.38673 14.1923 7.29 14.07L6.29 12.71C6.1935 12.5839 6.04378 12.51 5.885 12.51C5.72622 12.51 5.5765 12.5839 5.48 12.71L3.89 14.81C3.79767 14.9319 3.65284 15.0024 3.5 15C3.36657 15.0028 3.23778 14.951 3.14341 14.8566C3.04904 14.7623 2.99725 14.6335 3 14.5V7.05004L5.49 7.60004C7.62685 8.07915 9.8101 8.32061 12 8.32004C14.1899 8.32061 16.3732 8.07915 18.51 7.60004L21 7.05004V16ZM17.2576 11.899C16.7912 11.6993 16.4919 11.2374 16.5 10.73V10.75C16.5 10.0597 17.0596 9.50004 17.75 9.50004C18.2574 9.5001 18.7144 9.80686 18.9066 10.2764C19.0989 10.746 18.9882 11.2852 18.6266 11.641C18.2649 11.9969 17.724 12.0988 17.2576 11.899Z" fill="currentColor" fill-rule="evenodd" clip-rule="evenodd" />
</svg>
