<svg xmlns="http://www.w3.org/2000/svg" viewBox="0 0 24 24">
    <path d="M21.44 5.00004H22C22.5523 5.00004 23 5.44775 23 6.00004V18C23 18.5523 22.5523 19 22 19H21.44C21.1471 19.0014 20.855 18.9678 20.57 18.9L18.08 18.35C14.0792 17.4568 9.93075 17.4568 5.93 18.35L3.43 18.9C3.145 18.9678 2.85294 19.0014 2.56 19H2C1.44772 19 1 18.5523 1 18V6.00004C1 5.44775 1.44772 5.00004 2 5.00004H2.56C2.85294 4.99872 3.145 5.03229 3.43 5.10004L5.93 5.65004C7.92314 6.09228 9.95839 6.31693 12 6.32004C14.0416 6.31693 16.0769 6.09228 18.07 5.65004L20.57 5.10004C20.855 5.03229 21.1471 4.99872 21.44 5.00004ZM3 17L5.49 16.4C6 16.29 6.5 16.19 7 16.11V7.89004C6.49 7.81004 5.99 7.71004 5.49 7.60004L3 7.05004V17ZM9 15.84V8.16004C10 8.26004 11 8.32004 12 8.32004C13 8.32004 14 8.26004 15 8.16004V15.84C14 15.74 13 15.68 12 15.68C11 15.68 10 15.74 9 15.84ZM18.51 16.45L21 17V7.05004L18.51 7.60004C18 7.71004 17.51 7.81004 17 7.89004V16.16C17.51 16.24 18.01 16.34 18.51 16.45Z" fill="currentColor" fill-rule="evenodd" clip-rule="evenodd" />
</svg>
