<svg xmlns="http://www.w3.org/2000/svg" viewBox="0 0 24 24">
    <path d="M21.44 5.05004H22V5.00004C22.5523 5.00004 23 5.44775 23 6.00004V18C23 18.5523 22.5523 19 22 19H21.44C21.1471 19.0014 20.855 18.9678 20.57 18.9L18.08 18.35C14.0792 17.4568 9.93075 17.4568 5.93 18.35L3.43 18.9C3.145 18.9678 2.85294 19.0014 2.56 19H2C1.44772 19 1 18.5523 1 18V6.00004C1 5.44775 1.44772 5.00004 2 5.00004H2.56C2.85294 4.99872 3.145 5.03229 3.43 5.10004L5.93 5.65004C7.92314 6.09228 9.95839 6.31693 12 6.32004C14.0398 6.33336 16.075 6.12548 18.07 5.70004L20.57 5.15004C20.855 5.08229 21.1471 5.04872 21.44 5.05004ZM21 17V7.05004L18.51 7.60004C16.3732 8.07915 14.1899 8.32061 12 8.32004C9.8101 8.32061 7.62685 8.07915 5.49 7.60004L3 7.05004V17L5.51 16.45C9.79049 15.493 14.2295 15.493 18.51 16.45L21 17Z" fill="currentColor" fill-rule="evenodd" clip-rule="evenodd" />
</svg>
