<svg xmlns="http://www.w3.org/2000/svg" viewBox="0 0 24 24">
    <path d="M16 2H4C2.89543 2 2 2.89543 2 4V16C2 17.1046 2.89543 18 4 18H16C17.1046 18 18 17.1046 18 16V4C18 2.89543 17.1046 2 16 2ZM16 16H4V4H16V16ZM6 20H8.5C8.77614 20 9 20.2239 9 20.5V21.5C9 21.7761 8.77614 22 8.5 22H8C6.89543 22 6 21.1046 6 20ZM12.5 20H11.5C11.2239 20 11 20.2239 11 20.5V21.5C11 21.7761 11.2239 22 11.5 22H12.5C12.7761 22 13 21.7761 13 21.5V20.5C13 20.2239 12.7761 20 12.5 20ZM15 20.5C15 20.2239 15.2239 20 15.5 20H16.5C16.7761 20 17 20.2239 17 20.5V21.5C17 21.7761 16.7761 22 16.5 22H15.5C15.2239 22 15 21.7761 15 21.5V20.5ZM21.5 19H20C19.845 18.9983 19.6991 19.0731 19.61 19.2C19.4921 19.3479 19.3579 19.4821 19.21 19.6C19.0763 19.6887 18.9971 19.8396 19 20V21.54C19.0008 21.6236 19.0417 21.7018 19.11 21.75C19.1794 21.784 19.2606 21.784 19.33 21.75C20.4704 21.3473 21.3673 20.4504 21.77 19.31C21.804 19.2406 21.804 19.1594 21.77 19.09C21.7114 19.0199 21.6203 18.9857 21.53 19H21.5ZM20 8.5V6C21.1046 6 22 6.89543 22 8V8.5C22 8.77614 21.7761 9 21.5 9H20.5C20.2239 9 20 8.77614 20 8.5ZM21.5 11H20.5C20.2239 11 20 11.2239 20 11.5V12.5C20 12.7761 20.2239 13 20.5 13H21.5C21.7761 13 22 12.7761 22 12.5V11.5C22 11.2239 21.7761 11 21.5 11ZM20.5 15H21.5C21.7761 15 22 15.2239 22 15.5V16.5C22 16.7761 21.7761 17 21.5 17H20.5C20.2239 17 20 16.7761 20 16.5V15.5C20 15.2239 20.2239 15 20.5 15Z" fill="currentColor" fill-rule="evenodd" clip-rule="evenodd" />
</svg>
