<svg xmlns="http://www.w3.org/2000/svg" viewBox="0 0 24 24">
    <path d="M21 5C21 3.89543 20.1046 3 19 3H5C3.89543 3 3 3.89543 3 5V19C3 20.1046 3.89543 21 5 21H19C20.1046 21 21 20.1046 21 19V5ZM9.5 8C10.3284 8 11 8.67157 11 9.5C11 10.3284 10.3284 11 9.5 11C8.67157 11 8 10.3284 8 9.5C8 8.67157 8.67157 8 9.5 8ZM17.5 18C17.7761 18 18 17.7761 18 17.5L17.99 17.17C17.99 17.0541 17.9513 16.9414 17.88 16.85L14.14 12.18C14.0451 12.0617 13.9016 11.9929 13.75 11.9929C13.5984 11.9929 13.4549 12.0617 13.36 12.18L11.07 15.06C10.9753 15.182 10.8295 15.2534 10.675 15.2534C10.5205 15.2534 10.3747 15.182 10.28 15.06L9.28 13.7C9.1835 13.5739 9.03378 13.5 8.875 13.5C8.71622 13.5 8.5665 13.5739 8.47 13.7L6.1 16.87C6.03572 16.9569 6.00071 17.0619 6 17.17V17.5C6 17.7761 6.22386 18 6.5 18H17.5Z" fill="currentColor" fill-rule="evenodd" clip-rule="evenodd" />
</svg>
