<svg xmlns="http://www.w3.org/2000/svg" viewBox="0 0 24 24">
    <path d="M18.83 7H20C21.1046 7 22 7.89543 22 9V18C22 19.1046 21.1046 20 20 20H4C2.89543 20 2 19.1046 2 18V9C2 7.89543 2.89543 7 4 7H5.17C5.70304 7.00042 6.2142 6.78804 6.59 6.41L8.12 4.88C8.68207 4.31723 9.44462 4.0007 10.24 4H13.76C14.5554 4.0007 15.3179 4.31723 15.88 4.88L17.41 6.41C17.7858 6.78804 18.297 7.00042 18.83 7ZM15.5 14C15.7761 14 16 13.7761 16 13.5V12.5C16 12.2239 15.7761 12 15.5 12H13V9.5C13 9.22386 12.7761 9 12.5 9H11.5C11.2239 9 11 9.22386 11 9.5V12H8.5C8.22386 12 8 12.2239 8 12.5V13.5C8 13.7761 8.22386 14 8.5 14H11V16.5C11 16.7761 11.2239 17 11.5 17H12.5C12.7761 17 13 16.7761 13 16.5V14H15.5Z" fill="currentColor" fill-rule="evenodd" clip-rule="evenodd" />
</svg>
