<svg xmlns="http://www.w3.org/2000/svg" viewBox="0 0 24 24">
    <path d="M19 5V7C20.1046 7 21 7.89543 21 9V14.5C21 14.7761 20.7761 15 20.5 15H19V19C19 20.1046 18.1046 21 17 21H7C5.89543 21 5 20.1046 5 19V15H3.5C3.22386 15 3 14.7761 3 14.5V9C3 7.89543 3.89543 7 5 7V5C5 3.89543 5.89543 3 7 3H17C18.1046 3 19 3.89543 19 5ZM17 5H7V7H17V5ZM17 19H7V13H17V19ZM18.5 11C18.7761 11 19 10.7761 19 10.5V9.5C19 9.22386 18.7761 9 18.5 9H17.5C17.2239 9 17 9.22386 17 9.5V10.5C17 10.7761 17.2239 11 17.5 11H18.5Z" fill="currentColor" fill-rule="evenodd" clip-rule="evenodd" />
</svg>
