<svg xmlns="http://www.w3.org/2000/svg" viewBox="0 0 24 24">
    <path d="M18.1 3.29001C18.1951 3.16723 18.2446 3.01523 18.24 2.86001C18.2423 2.72971 18.2076 2.60142 18.14 2.49001L18.08 2.38001C17.9488 2.14434 17.6997 1.99874 17.43 2.00001H6.58C6.31027 1.99874 6.06122 2.14434 5.93 2.38001L5.87 2.49001C5.80239 2.60142 5.76772 2.72971 5.77 2.86001C5.76706 3.01344 5.81255 3.1639 5.9 3.29001L11.08 10.68C11.2194 10.8793 11.4468 10.9985 11.69 11H12.31C12.5532 10.9985 12.7806 10.8793 12.92 10.68L18.1 3.29001ZM8.84 4.00001H15.17L12 8.51001L8.84 4.00001ZM6.58 22H17.43C17.6744 21.9774 17.8916 21.835 18.01 21.62L18.07 21.51C18.2291 21.2671 18.2291 20.9529 18.07 20.71L12.89 13.32C12.7506 13.1208 12.5232 13.0015 12.28 13H11.66C11.4168 13.0015 11.1894 13.1208 11.05 13.32L5.87 20.71C5.71591 20.9544 5.71591 21.2656 5.87 21.51L5.93 21.62C6.06122 21.8557 6.31027 22.0013 6.58 22ZM20.5 13H19.5C19.2239 13 19 12.7762 19 12.5V11.5C19 11.2239 19.2239 11 19.5 11H20.5C20.7761 11 21 11.2239 21 11.5V12.5C21 12.7762 20.7761 13 20.5 13ZM15.5 13H16.5C16.7761 13 17 12.7762 17 12.5V11.5C17 11.2239 16.7761 11 16.5 11H15.5C15.2239 11 15 11.2239 15 11.5V12.5C15 12.7762 15.2239 13 15.5 13ZM8.5 13H7.5C7.22386 13 7 12.7762 7 12.5V11.5C7 11.2239 7.22386 11 7.5 11H8.5C8.77614 11 9 11.2239 9 11.5V12.5C9 12.7762 8.77614 13 8.5 13ZM3.5 13H4.5C4.77614 13 5 12.7762 5 12.5V11.5C5 11.2239 4.77614 11 4.5 11H3.5C3.22386 11 3 11.2239 3 11.5V12.5C3 12.7762 3.22386 13 3.5 13Z" fill="currentColor" fill-rule="evenodd" clip-rule="evenodd" />
</svg>
