<svg xmlns="http://www.w3.org/2000/svg" viewBox="0 0 24 24">
    <path d="M20.5 15H19.5C19.2239 15 19 15.2239 19 15.5V19H5V5H8.5C8.77614 5 9 4.77614 9 4.5V3.5C9 3.22386 8.77614 3 8.5 3H5C3.89543 3 3 3.89543 3 5V19C3 20.1046 3.89543 21 5 21H19C20.1046 21 21 20.1046 21 19V15.5C21 15.2239 20.7761 15 20.5 15ZM11 4.52V3.52C11.0018 3.38316 11.0596 3.25305 11.16 3.16C11.2586 3.06176 11.3909 3.00458 11.53 3C16.6465 3.26469 20.7353 7.35351 21 12.47C21.0008 12.6064 20.9509 12.7383 20.86 12.84C20.767 12.9404 20.6368 12.9982 20.5 13H19.5C19.237 13.0002 19.0207 12.7928 19.01 12.53C18.7773 8.46777 15.5325 5.2273 11.47 5C11.211 4.98947 11.0051 4.77912 11 4.52ZM13 12.5C13 13.3284 12.3284 14 11.5 14C10.6716 14 10 13.3284 10 12.5C10 11.6716 10.6716 11 11.5 11C12.3284 11 13 11.6716 13 12.5Z" fill="currentColor" fill-rule="evenodd" clip-rule="evenodd" />
</svg>
