<svg xmlns="http://www.w3.org/2000/svg" viewBox="0 0 24 24">
    <path d="M18.19 2.29002L21.71 5.81002C21.8948 5.99628 21.9989 6.24768 22 6.51002V7.24002C22.0154 7.523 21.91 7.79922 21.71 8.00002L8.00002 21.71C7.79922 21.91 7.523 22.0154 7.24002 22H6.51002C6.24768 21.9989 5.99628 21.8948 5.81002 21.71L2.29002 18.19C2.10527 18.0038 2.00112 17.7524 2.00002 17.49V16.76C1.99848 16.4942 2.10283 16.2387 2.29002 16.05L16.05 2.29002C16.2387 2.10283 16.4942 1.99848 16.76 2.00002H17.49C17.7524 2.00112 18.0038 2.10527 18.19 2.29002ZM4.05002 17.12L6.88002 20L20 6.88002L17.12 4.00002L16.17 5.00002L17.24 6.07002C17.4306 6.26444 17.4306 6.57559 17.24 6.77002L16.7 7.31002C16.5056 7.50059 16.1944 7.50059 16 7.31002L14.93 6.28002L13.69 7.52002L14.25 8.08002C14.4406 8.27444 14.4406 8.5856 14.25 8.78002L13.71 9.32002C13.5156 9.51059 13.2044 9.51059 13.01 9.32002L12.45 8.76002L11.21 10L12.24 11.03C12.4306 11.2244 12.4306 11.5356 12.24 11.73L11.7 12.27C11.5056 12.4606 11.1944 12.4606 11 12.27L10 11.21L8.73002 12.45L9.29002 13.01C9.48059 13.2044 9.48059 13.5156 9.29002 13.71L8.75002 14.25C8.55559 14.4406 8.24444 14.4406 8.05002 14.25L7.49002 13.69L6.25002 14.93L7.35002 15.99C7.54059 16.1844 7.54059 16.4956 7.35002 16.69L6.81002 17.23C6.61559 17.4206 6.30444 17.4206 6.11002 17.23L5.05002 16.17L4.05002 17.12Z" fill="currentColor" fill-rule="evenodd" clip-rule="evenodd" />
</svg>
