<svg xmlns="http://www.w3.org/2000/svg" viewBox="0 0 24 24">
    <path d="M20 9H21.5C21.7761 9 22 9.22386 22 9.5V10.5C22 10.7761 21.7761 11 21.5 11H2.5C2.22386 11 2 10.7761 2 10.5V9.5C2 9.22386 2.22386 9 2.5 9H4V4C4 2.89543 4.89543 2 6 2H18C19.1046 2 20 2.89543 20 4V9ZM4 20C4 21.1046 4.89543 22 6 22H13.17C13.703 22.0004 14.2142 21.788 14.59 21.41L19.41 16.59C19.788 16.2142 20.0004 15.703 20 15.17V13H4V20ZM13 16C13 15.4477 13.4477 15 14 15H18.18L13 20.18V16Z" fill="currentColor" fill-rule="evenodd" clip-rule="evenodd" />
</svg>
