<svg xmlns="http://www.w3.org/2000/svg" viewBox="0 0 24 24">
    <path d="M12 2C6.47715 2 2 6.47715 2 12C2 17.5228 6.47715 22 12 22C17.5228 22 22 17.5228 22 12C22 9.34784 20.9464 6.8043 19.0711 4.92893C17.1957 3.05357 14.6522 2 12 2ZM15 4.61C16.7155 5.32218 18.1297 6.6091 19 8.25C19.0835 8.4065 19.0797 8.59516 18.9899 8.74816C18.9002 8.90117 18.7374 8.99654 18.56 9H12.87C12.6899 8.99847 12.5235 8.90389 12.43 8.75C12.3407 8.5953 12.3407 8.4047 12.43 8.25L14.43 4.83C14.5454 4.63269 14.7819 4.5414 15 4.61ZM12 4C10.229 4.00329 8.50911 4.59417 7.11 5.68C6.92313 5.84277 6.87709 6.1148 7 6.33L8.97 9.75C9.06007 9.90179 9.2235 9.99485 9.4 9.99485C9.5765 9.99485 9.73993 9.90179 9.83 9.75L12.72 4.75C12.8055 4.59786 12.8055 4.41214 12.72 4.26C12.6405 4.10551 12.4837 4.00607 12.31 4H12ZM4.11 13.08C4.0477 12.7231 4.01094 12.3622 4 12C3.99762 10.4983 4.42437 9.02726 5.23 7.76C5.32007 7.60821 5.4835 7.51515 5.66 7.51515C5.8365 7.51515 5.99993 7.60821 6.09 7.76L8.54 12L8.97 12.75C9.05932 12.9047 9.05932 13.0953 8.97 13.25C8.8784 13.4009 8.71648 13.4951 8.54 13.5H4.54C4.30754 13.4843 4.11675 13.3101 4.08 13.08H4.11ZM5 15.75C5.87034 17.3909 7.28453 18.6778 9 19.39C9.21806 19.4586 9.45458 19.3673 9.57 19.17L11.57 15.75C11.6593 15.5953 11.6593 15.4047 11.57 15.25C11.4765 15.0961 11.3101 15.0015 11.13 15H5.38C5.21346 15.0223 5.06857 15.1251 4.99263 15.275C4.9167 15.4249 4.91945 15.6025 5 15.75ZM16.92 18.32C15.5128 19.4121 13.7813 20.0034 12 20H11.69C11.5163 19.9939 11.3595 19.8945 11.28 19.74C11.1945 19.5879 11.1945 19.4021 11.28 19.25L14.17 14.25C14.2601 14.0982 14.4235 14.0051 14.6 14.0051C14.7765 14.0051 14.9399 14.0982 15.03 14.25L17.03 17.67C17.1504 17.8915 17.0909 18.1677 16.89 18.32H16.92ZM18.37 16.4849C18.5465 16.4849 18.7099 16.3918 18.8 16.24H18.77C19.5756 14.9727 20.0024 13.5017 20 12C20.0194 11.6367 20.0127 11.2724 19.98 10.91C19.941 10.6692 19.7339 10.4917 19.49 10.49H15.49C15.3119 10.4911 15.1478 10.5868 15.0592 10.7413C14.9707 10.8958 14.9709 11.0858 15.06 11.24L17.94 16.24C18.0301 16.3918 18.1935 16.4849 18.37 16.4849Z" fill="currentColor" fill-rule="evenodd" clip-rule="evenodd" />
</svg>
