<svg xmlns="http://www.w3.org/2000/svg" viewBox="0 0 24 24">
    <path d="M6 4.58L9 9.75C9.09352 9.88398 9.24661 9.96382 9.41 9.96382C9.57339 9.96382 9.72648 9.88398 9.82 9.75L13.82 2.85C13.9006 2.70835 13.9071 2.53632 13.8374 2.38901C13.7677 2.24169 13.6306 2.13758 13.47 2.11C12.9833 2.03782 12.492 2.00106 12 2C9.88976 2.00461 7.83507 2.67667 6.13 3.92C5.93104 4.07857 5.87604 4.35782 6 4.58ZM20.87 9H12.87C12.6955 8.99206 12.5378 8.89363 12.454 8.74035C12.3702 8.58707 12.3725 8.40118 12.46 8.25L15.46 3.08C15.5833 2.85667 15.8574 2.76533 16.09 2.87C18.4883 3.93117 20.3737 5.89199 21.34 8.33C21.3954 8.4832 21.3727 8.65378 21.2791 8.78714C21.1856 8.9205 21.0329 8.99993 20.87 9ZM5 5.86C4.92094 5.71738 4.7761 5.62343 4.61363 5.60939C4.45117 5.59535 4.29236 5.66305 4.19 5.79C2.77351 7.54987 2.00084 9.74089 2 12C2.00307 12.3544 2.02645 12.7083 2.07 13.06C2.09605 13.3148 2.31395 13.5066 2.57 13.5H8.57C8.74809 13.4989 8.91217 13.4032 9.00076 13.2487C9.08934 13.0942 9.08905 12.9042 9 12.75L5 5.86ZM3.13 15H11.13C11.3204 14.9731 11.5092 15.0578 11.6159 15.2177C11.7225 15.3777 11.728 15.5846 11.63 15.75L8.63 20.92C8.50669 21.1433 8.23265 21.2347 8 21.13C5.56774 20.0882 3.64754 18.1248 2.66 15.67C2.60461 15.5168 2.62733 15.3462 2.72088 15.2129C2.81444 15.0795 2.9671 15.0001 3.13 15ZM19 18.14C19.0791 18.2826 19.2239 18.3766 19.3864 18.3906C19.5488 18.4046 19.7076 18.3369 19.81 18.21C21.2265 16.4501 21.9992 14.2591 22 12C21.9969 11.6456 21.9736 11.2917 21.93 10.94C21.9039 10.6852 21.686 10.4934 21.43 10.5H15.43C15.2519 10.5011 15.0878 10.5968 14.9992 10.7513C14.9107 10.9058 14.9109 11.0958 15 11.25L19 18.14ZM10.16 21.15L14.16 14.25H14.17C14.2612 14.1029 14.4219 14.0134 14.595 14.0134C14.7681 14.0134 14.9288 14.1029 15.02 14.25L18.02 19.42C18.144 19.6422 18.089 19.9214 17.89 20.08C16.1794 21.3273 14.1171 21.9996 12 22C11.5013 21.9999 11.0033 21.9631 10.51 21.89C10.3494 21.8624 10.2123 21.7583 10.1426 21.611C10.0729 21.4637 10.0794 21.2916 10.16 21.15Z" fill="currentColor" fill-rule="evenodd" clip-rule="evenodd" />
</svg>
