<svg xmlns="http://www.w3.org/2000/svg" viewBox="0 0 24 24">
    <path d="M21.5 7H21.41C21.1477 7.0011 20.8963 7.10526 20.71 7.29L18 10V7C18 5.89543 17.1046 5 16 5H4C2.89543 5 2 5.89543 2 7V17C2 18.1046 2.89543 19 4 19H16C17.1046 19 18 18.1046 18 17V14L20.71 16.71C20.8963 16.8947 21.1477 16.9989 21.41 17H21.5C21.7761 17 22 16.7761 22 16.5V7.5C22 7.22386 21.7761 7 21.5 7ZM9.59 9.5C8.5245 9.69746 7.75112 10.6264 7.75 11.71H8.56C8.653 11.7089 8.73891 11.7596 8.78301 11.8415C8.8271 11.9233 8.82209 12.0229 8.77 12.1L7.23 14.4C7.18645 14.4715 7.10875 14.5152 7.025 14.5152C6.94125 14.5152 6.86355 14.4715 6.82 14.4L5.28 12.1C5.22791 12.0229 5.2229 11.9233 5.26699 11.8415C5.31109 11.7596 5.397 11.7089 5.49 11.71H6.25C6.2467 9.86416 7.58714 8.29041 9.41 8C9.55735 7.97302 9.70904 8.01352 9.82333 8.11037C9.93761 8.20722 10.0024 8.35022 10 8.5V9C10.004 9.2445 9.83055 9.45602 9.59 9.5ZM13.75 12.29H14.51C14.5997 12.2887 14.6819 12.2395 14.7253 12.1609C14.7687 12.0824 14.7667 11.9866 14.72 11.91L13.18 9.61C13.1364 9.53846 13.0588 9.4948 12.975 9.4948C12.8912 9.4948 12.8136 9.53846 12.77 9.61L11.23 11.91C11.1779 11.9871 11.1729 12.0867 11.217 12.1685C11.2611 12.2504 11.347 12.3011 11.44 12.3H12.25C12.2489 13.3836 11.4755 14.3125 10.41 14.51C10.1732 14.5533 10.0009 14.7593 10 15V15.5C9.99755 15.6498 10.0624 15.7928 10.1767 15.8896C10.291 15.9865 10.4426 16.027 10.59 16C12.4129 15.7096 13.7533 14.1358 13.75 12.29Z" fill="currentColor" fill-rule="evenodd" clip-rule="evenodd" />
</svg>
