<svg xmlns="http://www.w3.org/2000/svg" viewBox="0 0 24 24">
    <path d="M4.67411 4H3.33482C3.1499 4 3 4.14428 3 4.32227V14.6777C3 14.8557 3.1499 15 3.33482 15H4.67411C4.85902 15 5.00893 14.8557 5.00893 14.6777L5.00893 10.1875H8.49126V14.6777C8.49126 14.8557 8.64117 15 8.82608 15H10.1654C10.3503 15 10.5002 14.8557 10.5002 14.6777L10.5002 4.32227C10.5002 4.14428 10.3503 4 10.1654 4H8.82608C8.64117 4 8.49126 4.14428 8.49126 4.32227V8.125H5.00893L5.00893 4.32227C5.00893 4.14428 4.85902 4 4.67411 4ZM20.375 7.66667C20.3712 8.15437 20.2638 8.63326 20.0625 9.06C20.6513 9.61306 20.9957 10.4484 21 11.3333V12.0667C21 13.6867 19.8807 15 18.5 15H14.125C13.7798 15 13.5 14.6717 13.5 14.2667V4.73333C13.5 4.32832 13.7798 4 14.125 4H17.875C19.2557 4 20.375 5.3133 20.375 6.93333V7.66667ZM18.4998 6.93333C18.4998 6.52832 18.22 6.2 17.8748 6.2H15.3748V8.4H17.8748C18.22 8.4 18.4998 8.07167 18.4998 7.66666V6.93333ZM19.1248 12.0667C19.1248 12.4717 18.845 12.8 18.4998 12.8H15.3748V10.6H18.4998C18.845 10.6 19.1248 10.9283 19.1248 11.3333V12.0667ZM19 17.5H15.5V16.7C15.5 16.5895 15.4105 16.5 15.3 16.5H13.7C13.5895 16.5 13.5 16.5895 13.5 16.7V17.7V18.3V19.3C13.5 19.4105 13.5895 19.5 13.7 19.5H20.8C20.9105 19.5 21 19.4105 21 19.3V18.3V17.7V16.7C21 16.5895 20.9105 16.5 20.8 16.5H19.2C19.0895 16.5 19 16.5895 19 16.7V17.5ZM5 17.5H8.5V16.7C8.5 16.5895 8.58954 16.5 8.7 16.5H10.3C10.4105 16.5 10.5 16.5895 10.5 16.7V17.7V18.3V19.3C10.5 19.4105 10.4105 19.5 10.3 19.5H3.2C3.08954 19.5 3 19.4105 3 19.3V18.3V17.7V16.7C3 16.5895 3.08954 16.5 3.2 16.5H4.8C4.91046 16.5 5 16.5895 5 16.7V17.5Z" fill="currentColor" fill-rule="evenodd" clip-rule="evenodd" />
</svg>
