<svg xmlns="http://www.w3.org/2000/svg" viewBox="0 0 24 24">
    <path d="M3.5 3H20.5C20.7761 3 21 3.22386 21 3.5V4.5C21 4.77614 20.7761 5 20.5 5H3.5C3.22386 5 3 4.77614 3 4.5V3.5C3 3.22386 3.22386 3 3.5 3ZM11.5 9H20.5C20.7761 9 21 8.77614 21 8.5V7.5C21 7.22386 20.7761 7 20.5 7H11.5C11.2239 7 11 7.22386 11 7.5V8.5C11 8.77614 11.2239 9 11.5 9ZM21 11.5V12.5C21 12.7761 20.7761 13 20.5 13H3.5C3.22386 13 3 12.7761 3 12.5V11.5C3 11.2239 3.22386 11 3.5 11H20.5C20.7761 11 21 11.2239 21 11.5ZM20.5 19H3.5C3.22386 19 3 19.2239 3 19.5V20.5C3 20.7761 3.22386 21 3.5 21H20.5C20.7761 21 21 20.7761 21 20.5V19.5C21 19.2239 20.7761 19 20.5 19ZM20.5 17H11.5C11.2239 17 11 16.7761 11 16.5V15.5C11 15.2239 11.2239 15 11.5 15H20.5C20.7761 15 21 15.2239 21 15.5V16.5C21 16.7761 20.7761 17 20.5 17Z" fill="currentColor" fill-rule="evenodd" clip-rule="evenodd" />
</svg>
