<svg xmlns="http://www.w3.org/2000/svg" viewBox="0 0 24 24">
    <path d="M3.5 3H20.5C20.7761 3 21 3.22386 21 3.5V4.5C21 4.77614 20.7761 5 20.5 5H3.5C3.22386 5 3 4.77614 3 4.5V3.5C3 3.22386 3.22386 3 3.5 3ZM3.9 9H20.1C20.5971 9 21 8.77614 21 8.5V7.5C21 7.22386 20.5971 7 20.1 7H3.9C3.40294 7 3 7.22386 3 7.5V8.5C3 8.77614 3.40294 9 3.9 9ZM21 11.5V12.5C21 12.7761 20.7761 13 20.5 13H3.5C3.22386 13 3 12.7761 3 12.5V11.5C3 11.2239 3.22386 11 3.5 11H20.5C20.7761 11 21 11.2239 21 11.5ZM20.5 15H3.5C3.22386 15 3 15.2239 3 15.5V16.5C3 16.7761 3.22386 17 3.5 17H20.5C20.7761 17 21 16.7761 21 16.5V15.5C21 15.2239 20.7761 15 20.5 15ZM12.5 21H3.5C3.22386 21 3 20.7761 3 20.5V19.5C3 19.2239 3.22386 19 3.5 19H12.5C12.7761 19 13 19.2239 13 19.5V20.5C13 20.7761 12.7761 21 12.5 21Z" fill="currentColor" fill-rule="evenodd" clip-rule="evenodd" />
</svg>
