<svg xmlns="http://www.w3.org/2000/svg" viewBox="0 0 24 24">
    <path d="M7.5 2H8.5C8.77614 2 9 2.22386 9 2.5V5H7V2.5C7 2.22386 7.22386 2 7.5 2ZM2.5 9H5V7H2.5C2.22386 7 2 7.22386 2 7.5V8.5C2 8.77614 2.22386 9 2.5 9ZM17 5V2.5C17 2.22386 16.7761 2 16.5 2H15.5C15.2239 2 15 2.22386 15 2.5V5H17ZM22 7.5V8.5C22 8.77614 21.7761 9 21.5 9H19V7H21.5C21.7761 7 22 7.22386 22 7.5ZM19 17H21.5C21.7761 17 22 16.7761 22 16.5V15.5C22 15.2239 21.7761 15 21.5 15H19V17ZM16.5 22H15.5C15.2239 22 15 21.7761 15 21.5V19H17V21.5C17 21.7761 16.7761 22 16.5 22ZM7 19V21.5C7 21.7761 7.22386 22 7.5 22H8.5C8.77614 22 9 21.7761 9 21.5V19H7ZM2 16.5V15.5C2 15.2239 2.22386 15 2.5 15H5V17H2.5C2.22386 17 2 16.7761 2 16.5ZM15 9H9V15H15V9ZM17 7.5C17 7.22386 16.7761 7 16.5 7H7.5C7.22386 7 7 7.22386 7 7.5V16.5C7 16.7761 7.22386 17 7.5 17H16.5C16.7761 17 17 16.7761 17 16.5V7.5Z" fill="currentColor" fill-rule="evenodd" clip-rule="evenodd" />
</svg>
