<svg xmlns="http://www.w3.org/2000/svg" viewBox="0 0 24 24">
    <path d="M22.0002 15.46C22.0114 15.5994 21.9637 15.7371 21.8687 15.8397C21.7737 15.9423 21.6401 16.0004 21.5002 16H20.0002C19.7445 16.0008 19.5311 15.8049 19.5102 15.55C19.2202 12.73 16.2002 10.5 12.5102 10.5C10.6168 10.4682 8.77499 11.1176 7.32023 12.33L9.84023 14.85C9.93789 14.944 9.9922 15.0744 9.99023 15.21V15.5C9.99023 15.7761 9.76638 16 9.49023 16H2.49023C2.21409 16 1.99023 15.7761 1.99023 15.5V8.49997C1.99021 8.36561 2.04426 8.2369 2.1402 8.14283C2.23614 8.04877 2.3659 7.99728 2.50023 7.99997H2.79023C2.92582 7.998 3.05616 8.05231 3.15023 8.14997L5.57023 10.57C7.50419 8.87499 9.99895 7.95906 12.5702 7.99997C17.5502 7.99997 21.6702 11.29 22.0002 15.46Z" fill="currentColor" />
</svg>
