<svg xmlns="http://www.w3.org/2000/svg" viewBox="0 0 24 24">
    <path d="M20.0908 13H21.9899C22.5419 13 22.9894 13.4477 22.9894 14V18C22.9894 18.5523 22.5419 19 21.9899 19H17.9918C17.4397 19 16.9922 18.5523 16.9922 18V14C16.9922 13.4477 17.4397 13 17.9918 13H18.0617C17.2322 11.8526 16.1906 10.875 14.9932 10.12C14.9981 10.0802 14.9981 10.0398 14.9932 10C14.9932 10.5523 14.5457 11 13.9936 11H9.99553C9.44351 11 8.996 10.5523 8.996 10C8.99109 10.0398 8.99109 10.0802 8.996 10.12C7.7986 10.875 6.75696 11.8526 5.92745 13H5.99742C6.54945 13 6.99695 13.4477 6.99695 14V18C6.99695 18.5523 6.54945 19 5.99742 19H1.99931C1.44729 19 0.999784 18.5523 0.999784 18V14C0.999784 13.4477 1.44729 13 1.99931 13H3.89841C4.85927 11.2711 6.23712 9.81007 7.90652 8.75H4.17828C3.72435 9.39809 2.89219 9.66075 2.1487 9.39061C1.40522 9.12047 0.935467 8.38476 1.00302 7.59628C1.07057 6.8078 1.65861 6.1628 2.4372 6.02318C3.21579 5.88356 3.99114 6.28408 4.32821 7H8.996V6C8.996 5.44772 9.44351 5 9.99553 5H13.9936C14.5457 5 14.9932 5.44772 14.9932 6V7H19.661C19.9941 6.28236 20.7672 5.87768 21.5464 6.01297C22.3257 6.14827 22.9173 6.78988 22.9893 7.57787C23.0613 8.36586 22.5958 9.10415 21.854 9.37858C21.1122 9.65302 20.2786 9.3953 19.8209 8.75H16.0926C17.7584 9.81136 19.1327 11.2723 20.0908 13ZM2.99884 17H4.99789V15H2.99884V17ZM12.9941 9H10.9951V7H12.9941V9ZM18.9913 17H20.9903V15H18.9913V17Z" fill="currentColor" fill-rule="evenodd" clip-rule="evenodd" />
</svg>
