<svg xmlns="http://www.w3.org/2000/svg" viewBox="0 0 24 24">
    <path d="M17 1H3C1.89543 1 1 1.89543 1 3V17C1 18.1046 1.89543 19 3 19H17C18.1046 19 19 18.1046 19 17V3C19 1.89543 18.1046 1 17 1ZM13.06 10.62L9.17 13.22C8.94033 13.3752 8.64377 13.3911 8.39882 13.2613C8.15388 13.1315 8.00051 12.8772 8 12.6V7.4C8.00051 7.12279 8.15388 6.86846 8.39882 6.73867C8.64377 6.60887 8.94033 6.62476 9.17 6.78L13.06 9.38C13.2696 9.51658 13.396 9.74982 13.396 10C13.396 10.2502 13.2696 10.4834 13.06 10.62ZM21 19V5C22.1046 5 23 5.89543 23 7V19C23 21.2091 21.2091 23 19 23H7C5.89543 23 5 22.1046 5 21H19C20.1046 21 21 20.1046 21 19Z" fill="currentColor" fill-rule="evenodd" clip-rule="evenodd" />
</svg>
