<svg xmlns="http://www.w3.org/2000/svg" viewBox="0 0 24 24">
    <path d="M20 4H4C2.89543 4 2 4.89543 2 6V18C2 19.1046 2.89543 20 4 20H20C21.1046 20 22 19.1046 22 18V6C22 4.89543 21.1046 4 20 4ZM20 18H4V6H20V18ZM15.06 12.62L11.17 15.22C10.9403 15.3752 10.6438 15.3911 10.3988 15.2613C10.1539 15.1315 10.0005 14.8772 10 14.6V9.4C10.0005 9.12279 10.1539 8.86846 10.3988 8.73867C10.6438 8.60887 10.9403 8.62476 11.17 8.78L15.06 11.38C15.2696 11.5166 15.396 11.7498 15.396 12C15.396 12.2502 15.2696 12.4834 15.06 12.62Z" fill="currentColor" fill-rule="evenodd" clip-rule="evenodd" />
</svg>
