<svg xmlns="http://www.w3.org/2000/svg" viewBox="0 0 24 24">
    <path d="M21.41 7H21.5C21.7761 7 22 7.22386 22 7.5V16.5C22 16.7761 21.7761 17 21.5 17H21.41C21.1477 16.9989 20.8963 16.8947 20.71 16.71L18 14V17C18 18.1046 17.1046 19 16 19H4C2.89543 19 2 18.1046 2 17V7C2 5.89543 2.89543 5 4 5H16C17.1046 5 18 5.89543 18 7V10L20.71 7.29C20.8963 7.10526 21.1477 7.0011 21.41 7ZM13.5 13C13.7761 13 14 12.7761 14 12.5V11.5C14 11.2239 13.7761 11 13.5 11H11V8.5C11 8.22386 10.7761 8 10.5 8H9.5C9.22386 8 9 8.22386 9 8.5V11H6.5C6.22386 11 6 11.2239 6 11.5V12.5C6 12.7761 6.22386 13 6.5 13H9V15.5C9 15.7761 9.22386 16 9.5 16H10.5C10.7761 16 11 15.7761 11 15.5V13H13.5Z" fill="currentColor" fill-rule="evenodd" clip-rule="evenodd" />
</svg>
