<svg xmlns="http://www.w3.org/2000/svg" viewBox="0 0 24 24">
    <path d="M18 22C19.1046 22 20 21.1046 20 20V4C20 2.89543 19.1046 2 18 2H6C4.89543 2 4 2.89543 4 4V20C4 21.1046 4.89543 22 6 22H18ZM6 20V4H18V20H6ZM10 9.4V14.6C10.0005 14.8772 10.1539 15.1315 10.3988 15.2613C10.6438 15.3911 10.9403 15.3752 11.17 15.22L15.06 12.62C15.2696 12.4834 15.396 12.2502 15.396 12C15.396 11.7498 15.2696 11.5166 15.06 11.38L11.17 8.78C10.9403 8.62476 10.6438 8.60887 10.3988 8.73867C10.1539 8.86846 10.0005 9.12279 10 9.4Z" fill="currentColor" fill-rule="evenodd" clip-rule="evenodd" />
</svg>
