<svg xmlns="http://www.w3.org/2000/svg" viewBox="0 0 24 24">
    <path d="M4 11.9954C3.99833 8.47666 5.84784 5.21627 8.86961 3.41104C11.8914 1.60581 15.6402 1.52168 18.74 3.18955C18.8992 3.27903 18.9984 3.44678 19 3.62934V3.75928C19.0009 3.91451 18.9309 4.06169 18.81 4.15909C16.4145 6.0549 15.0176 8.94134 15.0176 11.9954C15.0176 15.0494 16.4145 17.9358 18.81 19.8316C18.9309 19.929 19.0009 20.0762 19 20.2314V20.3614C18.9984 20.5439 18.8992 20.7117 18.74 20.8012C15.6402 22.469 11.8914 22.3849 8.86961 20.5797C5.84784 18.7745 3.99833 15.5141 4 11.9954Z" fill="currentColor" />
</svg>
