<svg xmlns="http://www.w3.org/2000/svg" viewBox="0 0 24 24">
    <path d="M21 11.69V12.19C21 12.4661 20.7761 12.69 20.5 12.69H16.42L18.85 15.12C18.9467 15.2107 19.0015 15.3374 19.0015 15.47C19.0015 15.6026 18.9467 15.7293 18.85 15.82L18.5 16.18C18.3022 16.3718 17.9878 16.3718 17.79 16.18L14.3 12.69H12.69V14.18L16.18 17.67C16.3706 17.8644 16.3706 18.1756 16.18 18.37L15.82 18.73C15.6256 18.9206 15.3144 18.9206 15.12 18.73L12.69 16.3V20.53C12.69 20.6547 12.6405 20.7742 12.5523 20.8623C12.4642 20.9505 12.3447 21 12.22 21H11.65C11.3943 20.9946 11.1899 20.7857 11.19 20.53V16.53L8.88 18.83C8.78927 18.9267 8.66259 18.9815 8.53 18.9815C8.39741 18.9815 8.27073 18.9267 8.18 18.83L7.82 18.48C7.62822 18.2822 7.62822 17.9678 7.82 17.77L11.19 14.41V12.69H9.82L6.33 16.18C6.13558 16.3706 5.82442 16.3706 5.63 16.18L5.27 15.82C5.07943 15.6256 5.07943 15.3144 5.27 15.12L7.7 12.69H3.47C3.21043 12.69 3 12.4796 3 12.22V11.65C3.00544 11.3943 3.21428 11.1899 3.47 11.19H7.47L5.15 8.88C5.05332 8.78927 4.99848 8.66259 4.99848 8.53C4.99848 8.39741 5.05332 8.27073 5.15 8.18L5.5 7.82C5.69781 7.62822 6.01219 7.62822 6.21 7.82L9.57 11.19H11.19V9.7L7.82 6.33C7.62943 6.13558 7.62943 5.82442 7.82 5.63L8.18 5.27C8.37442 5.07943 8.68558 5.07943 8.88 5.27L11.19 7.57V3.5C11.19 3.22386 11.4139 3 11.69 3H12.19C12.4661 3 12.69 3.22386 12.69 3.5V7.58L15.12 5.15C15.2107 5.05332 15.3374 4.99848 15.47 4.99848C15.6026 4.99848 15.7293 5.05332 15.82 5.15L16.18 5.5C16.3718 5.69781 16.3718 6.01219 16.18 6.21L12.69 9.7V11.19H14.3L17.67 7.82C17.8644 7.62943 18.1756 7.62943 18.37 7.82L18.73 8.18C18.9206 8.37442 18.9206 8.68558 18.73 8.88L16.43 11.19H20.5C20.6326 11.19 20.7598 11.2427 20.8536 11.3364C20.9473 11.4302 21 11.5574 21 11.69Z" fill="currentColor" />
</svg>
