<svg xmlns="http://www.w3.org/2000/svg" viewBox="0 0 24 24">
    <path d="M6.94274 3.06006C6.98659 3.01085 7.00828 2.94576 7.00271 2.88006C6.99853 2.80744 6.96627 2.7393 6.91276 2.69006C5.72023 1.69923 3.96948 1.78126 2.87471 2.87925C1.77993 3.97725 1.7021 5.7292 2.69518 6.92006C2.74601 6.96992 2.81391 6.99853 2.88507 7.00006C2.95219 7.00297 3.01745 6.97757 3.06497 6.93006L6.94274 3.06006ZM11.9998 4.00006C7.03213 4.00006 3.005 8.0295 3.005 13.0001C3.005 17.9706 7.03213 22.0001 11.9998 22.0001C16.9676 22.0001 20.9947 17.9706 20.9947 13.0001C20.9947 8.0295 16.9676 4.00006 11.9998 4.00006ZM11.9998 20.0001C8.13607 20.0001 5.00386 16.8661 5.00386 13.0001C5.00386 9.13407 8.13607 6.00006 11.9998 6.00006C15.8636 6.00006 18.9958 9.13407 18.9958 13.0001C18.9958 16.8661 15.8636 20.0001 11.9998 20.0001ZM12.9993 12.0001H15.4978C15.7738 12.0001 15.9976 12.2239 15.9976 12.5001V13.5001C15.9976 13.7762 15.7738 14.0001 15.4978 14.0001H12.9993V16.5001C12.9993 16.7762 12.7755 17.0001 12.4996 17.0001H11.5001C11.2241 17.0001 11.0004 16.7762 11.0004 16.5001V14.0001H8.50185C8.22587 14.0001 8.00214 13.7762 8.00214 13.5001V12.5001C8.00214 12.2239 8.22587 12.0001 8.50185 12.0001H11.0004V9.50006C11.0004 9.22392 11.2241 9.00006 11.5001 9.00006H12.4996C12.7755 9.00006 12.9993 9.22392 12.9993 9.50006V12.0001ZM17.0769 2.69006C17.6164 2.24282 18.2953 1.99869 18.9958 2.00006C20.16 1.99817 21.22 2.67069 21.7147 3.72506C22.2095 4.77944 22.0496 6.02506 21.3045 6.92006C21.2553 6.9736 21.1872 7.00588 21.1146 7.01006C21.0475 7.01297 20.9822 6.98757 20.9347 6.94006L17.0569 3.06006C17.0095 3.01251 16.9841 2.94722 16.987 2.88006C16.9912 2.80744 17.0234 2.7393 17.0769 2.69006Z" fill="currentColor" fill-rule="evenodd" clip-rule="evenodd" />
</svg>
