<svg xmlns="http://www.w3.org/2000/svg" viewBox="0 0 24 24">
    <path d="M7.00271 2.88006C7.00828 2.94576 6.98659 3.01085 6.94274 3.06006L3.06497 6.93006C3.01745 6.97757 2.95219 7.00297 2.88507 7.00006C2.81391 6.99853 2.74601 6.96992 2.69518 6.92006C1.7021 5.7292 1.77993 3.97725 2.87471 2.87925C3.96948 1.78126 5.72023 1.69923 6.91276 2.69006C6.96627 2.7393 6.99853 2.80744 7.00271 2.88006ZM11.9998 4.00006C7.03213 4.00006 3.005 8.0295 3.005 13.0001C3.005 17.9706 7.03213 22.0001 11.9998 22.0001C16.9676 22.0001 20.9947 17.9706 20.9947 13.0001C20.9947 8.0295 16.9676 4.00006 11.9998 4.00006ZM11.9998 20.0001C8.13607 20.0001 5.00386 16.8661 5.00386 13.0001C5.00386 9.13407 8.13607 6.00006 11.9998 6.00006C15.8636 6.00006 18.9958 9.13407 18.9958 13.0001C18.9958 16.8661 15.8636 20.0001 11.9998 20.0001ZM18.9958 2.00006C18.2953 1.99869 17.6164 2.24282 17.0769 2.69006C17.0234 2.7393 16.9912 2.80744 16.987 2.88006C16.9841 2.94722 17.0095 3.01251 17.0569 3.06006L20.9347 6.94006C20.9822 6.98757 21.0475 7.01297 21.1146 7.01006C21.1872 7.00588 21.2553 6.9736 21.3045 6.92006C22.0496 6.02506 22.2095 4.77944 21.7147 3.72506C21.22 2.67069 20.16 1.99817 18.9958 2.00006ZM7.50452 13.6451C7.50452 13.7784 7.55774 13.9062 7.65234 14.0001L10.031 16.3701C10.1217 16.4667 10.2483 16.5216 10.3808 16.5216C10.5133 16.5216 10.6399 16.4667 10.7306 16.3701L16.3474 10.7501C16.442 10.6562 16.4952 10.5284 16.4952 10.3951C16.4952 10.2617 16.442 10.1339 16.3474 10.0401L15.8177 9.51006C15.6233 9.31949 15.3124 9.31949 15.1181 9.51006L10.3808 14.2501L8.88163 12.7601C8.79095 12.6634 8.66434 12.6085 8.53183 12.6085C8.39932 12.6085 8.27272 12.6634 8.18203 12.7601L7.65234 13.2901C7.55774 13.3839 7.50452 13.5117 7.50452 13.6451Z" fill="currentColor" fill-rule="evenodd" clip-rule="evenodd" />
</svg>
