<svg xmlns="http://www.w3.org/2000/svg" viewBox="0 0 24 24">
    <path d="M19.0168 7.37L20.148 6.24C20.3388 6.04559 20.3388 5.73443 20.148 5.54L19.4373 4.83C19.3433 4.73535 19.2155 4.6821 19.082 4.6821C18.9485 4.6821 18.8205 4.73535 18.7266 4.83L17.6154 6C16.5627 5.14667 15.3309 4.54164 14.0116 4.23V3.00001C14.0116 2.44772 13.5634 2 13.0105 2H11.0084C10.4556 2 10.0074 2.44772 10.0074 3.00001V4.23C5.90988 5.16293 3.00233 8.80186 3 13C3.0546 17.8476 6.90015 21.8034 11.7492 22C15.2574 22.0939 18.5009 20.1442 20.0609 17.0038C21.6208 13.8636 21.2135 10.1041 19.0168 7.37ZM12.0091 19.9999C8.13903 19.9999 5.00172 16.866 5.00172 13C5.00172 9.13399 8.13903 5.99997 12.0091 5.99997C15.8792 5.99997 19.0166 9.13399 19.0166 13C19.0166 16.866 15.8792 19.9999 12.0091 19.9999ZM6.9375 12.9921C6.9375 11.8758 7.29877 10.844 7.91078 10.007C8.15645 9.67107 8.63936 9.67266 8.93333 9.96728L11.9826 13.0234L11.9973 8.67716C11.9987 8.26394 12.3361 7.92383 12.7449 7.98413C15.1875 8.34439 17.0622 10.4493 17.0622 12.9921C17.0622 15.7879 14.7957 18.0544 11.9999 18.0544C9.204 18.0544 6.9375 15.7879 6.9375 12.9921Z" fill="currentColor" fill-rule="evenodd" clip-rule="evenodd" />
</svg>
