<svg xmlns="http://www.w3.org/2000/svg" viewBox="0 0 24 24">
    <path d="M20.148 6.24L19.0168 7.37C21.2135 10.1041 21.6208 13.8636 20.0609 17.0038C18.5009 20.1442 15.2574 22.0939 11.7492 22C6.90015 21.8034 3.0546 17.8476 3 13C3.00233 8.80186 5.90988 5.16293 10.0074 4.23V3.00001C10.0074 2.44772 10.4556 2 11.0084 2H13.0105C13.5634 2 14.0116 2.44772 14.0116 3.00001V4.23C15.3309 4.54164 16.5627 5.14667 17.6154 6L18.7266 4.83C18.8205 4.73535 18.9485 4.6821 19.082 4.6821C19.2155 4.6821 19.3433 4.73535 19.4373 4.83L20.148 5.54C20.3388 5.73443 20.3388 6.04559 20.148 6.24ZM5.00172 13C5.00172 16.866 8.13903 19.9999 12.0091 19.9999C15.8792 19.9999 19.0166 16.866 19.0166 13C19.0166 9.13399 15.8792 5.99997 12.0091 5.99997C8.13903 5.99997 5.00172 9.13399 5.00172 13Z" fill="currentColor" fill-rule="evenodd" clip-rule="evenodd" />
    <path d="M9.68331 9.25364C9.28855 8.8589 8.64856 8.8589 8.25382 9.25364C7.85908 9.64838 7.85908 10.2884 8.25382 10.6831L10.5886 13.0179L8.25807 15.3484C7.86754 15.7389 7.86754 16.372 8.25807 16.7626C8.64859 17.1531 9.28176 17.1531 9.67228 16.7626L12.0028 14.4321L14.3212 16.7505C14.7159 17.1453 15.3559 17.1453 15.7506 16.7505C16.1454 16.3557 16.1454 15.7158 15.7506 15.321L13.4323 13.0026L15.7626 10.6723C16.1532 10.2817 16.1532 9.64857 15.7626 9.25805C15.3721 8.86754 14.7389 8.86752 14.3484 9.25805L12.0181 11.5884L9.68331 9.25364Z" fill="currentColor" fill-rule="evenodd" clip-rule="evenodd" />
</svg>
