<svg xmlns="http://www.w3.org/2000/svg" viewBox="0 0 24 24">
    <path d="M19.0169 7.37L20.1481 6.24C20.3388 6.04558 20.3388 5.73442 20.1481 5.54L19.4373 4.83C19.3433 4.73534 19.2154 4.6821 19.0819 4.6821C18.9485 4.6821 18.8205 4.73534 18.7266 4.83L17.6154 6C16.5627 5.14667 15.3309 4.54164 14.0116 4.23V3C14.0116 2.44772 13.5634 2 13.0105 2H11.0084C10.4556 2 10.0074 2.44772 10.0074 3V4.23C5.90988 5.16292 3.00232 8.80184 3 13C3.05461 17.8476 6.90015 21.8034 11.7492 22C15.2574 22.0939 18.5009 20.1442 20.0609 17.0039C21.6209 13.8636 21.2135 10.1041 19.0169 7.37ZM12.0095 20C8.13942 20 5.00211 16.866 5.00211 13C5.00211 9.13401 8.13942 6 12.0095 6C15.8796 6 19.0169 9.13401 19.0169 13C19.0169 16.866 15.8796 20 12.0095 20ZM12.1866 8.11889C12.2978 8.02319 12.4448 7.97987 12.5901 8C14.4076 8.2012 15.9706 9.37648 16.6669 11.0655C17.3633 12.7546 17.0821 14.6886 15.9336 16.11C15.8441 16.2248 15.7098 16.2959 15.5644 16.3054C15.4191 16.315 15.2766 16.262 15.1728 16.16L12.0095 13V8.5C12.011 8.35343 12.0755 8.21459 12.1866 8.11889Z" fill="currentColor" fill-rule="evenodd" clip-rule="evenodd" />
</svg>
