<svg xmlns="http://www.w3.org/2000/svg" viewBox="0 0 24 24">
    <path d="M12 2C6.47715 2 2 6.47715 2 12C2 17.5228 6.47715 22 12 22C17.5228 22 22 17.5228 22 12C22 9.34784 20.9464 6.8043 19.0711 4.92893C17.1957 3.05357 14.6522 2 12 2ZM12 20C7.58172 20 4 16.4183 4 12C4 7.58172 7.58172 4 12 4C16.4183 4 20 7.58172 20 12C20 14.1217 19.1571 16.1566 17.6569 17.6569C16.1566 19.1571 14.1217 20 12 20ZM12.1532 6.13881C12.2539 6.04192 12.3905 5.99158 12.53 6L12.57 6.02C14.7958 6.23262 16.7188 7.6653 17.5594 9.73727C18.3999 11.8092 18.0186 14.1767 16.57 15.88C16.4755 15.981 16.3433 16.0383 16.205 16.0383C16.0667 16.0383 15.9345 15.981 15.84 15.88L12 12.03V6.51C11.997 6.3703 12.0525 6.2357 12.1532 6.13881Z" fill="currentColor" fill-rule="evenodd" clip-rule="evenodd" />
</svg>
