<svg xmlns="http://www.w3.org/2000/svg" viewBox="0 0 24 24">
    <path d="M12.3201 6C14.6088 6.10372 16.7019 7.32088 17.924 9.25877C19.1462 11.1967 19.3426 13.61 18.4501 15.72L19.9401 17.21C21.6172 14.0361 21.2478 10.169 19.0001 7.37L20.1301 6.24C20.3206 6.04558 20.3206 5.73442 20.1301 5.54L19.4201 4.83C19.3262 4.73534 19.1984 4.6821 19.0651 4.6821C18.9317 4.6821 18.8039 4.73534 18.7101 4.83L17.6001 6C16.5485 5.14667 15.3179 4.54164 14.0001 4.23V3C14.0001 2.44772 13.5523 2 13.0001 2H11.0001C10.4478 2 10.0001 2.44772 10.0001 3V4.23C9.2267 4.40759 8.48023 4.68668 7.78005 5.06L9.27005 6.55C10.2329 6.14108 11.2751 5.95314 12.3201 6ZM4.03005 3.99848C4.16264 3.99848 4.28932 4.05332 4.38005 4.15L20.8501 20.62C20.9467 20.7107 21.0016 20.8374 21.0016 20.97C21.0016 21.1026 20.9467 21.2293 20.8501 21.32L20.3201 21.85C20.2293 21.9467 20.1026 22.0015 19.9701 22.0015C19.8375 22.0015 19.7108 21.9467 19.6201 21.85L17.7001 19.94C14.118 22.7651 8.98868 22.4631 5.76282 19.2372C2.53695 16.0114 2.23498 10.8821 5.06005 7.3L3.15005 5.38C3.05338 5.28927 2.99854 5.16259 2.99854 5.03C2.99854 4.89741 3.05338 4.77073 3.15005 4.68L3.68005 4.15C3.77079 4.05332 3.89747 3.99848 4.03005 3.99848ZM5.00005 13C5.00005 16.866 8.13406 20 12.0001 20C13.5522 19.9999 15.0594 19.4787 16.2801 18.52L6.48005 8.72C5.52133 9.94067 5.00016 11.4478 5.00005 13ZM11.1301 8.41C11.1696 8.171 11.3778 7.99675 11.6201 8H12.3801C12.6562 8 12.8801 8.22386 12.8801 8.5V10.16L11.1301 8.41Z" fill="currentColor" fill-rule="evenodd" clip-rule="evenodd" />
</svg>
