<svg xmlns="http://www.w3.org/2000/svg" viewBox="0 0 24 24">
    <path d="M12 2C6.47715 2 2 6.47715 2 12C2 17.5228 6.47715 22 12 22C17.5228 22 22 17.5228 22 12C22 9.34784 20.9464 6.8043 19.0711 4.92893C17.1957 3.05357 14.6522 2 12 2ZM12 20C7.58172 20 4 16.4183 4 12C4 7.58172 7.58172 4 12 4C16.4183 4 20 7.58172 20 12C20 14.1217 19.1571 16.1566 17.6569 17.6569C16.1566 19.1571 14.1217 20 12 20ZM12.1534 6.13918C12.2516 6.04482 12.384 5.99455 12.52 6C15.0804 6.24176 17.2019 8.08836 17.7945 10.5909C18.3871 13.0935 17.3189 15.6954 15.1388 17.0596C12.9587 18.4239 10.1516 18.2471 8.16 16.62C8.05902 16.5255 8.00172 16.3933 8.00172 16.255C8.00172 16.1167 8.05902 15.9845 8.16 15.89L12 12.03V6.5C11.9999 6.36385 12.0553 6.23355 12.1534 6.13918Z" fill="currentColor" fill-rule="evenodd" clip-rule="evenodd" />
</svg>
