<svg xmlns="http://www.w3.org/2000/svg" viewBox="0 0 24 24">
    <path d="M19.0168 7.37L20.148 6.24C20.3388 6.04559 20.3388 5.73443 20.148 5.54L19.4373 4.83C19.3433 4.73535 19.2155 4.6821 19.082 4.6821C18.9485 4.6821 18.8205 4.73535 18.7266 4.83L17.6154 6C16.5627 5.14667 15.3309 4.54164 14.0116 4.23V3.00001C14.0116 2.44772 13.5634 2 13.0105 2H11.0084C10.4556 2 10.0074 2.44772 10.0074 3.00001V4.23C5.90988 5.16293 3.00233 8.80186 3 13C3.0546 17.8476 6.90015 21.8034 11.7492 22C15.2574 22.0939 18.5009 20.1442 20.0609 17.0038C21.6208 13.8636 21.2135 10.1041 19.0168 7.37ZM12.0091 19.9999C8.13903 19.9999 5.00172 16.866 5.00172 13C5.00172 9.13399 8.13903 5.99997 12.0091 5.99997C15.8791 5.99997 19.0164 9.13399 19.0164 13C19.0164 16.866 15.8791 19.9999 12.0091 19.9999ZM6.97014 13.976C6.88915 13.558 7.23492 13.2016 7.66071 13.2016H12V8.62713C12 8.21273 12.338 7.8711 12.748 7.93141C15.2194 8.29493 17.1165 10.4242 17.1165 12.9966C17.1165 15.8242 14.8242 18.1165 11.9965 18.1165C9.50381 18.1165 7.42715 16.3351 6.97014 13.976Z" fill="currentColor" fill-rule="evenodd" clip-rule="evenodd" />
</svg>
