<svg xmlns="http://www.w3.org/2000/svg" viewBox="0 0 24 24">
    <path d="M22.905 19.63C23.0349 19.8667 23.0349 20.1533 22.905 20.39L22.765 20.62C22.6354 20.8573 22.3852 21.0035 22.1148 21H1.89005C1.61967 21.0035 1.36952 20.8573 1.23989 20.62L1.09986 20.39C0.969968 20.1533 0.969968 19.8667 1.09986 19.63L11.2123 2.37C11.3491 2.14121 11.5958 2.00081 11.8624 2H12.1625C12.4291 2.00081 12.6758 2.14121 12.8126 2.37L22.905 19.63ZM14.9331 12.94C14.9762 12.8599 15.0002 12.7709 15.0032 12.68V12.5C15.0032 12.2239 14.7792 12 14.503 12H12.6126L12.9727 9.52C12.9905 9.39134 12.9543 9.26103 12.8726 9.16C12.7834 9.06019 12.6565 9.00218 12.5226 9C12.3404 8.99387 12.1688 9.08536 12.0725 9.24L9.07175 14.15C9.02868 14.2301 9.00471 14.3191 9.00173 14.41V14.57C9.00173 14.8461 9.22564 15.07 9.50185 15.07H11.3923L11.0522 17.48C11.0344 17.6087 11.0706 17.739 11.1522 17.84C11.2415 17.9398 11.3684 17.9978 11.5023 18H11.5423C11.7028 18.0032 11.8522 17.9189 11.9324 17.78L14.9331 12.94Z" fill="currentColor" fill-rule="evenodd" clip-rule="evenodd" />
</svg>
