<svg xmlns="http://www.w3.org/2000/svg" viewBox="0 0 24 24">
    <path d="M21.5 5H21.12C20.7223 5.00035 20.341 5.15862 20.06 5.44L17 8.5L12.72 4.22C12.5795 4.07931 12.3888 4.00018 12.19 4H11.81C11.6112 4.00018 11.4205 4.07931 11.28 4.22L7 8.5L3.94 5.44C3.65897 5.15862 3.27769 5.00035 2.88 5H2.5C2.22386 5 2 5.22386 2 5.5V15.5C2 15.7761 2.22386 16 2.5 16H21.5C21.7761 16 22 15.7761 22 15.5V5.5C22 5.22386 21.7761 5 21.5 5ZM12 13C10.8954 13 10 12.1046 10 11C10 9.89543 10.8954 9 12 9C13.1046 9 14 9.89543 14 11C14 12.1046 13.1046 13 12 13ZM2 18.5C2 18.2239 2.22386 18 2.5 18H21.5C21.7761 18 22 18.2239 22 18.5V19.5C22 19.7761 21.7761 20 21.5 20H2.5C2.22386 20 2 19.7761 2 19.5V18.5Z" fill="currentColor" fill-rule="evenodd" clip-rule="evenodd" />
</svg>
