<svg xmlns="http://www.w3.org/2000/svg" viewBox="0 0 24 24">
    <path d="M22 8.84V9.14C22.0005 9.37365 21.9191 9.60009 21.77 9.78L12.77 20.64C12.5797 20.8685 12.2975 21.0005 12 21C11.7026 21.0005 11.4204 20.8685 11.23 20.64L2.23003 9.78C2.08095 9.60009 1.99957 9.37365 2.00003 9.14V8.84C1.99818 8.58872 2.091 8.34595 2.26003 8.16L6.41003 3.65C6.78758 3.23731 7.32069 3.00158 7.88003 3H16.12C16.6794 3.00158 17.2125 3.23731 17.59 3.65L21.74 8.16C21.9091 8.34595 22.0019 8.58872 22 8.84Z" fill="currentColor" />
</svg>
