<svg xmlns="http://www.w3.org/2000/svg" viewBox="0 0 24 24">
    <path d="M22 9.14V8.84C22.0019 8.58872 21.9091 8.34595 21.74 8.16L17.59 3.65C17.2125 3.23731 16.6794 3.00158 16.12 3H7.88003C7.32069 3.00158 6.78758 3.23731 6.41003 3.65L2.26003 8.16C2.091 8.34595 1.99818 8.58872 2.00003 8.84V9.14C1.99957 9.37365 2.08095 9.60009 2.23003 9.78L11.23 20.64C11.4204 20.8685 11.7026 21.0005 12 21C12.2975 21.0005 12.5797 20.8685 12.77 20.64L21.77 9.78C21.9191 9.60009 22.0005 9.37365 22 9.14ZM15.5 11.3599C15.7761 11.3599 16 11.136 16 10.8599V9.85986C16 9.58372 15.7761 9.35986 15.5 9.35986H13V6.85986C13 6.58372 12.7761 6.35986 12.5 6.35986H11.5C11.2239 6.35986 11 6.58372 11 6.85986V9.35986H8.5C8.22386 9.35986 8 9.58372 8 9.85986V10.8599C8 11.136 8.22386 11.3599 8.5 11.3599H11V13.8599C11 14.136 11.2239 14.3599 11.5 14.3599H12.5C12.7761 14.3599 13 14.136 13 13.8599V11.3599H15.5Z" fill="currentColor" fill-rule="evenodd" clip-rule="evenodd" />
</svg>
