<svg xmlns="http://www.w3.org/2000/svg" viewBox="0 0 24 24">
    <path d="M12.26 19.8098C13.7183 20.5896 15.3463 20.9983 17 20.9998H17.67C18.203 21.0002 18.7142 20.7878 19.09 20.4098L20.78 18.7198C20.9454 18.5557 21.0251 18.324 20.9957 18.0928C20.9664 17.8617 20.8312 17.6573 20.63 17.5398L16.77 15.2898C16.3771 15.0623 15.8802 15.128 15.56 15.4498L13.67 17.3398C13.5148 17.4967 13.275 17.5333 13.08 17.4298L12.42 17.0698C10.0893 15.817 8.17704 13.9082 6.92 11.5798L6.57 10.9198C6.46647 10.7248 6.50304 10.485 6.66 10.3298L8.55 8.43978C8.87183 8.11954 8.93753 7.62267 8.71 7.22978L6.46 3.36978C6.34248 3.16858 6.13811 3.03342 5.90696 3.00404C5.67581 2.97466 5.44413 3.05438 5.28 3.21978L3.59 4.90978C3.21196 5.28558 2.99958 5.79674 3 6.32978V6.99978C3.00713 8.67048 3.42982 10.3132 4.23 11.7798L4.48 12.2298C6.15169 15.339 8.70075 17.8881 11.81 19.5598L12.26 19.8098ZM15.9 4.64978L18.9 7.64978H18.86C19.0426 7.84892 19.0382 8.15594 18.85 8.34978L15.85 11.3498C15.7072 11.4898 15.4946 11.5313 15.3096 11.4551C15.1246 11.3789 15.0028 11.1998 15 10.9998V8.99978H12.5C12.2239 8.99978 12 8.77592 12 8.49978V7.49978C12 7.22364 12.2239 6.99978 12.5 6.99978H15V4.99978C14.9756 4.77499 15.1051 4.5618 15.3159 4.47985C15.5266 4.3979 15.7661 4.46757 15.9 4.64978Z" fill="currentColor" fill-rule="evenodd" clip-rule="evenodd" />
</svg>
