<svg xmlns="http://www.w3.org/2000/svg" viewBox="0 0 24 24">
    <path d="M6.79355 4.85547C5.34957 5.30955 4.03561 6.12557 2.96775 7.23145L2.53549 7.67987C2.19132 8.03635 1.99856 8.52061 2.00001 9.02515V11.2874C1.99918 11.5079 2.09722 11.7163 2.26531 11.8514C2.4334 11.9864 2.65244 12.0327 2.85807 11.9767L6.8 10.8992C7.20028 10.7885 7.47845 10.412 7.47742 9.98224L7.47742 7.45232C7.47631 7.24337 7.60742 7.05839 7.8 6.9972L8.45807 6.79641C10.77 6.07496 13.2352 6.07263 15.5484 6.78972L16.2 6.9972C16.3926 7.05839 16.5237 7.24337 16.5226 7.45232V9.98224C16.5216 10.412 16.7997 10.7885 17.2 10.8992L21.1419 11.9767C21.3476 12.0327 21.5666 11.9864 21.7347 11.8514C21.9028 11.7163 22.0008 11.5079 22 11.2874V9.02515C22.0014 8.52061 21.8087 8.03635 21.4645 7.67987L21.0323 7.23145C19.9498 6.11804 18.6173 5.30152 17.1548 4.85547L16.7032 4.72161C13.6187 3.75946 10.3296 3.75946 7.24517 4.72161L6.79355 4.85547Z" fill="currentColor" />
    <path d="M7 16C7 13.2386 9.23858 11 12 11C13.3261 11 14.5979 11.5268 15.5355 12.4645C16.4732 13.4021 17 14.6739 17 16C17 18.7614 14.7614 21 12 21C9.23858 21 7 18.7614 7 16ZM12.3749 19.0001C12.582 19.0001 12.7499 18.8042 12.7499 18.5626V15.9376C12.7499 15.696 12.582 15.5001 12.3749 15.5001H11.6249C11.4178 15.5001 11.2499 15.696 11.2499 15.9376V18.5626C11.2499 18.8042 11.4178 19.0001 11.6249 19.0001H12.3749ZM12.7499 14.1251C12.7499 14.3322 12.582 14.5001 12.3749 14.5001H11.6249C11.4178 14.5001 11.2499 14.3322 11.2499 14.1251V13.3751C11.2499 13.168 11.4178 13.0001 11.6249 13.0001H12.3749C12.582 13.0001 12.7499 13.168 12.7499 13.3751V14.1251Z" fill="currentColor" fill-rule="evenodd" clip-rule="evenodd" />
</svg>
