<svg xmlns="http://www.w3.org/2000/svg" viewBox="0 0 24 24">
    <path d="M19.09 20.4098C18.7142 20.7878 18.203 21.0002 17.67 20.9998H17C15.3293 20.9927 13.6866 20.57 12.22 19.7698L11.77 19.5198C8.66075 17.8481 6.11169 15.299 4.44 12.1898L4.19 11.7398C3.41014 10.2815 3.00144 8.65353 3 6.99978V6.32978C2.99958 5.79674 3.21196 5.28558 3.59 4.90978L5.28 3.21978C5.44413 3.05438 5.67581 2.97466 5.90696 3.00404C6.13811 3.03342 6.34248 3.16858 6.46 3.36978L8.71 7.22978C8.93753 7.62267 8.87183 8.11954 8.55 8.43978L6.66 10.3298C6.50304 10.485 6.46647 10.7248 6.57 10.9198L6.92 11.5798C8.17704 13.9082 10.0893 15.817 12.42 17.0698L13.08 17.4298C13.275 17.5333 13.5148 17.4967 13.67 17.3398L15.56 15.4498C15.8802 15.128 16.3771 15.0623 16.77 15.2898L20.63 17.5398C20.8312 17.6573 20.9664 17.8617 20.9957 18.0928C21.0251 18.324 20.9454 18.5557 20.78 18.7198L19.09 20.4098ZM17 10.4098C16.7377 8.64651 15.3533 7.26209 13.59 6.99978C13.4443 6.98485 13.2991 7.03205 13.19 7.12978C13.0808 7.22572 13.0187 7.36443 13.02 7.50978V8.50978C13.0159 8.74883 13.185 8.9559 13.42 8.99978C14.2231 9.15206 14.8527 9.77769 15.01 10.5798C15.0539 10.8148 15.261 10.9838 15.5 10.9798H16.5C16.6454 10.981 16.7841 10.919 16.88 10.8098C16.9741 10.6991 17.0176 10.554 17 10.4098Z" fill="currentColor" fill-rule="evenodd" clip-rule="evenodd" />
</svg>
