<svg xmlns="http://www.w3.org/2000/svg" viewBox="0 0 24 24">
    <path d="M19.0164 11.9857C19.0164 14.1917 17.2239 15.98 15.0127 15.98H6.00455C5.20238 15.9648 4.42744 16.2704 3.85259 16.8288L1.85077 18.826C1.75902 18.921 1.63269 18.975 1.50045 18.9757C1.22406 18.9757 1 18.7522 1 18.4765V5.99429C1 3.78831 2.79249 2 5.00364 2H15.0127C17.2239 2 19.0164 3.78831 19.0164 5.99429V11.9857ZM21.0182 13.9829V5.99429C22.1159 6.00525 23.0001 6.8962 23 7.99144V22.5007C23 22.7765 22.7759 23 22.4995 23C22.3673 22.9992 22.241 22.9452 22.1492 22.8502L20.1474 20.8531C19.5824 20.2886 18.815 19.9724 18.0155 19.9743H7.00546C5.89989 19.9743 5.00364 19.0802 5.00364 17.9772H17.0146C19.2257 17.9772 21.0182 16.1889 21.0182 13.9829Z" fill="currentColor" fill-rule="evenodd" clip-rule="evenodd" />
</svg>
