<svg xmlns="http://www.w3.org/2000/svg" viewBox="0 0 24 24">
    <path d="M4 3H20C21.1046 3 22 3.89543 22 5V17C22 18.1046 21.1046 19 20 19H14.91C14.6477 19.0011 14.3963 19.1053 14.21 19.29L12.72 20.78C12.5795 20.9207 12.3888 20.9998 12.19 21H11.81C11.6112 20.9998 11.4205 20.9207 11.28 20.78L9.79 19.29C9.60374 19.1053 9.35234 19.0011 9.09 19H4C2.89543 19 2 18.1046 2 17V5C2 3.89543 2.89543 3 4 3ZM18.5 15C18.7761 15 19 14.7761 19 14.5V7.5C19 7.22386 18.7761 7 18.5 7H18.41C18.1477 7.0011 17.8963 7.10526 17.71 7.29L15 10V7.5C15 6.67157 14.3284 6 13.5 6H6.5C5.67157 6 5 6.67157 5 7.5V14.5C5 15.3284 5.67157 16 6.5 16H13.5C14.3284 16 15 15.3284 15 14.5V12L17.71 14.71C17.8963 14.8947 18.1477 14.9989 18.41 15H18.5Z" fill="currentColor" fill-rule="evenodd" clip-rule="evenodd" />
</svg>
