<svg xmlns="http://www.w3.org/2000/svg" viewBox="0 0 24 24">
    <path d="M20 1C20 0.447715 19.5523 0 19 0H5C4.44772 0 4 0.447715 4 1V2H20V1ZM20 4H4C2.89543 4 2 4.89543 2 6V18C2 19.1046 2.89543 20 4 20H20C21.1046 20 22 19.1046 22 18V6C22 4.89543 21.1046 4 20 4ZM12 6.75C13.2426 6.75 14.25 7.75736 14.25 9C14.25 10.2426 13.2426 11.25 12 11.25C10.7574 11.25 9.75 10.2426 9.75 9C9.74733 8.40245 9.98352 7.8286 10.4061 7.40606C10.8286 6.98352 11.4024 6.74733 12 6.75ZM7.10956 16.6427C7.2463 16.8652 7.48889 17.0005 7.75 17H16.25C16.5075 16.9937 16.7438 16.8556 16.8758 16.6344C17.0077 16.4131 17.0169 16.1396 16.9 15.91L16 14.1C15.6627 13.4306 14.9795 13.006 14.23 13H9.77C9.02049 13.006 8.33727 13.4306 8 14.1L7.08 15.91C6.96163 16.1427 6.97282 16.4203 7.10956 16.6427ZM5 24C4.44772 24 4 23.5523 4 23V22H20V23C20 23.5523 19.5523 24 19 24H5Z" fill="currentColor" fill-rule="evenodd" clip-rule="evenodd" />
</svg>
