<svg xmlns="http://www.w3.org/2000/svg" viewBox="0 0 24 24">
    <path d="M21 3.00616H10V4.16185L15.5 7.55689L21 4.16185V3.00616ZM14.1057 11.0308H21V6.51744L16.5482 9.26545C15.9054 9.66225 15.0946 9.66225 14.4518 9.26545L10 6.51744V9.54724H11C12.2535 9.54724 13.3723 10.1256 14.1057 11.0308ZM8 9.54724V3.00616C8 1.89819 8.89543 1 10 1H21C22.1046 1 23 1.89819 23 3.00616V11.0308C23 12.1388 22.1046 13.037 21 13.037H14.9664C14.9886 13.208 15 13.3824 15 13.5596V16.0804C15 18.2964 13.2091 20.0927 11 20.0927H5.64307C4.82977 20.0927 4.05132 20.424 3.48606 21.0105L1.6876 22.8768C1.43765 23.1362 1 22.9587 1 22.598L1 13.5596C1 11.3436 2.79086 9.54724 5 9.54724H8ZM11 11.5534H5C3.89543 11.5534 3 12.4516 3 13.5596V18.8446C3.78636 18.3534 4.70068 18.0866 5.64307 18.0866H11C12.1046 18.0866 13 17.1884 13 16.0804V13.5596C13 12.4516 12.1046 11.5534 11 11.5534Z" fill="currentColor" fill-rule="evenodd" clip-rule="evenodd" />
</svg>
