<svg xmlns="http://www.w3.org/2000/svg" viewBox="0 0 24 24">
    <path d="M3 4H19C20.1046 4 21 4.89543 21 6V13.416C22.7659 14.1876 24 15.9497 24 18C24 20.7614 21.7614 23 19 23C16.9497 23 15.1876 21.7659 14.416 20H3C1.89543 20 1 19.1046 1 18V6C1 4.89543 1.89543 4 3 4ZM19 11V13C16.2386 13 14 15.2386 14 18H3V11L9.35 15.44C10.341 16.1327 11.659 16.1327 12.65 15.44L19 11ZM19 8.9V6H3V8.9L10.35 14.05C10.7409 14.3213 11.2591 14.3213 11.65 14.05L19 8.9ZM17 17C16.4477 17 16 17.4477 16 18C16 18.5523 16.4477 19 17 19H18V20C18 20.5523 18.4477 21 19 21C19.5523 21 20 20.5523 20 20V19H21C21.5523 19 22 18.5523 22 18C22 17.4477 21.5523 17 21 17H20V16C20 15.4477 19.5523 15 19 15C18.4477 15 18 15.4477 18 16V17H17Z" fill="currentColor" fill-rule="evenodd" clip-rule="evenodd" />
</svg>
