<svg xmlns="http://www.w3.org/2000/svg" viewBox="0 0 24 24">
    <path d="M3 4H19C20.1046 4 21 4.89543 21 6V13.416C22.7659 14.1876 24 15.9497 24 18C24 20.7614 21.7614 23 19 23C16.9497 23 15.1876 21.7659 14.416 20H3C1.89543 20 1 19.1046 1 18V6C1 4.89543 1.89543 4 3 4ZM19 11V13C16.2386 13 14 15.2386 14 18H3V11L9.35 15.44C10.341 16.1327 11.659 16.1327 12.65 15.44L19 11ZM19 8.9V6H3V8.9L10.35 14.05C10.7409 14.3213 11.2591 14.3213 11.65 14.05L19 8.9ZM16.7002 18.2641C16.7002 18.3141 16.7185 18.362 16.7509 18.3972L19.0801 20.9432C19.1113 20.9794 19.1547 21 19.2002 21C19.2457 21 19.2891 20.9794 19.3203 20.9432L21.6495 18.3972C21.6819 18.362 21.7002 18.3141 21.7002 18.2641C21.7002 18.2141 21.6819 18.1662 21.6495 18.131L21.5809 18.056C21.5486 18.0193 21.5039 17.999 21.4574 17.9997H20.2293V15.1875C20.2293 15.0839 20.1525 15 20.0578 15H18.3426C18.2479 15 18.1711 15.0839 18.1711 15.1875V17.9997H16.943C16.8965 17.999 16.8518 18.0193 16.8195 18.056L16.7509 18.131C16.7185 18.1662 16.7002 18.2141 16.7002 18.2641Z" fill="currentColor" fill-rule="evenodd" clip-rule="evenodd" />
</svg>
