<svg xmlns="http://www.w3.org/2000/svg" viewBox="0 0 24 24">
    <path d="M19 4H3C1.89543 4 1 4.89543 1 6V18C1 19.1046 1.89543 20 3 20H14.416C15.1876 21.7659 16.9497 23 19 23C21.7614 23 24 20.7614 24 18C24 15.9497 22.7659 14.1876 21 13.416V6C21 4.89543 20.1046 4 19 4ZM19 13V11L12.65 15.44C11.659 16.1327 10.341 16.1327 9.35 15.44L3 11V18H14C14 15.2386 16.2386 13 19 13ZM19 6V8.9L11.65 14.05C11.2591 14.3213 10.7409 14.3213 10.35 14.05L3 8.9V6H19ZM16 18C16 17.4477 16.4477 17 17 17H21C21.5523 17 22 17.4477 22 18C22 18.5523 21.5523 19 21 19H17C16.4477 19 16 18.5523 16 18Z" fill="currentColor" fill-rule="evenodd" clip-rule="evenodd" />
</svg>
