<svg xmlns="http://www.w3.org/2000/svg" viewBox="0 0 24 24">
    <path d="M3 4H19C20.1045 4 21 4.89551 21 6V13.416C22.7661 14.1875 24 15.9497 24 18C24 20.7612 21.7612 23 19 23C16.9497 23 15.1875 21.7661 14.416 20H3C1.89551 20 1 19.1045 1 18V6C1 4.89551 1.89551 4 3 4ZM19 11V13C16.2388 13 14 15.2388 14 18H3V11L9.3501 15.4399C10.3408 16.1328 11.6592 16.1328 12.6499 15.4399L19 11ZM19 8.8999V6H3V8.8999L10.3501 14.0498C10.7407 14.3213 11.2593 14.3213 11.6499 14.0498L19 8.8999ZM22.2998 17.1001C22.6313 16.6582 22.542 16.0312 22.1001 15.7002C21.6582 15.3687 21.0312 15.458 20.7002 15.8999L18.4746 18.8672L17.2808 17.3755C16.936 16.9443 16.3066 16.874 15.8755 17.2192C15.4438 17.564 15.374 18.1934 15.7192 18.6245L17.6787 21.0742C18.1074 21.6104 18.9268 21.5977 19.3389 21.0483L22.2998 17.1001Z" fill="currentColor" fill-rule="evenodd" clip-rule="evenodd" />
</svg>
