<svg xmlns="http://www.w3.org/2000/svg" viewBox="0 0 24 24">
    <path d="M13.9985 16.5798C13.9965 16.7154 14.0508 16.8457 14.1485 16.9398L14.3485 17.1398C14.4424 17.2345 14.5702 17.2877 14.7035 17.2877C14.8368 17.2877 14.9646 17.2345 15.0585 17.1398L20.8485 11.3498C20.9452 11.2591 21 11.1324 21 10.9998C21 10.8672 20.9452 10.7405 20.8485 10.6498L15.0585 4.85981C14.9646 4.76516 14.8368 4.71191 14.7035 4.71191C14.5702 4.71191 14.4424 4.76516 14.3485 4.85981L14.1485 5.05981C14.0508 5.15389 13.9965 5.28423 13.9985 5.41981V7.99981C8.14299 8.10394 3.35249 12.6941 2.99848 18.5398C2.99727 18.6607 3.0399 18.7779 3.11848 18.8698C3.20421 18.9531 3.31898 18.9997 3.43848 18.9998H3.53848C3.77922 18.9989 3.98515 18.8266 4.02848 18.5898C4.49848 15.9998 9.27848 13.9998 13.9985 13.9998V16.5798Z" fill="currentColor" />
</svg>
