<svg xmlns="http://www.w3.org/2000/svg" viewBox="0 0 24 24">
    <path d="M9.99299 5.99384V13.4938C9.99299 13.77 9.76913 13.9938 9.49299 13.9938H8.49299C8.21685 13.9938 7.99299 13.77 7.99299 13.4938V5.99384H5.99299C5.79295 5.99103 5.61385 5.86925 5.53767 5.68426C5.4615 5.49927 5.50293 5.28669 5.64299 5.14384L8.64299 2.14384C8.8408 1.95205 9.15518 1.95205 9.35299 2.14384L12.353 5.14384C12.4943 5.28799 12.5351 5.50297 12.4563 5.68884C12.3776 5.87472 12.1948 5.99502 11.993 5.99384H9.99299ZM11.633 18.8538L14.633 21.8538C14.8348 22.0494 15.1567 22.045 15.353 21.8438L18.353 18.8438C18.4943 18.6997 18.5351 18.4847 18.4563 18.2988C18.3776 18.113 18.1948 17.9927 17.993 17.9938H15.993V10.4938C15.993 10.2177 15.7691 9.99384 15.493 9.99384H14.493C14.2168 9.99384 13.993 10.2177 13.993 10.4938V17.9938H11.993C11.7867 17.9884 11.5983 18.1102 11.5186 18.3006C11.4389 18.4909 11.4843 18.7107 11.633 18.8538Z" fill="currentColor" fill-rule="evenodd" clip-rule="evenodd" />
</svg>
