<svg xmlns="http://www.w3.org/2000/svg" viewBox="0 0 24 24">
    <path d="M22 6C22 3.79086 20.2091 2 18 2H6C3.79086 2 2 3.79086 2 6V21.5C2 21.7761 2.22386 22 2.5 22C2.63212 21.9992 2.75833 21.9451 2.85 21.85L5.85 18.85C6.42433 18.2908 7.19856 17.9847 8 18H18C20.2091 18 22 16.2091 22 14V6ZM18 16H8C6.67301 15.9976 5.39951 16.5229 4.46 17.46L4 17.88V6C4 4.89543 4.89543 4 6 4H18C19.1046 4 20 4.89543 20 6V14C20 15.1046 19.1046 16 18 16ZM12 11.4142L10.2322 13.182C10.037 13.3772 9.72039 13.3772 9.52513 13.182L8.81802 12.4749C8.62276 12.2796 8.62276 11.963 8.81802 11.7678L10.5858 10L8.81802 8.23223C8.62276 8.03697 8.62276 7.72039 8.81802 7.52513L9.52513 6.81802C9.72039 6.62276 10.037 6.62276 10.2322 6.81802L12 8.58579L13.7678 6.81802C13.963 6.62276 14.2796 6.62276 14.4749 6.81802L15.182 7.52513C15.3772 7.72039 15.3772 8.03697 15.182 8.23223L13.4142 10L15.182 11.7678C15.3772 11.963 15.3772 12.2796 15.182 12.4749L14.4749 13.182C14.2796 13.3772 13.963 13.3772 13.7678 13.182L12 11.4142Z" fill="currentColor" fill-rule="evenodd" clip-rule="evenodd" />
</svg>
