<svg xmlns="http://www.w3.org/2000/svg" viewBox="0 0 24 24">
    <path d="M6 2H18C20.2091 2 22 3.79086 22 6V14C22 16.2091 20.2091 18 18 18H8C7.19856 17.9847 6.42433 18.2908 5.85 18.85L2.85 21.85C2.75833 21.9451 2.63212 21.9992 2.5 22C2.22386 22 2 21.7761 2 21.5V6C2 3.79086 3.79086 2 6 2ZM11.17 13.22L15.06 10.62C15.2696 10.4834 15.396 10.2502 15.396 10C15.396 9.74982 15.2696 9.51658 15.06 9.38L11.17 6.78C10.9403 6.62476 10.6438 6.60887 10.3988 6.73867C10.1539 6.86846 10.0005 7.12279 10 7.4V12.6C10.0005 12.8772 10.1539 13.1315 10.3988 13.2613C10.6438 13.3911 10.9403 13.3752 11.17 13.22Z" fill="currentColor" fill-rule="evenodd" clip-rule="evenodd" />
</svg>
