<svg xmlns="http://www.w3.org/2000/svg" viewBox="0 0 24 24">
    <path d="M20.85 8.56L12.63 16.78C12.4895 16.9207 12.2988 16.9998 12.1 17H11.9C11.7012 16.9998 11.5105 16.9207 11.37 16.78L5 10.42V14.5C5 14.7761 4.77614 15 4.5 15H3.5C3.22386 15 3 14.7761 3 14.5V8C3.00018 7.80115 3.07931 7.61052 3.22 7.47L3.49 7.2C3.6287 7.07141 3.81086 6.99998 4 7H10.5C10.7761 7 11 7.22386 11 7.5V8.5C11 8.77614 10.7761 9 10.5 9H6.41L12 14.59L19.44 7.15C19.5339 7.05534 19.6617 7.0021 19.795 7.0021C19.9283 7.0021 20.0561 7.05534 20.15 7.15L20.85 7.85C20.9447 7.94388 20.9979 8.07168 20.9979 8.205C20.9979 8.33832 20.9447 8.46612 20.85 8.56Z" fill="currentColor" />
</svg>
