<svg xmlns="http://www.w3.org/2000/svg" viewBox="0 0 24 24">
    <path d="M23 15V5C23 3.89543 22.1046 3 21 3H7C5.89543 3 5 3.89543 5 5V15C5 16.1046 5.89543 17 7 17H21C22.1046 17 23 16.1046 23 15ZM14 13.0001C13.4092 13.0032 12.8322 12.8214 12.35 12.4801L7 8.7301V6.6001L13.35 11.0501C13.7409 11.3214 14.2591 11.3214 14.65 11.0501L21 6.6001V8.7301L15.65 12.4801C15.1678 12.8214 14.5908 13.0032 14 13.0001ZM2.98522 14.9886V7C1.88747 7.01095 1.00336 7.90191 1.00342 8.99715V23.5064C1.00342 23.7822 1.22748 24.0057 1.50387 24.0057C1.63611 24.0049 1.76244 23.9509 1.85419 23.8559L3.85601 21.8588C4.42104 21.2944 5.18838 20.9781 5.98795 20.98H16.998C18.1035 20.98 18.9998 20.0859 18.9998 18.9829H6.98886C4.77771 18.9829 2.98522 17.1946 2.98522 14.9886Z" fill="currentColor" fill-rule="evenodd" clip-rule="evenodd" />
</svg>
