<svg xmlns="http://www.w3.org/2000/svg" viewBox="0 0 24 24">
    <path d="M7.00024 15.3747L2.97924 11.3537C2.78024 11.1557 2.78024 10.8437 2.97924 10.6457L7.00024 6.62475V5.41575C7.00024 5.28375 6.94724 5.15575 6.85424 5.06175L6.64624 4.85475C6.45124 4.65975 6.13524 4.65975 5.93924 4.85475L0.148238 10.6457C-0.0487617 10.8437 -0.0487617 11.1557 0.148238 11.3537L5.93924 17.1447C6.13524 17.3397 6.45124 17.3397 6.64624 17.1447L6.85424 16.9377C6.94724 16.8437 7.00024 16.7157 7.00024 16.5837V15.3747ZM13.0002 5.41575V7.99975C18.6302 7.99975 23.7462 12.6797 24.0002 18.5427C24.0052 18.6627 23.9612 18.7787 23.8782 18.8647C23.7952 18.9507 23.6822 18.9997 23.5622 18.9997H23.4632C23.2222 18.9997 23.0162 18.8267 22.9722 18.5887C22.5052 16.0197 17.7182 13.9997 13.0002 13.9997V16.5837C13.0002 16.7157 12.9472 16.8437 12.8542 16.9377L12.6462 17.1447C12.4512 17.3397 12.1352 17.3397 11.9392 17.1447L6.14824 11.3537C5.95124 11.1557 5.95124 10.8437 6.14824 10.6457L11.9392 4.85475C12.1352 4.65975 12.4512 4.65975 12.6462 4.85475L12.8542 5.06175C12.9472 5.15575 13.0002 5.28375 13.0002 5.41575Z" fill="currentColor" fill-rule="evenodd" clip-rule="evenodd" />
</svg>
