<svg xmlns="http://www.w3.org/2000/svg" viewBox="0 0 24 24">
    <path d="M9.14551 6.64258C9.2896 6.50163 9.50475 6.46065 9.69043 6.53906C9.87639 6.61783 9.99728 6.80194 9.99609 7.00391V9.00488H17.5C17.776 9.00518 17.9999 9.22882 18 9.50488V10.5059C17.9997 10.7817 17.7759 11.0056 17.5 11.0059H9.99609V13.0068C9.9932 13.2067 9.87127 13.3856 9.68652 13.4619C9.50145 13.5381 9.28843 13.4966 9.14551 13.3564L6.14355 10.3555C5.95193 10.1576 5.95183 9.84239 6.14355 9.64453L9.14551 6.64258Z" fill="currentColor" />
    <path d="M18 2C20.2091 2 22 3.79086 22 6V14C22 16.2091 20.2091 18 18 18H8C7.19856 17.9847 6.42394 18.2904 5.84961 18.8496L2.84961 21.8496C2.75794 21.9447 2.63212 21.9992 2.5 22C2.22386 22 2 21.7761 2 21.5V6C2 3.79086 3.79086 2 6 2H18ZM6 4C4.89543 4 4 4.89543 4 6V17.8799L4.45996 17.46C5.39947 16.5228 6.67301 15.9976 8 16H18C19.1046 16 20 15.1046 20 14V6C20 4.89543 19.1046 4 18 4H6Z" fill="currentColor" fill-rule="evenodd" clip-rule="evenodd" />
</svg>
