<svg xmlns="http://www.w3.org/2000/svg" viewBox="0 0 24 24">
    <path d="M17 4.00009C19.7614 4.00009 22 6.23867 22 9.00009C22.0066 10.083 21.655 11.1377 21 12.0001V18.0001C21 19.1047 20.1046 20.0001 19 20.0001H4C2.89543 20.0001 2 19.1047 2 18.0001V7.00009C2 5.89552 2.89543 5.00009 4 5.00009H14C14.8624 4.34504 15.9171 3.99347 17 4.00009ZM12.42 7.00009H4V9.25009L10.85 14.0501C11.2409 14.3214 11.7591 14.3214 12.15 14.0501L13.85 12.8501C12.1024 11.4496 11.5156 9.0488 12.42 7.00009ZM19 18.0001H4V11.3901L9.85 15.4801C10.841 16.1728 12.159 16.1728 13.15 15.4801L15.59 13.7701C16.0456 13.9177 16.5211 13.9953 17 14.0001C17.6887 14.001 18.3699 13.858 19 13.5801V18.0001ZM19.5 9.88009C19.7761 9.88009 20 9.65623 20 9.38009V8.62009C20 8.34395 19.7761 8.12009 19.5 8.12009H14.5C14.2239 8.12009 14 8.34395 14 8.62009V9.38009C14 9.65623 14.2239 9.88009 14.5 9.88009H19.5Z" fill="currentColor" fill-rule="evenodd" clip-rule="evenodd" />
</svg>
