<svg xmlns="http://www.w3.org/2000/svg" viewBox="0 0 24 24">
    <path d="M18 7C15.2386 7 13 9.23858 13 12C12.9941 13.0828 13.3456 14.1373 14 15H10C10.6544 14.1373 11.0059 13.0828 11 12C11 9.23858 8.76142 7 6 7C3.23858 7 1 9.23858 1 12C1 14.7614 3.23858 17 6 17H18C20.7614 17 23 14.7614 23 12C23 9.23858 20.7614 7 18 7ZM3 12C3 10.3431 4.34315 9 6 9C7.65685 9 9 10.3431 9 12C9 13.6569 7.65685 15 6 15C5.20435 15 4.44129 14.6839 3.87868 14.1213C3.31607 13.5587 3 12.7956 3 12ZM18 9C16.3431 9 15 10.3431 15 12C15 13.6569 16.3431 15 18 15C18.7956 15 19.5587 14.6839 20.1213 14.1213C20.6839 13.5587 21 12.7956 21 12C21 10.3431 19.6569 9 18 9Z" fill="currentColor" fill-rule="evenodd" clip-rule="evenodd" />
</svg>
