<svg xmlns="http://www.w3.org/2000/svg" viewBox="0 0 24 24">
    <path d="M7.5 2H8.5C8.77614 2 9 2.22386 9 2.5V5H7V2.5C7 2.22386 7.22386 2 7.5 2ZM9 22C7.89543 22 7 21.1046 7 20V7.5C7 7.22386 7.22386 7 7.5 7H15.17C15.703 6.99958 16.2142 7.21196 16.59 7.59L21.41 12.41C21.788 12.7858 22.0004 13.297 22 13.83V20C22 21.1046 21.1046 22 20 22H9ZM15 13C15 13.5523 15.4477 14 16 14H20.18L15 8.82V13ZM5 7H2.5C2.22386 7 2 7.22386 2 7.5V8.5C2 8.77614 2.22386 9 2.5 9H5V7Z" fill="currentColor" fill-rule="evenodd" clip-rule="evenodd" />
</svg>
