<svg xmlns="http://www.w3.org/2000/svg" viewBox="0 0 24 24">
    <path d="M22 20.5C22 21.8807 20.8807 23 19.5 23C18.1193 23 17 21.8807 17 20.5C17 19.1193 18.1193 18 19.5 18C20.8807 18 22 19.1193 22 20.5Z" fill="currentColor" />
    <path d="M6 8C6 7.44775 6.44775 7 7 7H15C15.5522 7 16 7.44775 16 8C16 8.55225 15.5522 9 15 9H7C6.44775 9 6 8.55225 6 8Z" fill="currentColor" />
    <path d="M7 10C6.44775 10 6 10.4478 6 11C6 11.5522 6.44775 12 7 12H11C11.5522 12 12 11.5522 12 11C12 10.4478 11.5522 10 11 10H7Z" fill="currentColor" />
    <path d="M2 5C2 3.89539 2.89551 3 4 3H18C19.1045 3 20 3.89539 20 5V14C20 15.1046 19.1045 16 18 16H15V21L9 16H4C2.89551 16 2 15.1046 2 14V5ZM4 5H18V14H4V5Z" fill="currentColor" fill-rule="evenodd" clip-rule="evenodd" />
</svg>
