<svg xmlns="http://www.w3.org/2000/svg" viewBox="0 0 24 24">
    <path d="M7 7C7 6.44772 7.44772 6 8 6H13C13.5523 6 14 6.44772 14 7V10C14 10.5523 13.5523 11 13 11H10L7 13V7ZM12 8H9V9H12V8Z" fill="currentColor" fill-rule="evenodd" clip-rule="evenodd" />
    <path d="M10 13C10 12.4477 10.4477 12 11 12H16C16.5523 12 17 12.4477 17 13V19L14 17H11C10.4477 17 10 16.5523 10 16V13ZM15 14H12V15H15V14Z" fill="currentColor" fill-rule="evenodd" clip-rule="evenodd" />
    <path d="M6 2C4.89543 2 4 2.89543 4 4V20C4 21.1046 4.89543 22 6 22H18C19.1046 22 20 21.1046 20 20V4C20 2.89543 19.1046 2 18 2H6ZM6 5V20H18V5H6Z" fill="currentColor" fill-rule="evenodd" clip-rule="evenodd" />
</svg>
