<svg xmlns="http://www.w3.org/2000/svg" viewBox="0 0 24 24">
    <path d="M13.3626 13.4275L20.8571 5.29357C20.951 5.1955 21.0008 5.06347 20.9952 4.9279C20.9895 4.79233 20.9288 4.66491 20.8271 4.57498L19.3882 3.13782C19.1951 2.95406 18.8917 2.95406 18.6987 3.13782L10.5547 10.623C10.457 10.7171 10.4018 10.8468 10.4018 10.9823C10.4018 11.1179 10.457 11.2476 10.5547 11.3416L12.6431 13.4275C12.7373 13.5251 12.8672 13.5802 13.0029 13.5802C13.1386 13.5802 13.2684 13.5251 13.3626 13.4275ZM9.07574 12.3197L11.6838 14.9345C11.8475 15.0845 11.9565 15.2847 11.9936 15.5034V15.9924C11.9971 17.055 11.5763 18.0751 10.8245 18.8268C9.24901 20.3461 7.10382 21.1291 4.9188 20.9826C4.27581 20.9856 3.65007 20.7749 3.14011 20.3838C2.97298 20.2151 2.9479 19.9522 3.08016 19.755C3.84048 18.6253 3.90642 17.544 3.96961 16.5081C4.04094 15.3384 4.10876 14.2266 5.16862 13.168C5.91886 12.4195 6.93613 11.9995 7.99654 12.0003C8.15959 11.9901 8.32312 11.9901 8.48618 12.0003C8.71144 12.0422 8.91775 12.1539 9.07574 12.3197Z" fill="currentColor" fill-rule="evenodd" clip-rule="evenodd" />
</svg>
