<svg xmlns="http://www.w3.org/2000/svg" viewBox="0 0 24 24">
    <path d="M21.5 16C21.7761 16 22 16.2239 22 16.5V17.5C22 17.7761 21.7761 18 21.5 18H16.69L18.86 21.1C18.9492 21.2258 18.998 21.3758 19 21.53V21.75C19 21.8881 18.8881 22 18.75 22H17.57C17.2428 21.9995 16.9365 21.8389 16.75 21.57L14.25 18H9.75L7.25 21.57C7.06348 21.8389 6.75722 21.9995 6.43 22H5.25C5.11193 22 5 21.8881 5 21.75V21.53C5.00195 21.3758 5.05078 21.2258 5.14 21.1L7.31 18H2.5C2.22386 18 2 17.7761 2 17.5V16.5C2 16.2239 2.22386 16 2.5 16H3V6C3 4.89543 3.89543 4 5 4H11V2.5C11 2.22386 11.2239 2 11.5 2H12.5C12.7761 2 13 2.22386 13 2.5V4H19C20.1046 4 21 4.89543 21 6V16H21.5ZM5 16H19V6H5V16ZM7.5 14H12.5C12.7761 14 13 13.7761 13 13.5V12.5C13 12.2239 12.7761 12 12.5 12H7.5C7.22386 12 7 12.2239 7 12.5V13.5C7 13.7761 7.22386 14 7.5 14ZM16.5 10H7.5C7.22386 10 7 9.77614 7 9.5V8.5C7 8.22386 7.22386 8 7.5 8H16.5C16.7761 8 17 8.22386 17 8.5V9.5C17 9.77614 16.7761 10 16.5 10Z" fill="currentColor" fill-rule="evenodd" clip-rule="evenodd" />
</svg>
