<svg xmlns="http://www.w3.org/2000/svg" viewBox="0 0 24 24">
    <path d="M20.7099 4.28729L19.7099 3.28939C19.5236 3.10503 19.2722 3.0011 19.0099 3H17.8699C17.6075 3.0011 17.3561 3.10503 17.1699 3.28939L13.6899 6.80199L12.2799 5.38498C12.0854 5.19481 11.7743 5.19481 11.5799 5.38498L10.8699 6.09349C10.7752 6.18717 10.722 6.3147 10.722 6.44774C10.722 6.58078 10.7752 6.70831 10.8699 6.80199L11.5799 7.50052L3.87985 15.1843C3.34013 15.7222 3.15395 16.5195 3.39985 17.24L3.89985 18.6969L3.14985 19.4454C3.0552 19.5391 3.00195 19.6666 3.00195 19.7996C3.00195 19.9327 3.0552 20.0602 3.14985 20.1539L3.84985 20.8524C3.94374 20.9469 4.07153 21 4.20485 21C4.33817 21 4.46597 20.9469 4.55985 20.8524L5.30985 20.104L6.76985 20.6029C6.97599 20.6732 7.19203 20.7103 7.40985 20.7127C7.9429 20.7131 8.45406 20.5012 8.82985 20.1239L16.5299 12.4401L17.2299 13.1486C17.3237 13.2431 17.4515 13.2962 17.5849 13.2962C17.7182 13.2962 17.846 13.2431 17.9399 13.1486L18.6499 12.4401C18.8404 12.2461 18.8404 11.9356 18.6499 11.7416L17.2299 10.3346L20.7099 6.86187C20.8946 6.676 20.9987 6.42513 20.9999 6.16334V5.03571C21.0124 4.75674 20.9072 4.48528 20.7099 4.28729ZM7.52985 18.6071L5.39985 16.4816L12.9999 8.9375L15.1099 11.0231L7.52985 18.6071ZM6.49985 7.03151H4.49985C4.22371 7.03151 3.99985 6.80812 3.99985 6.53256V4.53676C3.99985 4.2612 4.22371 4.03781 4.49985 4.03781H6.49985C6.77599 4.03781 6.99985 4.2612 6.99985 4.53676V6.53256C6.99985 6.80812 6.77599 7.03151 6.49985 7.03151Z" fill="currentColor" fill-rule="evenodd" clip-rule="evenodd" />
</svg>
