<svg xmlns="http://www.w3.org/2000/svg" viewBox="0 0 24 24">
    <path d="M8.14005 5.43001L19.4901 16.78C19.8281 15.8922 20.001 14.95 20.0001 14C20.0001 10.19 17.1401 6.64001 14.5001 4.00001L12.6801 2.22001C12.5395 2.07931 12.3489 2.00018 12.1501 2.00001H11.8501C11.6568 1.98936 11.4669 2.05386 11.3201 2.18001L9.50005 4.00001C9.05005 4.43001 8.59005 4.93001 8.14005 5.43001ZM4.38005 4.15001L20.8501 20.62C20.9467 20.7107 21.0016 20.8374 21.0016 20.97C21.0016 21.1026 20.9467 21.2293 20.8501 21.32L20.3201 21.85C20.2293 21.9467 20.1026 22.0015 19.9701 22.0015C19.8375 22.0015 19.7108 21.9467 19.6201 21.85L17.5301 19.77C15.2166 21.983 11.8067 22.6037 8.86183 21.3479C5.91698 20.092 4.00442 17.2015 4.00005 14C4.09471 11.9207 4.78934 9.91318 6.00005 8.22001L3.15005 5.38001C3.05338 5.28927 2.99854 5.16259 2.99854 5.03001C2.99854 4.89742 3.05338 4.77074 3.15005 4.68001L3.68005 4.15001C3.77079 4.05333 3.89747 3.99849 4.03005 3.99849C4.16264 3.99849 4.28932 4.05333 4.38005 4.15001Z" fill="currentColor" fill-rule="evenodd" clip-rule="evenodd" />
</svg>
