<svg xmlns="http://www.w3.org/2000/svg" viewBox="0 0 24 24">
    <path d="M2 6.5C2 6.77614 2.22386 7 2.5 7H17V15H19V7C19 5.89543 18.1046 5 17 5H7V2.5C7 2.22386 6.77614 2 6.5 2H5.5C5.22386 2 5 2.22386 5 2.5V5H2.5C2.22386 5 2 5.22386 2 5.5V6.5ZM7 17H21.5C21.7761 17 22 17.2239 22 17.5V18.5C22 18.7761 21.7761 19 21.5 19H19V21.5C19 21.7761 18.7761 22 18.5 22H17.5C17.2239 22 17 21.7761 17 21.5V19H7C5.89543 19 5 18.1046 5 17V9H7V17Z" fill="currentColor" fill-rule="evenodd" clip-rule="evenodd" />
</svg>
