<svg xmlns="http://www.w3.org/2000/svg" viewBox="0 0 24 24">
    <path d="M9.5 14.5V9.5H14.5V14.5H9.5Z" fill="currentColor" />
    <path d="M8 4C8 2.89543 8.89543 2 10 2H20C21.1046 2 22 2.89543 22 4V14C22 15.1046 21.1046 16 20 16H16V20C16 21.1046 15.1046 22 14 22H4C2.89543 22 2 21.1046 2 20V10C2 8.89543 2.89543 8 4 8H8V4ZM8 9C8 8.44772 8.44772 8 9 8H15C15.5523 8 16 8.44772 16 9V15C16 15.5523 15.5523 16 15 16H9C8.44772 16 8 15.5523 8 15V9Z" fill="currentColor" fill-rule="evenodd" clip-rule="evenodd" />
</svg>
