<svg xmlns="http://www.w3.org/2000/svg" viewBox="0 0 24 24">
    <path d="M6.5 4C6.77614 4 7 4.22386 7 4.5V5.5C7 5.77614 6.77614 6 6.5 6H4V8.5C4 8.77614 3.77614 9 3.5 9H2.5C2.22386 9 2 8.77614 2 8.5V6C2 4.89543 2.89543 4 4 4H6.5ZM22 8.5V6C22 4.89543 21.1046 4 20 4H17.5C17.2239 4 17 4.22386 17 4.5V5.5C17 5.77614 17.2239 6 17.5 6H20V8.5C20 8.77614 20.2239 9 20.5 9H21.5C21.7761 9 22 8.77614 22 8.5ZM21.5 15H20.5C20.2239 15 20 15.2239 20 15.5V18H17.5C17.2239 18 17 18.2239 17 18.5V19.5C17 19.7761 17.2239 20 17.5 20H20C21.1046 20 22 19.1046 22 18V15.5C22 15.2239 21.7761 15 21.5 15ZM6.5 18C6.77614 18 7 18.2239 7 18.5V19.5C7 19.7761 6.77614 20 6.5 20H4C2.89543 20 2 19.1046 2 18V15.5C2 15.2239 2.22386 15 2.5 15H3.5C3.77614 15 4 15.2239 4 15.5V18H6.5Z" fill="currentColor" fill-rule="evenodd" clip-rule="evenodd" />
</svg>
