<svg xmlns="http://www.w3.org/2000/svg" viewBox="0 0 24 24">
    <path d="M3 8.5V5C3 3.89543 3.89543 3 5 3H8.5C8.77614 3 9 3.22386 9 3.5V4.5C9 4.77614 8.77614 5 8.5 5H5V8.5C5 8.77614 4.77614 9 4.5 9H3.5C3.22386 9 3 8.77614 3 8.5ZM15.5 3H19C20.1046 3 21 3.89543 21 5V8.5C21 8.77614 20.7761 9 20.5 9H19.5C19.2239 9 19 8.77614 19 8.5V5H15.5C15.2239 5 15 4.77614 15 4.5V3.5C15 3.22386 15.2239 3 15.5 3ZM19 15.5V19H15.5C15.2239 19 15 19.2239 15 19.5V20.5C15 20.7761 15.2239 21 15.5 21H19C20.1046 21 21 20.1046 21 19V15.5C21 15.2239 20.7761 15 20.5 15H19.5C19.2239 15 19 15.2239 19 15.5ZM3.5 15H4.5C4.77614 15 5 15.2239 5 15.5V19H8.5C8.77614 19 9 19.2239 9 19.5V20.5C9 20.7761 8.77614 21 8.5 21H5C3.89543 21 3 20.1046 3 19V15.5C3 15.2239 3.22386 15 3.5 15Z" fill="currentColor" fill-rule="evenodd" clip-rule="evenodd" />
</svg>
