<svg xmlns="http://www.w3.org/2000/svg" viewBox="0 0 24 24">
    <path d="M19 12.9956H20.5C20.7761 12.9956 21 13.2195 21 13.4958V14.4964C21 14.7727 20.7761 14.9967 20.5 14.9967H19V16.8377C19.0281 19.0859 17.2464 20.94 15 21C12.7909 21 11 19.2081 11 16.9978C11.06 14.7501 12.913 12.9674 15.16 12.9956H17V11.995C17 10.8898 16.1046 9.99389 15 9.99389C13.53 9.99389 12.68 11.1045 11.62 12.6654L11.6164 12.6707C10.5573 14.2303 9.35732 15.9972 7 15.9972C4.79086 15.9972 3 14.2054 3 11.995C3 9.28717 5.26333 8.33635 6.94741 7.62886C6.96837 7.62006 6.98923 7.6113 7.01 7.60257C8.48 6.99223 9.18 6.65204 9.18 5.99167C9.18 5.43908 8.73228 4.99112 8.18 4.99112C7.44633 4.99088 6.73683 5.25354 6.18 5.73153C5.41438 6.31487 4.50593 6.68122 3.55 6.79212C3.40822 6.7998 3.26882 6.7533 3.16 6.66204C3.05909 6.56519 3.00141 6.43175 3 6.29184V5.29128C3.0032 5.04065 3.19129 4.83107 3.44 4.80101C4.03178 4.7043 4.58734 4.45226 5.05 4.07061C5.94474 3.37435 7.04651 2.99749 8.18 3.00001C9.83685 3.00001 11.18 4.3439 11.18 6.00168C11.18 8.05965 9.31396 8.8334 7.79905 9.46156L7.77 9.4736C5.89 10.244 5 10.7443 5 11.995C5 13.1002 5.89543 13.9961 7 13.9961C8.24 13.9961 9 13.0956 10 11.5448C11 9.99389 12.36 7.99278 15 7.99278C17.2091 7.99278 19 9.78464 19 11.995V12.9956ZM15 18.9989C16.64 18.9989 17 17.2679 17 16.8377V14.9967H15.16C14.0191 14.9733 13.0644 15.8578 13 16.9978C13 18.103 13.8954 18.9989 15 18.9989Z" fill="currentColor" fill-rule="evenodd" clip-rule="evenodd" />
</svg>
