<svg xmlns="http://www.w3.org/2000/svg" viewBox="0 0 24 24">
    <path d="M21 11.91V12.09C20.9989 12.3523 20.8947 12.6037 20.71 12.79L12.79 20.71C12.6037 20.8947 12.3523 20.9989 12.09 21H11.91C11.6477 20.9989 11.3963 20.8947 11.21 20.71L3.29 12.79C3.10526 12.6037 3.0011 12.3523 3 12.09V11.91C3.0011 11.6477 3.10526 11.3963 3.29 11.21L11.21 3.29C11.3963 3.10526 11.6477 3.0011 11.91 3H12.09C12.3523 3.0011 12.6037 3.10526 12.79 3.29L20.71 11.21C20.8947 11.3963 20.9989 11.6477 21 11.91Z" fill="currentColor" />
</svg>
