<svg xmlns="http://www.w3.org/2000/svg" viewBox="0 0 24 24">
    <path d="M20 4H4C2.89543 4 2 4.89543 2 6V18C2 19.1046 2.89543 20 4 20H20C21.1046 20 22 19.1046 22 18V6C22 4.89543 21.1046 4 20 4ZM20 9.35C19.1932 9.54923 18.3697 9.6731 17.54 9.72C17.3958 8.45412 17.1175 7.20713 16.71 6H20V9.35ZM8 10C6.62067 9.9664 5.25209 10.2504 4 10.83V12.9C5.59925 12.3027 7.29286 11.9979 9 12C9.30749 12.0044 9.61455 12.0244 9.92 12.06V12C9.91879 11.3787 9.88541 10.7579 9.82 10.14C9.21819 10.0436 8.60948 9.99676 8 10ZM11.61 10.55L12.61 10.9C13.6605 11.3079 14.7598 11.5769 15.88 11.7V12C15.8787 12.8871 15.8119 13.7728 15.68 14.65C14.4992 13.6108 13.1073 12.8398 11.6 12.39V12C11.67 11.5 11.64 11 11.61 10.55ZM10.71 6C10.9714 6.78486 11.1785 7.58674 11.33 8.4C11.8866 8.53725 12.3967 8.70357 12.8736 8.85907L12.8737 8.85909L12.8737 8.85909C13.0222 8.90751 13.1675 8.95488 13.31 9C14.0995 9.31515 14.921 9.54316 15.76 9.68C15.6071 8.42096 15.3015 7.1852 14.85 6H10.71ZM15.21 16.94C15.09 17.32 14.97 17.68 14.85 18H9.78C10.5145 16.9011 11.0525 15.683 11.37 14.4C12.8301 14.9365 14.145 15.8062 15.21 16.94ZM9.48 8.08C9.32078 7.37229 9.11022 6.67712 8.85 6H4V8.66C5.2842 8.2067 6.63825 7.98329 8 8C8.49443 7.99952 8.98851 8.02623 9.48 8.08ZM4 15.05C5.57634 14.3587 7.27873 14.0012 9 14H9.66C9.2965 15.4645 8.61351 16.8305 7.66 18H4V15.05ZM17.22 16.16C17.7159 16.7383 18.1672 17.3534 18.57 18H20V11.4C19.2325 11.5635 18.4535 11.6672 17.67 11.71V12C17.6704 13.3988 17.5195 14.7936 17.22 16.16Z" fill="currentColor" fill-rule="evenodd" clip-rule="evenodd" />
</svg>
