<svg xmlns="http://www.w3.org/2000/svg" viewBox="0 0 24 24">
    <path d="M19.36 5.36L17.71 3.71C17.2573 3.25508 16.6418 2.99953 16 3C14.8954 3 14 3.89543 14 5V6.59C13.9983 6.99444 13.7532 7.35805 13.3789 7.51127C13.0046 7.66449 12.5748 7.57716 12.29 7.29L12.17 7.17C11.4192 6.42005 10.4012 5.99917 9.34 6H8C4.68629 6 2 8.68629 2 12V13C2 17.4183 5.58172 21 10 21H14C16.1217 21 18.1566 20.1571 19.6569 18.6569C21.1571 17.1566 22 15.1217 22 13V11.73C22.0006 9.34039 21.0508 7.04866 19.36 5.36ZM6.5 14C5.67157 14 5 13.3284 5 12.5C5 11.6716 5.67157 11 6.5 11C7.32843 11 8 11.6716 8 12.5C8 13.3284 7.32843 14 6.5 14ZM8 16.5C8 17.3284 8.67157 18 9.5 18C10.3284 18 11 17.3284 11 16.5C11 15.6716 10.3284 15 9.5 15C8.67157 15 8 15.6716 8 16.5ZM14.5 18C13.6716 18 13 17.3284 13 16.5C13 15.6716 13.6716 15 14.5 15C15.3284 15 16 15.6716 16 16.5C16 17.3284 15.3284 18 14.5 18ZM16 12.5C16 13.3284 16.6716 14 17.5 14C18.3284 14 19 13.3284 19 12.5C19 11.6716 18.3284 11 17.5 11C16.6716 11 16 11.6716 16 12.5Z" fill="currentColor" fill-rule="evenodd" clip-rule="evenodd" />
</svg>
