<svg xmlns="http://www.w3.org/2000/svg" viewBox="0 0 24 24">
    <path d="M21.9998 5.5V15.41C22.004 16.462 21.7316 17.4965 21.2098 18.41L18.5798 23C18.2211 23.6213 17.5572 24.0028 16.8398 24H11.6998C11.2453 23.9996 10.8044 23.8445 10.4498 23.56L6.72983 20.56C6.24558 20.1777 5.82385 19.7222 5.47983 19.21L4.56983 17.84C4.19388 17.2858 3.64 16.8766 2.99983 16.68L1.65983 16.23L1.29983 16.11C1.10818 16.0298 0.987957 15.8374 0.999829 15.63V15.49C0.99982 15.0931 1.15817 14.7126 1.43977 14.4329C1.72137 14.1531 2.10293 13.9973 2.49983 14H3.33983C3.77461 13.9956 4.20712 14.0632 4.61983 14.2L6.99983 15V2.5C6.99983 1.67157 7.6714 1 8.49983 1C9.32826 1 9.99983 1.67157 9.99983 2.5V10.5C9.99983 10.7761 10.2237 11 10.4998 11C10.776 11 10.9998 10.7761 10.9998 10.5V1.5C10.9998 0.671573 11.6714 0 12.4998 0C13.3283 0 13.9998 0.671573 13.9998 1.5V10.5C13.9998 10.7761 14.2237 11 14.4998 11C14.776 11 14.9998 10.7761 14.9998 10.5V2.5C14.9998 1.67157 15.6714 1 16.4998 1C17.3283 1 17.9998 1.67157 17.9998 2.5V10.5C17.9998 10.7761 18.2237 11 18.4998 11C18.776 11 18.9998 10.7761 18.9998 10.5V5.5C18.9998 4.67157 19.6714 4 20.4998 4C21.3283 4 21.9998 4.67157 21.9998 5.5Z" fill="currentColor" />
</svg>
