<svg xmlns="http://www.w3.org/2000/svg" viewBox="0 0 24 24">
    <path d="M19 3C20.1046 3 21 3.89543 21 5V19C21 20.1046 20.1046 21 19 21H5C3.89543 21 3 20.1046 3 19V5C3 3.89543 3.89543 3 5 3H19ZM19 9.7L16.7 12L14.35 9.65L16.7 7.3L19 9.6V5L16.7 7.3L14.4 5H14.3L12 7.3L9.7 5H9.6L7.3 7.3L5 5V9.6L7.3 7.3L9.65 9.65L7.3 12L5 9.7V14.3L7.3 12L9.65 14.35L7.3 16.7L5 14.4V19L7.3 16.7L9.6 19H9.7L12 16.7L14.3 19H14.4L16.7 16.7L19 19V14.4L16.7 16.7L14.35 14.35L16.7 12L19 14.3V9.7ZM12 12L9.7 14.35L12 16.7L14.35 14.35L12 12ZM12 12L9.7 9.65L12 7.3L14.35 9.65L12 12Z" fill="currentColor" fill-rule="evenodd" clip-rule="evenodd" />
</svg>
