<svg xmlns="http://www.w3.org/2000/svg" viewBox="0 0 24 24">
    <path d="M12.5 3H11.5C11.2239 3 11 3.22386 11 3.5V4.5C11 4.77614 11.2239 5 11.5 5H12.5C12.7762 5 13 4.77614 13 4.5V3.5C13 3.22386 12.7762 3 12.5 3ZM21.51 5.86L21.62 5.92C21.8557 6.05122 22.0013 6.30027 22 6.57V17.35C22.0013 17.6197 21.8557 17.8688 21.62 18L21.51 18.06C21.2656 18.2141 20.9544 18.2141 20.71 18.06L13.32 12.88C13.1208 12.7406 13.0015 12.5132 13 12.27V11.65C13.0015 11.4068 13.1208 11.1794 13.32 11.04L20.71 5.86C20.9529 5.70087 21.2671 5.70087 21.51 5.86ZM3.29001 5.9C3.16723 5.80491 3.01523 5.75542 2.86001 5.76C2.72971 5.75772 2.60142 5.79239 2.49001 5.86L2.38001 5.92C2.14434 6.05122 1.99874 6.30027 2.00001 6.57V17.42C1.99874 17.6897 2.14434 17.9388 2.38001 18.07L2.49001 18.13C2.60142 18.1976 2.72971 18.2323 2.86001 18.23C3.01344 18.2329 3.1639 18.1875 3.29001 18.1L10.68 12.92C10.8793 12.7806 10.9985 12.5532 11 12.31V11.69C10.9985 11.4468 10.8793 11.2194 10.68 11.08L3.29001 5.9ZM4.00001 15.16V8.83L8.51001 12L4.00001 15.16ZM11.5 7H12.5C12.7762 7 13 7.22386 13 7.5V8.5C13 8.77614 12.7762 9 12.5 9H11.5C11.2239 9 11 8.77614 11 8.5V7.5C11 7.22386 11.2239 7 11.5 7ZM12.5 15H11.5C11.2239 15 11 15.2239 11 15.5V16.5C11 16.7761 11.2239 17 11.5 17H12.5C12.7762 17 13 16.7761 13 16.5V15.5C13 15.2239 12.7762 15 12.5 15ZM11.5 19H12.5C12.7762 19 13 19.2239 13 19.5V20.5C13 20.7761 12.7762 21 12.5 21H11.5C11.2239 21 11 20.7761 11 20.5V19.5C11 19.2239 11.2239 19 11.5 19Z" fill="currentColor" fill-rule="evenodd" clip-rule="evenodd" />
</svg>
