<svg xmlns="http://www.w3.org/2000/svg" viewBox="0 0 24 24">
    <path d="M18.9932 4.49943C18.9932 4.77545 19.217 4.99922 19.493 4.99922H20.7225C20.796 4.9986 20.8654 4.9657 20.9124 4.90926C20.9633 4.85606 20.9855 4.78174 20.9724 4.70934C20.8528 3.82694 20.164 3.13 19.2831 3.00004C19.2107 2.98689 19.1364 3.00919 19.0832 3.06002C19.0267 3.10703 18.9938 3.17649 18.9932 3.24994V4.49943ZM4.7091 3.00004C3.82038 3.12181 3.12156 3.82062 2.9998 4.70934C2.98665 4.78174 3.00894 4.85606 3.05977 4.90926C3.11115 4.97133 3.1893 5.00483 3.26969 4.99922H4.49918C4.77521 4.99922 4.99898 4.77545 4.99898 4.49943V3.26993C4.99836 3.19648 4.96546 3.12702 4.90901 3.08001C4.85975 3.02187 4.78487 2.99192 4.7091 3.00004ZM12.9957 3.49984C12.9957 3.22381 12.7719 3.00004 12.4959 3.00004H11.4963C11.2203 3.00004 10.9965 3.22381 10.9965 3.49984V4.49943C10.9965 4.77545 11.2203 4.99922 11.4963 4.99922H12.4959C12.7719 4.99922 12.9957 4.77545 12.9957 4.49943V3.49984ZM8.99733 20.4928V19.4932C8.99733 19.2172 8.77356 18.9935 8.49753 18.9935H7.49795C7.22192 18.9935 6.99815 19.2172 6.99815 19.4932V20.4928C6.99815 20.7689 7.22192 20.9926 7.49795 20.9926H8.49753C8.77356 20.9926 8.99733 20.7689 8.99733 20.4928ZM11.4963 18.9935H12.4959C12.7719 18.9935 12.9957 19.2172 12.9957 19.4932V20.4928C12.9957 20.7689 12.7719 20.9926 12.4959 20.9926H11.4963C11.2203 20.9926 10.9965 20.7689 10.9965 20.4928V19.4932C10.9965 19.2172 11.2203 18.9935 11.4963 18.9935ZM7.49795 3.00004H8.49753C8.77356 3.00004 8.99733 3.22381 8.99733 3.49984V4.49943C8.99733 4.77545 8.77356 4.99922 8.49753 4.99922H7.49795C7.22192 4.99922 6.99815 4.77545 6.99815 4.49943V3.49984C6.99815 3.22381 7.22192 3.00004 7.49795 3.00004ZM3.49959 6.9984H4.49918C4.77521 6.9984 4.99898 7.22216 4.99898 7.49819V8.49778C4.99898 8.77381 4.77521 8.99757 4.49918 8.99757H3.49959C3.22356 8.99757 2.9998 8.77381 2.9998 8.49778V7.49819C2.9998 7.22216 3.22356 6.9984 3.49959 6.9984ZM4.49918 10.9967H3.49959C3.22356 10.9967 2.9998 11.2205 2.9998 11.4965V12.4961C2.9998 12.7722 3.22356 12.9959 3.49959 12.9959H4.49918C4.77521 12.9959 4.99898 12.7722 4.99898 12.4961V11.4965C4.99898 11.2205 4.77521 10.9967 4.49918 10.9967ZM3.49959 14.9951H4.49918C4.77521 14.9951 4.99898 15.2189 4.99898 15.4949V16.4945C4.99898 16.7705 4.77521 16.9943 4.49918 16.9943H3.49959C3.22356 16.9943 2.9998 16.7705 2.9998 16.4945V15.4949C2.9998 15.2189 3.22356 14.9951 3.49959 14.9951ZM4.49918 18.9935H3.26969C3.19624 18.9941 3.12677 19.027 3.07977 19.0834C3.02893 19.1366 3.00664 19.2109 3.01979 19.2833C3.13937 20.1657 3.82816 20.8627 4.7091 20.9926C4.78149 21.0058 4.85581 20.9835 4.90901 20.9327C4.97109 20.8813 5.00458 20.8031 4.99898 20.7227V19.4932C4.99898 19.2172 4.77521 18.9935 4.49918 18.9935ZM19.493 18.9935H20.7225C20.8029 18.9878 20.881 19.0213 20.9324 19.0834C20.9832 19.1366 21.0055 19.2109 20.9924 19.2833C20.8624 20.1643 20.1655 20.8531 19.2831 20.9726C19.2107 20.9858 19.1364 20.9635 19.0832 20.9127C19.0267 20.8657 18.9938 20.7962 18.9932 20.7227V19.4932C18.9932 19.2172 19.217 18.9935 19.493 18.9935ZM19.493 6.9984H20.4926C20.7686 6.9984 20.9924 7.22216 20.9924 7.49819V8.49778C20.9924 8.77381 20.7686 8.99757 20.4926 8.99757H19.493C19.217 8.99757 18.9932 8.77381 18.9932 8.49778V7.49819C18.9932 7.22216 19.217 6.9984 19.493 6.9984ZM20.4926 10.9967H19.493C19.217 10.9967 18.9932 11.2205 18.9932 11.4965V12.4961C18.9932 12.7722 19.217 12.9959 19.493 12.9959H20.4926C20.7686 12.9959 20.9924 12.7722 20.9924 12.4961V11.4965C20.9924 11.2205 20.7686 10.9967 20.4926 10.9967ZM19.493 14.9951H20.4926C20.7686 14.9951 20.9924 15.2189 20.9924 15.4949V16.4945C20.9924 16.7705 20.7686 16.9943 20.4926 16.9943H19.493C19.217 16.9943 18.9932 16.7705 18.9932 16.4945V15.4949C18.9932 15.2189 19.217 14.9951 19.493 14.9951ZM16.994 3.49984C16.994 3.22381 16.7703 3.00004 16.4942 3.00004H15.4947C15.2186 3.00004 14.9949 3.22381 14.9949 3.49984V4.49943C14.9949 4.77545 15.2186 4.99922 15.4947 4.99922H16.4942C16.7703 4.99922 16.994 4.77545 16.994 4.49943V3.49984ZM15.4947 18.9935H16.4942C16.7703 18.9935 16.994 19.2172 16.994 19.4932V20.4928C16.994 20.7689 16.7703 20.9926 16.4942 20.9926H15.4947C15.2186 20.9926 14.9949 20.7689 14.9949 20.4928V19.4932C14.9949 19.2172 15.2186 18.9935 15.4947 18.9935Z" fill="currentColor" fill-rule="evenodd" clip-rule="evenodd" />
</svg>
