<svg xmlns="http://www.w3.org/2000/svg" viewBox="0 0 24 24">
    <path d="M12.4968 5.00001H21.494C21.6816 4.999 21.854 5.10313 21.9404 5.26968C22.0268 5.43623 22.0127 5.63715 21.9039 5.79001L13.0667 18.16C12.6914 18.6873 12.0842 19.0003 11.4372 19H2.9998C2.51718 19.0097 2.09655 18.6731 2.00011 18.2C1.99541 18.1334 1.99541 18.0666 2.00011 18V6.00001C2.00011 5.44772 2.44768 5.00001 2.9998 5.00001H8.99793C9.55004 5.00001 9.99762 5.44772 9.99762 6.00001V7.06001L10.8673 5.84001C11.2426 5.31275 11.8498 4.99976 12.4968 5.00001ZM7.99824 7.00001H3.99948V15.46L7.99824 9.86001V7.00001Z" fill="currentColor" fill-rule="evenodd" clip-rule="evenodd" />
</svg>
