<svg xmlns="http://www.w3.org/2000/svg" viewBox="0 0 24 24">
    <path d="M18.1718 9.05778H18.652C18.9144 9.05888 19.1659 9.163 19.3522 9.34769L21.7128 11.7069C21.8976 11.8931 22.0018 12.1445 22.0029 12.4067V12.8866C22.0018 13.1537 21.8938 13.4093 21.7028 13.5964L15.6011 19.6544C14.1001 21.1562 12.0634 22 9.93948 22C7.81559 22 5.77883 21.1562 4.27786 19.6544L3.91775 19.2646C1.16301 15.9842 1.40734 11.1353 4.47791 8.14807L10.3796 2.28991C10.5659 2.10522 10.8174 2.0011 11.0798 2H11.5899C11.8524 2.0011 12.1038 2.10522 12.2901 2.28991L14.6708 4.63917C14.8556 4.82537 14.9598 5.07669 14.9609 5.33895V5.88878C14.9598 6.15594 14.8517 6.41154 14.6608 6.59855L8.55908 12.5967C8.18342 12.9717 7.97234 13.4806 7.97234 14.0112C7.97234 14.5419 8.18342 15.0508 8.55908 15.4258C8.63635 15.5095 8.72371 15.5834 8.81916 15.6457C9.66005 16.1953 10.7732 16.0694 11.4699 15.3458L17.4716 9.34769C17.6579 9.163 17.9094 9.05888 18.1718 9.05778ZM5.41818 17.995C5.50763 18.0794 5.6011 18.1595 5.69826 18.2349C8.04147 20.5738 11.8375 20.5738 14.1807 18.2349L17.1615 15.3058L15.7511 13.8963L12.8403 16.7354C11.453 18.1444 9.25701 18.363 7.61881 17.2552C7.43235 17.1285 7.2582 16.9846 7.09866 16.8253C6.34734 16.0753 5.92518 15.0575 5.92518 13.9962C5.92518 12.9349 6.34734 11.9172 7.09866 11.1671L10.0995 8.23804L8.68912 6.87846L5.88832 9.60761C3.55646 11.8482 3.35132 15.5081 5.41818 17.995Z" fill="currentColor" fill-rule="evenodd" clip-rule="evenodd" />
</svg>
