<svg xmlns="http://www.w3.org/2000/svg" viewBox="0 0 24 24">
    <path d="M19.5 7H4.5C4.22386 7 4 6.77614 4 6.5V2.5C4 2.22386 4.22386 2 4.5 2H19.5C19.7761 2 20 2.22386 20 2.5V6.5C20 6.77614 19.7761 7 19.5 7ZM4.5 13H19.5C19.7761 13 20 12.7761 20 12.5V9.5C20 9.22386 19.7761 9 19.5 9H4.5C4.22386 9 4 9.22386 4 9.5V12.5C4 12.7761 4.22386 13 4.5 13ZM19.5 18H4.5C4.22386 18 4 17.7761 4 17.5V15.5C4 15.2239 4.22386 15 4.5 15H19.5C19.7761 15 20 15.2239 20 15.5V17.5C20 17.7761 19.7761 18 19.5 18ZM4 20.5V21.5C4 21.7761 4.22386 22 4.5 22H19.5C19.7761 22 20 21.7761 20 21.5V20.5C20 20.2239 19.7761 20 19.5 20H4.5C4.22386 20 4 20.2239 4 20.5Z" fill="currentColor" fill-rule="evenodd" clip-rule="evenodd" />
</svg>
