<svg xmlns="http://www.w3.org/2000/svg" viewBox="0 0 24 24">
    <path d="M21 8C21 8.55228 20.5523 9 20 9H19V15H20C20.5523 15 21 15.4477 21 16V20C21 20.5523 20.5523 21 20 21H16C15.4477 21 15 20.5523 15 20V19H9V20C9 20.5523 8.55228 21 8 21H4C3.44772 21 3 20.5523 3 20V16C3 15.4477 3.44772 15 4 15H5V9H4C3.44772 9 3 8.55228 3 8V4C3 3.44772 3.44772 3 4 3H8C8.55228 3 9 3.44772 9 4V5H15V4C15 3.44772 15.4477 3 16 3H20C20.5523 3 21 3.44772 21 4V8ZM19 5H17V7H19V5ZM5 5H7V7H5V5ZM5 19H7V17H5V19ZM19 19H17V17H19V19ZM16 15H17V9H16C15.4477 9 15 8.55228 15 8V7H9V8C9 8.55228 8.55228 9 8 9H7V15H8C8.55228 15 9 15.4477 9 16V17H15V16C15 15.4477 15.4477 15 16 15Z" fill="currentColor" fill-rule="evenodd" clip-rule="evenodd" />
</svg>
