<svg xmlns="http://www.w3.org/2000/svg" viewBox="0 0 24 24">
    <path d="M2 12C2 6.47715 6.47715 2 12 2C14.6522 2 17.1957 3.05357 19.0711 4.92893C20.9464 6.8043 22 9.34784 22 12C22 17.5228 17.5228 22 12 22C6.47715 22 2 17.5228 2 12ZM4 12C4 16.4183 7.58172 20 12 20C14.1217 20 16.1566 19.1571 17.6569 17.6569C19.1571 16.1566 20 14.1217 20 12C20 7.58172 16.4183 4 12 4C7.58172 4 4 7.58172 4 12ZM10.5 8H9.5C9.22386 8 9 8.22386 9 8.5V15.5C9 15.7761 9.22386 16 9.5 16H10.5C10.7761 16 11 15.7761 11 15.5V8.5C11 8.22386 10.7761 8 10.5 8ZM13.5 8H14.5C14.7761 8 15 8.22386 15 8.5V15.5C15 15.7761 14.7761 16 14.5 16H13.5C13.2239 16 13 15.7761 13 15.5V8.5C13 8.22386 13.2239 8 13.5 8Z" fill="currentColor" fill-rule="evenodd" clip-rule="evenodd" />
</svg>
