<svg xmlns="http://www.w3.org/2000/svg" viewBox="0 0 24 24">
    <path d="M19 3H5C3.89543 3 3 3.89543 3 5V19C3 20.1046 3.89543 21 5 21H19C20.1046 21 21 20.1046 21 19V5C21 3.89543 20.1046 3 19 3ZM19 19H5V5H19V19ZM15.06 12.62L11.17 15.22C10.9403 15.3752 10.6438 15.3911 10.3988 15.2613C10.1539 15.1315 10.0005 14.8772 10 14.6V9.4C10.0005 9.12279 10.1539 8.86846 10.3988 8.73867C10.6438 8.60887 10.9403 8.62476 11.17 8.78L15.06 11.38C15.2696 11.5166 15.396 11.7498 15.396 12C15.396 12.2502 15.2696 12.4834 15.06 12.62Z" fill="currentColor" fill-rule="evenodd" clip-rule="evenodd" />
</svg>
