<svg xmlns="http://www.w3.org/2000/svg" viewBox="0 0 24 24">
    <path d="M12 2C6.47715 2 2 6.47715 2 12C2 17.5228 6.47715 22 12 22C17.5228 22 22 17.5228 22 12C22 9.34784 20.9464 6.8043 19.0711 4.92893C17.1957 3.05357 14.6522 2 12 2ZM12 20C7.58172 20 4 16.4183 4 12C4 7.58172 7.58172 4 12 4C16.4183 4 20 7.58172 20 12C20 14.1217 19.1571 16.1566 17.6569 17.6569C16.1566 19.1571 14.1217 20 12 20ZM8 9.25C8 8.55964 8.55964 8 9.25 8H14.75C15.4404 8 16 8.55964 16 9.25V14.75C16 15.4404 15.4404 16 14.75 16H9.25C8.55964 16 8 15.4404 8 14.75V9.25Z" fill="currentColor" fill-rule="evenodd" clip-rule="evenodd" />
</svg>
