<svg xmlns="http://www.w3.org/2000/svg" viewBox="0 0 24 24">
    <path d="M3 1H17C18.1046 1 19 1.89543 19 3V17C19 18.1046 18.1046 19 17 19H3C1.89543 19 1 18.1046 1 17V3C1 1.89543 1.89543 1 3 1ZM3 17H17V3H3V17ZM21 5V19C21 20.1046 20.1046 21 19 21H5C5 22.1046 5.89543 23 7 23H19C21.2091 23 23 21.2091 23 19V7C23 5.89543 22.1046 5 21 5ZM13.06 10.62L9.17 13.22C8.94033 13.3752 8.64377 13.3911 8.39882 13.2613C8.15388 13.1315 8.00051 12.8772 8 12.6V7.4C8.00051 7.12279 8.15388 6.86846 8.39882 6.73867C8.64377 6.60887 8.94033 6.62476 9.17 6.78L13.06 9.38C13.2696 9.51658 13.396 9.74982 13.396 10C13.396 10.2502 13.2696 10.4834 13.06 10.62Z" fill="currentColor" fill-rule="evenodd" clip-rule="evenodd" />
</svg>
